<svg width="308" height="541" viewBox="0 0 308 541" fill="none" xmlns="http://www.w3.org/2000/svg">
<mask id="mask0_833_138" style="mask-type:luminance" maskUnits="userSpaceOnUse" x="234" y="0" width="74" height="75">
<path d="M308 0.640625H234V74.6406H308V0.640625Z" fill="white"/>
</mask>
<g mask="url(#mask0_833_138)">
<path fill-rule="evenodd" clip-rule="evenodd" d="M288.496 37.6406L307.414 48.5629L298.664 63.7183L279.746 52.796V74.6406H262.246V52.796L243.328 63.7184L234.578 48.5629L253.496 37.6406L234.578 26.7183L243.328 11.5629L262.246 22.4852V0.640625H279.746V22.4852L298.664 11.563L307.414 26.7184L288.496 37.6406Z" fill="#FF3600"/>
</g>
<path fill-rule="evenodd" clip-rule="evenodd" d="M22.4637 496.196C22.5354 495.955 22.7574 495.789 23.0093 495.789C23.2613 495.789 23.4833 495.955 23.555 496.196C23.555 496.196 24.5537 499.544 25.6241 503.134C27.3297 508.855 31.8045 513.33 37.5249 515.035C41.1154 516.106 44.463 517.104 44.463 517.104C44.704 517.176 44.8703 517.398 44.8703 517.65C44.8703 517.902 44.704 518.124 44.463 518.196C44.463 518.196 41.1154 519.194 37.5249 520.265C31.8045 521.97 27.3297 526.445 25.6241 532.166C24.5537 535.756 23.555 539.104 23.555 539.104C23.4833 539.345 23.2613 539.511 23.0093 539.511C22.7574 539.511 22.5354 539.345 22.4637 539.104C22.4637 539.104 21.465 535.756 20.3946 532.166C18.689 526.445 14.2142 521.97 8.49381 520.265C4.90328 519.194 1.55568 518.196 1.55568 518.196C1.31471 518.124 1.14844 517.902 1.14844 517.65C1.14844 517.398 1.31471 517.176 1.55568 517.104C1.55568 517.104 4.90328 516.106 8.49381 515.035C14.2142 513.33 18.689 508.855 20.3946 503.134C21.465 499.544 22.4637 496.196 22.4637 496.196Z" fill="white"/>
</svg>
