<svg width="356" height="185" viewBox="0 0 356 185" fill="none" xmlns="http://www.w3.org/2000/svg">
<g clip-path="url(#clip0_838_356)">
<path d="M15.7217 62.9415C15.9295 62.9415 16.1374 62.8875 16.3232 62.7804L41.9996 47.9432L66.8014 38.7075C67.2429 38.5434 67.5482 38.1366 67.5825 37.6662C67.6156 37.1969 67.3723 36.7504 66.9601 36.524L1.87539 0.898357C1.45845 0.668786 0.945375 0.708264 0.566535 0.998616C0.187696 1.28771 0.0155866 1.77289 0.12738 2.23612L14.5506 62.0202C14.6403 62.3893 14.8976 62.6951 15.2468 62.8444C15.3996 62.9096 15.5604 62.9415 15.7217 62.9415ZM63.4936 37.3709L41.0647 45.7229C41.002 45.7462 40.9403 45.7747 40.8826 45.8084L16.5139 59.8902L3.10551 4.31565L63.4936 37.3709Z" fill="#FF3600"/>
<path d="M40.9107 47.9082C41.1948 47.9082 41.4792 47.8088 41.7091 47.6056C42.206 47.1654 42.253 46.4047 41.8124 45.9068L3.16678 2.25773C2.72528 1.75954 1.96617 1.71321 1.46798 2.1544C0.97105 2.59402 0.924089 3.35503 1.36465 3.85259L40.0103 47.5023C40.2477 47.7709 40.5785 47.9082 40.9107 47.9082Z" fill="#FF3600"/>
<path d="M33.0966 63.7495C33.1432 63.7495 33.1914 63.7469 33.238 63.7409C33.644 63.6937 33.9984 63.4432 34.1779 63.076L41.5684 47.999C41.8613 47.4019 41.615 46.6813 41.0186 46.3888C40.4221 46.0962 39.7009 46.3428 39.4071 46.9392L32.837 60.3427L28.0063 54.4953C27.5831 53.9829 26.8242 53.9106 26.3124 54.3341C25.7994 54.7574 25.7271 55.5157 26.1513 56.028L32.1691 63.3128C32.3993 63.5909 32.741 63.7495 33.0966 63.7495Z" fill="#FF3600"/>
<path d="M38.1094 70.75L38.4094 71.7196C51.9967 120.8 94.2518 143.871 113.681 149.272C152.035 162.635 198.794 144.704 222.256 135.58C296.173 110.552 340.37 156.643 353.393 181.783L353.635 182.275" stroke="white" stroke-opacity="0.2" stroke-width="4" stroke-linecap="round" stroke-dasharray="16 16"/>
</g>
<defs>
<clipPath id="clip0_838_356">
<rect width="356" height="185" fill="white"/>
</clipPath>
</defs>
</svg>
