<svg width="1491" height="449" viewBox="0 0 1491 449" fill="none" xmlns="http://www.w3.org/2000/svg">
<g clip-path="url(#clip0_487_1532)">
<mask id="mask0_487_1532" style="mask-type:luminance" maskUnits="userSpaceOnUse" x="-1" y="-253" width="1492" height="759">
<path d="M1490.6 -252.57H-1V505.111H1490.6V-252.57Z" fill="white"/>
</mask>
<g mask="url(#mask0_487_1532)">
<path d="M1492.07 604.432H0.236328V-351.891H1492.07L1492.07 604.432ZM2.16459 602.458H1490.14V-349.917H2.16459V602.458Z" fill="#1B1B1B"/>
<path d="M1491.1 411.588H1.2002V413.561H1491.1V411.588Z" fill="#1B1B1B"/>
<path d="M1491.1 363.871H1.2002V365.844H1491.1V363.871Z" fill="#1B1B1B"/>
<path d="M1491.1 316.152H1.2002V318.126H1491.1V316.152Z" fill="#1B1B1B"/>
<path d="M1491.1 268.436H1.2002V270.409H1491.1V268.436Z" fill="#1B1B1B"/>
<path d="M1491.1 220.719H1.2002V222.692H1491.1V220.719Z" fill="#1B1B1B"/>
<path d="M1491.1 173H1.2002V174.973H1491.1V173Z" fill="#1B1B1B"/>
<path d="M1491.1 125.283H1.2002V127.256H1491.1V125.283Z" fill="#1B1B1B"/>
<path d="M1491.1 77.5664H1.2002V79.5396H1491.1V77.5664Z" fill="#1B1B1B"/>
<path d="M1491.1 29.8477H1.2002V31.8208H1491.1V29.8477Z" fill="#1B1B1B"/>
<path d="M1447.69 -0.0078125H1445.47V447.765H1447.69V-0.0078125Z" fill="#1B1B1B"/>
<path d="M1395.71 -0.0078125H1393.49V447.765H1395.71V-0.0078125Z" fill="#1B1B1B"/>
<path d="M1343.72 -0.0078125H1341.5V447.765H1343.72V-0.0078125Z" fill="#1B1B1B"/>
<path d="M1291.74 -0.0078125H1289.52V447.765H1291.74V-0.0078125Z" fill="#1B1B1B"/>
<path d="M1239.76 -0.0078125H1237.54V447.765H1239.76V-0.0078125Z" fill="#1B1B1B"/>
<path d="M1187.77 -0.0078125H1185.55V447.765H1187.77V-0.0078125Z" fill="#1B1B1B"/>
<path d="M1135.79 -0.0078125H1133.57V447.765H1135.79V-0.0078125Z" fill="#1B1B1B"/>
<path d="M1083.8 -0.0078125H1081.58V447.765H1083.8V-0.0078125Z" fill="#1B1B1B"/>
<path d="M1031.82 -0.0078125H1029.6V447.765H1031.82V-0.0078125Z" fill="#1B1B1B"/>
<path d="M979.836 -0.0078125H977.616V447.765H979.836V-0.0078125Z" fill="#1B1B1B"/>
<path d="M927.852 -0.0078125H925.633V447.765H927.852V-0.0078125Z" fill="#1B1B1B"/>
<path d="M875.868 -0.0078125H873.648V447.765H875.868V-0.0078125Z" fill="#1B1B1B"/>
<path d="M823.884 -0.0078125H821.665V447.765H823.884V-0.0078125Z" fill="#1B1B1B"/>
<path d="M771.901 -0.0078125H769.681V447.765H771.901V-0.0078125Z" fill="#1B1B1B"/>
<path d="M719.917 -0.0078125H717.697V447.765H719.917V-0.0078125Z" fill="#1B1B1B"/>
<path d="M667.934 -0.0078125H665.714V447.765H667.934V-0.0078125Z" fill="#1B1B1B"/>
<path d="M615.949 -0.0078125H613.729V447.765H615.949V-0.0078125Z" fill="#1B1B1B"/>
<path d="M563.965 -0.0078125H561.746V447.765H563.965V-0.0078125Z" fill="#1B1B1B"/>
<path d="M511.98 -0.0078125H509.761V447.765H511.98V-0.0078125Z" fill="#1B1B1B"/>
<path d="M459.996 -0.0078125H457.776V447.765H459.996V-0.0078125Z" fill="#1B1B1B"/>
<path d="M408.013 -0.0078125H405.793V447.765H408.013V-0.0078125Z" fill="#1B1B1B"/>
<path d="M356.029 -0.0078125H353.81V447.765H356.029V-0.0078125Z" fill="#1B1B1B"/>
<path d="M304.045 -0.0078125H301.826V447.765H304.045V-0.0078125Z" fill="#1B1B1B"/>
<path d="M252.061 -0.0078125H249.842V447.765H252.061V-0.0078125Z" fill="#1B1B1B"/>
<path d="M200.077 -0.0078125H197.857V447.765H200.077V-0.0078125Z" fill="#1B1B1B"/>
<path d="M148.094 -0.0078125H145.874V447.765H148.094V-0.0078125Z" fill="#1B1B1B"/>
<path d="M96.1103 -0.0078125H93.8906V447.765H96.1103V-0.0078125Z" fill="#1B1B1B"/>
<path d="M44.1249 -0.0078125H41.9053V447.765H44.1249V-0.0078125Z" fill="#1B1B1B"/>
</g>
</g>
<defs>
<clipPath id="clip0_487_1532">
<rect width="1491" height="449" fill="white"/>
</clipPath>
</defs>
</svg>
