<svg width="512" height="512" viewBox="0 0 512 512" fill="none" xmlns="http://www.w3.org/2000/svg">
<g clip-path="url(#clip0_833_77)">
<path d="M452 39.9922H428V-0.0078125H388V39.9922H124V-0.0078125H84V39.9922H60C26.916 39.9922 0 66.9082 0 99.9922V451.992C0 485.076 26.916 511.992 60 511.992H452C485.084 511.992 512 485.076 512 451.992V99.9922C512 66.9082 485.084 39.9922 452 39.9922ZM472 451.992C472 463.02 463.028 471.992 452 471.992H60C48.972 471.992 40 463.02 40 451.992V187.992H472V451.992ZM472 147.992H40V99.9922C40 88.9642 48.972 79.9922 60 79.9922H84V119.992H124V79.9922H388V119.992H428V79.9922H452C463.028 79.9922 472 88.9642 472 99.9922V147.992Z" fill="white"/>
<path d="M116 229.992H76V269.992H116V229.992Z" fill="white"/>
<path d="M196 229.992H156V269.992H196V229.992Z" fill="white"/>
<path d="M276 229.992H236V269.992H276V229.992Z" fill="white"/>
<path d="M356 229.992H316V269.992H356V229.992Z" fill="white"/>
<path d="M436 229.992H396V269.992H436V229.992Z" fill="white"/>
<path d="M116 309.992H76V349.992H116V309.992Z" fill="white"/>
<path d="M196 309.992H156V349.992H196V309.992Z" fill="white"/>
<path d="M276 309.992H236V349.992H276V309.992Z" fill="white"/>
<path d="M356 309.992H316V349.992H356V309.992Z" fill="white"/>
<path d="M116 389.992H76V429.992H116V389.992Z" fill="white"/>
<path d="M196 389.992H156V429.992H196V389.992Z" fill="white"/>
<path d="M276 389.992H236V429.992H276V389.992Z" fill="white"/>
<path d="M356 389.992H316V429.992H356V389.992Z" fill="white"/>
<path d="M436 309.992H396V349.992H436V309.992Z" fill="white"/>
</g>
<defs>
<clipPath id="clip0_833_77">
<rect width="512" height="512" fill="white" transform="translate(0 -0.0078125)"/>
</clipPath>
</defs>
</svg>
