<svg width="63" height="63" viewBox="0 0 63 63" fill="none" xmlns="http://www.w3.org/2000/svg">
<g clip-path="url(#clip0_345_10307)">
<path fill-rule="evenodd" clip-rule="evenodd" d="M29.4295 31.2971H33.5629C34.1336 31.2971 34.5962 30.8344 34.5962 30.2638C34.5962 29.6931 34.1336 29.2305 33.5629 29.2305H29.4295C28.8589 29.2305 28.3962 29.6931 28.3962 30.2638C28.3961 30.8344 28.8588 31.2971 29.4295 31.2971Z" fill="white"/>
<path fill-rule="evenodd" clip-rule="evenodd" d="M32.5297 32.3311H30.463C29.8923 32.3311 29.4297 32.7937 29.4297 33.3643C29.4297 33.935 29.8923 34.3976 30.463 34.3976H32.5297C33.1003 34.3976 33.563 33.935 33.563 33.3643C33.563 32.7937 33.1003 32.3311 32.5297 32.3311Z" fill="white"/>
<path fill-rule="evenodd" clip-rule="evenodd" d="M53.5599 56.0889H51.4933C50.9226 56.0889 50.46 56.5515 50.46 57.1222C50.46 57.6928 50.9226 58.1555 51.4933 58.1555H53.5599C54.1306 58.1555 54.5932 57.6928 54.5932 57.1222C54.5932 56.5515 54.1306 56.0889 53.5599 56.0889Z" fill="#FF3600"/>
<path fill-rule="evenodd" clip-rule="evenodd" d="M11.9091 56.0889H9.84238C9.27173 56.0889 8.80908 56.5515 8.80908 57.1222C8.80908 57.6928 9.27173 58.1555 9.84238 58.1555H11.9091C12.4797 58.1555 12.9424 57.6928 12.9424 57.1222C12.9424 56.5515 12.4797 56.0889 11.9091 56.0889Z" fill="#FF3600"/>
<path fill-rule="evenodd" clip-rule="evenodd" d="M28.3962 20.964C28.3962 20.3933 27.9336 19.9307 27.3629 19.9307H25.2962C24.7256 19.9307 24.2629 20.3933 24.2629 20.964C24.2629 21.5346 24.7256 21.9973 25.2962 21.9973C25.2962 22.5679 25.7589 23.0305 26.3295 23.0305C26.9002 23.0305 27.3628 22.5679 27.3628 21.9973C27.9336 21.9973 28.3962 21.5347 28.3962 20.964Z" fill="white"/>
<path fill-rule="evenodd" clip-rule="evenodd" d="M35.6296 21.9973C35.6296 22.5679 36.0922 23.0305 36.6629 23.0305C37.2335 23.0305 37.6962 22.5679 37.6962 21.9973C38.2668 21.9973 38.7295 21.5346 38.7295 20.964C38.7295 20.3933 38.2668 19.9307 37.6962 19.9307H35.6295C35.0588 19.9307 34.5962 20.3933 34.5962 20.964C34.5962 21.5347 35.0588 21.9973 35.6296 21.9973Z" fill="white"/>
<path fill-rule="evenodd" clip-rule="evenodd" d="M30.463 27.1642H32.5297C33.1003 27.1642 33.563 26.7016 33.563 26.131C33.563 25.5603 33.1003 25.0977 32.5297 25.0977H30.463C29.8923 25.0977 29.4297 25.5603 29.4297 26.131C29.4297 26.7016 29.8923 27.1642 30.463 27.1642Z" fill="white"/>
<path d="M8.03234 48.1334C5.36947 50.7943 3.59619 53.5232 3.59619 58.164V60.2399C3.59619 61.3814 4.52148 62.3066 5.66288 62.3066H57.3295C58.4709 62.3066 59.3962 61.3814 59.3962 60.2399V58.164C59.3962 53.5192 57.6231 50.7943 54.9601 48.1334C52.0523 45.2267 42.8235 42.4604 40.5399 41.8094C39.6449 39.4788 39.3259 36.9665 39.61 34.4861L42.1344 32.2758C43.2545 31.2945 43.8966 29.8776 43.8962 28.3884V27.0606C46.3001 26.5733 48.028 24.4599 48.028 22.0071C48.028 19.5544 46.3001 17.441 43.8962 16.9537L44.7797 13.4186L48.5214 11.5473C50.0998 10.7587 51.1054 9.15443 51.1271 7.3902C51.1489 5.62597 50.1831 3.99731 48.6247 3.17007C46.0931 1.8639 41.0659 0.306641 31.4962 0.306641C21.9264 0.306641 16.8993 1.8639 14.3687 3.16996C12.8096 3.9967 11.8433 5.62546 11.8651 7.3901C11.8869 9.15473 12.893 10.7592 14.472 11.5473L18.2137 13.4186L19.0962 16.9537C16.6923 17.441 14.9645 19.5544 14.9645 22.0071C14.9645 24.4599 16.6923 26.5733 19.0962 27.0606V28.3884C19.0966 29.8781 19.74 31.2951 20.8612 32.2758L23.3856 34.4861C23.6697 36.9664 23.3506 39.4788 22.4556 41.8094C20.1688 42.4604 10.9401 45.2267 8.03234 48.1334ZM15.0155 60.2399H5.66288V58.164C5.66288 54.2166 7.12811 51.9588 9.4935 49.5946C10.8699 48.2181 14.3006 46.7353 17.5535 45.5646L13.9038 51.1642C13.5285 51.7389 13.463 52.4623 13.729 53.095C13.9949 53.7276 14.5576 54.187 15.2306 54.3211L16.4086 54.5546C15.6067 56.3508 15.1349 58.2766 15.0155 60.2399ZM20.2174 45.2566L22.4267 47.4658C20.3988 48.8073 18.6892 50.5764 17.4181 52.649L15.6315 52.2904L20.2174 45.2566ZM28.3962 57.14C27.3884 57.9003 26.6934 59.0028 26.4422 60.2399H21.2197C21.6152 56.1217 24.4446 52.6437 28.3962 51.4184V57.14ZM36.5503 60.2399C36.2996 59.0025 35.6044 57.8999 34.5962 57.14L34.5838 51.405C38.5411 52.633 41.3749 56.1157 41.7728 60.2399H36.5503ZM43.8528 60.2399C43.4487 55.2089 40.0227 50.9305 35.2017 49.4364C34.5797 49.2398 33.901 49.3553 33.3789 49.7464C32.8476 50.1384 32.5327 50.7582 32.5295 51.4183V57.6979C32.529 58.0674 32.7261 58.409 33.0461 58.5938C33.677 58.9647 34.1551 59.5484 34.3946 60.2398H28.6027C28.8409 59.5491 29.3171 58.9656 29.946 58.5938C30.2661 58.409 30.4631 58.0674 30.4627 57.6979V51.4183C30.4607 50.7566 30.1457 50.135 29.6132 49.7422C29.0917 49.3508 28.4132 49.2354 27.7915 49.4323C22.9687 50.9266 19.542 55.207 19.1393 60.2398H17.082C17.611 52.6685 23.9072 46.7967 31.497 46.7967C39.0867 46.7967 45.383 52.6685 45.9119 60.2398L43.8528 60.2399ZM24.5657 42.0636C25.21 40.2378 25.5429 38.3165 25.5504 36.3803L26.5476 37.2524C27.4886 38.0757 28.6961 38.5298 29.9462 38.5306H33.0462C34.2974 38.5305 35.5062 38.0763 36.4479 37.2524L37.4451 36.3803C37.4527 38.3165 37.7855 40.2378 38.4299 42.0636L31.4963 44.6696L24.5657 42.0636ZM53.4989 49.5946C55.8642 51.9588 57.3294 54.2166 57.3294 58.164V60.2399H47.9767C47.8584 58.2775 47.3879 56.3524 46.5878 54.5566L47.7659 54.3231C48.4394 54.1891 49.0024 53.7293 49.2682 53.096C49.534 52.4627 49.4679 51.7388 49.0917 51.1642L45.446 45.5667C48.6918 46.7353 52.1224 48.2182 53.4988 49.5966L53.4989 49.5946ZM47.362 52.2937L45.5744 52.6491C44.3035 50.576 42.5939 48.8064 40.5659 47.4648L42.7751 45.2566L47.362 52.2937ZM39.8114 43.7501C40.1597 43.8472 40.5689 43.9671 41.0091 44.0993L38.6955 46.4129C37.7326 45.9445 36.7262 45.5716 35.6906 45.3L39.8114 43.7501ZM18.7965 11.4015L15.3865 9.69864C14.4899 9.25216 13.925 8.33491 13.9295 7.33335C13.9175 6.35863 14.4533 5.45959 15.3163 5.0063C17.6495 3.8056 22.3418 2.37333 31.4962 2.37333C40.6505 2.37333 45.348 3.8055 47.6771 5.00732C48.5391 5.46091 49.0744 6.35935 49.0628 7.33335C49.066 8.33572 48.4989 9.25277 47.6006 9.69762L44.1906 11.4005C43.0126 10.2421 39.8661 8.5733 31.4962 8.5733C23.1262 8.5733 19.9797 10.2421 18.7965 11.4015ZM42.7864 12.8875L42.0053 16.0133C38.5444 16.683 35.0192 16.9603 31.4963 16.84C27.9733 16.96 24.4481 16.6826 20.9873 16.0133L20.2113 12.9133C20.793 12.3192 23.1791 10.64 31.4963 10.64C39.9272 10.64 42.2646 12.3657 42.7864 12.8875ZM22.2231 30.7207C21.5499 30.1325 21.1634 29.2823 21.1628 28.3884V26.1307C21.1628 25.56 20.7002 25.0974 20.1295 25.0974C18.6199 25.11 17.3235 24.0273 17.0671 22.5397C16.8106 21.0521 17.6695 19.5976 19.0961 19.1041V20.9641C19.0961 21.5347 19.5588 21.9974 20.1294 21.9974C20.7001 21.9974 21.1627 21.5347 21.1627 20.9641V18.1659C24.5759 18.7392 28.0359 18.9873 31.4961 18.9068C34.9562 18.9873 38.4162 18.7392 41.8294 18.1659V20.9641C41.8294 21.5347 42.2921 21.9974 42.8627 21.9974C43.4334 21.9974 43.896 21.5347 43.896 20.9641V19.1041C45.3226 19.5976 46.1815 21.0521 45.9251 22.5397C45.6686 24.0273 44.3722 25.1101 42.8626 25.0974C42.292 25.0974 41.8293 25.56 41.8293 26.1307V28.3884C41.8292 29.282 41.4436 30.1321 40.7712 30.7207L35.0879 35.6962C34.5227 36.191 33.7972 36.4638 33.046 36.4639H29.946C29.1948 36.4638 28.4693 36.191 27.9041 35.6962L22.2231 30.7207ZM27.304 45.3C26.2684 45.5716 25.2618 45.9444 24.2991 46.4129L21.9834 44.0993C22.4236 43.967 22.8329 43.8472 23.1811 43.7501L27.304 45.3Z" fill="white"/>
</g>
<defs>
<clipPath id="clip0_345_10307">
<rect width="62" height="62" fill="white" transform="translate(0.496094 0.306641)"/>
</clipPath>
</defs>
</svg>
