<svg width="50" height="50" viewBox="0 0 50 50" fill="none" xmlns="http://www.w3.org/2000/svg">
<g clip-path="url(#clip0_471_108)">
<path d="M45.8333 0H4.16667C1.86662 0.0027551 0.0027551 1.86662 0 4.16667V45.8333C0.0027551 48.1334 1.86662 49.9972 4.16667 50H45.8333C48.1334 49.9972 49.9972 48.1334 50 45.8333V4.16667C49.9972 1.86662 48.1334 0.0027551 45.8333 0ZM48.3333 45.8333C48.3333 47.214 47.214 48.3333 45.8333 48.3333H4.16667C2.78595 48.3333 1.66667 47.214 1.66667 45.8333V4.16667C1.66667 2.78595 2.78595 1.66667 4.16667 1.66667H45.8333C47.214 1.66667 48.3333 2.78595 48.3333 4.16667V45.8333Z" fill="white"/>
<path d="M17.5 13.3333C17.0398 13.3333 16.6667 13.7064 16.6667 14.1667C16.6667 14.6269 17.0398 15 17.5 15H20.8333C21.2936 15 21.6667 14.6269 21.6667 14.1667C21.6667 13.7064 21.2936 13.3333 20.8333 13.3333H20V6.66667H20.8333C21.2936 6.66667 21.6667 6.29357 21.6667 5.83333C21.6667 5.3731 21.2936 5 20.8333 5H17.5C17.0398 5 16.6667 5.3731 16.6667 5.83333C16.6667 6.29357 17.0398 6.66667 17.5 6.66667H18.3333V13.3333H17.5Z" fill="white"/>
<path d="M45.8333 6.66667C46.2936 6.66667 46.6667 6.29357 46.6667 5.83333C46.6667 5.3731 46.2936 5 45.8333 5H42.5C42.0398 5 41.6667 5.3731 41.6667 5.83333V14.1667C41.6667 14.6269 42.0398 15 42.5 15H45.8333C46.2936 15 46.6667 14.6269 46.6667 14.1667C46.6667 13.7064 46.2936 13.3333 45.8333 13.3333H43.3333V10.8333H45.8333C46.2936 10.8333 46.6667 10.4602 46.6667 10C46.6667 9.53976 46.2936 9.16667 45.8333 9.16667H43.3333V6.66667H45.8333Z" fill="white"/>
<path d="M40 5H35C34.5398 5 34.1667 5.3731 34.1667 5.83333C34.1667 6.29357 34.5398 6.66667 35 6.66667H36.6667V14.1667C36.6667 14.6269 37.0398 15 37.5 15C37.9602 15 38.3333 14.6269 38.3333 14.1667V6.66667H40C40.4602 6.66667 40.8333 6.29357 40.8333 5.83333C40.8333 5.3731 40.4602 5 40 5Z" fill="white"/>
<path d="M6.24999 5H4.16666C3.70642 5 3.33333 5.3731 3.33333 5.83333V14.1667C3.33333 14.6269 3.70642 15 4.16666 15C4.6269 15 4.99999 14.6269 4.99999 14.1667V10.8333H6.24999C7.86083 10.8333 9.16666 9.5275 9.16666 7.91667C9.16666 6.30584 7.86083 5 6.24999 5ZM6.24999 9.16667H4.99999V6.66667H6.24999C6.94035 6.66667 7.5 7.22631 7.5 7.91667C7.5 8.60702 6.94035 9.16667 6.24999 9.16667Z" fill="white"/>
<path d="M10.8333 15C11.2936 15 11.6667 14.6269 11.6667 14.1667V10.8334H12.7692L14.2258 14.4767C14.397 14.9043 14.8824 15.1121 15.31 14.9409C15.7376 14.7697 15.9454 14.2843 15.7742 13.8567L14.3975 10.4167C15.5323 9.7524 16.08 8.40916 15.7332 7.14077C15.3865 5.87238 14.2316 4.9946 12.9167 5.00002H10.8333C10.3731 5.00002 10 5.37312 10 5.83336V14.1667C10 14.6269 10.3731 15 10.8333 15ZM11.6667 6.66669H12.9167C13.607 6.66669 14.1667 7.22634 14.1667 7.91669C14.1667 8.60705 13.607 9.16669 12.9167 9.16669H11.6667V6.66669Z" fill="white"/>
<path d="M28.9275 14.9652C29.1392 15.0286 29.3675 15.0054 29.5621 14.9005C29.7566 14.7956 29.9016 14.6178 29.965 14.406L30.2867 13.3335H33.0467L33.3683 14.406C33.474 14.7587 33.7985 15.0002 34.1667 15.0002C34.2477 14.9999 34.3282 14.9882 34.4058 14.9652C34.6176 14.9018 34.7954 14.7568 34.9003 14.5623C35.0052 14.3677 35.0285 14.1394 34.965 13.9277L32.465 5.59436C32.3594 5.24163 32.0349 5 31.6667 5C31.2985 5 30.9739 5.24163 30.8683 5.59436L28.3683 13.9277C28.3049 14.1394 28.3282 14.3677 28.433 14.5623C28.5379 14.7568 28.7158 14.9018 28.9275 14.9652ZM31.6667 8.73353L32.5467 11.6669H30.7867L31.6667 8.73353Z" fill="white"/>
<path d="M25.035 14.4059C25.1406 14.7586 25.4651 15.0003 25.8333 15.0003C26.2015 15.0003 26.5261 14.7586 26.6317 14.4059L29.1317 6.07258C29.2171 5.78736 29.1439 5.47822 28.9396 5.26161C28.7353 5.04501 28.431 4.95384 28.1413 5.02245C27.8516 5.09106 27.6204 5.30902 27.535 5.59424L25.8333 11.2667L24.1317 5.59424C24.0462 5.30902 23.8151 5.09106 23.5254 5.02245C23.2356 4.95384 22.9313 5.04501 22.727 5.26161C22.5228 5.47822 22.4496 5.78736 22.535 6.07258L25.035 14.4059Z" fill="white"/>
<path d="M19.4025 33.2396L15.2358 32.6437C14.7575 32.5754 14.273 32.7179 13.908 33.0345C13.543 33.3511 13.3333 33.8105 13.3333 34.2937V35.8329C13.3333 36.7534 14.0795 37.4996 15 37.4996H19.1667C20.0871 37.4996 20.8333 36.7534 20.8333 35.8329V34.8887C20.8301 34.0607 20.2218 33.3596 19.4025 33.2396ZM19.1667 35.8329H15V34.2937L19.1667 34.8887V35.8329Z" fill="white"/>
<path d="M34.7642 32.6437L30.5975 33.2396C29.7782 33.3596 29.1699 34.0607 29.1667 34.8887V35.8329C29.1667 36.7534 29.9129 37.4996 30.8333 37.4996H35C35.9205 37.4996 36.6667 36.7534 36.6667 35.8329V34.2937C36.6667 33.8105 36.457 33.3511 36.092 33.0345C35.727 32.7179 35.2425 32.5754 34.7642 32.6437ZM35 35.8329H30.8333V34.8887L35 34.2937V35.8329Z" fill="white"/>
<path d="M26.6667 32.5H23.3333C22.8731 32.5 22.5 32.8731 22.5 33.3333C22.5 33.7936 22.8731 34.1667 23.3333 34.1667H26.6667C27.1269 34.1667 27.5 33.7936 27.5 33.3333C27.5 32.8731 27.1269 32.5 26.6667 32.5Z" fill="white"/>
<path d="M26.6667 35.833H23.3333C22.8731 35.833 22.5 36.2061 22.5 36.6663C22.5 37.1266 22.8731 37.4997 23.3333 37.4997H26.6667C27.1269 37.4997 27.5 37.1266 27.5 36.6663C27.5 36.2061 27.1269 35.833 26.6667 35.833Z" fill="white"/>
<path d="M21.4225 21.078C21.0971 20.7527 20.5696 20.7527 20.2442 21.078L18.5775 22.7446C18.3609 22.9539 18.274 23.2637 18.3503 23.5551C18.4265 23.8464 18.6541 24.074 18.9454 24.1502C19.2368 24.2265 19.5466 24.1396 19.7558 23.923L21.4225 22.2563C21.7478 21.9309 21.7478 21.4034 21.4225 21.078Z" fill="#FF3600"/>
<path d="M25.2442 21.0777L20.2442 26.0777C20.0275 26.2869 19.9407 26.5967 20.0169 26.8881C20.0932 27.1795 20.3207 27.407 20.6121 27.4833C20.9034 27.5595 21.2133 27.4726 21.4225 27.256L26.4225 22.256C26.7383 21.929 26.7338 21.4093 26.4124 21.0878C26.0909 20.7664 25.5712 20.7619 25.2442 21.0777Z" fill="#FF3600"/>
<path d="M40 28.3333C40 26.9526 38.8807 25.8333 37.5 25.8333H35.51L34.1667 21.1267C33.547 18.9838 31.5881 17.5066 29.3575 17.5H20.6425C18.4119 17.5066 16.453 18.9838 15.8333 21.1267L14.49 25.8333H12.5C11.1193 25.8333 10 26.9526 10 28.3333C10.0013 29.1928 10.4454 29.9909 11.175 30.445C10.4225 31.2182 10.001 32.2544 10 33.3333V38.3333C10.0044 39.389 10.6714 40.3281 11.6667 40.68V44.1667C11.6667 45.5474 12.786 46.6667 14.1667 46.6667H15C16.3807 46.6667 17.5 45.5474 17.5 44.1667V40.8333H32.5V44.1667C32.5 45.5474 33.6193 46.6667 35 46.6667H35.8333C37.214 46.6667 38.3333 45.5474 38.3333 44.1667V40.68C39.3286 40.3281 39.9956 39.389 40 38.3333V33.3333C39.999 32.2552 39.5782 31.2198 38.8267 30.4467C38.9826 30.3499 39.1266 30.2352 39.2558 30.105C39.7352 29.6407 40.004 29.0007 40 28.3333ZM17.4383 21.5833C17.8511 20.1555 19.1562 19.1711 20.6425 19.1667H29.3575C30.8438 19.1711 32.1489 20.1555 32.5617 21.5833L34.7283 29.1667H15.2717L17.4383 21.5833ZM12.5 27.5H14.0142L13.5375 29.1667H12.5C12.2753 29.1672 12.0603 29.075 11.9058 28.9117C11.7513 28.7591 11.665 28.5505 11.6667 28.3333C11.6667 27.8731 12.0398 27.5 12.5 27.5ZM15.8333 44.1667C15.8333 44.6269 15.4602 45 15 45H14.1667C13.7064 45 13.3333 44.6269 13.3333 44.1667V40.8333H15.8333V44.1667ZM36.6667 44.1667C36.6667 44.6269 36.2936 45 35.8333 45H35C34.5398 45 34.1667 44.6269 34.1667 44.1667V40.8333H36.6667V44.1667ZM38.3333 38.3333C38.3333 38.7936 37.9602 39.1667 37.5 39.1667H12.5C12.0398 39.1667 11.6667 38.7936 11.6667 38.3333V33.3333C11.6667 31.9526 12.786 30.8333 14.1667 30.8333H35.8333C37.214 30.8333 38.3333 31.9526 38.3333 33.3333V38.3333ZM38.0783 28.9267C37.9263 29.0822 37.7174 29.1689 37.5 29.1667H36.4625L35.9858 27.5H37.5C37.9602 27.5 38.3333 27.8731 38.3333 28.3333C38.3337 28.5578 38.2414 28.7724 38.0783 28.9267Z" fill="white"/>
</g>
<defs>
<clipPath id="clip0_471_108">
<rect width="50" height="50" fill="white"/>
</clipPath>
</defs>
</svg>
