<svg width="65" height="65" viewBox="0 0 65 65" fill="none" xmlns="http://www.w3.org/2000/svg">
<g clip-path="url(#clip0_289_129)">
<path fill-rule="evenodd" clip-rule="evenodd" d="M22.062 1.06889C13.9889 1.98101 6.6399 7.20251 3.00227 14.6108C-0.402229 21.5444 -0.331729 29.7253 3.19127 36.5228L3.8584 37.8099L2.23265 43.6911C1.33865 46.9259 0.633646 49.5991 0.666146 49.6316C0.698646 49.6641 3.3719 48.9591 6.60665 48.0651L12.4879 46.4394L13.775 47.1065C16.5264 48.5325 19.7059 49.444 22.962 49.7405L23.862 49.8224L24.1981 50.8415C26.1905 56.8839 31.1394 61.8105 37.268 63.8529C39.678 64.656 40.8833 64.8438 43.687 64.8528C45.6155 64.8589 46.4728 64.8078 47.437 64.629C49.1945 64.3033 51.4725 63.541 53.0461 62.7523L54.3871 62.08L59.3298 63.4485C62.0483 64.2013 64.2996 64.7899 64.3329 64.7566C64.3661 64.7234 63.7775 62.472 63.0248 59.7535L61.6563 54.8109L62.3285 53.4699C63.1173 51.8963 63.8795 49.6183 64.2053 47.8608C64.384 46.8965 64.4351 46.0393 64.429 44.1108C64.42 41.307 64.2323 40.1018 63.4291 37.6918C61.3868 31.5631 56.4601 26.6143 50.4178 24.6219L49.3986 24.2858L49.3164 23.3858C48.3323 12.6103 40.6635 3.81564 30.2349 1.50264C27.7008 0.940638 24.6368 0.778013 22.062 1.06889ZM22.7495 4.81189C15.7369 5.60614 9.58915 9.89714 6.41827 16.2106C4.81252 19.4078 4.02377 23.5231 4.35102 26.9959C4.43152 27.8498 4.5859 28.9843 4.69415 29.517C5.13965 31.7103 6.28165 34.5468 7.46127 36.3899C7.71502 36.7864 7.9154 37.1951 7.90665 37.2983C7.89777 37.4014 7.46852 39.0033 6.95277 40.858C6.43702 42.7128 6.02677 44.2421 6.04115 44.2566C6.05565 44.271 7.58502 43.8608 9.43977 43.345C11.2945 42.8293 12.8964 42.4 12.9995 42.3911C13.1026 42.3824 13.5114 42.5828 13.9079 42.8365C14.9808 43.5231 16.6678 44.3429 17.937 44.7944C24.0388 46.9649 30.7515 46.193 36.1245 42.7033C42.507 38.5579 46.1975 31.11 45.5196 23.7426C45.334 21.7246 45.1015 20.5923 44.5016 18.7851C42.81 13.6881 38.9851 9.30189 34.0871 6.84201C30.7231 5.15251 26.4685 4.39064 22.7495 4.81189ZM22.8745 12.4648C19.9044 13.346 17.8145 15.8673 17.4433 19.017L17.3659 19.6733H19.3078H21.2495V19.3205C21.2495 18.2119 22.2516 16.8004 23.4021 16.2886C24.8645 15.6381 26.6163 16.0088 27.6819 17.194C28.3899 17.9814 28.6669 18.7978 28.604 19.9113C28.5249 21.3101 28.2568 21.6796 25.4655 24.2358L23.0085 26.4858L23.004 28.767L22.9995 31.0483H24.937H26.8745V29.5653V28.0821L28.6736 26.444C30.9936 24.3315 31.6644 23.4104 32.1974 21.6054C32.4918 20.6083 32.4916 18.7396 32.1971 17.7358C31.0015 13.6609 26.8173 11.295 22.8745 12.4648ZM49.185 28.6523C49.1454 28.9044 48.9719 29.7751 48.7994 30.5871C47.0328 38.9043 40.7881 45.843 32.6306 48.5533C31.4079 48.9595 30.5933 49.1545 28.1436 49.6275C27.7678 49.7 27.8233 49.9508 28.5604 51.512C30.8435 56.3476 35.3703 59.8038 40.8278 60.8776C42.4696 61.2008 45.4213 61.1751 47.062 60.8236C49.2644 60.3518 51.1494 59.6075 52.828 58.5475C53.2626 58.2729 53.7183 58.0486 53.8401 58.0491C53.9621 58.0496 55.1581 58.355 56.4978 58.728C57.8374 59.1009 58.9446 59.3948 58.9584 59.381C58.9721 59.3673 58.6785 58.2603 58.306 56.9209C57.9334 55.5816 57.6276 54.3846 57.6265 54.261C57.6254 54.1374 57.8206 53.7296 58.0604 53.3549C59.1264 51.6885 59.9323 49.6718 60.3961 47.5093C60.6138 46.4953 60.6689 45.8283 60.6668 44.2358C60.6638 41.9915 60.4249 40.5446 59.7344 38.5873C58.1269 34.0308 54.5964 30.3634 50.0318 28.5086L49.257 28.1938L49.185 28.6523ZM22.9995 36.6733V38.5483H24.937H26.8745V36.6733V34.7983H24.937H22.9995V36.6733Z" fill="#FF3600"/>
</g>
<defs>
<clipPath id="clip0_289_129">
<rect width="64" height="64" fill="white" transform="translate(0.5 0.923462)"/>
</clipPath>
</defs>
</svg>
