<svg width="32" height="33" viewBox="0 0 32 33" fill="none" xmlns="http://www.w3.org/2000/svg">
<g clip-path="url(#clip0_345_10869)">
<path d="M22.875 25.6055C22.53 25.6055 22.25 25.8855 22.25 26.2305C22.25 26.5755 22.53 26.8555 22.875 26.8555C23.22 26.8555 23.5 26.5755 23.5 26.2305C23.5 25.8855 23.22 25.6055 22.875 25.6055Z" fill="#FF3600"/>
<path d="M24.4139 23.5844L21.4433 22.5944L20.3768 20.4615C21.3376 19.4836 22.0046 18.1897 22.2296 16.8402L22.3626 16.043H23.5C24.5339 16.043 25.375 15.2018 25.375 14.168V10.2305C25.375 5.06109 21.1694 0.855469 16 0.855469C10.8174 0.855469 6.625 5.04903 6.625 10.2305V14.168C6.625 14.9827 7.14756 15.6775 7.875 15.9355V16.668C7.875 17.7018 8.71613 18.543 9.75 18.543H10.2989C10.5698 19.1315 10.9205 19.6767 11.3472 20.1663C11.4358 20.2681 11.5281 20.3667 11.6226 20.4627L10.5568 22.5944L7.58606 23.5845C4.132 24.7362 1.625 28.3724 1.625 32.2305C1.625 32.5757 1.90481 32.8555 2.25 32.8555H29.75C30.0951 32.8555 30.375 32.5757 30.375 32.2305C30.375 28.3724 27.8681 24.7362 24.4139 23.5844ZM24.125 14.168C24.125 14.5126 23.8446 14.793 23.5 14.793H22.5461C22.705 13.5623 22.8109 12.2528 22.8534 10.963C22.8547 10.9266 22.8557 10.8912 22.8568 10.8555H24.125V14.168ZM8.5 14.793C8.15538 14.793 7.875 14.5126 7.875 14.168V10.8555H9.14363C9.14569 10.9207 9.14787 10.9862 9.15031 11.0521C9.15037 11.0543 9.1505 11.0565 9.15056 11.0588C9.15056 11.059 9.15056 11.0592 9.15056 11.0593C9.19431 12.3138 9.29881 13.5894 9.45406 14.7929H8.5V14.793ZM9.75 17.293C9.40538 17.293 9.125 17.0126 9.125 16.668V16.043H9.63737L9.77038 16.8404C9.79575 16.992 9.82694 17.143 9.863 17.293H9.75ZM9.12606 9.60547H7.89875C8.21531 5.41666 11.7111 2.10547 16 2.10547C20.2699 2.10547 23.781 5.41622 24.1012 9.60547H22.874C22.829 6.15378 20.0182 3.35547 16.5594 3.35547H15.4407C11.982 3.35547 9.171 6.15378 9.12606 9.60547ZM15.4406 4.60547H16.5594C19.3599 4.60547 21.6266 6.89616 21.625 9.69359C21.625 9.89028 21.6234 10.0615 21.6201 10.2173C21.6201 10.2193 21.6201 10.2214 21.6201 10.2235L20.8383 10.1118C18.7146 9.80853 16.7093 8.80591 15.1919 7.28853C15.0747 7.17134 14.9157 7.10547 14.75 7.10547C13.0715 7.10547 11.4648 7.87022 10.4026 9.16222C10.6644 6.61728 12.8158 4.60547 15.4406 4.60547ZM11.1587 17.293C10.8459 16.2522 10.4879 13.1897 10.4087 11.2272L11.2499 10.1055C12.0225 9.07578 13.2244 8.43597 14.503 8.36253C16.1853 9.96353 18.3617 11.0208 20.6616 11.3492L21.5817 11.4807C21.5202 12.786 21.3945 14.0958 21.2144 15.3005C21.2144 15.3009 21.2143 15.3013 21.2143 15.3018C21.157 15.6891 21.1119 15.9383 20.9966 16.6345C20.6656 18.6198 19.1842 20.4152 17.2287 20.9041C16.4239 21.105 15.576 21.105 14.7716 20.9041C13.5506 20.5988 12.4309 19.754 11.7084 18.543H12.9825C13.2405 19.2704 13.9352 19.793 14.75 19.793H16C17.0359 19.793 17.875 18.954 17.875 17.918C17.875 16.8841 17.0339 16.043 16 16.043H14.75C13.9171 16.043 13.2326 16.581 12.9814 17.293H11.1587ZM14.6974 22.169C15.1261 22.2593 15.5632 22.3055 16 22.3055C16.3419 22.3055 16.6839 22.2768 17.0221 22.2213L15.9177 23.3893L14.6974 22.169ZM15.0584 24.2979L13.0761 26.3943C12.5303 25.3497 12.0614 24.2625 11.6768 23.1495L12.4212 21.6606L15.0584 24.2979ZM19.4729 21.4488L20.3231 23.1494C19.9379 24.2643 19.4688 25.3518 18.9236 26.3952L16.8019 24.2735L19.4729 21.4488ZM14.125 17.918C14.125 17.5729 14.4049 17.293 14.75 17.293H16C16.3446 17.293 16.625 17.5733 16.625 17.918C16.625 18.2631 16.3451 18.543 16 18.543H14.75C14.4054 18.543 14.125 18.2626 14.125 17.918ZM2.9 31.6055C3.14769 28.5093 5.20825 25.695 7.98138 24.7703L10.6123 23.8935C11.0943 25.2263 11.6914 26.5218 12.3912 27.7523C12.3924 27.7544 12.3935 27.7565 12.3947 27.7586L12.3947 27.7587C12.9061 28.658 13.4816 29.5368 14.1055 30.3712L14.8744 31.6055H2.9ZM16 31.0483L15.1524 29.6875C15.1429 29.6723 15.1327 29.6575 15.122 29.6431C14.6159 28.968 14.1438 28.2619 13.7137 27.5392L15.9427 25.1821L18.2913 27.5307C17.8584 28.2587 17.3847 28.9677 16.8781 29.643C16.8475 29.6838 16.8909 29.6195 16 31.0483ZM17.1256 31.6055L17.8944 30.3712C18.5211 29.5337 19.1007 28.6478 19.6172 27.738C19.6203 27.7325 19.6233 27.7268 19.6264 27.7213C19.6268 27.7207 19.6271 27.72 19.6275 27.7193C20.3184 26.5006 20.9093 25.2164 21.3878 23.8935L24.0186 24.7703C26.7917 25.695 28.8523 28.5093 29.1 31.6055H17.1256Z" fill="white"/>
<path d="M27.2217 29.0765C26.804 28.2404 26.1922 27.4977 25.4524 26.9285C25.1788 26.718 24.7864 26.7692 24.576 27.0428C24.3655 27.3164 24.4167 27.7088 24.6902 27.9193C25.2811 28.3739 25.7697 28.9672 26.1034 29.6351C26.258 29.9444 26.6336 30.0689 26.9418 29.9149C27.2506 29.7607 27.3759 29.3853 27.2217 29.0765Z" fill="#FF3600"/>
</g>
<defs>
<clipPath id="clip0_345_10869">
<rect width="32" height="32" fill="white" transform="translate(0 0.855469)"/>
</clipPath>
</defs>
</svg>
