<svg width="55" height="55" viewBox="0 0 55 55" fill="none" xmlns="http://www.w3.org/2000/svg">
<path d="M27.5 27.5C30.0495 27.5 32.5418 26.744 34.6616 25.3275C36.7815 23.9111 38.4337 21.8979 39.4094 19.5424C40.385 17.187 40.6403 14.5951 40.1429 12.0945C39.6455 9.59401 38.4178 7.29712 36.615 5.49433C34.8123 3.69155 32.5154 2.46383 30.0148 1.96645C27.5143 1.46906 24.9224 1.72434 22.567 2.7C20.2115 3.67566 18.1983 5.32788 16.7818 7.44773C15.3654 9.56759 14.6094 12.0599 14.6094 14.6094C14.6132 18.027 15.9726 21.3035 18.3892 23.7202C20.8058 26.1368 24.0824 27.4961 27.5 27.5ZM27.5 3.43751C29.7096 3.43751 31.8696 4.09272 33.7068 5.32031C35.544 6.54789 36.9759 8.2927 37.8215 10.3341C38.667 12.3755 38.8883 14.6218 38.4572 16.7889C38.0261 18.956 36.9621 20.9467 35.3997 22.5091C33.8373 24.0715 31.8467 25.1355 29.6795 25.5666C27.5124 25.9977 25.2661 25.7764 23.2247 24.9308C21.1833 24.0853 19.4385 22.6533 18.2109 20.8161C16.9833 18.9789 16.3281 16.819 16.3281 14.6094C16.3315 11.6475 17.5097 8.80783 19.6041 6.71344C21.6985 4.61905 24.5381 3.44092 27.5 3.43751Z" fill="white"/>
<path d="M27.5 24.9219C29.5396 24.9219 31.5334 24.3171 33.2293 23.1839C34.9252 22.0508 36.247 20.4402 37.0275 18.5558C37.808 16.6714 38.0123 14.5979 37.6144 12.5975C37.2164 10.5971 36.2343 8.75957 34.792 7.31734C33.3498 5.87511 31.5123 4.89294 29.5119 4.49503C27.5114 4.09712 25.4379 4.30134 23.5536 5.08187C21.6692 5.8624 20.0586 7.18418 18.9255 8.88006C17.7923 10.5759 17.1875 12.5698 17.1875 14.6094C17.1905 17.3435 18.2779 19.9648 20.2112 21.8982C22.1446 23.8315 24.7659 24.9189 27.5 24.9219ZM19.3024 17.1875H22.7399L24.0823 19.201L24.3925 22.6136C23.1929 22.1463 22.1132 21.4164 21.2324 20.4775C20.3517 19.5386 19.6922 18.4144 19.3024 17.1875ZM26.1654 23.0888L25.7813 18.8289C25.7681 18.6861 25.7196 18.5488 25.6403 18.4293L23.9216 15.8512C23.8427 15.733 23.7359 15.6363 23.6105 15.5695C23.4851 15.5028 23.3452 15.4682 23.2031 15.4688H18.9501C18.8916 14.8973 18.8916 14.3214 18.9501 13.75H23.2031C23.3836 13.75 23.5594 13.6933 23.7058 13.5878C23.8522 13.4823 23.9617 13.3334 24.0187 13.1622L24.6821 11.1719H30.3179L30.9813 13.1622C31.0383 13.3334 31.1478 13.4823 31.2942 13.5878C31.4406 13.6933 31.6164 13.75 31.7969 13.75H36.0499C36.1084 14.3214 36.1084 14.8973 36.0499 15.4688H31.7969C31.6554 15.4687 31.5162 15.5036 31.3914 15.5703C31.2667 15.637 31.1604 15.7335 31.0819 15.8512L29.3631 18.4293C29.2826 18.5485 29.233 18.6858 29.2188 18.8289L28.8312 23.0888C27.948 23.2412 27.0452 23.2412 26.162 23.0888H26.1654ZM30.6041 22.6136L30.9143 19.201L32.2566 17.1875H35.6941C35.3044 18.4144 34.6449 19.5386 33.7641 20.4775C32.8834 21.4164 31.8036 22.1463 30.6041 22.6136ZM27.5 6.01563C29.3281 6.01784 31.1081 6.60206 32.582 7.68363C34.0559 8.76521 35.1471 10.288 35.6976 12.0313H32.4165L31.753 10.0409C31.696 9.86975 31.5866 9.72085 31.4402 9.61534C31.2938 9.50984 31.1179 9.45309 30.9375 9.45313H24.0625C23.8821 9.45309 23.7062 9.50984 23.5598 9.61534C23.4134 9.72085 23.304 9.86975 23.247 10.0409L22.5835 12.0313H19.3024C19.8529 10.288 20.9441 8.76521 22.418 7.68363C23.8919 6.60206 25.6719 6.01784 27.5 6.01563Z" fill="white"/>
<path d="M12.6156 24.0625C12.8048 24.0625 12.9887 24.0001 13.1388 23.885C13.2889 23.7699 13.3968 23.6084 13.4458 23.4257L14.3911 19.9023L12.7317 19.4571L12.3827 20.7573C11.452 18.453 11.057 15.9672 11.2278 13.4878C11.3986 11.0085 12.1305 8.60032 13.3684 6.44531L11.88 5.58594C10.4686 8.04345 9.65333 10.7977 9.4996 13.6275C9.34587 16.4573 9.858 19.2837 10.9949 21.8797L9.31563 21.4294L8.87134 23.0897L12.3948 24.035C12.4669 24.0538 12.5411 24.063 12.6156 24.0625Z" fill="#FF3600"/>
<path d="M42.6198 8.4599C43.5505 10.7647 43.9451 13.2509 43.7739 15.7306C43.6027 18.2103 42.8701 20.6186 41.6316 22.7736L43.12 23.633C44.5314 21.1755 45.3467 18.4212 45.5004 15.5914C45.6541 12.7616 45.142 9.93522 44.0051 7.33927L45.6844 7.78959L46.1287 6.12927L42.6052 5.18396C42.4962 5.15446 42.3824 5.14686 42.2705 5.16162C42.1585 5.17637 42.0506 5.21317 41.953 5.2699C41.7556 5.3838 41.6115 5.57144 41.5525 5.79154L40.6072 9.31498L42.2666 9.76013L42.6198 8.4599Z" fill="#FF3600"/>
<path d="M42.1094 35.2344H39.8415C38.5223 34.1576 32.0427 29.2188 24.0625 29.2188C16.0823 29.2188 9.60437 34.1559 8.28352 35.2344H4.29688C3.61311 35.2344 2.95736 35.506 2.47387 35.9895C1.99037 36.473 1.71875 37.1287 1.71875 37.8125V42.9688C1.71902 43.1385 1.76923 43.3043 1.86312 43.4457L5.30063 48.602C5.37913 48.7196 5.48546 48.8161 5.61019 48.8828C5.73491 48.9495 5.87418 48.9844 6.01562 48.9844H9.53047C9.73245 50.1853 10.3535 51.2759 11.2833 52.0624C12.2131 52.8489 13.3915 53.2804 14.6094 53.2804C15.8272 53.2804 17.0056 52.8489 17.9355 52.0624C18.8653 51.2759 19.4863 50.1853 19.6883 48.9844H36.1711C36.3731 50.1853 36.9941 51.2759 37.9239 52.0624C38.8537 52.8489 40.0322 53.2804 41.25 53.2804C42.4678 53.2804 43.6463 52.8489 44.5761 52.0624C45.5059 51.2759 46.1269 50.1853 46.3289 48.9844H52.4219C52.6498 48.9844 52.8684 48.8938 53.0295 48.7327C53.1907 48.5715 53.2812 48.3529 53.2812 48.125V46.4062C53.2778 43.4443 52.0997 40.6047 50.0053 38.5103C47.9109 36.4159 45.0713 35.2378 42.1094 35.2344ZM49.3952 40.3906H46.0066L45.4343 39.5312H48.577C48.8671 39.8007 49.1403 40.0877 49.3952 40.3906ZM24.9219 39.5312H26.2109C26.3249 39.5312 26.4342 39.5765 26.5148 39.6571C26.5954 39.7377 26.6406 39.847 26.6406 39.9609C26.6406 40.0749 26.5954 40.1842 26.5148 40.2648C26.4342 40.3454 26.3249 40.3906 26.2109 40.3906H24.9219V39.5312ZM24.9219 30.9745C29.9991 31.2254 34.4386 33.6016 36.905 35.2344H24.9219V30.9745ZM23.2031 30.9745V35.2344H11.22C13.6873 33.6016 18.1259 31.2254 23.2031 30.9745ZM3.4375 39.5312H6.1282L5.55586 40.3906H3.4375V39.5312ZM14.6094 51.5625C13.9295 51.5625 13.2649 51.3609 12.6996 50.9832C12.1343 50.6055 11.6937 50.0686 11.4335 49.4405C11.1734 48.8124 11.1053 48.1212 11.2379 47.4544C11.3706 46.7876 11.698 46.1751 12.1787 45.6943C12.6594 45.2136 13.2719 44.8862 13.9388 44.7536C14.6056 44.6209 15.2967 44.689 15.9248 44.9492C16.553 45.2093 17.0898 45.6499 17.4676 46.2152C17.8453 46.7805 18.0469 47.4451 18.0469 48.125C18.0469 49.0367 17.6847 49.911 17.0401 50.5557C16.3954 51.2003 15.5211 51.5625 14.6094 51.5625ZM14.6094 42.9688C13.392 42.971 12.2147 43.4035 11.2853 44.1897C10.3559 44.976 9.73437 46.0655 9.53047 47.2656H6.47539L3.4375 42.7109V42.1094H6.01562C6.15707 42.1094 6.29634 42.0745 6.42106 42.0078C6.54579 41.9411 6.65212 41.8446 6.73062 41.727L8.44937 39.1488C8.53572 39.0194 8.58532 38.869 8.59287 38.7136C8.60041 38.5582 8.56563 38.4036 8.49224 38.2665C8.41884 38.1293 8.30957 38.0146 8.1761 37.9346C8.04263 37.8547 7.88996 37.8125 7.73438 37.8125H3.4375C3.4375 37.5846 3.52804 37.366 3.68921 37.2048C3.85037 37.0437 4.06895 36.9531 4.29688 36.9531H23.2031V47.2656H19.6883C19.4844 46.0655 18.8628 44.976 17.9335 44.1897C17.0041 43.4035 15.8267 42.971 14.6094 42.9688ZM41.25 51.5625C40.5701 51.5625 39.9055 51.3609 39.3402 50.9832C38.7749 50.6055 38.3343 50.0686 38.0742 49.4405C37.814 48.8124 37.7459 48.1212 37.8786 47.4544C38.0112 46.7876 38.3386 46.1751 38.8193 45.6943C39.3001 45.2136 39.9126 44.8862 40.5794 44.7536C41.2462 44.6209 41.9374 44.689 42.5655 44.9492C43.1936 45.2093 43.7305 45.6499 44.1082 46.2152C44.4859 46.7805 44.6875 47.4451 44.6875 48.125C44.6875 49.0367 44.3253 49.911 43.6807 50.5557C43.036 51.2003 42.1617 51.5625 41.25 51.5625ZM51.5625 47.2656H46.3289C46.1269 46.0647 45.5059 44.9741 44.5761 44.1876C43.6463 43.4011 42.4678 42.9696 41.25 42.9696C40.0322 42.9696 38.8537 43.4011 37.9239 44.1876C36.9941 44.9741 36.3731 46.0647 36.1711 47.2656H24.9219V42.1094H26.2109C26.7807 42.1094 27.3272 41.883 27.7301 41.4801C28.133 41.0772 28.3594 40.5307 28.3594 39.9609C28.3594 39.3911 28.133 38.8447 27.7301 38.4418C27.3272 38.0389 26.7807 37.8125 26.2109 37.8125H24.9219V36.9531H42.1094C43.4609 36.9542 44.7962 37.2474 46.0238 37.8125H43.8281C43.6725 37.8125 43.5199 37.8547 43.3864 37.9346C43.2529 38.0146 43.1437 38.1293 43.0703 38.2665C42.9969 38.4036 42.9621 38.5582 42.9696 38.7136C42.9772 38.869 43.0268 39.0194 43.1131 39.1488L44.8319 41.727C44.9104 41.8446 45.0167 41.9411 45.1414 42.0078C45.2662 42.0745 45.4054 42.1094 45.5469 42.1094H50.5184C51.2038 43.438 51.5618 44.9112 51.5625 46.4062V47.2656Z" fill="white"/>
</svg>
