<svg width="168" height="41" viewBox="0 0 168 41" fill="none" xmlns="http://www.w3.org/2000/svg">
<path d="M49.2046 29.0418H61.1566V25.4418H53.4526V11.8818H49.2046V29.0418Z" fill="white"/>
<path d="M68.238 26.642C66.534 26.642 65.646 25.154 65.646 22.922C65.646 20.69 66.534 19.178 68.238 19.178C69.942 19.178 70.854 20.69 70.854 22.922C70.854 25.154 69.942 26.642 68.238 26.642ZM68.262 29.426C72.222 29.426 74.814 26.618 74.814 22.922C74.814 19.226 72.222 16.418 68.262 16.418C64.326 16.418 61.686 19.226 61.686 22.922C61.686 26.618 64.326 29.426 68.262 29.426Z" fill="white"/>
<path d="M81.6678 33.2896C83.4918 33.2896 85.0998 32.8816 86.1798 31.9216C87.1638 31.0336 87.8118 29.6896 87.8118 27.8416V16.7536H84.0678V18.0736H84.0198C83.2998 17.0416 82.1958 16.3936 80.5638 16.3936C77.5158 16.3936 75.4038 18.9376 75.4038 22.5376C75.4038 26.3056 77.9718 28.3696 80.7318 28.3696C82.2198 28.3696 83.1558 27.7696 83.8758 26.9536H83.9718V28.1776C83.9718 29.6656 83.2758 30.5296 81.6198 30.5296C80.3238 30.5296 79.6758 29.9776 79.4598 29.3296H75.6678C76.0518 31.8976 78.2838 33.2896 81.6678 33.2896ZM81.6438 25.4656C80.1798 25.4656 79.2198 24.2656 79.2198 22.4176C79.2198 20.5456 80.1798 19.3456 81.6438 19.3456C83.2758 19.3456 84.1398 20.7376 84.1398 22.3936C84.1398 24.1216 83.3478 25.4656 81.6438 25.4656Z" fill="white"/>
<path d="M95.5105 26.642C93.8065 26.642 92.9185 25.154 92.9185 22.922C92.9185 20.69 93.8065 19.178 95.5105 19.178C97.2145 19.178 98.1265 20.69 98.1265 22.922C98.1265 25.154 97.2145 26.642 95.5105 26.642ZM95.5345 29.426C99.4945 29.426 102.087 26.618 102.087 22.922C102.087 19.226 99.4945 16.418 95.5345 16.418C91.5985 16.418 88.9585 19.226 88.9585 22.922C88.9585 26.618 91.5985 29.426 95.5345 29.426Z" fill="white"/>
<path d="M103.229 29.0418H107.141V16.7538H103.229V29.0418ZM103.229 15.0498H107.141V11.8818H103.229V15.0498Z" fill="white"/>
<path d="M108.837 33.0976H112.749V27.7696H112.797C113.565 28.8016 114.693 29.4256 116.277 29.4256C119.493 29.4256 121.629 26.8816 121.629 22.8976C121.629 19.2016 119.637 16.3936 116.373 16.3936C114.693 16.3936 113.493 17.1376 112.653 18.2416H112.581V16.7536H108.837V33.0976ZM115.269 26.4016C113.589 26.4016 112.629 25.0336 112.629 23.0416C112.629 21.0496 113.493 19.5376 115.197 19.5376C116.877 19.5376 117.669 20.9296 117.669 23.0416C117.669 25.1296 116.757 26.4016 115.269 26.4016Z" fill="white"/>
<path d="M128 29.4256C131.216 29.4256 133.592 28.0336 133.592 25.3456C133.592 22.2016 131.048 21.6496 128.888 21.2896C127.328 21.0016 125.936 20.8816 125.936 20.0176C125.936 19.2496 126.68 18.8896 127.64 18.8896C128.72 18.8896 129.464 19.2256 129.608 20.3296H133.208C133.016 17.9056 131.144 16.3936 127.664 16.3936C124.76 16.3936 122.36 17.7376 122.36 20.3296C122.36 23.2096 124.64 23.7856 126.776 24.1456C128.408 24.4336 129.896 24.5536 129.896 25.6576C129.896 26.4496 129.152 26.8816 127.976 26.8816C126.68 26.8816 125.864 26.2816 125.72 25.0576H122.024C122.144 27.7696 124.4 29.4256 128 29.4256Z" fill="white"/>
<path d="M138.904 29.4019C140.608 29.4019 141.688 28.7299 142.576 27.5299H142.648V29.0419H146.392V16.7539H142.48V23.6179C142.48 25.0819 141.664 26.0899 140.32 26.0899C139.072 26.0899 138.472 25.3459 138.472 24.0019V16.7539H134.584V24.8179C134.584 27.5539 136.072 29.4019 138.904 29.4019Z" fill="white"/>
<path d="M148.095 29.0416H152.007V22.1536C152.007 20.6896 152.727 19.6576 153.951 19.6576C155.127 19.6576 155.679 20.4256 155.679 21.7456V29.0416H159.591V22.1536C159.591 20.6896 160.287 19.6576 161.535 19.6576C162.711 19.6576 163.263 20.4256 163.263 21.7456V29.0416H167.175V21.0496C167.175 18.2896 165.783 16.3936 162.999 16.3936C161.415 16.3936 160.095 17.0656 159.135 18.5536H159.087C158.463 17.2336 157.239 16.3936 155.631 16.3936C153.855 16.3936 152.679 17.2336 151.911 18.5056H151.839V16.7536H148.095V29.0416Z" fill="white"/>
<path fill-rule="evenodd" clip-rule="evenodd" d="M9.22802 4.13986C7.79736 5.14022 6.50366 6.32297 5.38061 7.65439C9.96991 7.22832 15.8005 7.92404 22.5697 11.3087C29.7983 14.9229 35.6191 15.0451 39.6701 14.2637C39.3025 13.1508 38.8397 12.0812 38.2916 11.0644C33.6543 11.5535 27.7093 10.9061 20.7809 7.44197C16.3813 5.24217 12.5031 4.336 9.22802 4.13986ZM35.5827 7.20864C31.9206 3.11699 26.5987 0.541992 20.6753 0.541992C18.9358 0.541992 17.248 0.764099 15.639 1.18147C17.8182 1.77608 20.1332 2.64598 22.5697 3.86426C27.6423 6.40052 32.0217 7.21715 35.5827 7.20864ZM40.5362 18.1701C35.6422 19.1365 28.8841 18.938 20.7809 14.8864C13.2053 11.0986 7.17572 11.1463 3.10919 12.05C2.89929 12.0966 2.69433 12.1456 2.49432 12.1966C1.96191 13.3545 1.53693 14.5721 1.23199 15.8365C1.55768 15.7495 1.89422 15.6668 2.24145 15.5896C7.17486 14.4933 14.1454 14.5409 22.5697 18.7531C30.1454 22.5409 36.1749 22.4932 40.2415 21.5895C40.3808 21.5586 40.5181 21.5266 40.6531 21.4936C40.6679 21.1783 40.6753 20.861 40.6753 20.542C40.6753 19.7395 40.6281 18.948 40.5362 18.1701ZM40.0001 25.7143C35.1536 26.5616 28.5923 26.2364 20.7809 22.3308C13.2053 18.543 7.17572 18.5907 3.10919 19.4944C2.20654 19.6949 1.39453 19.9392 0.678223 20.1971C0.67627 20.3118 0.675293 20.4268 0.675293 20.542C0.675293 31.5877 9.62958 40.542 20.6753 40.542C29.9324 40.542 37.7206 34.2529 40.0001 25.7143Z" fill="#FF3600"/>
</svg>
