<svg width="41" height="41" viewBox="0 0 41 41" fill="none" xmlns="http://www.w3.org/2000/svg">
<g clip-path="url(#clip0_297_761)">
<path d="M32.1743 25.6981C31.3554 24.8454 30.3677 24.3895 29.3208 24.3895C28.2824 24.3895 27.2863 24.837 26.4336 25.6896L23.7658 28.3489C23.5463 28.2308 23.3268 28.121 23.1158 28.0113C22.8119 27.8593 22.5248 27.7158 22.28 27.5638C19.7811 25.9767 17.5101 23.9083 15.332 21.2321C14.2767 19.8982 13.5676 18.7754 13.0526 17.6357C13.7449 17.0025 14.3865 16.344 15.0112 15.7109C15.2476 15.4745 15.484 15.2297 15.7203 14.9933C17.4932 13.2204 17.4932 10.9241 15.7203 9.15122L13.4156 6.84648C13.1539 6.58477 12.8837 6.31462 12.6305 6.04446C12.1239 5.52104 11.5921 4.98074 11.0433 4.4742C10.2244 3.66374 9.24512 3.23318 8.21516 3.23318C7.18521 3.23318 6.18902 3.66374 5.34479 4.4742C5.33635 4.48264 5.33635 4.48264 5.32791 4.49108L2.45753 7.38678C1.37692 8.46739 0.760635 9.78439 0.625559 11.3124C0.422944 13.7776 1.14898 16.0739 1.70617 17.5766C3.07382 21.2659 5.11685 24.685 8.16451 28.3489C11.8622 32.7643 16.3113 36.2509 21.3936 38.7076C23.3353 39.6278 25.9271 40.7169 28.8228 40.9026C29 40.9111 29.1858 40.9195 29.3546 40.9195C31.3048 40.9195 32.9426 40.2188 34.2258 38.8258C34.2343 38.8089 34.2511 38.8005 34.2596 38.7836C34.6986 38.2517 35.2051 37.7705 35.737 37.2555C36.1 36.9094 36.4715 36.5464 36.8345 36.1665C37.6703 35.2969 38.1093 34.2839 38.1093 33.2455C38.1093 32.1986 37.6618 31.194 36.8091 30.3498L32.1743 25.6981ZM35.1967 34.5878C35.1882 34.5878 35.1882 34.5962 35.1967 34.5878C34.8674 34.9424 34.5297 35.2632 34.1667 35.6177C33.618 36.1412 33.0608 36.6899 32.5374 37.3062C31.6847 38.218 30.6801 38.6485 29.3631 38.6485C29.2364 38.6485 29.1013 38.6485 28.9747 38.6401C26.4674 38.4797 24.1373 37.5004 22.3897 36.6646C17.6114 34.3514 13.4156 31.0674 9.92894 26.9053C7.05013 23.4355 5.12529 20.2275 3.85051 16.783C3.06538 14.6809 2.77834 13.0431 2.90497 11.4982C2.9894 10.5104 3.3693 9.69152 4.07001 8.99082L6.94882 6.112C7.36249 5.72366 7.80149 5.5126 8.23205 5.5126C8.76391 5.5126 9.19447 5.83341 9.46462 6.10356C9.47306 6.112 9.4815 6.12044 9.48995 6.12889C10.0049 6.61009 10.4946 7.10819 11.0096 7.64005C11.2713 7.9102 11.5414 8.18036 11.8116 8.45895L14.1163 10.7637C15.0112 11.6586 15.0112 12.4859 14.1163 13.3808C13.8715 13.6256 13.6351 13.8704 13.3903 14.1068C12.6811 14.8329 12.0057 15.5083 11.2713 16.1667C11.2544 16.1836 11.2375 16.1921 11.2291 16.209C10.503 16.935 10.6381 17.6441 10.7901 18.1254C10.7985 18.1507 10.8069 18.176 10.8154 18.2013C11.4148 19.6534 12.259 21.0211 13.5422 22.6504L13.5507 22.6589C15.8807 25.5292 18.3375 27.7664 21.0474 29.4802C21.3936 29.6997 21.7481 29.877 22.0858 30.0458C22.3897 30.1978 22.6768 30.3413 22.9216 30.4933C22.9554 30.5102 22.9891 30.5355 23.0229 30.5524C23.3099 30.6959 23.5801 30.7634 23.8587 30.7634C24.5594 30.7634 24.9984 30.3244 25.1419 30.1809L28.0292 27.2937C28.3162 27.0066 28.7721 26.6605 29.304 26.6605C29.8274 26.6605 30.2579 26.9897 30.5196 27.2768C30.5281 27.2852 30.5281 27.2852 30.5365 27.2937L35.1882 31.9454C36.0578 32.8065 36.0578 33.6929 35.1967 34.5878Z" fill="white"/>
<path d="M22.1784 10.4345C24.3902 10.8059 26.3995 11.8528 28.0035 13.4568C29.6076 15.0608 30.646 17.0701 31.0259 19.282C31.1187 19.8392 31.5999 20.2275 32.1487 20.2275C32.2162 20.2275 32.2753 20.2191 32.3429 20.2106C32.9676 20.1093 33.3813 19.5183 33.2799 18.8936C32.8241 16.2174 31.5577 13.7776 29.6244 11.8443C27.6912 9.91104 25.2513 8.64469 22.5751 8.18881C21.9504 8.0875 21.3679 8.50118 21.2582 9.11746C21.1484 9.73375 21.5536 10.3331 22.1784 10.4345Z" fill="white"/>
<path d="M40.5157 18.5644C39.7644 14.1575 37.6876 10.1474 34.4964 6.95624C31.3052 3.76506 27.2951 1.68826 22.8883 0.936901C22.272 0.827151 21.6895 1.24926 21.5797 1.86555C21.4784 2.49028 21.8921 3.0728 22.5168 3.18255C26.4509 3.84948 30.0389 5.71523 32.8923 8.56027C35.7458 11.4138 37.6031 15.0017 38.2701 18.9358C38.3629 19.493 38.8442 19.8814 39.3929 19.8814C39.4604 19.8814 39.5195 19.8729 39.5871 19.8645C40.2034 19.7716 40.6255 19.1807 40.5157 18.5644Z" fill="white"/>
</g>
<defs>
<clipPath id="clip0_297_761">
<rect width="40" height="40" fill="white" transform="translate(0.561523 0.919495)"/>
</clipPath>
</defs>
</svg>
