<svg width="31" height="31" viewBox="0 0 31 31" fill="none" xmlns="http://www.w3.org/2000/svg">
<path fill-rule="evenodd" clip-rule="evenodd" d="M10.0837 10.997C9.92444 10.997 9.79284 10.8689 9.79284 10.7096V8.05682C9.41189 8.39275 9.03787 8.54513 9.01709 8.55552C8.86818 8.61439 8.70195 8.54166 8.63961 8.39621C8.58073 8.2473 8.65346 8.0776 8.79891 8.01873C8.8093 8.01526 9.47077 7.73821 9.8344 7.1287C9.98331 6.87935 10.3712 6.98324 10.3712 7.27415V10.7096C10.3712 10.8689 10.243 10.997 10.0837 10.997Z" fill="white"/>
<path fill-rule="evenodd" clip-rule="evenodd" d="M15.6769 10.8788C15.0327 10.8788 14.5063 10.3524 14.5063 9.70825C14.5063 9.54895 14.6379 9.42081 14.7973 9.42081C14.9566 9.42081 15.0847 9.54895 15.0847 9.70825C15.0847 10.0338 15.3514 10.3005 15.6769 10.3005C16.0024 10.3005 16.2691 10.0338 16.2691 9.70825C16.2691 9.38271 16.0024 9.11605 15.6769 9.11605C15.5176 9.11605 15.3895 8.98791 15.3895 8.82861C15.3895 8.6693 15.5176 8.54117 15.6769 8.54117C15.9124 8.54117 16.1063 8.34723 16.1063 8.11174C16.1063 7.87624 15.9124 7.68231 15.6769 7.68231C15.4414 7.68231 15.2475 7.87624 15.2475 8.11174C15.2475 8.27104 15.1193 8.39918 14.96 8.39918C14.8007 8.39918 14.6726 8.27104 14.6726 8.11174C14.6726 7.55763 15.1228 7.10742 15.6769 7.10742C16.5531 7.10742 17.0102 8.16022 16.4111 8.79744C16.6777 9.01216 16.8474 9.34116 16.8474 9.70825C16.8474 10.3524 16.321 10.8788 15.6769 10.8788Z" fill="white"/>
<path fill-rule="evenodd" clip-rule="evenodd" d="M21.3043 10.8794C20.6602 10.8794 20.1338 10.353 20.1338 9.70887C20.1338 9.54956 20.2619 9.42142 20.4212 9.42142C20.5805 9.42142 20.7121 9.54956 20.7121 9.70887C20.7121 10.0344 20.9753 10.3011 21.3043 10.3011C21.6299 10.3011 21.8965 10.0344 21.8965 9.70887C21.8965 9.38333 21.6299 9.11667 21.3009 9.11667L20.4801 9.1132C20.3208 9.1132 20.1892 8.98507 20.1892 8.82576V7.67599C20.1892 7.37816 20.4351 7.13574 20.7329 7.13574H22.1667C22.326 7.13574 22.4576 7.26388 22.4576 7.42318C22.4576 7.58249 22.326 7.71063 22.1667 7.71063H20.7675V8.53832H21.3043C21.9485 8.54178 22.4714 9.06472 22.4714 9.70887C22.4714 10.353 21.9485 10.8794 21.3043 10.8794Z" fill="white"/>
<path fill-rule="evenodd" clip-rule="evenodd" d="M11.3306 24.5379H8.96177C8.70549 24.5379 8.57736 24.2262 8.75744 24.0461C8.8648 23.9388 9.05527 23.7621 9.30116 23.5336C9.75483 23.1145 10.3782 22.5397 10.6899 22.1899C10.818 22.0514 10.8457 21.9163 10.7799 21.7639C10.6691 21.518 10.3366 21.3137 10.0527 21.3137C9.61977 21.3137 9.26999 21.6635 9.26999 22.0929C9.26999 22.2522 9.14185 22.3803 8.98255 22.3803C8.82324 22.3803 8.6951 22.2522 8.6951 22.0929C8.6951 21.3449 9.30116 20.7354 10.0492 20.7354C10.9635 20.7354 11.8535 21.7639 11.1193 22.5777C10.7868 22.9448 10.1566 23.5301 9.69249 23.9595C9.69249 23.9595 9.69249 23.9595 9.68903 23.9595H11.3306C11.4899 23.9595 11.6215 24.0911 11.6215 24.2505C11.6215 24.4063 11.4899 24.5379 11.3306 24.5379Z" fill="white"/>
<path fill-rule="evenodd" clip-rule="evenodd" d="M16.2137 24.6137C16.0544 24.6137 15.9262 24.4821 15.9262 24.3228V23.554H14.5514C14.3159 23.554 14.1808 23.2873 14.3159 23.0968L15.9817 20.78C16.1444 20.5514 16.5046 20.6692 16.5046 20.9497V22.9756H16.9825C17.1418 22.9756 17.27 23.1038 17.27 23.2631C17.27 23.4224 17.1418 23.554 16.9825 23.554H16.5046V24.3228C16.5046 24.4821 16.373 24.6137 16.2137 24.6137ZM15.1124 22.9756H15.9262V21.8432L15.1124 22.9756Z" fill="#FF3600"/>
<path fill-rule="evenodd" clip-rule="evenodd" d="M20.5219 24.7211C20.3626 24.7211 20.231 24.5929 20.231 24.4336V21.0882C20.231 20.9289 20.3626 20.8008 20.5219 20.8008C20.6812 20.8008 20.8093 20.9289 20.8093 21.0882V24.4336C20.8093 24.5929 20.6812 24.7211 20.5219 24.7211Z" fill="white"/>
<path fill-rule="evenodd" clip-rule="evenodd" d="M21.9383 23.1696H20.5219C20.3626 23.1696 20.231 23.0414 20.231 22.8821V21.0882C20.231 20.9289 20.3626 20.8008 20.5219 20.8008H21.9383C22.5928 20.8008 23.1262 21.3306 23.1262 21.9852C23.1262 22.6397 22.5928 23.1696 21.9383 23.1696ZM20.8093 22.5947H21.9383C22.2742 22.5947 22.5478 22.3211 22.5478 21.9852C22.5478 21.6493 22.2742 21.3757 21.9383 21.3757H20.8093V22.5947Z" fill="white"/>
<path fill-rule="evenodd" clip-rule="evenodd" d="M22.8837 24.6557C22.7902 24.6557 22.6967 24.6073 22.6413 24.5207L21.6959 23.0385C21.6093 22.9034 21.6508 22.7268 21.7824 22.6402C21.9175 22.5536 22.0976 22.5952 22.1807 22.7268L23.1261 24.2125C23.2508 24.4064 23.1088 24.6557 22.8837 24.6557Z" fill="white"/>
<path fill-rule="evenodd" clip-rule="evenodd" d="M9.96957 20.0394C9.81027 20.0394 9.68213 19.9113 9.68213 19.7519V11.9564C9.68213 11.7971 9.81027 11.6689 9.96957 11.6689C10.1289 11.6689 10.257 11.7971 10.257 11.9564V19.7519C10.257 19.9113 10.1289 20.0394 9.96957 20.0394Z" fill="white"/>
<path fill-rule="evenodd" clip-rule="evenodd" d="M15.7425 20.0394C15.5832 20.0394 15.4551 19.9113 15.4551 19.7519V11.9564C15.4551 11.7971 15.5832 11.6689 15.7425 11.6689C15.9018 11.6689 16.03 11.7971 16.03 11.9564V19.7519C16.03 19.9113 15.9018 20.0394 15.7425 20.0394Z" fill="white"/>
<path fill-rule="evenodd" clip-rule="evenodd" d="M21.5155 20.0394C21.3562 20.0394 21.2246 19.9113 21.2246 19.7519V17.0853C21.2246 16.926 21.3562 16.7979 21.5155 16.7979C21.6748 16.7979 21.803 16.926 21.803 17.0853V19.7519C21.803 19.9113 21.6748 20.0394 21.5155 20.0394ZM21.5155 14.9105C21.3562 14.9105 21.2246 14.7823 21.2246 14.623V11.9564C21.2246 11.7971 21.3562 11.6689 21.5155 11.6689C21.6748 11.6689 21.803 11.7971 21.803 11.9564V14.623C21.803 14.7823 21.6748 14.9105 21.5155 14.9105Z" fill="white"/>
<path fill-rule="evenodd" clip-rule="evenodd" d="M21.5157 16.1428H9.96957C9.81027 16.1428 9.68213 16.0147 9.68213 15.8554C9.68213 15.6961 9.81027 15.5645 9.96957 15.5645H21.5157C21.675 15.5645 21.8032 15.6961 21.8032 15.8554C21.8032 16.0147 21.675 16.1428 21.5157 16.1428Z" fill="white"/>
<path fill-rule="evenodd" clip-rule="evenodd" d="M23.7564 27.4917H8.04058C5.58174 27.4917 3.5835 25.4934 3.5835 23.0381V8.66944C3.5835 6.21406 5.58174 4.21582 8.04058 4.21582H23.7564C26.2117 4.21582 28.21 6.21406 28.21 8.66944V23.0381C28.21 25.4934 26.2117 27.4917 23.7564 27.4917ZM8.04058 4.7907C5.90035 4.7907 4.16184 6.53267 4.16184 8.66944V23.0381C4.16184 25.1748 5.90035 26.9168 8.04058 26.9168H23.7564C25.8931 26.9168 27.6316 25.1748 27.6316 23.0381V8.66944C27.6316 6.53267 25.8931 4.7907 23.7564 4.7907H8.04058Z" fill="white"/>
<path fill-rule="evenodd" clip-rule="evenodd" d="M23.7562 26.2453H8.04038C6.27071 26.2453 4.8335 24.8081 4.8335 23.0384V8.66977C4.8335 6.9001 6.27071 5.46289 8.04038 5.46289H23.7562C25.5224 5.46289 26.9631 6.9001 26.9631 8.66977V23.0384C26.9631 24.8081 25.5224 26.2453 23.7562 26.2453ZM8.04038 6.04124C6.58932 6.04124 5.40838 7.21871 5.40838 8.66977V23.0384C5.40838 24.4895 6.58932 25.6669 8.04038 25.6669H23.7562C25.2038 25.6669 26.3847 24.4895 26.3847 23.0384V8.66977C26.3847 7.21871 25.2038 6.04124 23.7562 6.04124H8.04038Z" fill="white"/>
</svg>
