<svg width="168" height="41" viewBox="0 0 168 41" fill="none" xmlns="http://www.w3.org/2000/svg">
<path d="M49.5698 28.5711H61.5218V24.9711H53.8178V11.4111H49.5698V28.5711Z" fill="white"/>
<path d="M68.6033 26.1722C66.8993 26.1722 66.0113 24.6842 66.0113 22.4522C66.0113 20.2202 66.8993 18.7082 68.6033 18.7082C70.3073 18.7082 71.2193 20.2202 71.2193 22.4522C71.2193 24.6842 70.3073 26.1722 68.6033 26.1722ZM68.6273 28.9562C72.5873 28.9562 75.1793 26.1482 75.1793 22.4522C75.1793 18.7562 72.5873 15.9482 68.6273 15.9482C64.6913 15.9482 62.0513 18.7562 62.0513 22.4522C62.0513 26.1482 64.6913 28.9562 68.6273 28.9562Z" fill="white"/>
<path d="M82.034 32.8189C83.858 32.8189 85.466 32.4109 86.546 31.4509C87.53 30.5629 88.178 29.2189 88.178 27.3709V16.2829H84.434V17.6029H84.386C83.666 16.5709 82.562 15.9229 80.93 15.9229C77.882 15.9229 75.77 18.4669 75.77 22.0669C75.77 25.8349 78.338 27.8989 81.098 27.8989C82.586 27.8989 83.522 27.2989 84.242 26.4829H84.338V27.7069C84.338 29.1949 83.642 30.0589 81.986 30.0589C80.69 30.0589 80.042 29.5069 79.826 28.8589H76.034C76.418 31.4269 78.65 32.8189 82.034 32.8189ZM82.01 24.9949C80.546 24.9949 79.586 23.7949 79.586 21.9469C79.586 20.0749 80.546 18.8749 82.01 18.8749C83.642 18.8749 84.506 20.2669 84.506 21.9229C84.506 23.6509 83.714 24.9949 82.01 24.9949Z" fill="white"/>
<path d="M95.8757 26.1722C94.1717 26.1722 93.2837 24.6842 93.2837 22.4522C93.2837 20.2202 94.1717 18.7082 95.8757 18.7082C97.5797 18.7082 98.4917 20.2202 98.4917 22.4522C98.4917 24.6842 97.5797 26.1722 95.8757 26.1722ZM95.8997 28.9562C99.8597 28.9562 102.451 26.1482 102.451 22.4522C102.451 18.7562 99.8597 15.9482 95.8997 15.9482C91.9637 15.9482 89.3237 18.7562 89.3237 22.4522C89.3237 26.1482 91.9637 28.9562 95.8997 28.9562Z" fill="white"/>
<path d="M103.594 28.5711H107.506V16.2831H103.594V28.5711ZM103.594 14.5791H107.506V11.4111H103.594V14.5791Z" fill="white"/>
<path d="M109.204 32.6269H113.116V27.2989H113.164C113.932 28.3309 115.06 28.9549 116.644 28.9549C119.86 28.9549 121.996 26.4109 121.996 22.4269C121.996 18.7309 120.004 15.9229 116.74 15.9229C115.06 15.9229 113.86 16.6669 113.02 17.7709H112.948V16.2829H109.204V32.6269ZM115.636 25.9309C113.956 25.9309 112.996 24.5629 112.996 22.5709C112.996 20.5789 113.86 19.0669 115.564 19.0669C117.244 19.0669 118.036 20.4589 118.036 22.5709C118.036 24.6589 117.124 25.9309 115.636 25.9309Z" fill="white"/>
<path d="M128.364 28.9549C131.58 28.9549 133.956 27.5629 133.956 24.8749C133.956 21.7309 131.412 21.1789 129.252 20.8189C127.692 20.5309 126.3 20.4109 126.3 19.5469C126.3 18.7789 127.044 18.4189 128.004 18.4189C129.084 18.4189 129.828 18.7549 129.972 19.8589H133.572C133.38 17.4349 131.508 15.9229 128.028 15.9229C125.124 15.9229 122.724 17.2669 122.724 19.8589C122.724 22.7389 125.004 23.3149 127.14 23.6749C128.772 23.9629 130.26 24.0829 130.26 25.1869C130.26 25.9789 129.516 26.4109 128.34 26.4109C127.044 26.4109 126.228 25.8109 126.084 24.5869H122.388C122.508 27.2989 124.764 28.9549 128.364 28.9549Z" fill="white"/>
<path d="M139.271 28.9322C140.975 28.9322 142.055 28.2602 142.943 27.0602H143.015V28.5722H146.759V16.2842H142.847V23.1482C142.847 24.6122 142.031 25.6202 140.687 25.6202C139.439 25.6202 138.839 24.8762 138.839 23.5322V16.2842H134.951V24.3482C134.951 27.0842 136.439 28.9322 139.271 28.9322Z" fill="white"/>
<path d="M148.46 28.5709H152.372V21.6829C152.372 20.2189 153.092 19.1869 154.316 19.1869C155.492 19.1869 156.044 19.9549 156.044 21.2749V28.5709H159.956V21.6829C159.956 20.2189 160.652 19.1869 161.9 19.1869C163.076 19.1869 163.628 19.9549 163.628 21.2749V28.5709H167.54V20.5789C167.54 17.8189 166.148 15.9229 163.364 15.9229C161.78 15.9229 160.46 16.5949 159.5 18.0829H159.452C158.828 16.7629 157.604 15.9229 155.996 15.9229C154.22 15.9229 153.044 16.7629 152.276 18.0349H152.204V16.2829H148.46V28.5709Z" fill="white"/>
<path d="M25.7024 1.59585L21.7694 0.541992L18.455 12.9116L15.4627 1.74423L11.5296 2.79809L14.7626 14.8636L6.70994 6.81097L3.83075 9.69016L12.6635 18.523L1.66372 15.5756L0.609863 19.5086L12.6285 22.729C12.4909 22.1355 12.4181 21.5171 12.4181 20.8817C12.4181 16.3841 16.0641 12.7381 20.5617 12.7381C25.0593 12.7381 28.7053 16.3841 28.7053 20.8817C28.7053 21.513 28.6334 22.1276 28.4975 22.7176L39.4202 25.6443L40.474 21.7113L28.4076 18.4781L39.4081 15.5305L38.3542 11.5975L26.2883 14.8305L34.3409 6.77791L31.4617 3.89872L22.7515 12.609L25.7024 1.59585Z" fill="#FF3600"/>
<path d="M28.4863 22.7637C28.1491 24.1893 27.4372 25.47 26.4604 26.4961L34.3735 34.4092L37.2527 31.53L28.4863 22.7637Z" fill="#FF3600"/>
<path d="M26.3806 26.5791C25.392 27.5888 24.1427 28.3423 22.7417 28.7306L25.6211 39.4766L29.5541 38.4227L26.3806 26.5791Z" fill="#FF3600"/>
<path d="M22.5948 28.7694C21.9448 28.9365 21.2635 29.0253 20.5614 29.0253C19.8092 29.0253 19.0808 28.9233 18.3893 28.7324L15.5073 39.4882L19.4403 40.542L22.5948 28.7694Z" fill="#FF3600"/>
<path d="M18.2503 28.6931C16.8707 28.2855 15.6436 27.5224 14.6752 26.5098L6.74268 34.4423L9.62187 37.3215L18.2503 28.6931Z" fill="#FF3600"/>
<path d="M14.6097 26.4391C13.6579 25.4201 12.9646 24.1565 12.6346 22.7529L1.67627 25.6892L2.73012 29.6222L14.6097 26.4391Z" fill="#FF3600"/>
</svg>
