<svg width="33" height="33" viewBox="0 0 33 33" fill="none" xmlns="http://www.w3.org/2000/svg">
<g clip-path="url(#clip0_345_11038)">
<path d="M7.60495 8.30664H5.48485C5.20371 8.30664 4.93408 8.41832 4.73529 8.61712C4.53649 8.81592 4.4248 9.08555 4.4248 9.36669V11.4868C4.4248 11.7679 4.53649 12.0376 4.73529 12.2364C4.93408 12.4352 5.20371 12.5468 5.48485 12.5468H7.60495C7.88609 12.5468 8.15572 12.4352 8.35452 12.2364C8.55332 12.0376 8.665 11.7679 8.665 11.4868V9.36669C8.665 9.08555 8.55332 8.81592 8.35452 8.61712C8.15572 8.41832 7.88609 8.30664 7.60495 8.30664ZM5.48485 11.4868V9.36669H7.60495V11.4868H5.48485Z" fill="white"/>
<path d="M12.9052 8.30664H10.7851C10.504 8.30664 10.2344 8.41832 10.0356 8.61712C9.83678 8.81592 9.7251 9.08555 9.7251 9.36669V11.4868C9.7251 11.7679 9.83678 12.0376 10.0356 12.2364C10.2344 12.4352 10.504 12.5468 10.7851 12.5468H12.9052C13.1864 12.5468 13.456 12.4352 13.6548 12.2364C13.8536 12.0376 13.9653 11.7679 13.9653 11.4868V9.36669C13.9653 9.08555 13.8536 8.81592 13.6548 8.61712C13.456 8.41832 13.1864 8.30664 12.9052 8.30664ZM10.7851 11.4868V9.36669H12.9052V11.4868H10.7851Z" fill="white"/>
<path d="M16.0854 12.5468H18.2055C18.4867 12.5468 18.7563 12.4352 18.9551 12.2364C19.1539 12.0376 19.2656 11.7679 19.2656 11.4868V9.36669C19.2656 9.08555 19.1539 8.81592 18.9551 8.61712C18.7563 8.41832 18.4867 8.30664 18.2055 8.30664H16.0854C15.8043 8.30664 15.5347 8.41832 15.3359 8.61712C15.1371 8.81592 15.0254 9.08555 15.0254 9.36669V11.4868C15.0254 11.7679 15.1371 12.0376 15.3359 12.2364C15.5347 12.4352 15.8043 12.5468 16.0854 12.5468ZM16.0854 9.36669H18.2055V11.4868H16.0854V9.36669Z" fill="white"/>
<path d="M21.3857 12.5468H23.5058C23.787 12.5468 24.0566 12.4352 24.2554 12.2364C24.4542 12.0376 24.5659 11.7679 24.5659 11.4868V9.36669C24.5659 9.08555 24.4542 8.81592 24.2554 8.61712C24.0566 8.41832 23.787 8.30664 23.5058 8.30664H21.3857C21.1046 8.30664 20.835 8.41832 20.6362 8.61712C20.4374 8.81592 20.3257 9.08555 20.3257 9.36669V11.4868C20.3257 11.7679 20.4374 12.0376 20.6362 12.2364C20.835 12.4352 21.1046 12.5468 21.3857 12.5468ZM21.3857 9.36669H23.5058V11.4868H21.3857V9.36669Z" fill="white"/>
<path d="M7.60495 14.1367H5.48485C5.20371 14.1367 4.93408 14.2484 4.73529 14.4472C4.53649 14.646 4.4248 14.9156 4.4248 15.1968V17.3169C4.4248 17.598 4.53649 17.8676 4.73529 18.0664C4.93408 18.2652 5.20371 18.3769 5.48485 18.3769H7.60495C7.88609 18.3769 8.15572 18.2652 8.35452 18.0664C8.55332 17.8676 8.665 17.598 8.665 17.3169V15.1968C8.665 14.9156 8.55332 14.646 8.35452 14.4472C8.15572 14.2484 7.88609 14.1367 7.60495 14.1367ZM5.48485 17.3169V15.1968H7.60495V17.3169H5.48485Z" fill="white"/>
<path d="M12.9052 14.1367H10.7851C10.504 14.1367 10.2344 14.2484 10.0356 14.4472C9.83678 14.646 9.7251 14.9156 9.7251 15.1968V17.3169C9.7251 17.598 9.83678 17.8676 10.0356 18.0664C10.2344 18.2652 10.504 18.3769 10.7851 18.3769H12.9052C13.1864 18.3769 13.456 18.2652 13.6548 18.0664C13.8536 17.8676 13.9653 17.598 13.9653 17.3169V15.1968C13.9653 14.9156 13.8536 14.646 13.6548 14.4472C13.456 14.2484 13.1864 14.1367 12.9052 14.1367ZM10.7851 17.3169V15.1968H12.9052V17.3169H10.7851Z" fill="white"/>
<path d="M16.0854 18.3769H18.2055C18.4867 18.3769 18.7563 18.2652 18.9551 18.0664C19.1539 17.8676 19.2656 17.598 19.2656 17.3169V15.1968C19.2656 14.9156 19.1539 14.646 18.9551 14.4472C18.7563 14.2484 18.4867 14.1367 18.2055 14.1367H16.0854C15.8043 14.1367 15.5347 14.2484 15.3359 14.4472C15.1371 14.646 15.0254 14.9156 15.0254 15.1968V17.3169C15.0254 17.598 15.1371 17.8676 15.3359 18.0664C15.5347 18.2652 15.8043 18.3769 16.0854 18.3769ZM16.0854 15.1968H18.2055V17.3169H16.0854V15.1968Z" fill="white"/>
<path d="M7.60495 19.9668H5.48485C5.20371 19.9668 4.93408 20.0785 4.73529 20.2773C4.53649 20.4761 4.4248 20.7457 4.4248 21.0268V23.1469C4.4248 23.4281 4.53649 23.6977 4.73529 23.8965C4.93408 24.0953 5.20371 24.207 5.48485 24.207H7.60495C7.88609 24.207 8.15572 24.0953 8.35452 23.8965C8.55332 23.6977 8.665 23.4281 8.665 23.1469V21.0268C8.665 20.7457 8.55332 20.4761 8.35452 20.2773C8.15572 20.0785 7.88609 19.9668 7.60495 19.9668ZM5.48485 23.1469V21.0268H7.60495V23.1469H5.48485Z" fill="white"/>
<path d="M12.9052 19.9668H10.7851C10.504 19.9668 10.2344 20.0785 10.0356 20.2773C9.83678 20.4761 9.7251 20.7457 9.7251 21.0268V23.1469C9.7251 23.4281 9.83678 23.6977 10.0356 23.8965C10.2344 24.0953 10.504 24.207 10.7851 24.207H12.9052C13.1864 24.207 13.456 24.0953 13.6548 23.8965C13.8536 23.6977 13.9653 23.4281 13.9653 23.1469V21.0268C13.9653 20.7457 13.8536 20.4761 13.6548 20.2773C13.456 20.0785 13.1864 19.9668 12.9052 19.9668ZM10.7851 23.1469V21.0268H12.9052V23.1469H10.7851Z" fill="white"/>
<path d="M28.2761 17.18V4.06564C28.2761 3.50336 28.0528 2.9641 27.6552 2.5665C27.2576 2.16891 26.7183 1.94554 26.156 1.94554H25.626C25.626 1.52383 25.4585 1.11939 25.1603 0.821191C24.8621 0.522994 24.4576 0.355469 24.0359 0.355469C23.6142 0.355469 23.2098 0.522994 22.9116 0.821191C22.6134 1.11939 22.4459 1.52383 22.4459 1.94554H19.2657C19.2657 1.52383 19.0982 1.11939 18.8 0.821191C18.5018 0.522994 18.0973 0.355469 17.6756 0.355469C17.2539 0.355469 16.8495 0.522994 16.5513 0.821191C16.2531 1.11939 16.0856 1.52383 16.0856 1.94554H12.9054C12.9054 1.52383 12.7379 1.11939 12.4397 0.821191C12.1415 0.522994 11.737 0.355469 11.3153 0.355469C10.8936 0.355469 10.4892 0.522994 10.191 0.821191C9.89279 1.11939 9.72526 1.52383 9.72526 1.94554H6.54511C6.54511 1.52383 6.37759 1.11939 6.07939 0.821191C5.7812 0.522994 5.37675 0.355469 4.95504 0.355469C4.53333 0.355469 4.12889 0.522994 3.83069 0.821191C3.53249 1.11939 3.36497 1.52383 3.36497 1.94554H2.83494C2.27266 1.94554 1.7334 2.16891 1.33581 2.5665C0.938211 2.9641 0.714844 3.50336 0.714844 4.06564L0.714844 25.2666C0.714844 25.8289 0.938211 26.3682 1.33581 26.7658C1.7334 27.1634 2.27266 27.3867 2.83494 27.3867H17.2839C17.7914 28.5506 18.5703 29.576 19.5555 30.3771C20.5407 31.1781 21.7034 31.7314 22.9464 31.9907C24.1894 32.2499 25.4764 32.2076 26.6996 31.8673C27.9229 31.527 29.0468 30.8985 29.9773 30.0345C30.9078 29.1706 31.6177 28.0962 32.0476 26.9015C32.4775 25.7068 32.615 24.4264 32.4484 23.1677C32.2818 21.9089 31.816 20.7084 31.0901 19.6667C30.3642 18.6249 29.3993 17.7722 28.2761 17.18ZM23.5059 1.94554C23.5059 1.80497 23.5617 1.67016 23.6611 1.57076C23.7605 1.47136 23.8954 1.41552 24.0359 1.41552C24.1765 1.41552 24.3113 1.47136 24.4107 1.57076C24.5101 1.67016 24.566 1.80497 24.566 1.94554V3.00559C24.566 3.14616 24.5101 3.28098 24.4107 3.38038C24.3113 3.47977 24.1765 3.53562 24.0359 3.53562C23.8954 3.53562 23.7605 3.47977 23.6611 3.38038C23.5617 3.28098 23.5059 3.14616 23.5059 3.00559V1.94554ZM17.1456 1.94554C17.1456 1.80497 17.2014 1.67016 17.3008 1.57076C17.4002 1.47136 17.5351 1.41552 17.6756 1.41552C17.8162 1.41552 17.951 1.47136 18.0504 1.57076C18.1498 1.67016 18.2057 1.80497 18.2057 1.94554V3.00559C18.2057 3.14616 18.1498 3.28098 18.0504 3.38038C17.951 3.47977 17.8162 3.53562 17.6756 3.53562C17.5351 3.53562 17.4002 3.47977 17.3008 3.38038C17.2014 3.28098 17.1456 3.14616 17.1456 3.00559V1.94554ZM10.7853 1.94554C10.7853 1.80497 10.8412 1.67016 10.9406 1.57076C11.04 1.47136 11.1748 1.41552 11.3153 1.41552C11.4559 1.41552 11.5907 1.47136 11.6901 1.57076C11.7895 1.67016 11.8454 1.80497 11.8454 1.94554V3.00559C11.8454 3.14616 11.7895 3.28098 11.6901 3.38038C11.5907 3.47977 11.4559 3.53562 11.3153 3.53562C11.1748 3.53562 11.04 3.47977 10.9406 3.38038C10.8412 3.28098 10.7853 3.14616 10.7853 3.00559V1.94554ZM4.42502 1.94554C4.42502 1.80497 4.48086 1.67016 4.58026 1.57076C4.67966 1.47136 4.81447 1.41552 4.95504 1.41552C5.09561 1.41552 5.23043 1.47136 5.32982 1.57076C5.42922 1.67016 5.48506 1.80497 5.48506 1.94554V3.00559C5.48506 3.14616 5.42922 3.28098 5.32982 3.38038C5.23043 3.47977 5.09561 3.53562 4.95504 3.53562C4.81447 3.53562 4.67966 3.47977 4.58026 3.38038C4.48086 3.28098 4.42502 3.14616 4.42502 3.00559V1.94554ZM2.83494 3.00559H3.36497C3.36497 3.42731 3.53249 3.83175 3.83069 4.12994C4.12889 4.42814 4.53333 4.59567 4.95504 4.59567C5.37675 4.59567 5.7812 4.42814 6.07939 4.12994C6.37759 3.83175 6.54511 3.42731 6.54511 3.00559H9.72526C9.72526 3.42731 9.89279 3.83175 10.191 4.12994C10.4892 4.42814 10.8936 4.59567 11.3153 4.59567C11.737 4.59567 12.1415 4.42814 12.4397 4.12994C12.7379 3.83175 12.9054 3.42731 12.9054 3.00559H16.0856C16.0856 3.42731 16.2531 3.83175 16.5513 4.12994C16.8495 4.42814 17.2539 4.59567 17.6756 4.59567C18.0973 4.59567 18.5018 4.42814 18.8 4.12994C19.0982 3.83175 19.2657 3.42731 19.2657 3.00559H22.4459C22.4459 3.42731 22.6134 3.83175 22.9116 4.12994C23.2098 4.42814 23.6142 4.59567 24.0359 4.59567C24.4576 4.59567 24.8621 4.42814 25.1603 4.12994C25.4585 3.83175 25.626 3.42731 25.626 3.00559H26.156C26.4372 3.00559 26.7068 3.11727 26.9056 3.31607C27.1044 3.51487 27.2161 3.7845 27.2161 4.06564V5.65571H1.77489V4.06564C1.77489 3.7845 1.88658 3.51487 2.08537 3.31607C2.28417 3.11727 2.5538 3.00559 2.83494 3.00559ZM2.83494 26.3267C2.5538 26.3267 2.28417 26.215 2.08537 26.0162C1.88658 25.8174 1.77489 25.5478 1.77489 25.2666V6.71576H27.2161V16.72C26.3657 16.4151 25.4693 16.2582 24.566 16.2562V15.1962C24.566 14.915 24.4543 14.6454 24.2555 14.4466C24.0567 14.2478 23.787 14.1361 23.5059 14.1361H21.3858C21.1047 14.1361 20.835 14.2478 20.6362 14.4466C20.4374 14.6454 20.3258 14.915 20.3258 15.1962V17.3163C20.3265 17.3722 20.3318 17.4281 20.3417 17.4832C19.338 18.1162 18.4876 18.9643 17.8521 19.9664H16.0856C15.8044 19.9664 15.5348 20.0781 15.336 20.2769C15.1372 20.4757 15.0255 20.7453 15.0255 21.0264V23.1465C15.0255 23.4277 15.1372 23.6973 15.336 23.8961C15.5348 24.0949 15.8044 24.2066 16.0856 24.2066H16.6156C16.6177 24.9234 16.7171 25.6366 16.9113 26.3267H2.83494ZM23.5059 16.3352C22.7751 16.4316 22.0615 16.63 21.3858 16.9246V15.1962H23.5059V16.3352ZM16.6946 23.1465H16.0856V21.0264H17.2839C16.9894 21.7021 16.791 22.4158 16.6946 23.1465ZM24.566 31.0969C23.2032 31.0969 21.871 30.6928 20.7379 29.9357C19.6048 29.1785 18.7216 28.1024 18.2001 26.8434C17.6786 25.5843 17.5422 24.1989 17.808 22.8623C18.0739 21.5257 18.7301 20.298 19.6938 19.3344C20.6574 18.3708 21.8851 17.7145 23.2217 17.4487C24.5583 17.1828 25.9437 17.3192 27.2028 17.8407C28.4618 18.3623 29.5379 19.2454 30.295 20.3785C31.0522 21.5116 31.4563 22.8438 31.4563 24.2066C31.4542 26.0334 30.7275 27.7847 29.4358 29.0764C28.1441 30.3682 26.3927 31.0948 24.566 31.0969Z" fill="white"/>
<path d="M26.8023 21.2252L22.9331 26.0633L22.2918 25.4219C22.1918 25.3254 22.0579 25.272 21.919 25.2732C21.78 25.2744 21.6471 25.3301 21.5488 25.4284C21.4505 25.5267 21.3948 25.6596 21.3936 25.7986C21.3924 25.9375 21.4458 26.0714 21.5423 26.1714L22.6024 27.2314C22.6513 27.2807 22.7096 27.3198 22.7737 27.3464C22.8378 27.3731 22.9066 27.3868 22.9761 27.3867H23.0057C23.0801 27.3826 23.1527 27.3629 23.2189 27.3288C23.2851 27.2948 23.3434 27.2471 23.39 27.189L27.6302 21.8888C27.7181 21.779 27.7587 21.6388 27.7432 21.4991C27.7277 21.3593 27.6573 21.2314 27.5475 21.1436C27.4377 21.0557 27.2975 21.0151 27.1578 21.0306C27.018 21.0461 26.8902 21.1165 26.8023 21.2263V21.2252Z" fill="#FF3600"/>
</g>
<defs>
<clipPath id="clip0_345_11038">
<rect width="31.8015" height="31.8015" fill="white" transform="translate(0.714844 0.355469)"/>
</clipPath>
</defs>
</svg>
