<svg width="31" height="31" viewBox="0 0 31 31" fill="none" xmlns="http://www.w3.org/2000/svg">
<path d="M26.938 13.2084L18.0604 4.33084C16.7972 3.06055 15.0782 2.34848 13.2868 2.35354H6.44678C5.20478 2.35506 4.1983 3.36154 4.19678 4.60354V28.9035C4.19678 29.152 4.39826 29.3535 4.64678 29.3535H17.8939C19.0465 29.3535 20.1071 28.7239 20.6591 27.7119C21.8786 25.4741 23.7174 23.6353 25.9552 22.4159C26.9671 21.8639 27.5967 20.8033 27.5968 19.6506V14.7992C27.5984 14.2023 27.3612 13.6294 26.938 13.2084ZM26.6968 19.6506C26.6968 20.4741 26.247 21.2319 25.5241 21.6261C23.1344 22.9277 21.171 24.8912 19.8694 27.2808C19.4751 28.0038 18.7174 28.4536 17.8939 28.4535H5.09678V4.60354C5.09678 3.85795 5.70118 3.25354 6.44678 3.25354H13.2868C14.8392 3.24932 16.3289 3.86638 17.4236 4.96714L26.3017 13.8447C26.5538 14.0985 26.6958 14.4414 26.6968 14.7992V19.6506Z" fill="white"/>
<path d="M24.7647 13.7352L16.6328 5.60324C15.7066 4.67185 14.4462 4.14979 13.1327 4.15334H7.34658C6.60099 4.15334 5.99658 4.75774 5.99658 5.50334V14.0533C5.99658 14.3018 6.19807 14.5033 6.44658 14.5033H24.4466C24.6285 14.5034 24.7927 14.3938 24.8624 14.2257C24.9321 14.0575 24.8935 13.8639 24.7647 13.7352ZM17.6966 13.6033H6.89658V5.50334C6.89658 5.25482 7.09807 5.05334 7.34658 5.05334H13.1327C14.2074 5.05041 15.2386 5.47752 15.9965 6.23954L17.6966 7.93963V13.6033ZM18.5966 13.6033V8.83963L23.3603 13.6033H18.5966Z" fill="white"/>
<path d="M23.5466 15.8535H20.8466C20.101 15.8535 19.4966 16.4579 19.4966 17.2035C19.4966 17.9491 20.101 18.5535 20.8466 18.5535H23.5466C24.2922 18.5535 24.8966 17.9491 24.8966 17.2035C24.8966 16.458 24.2922 15.8535 23.5466 15.8535ZM23.5466 17.6535H20.8466C20.5981 17.6535 20.3966 17.452 20.3966 17.2035C20.3966 16.955 20.5981 16.7535 20.8466 16.7535H23.5466C23.7951 16.7535 23.9966 16.955 23.9966 17.2035C23.9966 17.452 23.7951 17.6535 23.5466 17.6535Z" fill="#FF3600"/>
</svg>
