<svg width="35" height="34" viewBox="0 0 35 34" fill="none" xmlns="http://www.w3.org/2000/svg">
<g clip-path="url(#clip0_345_11028)">
<path d="M33.7634 29.3768L29.5333 25.229L29.1481 25.6067L28.2251 24.7016C28.8161 23.7249 29.1349 22.618 29.1349 21.4524C29.1349 20.365 28.856 19.3167 28.338 18.3855C28.7431 17.0768 28.9622 15.7224 28.9622 14.342C28.9622 6.69105 22.6138 0.472656 14.8177 0.472656C7.01494 0.472656 0.666504 6.69756 0.666504 14.342C0.666504 21.9864 7.01494 28.2113 14.811 28.2113C16.3583 28.2113 17.8856 27.9703 19.32 27.495L19.9774 27.3062C20.7942 27.6578 21.6907 27.8531 22.6071 27.8531C23.7892 27.8531 24.9247 27.5406 25.9208 26.9611L26.8438 27.8662L26.4587 28.2438L30.6888 32.3916C31.1138 32.8083 31.6716 33.0167 32.2294 33.0167C32.7872 33.0167 33.345 32.8083 33.77 32.3916C34.6134 31.5581 34.6134 30.2038 33.7634 29.3768ZM27.2224 16.927C25.9872 15.7159 24.347 15.0517 22.6071 15.0517C22.3548 15.0517 22.1091 15.0712 21.8634 15.0973C21.8634 15.0257 21.87 14.954 21.87 14.8824H27.8532C27.82 15.6833 27.7138 16.4777 27.5278 17.2591C27.4282 17.1419 27.3286 17.0312 27.2224 16.927ZM8.62861 9.20446C9.12002 9.20446 9.51846 9.59514 9.51846 10.077C9.51846 10.5588 9.12002 10.9495 8.62861 10.9495C8.13721 10.9495 7.73877 10.5588 7.73877 10.077C7.73877 9.59514 8.13721 9.20446 8.62861 9.20446ZM8.94072 11.9848C9.88369 11.8351 10.6009 11.0407 10.6009 10.077C10.6009 9.33469 10.1626 8.69006 9.53838 8.371C9.58486 8.18217 9.63799 7.99334 9.69111 7.8045C11.1388 8.35797 12.686 8.67052 14.2731 8.72912V13.808H8.84775C8.85439 13.196 8.8876 12.5839 8.94072 11.9848ZM15.3556 8.72912C16.936 8.67052 18.4767 8.35797 19.9243 7.8045C20.429 9.58863 20.7411 11.6397 20.7876 13.808H15.3556V8.72912ZM15.3556 7.64823V1.59262C17.0755 1.94423 18.6095 3.9237 19.6056 6.78221C18.2642 7.30313 16.8298 7.58963 15.3556 7.64823ZM18.0185 1.93121C19.9841 2.41957 21.7771 3.3507 23.2778 4.6074C22.461 5.2911 21.5712 5.87713 20.6216 6.33944C19.9575 4.47066 19.0677 2.9535 18.0185 1.93121ZM14.2665 1.59913V7.64823C12.7923 7.58963 11.3579 7.30313 10.0099 6.78221C11.0325 3.85859 12.5864 1.94423 14.2665 1.59913ZM14.2665 14.8759V19.9548C12.686 20.0134 11.1454 20.3259 9.69775 20.8794C9.19307 19.0953 8.88096 17.0442 8.83447 14.8759H14.2665ZM14.2665 21.0357V27.0913C12.5466 26.7397 11.0126 24.7602 10.0165 21.9017C11.3646 21.3808 12.7989 21.1008 14.2665 21.0357ZM11.6103 26.7592C9.64463 26.2709 7.85166 25.3397 6.35088 24.083C7.16768 23.3993 8.05752 22.8133 9.00713 22.351C9.66455 24.2198 10.561 25.7369 11.6103 26.7592ZM15.3556 27.0848V21.0292C15.6013 21.0422 15.847 21.0552 16.0927 21.0813C16.086 21.205 16.0728 21.3287 16.0728 21.4524C16.0728 22.9891 16.6239 24.4346 17.6267 25.5937C17.1087 26.1992 16.3251 26.8894 15.3556 27.0848ZM16.2454 20.0264C15.9532 20.0004 15.6544 19.9743 15.3556 19.9678V14.8824H20.781C20.781 15.0257 20.7743 15.1689 20.7677 15.3122C19.7317 15.6117 18.7755 16.1586 17.9919 16.927C17.1087 17.793 16.5177 18.8609 16.2454 20.0264ZM27.8599 13.808H21.8833C21.8368 11.4509 21.5114 9.26306 20.9603 7.36173C22.0825 6.82779 23.1384 6.15061 24.0946 5.33668C26.306 7.53754 27.7204 10.5133 27.8599 13.808ZM9.01377 6.33944C8.06416 5.87713 7.17432 5.2911 6.35088 4.60089C7.85166 3.34419 9.64463 2.41306 11.6169 1.9247C10.581 2.94048 9.68447 4.44462 9.01377 6.33944ZM5.54072 5.34319C6.50361 6.16363 7.55947 6.84082 8.68838 7.37475C8.61533 7.6287 8.54228 7.88915 8.47588 8.15612C7.45986 8.23426 6.65635 9.06121 6.65635 10.077C6.65635 10.8779 7.15439 11.5681 7.86494 11.8611C7.80518 12.5057 7.77197 13.1569 7.75869 13.808H1.76885C1.9083 10.5133 3.32275 7.53754 5.54072 5.34319ZM1.76885 14.8759H7.74541C7.79189 17.233 8.11729 19.4209 8.66846 21.3222C7.54619 21.8561 6.49033 22.5333 5.53408 23.3472C3.32275 21.1529 1.9083 18.1707 1.76885 14.8759ZM18.0052 26.7657C18.138 26.6355 18.2708 26.4923 18.4036 26.349C18.4966 26.4271 18.5962 26.4988 18.6958 26.5704C18.4634 26.6355 18.2376 26.7071 18.0052 26.7657ZM18.7622 25.2225C17.7329 24.2133 17.1685 22.8719 17.1685 21.4524C17.1685 20.0264 17.7329 18.6851 18.7622 17.6823C19.7915 16.673 21.1595 16.1196 22.6071 16.1196C24.0614 16.1196 25.4294 16.673 26.452 17.6823C27.4813 18.6916 28.0458 20.0329 28.0458 21.4524C28.0458 22.4942 27.7403 23.497 27.1692 24.35L27.0829 24.4737C26.9833 24.617 26.8837 24.7472 26.7774 24.8709C26.6712 24.9946 26.5649 25.1118 26.452 25.2225C26.3392 25.3332 26.213 25.4439 26.0935 25.5416C25.9673 25.6458 25.8345 25.7434 25.6884 25.8411L25.5622 25.9258C24.6923 26.4792 23.6763 26.7788 22.6071 26.7788C21.1528 26.7853 19.7849 26.2318 18.7622 25.2225ZM26.8239 26.3425C26.9634 26.2253 27.0962 26.1081 27.229 25.9844C27.3552 25.8606 27.4813 25.7304 27.5942 25.5937L28.3778 26.362L27.6075 27.1173L26.8239 26.3425ZM32.9931 31.6363C32.5681 32.053 31.8774 32.053 31.4524 31.6363L27.9927 28.2438L29.5333 26.7332L32.9931 30.1256C33.4181 30.5423 33.4181 31.2195 32.9931 31.6363Z" fill="white"/>
<path d="M25.8808 18.3527C24.1343 16.6402 21.2987 16.6402 19.5522 18.3527L20.3226 19.1081C21.644 17.8123 23.789 17.8123 25.1104 19.1081L25.8808 18.3527Z" fill="#FF3600"/>
</g>
<defs>
<clipPath id="clip0_345_11028">
<rect width="34" height="33.3384" fill="white" transform="translate(0.533691 0.0761719)"/>
</clipPath>
</defs>
</svg>
