<svg width="74" height="75" viewBox="0 0 74 75" fill="none" xmlns="http://www.w3.org/2000/svg">
<g clip-path="url(#clip0_345_10088)">
<path d="M18.3842 35.8811L12.4874 34.6092C10.8686 34.2623 9.36548 35.5342 9.36548 37.1529V39.5811C9.36548 41.5467 10.8686 42.0092 12.7186 42.0092H19.1936C20.4655 42.0092 21.7374 41.7779 21.7374 40.3904V40.0436C21.7374 37.9623 20.3499 36.2279 18.3842 35.8811ZM11.5624 39.5811C11.5624 39.4654 11.5624 39.4654 11.5624 37.0373C11.5624 36.8061 11.7936 36.5748 12.0249 36.6904L17.9217 37.9623C18.7311 38.1936 19.3092 38.8873 19.4249 39.6967C15.378 39.6967 11.9092 39.6967 11.5624 39.5811Z" fill="white"/>
<path d="M70.8779 23.5088L62.5529 19.5775C59.7779 18.3057 56.7716 17.8432 53.881 18.4213L52.6091 15.8775C51.6841 13.565 49.4873 11.9463 46.9435 11.9463H19.8873C17.3435 11.9463 15.1466 13.4494 14.2216 15.7619L9.71226 25.1275C8.67163 23.6244 6.93726 22.6994 5.08726 22.6994H3.12163C1.38726 22.6994 -0.000244141 24.0869 -0.000244141 25.8213V27.0932C-0.000244141 28.8275 1.38726 30.215 3.12163 30.215H6.12788C4.85601 31.8338 4.27788 33.915 4.27788 35.9963V42.9338C4.27788 45.5932 5.20288 48.1369 7.05288 50.3338V55.5369C7.05288 57.8494 8.90288 59.6994 11.2154 59.6994H15.4935C17.806 59.6994 19.656 57.8494 19.656 55.5369V53.4557H42.781C47.8685 60.3932 55.8466 63.3994 55.9623 63.3994C56.1935 63.515 56.4248 63.515 56.7716 63.3994C56.8873 63.2838 73.9998 57.04 73.9998 41.4307V28.4807C73.9998 26.3994 72.7279 24.4338 70.8779 23.5088ZM16.3029 16.6869C16.881 15.1838 18.2685 14.2588 19.8873 14.2588H46.9435C48.5623 14.2588 49.9498 15.1838 50.6435 16.8025L51.6841 18.9994C51.2216 19.115 50.7591 19.3463 50.2966 19.5775L41.9716 23.5088C40.1216 24.4338 38.8498 26.2838 38.8498 28.365H10.5216C10.9841 27.6713 10.5216 28.8275 16.3029 16.6869ZM2.31226 27.0932V25.8213C2.31226 25.3588 2.65913 25.0119 3.12163 25.0119H5.08726C7.39976 25.0119 8.20913 27.0932 8.44038 27.44C8.32476 27.6713 8.20913 27.7869 7.97788 28.0182H3.12163C2.65913 27.9025 2.31226 27.5557 2.31226 27.0932ZM17.3435 55.4213C17.3435 56.4619 16.5341 57.2713 15.4935 57.2713H11.0998C10.0591 57.3869 9.24976 56.4619 9.24976 55.4213V52.0682C10.6373 52.8775 12.256 53.34 13.8748 53.34H17.3435V55.4213ZM13.7591 51.1432C9.59663 51.1432 6.35913 47.0963 6.35913 42.8182V35.8807C6.35913 33.915 7.16851 32.065 8.55601 30.5619H38.8498V40.7369H26.131C25.5529 40.7369 24.9748 41.1994 24.9748 41.8932C24.9748 42.5869 25.4373 43.0494 26.131 43.0494H38.9654C39.081 43.8588 39.081 44.5525 39.3123 45.2463H26.131C25.5529 45.2463 24.9748 45.7088 24.9748 46.4025C24.9748 47.0963 25.4373 47.5588 26.131 47.5588H39.7748C40.2373 48.8307 40.6998 50.1025 41.3935 51.1432H13.7591ZM71.6873 41.4307C71.6873 54.265 58.7373 60.1619 56.4248 61.0869C48.0998 57.7338 41.1623 50.565 41.1623 41.4307C41.1623 37.1525 41.1623 34.84 41.1623 28.4807C41.1623 27.2088 41.856 26.1682 43.0123 25.59L51.3373 21.6588C54.6904 20.04 58.3904 20.04 61.7435 21.6588L70.0685 25.59C71.1091 26.1682 71.9185 27.2088 71.9185 28.4807V41.4307H71.6873Z" fill="white"/>
<path d="M67.7559 28.2494L60.1247 24.665C57.8122 23.5088 54.9215 23.5088 52.609 24.665L45.0934 28.2494C44.7465 28.4807 44.3997 28.8275 44.3997 29.29V41.4307C44.3997 50.565 52.3778 55.5369 55.8465 57.2713C56.1934 57.3869 56.5403 57.3869 56.8872 57.2713C60.3559 55.5369 68.334 50.565 68.334 41.4307V29.29C68.334 28.8275 68.1028 28.4807 67.7559 28.2494ZM66.1372 41.4307C66.1372 48.8307 59.6622 53.2244 56.4247 54.9588C52.609 52.8775 46.7122 48.715 46.7122 41.4307V29.9838L53.6497 26.6307C55.384 25.8213 57.4653 25.8213 59.1997 26.6307L66.1372 29.9838V41.4307Z" fill="white"/>
<path d="M51.9153 41.0841C51.4528 40.7372 50.759 40.8529 50.2965 41.3154C49.834 41.7779 50.0653 42.4716 50.5278 42.9341L54.9215 46.2872C55.384 46.6341 56.0778 46.5185 56.5403 46.056L63.0153 37.6154C63.3622 37.1529 63.2465 36.4591 62.784 35.9966C62.3215 35.6497 61.6278 35.7654 61.1653 36.2279L55.384 43.7435L51.9153 41.0841Z" fill="#FF3600"/>
</g>
<defs>
<clipPath id="clip0_345_10088">
<rect width="74" height="74" fill="white" transform="translate(-0.000244141 0.730469)"/>
</clipPath>
</defs>
</svg>
