<svg width="31" height="31" viewBox="0 0 31 31" fill="none" xmlns="http://www.w3.org/2000/svg">
<path d="M7.39014 14.1846H12.3893V15.0178H7.39014V14.1846Z" fill="white"/>
<path d="M7.39014 15.8516H12.3893V16.6847H7.39014V15.8516Z" fill="white"/>
<path d="M7.39014 17.5176H12.3893V18.3508H7.39014V17.5176Z" fill="white"/>
<path d="M5.72412 14.1846H6.55731V15.0178H5.72412V14.1846Z" fill="white"/>
<path d="M5.72412 15.8516H6.55731V16.6847H5.72412V15.8516Z" fill="white"/>
<path d="M5.72412 17.5176H6.55731V18.3508H5.72412V17.5176Z" fill="white"/>
<path d="M18.2217 19.9302V5.85308C18.2217 5.19015 17.9584 4.55438 17.4896 4.08562C17.0209 3.61686 16.3851 3.35352 15.7222 3.35352C15.0593 3.35352 14.4235 3.61686 13.9547 4.08562C13.486 4.55438 13.2226 5.19015 13.2226 5.85308V19.9302C12.3946 20.469 11.763 21.261 11.4217 22.188C11.0805 23.1151 11.048 24.1276 11.329 25.0746C11.61 26.0217 12.1896 26.8526 12.9812 27.4434C13.7729 28.0343 14.7343 28.3535 15.7222 28.3535C16.71 28.3535 17.6715 28.0343 18.4631 27.4434C19.2548 26.8526 19.8343 26.0217 20.1154 25.0746C20.3964 24.1276 20.3639 23.1151 20.0226 22.188C19.6814 21.261 19.0497 20.469 18.2217 19.9302ZM15.7222 27.5159C14.8969 27.5167 14.0944 27.2449 13.4394 26.7428C12.7844 26.2408 12.3134 25.5365 12.0997 24.7393C11.886 23.9421 11.9415 23.0967 12.2575 22.3343C12.5736 21.5719 13.1325 20.9352 13.8475 20.523C13.9108 20.4865 13.9633 20.4339 13.9999 20.3707C14.0364 20.3075 14.0557 20.2357 14.0558 20.1626V5.85308C14.0558 5.41113 14.2314 4.98728 14.5439 4.67477C14.8564 4.36227 15.2802 4.1867 15.7222 4.1867C16.1641 4.1867 16.588 4.36227 16.9005 4.67477C17.213 4.98728 17.3886 5.41113 17.3886 5.85308V20.1626C17.3886 20.2357 17.4079 20.3075 17.4445 20.3707C17.481 20.4339 17.5336 20.4865 17.5968 20.523C18.3119 20.9352 18.8708 21.5719 19.1868 22.3343C19.5029 23.0967 19.5583 23.9421 19.3446 24.7393C19.1309 25.5365 18.66 26.2408 18.005 26.7428C17.35 27.2449 16.5475 27.5167 15.7222 27.5159Z" fill="white"/>
<path d="M16.1387 21.7252V8.35254H15.3055V21.7252C14.7998 21.8284 14.3504 22.1158 14.0444 22.5315C13.7385 22.9473 13.5978 23.4619 13.6497 23.9754C13.7016 24.489 13.9423 24.965 14.3252 25.3112C14.7081 25.6574 15.2059 25.849 15.7221 25.849C16.2383 25.849 16.7361 25.6574 17.119 25.3112C17.5019 24.965 17.7427 24.489 17.7946 23.9754C17.8464 23.4619 17.7058 22.9473 17.3998 22.5315C17.0939 22.1158 16.6445 21.8284 16.1387 21.7252ZM15.7221 25.0163C15.4749 25.0163 15.2333 24.943 15.0278 24.8057C14.8223 24.6683 14.6621 24.4731 14.5675 24.2448C14.4729 24.0164 14.4481 23.7651 14.4964 23.5227C14.5446 23.2802 14.6636 23.0576 14.8384 22.8828C15.0132 22.708 15.2359 22.589 15.4783 22.5407C15.7207 22.4925 15.972 22.5173 16.2004 22.6119C16.4288 22.7064 16.624 22.8666 16.7613 23.0722C16.8986 23.2777 16.9719 23.5193 16.9719 23.7665C16.9719 24.098 16.8402 24.4158 16.6059 24.6502C16.3715 24.8846 16.0536 25.0163 15.7221 25.0163Z" fill="#FF3600"/>
<path d="M7.39013 11.6854H8.22331V10.7972L8.82529 11.1988L9.28771 10.5056L8.22331 9.79613V8.24099L9.57016 9.01877L9.65223 10.2948L10.4837 10.2415L10.4371 9.51952L11.2061 9.96319L11.6227 9.24165L10.8541 8.79756L11.5023 8.47678L11.1328 7.72983L9.98675 8.29681L8.63991 7.51945L9.98675 6.74209L11.1328 7.30907L11.5023 6.56212L10.8541 6.24134L11.6227 5.79725L11.2061 5.07571L10.4371 5.51939L10.4837 4.79743L9.65223 4.7441L9.57016 6.02013L8.22331 6.79791V5.24277L9.28771 4.53331L8.82529 3.8401L8.22331 4.24169V3.35352H7.39013V4.24169L6.78815 3.8401L6.32573 4.53331L7.39013 5.24277V6.79791L6.04328 6.02013L5.96121 4.7441L5.12969 4.79743L5.17635 5.51939L4.40732 5.07571L3.99072 5.79725L4.75934 6.24134L4.11112 6.56212L4.48064 7.30907L5.62669 6.74209L6.97353 7.51945L5.62669 8.29681L4.48064 7.72983L4.11112 8.47678L4.75934 8.79756L3.99072 9.24165L4.40732 9.96319L5.17635 9.51952L5.12969 10.2415L5.96121 10.2948L6.04328 9.01877L7.39013 8.24099V9.79613L6.32573 10.5056L6.78815 11.1988L7.39013 10.7972V11.6854Z" fill="white"/>
<path d="M23.6372 13.3519C23.6372 12.91 23.4617 12.4861 23.1491 12.1736C22.8366 11.8611 22.4128 11.6855 21.9708 11.6855C21.5289 11.6855 21.105 11.8611 20.7925 12.1736C20.48 12.4861 20.3045 12.91 20.3045 13.3519H21.1377C21.1377 13.1871 21.1865 13.026 21.2781 12.889C21.3696 12.752 21.4998 12.6452 21.652 12.5822C21.8042 12.5191 21.9718 12.5026 22.1334 12.5347C22.295 12.5669 22.4435 12.6462 22.56 12.7628C22.6765 12.8793 22.7559 13.0278 22.788 13.1894C22.8202 13.351 22.8037 13.5185 22.7406 13.6708C22.6775 13.823 22.5708 13.9531 22.4337 14.0447C22.2967 14.1362 22.1356 14.1851 21.9708 14.1851H19.0547V15.0183H21.9708C22.4128 15.0183 22.8366 14.8427 23.1491 14.5302C23.4617 14.2177 23.6372 13.7939 23.6372 13.3519Z" fill="white"/>
<path d="M26.1368 13.3516C25.6948 13.3516 25.271 13.5271 24.9585 13.8396C24.646 14.1521 24.4704 14.576 24.4704 15.0179H25.3036C25.3036 14.8531 25.3525 14.6921 25.444 14.555C25.5356 14.418 25.6657 14.3112 25.8179 14.2482C25.9702 14.1851 26.1377 14.1686 26.2993 14.2008C26.4609 14.2329 26.6094 14.3123 26.7259 14.4288C26.8425 14.5453 26.9218 14.6938 26.954 14.8554C26.9861 15.017 26.9696 15.1845 26.9065 15.3368C26.8435 15.489 26.7367 15.6192 26.5997 15.7107C26.4627 15.8023 26.3016 15.8511 26.1368 15.8511H19.0547V16.6843H26.1368C26.5787 16.6843 27.0026 16.5087 27.3151 16.1962C27.6276 15.8837 27.8032 15.4599 27.8032 15.0179C27.8032 14.576 27.6276 14.1521 27.3151 13.8396C27.0026 13.5271 26.5787 13.3516 26.1368 13.3516Z" fill="white"/>
<path d="M24.4704 17.5176H19.0547V18.3508H24.4704C24.6352 18.3508 24.7963 18.3996 24.9333 18.4912C25.0703 18.5827 25.1771 18.7129 25.2402 18.8651C25.3032 19.0174 25.3197 19.1849 25.2876 19.3465C25.2554 19.5081 25.1761 19.6566 25.0596 19.7731C24.943 19.8896 24.7946 19.969 24.6329 20.0011C24.4713 20.0333 24.3038 20.0168 24.1516 19.9537C23.9993 19.8907 23.8692 19.7839 23.7776 19.6468C23.6861 19.5098 23.6372 19.3487 23.6372 19.184H22.804C22.804 19.5135 22.9018 19.8357 23.0849 20.1097C23.268 20.3838 23.5282 20.5974 23.8327 20.7235C24.1372 20.8496 24.4723 20.8826 24.7955 20.8183C25.1187 20.754 25.4157 20.5953 25.6487 20.3623C25.8818 20.1292 26.0405 19.8323 26.1048 19.509C26.1691 19.1858 26.1361 18.8507 26.0099 18.5463C25.8838 18.2418 25.6702 17.9815 25.3962 17.7984C25.1222 17.6153 24.8 17.5176 24.4704 17.5176Z" fill="white"/>
</svg>
