<svg width="31" height="31" viewBox="0 0 31 31" fill="none" xmlns="http://www.w3.org/2000/svg">
<path d="M24.4752 21.1524L23.4051 20.2782L22.1184 16.073C22.0578 15.8777 21.9482 15.7011 21.8 15.5601C21.6518 15.4192 21.4699 15.3186 21.2718 15.2679C19.5113 14.8491 17.7066 14.6449 15.8971 14.66C14.0876 14.6449 12.2829 14.8491 10.5224 15.2679C10.324 15.3184 10.1419 15.4191 9.99349 15.5602C9.84513 15.7014 9.73552 15.8783 9.67516 16.0739L8.38844 20.2791L7.31899 21.1524C7.09252 21.3369 6.91007 21.5696 6.78494 21.8335C6.65982 22.0975 6.59517 22.386 6.59571 22.6782V25.841C6.5964 26.1222 6.69667 26.394 6.87872 26.6082C7.06076 26.8224 7.31282 26.9652 7.59016 27.0113V28.5886C7.59041 28.863 7.69951 29.126 7.89351 29.32C8.08751 29.514 8.35056 29.6231 8.62493 29.6234H10.4577C10.7321 29.6231 10.9952 29.514 11.1892 29.32C11.3832 29.126 11.4923 28.863 11.4925 28.5886V27.0312H20.3034V28.5884C20.3037 28.8628 20.4128 29.1259 20.6069 29.3199C20.8009 29.5139 21.064 29.6231 21.3384 29.6234H23.1707C23.4451 29.6231 23.7082 29.5139 23.9022 29.3199C24.0963 29.1259 24.2054 28.8628 24.2057 28.5884V27.0113C24.483 26.9652 24.7351 26.8224 24.9172 26.6082C25.0992 26.394 25.1995 26.1222 25.2002 25.841V22.6782C25.2005 22.3859 25.1356 22.0973 25.0102 21.8333C24.8848 21.5693 24.702 21.3367 24.4752 21.1524ZM10.6706 28.5886C10.6706 28.6455 10.648 28.7 10.6077 28.7403C10.5675 28.7805 10.513 28.8031 10.4561 28.8031H8.62328C8.56641 28.8031 8.51186 28.7805 8.47164 28.7403C8.43143 28.7 8.40883 28.6455 8.40883 28.5886V27.0312H10.6706V28.5886ZM23.1693 28.8031H21.3377C21.2807 28.803 21.2262 28.7804 21.1859 28.7401C21.1457 28.6999 21.123 28.6453 21.123 28.5884V27.0312H23.3847V28.5884C23.3846 28.6453 23.362 28.6999 23.3217 28.7401C23.2815 28.7804 23.2269 28.803 23.17 28.8031H23.1693ZM24.3784 25.841C24.3783 25.9391 24.3393 26.0331 24.27 26.1024C24.2006 26.1718 24.1066 26.2108 24.0086 26.2109H7.78493C7.68687 26.2108 7.59288 26.1718 7.52354 26.1024C7.45421 26.0331 7.41521 25.9391 7.41508 25.841V22.6782C7.41467 22.5077 7.45233 22.3392 7.52531 22.1851C7.5983 22.0311 7.70477 21.8952 7.83696 21.7875L9.00368 20.8346C9.06637 20.7831 9.11251 20.7143 9.13633 20.6368L10.4596 16.3128C10.4779 16.2518 10.5118 16.1966 10.558 16.1527C10.6041 16.1088 10.661 16.0777 10.7228 16.0625C12.4177 15.6601 14.1552 15.4646 15.8971 15.4803C17.639 15.4646 19.3763 15.6601 21.0712 16.0625C21.1331 16.0776 21.19 16.1087 21.2362 16.1527C21.2824 16.1966 21.3163 16.2519 21.3346 16.313L22.6579 20.637C22.6817 20.7145 22.7279 20.7833 22.7906 20.8348L23.9573 21.7875C24.0894 21.8953 24.1959 22.0311 24.2688 22.1852C24.3418 22.3392 24.3795 22.5077 24.3791 22.6782L24.3784 25.841Z" fill="white"/>
<path d="M10.2937 20.8099C12.1524 21.0386 14.0243 21.143 15.8969 21.1224C17.7695 21.143 19.6414 21.0386 21.5001 20.8099C21.5591 20.8019 21.6156 20.7811 21.6657 20.7491C21.7158 20.717 21.7584 20.6744 21.7904 20.6243C21.8225 20.5741 21.8432 20.5176 21.8513 20.4587C21.8593 20.3997 21.8544 20.3397 21.8369 20.2828L20.8043 16.9078C20.783 16.8381 20.7436 16.7753 20.69 16.7259C20.6365 16.6765 20.5708 16.6422 20.4996 16.6266C18.9862 16.3085 17.4433 16.1526 15.8969 16.1616C14.3505 16.1516 12.8074 16.3075 11.2943 16.6266C11.2231 16.6422 11.1574 16.6765 11.1038 16.726C11.0503 16.7754 11.0109 16.8381 10.9896 16.9078L9.95691 20.2828C9.93952 20.3397 9.93469 20.3996 9.94276 20.4585C9.95082 20.5174 9.97159 20.5738 10.0036 20.6239C10.0357 20.674 10.0782 20.7165 10.1283 20.7485C10.1784 20.7805 10.2348 20.8012 10.2937 20.8092V20.8099ZM11.7039 17.3787C13.0849 17.107 14.4895 16.9741 15.8969 16.9819C17.3046 16.9752 18.7095 17.1087 20.0908 17.3803L20.9097 20.0571C19.2448 20.2335 17.5711 20.3153 15.8969 20.3021C14.2227 20.3154 12.5491 20.2338 10.8841 20.0576L11.7039 17.3787Z" fill="white"/>
<path d="M17.6504 23.0596H14.1432C14.0275 23.0595 13.9133 23.0852 13.8088 23.1348C13.7042 23.1844 13.6121 23.2567 13.539 23.3464C13.4659 23.436 13.4137 23.5408 13.3862 23.6532C13.3586 23.7655 13.3565 23.8826 13.3798 23.9959L13.6039 25.0857C13.6404 25.2613 13.7362 25.419 13.8752 25.5324C14.0141 25.6457 14.1879 25.7078 14.3672 25.7082H17.4263C17.6056 25.7078 17.7794 25.6457 17.9184 25.5324C18.0574 25.419 18.1531 25.2613 18.1897 25.0857L18.4137 23.9959C18.4371 23.8826 18.4349 23.7655 18.4074 23.6532C18.3798 23.5408 18.3276 23.436 18.2545 23.3464C18.1814 23.2567 18.0893 23.1844 17.9848 23.1348C17.8803 23.0852 17.766 23.0595 17.6504 23.0596ZM14.1931 23.8799H15.4866V24.8877H14.4005L14.1931 23.8799ZM17.393 24.8877H16.3069V23.8799H17.6004L17.393 24.8877Z" fill="#FF3600"/>
<path d="M23.3766 23.0905C23.2246 22.9739 23.0475 22.8944 22.8593 22.8582C22.6712 22.822 22.4773 22.8301 22.2928 22.8819L20.8109 23.2927C20.5977 23.3524 20.4099 23.48 20.2759 23.6562C20.142 23.8324 20.0693 24.0476 20.0688 24.2689V24.6716C20.0692 24.9402 20.176 25.1977 20.366 25.3876C20.5559 25.5775 20.8134 25.6843 21.0821 25.6845H22.8539C23.1223 25.6839 23.3794 25.5769 23.569 25.387C23.7587 25.1972 23.8654 24.9399 23.8657 24.6716V24.0786C23.8665 23.8872 23.8228 23.6983 23.7378 23.5268C23.6529 23.3553 23.5293 23.2059 23.3766 23.0905ZM23.0461 24.6716C23.0461 24.7227 23.0257 24.7717 22.9895 24.8078C22.9534 24.8439 22.9043 24.8642 22.8532 24.8642H21.0813C21.0302 24.8642 20.9812 24.8439 20.945 24.8078C20.9089 24.7717 20.8885 24.7227 20.8885 24.6716V24.2689C20.8885 24.2269 20.9023 24.186 20.9276 24.1525C20.953 24.119 20.9886 24.0947 21.0291 24.0833L22.5113 23.6724C22.5483 23.6622 22.5865 23.657 22.6249 23.657C22.7366 23.6573 22.8435 23.7019 22.9223 23.781C23.0012 23.8601 23.0454 23.9672 23.0454 24.0788L23.0461 24.6716Z" fill="white"/>
<path d="M10.9833 23.2925L9.50088 22.8817C9.31651 22.8308 9.12288 22.8232 8.93508 22.8594C8.74729 22.8956 8.57039 22.9748 8.41819 23.0906C8.26598 23.2064 8.14258 23.3558 8.05759 23.5271C7.9726 23.6985 7.92833 23.8871 7.92822 24.0784V24.6714C7.92853 24.94 8.03539 25.1975 8.22534 25.3874C8.41529 25.5773 8.67282 25.6841 8.94143 25.6843H10.7133C10.9819 25.6841 11.2394 25.5773 11.4294 25.3874C11.6193 25.1975 11.7262 24.94 11.7265 24.6714V24.2687C11.726 24.0472 11.6531 23.832 11.5189 23.6557C11.3848 23.4795 11.1967 23.352 10.9833 23.2925ZM10.9055 24.6714C10.9054 24.7225 10.8851 24.7715 10.8489 24.8076C10.8127 24.8437 10.7637 24.864 10.7126 24.864H8.94072C8.88961 24.864 8.84058 24.8437 8.80441 24.8076C8.76824 24.7715 8.74789 24.7225 8.74783 24.6714V24.0784C8.74783 23.9668 8.79209 23.8597 8.8709 23.7806C8.94971 23.7015 9.05666 23.6569 9.1683 23.6565C9.20664 23.6566 9.24479 23.6618 9.28174 23.672L10.7642 24.0831C10.8046 24.0945 10.8402 24.1188 10.8656 24.1523C10.891 24.1858 10.9047 24.2267 10.9048 24.2687L10.9055 24.6714Z" fill="white"/>
<path d="M22.2535 2.08398C20.9804 2.08837 19.758 2.58356 18.8409 3.46647C17.9237 4.34938 17.3823 5.55199 17.3295 6.82398C17.2766 8.09597 17.7163 9.33935 18.5571 10.2953C19.3979 11.2512 20.575 11.8461 21.8433 11.9561V13.8902C21.8433 13.9989 21.8865 14.1033 21.9634 14.1802C22.0404 14.2571 22.1447 14.3003 22.2535 14.3003C22.3622 14.3003 22.4666 14.2571 22.5435 14.1802C22.6204 14.1033 22.6636 13.9989 22.6636 13.8902V11.9561C23.932 11.8461 25.109 11.2512 25.9498 10.2953C26.7906 9.33935 27.2303 8.09597 27.1775 6.82398C27.1246 5.55199 26.5833 4.34938 25.6661 3.46647C24.7489 2.58356 23.5266 2.08837 22.2535 2.08398ZM22.2535 7.62859C21.9954 7.62864 21.743 7.55214 21.5284 7.40878C21.3137 7.26541 21.1464 7.06161 21.0476 6.82316C20.9488 6.5847 20.923 6.3223 20.9733 6.06914C21.0236 5.81598 21.1479 5.58343 21.3304 5.4009C21.5129 5.21837 21.7454 5.09406 21.9986 5.04369C22.2517 4.99331 22.5141 5.01914 22.7526 5.11791C22.9911 5.21667 23.1949 5.38394 23.3383 5.59855C23.4817 5.81316 23.5582 6.06548 23.5582 6.32359C23.5579 6.66955 23.4203 7.00123 23.1757 7.24587C22.9311 7.49052 22.5994 7.62816 22.2535 7.62859ZM21.4097 8.27289C21.6759 8.38878 21.9631 8.44859 22.2535 8.44859C22.5438 8.44859 22.831 8.38878 23.0972 8.27289L24.395 8.56C24.5312 8.59096 24.653 8.66714 24.7404 8.77613C24.8279 8.88512 24.8759 9.0205 24.8766 9.16023V10.2123C24.1384 10.8225 23.2107 11.1563 22.253 11.1563C21.2953 11.1563 20.3676 10.8225 19.6294 10.2123V9.16C19.6287 9.01989 19.6762 8.8838 19.7639 8.77453C19.8515 8.66525 19.9741 8.58943 20.111 8.55977L21.4097 8.27289ZM25.6988 9.29711V9.16047C25.7004 8.83332 25.5895 8.51556 25.3847 8.26047C25.1799 8.00538 24.8936 7.82846 24.5738 7.75937L23.936 7.61875C24.179 7.30442 24.329 6.92829 24.3689 6.53304C24.4089 6.13778 24.3373 5.73924 24.1622 5.38263C23.9871 5.02603 23.7156 4.72564 23.3784 4.51556C23.0412 4.30548 22.6519 4.19412 22.2546 4.19412C21.8574 4.19412 21.4681 4.30548 21.1309 4.51556C20.7937 4.72564 20.5222 5.02603 20.3471 5.38263C20.172 5.73924 20.1004 6.13778 20.1403 6.53304C20.1803 6.92829 20.3303 7.30442 20.5732 7.61875L19.9355 7.75937C19.6157 7.82842 19.3294 8.00532 19.1245 8.26043C18.9197 8.51553 18.8088 8.83331 18.8105 9.16047V9.29758C18.4 8.67558 18.1656 7.95401 18.1321 7.2095C18.0987 6.46499 18.2676 5.72533 18.6208 5.06906C18.9739 4.4128 19.4982 3.86443 20.138 3.4822C20.7778 3.09996 21.5091 2.89813 22.2544 2.89813C22.9997 2.89813 23.731 3.09996 24.3708 3.4822C25.0106 3.86443 25.5349 4.4128 25.8881 5.06906C26.2412 5.72533 26.4101 6.46499 26.3767 7.2095C26.3433 7.95401 26.1088 8.67558 25.6983 9.29758L25.6988 9.29711Z" fill="white"/>
<path d="M9.13008 13.8901C9.13008 13.9989 9.1733 14.1032 9.25021 14.1801C9.32713 14.257 9.43146 14.3002 9.54024 14.3002C9.64902 14.3002 9.75334 14.257 9.83026 14.1801C9.90718 14.1032 9.95039 13.9989 9.95039 13.8901V11.956C11.2224 11.8502 12.4042 11.2568 13.2488 10.2999C14.0934 9.34293 14.5354 8.09656 14.4825 6.82131C14.4295 5.54605 13.8856 4.34063 12.9646 3.45704C12.0435 2.57344 10.8166 2.08008 9.54024 2.08008C8.26389 2.08008 7.03694 2.57344 6.11588 3.45704C5.19483 4.34063 4.65098 5.54605 4.59801 6.82131C4.54505 8.09656 4.98708 9.34293 5.8317 10.2999C6.67631 11.2568 7.85812 11.8502 9.13008 11.956V13.8901ZM9.54024 7.62851C9.28212 7.62856 9.02979 7.55206 8.81516 7.40869C8.60052 7.26533 8.43322 7.06153 8.33441 6.82308C8.2356 6.58462 8.20972 6.32222 8.26005 6.06906C8.31038 5.8159 8.43465 5.58335 8.61715 5.40082C8.79964 5.21829 9.03217 5.09398 9.28533 5.04361C9.53848 4.99323 9.80088 5.01906 10.0394 5.11783C10.2778 5.21659 10.4816 5.38386 10.6251 5.59847C10.7685 5.81308 10.845 6.0654 10.845 6.32351C10.8446 6.66945 10.707 7.00109 10.4624 7.24572C10.2178 7.49036 9.88617 7.62802 9.54024 7.62851ZM8.69649 8.27304C8.96269 8.38893 9.24991 8.44874 9.54024 8.44874C9.83057 8.44874 10.1178 8.38893 10.384 8.27304L11.6817 8.56039C11.8187 8.59005 11.9412 8.66587 12.0289 8.77515C12.1166 8.88443 12.1641 9.02052 12.1634 9.16062V10.213C11.4252 10.8231 10.4975 11.1569 9.53977 11.1569C8.58208 11.1569 7.65434 10.8231 6.91618 10.213V9.16039C6.91688 9.02065 6.96487 8.88527 7.05233 8.77628C7.13978 8.66729 7.26155 8.59112 7.39782 8.56015L8.69649 8.27304ZM5.41524 7.03086C5.41443 6.38735 5.56415 5.75258 5.85243 5.17726C6.14071 4.60194 6.55956 4.10202 7.0755 3.71744C7.59145 3.33287 8.1902 3.0743 8.8239 2.9624C9.4576 2.8505 10.1087 2.88837 10.7251 3.07298C11.3416 3.25759 11.9063 3.58383 12.3742 4.02562C12.8421 4.46742 13.2002 5.01253 13.4198 5.61739C13.6394 6.22225 13.7146 6.8701 13.6392 7.50918C13.5638 8.14825 13.3399 8.76083 12.9856 9.29797V9.16086C12.9872 8.8337 12.8763 8.51592 12.6715 8.26082C12.4667 8.00571 12.1803 7.8288 11.8606 7.75976L11.2231 7.61914C11.4661 7.30479 11.6161 6.92861 11.6561 6.53329C11.6962 6.13797 11.6246 5.73935 11.4495 5.38267C11.2744 5.02599 11.0028 4.72553 10.6656 4.51541C10.3284 4.30528 9.93898 4.19389 9.54164 4.19389C9.14431 4.19389 8.75492 4.30528 8.41769 4.51541C8.08046 4.72553 7.80889 5.02599 7.6338 5.38267C7.45871 5.73935 7.38712 6.13797 7.42714 6.53329C7.46717 6.92861 7.61721 7.30479 7.86024 7.61914L7.2225 7.75976C6.90273 7.82884 6.61643 8.00576 6.4116 8.26086C6.20678 8.51595 6.09588 8.83371 6.0975 9.16086V9.2975C5.65164 8.62548 5.4139 7.83687 5.41407 7.03039L5.41524 7.03086Z" fill="white"/>
</svg>
