<svg width="24" height="25" viewBox="0 0 24 25" fill="none" xmlns="http://www.w3.org/2000/svg">
<path d="M19.5029 3.15039H18.0029C18.0029 2.32339 17.3299 1.65039 16.5029 1.65039C15.6759 1.65039 15.0029 2.32339 15.0029 3.15039H9.00293C9.00293 2.32339 8.32993 1.65039 7.50293 1.65039C6.67593 1.65039 6.00293 2.32339 6.00293 3.15039H4.50293C3.12443 3.15039 2.00293 4.27189 2.00293 5.65039V20.1504C2.00293 21.5289 3.12443 22.6504 4.50293 22.6504H19.5029C20.8814 22.6504 22.0029 21.5289 22.0029 20.1504V5.65039C22.0029 4.27189 20.8814 3.15039 19.5029 3.15039ZM16.0029 3.15039C16.0029 2.87489 16.2269 2.65039 16.5029 2.65039C16.7789 2.65039 17.0029 2.87489 17.0029 3.15039V4.15039C17.0029 4.42589 16.7789 4.65039 16.5029 4.65039C16.2269 4.65039 16.0029 4.42589 16.0029 4.15039V3.15039ZM7.00293 3.15039C7.00293 2.87489 7.22693 2.65039 7.50293 2.65039C7.77893 2.65039 8.00293 2.87489 8.00293 3.15039V4.15039C8.00293 4.42589 7.77893 4.65039 7.50293 4.65039C7.22693 4.65039 7.00293 4.42589 7.00293 4.15039V3.15039ZM3.00293 5.65039C3.00293 4.82339 3.67593 4.15039 4.50293 4.15039H6.00293C6.00293 4.97739 6.67593 5.65039 7.50293 5.65039C8.32993 5.65039 9.00293 4.97739 9.00293 4.15039H15.0029C15.0029 4.97739 15.6759 5.65039 16.5029 5.65039C17.3299 5.65039 18.0029 4.97739 18.0029 4.15039H19.5029C20.3299 4.15039 21.0029 4.82339 21.0029 5.65039V7.65039H3.00293V5.65039ZM21.0029 20.1504C21.0029 20.9774 20.3299 21.6504 19.5029 21.6504H4.50293C3.67593 21.6504 3.00293 20.9774 3.00293 20.1504V8.65039H21.0029V20.1504Z" fill="white"/>
<path d="M6.00293 14.1504H7.50293C8.05443 14.1504 8.50293 13.7019 8.50293 13.1504V11.6504C8.50293 11.0989 8.05443 10.6504 7.50293 10.6504H6.00293C5.45143 10.6504 5.00293 11.0989 5.00293 11.6504V13.1504C5.00293 13.7019 5.45143 14.1504 6.00293 14.1504ZM6.00293 11.6504H7.50293L7.50393 13.1504H6.00293V11.6504Z" fill="white"/>
<path d="M11.2529 14.1504H12.7529C13.3044 14.1504 13.7529 13.7019 13.7529 13.1504V11.6504C13.7529 11.0989 13.3044 10.6504 12.7529 10.6504H11.2529C10.7014 10.6504 10.2529 11.0989 10.2529 11.6504V13.1504C10.2529 13.7019 10.7014 14.1504 11.2529 14.1504ZM11.2529 11.6504H12.7529L12.7539 13.1504H11.2529V11.6504Z" fill="white"/>
<path d="M16.5029 14.1504H18.0029C18.5544 14.1504 19.0029 13.7019 19.0029 13.1504V11.6504C19.0029 11.0989 18.5544 10.6504 18.0029 10.6504H16.5029C15.9514 10.6504 15.5029 11.0989 15.5029 11.6504V13.1504C15.5029 13.7019 15.9514 14.1504 16.5029 14.1504ZM16.5029 11.6504H18.0029L18.0039 13.1504H16.5029V11.6504Z" fill="white"/>
<path d="M6.00293 19.6504H7.50293C8.05443 19.6504 8.50293 19.2019 8.50293 18.6504V17.1504C8.50293 16.5989 8.05443 16.1504 7.50293 16.1504H6.00293C5.45143 16.1504 5.00293 16.5989 5.00293 17.1504V18.6504C5.00293 19.2019 5.45143 19.6504 6.00293 19.6504ZM6.00293 17.1504H7.50293L7.50393 18.6504H6.00293V17.1504Z" fill="white"/>
<path d="M11.2529 19.6504H12.7529C13.3044 19.6504 13.7529 19.2019 13.7529 18.6504V17.1504C13.7529 16.5989 13.3044 16.1504 12.7529 16.1504H11.2529C10.7014 16.1504 10.2529 16.5989 10.2529 17.1504V18.6504C10.2529 19.2019 10.7014 19.6504 11.2529 19.6504ZM11.2529 17.1504H12.7529L12.7539 18.6504H11.2529V17.1504Z" fill="white"/>
<path d="M16.5029 19.6504H18.0029C18.5544 19.6504 19.0029 19.2019 19.0029 18.6504V17.1504C19.0029 16.5989 18.5544 16.1504 18.0029 16.1504H16.5029C15.9514 16.1504 15.5029 16.5989 15.5029 17.1504V18.6504C15.5029 19.2019 15.9514 19.6504 16.5029 19.6504ZM16.5029 17.1504H18.0029L18.0039 18.6504H16.5029V17.1504Z" fill="white"/>
</svg>
