<svg width="66" height="66" viewBox="0 0 66 66" fill="none" xmlns="http://www.w3.org/2000/svg">
<g clip-path="url(#clip0_345_10077)">
<path d="M16.1922 61.5541H21.9137C25.2305 61.5541 25.2354 56.4648 21.9137 56.4648H16.1922C12.8756 56.4648 12.8707 61.5541 16.1922 61.5541ZM16.1922 58.3691H21.9137C22.7542 58.3691 22.7542 59.6498 21.9137 59.6498H16.1922C15.3518 59.6498 15.3518 58.3691 16.1922 58.3691Z" fill="#FF3600"/>
<path d="M23.2926 33.0334L16.9944 39.2363L14.8132 37.088C13.929 36.2179 12.562 37.564 13.4459 38.4346L16.3108 41.2562C16.7666 41.6279 17.2224 41.6279 17.6781 41.2562L24.6601 34.38C25.5438 33.5094 24.1768 32.1633 23.2926 33.0334Z" fill="#FF3600"/>
<path d="M65.2824 42.4292C64.8921 41.6954 64.6093 40.8915 64.4172 40.0847C63.4744 36.2007 62.042 32.4378 60.1603 28.9004L57.0141 22.9862C55.2332 19.6379 49.977 20.1946 48.9847 23.867C46.631 23.033 43.974 24.4037 43.3303 26.7844C41.3845 26.0948 39.1375 26.907 38.1059 28.6695V7.76171V4.02675C38.1058 1.97557 36.4113 0.306641 34.3283 0.306641H11.8058C10.5558 0.306641 10.5558 2.21094 11.8058 2.21094H34.3283C35.345 2.21094 36.1722 3.02547 36.1722 4.02675V6.80956H1.93506V4.02675C1.93506 3.02547 2.76212 2.21094 3.7788 2.21094H6.39186C7.64187 2.21094 7.64187 0.306641 6.39186 0.306641H3.7788C1.69607 0.306641 0.00146484 1.97557 0.00146484 4.02675V7.76171V53.6534V61.5865C0.00146484 63.6377 1.69607 65.3066 3.7788 65.3066H34.3283C36.4112 65.3066 38.1058 63.6377 38.1058 61.5865V53.6534V49.8396L41.5606 51.5225C42.4143 51.9384 43.116 52.6307 43.5365 53.4725C45.0712 56.5441 49.0049 57.8176 52.0948 56.2231L57.855 53.2512C58.9623 52.6799 58.065 50.9932 56.9577 51.5643L51.1975 54.5363C49.0579 55.6408 46.338 54.7661 45.2714 52.6316C44.6641 51.4163 43.6508 50.4162 42.4178 49.8154L27.7569 42.6736C25.0033 41.3564 26.9947 37.1021 29.7912 38.3866L35.1145 41.1464C35.9358 41.5722 36.8519 40.6719 36.4212 39.8622L27.1736 22.4782C25.6551 19.6667 29.7217 17.0716 31.2728 19.9879L37.8094 32.2755L39.5168 35.4851C40.0804 36.545 41.8081 35.6891 41.2296 34.6014L39.5673 31.4767C38.8942 29.2676 41.6635 27.4864 43.4458 29.0265L45.2955 32.5035C45.8591 33.5634 47.5868 32.7075 47.0083 31.6198L45.1275 28.0844C44.9516 26.0532 47.4771 24.7461 49.0736 26.0859L50.9353 29.5857C51.4989 30.6456 53.2266 29.7897 52.6481 28.702L50.786 25.2016C50.5327 22.7089 54.095 21.6023 55.3011 23.8698L58.4473 29.784C60.2548 33.1819 61.6306 36.7965 62.5365 40.527C62.7563 41.4948 63.1021 42.434 63.5695 43.3126C64.6835 45.4066 63.8598 48.0027 61.7338 49.0998C60.6266 49.6713 61.524 51.358 62.6311 50.7866C65.7018 49.2024 66.8912 45.4532 65.2824 42.4292ZM36.1722 61.5865C36.1722 62.5878 35.345 63.4023 34.3283 63.4023H3.7788C2.76212 63.4023 1.93506 62.5878 1.93506 61.5865V54.6055H36.1722V61.5865ZM24.86 38.6968C24.2037 40.0554 24.3312 41.6827 25.1864 42.9287C23.5876 44.5765 21.3941 45.5102 19.0535 45.5102C14.3701 45.5102 10.5599 41.7577 10.5599 37.1453C10.5599 32.5328 14.3701 28.7803 19.0535 28.7803C23.4973 28.7803 27.1526 32.1593 27.5151 36.4451C26.37 36.7892 25.3747 37.6309 24.86 38.6968ZM31.8797 17.7708C31.4582 17.4338 30.9718 17.1745 30.4379 17.0102C27.3411 16.0572 24.2222 18.854 24.9038 21.9773H6.54964C6.37188 21.9773 6.22738 21.835 6.22738 21.6599V14.8555C6.22738 14.6804 6.37188 14.5381 6.54964 14.5381H31.5575C31.7352 14.5381 31.8797 14.6804 31.8797 14.8555V17.7708ZM36.1722 25.0945L33.8133 20.6604V14.8555C33.8133 13.6305 32.8013 12.6338 31.5575 12.6338H6.54964C5.30583 12.6338 4.29379 13.6305 4.29379 14.8555V21.66C4.29379 22.885 5.30583 23.8817 6.54964 23.8817H25.7371L33.2674 38.0371L30.673 36.692C30.6616 36.6861 30.6498 36.6802 30.6381 36.6748C30.254 36.4948 29.8522 36.3734 29.4434 36.3102C29.01 31.0372 24.5174 26.876 19.0537 26.876C13.3041 26.876 8.62645 31.4828 8.62645 37.1453C8.62645 42.8078 13.3041 47.4145 19.0537 47.4145C21.9373 47.4145 24.6412 46.2629 26.6055 44.2267C29.6727 45.9675 32.9986 47.3517 36.1722 48.8976V52.7011H1.93506V8.71386H36.1722V25.0945Z" fill="white"/>
</g>
<defs>
<clipPath id="clip0_345_10077">
<rect width="66" height="65" fill="white" transform="translate(-0.000244141 0.306641)"/>
</clipPath>
</defs>
</svg>
