<svg width="57" height="57" viewBox="0 0 57 57" fill="none" xmlns="http://www.w3.org/2000/svg">
<path d="M8.09744 40.7649C4.48511 37.9479 2.1622 33.5548 2.1622 28.619C2.1622 20.1174 9.05414 13.2256 17.5556 13.2256C20.4765 13.2256 23.2074 14.0391 25.534 15.4519" stroke="white" stroke-width="2" stroke-miterlimit="10" stroke-linecap="round" stroke-linejoin="round"/>
<path d="M25.567 41.7656C23.564 42.9888 21.2598 43.7671 18.7916 43.9632" stroke="white" stroke-width="2" stroke-miterlimit="10" stroke-linecap="round" stroke-linejoin="round"/>
<path d="M50.8272 18.2689C53.3117 21.0026 54.826 24.6339 54.826 28.619C54.826 37.1206 47.9341 44.0125 39.4326 44.0125C30.9311 44.0125 24.0392 37.1205 24.0392 28.619C24.0392 20.1175 30.9311 13.2256 39.4326 13.2256" stroke="white" stroke-width="2" stroke-miterlimit="10" stroke-linecap="round" stroke-linejoin="round"/>
<path d="M39.4326 20.0332L42.2222 25.6855L48.4598 26.5919L43.9462 30.9915L45.0117 37.2039L39.4326 34.2708L33.8536 37.2039L34.919 30.9915L30.4055 26.5919L36.6431 25.6855L39.4326 20.0332Z" stroke="#FF3600" stroke-width="2" stroke-miterlimit="10" stroke-linecap="round" stroke-linejoin="round"/>
<path d="M16.8297 27.0814C14.5513 26.1517 14.165 25.6452 14.1612 24.8614C14.1576 24.1335 14.6774 23.3532 16.147 23.3459C17.611 23.3388 18.5343 23.8604 18.9286 24.0832C19.0789 24.1682 19.259 24.1831 19.421 24.1238C19.5832 24.0646 19.7115 23.9374 19.7718 23.7757L20.3732 22.1641C20.4739 21.8944 20.3592 21.5916 20.1103 21.4472C19.2576 20.9529 18.2457 20.6624 17.2232 20.564L17.2144 18.1144C17.2127 17.7885 16.9594 17.5472 16.6335 17.5488L15.1224 17.5563C14.7964 17.5579 14.585 17.8014 14.5867 18.1273L14.5964 20.7459C12.2633 21.3087 10.9014 23.0009 10.912 25.1698C10.9251 27.8431 13.0308 29.0299 15.3121 29.9116C17.4129 30.7513 17.6991 31.5333 17.7027 32.2532C17.708 33.3288 16.78 34.0559 15.3983 34.0627C14.2804 34.0682 13.1172 33.728 12.2098 33.1294C12.0582 33.0293 11.8681 33.0048 11.696 33.0626C11.5238 33.1204 11.3874 33.2544 11.3271 33.4257L10.7499 35.0615C10.6621 35.3105 10.7153 35.5876 10.9309 35.74C11.7787 36.3394 13.0689 36.7631 14.3832 36.8742L14.3925 39.1016C14.3942 39.4276 14.7293 39.6901 15.0552 39.6884L16.5906 39.6809C16.9166 39.6792 17.1677 39.414 17.1662 39.0879L17.1561 36.7091C19.4891 36.1224 21.0011 34.3087 20.99 32.0664C20.9828 30.5226 20.508 28.5605 16.8297 27.0814Z" stroke="white" stroke-width="2" stroke-miterlimit="10" stroke-linecap="round" stroke-linejoin="round"/>
<path d="M8.71169 45.1861C8.56228 45.008 8.41528 44.8277 8.27069 44.6455" stroke="white" stroke-width="2" stroke-miterlimit="10" stroke-linecap="round" stroke-linejoin="round"/>
<path d="M49.84 43.1201L47.1701 52.1793L44.2307 49.0697C39.8754 52.4261 34.4179 54.4223 28.4941 54.4223C21.8362 54.4223 15.7672 51.9006 11.1902 47.7604" stroke="white" stroke-width="2" stroke-miterlimit="10" stroke-linecap="round" stroke-linejoin="round"/>
<path d="M49.2066 13.2285C49.4416 13.5443 49.6696 13.8656 49.8903 14.1923" stroke="white" stroke-width="2" stroke-miterlimit="10" stroke-linecap="round" stroke-linejoin="round"/>
<path d="M6.97273 14.3799L9.54173 4.6573L12.5013 8.36916C16.898 4.89213 22.4537 2.81641 28.4942 2.81641C35.2881 2.81641 41.4686 5.44206 46.0765 9.73394" stroke="white" stroke-width="2" stroke-miterlimit="10" stroke-linecap="round" stroke-linejoin="round"/>
<path d="M18.3003 9.55211C18.3003 9.55211 28.9162 3.98306 38.0528 13.2068" stroke="white" stroke-width="2" stroke-miterlimit="10" stroke-linecap="round" stroke-linejoin="round"/>
<path d="M17.8637 43.334C17.8637 43.334 26.2679 53.2602 40.0985 47.2383" stroke="white" stroke-width="2" stroke-miterlimit="10" stroke-linecap="round" stroke-linejoin="round"/>
</svg>
