<svg width="24" height="25" viewBox="0 0 24 25" fill="none" xmlns="http://www.w3.org/2000/svg">
<path d="M19.0532 9.58105H4.94385L6.0658 7.35051C6.58494 6.31832 7.6415 5.66699 8.79697 5.66699H15.2001C16.3553 5.66699 17.4119 6.31832 17.931 7.35051L19.0532 9.58105Z" stroke="white" stroke-miterlimit="10"/>
<path d="M21.8188 13.0791V15.6183C21.8188 15.9092 21.7666 16.1979 21.6644 16.4705L21.5976 16.6489C21.5177 16.8626 21.3707 17.0375 21.186 17.1537C21.0274 17.2538 20.8403 17.31 20.6439 17.31L18.9681 17.352C18.8458 17.3553 18.7258 17.318 18.6267 17.2463L17.7642 16.6219L17.29 16.2788L6.70682 16.2319L6.23291 16.5748L5.36385 17.2039C5.26869 17.2728 5.15408 17.31 5.03643 17.31H3.35291C3.1565 17.31 2.96971 17.2538 2.81104 17.1537C2.62611 17.0375 2.47939 16.8626 2.39924 16.6489L2.33244 16.4705C2.23049 16.1979 2.17822 15.9092 2.17822 15.6183V13.0791C2.17822 11.9785 2.74494 10.9557 3.67822 10.3723L4.94385 9.58105H19.0532L20.3186 10.3723C21.2519 10.9557 21.8188 11.9785 21.8188 13.0791Z" stroke="white" stroke-miterlimit="10"/>
<path d="M6.23314 16.5752V18.2533C6.23314 18.5932 5.95752 18.8688 5.61768 18.8688H3.4265C3.08666 18.8688 2.81104 18.5932 2.81104 18.2533V17.1541C2.96971 17.2542 3.1565 17.3104 3.35291 17.3104H5.03643" stroke="white" stroke-miterlimit="10"/>
<path d="M18.9684 17.3521L20.6442 17.3102C20.8406 17.3102 21.0276 17.2539 21.1863 17.1539V18.2531C21.1863 18.5929 20.9106 18.8686 20.5708 18.8686H18.3796C18.0398 18.8686 17.7642 18.5929 17.7642 18.2531V16.6221" stroke="white" stroke-miterlimit="10"/>
<path d="M19.0533 9.51953C18.4554 10.6513 17.6712 11.6845 16.7417 12.5645" stroke="white" stroke-miterlimit="10"/>
<path d="M4.94385 9.51953C5.54174 10.6513 6.32596 11.6845 7.25549 12.5645" stroke="white" stroke-miterlimit="10"/>
<path d="M17.6904 14.8413C17.6904 13.9387 18.4221 13.207 19.3247 13.207H20.1389C20.2918 13.207 20.4155 13.3308 20.4155 13.4836V14.2048C20.4155 14.5563 20.1305 14.8413 19.7789 14.8413H17.6904Z" stroke="white" stroke-miterlimit="10"/>
<path d="M18.9648 9.47668C18.9648 8.69504 19.5984 8.06152 20.38 8.06152H21.085C21.2172 8.06152 21.3245 8.16863 21.3245 8.30105V8.92543C21.3245 9.22988 21.0777 9.47668 20.7733 9.47668H18.9648Z" stroke="white" stroke-miterlimit="10"/>
<path d="M5.03229 9.51965C5.03229 8.73801 4.39877 8.10449 3.61713 8.10449H2.91189C2.77971 8.10449 2.67236 8.2116 2.67236 8.34402V8.9684C2.67236 9.27285 2.91916 9.51965 3.22361 9.51965H5.03229Z" stroke="white" stroke-miterlimit="10"/>
<path d="M6.30613 14.8413C6.30613 13.9387 5.57441 13.207 4.67184 13.207H3.85762C3.7048 13.207 3.58105 13.3308 3.58105 13.4836V14.2048C3.58105 14.5563 3.86605 14.8413 4.21762 14.8413H6.30613Z" stroke="white" stroke-miterlimit="10"/>
<path d="M7.9292 14.373H15.908" stroke="white" stroke-miterlimit="10"/>
</svg>
