<svg width="24" height="25" viewBox="0 0 24 25" fill="none" xmlns="http://www.w3.org/2000/svg">
<g clip-path="url(#clip0_345_10142)">
<path d="M16.0096 16.0075C18.5635 12 18.2425 12.5 18.3161 12.3955C19.2459 11.084 19.7373 9.54048 19.7373 7.93164C19.7373 3.66508 16.2751 0.150391 12.0029 0.150391C7.74471 0.150391 4.26855 3.65814 4.26855 7.93164C4.26855 9.53945 4.7703 11.1234 5.73059 12.4525L7.99615 16.0075C5.57388 16.3798 1.45605 17.4891 1.45605 19.9316C1.45605 20.822 2.03721 22.0909 4.80584 23.0797C6.73905 23.7701 9.29501 24.1504 12.0029 24.1504C17.0666 24.1504 22.5498 22.722 22.5498 19.9316C22.5498 17.4887 18.4368 16.3805 16.0096 16.0075ZM6.90523 11.6791C6.89749 11.667 6.88943 11.6552 6.88099 11.6435C6.08191 10.5442 5.6748 9.24137 5.6748 7.93164C5.6748 4.41517 8.50634 1.55664 12.0029 1.55664C15.4923 1.55664 18.3311 4.41644 18.3311 7.93164C18.3311 9.24348 17.9316 10.5021 17.1758 11.5725C17.108 11.6618 17.4614 11.1128 12.0029 19.678L6.90523 11.6791ZM12.0029 22.7441C6.47196 22.7441 2.8623 21.1184 2.8623 19.9316C2.8623 19.134 4.71705 17.8225 8.82705 17.3113L11.41 21.3642C11.5391 21.5668 11.7626 21.6895 12.0029 21.6895C12.2431 21.6895 12.4668 21.5668 12.5958 21.3642L15.1787 17.3113C19.2888 17.8225 21.1436 19.134 21.1436 19.9316C21.1436 21.1083 17.5664 22.7441 12.0029 22.7441Z" fill="white"/>
<path d="M12.0029 4.41602C10.0644 4.41602 8.4873 5.99312 8.4873 7.93164C8.4873 9.87016 10.0644 11.4473 12.0029 11.4473C13.9414 11.4473 15.5186 9.87016 15.5186 7.93164C15.5186 5.99312 13.9414 4.41602 12.0029 4.41602ZM12.0029 10.041C10.8398 10.041 9.89355 9.09475 9.89355 7.93164C9.89355 6.76853 10.8398 5.82227 12.0029 5.82227C13.166 5.82227 14.1123 6.76853 14.1123 7.93164C14.1123 9.09475 13.166 10.041 12.0029 10.041Z" fill="white"/>
</g>
<defs>
<clipPath id="clip0_345_10142">
<rect width="24" height="24" fill="white" transform="translate(0.00292969 0.150391)"/>
</clipPath>
</defs>
</svg>
