<svg width="20" height="19" viewBox="0 0 20 19" fill="none" xmlns="http://www.w3.org/2000/svg">
<path fill-rule="evenodd" clip-rule="evenodd" d="M5.24473 5.96786C5.12182 5.96786 5.02029 5.869 5.02029 5.7461V3.69941C4.72637 3.95858 4.43781 4.07615 4.42178 4.08416C4.30688 4.12959 4.17863 4.07348 4.13054 3.96126C4.08511 3.84636 4.14123 3.71544 4.25345 3.67002C4.26146 3.66734 4.7718 3.45359 5.05235 2.98333C5.16724 2.79096 5.4665 2.87111 5.4665 3.09555V5.7461C5.4665 5.869 5.36763 5.96786 5.24473 5.96786Z" fill="white"/>
<path fill-rule="evenodd" clip-rule="evenodd" d="M9.55985 5.87651C9.06287 5.87651 8.65674 5.47038 8.65674 4.97341C8.65674 4.8505 8.75827 4.75164 8.88118 4.75164C9.00409 4.75164 9.10295 4.8505 9.10295 4.97341C9.10295 5.22457 9.30869 5.4303 9.55985 5.4303C9.81101 5.4303 10.0167 5.22457 10.0167 4.97341C10.0167 4.72225 9.81101 4.51651 9.55985 4.51651C9.43694 4.51651 9.33808 4.41765 9.33808 4.29474C9.33808 4.17183 9.43694 4.07297 9.55985 4.07297C9.74154 4.07297 9.89116 3.92334 9.89116 3.74165C9.89116 3.55996 9.74154 3.41034 9.55985 3.41034C9.37816 3.41034 9.22853 3.55996 9.22853 3.74165C9.22853 3.86456 9.12967 3.96342 9.00676 3.96342C8.88385 3.96342 8.78499 3.86456 8.78499 3.74165C8.78499 3.31415 9.13234 2.9668 9.55985 2.9668C10.2358 2.9668 10.5885 3.77906 10.1263 4.27069C10.332 4.43635 10.463 4.69018 10.463 4.97341C10.463 5.47038 10.0568 5.87651 9.55985 5.87651Z" fill="white"/>
<path fill-rule="evenodd" clip-rule="evenodd" d="M13.9016 5.87662C13.4047 5.87662 12.9985 5.47049 12.9985 4.97352C12.9985 4.85061 13.0974 4.75175 13.2203 4.75175C13.3432 4.75175 13.4447 4.85061 13.4447 4.97352C13.4447 5.22468 13.6478 5.43041 13.9016 5.43041C14.1528 5.43041 14.3585 5.22468 14.3585 4.97352C14.3585 4.72236 14.1528 4.51662 13.899 4.51662L13.2657 4.51395C13.1428 4.51395 13.0413 4.41508 13.0413 4.29218V3.4051C13.0413 3.17532 13.231 2.98828 13.4608 2.98828H14.567C14.6899 2.98828 14.7914 3.08714 14.7914 3.21005C14.7914 3.33296 14.6899 3.43182 14.567 3.43182H13.4875V4.07041H13.9016C14.3986 4.07308 14.8021 4.47654 14.8021 4.97352C14.8021 5.47049 14.3986 5.87662 13.9016 5.87662Z" fill="white"/>
<path fill-rule="evenodd" clip-rule="evenodd" d="M6.20637 16.4142H4.37878C4.18106 16.4142 4.0822 16.1738 4.22114 16.0348C4.30397 15.952 4.45092 15.8157 4.64063 15.6394C4.99065 15.3161 5.47159 14.8725 5.71207 14.6027C5.81093 14.4958 5.8323 14.3916 5.78154 14.274C5.69603 14.0843 5.43953 13.9267 5.22043 13.9267C4.88644 13.9267 4.61658 14.1965 4.61658 14.5279C4.61658 14.6508 4.51772 14.7496 4.39481 14.7496C4.2719 14.7496 4.17304 14.6508 4.17304 14.5279C4.17304 13.9507 4.64063 13.4805 5.21776 13.4805C5.92315 13.4805 6.60983 14.274 6.04338 14.9019C5.78688 15.1852 5.30059 15.6367 4.94255 15.968C4.94255 15.968 4.94255 15.968 4.93988 15.968H6.20637C6.32928 15.968 6.43081 16.0696 6.43081 16.1925C6.43081 16.3127 6.32928 16.4142 6.20637 16.4142Z" fill="white"/>
<path fill-rule="evenodd" clip-rule="evenodd" d="M9.97388 16.4748C9.85097 16.4748 9.75211 16.3733 9.75211 16.2504V15.6572H8.69136C8.50967 15.6572 8.40547 15.4515 8.50967 15.3045L9.79486 13.517C9.92044 13.3407 10.1983 13.4315 10.1983 13.6479V15.211H10.567C10.69 15.211 10.7888 15.3099 10.7888 15.4328C10.7888 15.5557 10.69 15.6572 10.567 15.6572H10.1983V16.2504C10.1983 16.3733 10.0968 16.4748 9.97388 16.4748ZM9.12421 15.211H9.75211V14.3373L9.12421 15.211Z" fill="white"/>
<path fill-rule="evenodd" clip-rule="evenodd" d="M13.2977 16.5559C13.1748 16.5559 13.0732 16.457 13.0732 16.3341V13.753C13.0732 13.6301 13.1748 13.5312 13.2977 13.5312C13.4206 13.5312 13.5195 13.6301 13.5195 13.753V16.3341C13.5195 16.457 13.4206 16.5559 13.2977 16.5559Z" fill="white"/>
<path fill-rule="evenodd" clip-rule="evenodd" d="M14.3905 15.3588H13.2977C13.1748 15.3588 13.0732 15.26 13.0732 15.1371V13.753C13.0732 13.6301 13.1748 13.5312 13.2977 13.5312H14.3905C14.8955 13.5312 15.307 13.9401 15.307 14.445C15.307 14.95 14.8955 15.3588 14.3905 15.3588ZM13.5195 14.9153H14.3905C14.6497 14.9153 14.8608 14.7042 14.8608 14.445C14.8608 14.1859 14.6497 13.9748 14.3905 13.9748H13.5195V14.9153Z" fill="white"/>
<path fill-rule="evenodd" clip-rule="evenodd" d="M15.12 16.5061C15.0479 16.5061 14.9757 16.4687 14.933 16.4019L14.2035 15.2584C14.1367 15.1542 14.1688 15.0179 14.2703 14.9511C14.3745 14.8843 14.5135 14.9164 14.5776 15.0179L15.307 16.1641C15.4032 16.3138 15.2937 16.5061 15.12 16.5061Z" fill="white"/>
<path fill-rule="evenodd" clip-rule="evenodd" d="M5.15634 12.9444C5.03343 12.9444 4.93457 12.8455 4.93457 12.7226V6.7081C4.93457 6.58519 5.03343 6.48633 5.15634 6.48633C5.27925 6.48633 5.37811 6.58519 5.37811 6.7081V12.7226C5.37811 12.8455 5.27925 12.9444 5.15634 12.9444Z" fill="white"/>
<path fill-rule="evenodd" clip-rule="evenodd" d="M9.61044 12.9444C9.48753 12.9444 9.38867 12.8455 9.38867 12.7226V6.7081C9.38867 6.58519 9.48753 6.48633 9.61044 6.48633C9.73335 6.48633 9.83221 6.58519 9.83221 6.7081V12.7226C9.83221 12.8455 9.73335 12.9444 9.61044 12.9444Z" fill="white"/>
<path fill-rule="evenodd" clip-rule="evenodd" d="M14.0648 12.9444C13.9419 12.9444 13.8403 12.8455 13.8403 12.7226V10.6652C13.8403 10.5423 13.9419 10.4434 14.0648 10.4434C14.1877 10.4434 14.2865 10.5423 14.2865 10.6652V12.7226C14.2865 12.8455 14.1877 12.9444 14.0648 12.9444ZM14.0648 8.98724C13.9419 8.98724 13.8403 8.88838 13.8403 8.76547V6.7081C13.8403 6.58519 13.9419 6.48633 14.0648 6.48633C14.1877 6.48633 14.2865 6.58519 14.2865 6.7081V8.76547C14.2865 8.88838 14.1877 8.98724 14.0648 8.98724Z" fill="white"/>
<path fill-rule="evenodd" clip-rule="evenodd" d="M14.0645 9.9384H5.15634C5.03343 9.9384 4.93457 9.83954 4.93457 9.71663C4.93457 9.59372 5.03343 9.49219 5.15634 9.49219H14.0645C14.1874 9.49219 14.2863 9.59372 14.2863 9.71663C14.2863 9.83954 14.1874 9.9384 14.0645 9.9384Z" fill="white"/>
<path fill-rule="evenodd" clip-rule="evenodd" d="M15.7934 18.6943H3.66825C1.77119 18.6943 0.229492 17.1526 0.229492 15.2582V4.17241C0.229492 2.27802 1.77119 0.736328 3.66825 0.736328H15.7934C17.6878 0.736328 19.2295 2.27802 19.2295 4.17241V15.2582C19.2295 17.1526 17.6878 18.6943 15.7934 18.6943ZM3.66825 1.17987C2.017 1.17987 0.675702 2.52384 0.675702 4.17241V15.2582C0.675702 16.9068 2.017 18.2507 3.66825 18.2507H15.7934C17.442 18.2507 18.7833 16.9068 18.7833 15.2582V4.17241C18.7833 2.52384 17.442 1.17987 15.7934 1.17987H3.66825Z" fill="white"/>
<path fill-rule="evenodd" clip-rule="evenodd" d="M15.7932 17.7314H3.66804C2.30269 17.7314 1.19385 16.6226 1.19385 15.2572V4.17146C1.19385 2.80611 2.30269 1.69727 3.66804 1.69727H15.7932C17.1559 1.69727 18.2674 2.80611 18.2674 4.17146V15.2572C18.2674 16.6226 17.1559 17.7314 15.7932 17.7314ZM3.66804 2.14348C2.54851 2.14348 1.63739 3.05193 1.63739 4.17146V15.2572C1.63739 16.3768 2.54851 17.2852 3.66804 17.2852H15.7932C16.9101 17.2852 17.8212 16.3768 17.8212 15.2572V4.17146C17.8212 3.05193 16.9101 2.14348 15.7932 2.14348H3.66804Z" fill="white"/>
</svg>
