<svg width="41" height="51" viewBox="0 0 41 51" fill="none" xmlns="http://www.w3.org/2000/svg">
<mask id="mask0_837_355" style="mask-type:luminance" maskUnits="userSpaceOnUse" x="0" y="0" width="41" height="51">
<path d="M40.1719 0.3125H0.171875V50.0212H40.1719V0.3125Z" fill="white"/>
</mask>
<g mask="url(#mask0_837_355)">
<path d="M33.7639 23.7105H11.8223V16.3318C11.8223 12.3168 15.1324 9.05027 19.2009 9.05027C23.216 9.05027 26.4825 12.3168 26.4825 16.3318V19.2444C26.4825 20.0487 27.1345 20.7008 27.9388 20.7008H33.764C34.5683 20.7008 35.2203 20.0487 35.2203 19.2444V16.3318C35.2203 7.49881 28.0341 0.3125 19.201 0.3125C10.3143 0.312597 3.0845 7.49881 3.0845 16.3319V23.961C1.38945 24.5621 0.171875 26.1808 0.171875 28.0794V45.6521C0.171875 48.0611 2.13178 50.021 4.54081 50.021H33.7639C36.1729 50.021 38.1328 48.0611 38.1328 45.6521V28.0794C38.1328 25.6704 36.1729 23.7105 33.7639 23.7105ZM5.99712 16.3319C5.99712 9.10483 11.9204 3.22522 19.2009 3.22522C26.428 3.22522 32.3076 9.10493 32.3076 16.3319V17.7882H29.395V16.3319C29.395 10.7108 24.8219 6.13784 19.2009 6.13784C13.5632 6.13784 8.90974 10.7126 8.90974 16.3319V23.7106H5.99712V16.3319ZM35.2202 45.6521C35.2202 46.4551 34.5669 47.1084 33.7639 47.1084H4.54081C3.7378 47.1084 3.0845 46.4551 3.0845 45.6521V28.0794C3.0845 27.2764 3.7378 26.6231 4.54081 26.6231C5.89887 26.6231 32.5877 26.6231 33.7639 26.6231C34.5669 26.6231 35.2202 27.2764 35.2202 28.0794V45.6521Z" fill="white"/>
<path d="M19.1971 29.5391C16.788 29.5391 14.8281 31.499 14.8281 33.908C14.8281 35.8065 16.0457 37.4253 17.7407 38.0264V42.7429C17.7407 43.5472 18.3928 44.1993 19.1971 44.1993C20.0013 44.1993 20.6534 43.5472 20.6534 42.7429V38.0264C22.3484 37.4253 23.566 35.8065 23.566 33.908C23.566 31.499 21.6061 29.5391 19.1971 29.5391ZM19.1971 35.3642C18.394 35.3642 17.7407 34.7109 17.7407 33.9079C17.7407 33.1049 18.394 32.4516 19.1971 32.4516C20.0001 32.4516 20.6534 33.1049 20.6534 33.9079C20.6534 34.7109 20.0001 35.3642 19.1971 35.3642Z" fill="#FF3600"/>
</g>
</svg>
