<svg width="20" height="20" viewBox="0 0 20 20" fill="none" xmlns="http://www.w3.org/2000/svg">
<g clip-path="url(#clip0_345_10357)">
<path d="M17.4992 7.8535L11.252 1.6063C10.3631 0.712386 9.15341 0.2113 7.89276 0.214863H3.07943C2.20543 0.215931 1.49716 0.924196 1.49609 1.7982V18.8982C1.49609 19.0731 1.63788 19.2149 1.81276 19.2149H11.1348C11.9459 19.2148 12.6923 18.7718 13.0807 18.0597C13.9388 16.4849 15.2328 15.1909 16.8076 14.3328C17.5197 13.9444 17.9627 13.198 17.9628 12.3869V8.97291C17.9639 8.55285 17.797 8.14974 17.4992 7.8535ZM17.3294 12.3869C17.3295 12.9664 17.013 13.4996 16.5042 13.7771C14.8226 14.693 13.4409 16.0747 12.525 17.7563C12.2475 18.2651 11.7143 18.5816 11.1348 18.5815H2.12943V1.7982C2.12943 1.27352 2.55475 0.848196 3.07943 0.848196H7.89276C8.98522 0.845227 10.0335 1.27946 10.8039 2.05406L17.0514 8.30126C17.2288 8.47982 17.3288 8.72116 17.3294 8.97291V12.3869Z" fill="white"/>
<path d="M15.9699 8.22522L10.2474 2.50273C9.59565 1.84731 8.70875 1.47994 7.7844 1.48243H3.7127C3.18802 1.48243 2.7627 1.90776 2.7627 2.43243V8.4491C2.7627 8.62398 2.90448 8.76577 3.07936 8.76577H15.746C15.8741 8.76581 15.9896 8.6887 16.0386 8.57038C16.0877 8.45203 16.0605 8.31578 15.9699 8.22522ZM10.996 8.13243H3.39603V2.43243C3.39603 2.25756 3.53782 2.11577 3.7127 2.11577H7.7844C8.54067 2.11371 9.26636 2.41427 9.79966 2.9505L10.996 4.14687V8.13243ZM11.6294 8.13243V4.7802L14.9816 8.13243H11.6294Z" fill="white"/>
<path d="M15.1127 9.71484H13.2127C12.688 9.71484 12.2627 10.1402 12.2627 10.6648C12.2627 11.1895 12.688 11.6148 13.2127 11.6148H15.1127C15.6374 11.6148 16.0627 11.1895 16.0627 10.6648C16.0627 10.1402 15.6374 9.71484 15.1127 9.71484ZM15.1127 10.9815H13.2127C13.0378 10.9815 12.896 10.8397 12.896 10.6648C12.896 10.49 13.0378 10.3482 13.2127 10.3482H15.1127C15.2876 10.3482 15.4294 10.49 15.4294 10.6648C15.4294 10.8397 15.2876 10.9815 15.1127 10.9815Z" fill="white"/>
</g>
<defs>
<clipPath id="clip0_345_10357">
<rect width="19" height="19" fill="white" transform="translate(0.229492 0.214844)"/>
</clipPath>
</defs>
</svg>
