<svg width="37" height="37" viewBox="0 0 37 37" fill="none" xmlns="http://www.w3.org/2000/svg">
<path d="M7.38145 26.8998C5.88145 25.2498 4.98145 23.4498 4.98145 20.4498C4.98145 15.1998 8.73145 10.5498 13.9814 8.14984L15.3314 10.0998C10.3814 12.7998 9.33145 16.2498 9.03145 18.4998C9.78145 18.0498 10.8314 17.8998 11.8814 18.0498C14.5814 18.3498 16.6814 20.4498 16.6814 23.2998C16.6814 24.6498 16.0814 25.9998 15.1814 27.0498C14.1314 28.0998 12.9314 28.5498 11.4314 28.5498C9.78145 28.5498 8.28145 27.7998 7.38145 26.8998ZM22.3814 26.8998C20.8814 25.2498 19.9814 23.4498 19.9814 20.4498C19.9814 15.1998 23.7314 10.5498 28.9814 8.14984L30.3314 10.0998C25.3814 12.7998 24.3314 16.2498 24.0314 18.4998C24.7814 18.0498 25.8314 17.8998 26.8814 18.0498C29.5814 18.3498 31.6814 20.4498 31.6814 23.2998C31.6814 24.6498 31.0814 25.9998 30.1814 27.0498C29.2814 28.0998 27.9314 28.5498 26.4314 28.5498C24.7814 28.5498 23.2814 27.7998 22.3814 26.8998Z" fill="#FF3600"/>
</svg>
