<svg width="24" height="25" viewBox="0 0 24 25" fill="none" xmlns="http://www.w3.org/2000/svg">
<g clip-path="url(#clip0_345_10131)">
<path d="M16.0052 16.0075C18.5591 12 18.2381 12.5 18.3117 12.3955C19.2415 11.084 19.7329 9.54048 19.7329 7.93164C19.7329 3.66508 16.2707 0.150391 11.9985 0.150391C7.74032 0.150391 4.26416 3.65814 4.26416 7.93164C4.26416 9.53945 4.76591 11.1234 5.72619 12.4525L7.99175 16.0075C5.56949 16.3798 1.45166 17.4891 1.45166 19.9316C1.45166 20.822 2.03282 22.0909 4.80144 23.0797C6.73466 23.7701 9.29061 24.1504 11.9985 24.1504C17.0622 24.1504 22.5454 22.722 22.5454 19.9316C22.5454 17.4887 18.4324 16.3805 16.0052 16.0075ZM6.90083 11.6791C6.8931 11.667 6.88504 11.6552 6.8766 11.6435C6.07752 10.5442 5.67041 9.24137 5.67041 7.93164C5.67041 4.41517 8.50194 1.55664 11.9985 1.55664C15.4879 1.55664 18.3267 4.41644 18.3267 7.93164C18.3267 9.24348 17.9272 10.5021 17.1714 11.5725C17.1036 11.6618 17.457 11.1128 11.9985 19.678L6.90083 11.6791ZM11.9985 22.7441C6.46757 22.7441 2.85791 21.1184 2.85791 19.9316C2.85791 19.134 4.71266 17.8225 8.82266 17.3113L11.4056 21.3642C11.5347 21.5668 11.7583 21.6895 11.9985 21.6895C12.2387 21.6895 12.4624 21.5668 12.5914 21.3642L15.1743 17.3113C19.2844 17.8225 21.1392 19.134 21.1392 19.9316C21.1392 21.1083 17.562 22.7441 11.9985 22.7441Z" fill="white"/>
<path d="M11.9985 4.41602C10.06 4.41602 8.48291 5.99312 8.48291 7.93164C8.48291 9.87016 10.06 11.4473 11.9985 11.4473C13.9371 11.4473 15.5142 9.87016 15.5142 7.93164C15.5142 5.99312 13.9371 4.41602 11.9985 4.41602ZM11.9985 10.041C10.8354 10.041 9.88916 9.09475 9.88916 7.93164C9.88916 6.76853 10.8354 5.82227 11.9985 5.82227C13.1616 5.82227 14.1079 6.76853 14.1079 7.93164C14.1079 9.09475 13.1616 10.041 11.9985 10.041Z" fill="white"/>
</g>
<defs>
<clipPath id="clip0_345_10131">
<rect width="24" height="24" fill="white" transform="translate(-0.00146484 0.150391)"/>
</clipPath>
</defs>
</svg>
