<svg width="41" height="41" viewBox="0 0 41 41" fill="none" xmlns="http://www.w3.org/2000/svg">
<g clip-path="url(#clip0_345_63503)">
<path d="M34.7712 6.51696C27.3121 -1.25711 13.8909 -1.2568 6.432 6.51696C-1.34207 13.976 -1.34176 27.3973 6.432 34.8561C13.891 42.6302 27.3123 42.6299 34.7712 34.8561C42.5452 27.397 42.5448 13.9758 34.7712 6.51696ZM20.6015 38.3679C10.852 38.3679 2.92016 30.436 2.92016 20.6865C3.89138 -2.77025 37.3152 -2.76341 38.2829 20.6867C38.2829 30.4361 30.3511 38.3679 20.6015 38.3679Z" fill="white"/>
<path d="M33.5676 20.6862H35.9251C35.0809 0.35196 6.11387 0.367675 5.27734 20.6862H7.63486C7.63486 19.2726 7.86307 17.9115 8.28318 16.6367L10.5159 18.1298L11.8264 16.17L9.24104 14.4412C10.1837 12.7334 11.4997 11.2594 13.079 10.1307L14.2061 12.8817L16.3876 11.988L15.1348 8.93026C16.4587 8.31227 17.9031 7.9115 19.4226 7.77397V11.256H21.7801V7.77397C23.5303 7.93248 25.181 8.43997 26.6622 9.22652L25.4226 11.9458L27.5678 12.9237L28.6573 10.5335C30.0003 11.6014 31.1274 12.9296 31.9616 14.4411L29.3763 16.17L30.6867 18.1297L32.9195 16.6367C33.3393 17.9115 33.5676 19.2726 33.5676 20.6862Z" fill="white"/>
<path d="M23.0541 14.3281L20.8311 19.5158C18.7695 19.3826 17.0649 21.0265 17.0649 23.0438C17.0649 24.9937 18.6512 26.5801 20.6012 26.5801C23.8224 26.5716 25.3422 22.5994 22.9973 20.4459L25.2209 15.2568L23.0541 14.3281ZM20.6012 24.2225C19.9512 24.2225 19.4225 23.6937 19.4225 23.0437C19.4871 21.4799 21.7155 21.4804 21.78 23.0437C21.78 23.6938 21.2513 24.2225 20.6012 24.2225Z" fill="#FF3600"/>
<path d="M6.45605 24.2227H8.81357V26.5802H6.45605V24.2227Z" fill="white"/>
<path d="M11.1714 27.7588H13.5289V30.1163H11.1714V27.7588Z" fill="white"/>
<path d="M32.3887 24.2227H34.7462V26.5802H32.3887V24.2227Z" fill="white"/>
<path d="M27.6738 27.7588H30.0313V30.1163H27.6738V27.7588Z" fill="white"/>
<path d="M15.8862 31.295C16.146 37.5517 25.0589 37.5468 25.3163 31.295V28.9375H15.8862V31.295ZM22.9588 31.295C22.8289 34.4234 18.3725 34.4209 18.2437 31.295H22.9588Z" fill="white"/>
</g>
<defs>
<clipPath id="clip0_345_63503">
<rect width="40" height="40" fill="white" transform="translate(0.601074 0.686523)"/>
</clipPath>
</defs>
</svg>
