<svg width="31" height="31" viewBox="0 0 31 31" fill="none" xmlns="http://www.w3.org/2000/svg">
<path d="M21.1753 9.68155C21.1753 9.82878 21.17 9.97601 21.1595 10.1232C21.1542 10.1969 21.1464 10.2678 21.1385 10.3415C21.1332 10.3862 21.149 10.4808 21.1385 10.3441C21.1411 10.3888 21.1253 10.444 21.1174 10.4861C21.0701 10.7779 20.9991 11.0671 20.9071 11.3484C20.8624 11.4825 20.8125 11.6139 20.7625 11.7428C20.7178 11.8558 20.8125 11.635 20.7599 11.7454C20.7467 11.777 20.731 11.8085 20.7178 11.8401C20.6836 11.9137 20.6495 11.9873 20.61 12.0583C20.4838 12.3054 20.3392 12.542 20.1788 12.7681C20.1447 12.8181 20.1052 12.897 20.0553 12.9338C20.1473 12.8628 20.0842 12.897 20.0526 12.9364C20.0316 12.9627 20.0106 12.989 19.9869 13.0153C19.8923 13.1309 19.7924 13.2414 19.6872 13.3465C19.5926 13.4464 19.4926 13.5411 19.3901 13.6331C19.3375 13.6778 19.2876 13.7251 19.235 13.7672C19.2087 13.7882 19.1824 13.8119 19.1561 13.8329C19.1377 13.8461 19.1193 13.8618 19.1009 13.875C19.1614 13.8277 19.1693 13.8224 19.1246 13.8566C18.9011 14.0222 18.6724 14.1747 18.4305 14.3062C18.3095 14.3745 18.186 14.435 18.0598 14.4955C18.0282 14.5112 17.9967 14.5244 17.9651 14.5375C17.8521 14.5875 18.0756 14.4928 17.9625 14.5402C17.8863 14.5717 17.81 14.6006 17.7338 14.6295C17.4551 14.7294 17.1711 14.8083 16.8819 14.8662C16.8109 14.8793 16.74 14.8925 16.669 14.903C16.6374 14.9082 16.5954 14.9214 16.5612 14.9187C16.6663 14.9266 16.6348 14.9082 16.5927 14.9135C16.435 14.9293 16.2772 14.945 16.1195 14.9503C15.8119 14.9608 15.5095 14.945 15.2046 14.9135C15.0784 14.9003 15.3255 14.9319 15.2019 14.9135C15.1651 14.9082 15.1309 14.903 15.0941 14.8977C15.0232 14.8872 14.9522 14.874 14.8838 14.8583C14.7339 14.8267 14.5841 14.7899 14.4342 14.7479C14.3001 14.7084 14.1661 14.6663 14.032 14.6164C13.9768 14.5954 13.9216 14.5743 13.869 14.5533C13.8585 14.548 13.8479 14.5454 13.8374 14.5402C13.7848 14.5191 13.7954 14.5217 13.8663 14.5533C13.8322 14.5533 13.7691 14.5112 13.7401 14.4955C13.4772 14.3745 13.2248 14.2352 12.983 14.0748C12.9251 14.038 12.8673 13.9986 12.8121 13.9591C12.7621 13.9249 12.6832 13.8855 12.6464 13.8355C12.7174 13.9276 12.6832 13.8645 12.6438 13.8329C12.6175 13.8119 12.5912 13.7909 12.5649 13.7672C12.5045 13.7146 12.4414 13.662 12.3835 13.6094C12.1784 13.4254 11.9892 13.2256 11.813 13.0153C11.792 12.989 11.7683 12.9627 11.7473 12.9364C11.7157 12.897 11.65 12.8628 11.7446 12.9338C11.6973 12.897 11.6579 12.8155 11.6211 12.7681C11.5343 12.6472 11.4528 12.521 11.3766 12.3922C11.3056 12.2739 11.2372 12.1529 11.1768 12.0267C11.1452 11.9636 11.1163 11.9032 11.0847 11.8401C11.069 11.8085 11.0558 11.777 11.0427 11.7454C11.019 11.6928 11.0243 11.7033 11.0532 11.7743C11.0453 11.7533 11.0348 11.7323 11.0269 11.7086C10.9217 11.4483 10.835 11.1775 10.7692 10.9041C10.7351 10.7647 10.7061 10.6254 10.6851 10.4834C10.6799 10.4466 10.6746 10.4124 10.6693 10.3756C10.6509 10.2494 10.6825 10.4992 10.6693 10.373C10.6615 10.2889 10.6509 10.2047 10.6457 10.1206C10.622 9.81563 10.6246 9.50803 10.6483 9.20305C10.6536 9.12944 10.6615 9.05845 10.6693 8.98483C10.6825 8.85864 10.6509 9.10577 10.6693 8.98221C10.6746 8.9454 10.6799 8.91122 10.6851 8.87441C10.7114 8.72192 10.7403 8.56944 10.7798 8.41958C10.8481 8.14615 10.9375 7.87798 11.0427 7.6177C11.0874 7.50464 10.9927 7.72549 11.0453 7.61507C11.0584 7.58352 11.0742 7.55197 11.0874 7.52042C11.1163 7.45732 11.1478 7.39422 11.1794 7.33375C11.2477 7.19967 11.3214 7.06821 11.3976 6.93938C11.4686 6.82107 11.5448 6.70539 11.6263 6.59234C11.6605 6.54239 11.7 6.46352 11.7499 6.42671C11.6579 6.49769 11.721 6.46352 11.7525 6.42408C11.7815 6.38727 11.8104 6.35309 11.8393 6.31891C12.0154 6.10858 12.21 5.9114 12.4151 5.72736C12.4677 5.68267 12.5176 5.63534 12.5702 5.59328C12.5965 5.57225 12.6228 5.54858 12.6491 5.52755C12.6885 5.496 12.7227 5.43027 12.6517 5.52492C12.6885 5.4776 12.77 5.43816 12.8173 5.40135C12.8831 5.35403 12.9488 5.30933 13.0171 5.26464C13.259 5.10689 13.514 4.96755 13.777 4.84924C13.798 4.83872 13.8479 4.80717 13.8716 4.80717C13.8506 4.81506 13.8295 4.82558 13.8111 4.83346C13.8322 4.82558 13.8532 4.81506 13.8769 4.80717C13.9321 4.78614 13.9847 4.76511 14.0399 4.74408C14.1818 4.69149 14.3291 4.64417 14.4763 4.6021C14.613 4.56267 14.7524 4.53112 14.8917 4.5022C14.9627 4.48905 15.0337 4.47591 15.102 4.46276C15.1388 4.4575 15.173 4.45224 15.2098 4.44699C15.2677 4.4391 15.2571 4.4391 15.1783 4.45224L15.2493 4.44436C15.5542 4.41018 15.8592 4.39966 16.1668 4.41281C16.3062 4.41807 16.4455 4.43121 16.5848 4.44699C16.6322 4.45224 16.6926 4.43647 16.5717 4.44436C16.6032 4.44173 16.6453 4.45487 16.6795 4.46013C16.761 4.47328 16.8451 4.48905 16.9266 4.50483C17.2158 4.56267 17.4998 4.64417 17.7758 4.7467C17.8416 4.77037 17.9073 4.79666 17.9704 4.82295C18.0834 4.86764 17.8626 4.773 17.973 4.82558C18.0046 4.83872 18.0361 4.8545 18.0677 4.86764C18.2044 4.93074 18.3385 4.9991 18.4699 5.07271C18.5909 5.14107 18.7092 5.21206 18.8248 5.2883C18.8722 5.31985 18.9195 5.3514 18.9668 5.38558C19.0247 5.42502 19.1193 5.47234 19.1614 5.52755C19.0904 5.43553 19.1246 5.49863 19.164 5.53018C19.1903 5.55121 19.2166 5.57225 19.2429 5.59591C19.2955 5.6406 19.348 5.6853 19.398 5.72999C19.5084 5.8299 19.6162 5.93243 19.7187 6.04023C19.8134 6.14013 19.9054 6.24267 19.9948 6.34783C20.0158 6.37413 20.0395 6.40042 20.0605 6.42671C20.0921 6.46614 20.1578 6.50032 20.0632 6.42934C20.1184 6.4714 20.1657 6.56605 20.2051 6.62389C20.3629 6.84999 20.5075 7.08924 20.6311 7.33638C20.6626 7.39948 20.6915 7.45995 20.7231 7.52305C20.7388 7.5546 20.752 7.58615 20.7651 7.6177C20.8151 7.73075 20.7204 7.50727 20.7678 7.62032C20.823 7.7623 20.8782 7.90427 20.9229 8.04887C21.0123 8.33019 21.0833 8.61939 21.128 8.91385C21.1332 8.9454 21.1464 8.98746 21.1437 9.02164C21.1542 8.88756 21.1385 8.98221 21.1437 9.02427C21.1516 9.09789 21.1595 9.16887 21.1648 9.24249C21.1674 9.38709 21.1726 9.53432 21.1753 9.68155C21.1753 9.95761 21.4172 10.2205 21.7011 10.2074C21.985 10.1942 22.2269 9.97601 22.2269 9.68155C22.2217 8.39328 21.8299 7.09976 21.078 6.04812C20.3182 4.98595 19.2718 4.18144 18.0466 3.72924C16.8188 3.27703 15.4307 3.23496 14.1739 3.59252C12.9619 3.93694 11.8472 4.65469 11.0453 5.62746C10.2014 6.65544 9.69657 7.89638 9.5914 9.22145C9.48887 10.515 9.81225 11.8453 10.4853 12.9548C11.1347 14.0248 12.1127 14.9135 13.259 15.4288C14.4894 15.9835 15.8487 16.1413 17.1764 15.8784C18.4173 15.6312 19.582 14.9818 20.4575 14.0695C21.3357 13.1546 21.9456 11.9689 22.1402 10.7122C22.1927 10.3704 22.2269 10.026 22.2269 9.68155C22.2269 9.40549 21.985 9.14258 21.7011 9.15573C21.4145 9.16887 21.1753 9.38709 21.1753 9.68155Z" fill="white"/>
<path d="M24.5614 27.2997C24.3353 27.2997 24.1118 27.2997 23.8857 27.2997C23.2889 27.2997 22.6895 27.2997 22.0927 27.2997C21.2382 27.2997 20.3838 27.2997 19.5293 27.2997C18.5329 27.2997 17.5391 27.2997 16.5426 27.2997C15.5225 27.2997 14.5051 27.2997 13.485 27.2997C12.5569 27.2997 11.6288 27.2997 10.7034 27.2997C9.98298 27.2997 9.26523 27.2997 8.54486 27.2997C8.15049 27.2997 7.75612 27.2997 7.35913 27.2997C7.32495 27.2997 7.29077 27.2997 7.25659 27.2997C7.25133 27.2997 7.24344 27.2997 7.23819 27.2997C7.21452 27.2997 7.18823 27.2997 7.16457 27.2971C7.16983 27.2971 7.09359 27.2944 7.09359 27.2918C7.09096 27.2866 7.2303 27.3181 7.12776 27.2944C7.08307 27.2839 7.03574 27.2734 6.99105 27.2603C6.97527 27.255 6.95687 27.2445 6.9411 27.2445C6.87537 27.234 7.02786 27.2944 6.97002 27.2576C6.93584 27.2366 6.89903 27.2208 6.86485 27.2024C6.83067 27.1814 6.79912 27.1577 6.76495 27.1367C6.71499 27.1078 6.80701 27.163 6.80438 27.1682C6.80175 27.1709 6.74654 27.1183 6.74128 27.113C6.71236 27.0867 6.68607 27.0552 6.65978 27.0263C6.59668 26.9632 6.70973 27.1104 6.64926 27.0105C6.62823 26.9763 6.6072 26.9448 6.58617 26.908C6.57565 26.8869 6.56513 26.8659 6.55462 26.8475C6.51518 26.7713 6.56776 26.879 6.56776 26.879C6.5441 26.8817 6.51518 26.6661 6.50203 26.6424C6.53884 26.7108 6.50992 26.7318 6.50729 26.6766C6.50729 26.6529 6.50466 26.6293 6.50203 26.603C6.50203 26.5898 6.50203 26.5767 6.50203 26.5636C6.50203 26.5346 6.50203 26.5083 6.50203 26.4794C6.50203 25.6276 6.50203 24.7758 6.50203 23.9213C6.50203 23.803 6.50203 23.6873 6.50203 23.569C6.50203 23.3035 6.5441 23.0432 6.54936 22.7803C6.54936 22.7803 6.53358 22.8907 6.54147 22.8302C6.5441 22.8065 6.54936 22.7829 6.55199 22.7592C6.55725 22.7172 6.56513 22.6751 6.57302 22.6357C6.5888 22.5463 6.60457 22.4595 6.6256 22.3727C6.66241 22.2045 6.70711 22.0388 6.75706 21.8758C6.80964 21.7076 6.87011 21.5446 6.93584 21.3816C6.97002 21.2948 6.89114 21.4841 6.94373 21.3632C6.9595 21.3264 6.9779 21.2896 6.99368 21.2527C7.03049 21.1739 7.06992 21.095 7.10936 21.0188C7.26711 20.7164 7.45114 20.4325 7.65359 20.1564C7.7088 20.0828 7.59049 20.2326 7.66673 20.1406C7.69302 20.1091 7.71669 20.0775 7.74298 20.046C7.79819 19.9803 7.8534 19.9145 7.91124 19.8514C8.02692 19.7226 8.14786 19.6017 8.27406 19.4833C8.395 19.3703 8.52382 19.2625 8.65265 19.1573C8.72364 19.0995 8.57378 19.2152 8.66842 19.1442C8.69997 19.1205 8.73415 19.0969 8.7657 19.0732C8.83932 19.0206 8.91556 18.968 8.99443 18.9181C9.27575 18.7341 9.57284 18.5789 9.87782 18.4396C9.96195 18.4002 9.7858 18.4764 9.89622 18.4317C9.93303 18.4159 9.97246 18.4002 10.0093 18.387C10.096 18.3528 10.1854 18.3213 10.2748 18.2924C10.4378 18.2398 10.6008 18.1925 10.7691 18.153C10.9373 18.1136 11.1082 18.0794 11.2791 18.0531C11.2975 18.0505 11.3317 18.04 11.3501 18.0426C11.3527 18.0426 11.2397 18.0557 11.3002 18.0505C11.3422 18.0452 11.3843 18.04 11.4264 18.0373C11.5236 18.0268 11.6209 18.0189 11.7182 18.0137C11.918 18.0032 12.1205 18.0058 12.3203 18.0058H14.5366H17.5469H19.5898H19.7449C20.0052 18.0058 20.2628 18.0479 20.5205 18.0531C20.5205 18.0531 20.41 18.0373 20.4705 18.0452C20.4942 18.0479 20.5178 18.0531 20.5415 18.0557C20.5836 18.061 20.6256 18.0689 20.6651 18.0768C20.7545 18.0925 20.8412 18.1083 20.928 18.1294C21.0962 18.1662 21.2619 18.2109 21.4249 18.2608C21.5931 18.3134 21.7562 18.3739 21.9192 18.4396C22.0059 18.4738 21.8166 18.3949 21.9376 18.4475C21.9744 18.4633 22.0112 18.4817 22.048 18.4974C22.1269 18.5342 22.2057 18.5737 22.282 18.6131C22.5843 18.7709 22.8683 18.9549 23.1443 19.1573C23.2179 19.2126 23.0681 19.0942 23.1601 19.1705C23.1916 19.1968 23.2232 19.2204 23.2547 19.2467C23.3205 19.3019 23.3862 19.3572 23.4493 19.415C23.5781 19.5307 23.6991 19.6516 23.8174 19.7778C23.9304 19.8987 24.0382 20.0276 24.1434 20.1564C24.2012 20.2274 24.0855 20.0775 24.1565 20.1722C24.1802 20.2037 24.2039 20.2379 24.2275 20.2695C24.2801 20.3431 24.3327 20.4193 24.3826 20.4982C24.5667 20.7795 24.7218 21.0766 24.8611 21.3816C24.9006 21.4657 24.8243 21.2896 24.869 21.4C24.8848 21.4368 24.9006 21.4762 24.9137 21.513C24.9479 21.5998 24.9794 21.6892 25.0084 21.7786C25.0609 21.9416 25.1083 22.1046 25.1477 22.2728C25.1871 22.4411 25.2213 22.612 25.2476 22.7829C25.2502 22.8013 25.2608 22.8355 25.2581 22.8539C25.2581 22.8565 25.245 22.7435 25.2502 22.8039C25.2555 22.846 25.2608 22.8881 25.2634 22.9301C25.2739 23.0274 25.2818 23.1247 25.2871 23.2219C25.3028 23.5322 25.2949 23.8424 25.2949 24.1527C25.2949 24.9545 25.3028 25.7564 25.2949 26.5583V26.6056C25.2949 26.624 25.2844 26.766 25.2923 26.6792C25.3002 26.5925 25.2792 26.7266 25.2739 26.7476C25.2713 26.7581 25.2397 26.8817 25.2318 26.879C25.224 26.879 25.2844 26.7818 25.2502 26.8317C25.2424 26.8449 25.2345 26.8633 25.2266 26.879C25.2055 26.9185 25.1819 26.9579 25.1582 26.9974C25.1503 27.0105 25.1372 27.0236 25.1293 27.0394C25.0978 27.0973 25.1977 26.9684 25.1477 27.0131C25.1188 27.0394 25.0951 27.0736 25.0662 27.0999C25.0531 27.113 25.0399 27.1236 25.0294 27.1341C25.0241 27.1367 25.0215 27.142 25.0163 27.1446C24.9821 27.1735 24.9821 27.1735 25.0163 27.1472C25.0294 27.1157 25.0504 27.1236 25.0163 27.1472C24.9978 27.1604 24.9794 27.1735 24.9584 27.184C24.9242 27.2051 24.8901 27.2235 24.8532 27.2419C24.7507 27.2971 24.9242 27.2235 24.8348 27.2498C24.7954 27.2603 24.7586 27.2734 24.7165 27.2839C24.6981 27.2892 24.6824 27.2918 24.664 27.2944C24.5614 27.3181 24.7008 27.2866 24.6981 27.2918C24.7008 27.3023 24.5772 27.2997 24.5614 27.2997C24.2854 27.3023 24.0224 27.539 24.0356 27.8255C24.0487 28.1068 24.267 28.3566 24.5614 28.3513C25.5105 28.3382 26.2651 27.6099 26.344 26.6713C26.3676 26.3821 26.3492 26.0851 26.3492 25.7959C26.3492 24.9966 26.3676 24.1974 26.3466 23.3981C26.3098 21.8758 25.7445 20.4193 24.7639 19.2599C23.8279 18.1504 22.4897 17.359 21.0647 17.0803C20.368 16.9436 19.6765 16.9489 18.9719 16.9489C18.0701 16.9489 17.1657 16.9489 16.2639 16.9489C15.2859 16.9489 14.3079 16.9489 13.3272 16.9489C12.8251 16.9489 12.3229 16.9357 11.8207 16.9541C10.3037 17.0094 8.85246 17.5878 7.70354 18.5789C6.60457 19.528 5.82635 20.8742 5.56344 22.3044C5.39255 23.2272 5.44513 24.1763 5.44513 25.1097V26.4005C5.44513 26.5162 5.44513 26.6293 5.45828 26.745C5.51349 27.1893 5.70804 27.6178 6.05771 27.9097C6.41002 28.2041 6.82804 28.354 7.28814 28.354H7.65622H9.28101H11.7813H14.7706H17.9045H20.7886H23.0786H24.3879H24.5588C24.8348 28.354 25.0978 28.1121 25.0846 27.8282C25.0741 27.539 24.8559 27.2997 24.5614 27.2997Z" fill="white"/>
</svg>
