<svg width="33" height="33" viewBox="0 0 33 33" fill="none" xmlns="http://www.w3.org/2000/svg">
<g clip-path="url(#clip0_345_10846)">
<path d="M8.60752 15.3522L6.05752 14.8022C5.35752 14.6522 4.70752 15.2022 4.70752 15.9022V16.9522C4.70752 17.8022 5.35752 18.0022 6.15752 18.0022H8.95752C9.50752 18.0022 10.0575 17.9022 10.0575 17.3022V17.1522C10.0575 16.2522 9.45752 15.5022 8.60752 15.3522ZM5.65752 16.9522C5.65752 16.9022 5.65752 16.9022 5.65752 15.8522C5.65752 15.7522 5.75752 15.6522 5.85752 15.7022L8.40752 16.2522C8.75752 16.3522 9.00752 16.6522 9.05752 17.0022C7.30752 17.0022 5.80752 17.0022 5.65752 16.9522Z" fill="white"/>
<path d="M31.3075 10.002L27.7075 8.30195C26.5075 7.75195 25.2075 7.55195 23.9575 7.80195L23.4075 6.70195C23.0075 5.70195 22.0575 5.00195 20.9575 5.00195H9.25747C8.15747 5.00195 7.20747 5.65195 6.80747 6.65195L4.85747 10.702C4.40747 10.052 3.65747 9.65195 2.85747 9.65195H2.00747C1.25747 9.65195 0.657471 10.252 0.657471 11.002V11.552C0.657471 12.302 1.25747 12.902 2.00747 12.902H3.30747C2.75747 13.602 2.50747 14.502 2.50747 15.402V18.402C2.50747 19.552 2.90747 20.652 3.70747 21.602V23.852C3.70747 24.852 4.50747 25.652 5.50747 25.652H7.35747C8.35747 25.652 9.15747 24.852 9.15747 23.852V22.952H19.1575C21.3575 25.952 24.8075 27.252 24.8575 27.252C24.9575 27.302 25.0575 27.302 25.2075 27.252C25.2575 27.202 32.6575 24.502 32.6575 17.752V12.152C32.6575 11.252 32.1075 10.402 31.3075 10.002ZM7.70747 7.05195C7.95747 6.40195 8.55747 6.00195 9.25747 6.00195H20.9575C21.6575 6.00195 22.2575 6.40195 22.5575 7.10195L23.0075 8.05195C22.8075 8.10195 22.6075 8.20195 22.4075 8.30195L18.8075 10.002C18.0075 10.402 17.4575 11.202 17.4575 12.102H5.20747C5.40747 11.802 5.20747 12.302 7.70747 7.05195ZM1.65747 11.552V11.002C1.65747 10.802 1.80747 10.652 2.00747 10.652H2.85747C3.85747 10.652 4.20747 11.552 4.30747 11.702C4.25747 11.802 4.20747 11.852 4.10747 11.952H2.00747C1.80747 11.902 1.65747 11.752 1.65747 11.552ZM8.15747 23.802C8.15747 24.252 7.80747 24.602 7.35747 24.602H5.45747C5.00747 24.652 4.65747 24.252 4.65747 23.802V22.352C5.25747 22.702 5.95747 22.902 6.65747 22.902H8.15747V23.802ZM6.60747 21.952C4.80747 21.952 3.40747 20.202 3.40747 18.352V15.352C3.40747 14.502 3.75747 13.702 4.35747 13.052H17.4575V17.452H11.9575C11.7075 17.452 11.4575 17.652 11.4575 17.952C11.4575 18.252 11.6575 18.452 11.9575 18.452H17.5075C17.5575 18.802 17.5575 19.102 17.6575 19.402H11.9575C11.7075 19.402 11.4575 19.602 11.4575 19.902C11.4575 20.202 11.6575 20.402 11.9575 20.402H17.8575C18.0575 20.952 18.2575 21.502 18.5575 21.952H6.60747ZM31.6575 17.752C31.6575 23.302 26.0575 25.852 25.0575 26.252C21.4575 24.802 18.4575 21.702 18.4575 17.752C18.4575 15.902 18.4575 14.902 18.4575 12.152C18.4575 11.602 18.7575 11.152 19.2575 10.902L22.8575 9.20195C24.3075 8.50195 25.9075 8.50195 27.3575 9.20195L30.9575 10.902C31.4075 11.152 31.7575 11.602 31.7575 12.152V17.752H31.6575Z" fill="white"/>
<path d="M29.9574 12.052L26.6574 10.502C25.6574 10.002 24.4074 10.002 23.4074 10.502L20.1574 12.052C20.0074 12.152 19.8574 12.302 19.8574 12.502V17.752C19.8574 21.702 23.3074 23.852 24.8074 24.602C24.9574 24.652 25.1074 24.652 25.2574 24.602C26.7574 23.852 30.2074 21.702 30.2074 17.752V12.502C30.2074 12.302 30.1074 12.152 29.9574 12.052ZM29.2574 17.752C29.2574 20.952 26.4574 22.852 25.0574 23.602C23.4074 22.702 20.8574 20.902 20.8574 17.752V12.802L23.8574 11.352C24.6074 11.002 25.5074 11.002 26.2574 11.352L29.2574 12.802V17.752Z" fill="white"/>
<path d="M23.1074 17.6017C22.9074 17.4517 22.6074 17.5017 22.4074 17.7017C22.2074 17.9017 22.3074 18.2017 22.5074 18.4017L24.4074 19.8517C24.6074 20.0017 24.9074 19.9517 25.1074 19.7517L27.9074 16.1017C28.0574 15.9017 28.0074 15.6017 27.8074 15.4017C27.6074 15.2517 27.3074 15.3017 27.1074 15.5017L24.6074 18.7517L23.1074 17.6017Z" fill="#FF3600"/>
</g>
<defs>
<clipPath id="clip0_345_10846">
<rect width="32" height="32" fill="white" transform="translate(0.657471 0.152344)"/>
</clipPath>
</defs>
</svg>
