<svg width="63" height="63" viewBox="0 0 63 63" fill="none" xmlns="http://www.w3.org/2000/svg">
<path d="M8.83189 44.3921H9.9027L10.2156 56.0817C10.246 56.9096 10.9191 57.558 11.7483 57.558H19.8147C20.6426 57.558 21.3156 56.9096 21.3467 56.0707L21.5152 49.5914H23.4223C24.085 51.6352 25.9843 53.1264 28.2451 53.1264C31.0534 53.1264 33.3375 50.8423 33.3375 48.034C33.3375 45.2258 31.054 42.9417 28.2451 42.9417C25.571 42.9417 23.3964 45.0205 23.193 47.6434H21.5657L21.6499 44.3915H23.2266C25.0172 44.3915 26.4741 42.9346 26.4741 41.1441V39.3658H41.8211C42.4624 39.3658 43.0474 39.0426 43.3849 38.501C43.725 37.9562 43.758 37.2851 43.4704 36.695L42.18 34.129C41.8748 33.4903 41.24 33.0945 40.5222 33.0945H26.4734V31.3707H38.0936C39.5596 31.9667 41.1532 32.3055 42.8226 32.3379L45.1281 36.9139C45.5563 37.7891 46.3473 38.4265 47.2982 38.6643L53.8844 40.3136C54.4953 40.4645 54.9222 41.0106 54.9222 41.6403V46.2882C54.9222 47.0403 54.3048 47.6512 53.5463 47.6512H52.125C51.9261 45.0237 49.7489 42.9404 47.0708 42.9404C44.3967 42.9404 42.2221 45.0192 42.0187 47.6421H35.1883C34.6506 47.6421 34.2146 48.0781 34.2146 48.6158C34.2146 49.1535 34.6506 49.5894 35.1883 49.5894H42.2486C42.9113 51.6332 44.8107 53.1245 47.0715 53.1245C49.3297 53.1245 51.2265 51.6378 51.8918 49.5991H53.5469C55.3789 49.5991 56.8701 48.1137 56.8701 46.2882V41.6403C56.8701 40.1115 55.8343 38.7887 54.3547 38.4233L47.7718 36.7747C47.3786 36.6762 47.0527 36.4151 46.8739 36.0491L44.9454 32.2051C51.4046 31.2962 56.3953 25.7478 56.3953 19.0418C56.3953 11.7035 50.4252 5.7334 43.0869 5.7334C35.7486 5.7334 29.7785 11.7035 29.7785 19.0418C29.7785 23.2382 31.7355 26.9806 34.7795 29.4215H26.2447C25.5943 27.1218 23.5 25.4226 20.9956 25.4226H11.1834C8.09599 25.4226 5.58447 27.9341 5.58447 31.0209V41.1421C5.58383 42.9352 7.04073 44.3921 8.83189 44.3921ZM28.2445 44.8903C29.9793 44.8903 31.3889 46.3012 31.3889 48.0347C31.3889 49.7689 29.9787 51.1791 28.2445 51.1791C26.511 51.1791 25.1001 49.7689 25.1001 48.0347C25.1001 46.3005 26.5116 44.8903 28.2445 44.8903ZM47.0708 51.1791C45.3373 51.1791 43.9264 49.7689 43.9264 48.0347C43.9264 46.3005 45.3373 44.8903 47.0708 44.8903C48.8057 44.8903 50.2153 46.3012 50.2153 48.0347C50.2159 49.7682 48.8057 51.1791 47.0708 51.1791ZM31.7258 19.0444C31.7258 12.7802 36.822 7.68392 43.0862 7.68392C49.3505 7.68392 54.4467 12.7802 54.4467 19.0444C54.4467 25.3086 49.3505 30.4048 43.0862 30.4048C36.822 30.4048 31.7258 25.3086 31.7258 19.0444ZM40.4309 34.9874L41.6533 37.4192H26.4734V35.0392L40.4309 34.9874ZM7.53176 31.0235C7.53176 29.0101 9.17004 27.3725 11.1834 27.3725H20.9956C22.9423 27.3725 24.5261 28.957 24.5261 30.9036V41.1447C24.5261 41.8612 23.9431 42.4442 23.2266 42.4442H21.6609V34.9181C21.6609 34.3804 21.2256 33.9444 20.6873 33.9444C20.1496 33.9444 19.7136 34.3804 19.7136 34.9181L19.4124 55.6107H16.7564V45.3159C16.7564 44.7782 16.3205 44.3422 15.7828 44.3422C15.2445 44.3422 14.8091 44.7782 14.8091 45.3159V55.6107H12.1525L11.8506 34.9181C11.8506 34.3804 11.4153 33.9444 10.877 33.9444C10.3393 33.9444 9.90335 34.3804 9.90335 34.9181V42.4448H8.83254C8.11543 42.4448 7.53241 41.8618 7.53241 41.1454V31.0235H7.53176Z" fill="white"/>
<path d="M8.10747 13.3636C8.14051 13.5586 8.53631 14.0146 8.61146 14.0801C8.57713 14.3586 8.55769 16.1258 8.55769 16.1258C8.82847 19.5967 10.4415 22.4159 12.8338 23.6474C13.7362 24.1443 14.9236 24.4682 16.0126 24.4332C16.7828 24.4086 17.5122 24.3179 18.1613 24.095C21.1354 23.1331 23.1656 20.078 23.4629 16.0507C23.4629 16.0507 23.4415 14.3619 23.4059 14.0898C23.4506 14.0503 23.8205 13.703 23.8853 13.5106C23.8853 13.5106 24.4074 11.9514 24.7702 10.7193C25.2035 9.42498 24.6665 7.98103 23.3793 7.23153C22.0144 6.64657 19.6299 5.90807 16.0203 5.94889C11.6309 5.99812 8.57777 7.22699 8.53048 7.25485C7.34242 7.96872 6.81252 9.38805 7.24201 10.705L8.10747 13.3636ZM21.5189 15.9781C21.3342 18.4469 20.2103 21.4261 17.5459 22.2475C15.2669 22.9497 13.9824 22.0603 13.7634 21.9359C11.9645 21.0096 10.7142 18.7254 10.5024 16.05V15.0485C10.8166 15.1204 11.1372 15.1664 11.4624 15.1664H20.5575C20.8853 15.1664 21.204 15.1204 21.5169 15.0498L21.5189 15.9781ZM9.47498 8.9618C11.3134 8.25505 13.5147 7.89682 16.0203 7.89682C19.2995 7.89682 21.4146 8.50834 22.5009 8.96569C22.8903 9.19501 23.0677 9.67179 22.9136 10.1343C22.6383 11.0659 22.28 12.1613 22.1213 12.6432C21.6886 13.0118 21.1276 13.2198 20.5575 13.2198H11.4624C11.0316 13.2198 10.0224 12.7462 9.93103 12.6705L9.09537 10.1026C8.95544 9.67438 9.11156 9.21574 9.47498 8.9618Z" fill="white"/>
<path d="M40.0712 22.967C40.3355 23.2313 40.6827 23.3641 41.0306 23.3641C41.3784 23.3641 41.7256 23.2313 41.9906 22.967L48.5722 16.386C48.9525 16.0058 48.9525 15.3897 48.5722 15.0088C48.192 14.6286 47.5759 14.6286 47.195 15.0088L41.0306 21.172L38.9783 19.1198C38.5981 18.7395 37.982 18.7395 37.6011 19.1198C37.2209 19.5 37.2209 20.1161 37.6011 20.497L40.0712 22.967Z" fill="#FF3600"/>
</svg>
