<svg width="170" height="41" viewBox="0 0 170 41" fill="none" xmlns="http://www.w3.org/2000/svg">
<path d="M51.6782 28.5418H63.6302V24.9418H55.9262V11.3818H51.6782V28.5418Z" fill="white"/>
<path d="M70.7107 26.142C69.0067 26.142 68.1187 24.654 68.1187 22.422C68.1187 20.19 69.0067 18.678 70.7107 18.678C72.4147 18.678 73.3267 20.19 73.3267 22.422C73.3267 24.654 72.4147 26.142 70.7107 26.142ZM70.7347 28.926C74.6947 28.926 77.2867 26.118 77.2867 22.422C77.2867 18.726 74.6947 15.918 70.7347 15.918C66.7987 15.918 64.1587 18.726 64.1587 22.422C64.1587 26.118 66.7987 28.926 70.7347 28.926Z" fill="white"/>
<path d="M84.1414 32.7896C85.9654 32.7896 87.5734 32.3816 88.6534 31.4216C89.6374 30.5336 90.2854 29.1896 90.2854 27.3416V16.2536H86.5414V17.5736H86.4934C85.7734 16.5416 84.6694 15.8936 83.0374 15.8936C79.9894 15.8936 77.8774 18.4376 77.8774 22.0376C77.8774 25.8056 80.4454 27.8696 83.2054 27.8696C84.6934 27.8696 85.6294 27.2696 86.3494 26.4536H86.4454V27.6776C86.4454 29.1656 85.7494 30.0296 84.0934 30.0296C82.7974 30.0296 82.1494 29.4776 81.9334 28.8296H78.1414C78.5254 31.3976 80.7574 32.7896 84.1414 32.7896ZM84.1174 24.9656C82.6534 24.9656 81.6934 23.7656 81.6934 21.9176C81.6934 20.0456 82.6534 18.8456 84.1174 18.8456C85.7494 18.8456 86.6134 20.2376 86.6134 21.8936C86.6134 23.6216 85.8214 24.9656 84.1174 24.9656Z" fill="white"/>
<path d="M97.9841 26.142C96.2801 26.142 95.3921 24.654 95.3921 22.422C95.3921 20.19 96.2801 18.678 97.9841 18.678C99.6881 18.678 100.6 20.19 100.6 22.422C100.6 24.654 99.6881 26.142 97.9841 26.142ZM98.0081 28.926C101.968 28.926 104.56 26.118 104.56 22.422C104.56 18.726 101.968 15.918 98.0081 15.918C94.0721 15.918 91.4321 18.726 91.4321 22.422C91.4321 26.118 94.0721 28.926 98.0081 28.926Z" fill="white"/>
<path d="M105.702 28.5418H109.614V16.2538H105.702V28.5418ZM105.702 14.5498H109.614V11.3818H105.702V14.5498Z" fill="white"/>
<path d="M111.312 32.5976H115.224V27.2696H115.272C116.04 28.3016 117.168 28.9256 118.752 28.9256C121.968 28.9256 124.104 26.3816 124.104 22.3976C124.104 18.7016 122.112 15.8936 118.848 15.8936C117.168 15.8936 115.968 16.6376 115.128 17.7416H115.056V16.2536H111.312V32.5976ZM117.744 25.9016C116.064 25.9016 115.104 24.5336 115.104 22.5416C115.104 20.5496 115.968 19.0376 117.672 19.0376C119.352 19.0376 120.144 20.4296 120.144 22.5416C120.144 24.6296 119.232 25.9016 117.744 25.9016Z" fill="white"/>
<path d="M130.473 28.9256C133.689 28.9256 136.065 27.5336 136.065 24.8456C136.065 21.7016 133.521 21.1496 131.361 20.7896C129.801 20.5016 128.409 20.3816 128.409 19.5176C128.409 18.7496 129.153 18.3896 130.113 18.3896C131.193 18.3896 131.937 18.7256 132.081 19.8296H135.681C135.489 17.4056 133.617 15.8936 130.137 15.8936C127.233 15.8936 124.833 17.2376 124.833 19.8296C124.833 22.7096 127.113 23.2856 129.249 23.6456C130.881 23.9336 132.369 24.0536 132.369 25.1576C132.369 25.9496 131.625 26.3816 130.449 26.3816C129.153 26.3816 128.337 25.7816 128.193 24.5576H124.497C124.617 27.2696 126.873 28.9256 130.473 28.9256Z" fill="white"/>
<path d="M141.379 28.9019C143.083 28.9019 144.163 28.2299 145.051 27.0299H145.123V28.5419H148.867V16.2539H144.955V23.1179C144.955 24.5819 144.139 25.5899 142.795 25.5899C141.547 25.5899 140.947 24.8459 140.947 23.5019V16.2539H137.059V24.3179C137.059 27.0539 138.547 28.9019 141.379 28.9019Z" fill="white"/>
<path d="M150.568 28.5416H154.48V21.6536C154.48 20.1896 155.2 19.1576 156.424 19.1576C157.6 19.1576 158.152 19.9256 158.152 21.2456V28.5416H162.064V21.6536C162.064 20.1896 162.76 19.1576 164.008 19.1576C165.184 19.1576 165.736 19.9256 165.736 21.2456V28.5416H169.648V20.5496C169.648 17.7896 168.256 15.8936 165.472 15.8936C163.888 15.8936 162.568 16.5656 161.608 18.0536H161.56C160.936 16.7336 159.712 15.8936 158.104 15.8936C156.328 15.8936 155.152 16.7336 154.384 18.0056H154.312V16.2536H150.568V28.5416Z" fill="white"/>
<path fill-rule="evenodd" clip-rule="evenodd" d="M20.5015 40.542C31.5472 40.542 40.5015 31.5877 40.5015 20.542C40.5015 9.4963 31.5472 0.541992 20.5015 0.541992C9.45575 0.541992 0.501465 9.4963 0.501465 20.542C0.501465 31.5877 9.45575 40.542 20.5015 40.542ZM26.7408 9.85883C27.0445 8.78004 25.9976 8.14212 25.0415 8.82329L11.6946 18.3316C10.6577 19.0703 10.8208 20.542 11.9396 20.542H15.4542V20.5148H22.304L16.7227 22.4841L14.2622 31.2252C13.9585 32.304 15.0053 32.9419 15.9615 32.2607L29.3084 22.7525C30.3453 22.0138 30.1821 20.542 29.0634 20.542H23.7336L26.7408 9.85883Z" fill="#FF3600"/>
</svg>
