<svg width="41" height="41" viewBox="0 0 41 41" fill="none" xmlns="http://www.w3.org/2000/svg">
<g clip-path="url(#clip0_297_782)">
<path d="M37.0459 6.85699H4.07715C2.14262 6.85699 0.561523 8.43114 0.561523 10.3726V31.4664C0.561523 33.4086 2.14363 34.982 4.07715 34.982H37.0459C38.9804 34.982 40.5615 33.4079 40.5615 31.4664V10.3726C40.5615 8.43067 38.9796 6.85699 37.0459 6.85699ZM36.5061 9.20074C35.3694 10.3411 22.0182 23.7359 21.4696 24.2862C21.0115 24.7457 20.1118 24.7461 19.6534 24.2862L4.61699 9.20074H36.5061ZM2.90527 31.0355V10.8035L12.9885 20.9195L2.90527 31.0355ZM4.61699 32.6382L14.6431 22.5795L17.9935 25.9408C19.3664 27.3182 21.7571 27.3177 23.1297 25.9408L26.48 22.5796L36.5061 32.6382H4.61699ZM38.2178 31.0355L28.1346 20.9195L38.2178 10.8035V31.0355Z" fill="white"/>
</g>
<defs>
<clipPath id="clip0_297_782">
<rect width="40" height="40" fill="white" transform="translate(0.561523 0.919495)"/>
</clipPath>
</defs>
</svg>
