<svg width="63" height="63" viewBox="0 0 63 63" fill="none" xmlns="http://www.w3.org/2000/svg">
<path d="M51.7501 11.2164C50.8481 10.3711 49.6583 9.90159 48.4224 9.90355H20.4203L19.6773 6.99143C18.9601 4.17618 16.4242 2.20625 13.5187 2.20703C12.9671 2.20703 12.5203 2.65391 12.5203 3.20547V14.5145C12.521 15.7176 12.8351 16.9001 13.4312 17.9446C15.0726 20.8087 18.1203 22.577 21.4215 22.5813H33.5489L31.3328 26.5114C31.1586 26.8204 31.1614 27.1989 31.3403 27.5056C31.5196 27.8118 31.8477 27.9997 32.2028 28.0005H35.252C38.095 27.9966 40.7645 26.6306 42.4309 24.3267C42.4598 24.2864 42.4856 24.2442 42.5087 24.2001L42.9384 23.3673H52.4642C52.5298 23.3673 52.5954 23.3657 52.6603 23.3638C54.6048 23.3141 56.3204 22.0759 56.9802 20.245C57.699 18.3973 57.2111 16.2973 55.7505 14.9563L51.7501 11.2164ZM48.4591 13.7852H51.5735L52.7982 14.9297H48.4591C48.1431 14.9297 47.8868 14.6735 47.8868 14.3575C47.8868 14.0418 48.1431 13.7852 48.4591 13.7852ZM35.2516 26.0036H33.9114L36.9481 20.6177H42.1106L40.7692 23.2153C39.4751 24.9661 37.4282 26.0005 35.2516 26.0036ZM55.1103 19.5434C54.7357 20.6184 53.731 21.3466 52.5927 21.3673C52.5501 21.3688 52.5071 21.37 52.4642 21.37H43.9692L44.152 21.0157C44.277 20.7934 44.3055 20.5427 44.3145 20.1192C44.3255 19.6317 44.2915 19.3938 44.179 19.1747C44.0075 18.8352 43.6594 18.6208 43.2794 18.6208H36.3645C36.0043 18.6208 35.6719 18.8153 35.495 19.1294L34.6743 20.5844H21.4207C18.8355 20.5809 16.4496 19.1966 15.164 16.9536C14.7398 16.2106 14.5164 15.37 14.516 14.5145V4.31954C16.0976 4.69103 17.341 5.91095 17.7418 7.48557L18.6765 11.1489C18.789 11.5911 19.1875 11.9004 19.6437 11.9004H47.7106C46.4927 12.2711 45.7306 13.477 45.9181 14.7364C46.1052 15.995 47.1864 16.9266 48.4595 16.9266H54.8243C55.3361 17.702 55.4431 18.6762 55.1103 19.5434Z" fill="white"/>
<path d="M41.5477 13.5156H22.157C21.6058 13.5156 21.1589 13.9629 21.1589 14.5141C21.1589 15.0656 21.6058 15.5125 22.157 15.5125H41.5477C42.0993 15.5125 42.5461 15.0656 42.5461 14.5141C42.5461 13.9629 42.0993 13.5156 41.5477 13.5156Z" fill="#FF3600"/>
<path d="M8.23086 6.61426C7.6793 6.61426 7.23242 7.06153 7.23242 7.6127C7.23242 8.16426 7.6793 8.61114 8.23086 8.61114H9.64103C10.1926 8.61114 10.6395 8.16426 10.6395 7.6127C10.6395 7.06153 10.1926 6.61426 9.64103 6.61426H8.23086Z" fill="white"/>
<path d="M10.5218 11.6816H6.38003C5.82886 11.6816 5.38159 12.1285 5.38159 12.6801C5.38159 13.2313 5.82886 13.6785 6.38003 13.6785H10.5218C11.0734 13.6785 11.5203 13.2313 11.5203 12.6801C11.5203 12.1285 11.0734 11.6816 10.5218 11.6816Z" fill="white"/>
<path d="M9.90533 16.748H7.87759C7.32642 16.748 6.87915 17.1949 6.87915 17.7465C6.87915 18.2977 7.32642 18.7449 7.87759 18.7449H9.90533C10.4565 18.7449 10.9038 18.2977 10.9038 17.7465C10.9038 17.1949 10.4565 16.748 9.90533 16.748Z" fill="white"/>
<path d="M19.9024 45.5908C17.9078 45.59 16.2895 47.2065 16.2891 49.2014C16.2883 51.1959 17.9051 52.8139 19.9 52.8139C21.8946 52.8143 23.5121 51.1971 23.5121 49.2026C23.5106 47.2096 21.8953 45.5939 19.9024 45.5908ZM19.9024 50.5674C19.1484 50.5682 18.5359 49.9576 18.5356 49.2033C18.5352 48.449 19.1461 47.8377 19.9 47.8373C20.6543 47.8369 21.2656 48.4483 21.2656 49.2026C21.2653 49.9557 20.6551 50.5662 19.9024 50.5674Z" fill="white"/>
<path d="M42.7786 45.5908C40.7836 45.59 39.1657 47.2065 39.1653 49.2014C39.1649 51.1963 40.7813 52.8139 42.7762 52.8139C44.7712 52.8143 46.388 51.1971 46.388 49.2026C46.3864 47.2096 44.7716 45.5939 42.7786 45.5908ZM42.7786 50.5674C42.0243 50.5682 41.4122 49.9576 41.4118 49.2033C41.411 48.449 42.0219 47.8377 42.7762 47.8373C43.5301 47.8369 44.1423 48.4483 44.1415 49.2026C44.1415 49.9557 43.5313 50.5662 42.7786 50.5674Z" fill="white"/>
<path d="M49.2618 39.0356H48.1798C47.347 39.0344 46.5415 39.3305 45.9075 39.87L44.1571 34.7418C44.1528 34.7289 44.1481 34.7156 44.143 34.7031C43.6774 33.5024 42.5247 32.7098 41.2372 32.7043H37.6836C37.5829 31.0625 36.2227 29.7813 34.5778 29.7793H28.6098C26.9649 29.7813 25.6047 31.0625 25.5039 32.7043H21.4863C20.1988 32.7098 19.0461 33.5024 18.5804 34.7024C18.5754 34.7153 18.5707 34.7289 18.5664 34.7418L16.8062 39.8985C16.1675 39.3414 15.3488 39.0348 14.5015 39.0356H13.4191C12.3578 39.0364 11.498 39.8965 11.4968 40.9571V42.3461C11.498 43.4067 12.3578 44.2669 13.4191 44.2676H13.6003C12.7902 45.0712 12.3351 46.1657 12.3355 47.3071V51.0977C12.3382 53.4661 14.2574 55.3849 16.6254 55.3876H16.8113V58.2134C16.8129 59.3825 17.7597 60.3302 18.9289 60.3314H21.9035C23.0727 60.3302 24.0203 59.3829 24.0215 58.2134V55.3872H38.702V58.2134C38.7032 59.3825 39.6508 60.3302 40.8196 60.3314H43.7946C44.9638 60.3302 45.9114 59.3825 45.9122 58.2134V55.3872H46.0981C48.4661 55.3849 50.3853 53.4657 50.388 51.0977V47.3063C50.3884 46.1653 49.9333 45.0712 49.1228 44.2672H49.2618C50.3228 44.2665 51.1825 43.4063 51.1837 42.3458V40.9571C51.1825 39.8957 50.3228 39.0364 49.2618 39.0356ZM48.1798 41.2817H48.9372V42.0208H47.0239C47.2325 41.5704 47.6833 41.2817 48.1798 41.2817ZM28.6098 32.0262H34.5778C34.9832 32.027 35.3344 32.309 35.4227 32.7047H27.7649C27.8531 32.309 28.2043 32.027 28.6098 32.0262ZM20.684 35.4922C20.8176 35.166 21.1344 34.9531 21.4863 34.9512H41.2372C41.5891 34.9531 41.9059 35.166 42.0395 35.4922L44.6075 43.018H42.554C42.4911 41.0707 40.895 39.5254 38.9469 39.5254C36.9993 39.5254 35.4032 41.0707 35.3403 43.018H18.1156L20.684 35.4922ZM40.3044 43.018H37.5891C37.6442 42.3086 38.2356 41.7614 38.9469 41.7614C39.6579 41.7614 40.2493 42.3086 40.3044 43.018ZM13.7433 41.2817H14.5011C14.9976 41.2817 15.4488 41.5704 15.657 42.0208H13.7433V41.2817ZM21.775 58.0853H19.0578V55.3872H21.775V58.0853ZM43.6657 58.0853H40.9485V55.3872H43.6657V58.0853ZM48.1415 51.0977C48.1399 52.2255 47.2259 53.1399 46.0981 53.1407H16.6254C15.4972 53.1399 14.5832 52.2255 14.582 51.0977V47.3063C14.5828 46.1782 15.4972 45.2641 16.6254 45.263H46.0981C47.2259 45.2641 48.1399 46.1782 48.1415 47.3063V51.0977Z" fill="white"/>
</svg>
