<svg width="63" height="63" viewBox="0 0 63 63" fill="none" xmlns="http://www.w3.org/2000/svg">
<path d="M39.2461 57.4629H56.6836C56.9405 57.4629 57.1869 57.3608 57.3686 57.1792C57.5503 56.9975 57.6523 56.7511 57.6523 56.4941V33.2441C57.6523 32.9872 57.5503 32.7408 57.3686 32.5591C57.1869 32.3775 56.9405 32.2754 56.6836 32.2754H39.2461C38.9892 32.2754 38.7428 32.3775 38.5611 32.5591C38.3794 32.7408 38.2773 32.9872 38.2773 33.2441V56.4941C38.2773 56.7511 38.3794 56.9975 38.5611 57.1792C38.7428 57.3608 38.9892 57.4629 39.2461 57.4629ZM40.2148 51.6504H44.0898V55.5254H40.2148V51.6504ZM55.7148 40.0254V43.9004H51.8398V40.0254H55.7148ZM49.9023 43.9004H46.0273V40.0254H49.9023V43.9004ZM49.9023 55.5254H46.0273V51.6504H49.9023V55.5254ZM49.9023 49.7129H46.0273V45.8379H49.9023V49.7129ZM44.0898 43.9004H40.2148V40.0254H44.0898V43.9004ZM44.0898 45.8379V49.7129H40.2148V45.8379H44.0898ZM51.8398 55.5254V45.8379H55.7148V55.5254H51.8398ZM55.7148 34.2129V38.0879H40.2148V34.2129H55.7148Z" fill="white"/>
<path d="M60.5586 28.4006H50.3179L47.1898 21.8829C46.7942 21.0666 46.2067 20.3583 45.4778 19.8185C44.7488 19.2786 43.9 18.9233 43.0039 18.7829C44.655 17.5834 45.8851 15.8931 46.5187 13.9531C47.1523 12.0132 47.1571 9.9227 46.5324 7.97987C45.9077 6.03703 44.6854 4.34111 43.0399 3.13403C41.3943 1.92696 39.4096 1.27039 37.3688 1.25799C35.3281 1.24559 33.3355 1.878 31.6754 3.065C30.0153 4.252 28.7725 5.93294 28.1242 7.86805C27.476 9.80315 27.4554 11.8936 28.0654 13.841C28.6754 15.7885 29.8849 17.4936 31.5213 18.7131H26.6523C26.6538 17.037 26.2203 15.3891 25.3943 13.9306C24.5683 12.4721 23.378 11.2529 21.9398 10.3921C20.5015 9.53137 18.8645 9.0585 17.1888 9.01974C15.5131 8.98099 13.856 9.37768 12.3795 10.171C10.903 10.9644 9.65762 12.1273 8.76507 13.546C7.87251 14.9648 7.36334 16.5908 7.28732 18.2653C7.21129 19.9397 7.57102 21.6052 8.33134 23.099C9.09166 24.5928 10.2266 25.8637 11.6251 26.7876L9.56069 30.6626C9.15426 30.4522 8.70377 30.341 8.24609 30.3381H4.37109C3.60031 30.3381 2.86109 30.6443 2.31606 31.1893C1.77104 31.7344 1.46484 32.4736 1.46484 33.2444C1.46484 34.0151 1.77104 34.7544 2.31606 35.2994C2.86109 35.8444 3.60031 36.1506 4.37109 36.1506H5.43672C4.12686 37.6055 3.40214 39.4939 3.40234 41.4516V48.7444C3.40966 50.5129 4.10446 52.2092 5.33984 53.4748V57.4631C5.33984 58.4908 5.7481 59.4764 6.4748 60.2031C7.20151 60.9298 8.18713 61.3381 9.21484 61.3381H13.0898C14.1176 61.3381 15.1032 60.9298 15.8299 60.2031C16.5566 59.4764 16.9648 58.4908 16.9648 57.4631V55.5256H34.4023V60.3694C34.4023 60.6263 34.5044 60.8727 34.6861 61.0544C34.8678 61.236 35.1142 61.3381 35.3711 61.3381H60.5586C60.8155 61.3381 61.0619 61.236 61.2436 61.0544C61.4253 60.8727 61.5273 60.6263 61.5273 60.3694V29.3694C61.5273 29.1124 61.4253 28.866 61.2436 28.6843C61.0619 28.5027 60.8155 28.4006 60.5586 28.4006ZM29.5586 10.9631C29.5586 9.43031 30.0131 7.93192 30.8647 6.65744C31.7163 5.38296 32.9267 4.38962 34.3428 3.80304C35.7589 3.21646 37.3172 3.06299 38.8205 3.36202C40.3239 3.66106 41.7048 4.39918 42.7887 5.48303C43.8725 6.56689 44.6106 7.94781 44.9097 9.45116C45.2087 10.9545 45.0552 12.5128 44.4687 13.9289C43.8821 15.345 42.8887 16.5554 41.6143 17.407C40.3398 18.2586 38.8414 18.7131 37.3086 18.7131C35.2539 18.7108 33.284 17.8935 31.8311 16.4406C30.3782 14.9877 29.5609 13.0178 29.5586 10.9631ZM42.1523 20.6506C42.8402 20.6522 43.5138 20.8471 44.0962 21.2132C44.6786 21.5792 45.1464 22.1017 45.4461 22.7208L48.1693 28.4006H45.2204L43.0465 23.1839C42.9729 23.0074 42.8487 22.8567 42.6896 22.7507C42.5305 22.6447 42.3435 22.5881 42.1523 22.5881H25.8376C26.1121 21.966 26.3196 21.3166 26.4567 20.6506H42.1523ZM21.7204 35.1819L29.0975 24.5256H31.5842L24.2072 35.1819H21.7204ZM16.2247 32.047L18.0828 28.3309C19.3855 28.1779 20.6436 27.7618 21.7805 27.1076C22.9174 26.4535 23.9095 25.575 24.6964 24.5256H26.7405L19.3635 35.1819H18.1622C17.793 35.1819 17.4299 35.0875 17.1074 34.9077C16.7849 34.7279 16.5137 34.4686 16.3195 34.1545C16.1254 33.8405 16.0148 33.482 15.9982 33.1131C15.9816 32.7442 16.0596 32.3772 16.2247 32.047ZM9.21484 18.7131C9.21484 17.1803 9.66937 15.6819 10.521 14.4074C11.3725 13.133 12.5829 12.1396 13.999 11.553C15.4152 10.9665 16.9734 10.813 18.4768 11.112C19.9801 11.4111 21.3611 12.1492 22.4449 13.233C23.5288 14.3169 24.2669 15.6978 24.5659 17.2012C24.865 18.7045 24.7115 20.2628 24.1249 21.6789C23.5383 23.095 22.545 24.3054 21.2705 25.157C19.996 26.0086 18.4976 26.4631 16.9648 26.4631C14.9101 26.4608 12.9402 25.6435 11.4873 24.1906C10.0344 22.7377 9.21715 20.7678 9.21484 18.7131ZM3.40234 33.2444C3.40234 32.9874 3.50441 32.741 3.68608 32.5593C3.86776 32.3777 4.11417 32.2756 4.37109 32.2756H8.24609C8.38554 32.2784 8.52271 32.3115 8.64813 32.3725L7.66484 34.2131H4.37109C4.11417 34.2131 3.86776 34.111 3.68608 33.9294C3.50441 33.7477 3.40234 33.5013 3.40234 33.2444ZM15.0273 57.4631C15.0273 57.977 14.8232 58.4698 14.4599 58.8331C14.0965 59.1965 13.6037 59.4006 13.0898 59.4006H9.21484C8.70099 59.4006 8.20818 59.1965 7.84482 58.8331C7.48147 58.4698 7.27734 57.977 7.27734 57.4631V54.8523C8.18407 55.2904 9.17663 55.522 10.1836 55.5305H15.0273V57.4631ZM10.1836 53.5881C8.89895 53.5881 7.66692 53.0778 6.75855 52.1694C5.85017 51.261 5.33984 50.029 5.33984 48.7444V41.4516C5.33682 40.3298 5.64803 39.2296 6.23821 38.2755C6.82839 37.3215 7.67396 36.5519 8.67912 36.0537C8.85881 35.9635 9.0063 35.8201 9.1015 35.643L13.3407 27.6992C14.1635 28.034 15.0288 28.2528 15.9118 28.3493L14.4916 31.1809C14.1789 31.8066 14.0313 32.5018 14.0627 33.2005C14.0942 33.8993 14.3038 34.5784 14.6716 35.1733C15.0393 35.7683 15.5531 36.2594 16.164 36.6C16.7749 36.9406 17.4628 37.1194 18.1622 37.1194H34.4023V40.9944H18.9023C18.7489 40.9945 18.5977 41.031 18.4612 41.101C18.3247 41.171 18.2067 41.2724 18.117 41.3969C18.0274 41.5214 17.9685 41.6654 17.9454 41.817C17.9223 41.9687 17.9355 42.1237 17.984 42.2692L19.9215 48.0817C19.9857 48.2746 20.1089 48.4423 20.2737 48.5612C20.4386 48.6801 20.6366 48.7442 20.8398 48.7444H34.4023V53.5881H10.1836ZM34.4023 42.9319V46.8069H21.5383L20.247 42.9319H34.4023ZM34.4023 29.3694V35.1819H26.5642L33.9412 24.5256H41.5062L43.1211 28.4006H35.3711C35.1142 28.4006 34.8678 28.5027 34.6861 28.6843C34.5044 28.866 34.4023 29.1124 34.4023 29.3694ZM59.5898 59.4006H36.3398V30.3381H59.5898V59.4006Z" fill="white"/>
<path d="M12.1211 40.9941C11.3547 40.9941 10.6055 41.2214 9.96826 41.6472C9.33102 42.073 8.83435 42.6782 8.54106 43.3862C8.24777 44.0943 8.17103 44.8734 8.32055 45.6251C8.47007 46.3768 8.83913 47.0673 9.38106 47.6092C9.92299 48.1511 10.6134 48.5202 11.3651 48.6697C12.1168 48.8192 12.8959 48.7425 13.604 48.4492C14.3121 48.1559 14.9173 47.6592 15.343 47.022C15.7688 46.3847 15.9961 45.6355 15.9961 44.8691C15.9961 43.8414 15.5878 42.8558 14.8611 42.1291C14.1344 41.4024 13.1488 40.9941 12.1211 40.9941ZM12.1211 46.8066C11.7379 46.8066 11.3633 46.693 11.0447 46.4801C10.7261 46.2672 10.4777 45.9646 10.3311 45.6106C10.1844 45.2566 10.1461 44.867 10.2208 44.4912C10.2956 44.1153 10.4801 43.7701 10.7511 43.4991C11.022 43.2282 11.3673 43.0436 11.7431 42.9689C12.1189 42.8941 12.5085 42.9325 12.8625 43.0791C13.2166 43.2258 13.5192 43.4741 13.7321 43.7927C13.945 44.1113 14.0586 44.4859 14.0586 44.8691C14.0586 45.383 13.8545 45.8758 13.4911 46.2392C13.1278 46.6025 12.635 46.8066 12.1211 46.8066Z" fill="white"/>
<path d="M37.3086 8.05664C37.5655 8.05664 37.8119 8.15871 37.9936 8.34038C38.1753 8.52206 38.2773 8.76846 38.2773 9.02539H40.2148C40.2124 8.42645 40.0249 7.84291 39.6781 7.35459C39.3313 6.86627 38.842 6.49703 38.2773 6.29739V5.15039H36.3398V6.29739C35.694 6.52487 35.1495 6.97359 34.8028 7.56406C34.4561 8.15454 34.3295 8.84866 34.4456 9.5235C34.5616 10.1983 34.9127 10.8103 35.4367 11.2511C35.9608 11.6919 36.6239 11.9329 37.3086 11.9316C37.5002 11.9316 37.6875 11.9885 37.8468 12.0949C38.0061 12.2014 38.1303 12.3526 38.2036 12.5297C38.2769 12.7067 38.2961 12.9015 38.2587 13.0894C38.2214 13.2773 38.1291 13.4499 37.9936 13.5854C37.8581 13.7209 37.6855 13.8131 37.4976 13.8505C37.3097 13.8879 37.1149 13.8687 36.9379 13.7954C36.7609 13.7221 36.6096 13.5979 36.5031 13.4386C36.3967 13.2793 36.3398 13.092 36.3398 12.9004H34.4023C34.4048 13.4993 34.5923 14.0829 34.9391 14.5712C35.2859 15.0595 35.7752 15.4287 36.3398 15.6284V16.7754H38.2773V15.6284C38.9232 15.4009 39.4677 14.9522 39.8144 14.3617C40.1611 13.7712 40.2877 13.0771 40.1716 12.4023C40.0556 11.7274 39.7045 11.1154 39.1805 10.6747C38.6564 10.2339 37.9933 9.99284 37.3086 9.99414C37.0517 9.99414 36.8053 9.89208 36.6236 9.7104C36.4419 9.52872 36.3398 9.28232 36.3398 9.02539C36.3398 8.76846 36.4419 8.52206 36.6236 8.34038C36.8053 8.15871 37.0517 8.05664 37.3086 8.05664Z" fill="#FF3600"/>
<path d="M17.9336 24.5254V23.3784C18.5794 23.1509 19.1239 22.7022 19.4707 22.1117C19.8174 21.5212 19.9439 20.8271 19.8279 20.1523C19.7118 19.4774 19.3607 18.8654 18.8367 18.4247C18.3127 17.9839 17.6496 17.7428 16.9648 17.7441C16.7732 17.7441 16.5859 17.6873 16.4266 17.5809C16.2673 17.4744 16.1432 17.3231 16.0698 17.1461C15.9965 16.9691 15.9773 16.7743 16.0147 16.5864C16.0521 16.3985 16.1444 16.2259 16.2798 16.0904C16.4153 15.9549 16.5879 15.8626 16.7758 15.8253C16.9638 15.7879 17.1586 15.8071 17.3356 15.8804C17.5126 15.9537 17.6639 16.0779 17.7703 16.2372C17.8768 16.3965 17.9336 16.5838 17.9336 16.7754H19.8711C19.8686 16.1765 19.6811 15.5929 19.3343 15.1046C18.9875 14.6163 18.4983 14.247 17.9336 14.0474V12.9004H15.9961V14.0474C15.3502 14.2749 14.8057 14.7236 14.459 15.3141C14.1123 15.9045 13.9858 16.5987 14.1018 17.2735C14.2178 17.9483 14.569 18.5603 15.093 19.0011C15.617 19.4419 16.2801 19.6829 16.9648 19.6816C17.1564 19.6816 17.3437 19.7385 17.5031 19.8449C17.6624 19.9514 17.7865 20.1027 17.8599 20.2797C17.9332 20.4567 17.9524 20.6515 17.915 20.8394C17.8776 21.0273 17.7853 21.1999 17.6499 21.3354C17.5144 21.4709 17.3418 21.5631 17.1538 21.6005C16.9659 21.6379 16.7711 21.6187 16.5941 21.5454C16.4171 21.4721 16.2658 21.3479 16.1594 21.1886C16.0529 21.0293 15.9961 20.842 15.9961 20.6504H14.0586C14.0611 21.2493 14.2485 21.8329 14.5954 22.3212C14.9422 22.8095 15.4314 23.1787 15.9961 23.3784V24.5254H17.9336Z" fill="#FF3600"/>
</svg>
