<svg width="41" height="41" viewBox="0 0 41 41" fill="none" xmlns="http://www.w3.org/2000/svg">
<g clip-path="url(#clip0_297_799)">
<path d="M27.2393 27.348C31.4958 20.6689 30.9607 21.5022 31.0834 21.328C32.6331 19.1422 33.4521 16.5697 33.4521 13.8882C33.4521 6.77731 27.6818 0.919495 20.5615 0.919495C13.4645 0.919495 7.6709 6.76574 7.6709 13.8882C7.6709 16.5679 8.50715 19.2079 10.1076 21.4231L13.8836 27.3481C9.84645 27.9685 2.9834 29.8173 2.9834 33.8882C2.9834 35.3722 3.95199 37.4871 8.56637 39.135C11.7884 40.2857 16.0483 40.9195 20.5615 40.9195C29.001 40.9195 38.1396 38.5389 38.1396 33.8882C38.1396 29.8166 31.2846 27.9697 27.2393 27.348ZM12.0654 20.1339C12.0525 20.1138 12.039 20.0941 12.025 20.0747C10.6932 18.2425 10.0146 16.0711 10.0146 13.8882C10.0146 8.02746 14.7339 3.26324 20.5615 3.26324C26.3771 3.26324 31.1084 8.02957 31.1084 13.8882C31.1084 16.0747 30.4427 18.1724 29.1829 19.9563C29.07 20.1052 29.659 19.1902 20.5615 33.4655L12.0654 20.1339ZM20.5615 38.5757C11.3432 38.5757 5.32715 35.8661 5.32715 33.8882C5.32715 32.5589 8.4184 30.373 15.2684 29.521L19.5732 36.2759C19.7884 36.6136 20.1611 36.8179 20.5614 36.8179C20.9618 36.8179 21.3346 36.6135 21.5496 36.2759L25.8544 29.521C32.7046 30.373 35.7959 32.5589 35.7959 33.8882C35.7959 35.8493 29.8339 38.5757 20.5615 38.5757Z" fill="white"/>
<path d="M20.5615 8.02887C17.3307 8.02887 14.7021 10.6574 14.7021 13.8882C14.7021 17.1191 17.3307 19.7476 20.5615 19.7476C23.7924 19.7476 26.4209 17.1191 26.4209 13.8882C26.4209 10.6574 23.7924 8.02887 20.5615 8.02887ZM20.5615 17.4039C18.623 17.4039 17.0459 15.8268 17.0459 13.8882C17.0459 11.9497 18.623 10.3726 20.5615 10.3726C22.5 10.3726 24.0771 11.9497 24.0771 13.8882C24.0771 15.8268 22.5 17.4039 20.5615 17.4039Z" fill="white"/>
</g>
<defs>
<clipPath id="clip0_297_799">
<rect width="40" height="40" fill="white" transform="translate(0.561523 0.919495)"/>
</clipPath>
</defs>
</svg>
