<svg width="33" height="33" viewBox="0 0 33 33" fill="none" xmlns="http://www.w3.org/2000/svg">
<g clip-path="url(#clip0_345_10833)">
<path d="M21.6306 21.8205C25.0358 16.4772 24.6077 17.1439 24.7058 17.0045C25.9456 15.2559 26.6008 13.1979 26.6008 11.0527C26.6008 5.36398 21.9845 0.677734 16.2883 0.677734C10.6107 0.677734 5.97583 5.35473 5.97583 11.0527C5.97583 13.1965 6.64483 15.3084 7.92521 17.0806L10.946 21.8206C7.71627 22.3169 2.22583 23.796 2.22583 27.0527C2.22583 28.2399 3.00071 29.9318 6.6922 31.2502C9.26983 32.1707 12.6778 32.6777 16.2883 32.6777C23.0399 32.6777 30.3508 30.7732 30.3508 27.0527C30.3508 23.7954 24.8668 22.3179 21.6306 21.8205ZM9.49139 16.0493C9.48108 16.0332 9.47033 16.0174 9.45908 16.0019C8.39364 14.5362 7.85083 12.799 7.85083 11.0527C7.85083 6.36411 11.6262 2.55273 16.2883 2.55273C20.9408 2.55273 24.7258 6.3658 24.7258 11.0527C24.7258 12.8019 24.1933 14.48 23.1855 15.9072C23.0951 16.0263 23.5663 15.2943 16.2883 26.7145L9.49139 16.0493ZM16.2883 30.8027C8.9137 30.8027 4.10083 28.635 4.10083 27.0527C4.10083 25.9892 6.57383 24.2405 12.0538 23.5589L15.4977 28.9629C15.6698 29.233 15.968 29.3965 16.2883 29.3965C16.6086 29.3965 16.9068 29.2329 17.0788 28.9629L20.5226 23.5589C26.0028 24.2405 28.4758 25.9892 28.4758 27.0527C28.4758 28.6216 23.7063 30.8027 16.2883 30.8027Z" fill="white"/>
<path d="M16.2883 6.36523C13.7036 6.36523 11.6008 8.46805 11.6008 11.0527C11.6008 13.6374 13.7036 15.7402 16.2883 15.7402C18.873 15.7402 20.9758 13.6374 20.9758 11.0527C20.9758 8.46805 18.873 6.36523 16.2883 6.36523ZM16.2883 13.8652C14.7375 13.8652 13.4758 12.6035 13.4758 11.0527C13.4758 9.50192 14.7375 8.24023 16.2883 8.24023C17.8391 8.24023 19.1008 9.50192 19.1008 11.0527C19.1008 12.6035 17.8391 13.8652 16.2883 13.8652Z" fill="#FF3600"/>
</g>
<defs>
<clipPath id="clip0_345_10833">
<rect width="32" height="32" fill="white" transform="translate(0.28833 0.677734)"/>
</clipPath>
</defs>
</svg>
