<svg width="35" height="35" viewBox="0 0 35 35" fill="none" xmlns="http://www.w3.org/2000/svg">
<g clip-path="url(#clip0_345_11057)">
<path d="M22.5586 12.4018C22.8356 12.4018 23.06 12.1841 23.06 11.9155V11.2773C23.06 11.0087 22.8356 10.791 22.5586 10.791C22.2816 10.791 22.0571 11.0087 22.0571 11.2773V11.9155C22.0571 12.1841 22.2816 12.4018 22.5586 12.4018Z" fill="white"/>
<path d="M18.2383 12.4018C18.5153 12.4018 18.7397 12.1841 18.7397 11.9155V11.2773C18.7397 11.0087 18.5153 10.791 18.2383 10.791C17.9613 10.791 17.7368 11.0087 17.7368 11.2773V11.9155C17.7368 12.1841 17.9613 12.4018 18.2383 12.4018Z" fill="white"/>
<path d="M20.3938 16.2663C21.3637 16.2663 22.1528 15.501 22.1528 14.5605C22.1528 14.2919 21.9284 14.0742 21.6514 14.0742C21.3744 14.0742 21.1499 14.2919 21.1499 14.5605C21.1499 14.9648 20.8107 15.2938 20.3938 15.2938C19.9769 15.2938 19.6377 14.9649 19.6377 14.5605C19.6377 14.2919 19.4132 14.0742 19.1362 14.0742C18.8592 14.0742 18.6348 14.2919 18.6348 14.5605C18.6348 15.501 19.4239 16.2663 20.3938 16.2663Z" fill="white"/>
<path d="M31.8161 27.0374C32.0931 27.0374 32.3175 26.8197 32.3175 26.5511V25.0431C32.3175 23.6502 31.4001 22.4242 30.0298 21.9911L23.8288 20.0968V18.1623C25.276 17.1262 25.9877 15.4312 25.9262 13.7162C27.0767 13.8019 28.3303 13.1406 28.3303 11.8751V10.8599C28.3303 10.3736 28.1345 9.93106 27.8159 9.60164C27.8223 9.57039 27.8258 8.21463 27.8258 8.21463C27.8258 7.94602 27.6014 7.72837 27.3244 7.72837C27.0474 7.72837 26.8229 7.94602 26.8229 8.21463V9.01858H19.8032C18.9737 9.01858 18.2989 8.36414 18.2989 7.55981V3.39419C18.2989 2.58985 18.9737 1.93541 19.8032 1.93541H23.2071C25.2009 1.93541 26.8229 3.50829 26.8229 5.44166V6.09519C26.8229 6.3638 27.0474 6.58145 27.3244 6.58145C27.6014 6.58145 27.8258 6.3638 27.8258 6.09519V5.44166C27.8259 2.97205 25.7539 0.962891 23.2072 0.962891H19.8033C18.5676 0.962891 17.5385 1.8344 17.3337 2.97678H16.4929C14.5575 2.97678 12.9828 4.50376 12.9828 6.38059C12.9828 6.38059 12.9856 9.55736 12.9897 9.58271C12.6601 9.91408 12.4566 10.3642 12.4566 10.8599V11.8751C12.4566 13.1209 13.7044 13.8117 14.8608 13.7162C14.7505 15.4214 15.5332 17.142 16.9582 18.1623V20.1162L12.4469 21.7512C12.0079 21.911 11.6248 22.1855 11.3392 22.5451L8.4339 26.2023V24.5747C8.4339 24.1355 8.23238 23.7412 7.9146 23.4736V21.4597C7.9146 20.6364 7.22379 19.9665 6.37473 19.9665C5.52567 19.9665 4.83493 20.6364 4.83493 21.4597V23.1159C3.7788 23.1159 3.27734 23.6905 3.27734 24.5747V28.6714C3.27734 29.318 3.71368 29.8675 4.31562 30.0582V31.7269C4.31562 34.0657 7.43099 35.0821 8.92974 33.0975L11.5847 29.987V33.6693C11.5847 33.9379 11.8092 34.1556 12.0862 34.1556H31.8161C32.0931 34.1556 32.3175 33.9379 32.3175 33.6693V28.6706C32.3175 28.402 32.0931 28.1843 31.8161 28.1843C31.5391 28.1843 31.3146 28.402 31.3146 28.6706V33.1831H28.1639V26.7312C28.1639 26.4626 27.9395 26.245 27.6625 26.245C27.3855 26.245 27.161 26.4626 27.161 26.7312V27.1249H12.5877V26.623C12.5877 26.3544 12.3632 26.1368 12.0862 26.1368C11.8092 26.1368 11.5848 26.3544 11.5848 26.623V28.4618L8.14165 32.4957C7.32074 33.4565 5.3186 33.4856 5.3186 31.7269V30.1303H6.91175V30.651C6.91175 30.9196 7.1362 31.1372 7.41321 31.1372C7.69021 31.1372 7.91466 30.9196 7.91466 30.651V29.7726C8.23259 29.5049 8.43424 29.1105 8.43424 28.6712V27.7954L12.1338 23.1386C12.3052 22.9227 12.5354 22.7578 12.7986 22.662L17.3783 21.0021L20.0919 22.9834C20.288 23.1266 20.5465 23.0936 20.7272 22.96L23.4223 20.9922L29.7237 22.9172C30.6752 23.218 31.3146 24.0723 31.3146 25.043V26.5511C31.3146 26.8197 31.5391 27.0374 31.8161 27.0374ZM27.161 28.0974V31.172H18.5523C18.2753 31.172 18.0509 31.3896 18.0509 31.6582C18.0509 31.9268 18.2753 32.1445 18.5523 32.1445H27.1611V33.1831H12.5877V32.1445H16.3673C16.6443 32.1445 16.8688 31.9268 16.8688 31.6582C16.8688 31.3896 16.6443 31.172 16.3673 31.172H12.5877V28.0974H27.161ZM5.83784 21.4599C5.83784 21.1727 6.07874 20.9392 6.37473 20.9392C6.67085 20.9392 6.91169 21.1728 6.91169 21.4599V23.116H5.83784V21.4599ZM4.28032 24.5748C4.28032 24.3066 4.50524 24.0885 4.78177 24.0885H6.92961C7.20614 24.0885 7.43106 24.3066 7.43106 24.5748V25.13H5.85569C5.57869 25.13 5.35424 25.3476 5.35424 25.6162C5.35424 25.8848 5.57869 26.1025 5.85569 26.1025H7.43106V27.1439H5.85569C5.57869 27.1439 5.35424 27.3616 5.35424 27.6302C5.35424 27.8988 5.57869 28.1164 5.85569 28.1164H7.43106V28.6716C7.43106 28.9959 7.22827 29.1358 6.92994 29.1576L4.78177 29.1579C4.50524 29.1579 4.28032 28.9398 4.28032 28.6716V24.5748ZM27.3274 11.8751C27.3274 12.3541 26.9256 12.7437 26.4317 12.7437H25.9263V9.99123H26.4317C26.9257 9.99123 27.3274 10.3809 27.3274 10.8598V11.8751ZM13.9857 6.38059C13.9857 5.03995 15.1104 3.9493 16.4929 3.9493H17.296V7.55981V7.55994C17.296 8.36427 16.6211 9.01871 15.7916 9.01871H15.3623H13.9857V6.38059ZM14.3553 12.7437C13.8614 12.7437 13.4596 12.354 13.4596 11.8751V10.8599C13.4596 10.3809 13.8614 9.9913 14.3553 9.9913H14.8609V12.7437L14.3553 12.7437ZM15.8638 14.1439V9.98948C16.6536 9.9677 17.3532 9.59068 17.7975 9.01696C18.2553 9.60799 18.984 9.9911 19.8033 9.9911H24.9233L24.9234 14.1439C24.9234 19.4872 15.8638 19.4809 15.8638 14.1439ZM22.8259 18.7234V20.2089L20.3937 21.9861L17.9612 20.2088V18.7235C19.1569 19.4191 21.5416 19.3759 22.8259 18.7234Z" fill="white"/>
<path d="M6.02025 14.8597C6.25667 15.0495 6.49309 15.0495 6.72944 14.8597L8.80626 12.8457C9.0021 12.6557 9.0021 12.3479 8.8062 12.158C8.61043 11.9682 8.29291 11.9682 8.09707 12.158L6.37488 13.8281L5.69103 13.1649C5.49513 12.9751 5.17767 12.9751 4.98184 13.1649C4.786 13.3549 4.786 13.6627 4.98184 13.8526L6.02025 14.8597Z" fill="#FF3600"/>
<path d="M4.78171 18.0468H9.00643C9.8359 18.0468 10.5108 17.3923 10.5108 16.588V16.0328H12.0862C12.6158 16.0287 12.8498 15.6371 12.4428 15.2047L10.5108 13.3098V10.4314C10.5108 9.6271 9.8359 8.97266 9.00643 8.97266H4.78171C3.95223 8.97266 3.27734 9.6271 3.27734 10.4314V16.588C3.27734 17.3923 3.95217 18.0468 4.78171 18.0468ZM4.28025 10.4314C4.28025 10.1633 4.50517 9.94517 4.78171 9.94517H9.00643C9.28297 9.94517 9.50788 10.1633 9.50788 10.4314V13.5097C9.50788 13.6378 9.5599 13.7606 9.65277 13.8516L10.8853 15.0604H10.0093C9.73234 15.0604 9.50788 15.278 9.50788 15.5466V16.588C9.50788 16.8561 9.28297 17.0743 9.00643 17.0743H4.78171C4.50517 17.0743 4.28025 16.8561 4.28025 16.588V10.4314Z" fill="white"/>
</g>
<defs>
<clipPath id="clip0_345_11057">
<rect width="34.23" height="33.1927" fill="white" transform="translate(0.682617 0.962891)"/>
</clipPath>
</defs>
</svg>
