<svg width="35" height="36" viewBox="0 0 35 36" fill="none" xmlns="http://www.w3.org/2000/svg">
<g clip-path="url(#clip0_345_10860)">
<path d="M17.524 13.8454C19.7573 13.8454 21.5709 12.0318 21.5709 9.79854C21.3476 4.43202 13.7005 4.43202 13.4772 9.79854C13.4772 12.0318 15.2908 13.8454 17.524 13.8454ZM17.524 6.45546C19.3648 6.45546 20.8671 7.95781 20.8671 9.79854C20.6844 14.2312 14.3637 14.2312 14.181 9.79854C14.181 7.95781 15.6833 6.45546 17.524 6.45546ZM10.3371 11.646H11.3251C11.4537 12.0724 11.6229 12.4852 11.8327 12.8777L11.1357 13.5747C10.8447 13.8657 10.8447 14.3394 11.1357 14.6304L12.6922 16.1869C12.9696 16.4779 13.4704 16.4779 13.7479 16.1869L14.4449 15.4899C14.8374 15.6997 15.2502 15.8756 15.6766 15.9974V16.9855C15.6766 17.3983 16.0082 17.7299 16.421 17.7299H18.6271C19.0399 17.7299 19.3715 17.3983 19.3715 16.9855V15.9974C19.7979 15.8689 20.2039 15.6997 20.6032 15.4899L21.307 16.1869C21.5845 16.4779 22.0852 16.4779 22.3627 16.1869L23.9192 14.6304C24.2102 14.353 24.2102 13.8522 23.9192 13.5747L23.2222 12.8777C23.432 12.4852 23.6079 12.0724 23.7297 11.646H24.7178C25.1306 11.646 25.4622 11.3144 25.4622 10.9016V8.69546C25.4622 8.28265 25.1306 7.95105 24.7178 7.95105H23.7297C23.6011 7.5247 23.432 7.11189 23.2222 6.71939L23.9192 6.02235C24.2102 5.74489 24.2102 5.2441 23.9192 4.96664L22.3627 3.41015C22.0717 3.11915 21.598 3.11915 21.307 3.41015L20.6032 4.10718C20.2107 3.8974 19.7979 3.72144 19.3715 3.59963V2.6116C19.3715 2.19879 19.0399 1.86719 18.6271 1.86719H16.421C16.0082 1.86719 15.6766 2.19879 15.6766 2.6116V3.59963C15.2502 3.72821 14.8374 3.8974 14.4449 4.10718L13.7411 3.40338C13.4501 3.11238 12.9764 3.11238 12.6854 3.40338L11.1289 4.95987C10.8379 5.25087 10.8379 5.72458 11.1289 6.01558L11.8259 6.71262C11.6161 7.10513 11.447 7.51793 11.3184 7.94428H10.3303C9.91753 7.94428 9.58593 8.27588 9.58593 8.68869V10.8948C9.58593 11.3144 9.9243 11.646 10.3371 11.646ZM10.2897 8.69546C10.2897 8.66839 10.31 8.64808 10.3371 8.64808H11.5958C11.7583 8.64808 11.8936 8.53981 11.9342 8.38416C12.0696 7.84277 12.2861 7.32168 12.5771 6.8412C12.6583 6.70585 12.638 6.5299 12.523 6.41485L11.6297 5.52833C11.6094 5.50803 11.6094 5.48096 11.6297 5.46742L13.1862 3.91093C13.2065 3.89063 13.2335 3.8974 13.2471 3.91093L14.1404 4.79745C14.2554 4.9125 14.4314 4.9328 14.5667 4.85159C15.0472 4.5606 15.5683 4.35081 16.1097 4.20869C16.2653 4.16809 16.3736 4.02598 16.3736 3.87033V2.6116C16.3736 2.58453 16.3939 2.56423 16.421 2.56423H18.6271C18.6542 2.56423 18.6745 2.58453 18.6745 2.6116V3.87033C18.6745 4.03274 18.7828 4.16809 18.9384 4.20869C19.4798 4.34404 20.0009 4.5606 20.4814 4.85159C20.6167 4.9328 20.7994 4.9125 20.9077 4.79745L21.801 3.90416C21.8213 3.88386 21.8484 3.89063 21.8619 3.90416L23.4184 5.46066V5.52156L22.5319 6.41485C22.4168 6.5299 22.3965 6.70585 22.4778 6.8412C22.7688 7.32168 22.9853 7.84277 23.1207 8.38416C23.1613 8.53981 23.2966 8.64808 23.459 8.64808H24.7178C24.7448 8.64808 24.7651 8.66839 24.7651 8.69546V10.9016C24.7651 10.9287 24.7448 10.949 24.7178 10.949H23.459C23.2966 10.949 23.1545 11.0573 23.1207 11.2129C22.9853 11.7543 22.7688 12.2754 22.4778 12.7559C22.3965 12.8912 22.4168 13.0672 22.5319 13.1822L23.4184 14.0687V14.1296L21.8619 15.6861L22.1123 15.9365C21.889 15.8012 21.1107 14.9959 20.9077 14.7996C20.7927 14.6846 20.6167 14.6643 20.4814 14.7455C19.9941 15.0365 19.4798 15.253 18.9384 15.3884C18.7828 15.429 18.6745 15.5711 18.6745 15.7267V16.9855C18.6745 17.0125 18.6542 17.0328 18.6271 17.0328H16.421C16.3939 17.0328 16.3736 17.0125 16.3736 16.9855V15.7267C16.3736 15.5643 16.2653 15.4222 16.1097 15.3884C15.5683 15.253 15.0472 15.0365 14.5667 14.7455C14.4314 14.6643 14.2554 14.6846 14.1404 14.7996L13.2538 15.6861L13.5042 15.9365C13.3147 15.8418 11.8259 14.3191 11.6364 14.1296C11.6161 14.1093 11.6161 14.0823 11.6364 14.0687L12.523 13.1822C12.638 13.0672 12.6583 12.8912 12.5771 12.7559C12.2861 12.2754 12.0763 11.7543 11.9342 11.2129C11.8936 11.0573 11.7515 10.949 11.5958 10.949H10.3371C10.31 10.949 10.2897 10.9287 10.2897 10.9016V8.69546ZM24.1628 22.8054C24.1628 22.8122 24.1628 22.8122 24.1628 22.8054V22.8054ZM34.7267 23.8882C34.6252 23.4348 34.368 23.0423 34.0499 22.7648C34.4628 22.4941 34.7334 22.0001 34.7334 21.4452C34.7741 21.1474 34.571 20.8564 34.2665 20.8564C33.7725 20.8902 32.6559 20.7414 32.2295 21.0391L31.1332 18.8736C30.7542 18.1292 30.0369 17.669 29.2519 17.669H22.9041C22.004 17.6554 21.2258 18.2983 20.8807 19.151H14.499C14.3975 19.151 14.3028 19.1578 14.2013 19.1713C13.8561 18.3119 13.0711 17.6487 12.1643 17.669H5.81651C5.0315 17.669 4.30739 18.1292 3.92842 18.8736L2.83211 21.0391C2.40576 20.7414 1.28238 20.8835 0.795131 20.8564C0.490599 20.8496 0.294346 21.1474 0.33495 21.4452C0.33495 22.0001 0.605645 22.4941 1.01169 22.7648C0.707155 23.0287 0.46353 23.4009 0.348485 23.8273C0.10486 24.4769 0.537971 25.9793 0.612412 26.6493V29.6201C0.612412 30.148 1.01845 30.5811 1.51247 30.5811H3.0825C3.52238 30.5811 3.89458 30.2427 3.97579 29.7961H8.6385V32.6452C8.6385 33.2204 9.07838 33.6873 9.613 33.6873H11.3928C11.8801 33.6873 12.2861 33.3016 12.3606 32.8008H23.8177C23.8854 33.3016 24.2914 33.6873 24.7854 33.6873H26.5652C27.1066 33.6873 27.5465 33.2204 27.5465 32.6452V29.7961H31.0858C31.167 30.2427 31.5325 30.5811 31.9791 30.5811H33.5492C34.0499 30.5811 34.456 30.148 34.456 29.6201V26.629C34.5237 25.9996 34.9297 24.5108 34.7267 23.8882ZM32.9266 21.5602H34.0229C33.9755 21.973 33.6642 22.2979 33.292 22.2979C33.2582 22.2979 32.886 22.2979 32.8589 22.2911L32.5408 21.6685C32.6559 21.6008 32.7912 21.5602 32.9266 21.5602ZM22.8906 18.3795H29.2384C29.7527 18.3795 30.2332 18.6908 30.4971 19.1984C30.4971 19.1984 31.7761 21.7159 31.7761 21.7226C31.8099 21.8106 32.0197 22.2031 32.0671 22.2979L32.0603 22.2911H24.6839L23.7703 20.491C23.371 19.706 22.5387 19.1443 21.6521 19.151C21.9228 18.6705 22.3898 18.3795 22.8906 18.3795ZM14.4855 19.8616H21.686C22.2883 19.8616 22.85 20.227 23.1545 20.8158C23.6079 21.7091 24.5215 23.5092 24.9749 24.3957H11.2033C11.3996 24.01 11.8124 23.1979 12.0086 22.8122C12.6651 21.7429 12.9628 19.909 14.4855 19.8616ZM23.4184 26.1688C22.9853 26.338 22.6672 26.7169 22.5184 27.1568C22.5251 27.1298 22.5319 27.1094 22.5454 27.0824C22.5116 27.1704 22.4845 27.2583 22.471 27.3463C22.4845 27.2854 22.4981 27.2177 22.5251 27.1568C22.5048 27.2177 22.4845 27.2854 22.471 27.3463V27.3395H13.7073C13.3689 25.6951 11.1627 25.6409 10.7567 27.2719C10.08 27.0959 9.47766 26.6763 9.05131 26.1282C9.26787 25.4514 9.91753 25.0319 10.6281 25.0792C10.6213 25.0792 10.6078 25.0792 10.601 25.0725C10.7702 25.0725 10.9394 25.0792 11.1086 25.0792H20.5694H25.4013C26.1457 25.0048 26.8968 25.3905 27.1202 26.1349C26.6126 26.6425 26.1254 27.0824 25.408 27.2719C25.2456 26.4056 24.2508 25.8507 23.4184 26.1688ZM24.7584 27.6982C24.7313 28.9299 23.1545 28.9299 23.1274 27.705C23.1545 26.4733 24.7313 26.4665 24.7584 27.6982ZM13.0373 27.6982C13.0102 28.9299 11.4402 28.9299 11.4064 27.705C11.4334 26.4733 13.0102 26.4665 13.0373 27.6982ZM3.25845 21.7429C3.25168 21.7226 4.54425 19.2187 4.54425 19.1984C4.80141 18.6908 5.28189 18.3795 5.80298 18.3795H12.1508C12.7395 18.366 13.2674 18.8127 13.5042 19.3879C12.3944 19.9902 12.0425 21.2557 11.474 22.2979H2.98099L3.25845 21.7429ZM2.12153 21.5602C2.25688 21.5602 2.38546 21.6008 2.50727 21.6753L2.18921 22.2979C2.17567 22.3046 1.78317 22.3046 1.7561 22.3046C1.38389 22.3046 1.07259 21.9798 1.02522 21.567H2.12153V21.5602ZM3.07573 29.8773H1.5057C1.24178 29.8705 1.31622 29.4307 1.30268 29.2547C1.51924 29.5051 1.81023 29.6946 2.1283 29.7623C2.33132 29.8232 2.99452 29.7893 3.21785 29.7961C3.18401 29.8502 3.12987 29.8773 3.07573 29.8773ZM2.43283 29.0991C1.98619 29.0991 1.65459 28.6862 1.59368 28.2667L1.30268 26.541C1.30268 26.5207 1.28915 26.5004 1.28915 26.4801L1.01169 24.8153C1.43803 25.1672 1.93205 25.4244 2.47344 25.5462C2.76443 27.0824 4.80818 27.123 5.16008 25.6003H8.53022C8.46255 25.7357 8.39488 25.8778 8.36104 26.0267H7.89409C7.10231 26.0267 6.40527 26.4395 6.14135 27.0418L5.715 28.0366C5.66763 28.1449 5.68117 28.2667 5.74884 28.3682C5.80975 28.4697 5.92479 28.5238 6.03984 28.5238H8.51669L8.61143 29.0788H2.43283V29.0991ZM3.13664 25.2552C3.12987 24.6935 3.67126 24.2807 4.13144 24.5649C4.6999 24.9168 4.55102 26.0334 3.80661 26.0334C3.44117 26.0402 3.13664 25.6883 3.13664 25.2552ZM5.18038 25.0792C5.20745 25.2552 5.19392 25.4379 5.15331 25.6071C5.18715 25.4379 5.19392 25.2552 5.18038 25.0792ZM8.246 26.9403C8.25276 27.123 8.36104 27.6576 8.38811 27.8403H6.56092L6.77748 27.3328C6.92636 26.9876 7.37977 26.744 7.88056 26.744H8.23923C8.23923 26.8049 8.246 26.8726 8.246 26.9403ZM5.15331 24.9101C5.16685 24.9642 5.17361 25.0251 5.18038 25.0792C4.99089 23.5024 2.94715 23.3265 2.49374 24.8356C1.93881 24.6732 1.41773 24.3348 1.05906 23.8746C1.24178 23.3806 1.66135 23.0423 2.1283 23.0017H11.1154C10.98 23.3468 10.4251 24.098 10.2221 24.4025C9.81602 24.4499 9.36938 24.5988 9.07161 24.9033H5.15331V24.9101ZM11.3928 32.9903H9.60624C9.22726 32.9767 9.34908 32.3609 9.33554 32.1105C9.85663 32.882 10.8244 32.8414 11.6364 32.8076C11.5891 32.9158 11.4943 32.9903 11.3928 32.9903ZM26.8359 32.6519C26.8359 32.8346 26.7074 32.9903 26.5585 32.9903H24.7787C24.6704 32.9903 24.5824 32.9158 24.535 32.8076C24.5553 32.8482 24.9952 32.8008 25.0494 32.8008C25.7126 32.8549 26.457 32.7061 26.8427 32.1105V32.6519H26.8359ZM27.1878 27.123C27.0796 27.8065 26.9578 28.49 26.8427 29.1735L26.5111 31.1225C26.4164 31.691 25.9968 32.1038 25.5163 32.1038H10.6619C10.1747 32.1038 9.75512 31.691 9.66037 31.1225C9.54533 30.4525 9.2611 28.7878 9.15282 28.1449L8.97687 27.0891C9.47089 27.5358 10.0867 27.8674 10.7432 28.0027C11.0409 29.7352 13.3554 29.7826 13.7073 28.0569H22.471L22.4642 28.0501C22.4372 27.9351 22.4304 27.82 22.4304 27.6982C22.4642 29.654 25.0561 29.9517 25.4351 27.996C26.0848 27.8606 26.6871 27.529 27.1946 27.0891L27.1878 27.123ZM27.0931 24.9101C26.7277 24.5649 26.2404 24.4431 25.7532 24.3957C25.7532 24.3957 25.0494 23.0017 25.0426 23.0017L25.0494 23.0084H32.9198C33.3867 23.049 33.8063 23.3942 33.989 23.8814C33.6033 24.2942 33.1296 24.7138 32.5611 24.8424C32.5138 24.6867 32.4528 24.5378 32.3581 24.4025V24.4093C31.6814 23.3671 30.1316 23.7258 29.888 24.9168C29.8948 24.9101 27.0931 24.9101 27.0931 24.9101ZM32.4393 24.5311C32.4258 24.4972 32.4055 24.4702 32.3852 24.4363C32.4055 24.4702 32.419 24.504 32.4393 24.5311ZM31.9115 25.2552C31.8979 26.2838 30.5715 26.2838 30.558 25.2552C30.5715 24.2469 31.8776 24.1995 31.9115 25.2552ZM33.7454 29.6201C33.7454 29.7623 33.6574 29.8773 33.5424 29.8773H31.9724C31.9182 29.8773 31.8641 29.8435 31.8302 29.7961C32.0739 29.7826 32.7235 29.8299 32.9469 29.7555C33.2582 29.6878 33.5424 29.4983 33.7454 29.2547V29.6201ZM33.7657 26.4801C33.7657 26.5004 33.7522 26.5207 33.7522 26.541L33.4612 28.2667C33.38 28.7471 33.0281 29.0991 32.622 29.0991H27.5736L27.6683 28.5441H29.0218C29.2654 28.5509 29.4481 28.2802 29.3466 28.0569L28.9203 27.0621C28.7443 26.6425 28.3518 26.3177 27.851 26.1552H27.8578C27.8104 25.9725 27.7428 25.783 27.6548 25.6206H29.9016C30.2535 27.1433 32.2904 27.0959 32.5882 25.5665C33.1161 25.4311 33.6236 25.1875 34.0432 24.8356L33.7657 26.4801ZM27.7834 27.8403C27.8104 27.6576 27.9119 27.123 27.9187 26.947C28.2435 27.1094 28.3518 27.5493 28.4872 27.8403H27.7834ZM30.4632 24.0235C30.47 24.0235 30.47 24.0235 30.4632 24.0235V24.0235ZM1.43126 25.1266C1.4854 25.1604 1.53277 25.1875 1.58691 25.2146C1.5057 25.174 1.43126 25.1334 1.36359 25.0792C1.37712 25.0928 1.40419 25.1063 1.43126 25.1266ZM4.19235 23.8273C4.19911 23.8205 4.19911 23.8273 4.20588 23.8273C4.20588 23.8273 4.20588 23.8273 4.19911 23.834C4.19235 23.8273 4.19235 23.8273 4.19235 23.8273ZM21.2732 29.7555C20.9889 29.0855 20.2107 28.6389 19.3309 28.6389H16.8405C15.9608 28.6389 15.1825 29.0855 14.8983 29.7555L14.4178 30.8924C14.3163 31.1157 14.499 31.3864 14.7427 31.3797H21.4356C21.6792 31.3864 21.8619 31.1157 21.7604 30.8924C21.7536 30.8924 21.2732 29.7555 21.2732 29.7555ZM15.2705 30.6758L15.5412 30.0329C15.7172 29.6201 16.2518 29.3359 16.8405 29.3359H19.3309C19.9197 29.3359 20.4543 29.6201 20.6235 30.0329L20.8942 30.6758H15.2705Z" fill="white"/>
<circle cx="17.5239" cy="9.76514" r="3.55811" stroke="#FF3600"/>
</g>
<defs>
<clipPath id="clip0_345_10860">
<rect width="34.6489" height="34.6489" fill="white" transform="translate(0.199707 0.453125)"/>
</clipPath>
</defs>
</svg>
