<svg width="55" height="55" viewBox="0 0 55 55" fill="none" xmlns="http://www.w3.org/2000/svg">
<path d="M48.9844 5.15625H43.8281V4.29688C43.8281 3.61311 43.5565 2.95736 43.073 2.47387C42.5895 1.99037 41.9338 1.71875 41.25 1.71875C40.5662 1.71875 39.9105 1.99037 39.427 2.47387C38.9435 2.95736 38.6719 3.61311 38.6719 4.29688V5.15625H30.0781V4.29688C30.0781 3.61311 29.8065 2.95736 29.323 2.47387C28.8395 1.99037 28.1838 1.71875 27.5 1.71875C26.8162 1.71875 26.1605 1.99037 25.677 2.47387C25.1935 2.95736 24.9219 3.61311 24.9219 4.29688V5.15625H16.3281V4.29688C16.3281 3.61311 16.0565 2.95736 15.573 2.47387C15.0895 1.99037 14.4338 1.71875 13.75 1.71875C13.0662 1.71875 12.4105 1.99037 11.927 2.47387C11.4435 2.95736 11.1719 3.61311 11.1719 4.29688V5.15625H6.01562C4.87642 5.15753 3.78423 5.61065 2.97869 6.41619C2.17315 7.22173 1.72003 8.31392 1.71875 9.45312V48.9844C1.72003 50.1236 2.17315 51.2158 2.97869 52.0213C3.78423 52.8269 4.87642 53.28 6.01562 53.2812H48.9844C50.1236 53.28 51.2158 52.8269 52.0213 52.0213C52.8269 51.2158 53.28 50.1236 53.2812 48.9844V9.45312C53.28 8.31392 52.8269 7.22173 52.0213 6.41619C51.2158 5.61065 50.1236 5.15753 48.9844 5.15625ZM40.3906 4.29688C40.3906 4.06895 40.4812 3.85037 40.6423 3.68921C40.8035 3.52804 41.0221 3.4375 41.25 3.4375C41.4779 3.4375 41.6965 3.52804 41.8577 3.68921C42.0188 3.85037 42.1094 4.06895 42.1094 4.29688V9.45312C42.1094 9.68105 42.0188 9.89963 41.8577 10.0608C41.6965 10.222 41.4779 10.3125 41.25 10.3125C41.0221 10.3125 40.8035 10.222 40.6423 10.0608C40.4812 9.89963 40.3906 9.68105 40.3906 9.45312V4.29688ZM26.6406 4.29688C26.6406 4.06895 26.7312 3.85037 26.8923 3.68921C27.0535 3.52804 27.2721 3.4375 27.5 3.4375C27.7279 3.4375 27.9465 3.52804 28.1077 3.68921C28.2688 3.85037 28.3594 4.06895 28.3594 4.29688V9.45312C28.3594 9.68105 28.2688 9.89963 28.1077 10.0608C27.9465 10.222 27.7279 10.3125 27.5 10.3125C27.2721 10.3125 27.0535 10.222 26.8923 10.0608C26.7312 9.89963 26.6406 9.68105 26.6406 9.45312V4.29688ZM12.8906 4.29688C12.8906 4.06895 12.9812 3.85037 13.1423 3.68921C13.3035 3.52804 13.5221 3.4375 13.75 3.4375C13.9779 3.4375 14.1965 3.52804 14.3577 3.68921C14.5188 3.85037 14.6094 4.06895 14.6094 4.29688V9.45312C14.6094 9.68105 14.5188 9.89963 14.3577 10.0608C14.1965 10.222 13.9779 10.3125 13.75 10.3125C13.5221 10.3125 13.3035 10.222 13.1423 10.0608C12.9812 9.89963 12.8906 9.68105 12.8906 9.45312V4.29688ZM6.01562 6.875H11.1719V9.45312C11.1719 10.1369 11.4435 10.7926 11.927 11.2761C12.4105 11.7596 13.0662 12.0312 13.75 12.0312C14.4338 12.0312 15.0895 11.7596 15.573 11.2761C16.0565 10.7926 16.3281 10.1369 16.3281 9.45312V6.875H24.9219V9.45312C24.9219 10.1369 25.1935 10.7926 25.677 11.2761C26.1605 11.7596 26.8162 12.0312 27.5 12.0312C28.1838 12.0312 28.8395 11.7596 29.323 11.2761C29.8065 10.7926 30.0781 10.1369 30.0781 9.45312V6.875H38.6719V9.45312C38.6719 10.1369 38.9435 10.7926 39.427 11.2761C39.9105 11.7596 40.5662 12.0312 41.25 12.0312C41.9338 12.0312 42.5895 11.7596 43.073 11.2761C43.5565 10.7926 43.8281 10.1369 43.8281 9.45312V6.875H48.9844C49.6679 6.8758 50.3232 7.14767 50.8065 7.63099C51.2898 8.11431 51.5617 8.76961 51.5625 9.45312V15.4688H3.4375V9.45312C3.4383 8.76961 3.71017 8.11431 4.19349 7.63099C4.67681 7.14767 5.33211 6.8758 6.01562 6.875ZM48.9844 51.5625H6.01562C5.33211 51.5617 4.67681 51.2898 4.19349 50.8065C3.71017 50.3232 3.4383 49.6679 3.4375 48.9844V17.1875H51.5625V48.9844C51.5617 49.6679 51.2898 50.3232 50.8065 50.8065C50.3232 51.2898 49.6679 51.5617 48.9844 51.5625Z" fill="white"/>
<path d="M47.2656 23.2031H43.8281C43.6002 23.2031 43.3816 23.2937 43.2205 23.4548C43.0593 23.616 42.9688 23.8346 42.9688 24.0625V27.5C42.9688 27.7279 43.0593 27.9465 43.2205 28.1077C43.3816 28.2688 43.6002 28.3594 43.8281 28.3594H47.2656C47.4935 28.3594 47.7121 28.2688 47.8733 28.1077C48.0345 27.9465 48.125 27.7279 48.125 27.5V24.0625C48.125 23.8346 48.0345 23.616 47.8733 23.4548C47.7121 23.2937 47.4935 23.2031 47.2656 23.2031ZM46.4062 26.6406H44.6875V24.9219H46.4062V26.6406Z" fill="white"/>
<path d="M30.0781 40.3906H26.6406C26.4127 40.3906 26.1941 40.4812 26.033 40.6423C25.8718 40.8035 25.7812 41.0221 25.7812 41.25V44.6875C25.7812 44.9154 25.8718 45.134 26.033 45.2952C26.1941 45.4563 26.4127 45.5469 26.6406 45.5469H30.0781C30.306 45.5469 30.5246 45.4563 30.6858 45.2952C30.847 45.134 30.9375 44.9154 30.9375 44.6875V41.25C30.9375 41.0221 30.847 40.8035 30.6858 40.6423C30.5246 40.4812 30.306 40.3906 30.0781 40.3906ZM29.2188 43.8281H27.5V42.1094H29.2188V43.8281Z" fill="white"/>
<path d="M21.4844 23.2031H18.0469C17.819 23.2031 17.6004 23.2937 17.4392 23.4548C17.278 23.616 17.1875 23.8346 17.1875 24.0625V27.5C17.1875 27.7279 17.278 27.9465 17.4392 28.1077C17.6004 28.2688 17.819 28.3594 18.0469 28.3594H21.4844C21.7123 28.3594 21.9309 28.2688 22.092 28.1077C22.2532 27.9465 22.3438 27.7279 22.3438 27.5V24.0625C22.3438 23.8346 22.2532 23.616 22.092 23.4548C21.9309 23.2937 21.7123 23.2031 21.4844 23.2031ZM20.625 26.6406H18.9062V24.9219H20.625V26.6406Z" fill="white"/>
<path d="M12.8906 31.7969H9.45312C9.2252 31.7969 9.00662 31.8874 8.84546 32.0486C8.68429 32.2097 8.59375 32.4283 8.59375 32.6562V36.0938C8.59375 36.3217 8.68429 36.5403 8.84546 36.7014C9.00662 36.8626 9.2252 36.9531 9.45312 36.9531H12.8906C13.1185 36.9531 13.3371 36.8626 13.4983 36.7014C13.6595 36.5403 13.75 36.3217 13.75 36.0938V32.6562C13.75 32.4283 13.6595 32.2097 13.4983 32.0486C13.3371 31.8874 13.1185 31.7969 12.8906 31.7969ZM12.0312 35.2344H10.3125V33.5156H12.0312V35.2344Z" fill="white"/>
<path d="M21.4844 31.7969H18.0469C17.819 31.7969 17.6004 31.8874 17.4392 32.0486C17.278 32.2097 17.1875 32.4283 17.1875 32.6562V36.0938C17.1875 36.3217 17.278 36.5403 17.4392 36.7014C17.6004 36.8626 17.819 36.9531 18.0469 36.9531H21.4844C21.7123 36.9531 21.9309 36.8626 22.092 36.7014C22.2532 36.5403 22.3438 36.3217 22.3438 36.0938V32.6562C22.3438 32.4283 22.2532 32.2097 22.092 32.0486C21.9309 31.8874 21.7123 31.7969 21.4844 31.7969ZM20.625 35.2344H18.9062V33.5156H20.625V35.2344Z" fill="white"/>
<path d="M12.8906 40.3906H9.45312C9.2252 40.3906 9.00662 40.4812 8.84546 40.6423C8.68429 40.8035 8.59375 41.0221 8.59375 41.25V44.6875C8.59375 44.9154 8.68429 45.134 8.84546 45.2952C9.00662 45.4563 9.2252 45.5469 9.45312 45.5469H12.8906C13.1185 45.5469 13.3371 45.4563 13.4983 45.2952C13.6595 45.134 13.75 44.9154 13.75 44.6875V41.25C13.75 41.0221 13.6595 40.8035 13.4983 40.6423C13.3371 40.4812 13.1185 40.3906 12.8906 40.3906ZM12.0312 43.8281H10.3125V42.1094H12.0312V43.8281Z" fill="white"/>
<path d="M21.4844 40.3906H18.0469C17.819 40.3906 17.6004 40.4812 17.4392 40.6423C17.278 40.8035 17.1875 41.0221 17.1875 41.25V44.6875C17.1875 44.9154 17.278 45.134 17.4392 45.2952C17.6004 45.4563 17.819 45.5469 18.0469 45.5469H21.4844C21.7123 45.5469 21.9309 45.4563 22.092 45.2952C22.2532 45.134 22.3438 44.9154 22.3438 44.6875V41.25C22.3438 41.0221 22.2532 40.8035 22.092 40.6423C21.9309 40.4812 21.7123 40.3906 21.4844 40.3906ZM20.625 43.8281H18.9062V42.1094H20.625V43.8281Z" fill="white"/>
<path d="M39.661 26.7463L35.3642 26.0898L33.4342 21.9786C33.3649 21.8309 33.2549 21.7059 33.1171 21.6184C32.9793 21.5309 32.8195 21.4844 32.6563 21.4844C32.493 21.4844 32.3332 21.5309 32.1954 21.6184C32.0577 21.7059 31.9477 21.8309 31.8783 21.9786L29.9492 26.0898L25.6524 26.7463C25.4961 26.7701 25.3494 26.8365 25.2284 26.9383C25.1074 27.0401 25.0169 27.1733 24.9667 27.3232C24.9166 27.4731 24.9087 27.6339 24.944 27.788C24.9794 27.9421 25.0565 28.0835 25.167 28.1965L28.3017 31.4092L27.5605 35.9559C27.5348 36.1149 27.5544 36.2778 27.6168 36.4262C27.6793 36.5746 27.7822 36.7025 27.9138 36.7952C28.0454 36.888 28.2004 36.9419 28.3612 36.9508C28.5219 36.9598 28.6819 36.9234 28.823 36.8458L32.6563 34.727L36.4895 36.8458C36.6307 36.9238 36.7909 36.9606 36.952 36.9518C37.113 36.943 37.2683 36.8891 37.4002 36.7962C37.532 36.7033 37.6351 36.5752 37.6976 36.4265C37.76 36.2778 37.7794 36.1146 37.7534 35.9554L37.0122 31.4086L40.1469 28.196C40.2574 28.0829 40.3345 27.9416 40.3699 27.7875C40.4052 27.6334 40.3974 27.4726 40.3472 27.3226C40.297 27.1727 40.2065 27.0396 40.0855 26.9378C39.9645 26.836 39.8179 26.7696 39.6616 26.7458L39.661 26.7463ZM35.4787 30.5187C35.3847 30.6149 35.3147 30.7319 35.2742 30.8602C35.2337 30.9884 35.2239 31.1244 35.2456 31.2572L35.7719 34.4853L33.0718 32.9922C32.9445 32.9218 32.8015 32.8849 32.656 32.8849C32.5106 32.8849 32.3676 32.9218 32.2403 32.9922L29.5402 34.4853L30.0665 31.2572C30.0882 31.1244 30.0784 30.9884 30.0379 30.8602C29.9974 30.7319 29.9274 30.6149 29.8334 30.5187L27.5645 28.1928L30.6618 27.7201C30.8012 27.6988 30.9333 27.6434 31.0464 27.559C31.1594 27.4745 31.2499 27.3635 31.3098 27.2357L32.6563 24.3664L34.0028 27.2352C34.0628 27.3629 34.1532 27.4739 34.2663 27.5584C34.3793 27.6429 34.5114 27.6982 34.6509 27.7196L37.7482 28.1922L35.4787 30.5187Z" fill="#FF3600"/>
<path d="M47.2656 31.7969H43.8281C43.6002 31.7969 43.3816 31.8874 43.2205 32.0486C43.0593 32.2097 42.9688 32.4283 42.9688 32.6562V36.0938C42.9688 36.3217 43.0593 36.5403 43.2205 36.7014C43.3816 36.8626 43.6002 36.9531 43.8281 36.9531H47.2656C47.4935 36.9531 47.7121 36.8626 47.8733 36.7014C48.0345 36.5403 48.125 36.3217 48.125 36.0938V32.6562C48.125 32.4283 48.0345 32.2097 47.8733 32.0486C47.7121 31.8874 47.4935 31.7969 47.2656 31.7969ZM46.4062 35.2344H44.6875V33.5156H46.4062V35.2344Z" fill="white"/>
<path d="M47.2656 40.3906H43.8281C43.6002 40.3906 43.3816 40.4812 43.2205 40.6423C43.0593 40.8035 42.9688 41.0221 42.9688 41.25V44.6875C42.9688 44.9154 43.0593 45.134 43.2205 45.2952C43.3816 45.4563 43.6002 45.5469 43.8281 45.5469H47.2656C47.4935 45.5469 47.7121 45.4563 47.8733 45.2952C48.0345 45.134 48.125 44.9154 48.125 44.6875V41.25C48.125 41.0221 48.0345 40.8035 47.8733 40.6423C47.7121 40.4812 47.4935 40.3906 47.2656 40.3906ZM46.4062 43.8281H44.6875V42.1094H46.4062V43.8281Z" fill="white"/>
<path d="M38.6719 40.3906H35.2344C35.0065 40.3906 34.7879 40.4812 34.6267 40.6423C34.4655 40.8035 34.375 41.0221 34.375 41.25V44.6875C34.375 44.9154 34.4655 45.134 34.6267 45.2952C34.7879 45.4563 35.0065 45.5469 35.2344 45.5469H38.6719C38.8998 45.5469 39.1184 45.4563 39.2795 45.2952C39.4407 45.134 39.5312 44.9154 39.5312 44.6875V41.25C39.5312 41.0221 39.4407 40.8035 39.2795 40.6423C39.1184 40.4812 38.8998 40.3906 38.6719 40.3906ZM37.8125 43.8281H36.0938V42.1094H37.8125V43.8281Z" fill="white"/>
</svg>
