<svg width="21" height="21" viewBox="0 0 21 21" fill="none" xmlns="http://www.w3.org/2000/svg">
<path d="M15.7576 13.821L15.0441 13.2382L14.1863 10.4347C14.146 10.3045 14.0729 10.1868 13.9741 10.0928C13.8753 9.99887 13.7541 9.9318 13.622 9.89802C12.4483 9.61877 11.2452 9.48268 10.0388 9.4927C8.83247 9.48268 7.62934 9.61877 6.45571 9.89802C6.32341 9.9317 6.20199 9.99881 6.10309 10.0929C6.00418 10.187 5.9311 10.3049 5.89086 10.4354L5.03305 13.2388L4.32008 13.821C4.1691 13.944 4.04747 14.0991 3.96405 14.2751C3.88063 14.4511 3.83753 14.6434 3.83789 14.8382V16.9468C3.83835 17.1342 3.9052 17.3154 4.02657 17.4582C4.14793 17.601 4.31597 17.6962 4.50086 17.7269V18.7785C4.50103 18.9614 4.57376 19.1368 4.7031 19.2661C4.83243 19.3954 5.0078 19.4682 5.19071 19.4683H6.41258C6.59549 19.4682 6.77086 19.3954 6.90019 19.2661C7.02953 19.1368 7.10226 18.9614 7.10242 18.7785V17.7402H12.9763V18.7783C12.9765 18.9613 13.0493 19.1366 13.1787 19.266C13.308 19.3954 13.4834 19.4681 13.6663 19.4683H14.8879C15.0708 19.4681 15.2462 19.3954 15.3756 19.266C15.5049 19.1366 15.5777 18.9613 15.5779 18.7783V17.7269C15.7628 17.6962 15.9308 17.601 16.0522 17.4582C16.1736 17.3154 16.2404 17.1342 16.2409 16.9468V14.8382C16.2411 14.6433 16.1979 14.4509 16.1142 14.2749C16.0306 14.099 15.9088 13.9439 15.7576 13.821ZM6.55446 18.7785C6.55446 18.8164 6.53939 18.8528 6.51258 18.8796C6.48577 18.9064 6.4494 18.9215 6.41149 18.9215H5.18961C5.15169 18.9215 5.11533 18.9064 5.08852 18.8796C5.06171 18.8528 5.04664 18.8164 5.04664 18.7785V17.7402H6.55446V18.7785ZM14.887 18.9215H13.6659C13.6279 18.9214 13.5915 18.9063 13.5647 18.8795C13.5379 18.8527 13.5228 18.8163 13.5227 18.7783V17.7402H15.0305V18.7783C15.0305 18.8163 15.0154 18.8527 14.9886 18.8795C14.9618 18.9063 14.9254 18.9214 14.8874 18.9215H14.887ZM15.693 16.9468C15.693 17.0121 15.667 17.0748 15.6207 17.121C15.5745 17.1672 15.5119 17.1932 15.4465 17.1933H4.63071C4.56534 17.1932 4.50267 17.1672 4.45645 17.121C4.41023 17.0748 4.38423 17.0121 4.38414 16.9468V14.8382C4.38387 14.7245 4.40897 14.6122 4.45763 14.5095C4.50629 14.4068 4.57727 14.3162 4.66539 14.2444L5.44321 13.6091C5.485 13.5748 5.51576 13.5289 5.53164 13.4772L6.41383 10.5946C6.42603 10.5539 6.44864 10.5171 6.47941 10.4878C6.51018 10.4586 6.54806 10.4378 6.5893 10.4277C7.71924 10.1595 8.87753 10.0291 10.0388 10.0396C11.2001 10.0292 12.3583 10.1595 13.4882 10.4277C13.5295 10.4378 13.5674 10.4586 13.5982 10.4879C13.629 10.5172 13.6517 10.554 13.6638 10.5947L14.546 13.4774C14.5619 13.5291 14.5927 13.575 14.6345 13.6093L15.4123 14.2444C15.5004 14.3162 15.5713 14.4068 15.62 14.5095C15.6686 14.6122 15.6938 14.7245 15.6935 14.8382L15.693 16.9468Z" fill="white"/>
<path d="M6.30339 13.5914C7.54253 13.7439 8.79046 13.8134 10.0389 13.7997C11.2873 13.8134 12.5352 13.7438 13.7743 13.5914C13.8136 13.586 13.8513 13.5722 13.8847 13.5508C13.9181 13.5294 13.9465 13.5011 13.9679 13.4676C13.9892 13.4342 14.0031 13.3965 14.0084 13.3572C14.0138 13.3179 14.0105 13.2779 13.9989 13.24L13.3104 10.99C13.2963 10.9435 13.27 10.9017 13.2343 10.8687C13.1986 10.8357 13.1548 10.8129 13.1073 10.8025C12.0984 10.5904 11.0698 10.4865 10.0389 10.4925C9.00791 10.4858 7.97921 10.5897 6.97042 10.8025C6.92298 10.8129 6.87917 10.8358 6.84347 10.8687C6.80778 10.9017 6.78149 10.9435 6.7673 10.99L6.07886 13.24C6.06727 13.2779 6.06405 13.3178 6.06942 13.3571C6.0748 13.3964 6.08865 13.434 6.11 13.4674C6.13136 13.5007 6.15971 13.5291 6.19311 13.5504C6.2265 13.5718 6.26413 13.5856 6.30339 13.5909V13.5914ZM7.24355 11.3039C8.16418 11.1228 9.1006 11.0342 10.0389 11.0394C10.9773 11.0349 11.9139 11.1239 12.8348 11.305L13.3807 13.0895C12.2708 13.2071 11.155 13.2616 10.0389 13.2528C8.92272 13.2617 7.80697 13.2073 6.69699 13.0898L7.24355 11.3039Z" fill="white"/>
<path d="M11.2078 15.0918H8.8697C8.79258 15.0918 8.71642 15.1089 8.64675 15.142C8.57708 15.175 8.51565 15.2232 8.46692 15.283C8.41819 15.3428 8.38339 15.4126 8.36503 15.4875C8.34667 15.5624 8.34522 15.6405 8.36079 15.716L8.51016 16.4426C8.53451 16.5596 8.59836 16.6648 8.69102 16.7403C8.78368 16.8159 8.89951 16.8573 9.01907 16.8576H11.0584C11.178 16.8573 11.2938 16.8159 11.3865 16.7403C11.4792 16.6648 11.543 16.5596 11.5674 16.4426L11.7167 15.716C11.7323 15.6405 11.7308 15.5624 11.7125 15.4875C11.6941 15.4126 11.6593 15.3428 11.6106 15.283C11.5619 15.2232 11.5004 15.175 11.4308 15.142C11.3611 15.1089 11.2849 15.0918 11.2078 15.0918ZM8.90298 15.6387H9.76532V16.3105H9.04126L8.90298 15.6387ZM11.0363 16.3105H10.3122V15.6387H11.1745L11.0363 16.3105Z" fill="white"/>
<path d="M15.0255 15.1131C14.9241 15.0353 14.8061 14.9823 14.6806 14.9582C14.5552 14.934 14.4259 14.9395 14.303 14.974L13.315 15.2479C13.1729 15.2876 13.0477 15.3727 12.9584 15.4902C12.8691 15.6077 12.8206 15.7511 12.8203 15.8987V16.1671C12.8205 16.3462 12.8918 16.5179 13.0184 16.6445C13.145 16.7711 13.3167 16.8423 13.4958 16.8424H14.677C14.8559 16.842 15.0273 16.7707 15.1538 16.6441C15.2802 16.5175 15.3513 16.346 15.3516 16.1671V15.7718C15.3521 15.6442 15.3229 15.5183 15.2663 15.4039C15.2097 15.2896 15.1272 15.19 15.0255 15.1131ZM14.8052 16.1671C14.8051 16.2012 14.7915 16.2339 14.7674 16.2579C14.7433 16.282 14.7106 16.2956 14.6766 16.2956H13.4953C13.4612 16.2956 13.4285 16.282 13.4044 16.2579C13.3803 16.2339 13.3668 16.2012 13.3667 16.1671V15.8987C13.3668 15.8707 13.3759 15.8434 13.3928 15.8211C13.4098 15.7988 13.4335 15.7825 13.4605 15.7749L14.4486 15.501C14.4733 15.4942 14.4988 15.4908 14.5244 15.4907C14.5988 15.491 14.6701 15.5207 14.7226 15.5734C14.7752 15.6261 14.8047 15.6975 14.8047 15.772L14.8052 16.1671Z" fill="white"/>
<path d="M6.76328 15.2471L5.775 14.9732C5.65209 14.9393 5.523 14.9342 5.3978 14.9584C5.2726 14.9825 5.15467 15.0353 5.0532 15.1125C4.95173 15.1897 4.86946 15.2893 4.81281 15.4035C4.75615 15.5177 4.72663 15.6435 4.72656 15.771V16.1663C4.72677 16.3454 4.79801 16.5171 4.92464 16.6437C5.05128 16.7703 5.22296 16.8415 5.40203 16.8416H6.58328C6.76235 16.8415 6.93404 16.7703 7.06067 16.6437C7.18731 16.5171 7.25854 16.3454 7.25875 16.1663V15.8979C7.25841 15.7502 7.20981 15.6067 7.12037 15.4892C7.03092 15.3718 6.90552 15.2867 6.76328 15.2471ZM6.71141 16.1663C6.71136 16.2004 6.6978 16.2331 6.67369 16.2572C6.64958 16.2812 6.61689 16.2948 6.58281 16.2948H5.40156C5.36748 16.2948 5.3348 16.2812 5.31069 16.2572C5.28658 16.2331 5.27301 16.2004 5.27297 16.1663V15.771C5.27297 15.6966 5.30247 15.6252 5.35501 15.5725C5.40756 15.5198 5.47885 15.49 5.55328 15.4898C5.57884 15.4898 5.60427 15.4933 5.62891 15.5001L6.61719 15.7741C6.64415 15.7818 6.66789 15.798 6.68481 15.8203C6.70173 15.8426 6.7109 15.8699 6.71094 15.8979L6.71141 16.1663Z" fill="white"/>
<path d="M14.2767 1.10742C13.428 1.11035 12.6131 1.44047 12.0016 2.02908C11.3902 2.61768 11.0293 3.41943 10.9941 4.26742C10.9588 5.11542 11.252 5.94433 11.8125 6.58163C12.373 7.21893 13.1577 7.61551 14.0033 7.68883V8.9782C14.0033 9.05072 14.0321 9.12027 14.0834 9.17155C14.1347 9.22283 14.2042 9.25164 14.2767 9.25164C14.3492 9.25164 14.4188 9.22283 14.4701 9.17155C14.5214 9.12027 14.5502 9.05072 14.5502 8.9782V7.68883C15.3957 7.61551 16.1804 7.21893 16.741 6.58163C17.3015 5.94433 17.5946 5.11542 17.5594 4.26742C17.5242 3.41943 17.1633 2.61768 16.5518 2.02908C15.9403 1.44047 15.1254 1.11035 14.2767 1.10742ZM14.2767 4.80383C14.1047 4.80386 13.9364 4.75286 13.7933 4.65728C13.6502 4.5617 13.5387 4.42584 13.4728 4.26687C13.407 4.1079 13.3897 3.93297 13.4233 3.76419C13.4568 3.59542 13.5397 3.44039 13.6613 3.3187C13.783 3.19701 13.938 3.11414 14.1068 3.08056C14.2756 3.04697 14.4505 3.06419 14.6095 3.13004C14.7685 3.19588 14.9043 3.30739 14.9999 3.45047C15.0955 3.59354 15.1466 3.76175 15.1466 3.93383C15.1463 4.16446 15.0546 4.38558 14.8915 4.54868C14.7285 4.71178 14.5074 4.80354 14.2767 4.80383ZM13.7142 5.23336C13.8917 5.31062 14.0832 5.35049 14.2767 5.35049C14.4703 5.35049 14.6618 5.31062 14.8392 5.23336L15.7044 5.42477C15.7952 5.44541 15.8764 5.49619 15.9347 5.56885C15.993 5.64151 16.025 5.73176 16.0255 5.82492V6.52633C15.5334 6.9331 14.9149 7.15562 14.2764 7.15562C13.638 7.15562 13.0195 6.9331 12.5274 6.52633V5.82477C12.5269 5.73136 12.5585 5.64063 12.617 5.56778C12.6754 5.49493 12.7572 5.44439 12.8484 5.42461L13.7142 5.23336ZM16.5736 5.91617V5.82508C16.5747 5.60698 16.5008 5.39514 16.3642 5.22508C16.2277 5.05502 16.0368 4.93707 15.8236 4.89102L15.3984 4.79727C15.5604 4.58771 15.6604 4.33696 15.687 4.07346C15.7137 3.80995 15.6659 3.54426 15.5492 3.30652C15.4325 3.06878 15.2515 2.86853 15.0267 2.72847C14.8019 2.58842 14.5424 2.51418 14.2775 2.51418C14.0127 2.51418 13.7531 2.58842 13.5283 2.72847C13.3035 2.86853 13.1225 3.06878 13.0058 3.30652C12.8891 3.54426 12.8413 3.80995 12.868 4.07346C12.8946 4.33696 12.9946 4.58771 13.1566 4.79727L12.7314 4.89102C12.5182 4.93704 12.3273 5.05498 12.1908 5.22505C12.0542 5.39512 11.9803 5.60697 11.9814 5.82508V5.91648C11.7077 5.50182 11.5515 5.02077 11.5292 4.52443C11.5069 4.02809 11.6195 3.53498 11.8549 3.09747C12.0904 2.65996 12.4399 2.29439 12.8664 2.03956C13.2929 1.78474 13.7805 1.65018 14.2774 1.65018C14.7742 1.65018 15.2618 1.78474 15.6883 2.03956C16.1148 2.29439 16.4643 2.65996 16.6998 3.09747C16.9352 3.53498 17.0478 4.02809 17.0255 4.52443C17.0033 5.02077 16.847 5.50182 16.5733 5.91648L16.5736 5.91617Z" fill="white"/>
<path d="M5.52764 8.9788C5.52764 9.05132 5.55645 9.12087 5.60773 9.17215C5.65901 9.22343 5.72856 9.25224 5.80108 9.25224C5.8736 9.25224 5.94315 9.22343 5.99443 9.17215C6.04571 9.12087 6.07451 9.05132 6.07451 8.9788V7.68943C6.92249 7.61887 7.71036 7.22327 8.27344 6.58532C8.83651 5.94737 9.1312 5.11646 9.09589 4.26629C9.06058 3.41612 8.69802 2.61251 8.08398 2.02344C7.46995 1.43438 6.65198 1.10547 5.80108 1.10547C4.95017 1.10547 4.13221 1.43438 3.51817 2.02344C2.90414 2.61251 2.54157 3.41612 2.50626 4.26629C2.47095 5.11646 2.76564 5.94737 3.32871 6.58532C3.89179 7.22327 4.67967 7.61887 5.52764 7.68943V8.9788ZM5.80108 4.80443C5.629 4.80446 5.46078 4.75346 5.31769 4.65788C5.1746 4.5623 5.06306 4.42644 4.99719 4.26747C4.93132 4.1085 4.91407 3.93357 4.94762 3.76479C4.98117 3.59602 5.06402 3.44098 5.18568 3.3193C5.30735 3.19761 5.46237 3.11474 5.63113 3.08115C5.7999 3.04757 5.97484 3.06479 6.13382 3.13064C6.2928 3.19648 6.42868 3.30799 6.52429 3.45106C6.61989 3.59414 6.67092 3.76235 6.67092 3.93443C6.67063 4.16505 6.5789 4.38614 6.41584 4.54923C6.25278 4.71232 6.0317 4.80409 5.80108 4.80443ZM5.23858 5.23411C5.41604 5.31137 5.60752 5.35124 5.80108 5.35124C5.99463 5.35124 6.18611 5.31137 6.36358 5.23411L7.22873 5.42567C7.32002 5.44545 7.40174 5.496 7.46019 5.56885C7.51865 5.6417 7.5503 5.73243 7.54983 5.82583V6.52739C7.05772 6.93416 6.43922 7.15669 5.80076 7.15669C5.16231 7.15669 4.54381 6.93416 4.0517 6.52739V5.82568C4.05217 5.73252 4.08417 5.64226 4.14247 5.5696C4.20077 5.49694 4.28195 5.44616 4.3728 5.42552L5.23858 5.23411ZM3.05108 4.40599C3.05054 3.97698 3.15035 3.5538 3.34254 3.17025C3.53473 2.78671 3.81396 2.45343 4.15792 2.19704C4.50189 1.94066 4.90105 1.76828 5.32352 1.69368C5.74598 1.61908 6.18004 1.64433 6.59101 1.7674C7.00199 1.89048 7.37847 2.10797 7.69039 2.4025C8.00232 2.69703 8.24103 3.06044 8.38745 3.46368C8.53388 3.86692 8.58396 4.29882 8.53369 4.72487C8.48342 5.15092 8.3342 5.5593 8.09795 5.91739V5.82599C8.09906 5.60788 8.02514 5.39603 7.88859 5.22596C7.75203 5.05589 7.56115 4.93795 7.34795 4.89193L6.92295 4.79818C7.08497 4.58861 7.185 4.33782 7.21168 4.07428C7.23837 3.81073 7.19064 3.54499 7.07391 3.3072C6.95718 3.06941 6.77613 2.86911 6.55131 2.72902C6.32649 2.58893 6.06691 2.51468 5.80201 2.51468C5.53712 2.51468 5.27753 2.58893 5.05271 2.72902C4.82789 2.86911 4.64685 3.06941 4.53012 3.3072C4.41339 3.54499 4.36566 3.81073 4.39235 4.07428C4.41903 4.33782 4.51906 4.58861 4.68108 4.79818L4.25592 4.89193C4.04274 4.93798 3.85187 5.05593 3.71532 5.22599C3.57877 5.39605 3.50484 5.60789 3.50592 5.82599V5.91708C3.20868 5.46907 3.05019 4.94333 3.0503 4.40568L3.05108 4.40599Z" fill="white"/>
</svg>
