<svg width="202" height="41" viewBox="0 0 202 41" fill="none" xmlns="http://www.w3.org/2000/svg">
<path fill-rule="evenodd" clip-rule="evenodd" d="M25.8521 12.2273C24.2076 11.1285 22.2742 10.542 20.2964 10.542V0.541992C24.252 0.541992 28.1188 1.71497 31.4078 3.9126C34.6968 6.11022 37.2602 9.2338 38.774 12.8883C40.2877 16.5428 40.6838 20.5642 39.9121 24.4438C39.1404 28.3234 37.2356 31.8871 34.4385 34.6841C31.6415 37.4812 28.0778 39.386 24.1982 40.1577C20.3186 40.9294 16.2972 40.5333 12.6427 39.0196C8.98819 37.5058 5.86462 34.9424 3.667 31.6534C1.46937 28.3644 0.296387 24.4976 0.296387 20.542H10.2964C10.2964 22.5198 10.8829 24.4532 11.9817 26.0977C13.0805 27.7422 14.6423 29.0239 16.4696 29.7808C18.2968 30.5377 20.3075 30.7357 22.2473 30.3498C24.1871 29.964 25.9689 29.0116 27.3675 27.6131C28.766 26.2145 29.7184 24.4327 30.1042 22.4929C30.4901 20.5531 30.2921 18.5424 29.5352 16.7152C28.7783 14.8879 27.4966 13.3261 25.8521 12.2273Z" fill="#FF3600"/>
<path fill-rule="evenodd" clip-rule="evenodd" d="M10.2964 0.541997C10.2964 1.85522 10.0377 3.15558 9.53518 4.36884C9.03263 5.58209 8.29604 6.68448 7.36745 7.61307C6.43887 8.54166 5.33648 9.27825 4.12322 9.7808C2.90996 10.2833 1.6096 10.542 0.296387 10.542L0.296387 20.542C2.92282 20.542 5.52354 20.0247 7.95006 19.0196C10.3766 18.0145 12.5814 16.5413 14.4385 14.6841C16.2957 12.827 17.7689 10.6222 18.774 8.19567C19.7791 5.76915 20.2964 3.16843 20.2964 0.541992L10.2964 0.541997Z" fill="#FF3600"/>
<path d="M125.915 14.9951H121.063V30.4074H125.915V14.9951Z" fill="white"/>
<path d="M121.604 12.1086C122.111 12.616 122.745 12.8697 123.506 12.8697C124.267 12.8697 124.891 12.616 125.377 12.1086C125.864 11.5801 126.107 10.9458 126.107 10.2058C126.107 9.44476 125.864 8.81048 125.377 8.3031C124.891 7.79568 124.267 7.54199 123.506 7.54199C122.745 7.54199 122.111 7.79568 121.604 8.3031C121.117 8.81048 120.874 9.44476 120.874 10.2058C120.874 10.9458 121.117 11.5801 121.604 12.1086Z" fill="white"/>
<path d="M51.4526 30.4067V8.01758H56.4315V26.0304H66.3576V30.4067H51.4526Z" fill="white"/>
<path fill-rule="evenodd" clip-rule="evenodd" d="M75.3237 30.7555C73.7381 30.7555 72.3005 30.4067 71.0108 29.709C69.7423 28.9902 68.7381 28.0177 67.9981 26.7914C67.2582 25.5652 66.8882 24.191 66.8882 22.6688C66.8882 21.1466 67.2582 19.783 67.9981 18.5779C68.7381 17.3728 69.7423 16.4214 71.0108 15.7238C72.2793 15.0049 73.717 14.6455 75.3237 14.6455C76.9305 14.6455 78.3681 14.9944 79.6366 15.692C80.9051 16.3897 81.9094 17.3517 82.6493 18.5779C83.3893 19.783 83.7593 21.1466 83.7593 22.6688C83.7593 24.191 83.3893 25.5652 82.6493 26.7914C81.9094 28.0177 80.9051 28.9902 79.6366 29.709C78.3681 30.4067 76.9305 30.7555 75.3237 30.7555ZM75.3237 26.3475C76.0214 26.3475 76.6345 26.1995 77.1631 25.9035C77.6916 25.5864 78.0933 25.153 78.3681 24.6033C78.6641 24.0325 78.8121 23.3876 78.8121 22.6688C78.8121 21.95 78.6641 21.3263 78.3681 20.7978C78.0721 20.2481 77.6599 19.8253 77.1313 19.5293C76.6239 19.2121 76.0214 19.0536 75.3237 19.0536C74.6472 19.0536 74.0447 19.2121 73.5161 19.5293C72.9876 19.8253 72.5753 20.2481 72.2793 20.7978C71.9833 21.3475 71.8354 21.9817 71.8354 22.7005C71.8354 23.3982 71.9833 24.0325 72.2793 24.6033C72.5753 25.153 72.9876 25.5864 73.5161 25.9035C74.0447 26.1995 74.6472 26.3475 75.3237 26.3475Z" fill="white"/>
<path fill-rule="evenodd" clip-rule="evenodd" d="M87.602 36.4317C88.8916 37.0236 90.3821 37.3196 92.0735 37.3196C93.7225 37.3196 95.1919 36.9919 96.4815 36.3365C97.7712 35.6811 98.7859 34.7721 99.5259 33.6093C100.266 32.4465 100.636 31.0723 100.636 29.4866V14.994H95.8789V16.0295C95.5251 15.7317 95.1233 15.4817 94.6739 15.2794C93.8493 14.8777 92.9085 14.6768 91.8515 14.6768C90.435 14.6768 89.177 15.0151 88.0777 15.6916C86.9782 16.347 86.1115 17.2561 85.4772 18.4189C84.8429 19.5606 84.5259 20.8502 84.5259 22.2879C84.5259 23.7044 84.8429 24.994 85.4772 26.1568C86.1115 27.3196 86.9782 28.2393 88.0777 28.9158C89.177 29.5923 90.435 29.9306 91.8515 29.9306C92.8874 29.9306 93.8282 29.7298 94.6739 29.3281C95.0835 29.1335 95.4535 28.9042 95.7838 28.6401V29.6135C95.7838 30.6917 95.435 31.5268 94.7373 32.1188C94.0608 32.7108 93.12 33.0067 91.9149 33.0067C90.9424 33.0067 90.1073 32.8376 89.4096 32.4993C88.7331 32.1611 88.1199 31.6642 87.5702 31.0088L84.5893 33.9898C85.3292 35.0469 86.3335 35.8609 87.602 36.4317ZM94.5153 25.1737C94.029 25.4697 93.4477 25.6177 92.7711 25.6177C92.0946 25.6177 91.5026 25.4697 90.9952 25.1737C90.5089 24.8777 90.1284 24.476 89.8536 23.9686C89.5787 23.4401 89.4413 22.8798 89.4413 22.2879C89.4413 21.6536 89.5787 21.0828 89.8536 20.5754C90.1284 20.068 90.5195 19.6663 91.0269 19.3703C91.5343 19.0743 92.1157 18.9263 92.7711 18.9263C93.4477 18.9263 94.029 19.0743 94.5153 19.3703C95.0227 19.6663 95.4032 20.068 95.657 20.5754C95.9318 21.0828 96.0692 21.6536 96.0692 22.2879C96.0692 22.9221 95.9318 23.4929 95.657 24.0003C95.4032 24.4866 95.0227 24.8777 94.5153 25.1737Z" fill="white"/>
<path fill-rule="evenodd" clip-rule="evenodd" d="M110.848 30.7555C109.262 30.7555 107.824 30.4067 106.535 29.709C105.266 28.9902 104.262 28.0177 103.522 26.7914C102.782 25.5652 102.412 24.191 102.412 22.6688C102.412 21.1466 102.782 19.783 103.522 18.5779C104.262 17.3728 105.266 16.4214 106.535 15.7238C107.803 15.0049 109.241 14.6455 110.848 14.6455C112.454 14.6455 113.892 14.9944 115.16 15.692C116.429 16.3897 117.433 17.3517 118.173 18.5779C118.913 19.783 119.283 21.1466 119.283 22.6688C119.283 24.191 118.913 25.5652 118.173 26.7914C117.433 28.0177 116.429 28.9902 115.16 29.709C113.892 30.4067 112.454 30.7555 110.848 30.7555ZM110.848 26.3475C111.545 26.3475 112.158 26.1995 112.687 25.9035C113.215 25.5864 113.617 25.153 113.892 24.6033C114.188 24.0325 114.336 23.3876 114.336 22.6688C114.336 21.95 114.188 21.3263 113.892 20.7978C113.596 20.2481 113.184 19.8253 112.655 19.5293C112.148 19.2121 111.545 19.0536 110.848 19.0536C110.171 19.0536 109.568 19.2121 109.04 19.5293C108.511 19.8253 108.099 20.2481 107.803 20.7978C107.507 21.3475 107.359 21.9817 107.359 22.7005C107.359 23.3982 107.507 24.0325 107.803 24.6033C108.099 25.153 108.511 25.5864 109.04 25.9035C109.568 26.1995 110.171 26.3475 110.848 26.3475Z" fill="white"/>
<path fill-rule="evenodd" clip-rule="evenodd" d="M137.578 30.7234C136.543 30.7234 135.591 30.5226 134.724 30.1209C134.268 29.9095 133.856 29.6571 133.488 29.3637V36.9074H128.699V14.994H133.551V16.0577C133.903 15.7698 134.294 15.5209 134.724 15.3111C135.591 14.8882 136.543 14.6768 137.578 14.6768C139.037 14.6768 140.327 15.0257 141.447 15.7234C142.589 16.421 143.477 17.3724 144.111 18.5775C144.767 19.7826 145.094 21.1568 145.094 22.7001C145.094 24.2435 144.767 25.6177 144.111 26.8228C143.477 28.0279 142.589 28.9792 141.447 29.6769C140.327 30.3746 139.037 30.7234 137.578 30.7234ZM136.691 26.3471C137.388 26.3471 137.991 26.1885 138.498 25.8714C139.027 25.5543 139.439 25.1208 139.735 24.5712C140.031 24.0215 140.179 23.3978 140.179 22.7001C140.179 21.9813 140.031 21.3471 139.735 20.7974C139.439 20.2477 139.027 19.8249 138.498 19.5289C137.991 19.2117 137.399 19.0532 136.722 19.0532C136.046 19.0532 135.443 19.2117 134.915 19.5289C134.407 19.8249 134.006 20.2477 133.71 20.7974C133.414 21.3471 133.266 21.9813 133.266 22.7001C133.266 23.3978 133.403 24.0215 133.678 24.5712C133.974 25.1208 134.386 25.5543 134.915 25.8714C135.443 26.1885 136.035 26.3471 136.691 26.3471Z" fill="white"/>
<path d="M149.843 30.4378C150.731 30.6704 151.629 30.7866 152.538 30.7866C154.462 30.7866 155.984 30.3427 157.105 29.4547C158.246 28.5668 158.817 27.3723 158.817 25.8712C158.817 24.8987 158.638 24.1164 158.278 23.5245C157.919 22.9114 157.454 22.4251 156.883 22.0657C156.312 21.7063 155.709 21.4208 155.075 21.2094C154.441 20.998 153.838 20.8183 153.268 20.6703C152.697 20.5223 152.232 20.3532 151.872 20.1629C151.513 19.9726 151.333 19.7189 151.333 19.4018C151.333 19.1058 151.471 18.8838 151.745 18.7358C152.02 18.5667 152.432 18.4822 152.982 18.4822C153.553 18.4822 154.134 18.5984 154.726 18.831C155.339 19.0635 155.889 19.4653 156.375 20.0361L159.134 17.2454C158.437 16.3574 157.528 15.6914 156.407 15.2475C155.308 14.7824 154.103 14.5498 152.792 14.5498C151.545 14.5498 150.456 14.7612 149.526 15.184C148.595 15.6069 147.876 16.1883 147.369 16.9282C146.862 17.647 146.608 18.5033 146.608 19.497C146.608 20.4272 146.788 21.1989 147.147 21.812C147.506 22.4039 147.972 22.8691 148.542 23.2073C149.113 23.5456 149.716 23.8099 150.35 24.0001C150.984 24.1904 151.587 24.3701 152.158 24.5393C152.728 24.6873 153.194 24.867 153.553 25.0784C153.934 25.2687 154.124 25.5541 154.124 25.9346C154.124 26.2306 153.965 26.4631 153.648 26.6323C153.352 26.8014 152.919 26.886 152.348 26.886C151.523 26.886 150.762 26.738 150.065 26.442C149.367 26.1249 148.764 25.6915 148.257 25.1418L145.498 27.9325C146.027 28.5033 146.661 29.0108 147.401 29.4547C148.162 29.8775 148.976 30.2052 149.843 30.4378Z" fill="white"/>
<path d="M167.664 30.7562C166.248 30.7562 164.99 30.4708 163.891 29.9C162.812 29.308 161.967 28.5046 161.354 27.4898C160.74 26.4539 160.434 25.27 160.434 23.938V14.9951H165.286V23.8746C165.286 24.4031 165.37 24.8577 165.54 25.2382C165.73 25.6188 166.005 25.9148 166.364 26.1262C166.724 26.3376 167.157 26.4433 167.664 26.4433C168.383 26.4433 168.954 26.2213 169.377 25.7773C169.8 25.3122 170.011 24.678 170.011 23.8746V14.9951H174.863V23.9063C174.863 25.2594 174.557 26.4539 173.943 27.4898C173.33 28.5046 172.485 29.308 171.406 29.9C170.328 30.4708 169.081 30.7562 167.664 30.7562Z" fill="white"/>
<path d="M182.127 14.994H177.275V30.4063H182.127V21.3999C182.127 20.8714 182.233 20.4274 182.444 20.068C182.677 19.7086 182.984 19.4337 183.364 19.2435C183.745 19.032 184.178 18.9263 184.664 18.9263C185.362 18.9263 185.943 19.1483 186.408 19.5923C186.895 20.0151 187.138 20.6177 187.138 21.3999V30.4063H191.99V21.3999C191.99 20.8714 192.096 20.4274 192.307 20.068C192.54 19.7086 192.846 19.4337 193.227 19.2435C193.607 19.032 194.041 18.9263 194.527 18.9263C195.225 18.9263 195.806 19.1483 196.271 19.5923C196.757 20.0151 197 20.6177 197 21.3999V30.4063H201.853V20.8608C201.853 19.5712 201.578 18.4718 201.028 17.5627C200.499 16.6324 199.77 15.9242 198.84 15.438C197.931 14.9305 196.884 14.6768 195.7 14.6768C194.495 14.6768 193.406 14.9411 192.434 15.4697C191.802 15.8064 191.25 16.241 190.777 16.7734C190.336 16.2165 189.8 15.7608 189.167 15.4062C188.322 14.92 187.36 14.6768 186.282 14.6768C185.14 14.6768 184.115 14.92 183.206 15.4062C182.81 15.6085 182.451 15.8508 182.127 16.1331V14.994Z" fill="white"/>
</svg>
