<svg width="31" height="31" viewBox="0 0 31 31" fill="none" xmlns="http://www.w3.org/2000/svg">
<path d="M19.8685 9.22917H17.3685V4.64583H18.2018C18.4319 4.64583 18.6185 4.45927 18.6185 4.22917V2.97917C18.6185 2.74906 18.4319 2.5625 18.2018 2.5625H11.5352C11.3051 2.5625 11.1185 2.74906 11.1185 2.97917V4.22917C11.1185 4.45927 11.3051 4.64583 11.5352 4.64583H12.3685V9.22917H9.86849C8.71838 9.23059 7.78658 10.1624 7.78516 11.3125V24.2292C7.78658 25.3793 8.71838 26.3111 9.86849 26.3125V27.1458C9.86849 27.3759 10.0551 27.5625 10.2852 27.5625H11.9518C12.1819 27.5625 12.3685 27.3759 12.3685 27.1458V26.3125H17.3685V27.1458C17.3685 27.3759 17.5551 27.5625 17.7852 27.5625H19.4518C19.6819 27.5625 19.8685 27.3759 19.8685 27.1458V26.3125C21.0186 26.3111 21.9504 25.3793 21.9518 24.2292V11.3125C21.9504 10.1624 21.0186 9.23059 19.8685 9.22917ZM11.9518 3.39583H17.7852V3.8125H11.9518V3.39583ZM13.2018 4.64583H16.5352V9.22917H13.2018V4.64583ZM11.5352 26.7292H10.7018V26.3125H11.5352V26.7292ZM19.0352 26.7292H18.2018V26.3125H19.0352V26.7292ZM21.1185 24.2292C21.1185 24.9195 20.5588 25.4792 19.8685 25.4792H9.86849C9.17818 25.4792 8.61849 24.9195 8.61849 24.2292V11.3125C8.61849 10.6222 9.17818 10.0625 9.86849 10.0625H19.8685C20.5588 10.0625 21.1185 10.6222 21.1185 11.3125V24.2292Z" fill="white"/>
<path d="M14.8683 10.8955C14.6382 10.8955 14.4517 11.0821 14.4517 11.3122V24.2288C14.4517 24.4589 14.6382 24.6455 14.8683 24.6455C15.0984 24.6455 15.285 24.4589 15.285 24.2288V11.3122C15.285 11.0821 15.0984 10.8955 14.8683 10.8955Z" fill="#FF3600"/>
<path d="M18.2018 11.7295C17.9717 11.7295 17.7852 11.9161 17.7852 12.1462V23.3962C17.7852 23.6263 17.9717 23.8128 18.2018 23.8128C18.4319 23.8128 18.6185 23.6263 18.6185 23.3962V12.1462C18.6185 11.9161 18.4319 11.7295 18.2018 11.7295Z" fill="white"/>
<path d="M11.5353 11.7295C11.3052 11.7295 11.1187 11.9161 11.1187 12.1462V23.3962C11.1187 23.6263 11.3052 23.8128 11.5353 23.8128C11.7654 23.8128 11.952 23.6263 11.952 23.3962V12.1462C11.952 11.9161 11.7654 11.7295 11.5353 11.7295Z" fill="white"/>
</svg>
