<svg width="21" height="21" viewBox="0 0 21 21" fill="none" xmlns="http://www.w3.org/2000/svg">
<g clip-path="url(#clip0_345_10400)">
<path d="M14.0392 6.08333H12.0392V2.41667H12.7059C12.89 2.41667 13.0392 2.26742 13.0392 2.08333V1.08333C13.0392 0.899251 12.89 0.75 12.7059 0.75H7.37256C7.18848 0.75 7.03923 0.899251 7.03923 1.08333V2.08333C7.03923 2.26742 7.18848 2.41667 7.37256 2.41667H8.03923V6.08333H6.03923C5.11914 6.08447 4.3737 6.82992 4.37256 7.75V18.0833C4.3737 19.0034 5.11914 19.7489 6.03923 19.75V20.4167C6.03923 20.6007 6.18848 20.75 6.37256 20.75H7.70589C7.88997 20.75 8.03923 20.6007 8.03923 20.4167V19.75H12.0392V20.4167C12.0392 20.6007 12.1885 20.75 12.3726 20.75H13.7059C13.89 20.75 14.0392 20.6007 14.0392 20.4167V19.75C14.9593 19.7489 15.7048 19.0034 15.7059 18.0833V7.75C15.7048 6.82992 14.9593 6.08447 14.0392 6.08333ZM7.70589 1.41667H12.3726V1.75H7.70589V1.41667ZM8.70589 2.41667H11.3726V6.08333H8.70589V2.41667ZM7.37256 20.0833H6.70589V19.75H7.37256V20.0833ZM13.3726 20.0833H12.7059V19.75H13.3726V20.0833ZM15.0392 18.0833C15.0392 18.6356 14.5915 19.0833 14.0392 19.0833H6.03923C5.48698 19.0833 5.03923 18.6356 5.03923 18.0833V7.75C5.03923 7.19775 5.48698 6.75 6.03923 6.75H14.0392C14.5915 6.75 15.0392 7.19775 15.0392 7.75V18.0833Z" fill="white"/>
<path d="M10.0389 7.41602C9.85482 7.41602 9.70557 7.56527 9.70557 7.74935V18.0827C9.70557 18.2668 9.85482 18.416 10.0389 18.416C10.223 18.416 10.3722 18.2668 10.3722 18.0827V7.74935C10.3722 7.56527 10.223 7.41602 10.0389 7.41602Z" fill="white"/>
<path d="M12.7059 8.08398C12.5218 8.08398 12.3726 8.23324 12.3726 8.41732V17.4173C12.3726 17.6014 12.5218 17.7507 12.7059 17.7507C12.89 17.7507 13.0392 17.6014 13.0392 17.4173V8.41732C13.0392 8.23324 12.89 8.08398 12.7059 8.08398Z" fill="white"/>
<path d="M7.3724 8.08398C7.18831 8.08398 7.03906 8.23324 7.03906 8.41732V17.4173C7.03906 17.6014 7.18831 17.7507 7.3724 17.7507C7.55648 17.7507 7.70573 17.6014 7.70573 17.4173V8.41732C7.70573 8.23324 7.55648 8.08398 7.3724 8.08398Z" fill="white"/>
</g>
<defs>
<clipPath id="clip0_345_10400">
<rect width="20" height="20" fill="white" transform="translate(0.0390625 0.75)"/>
</clipPath>
</defs>
</svg>
