<svg width="171" height="26" viewBox="0 0 171 26" fill="none" xmlns="http://www.w3.org/2000/svg">
<path d="M152.72 1.50586H170.173V5.83563H158.023C158.023 8.99066 161.603 10.5682 168.763 10.5682V14.8979C164.02 14.8979 160.439 14.07 158.023 12.4142V20.5703H170.173V24.9001H152.72V1.50586Z" fill="white"/>
<path d="M137.183 1.50586C140.83 1.50586 143.84 2.61348 146.212 4.82871C148.584 7.02157 149.77 9.81858 149.77 13.2197C149.77 16.5985 148.584 19.3955 146.212 21.6108C143.84 23.8036 140.83 24.9001 137.183 24.9001H128.792V1.50586H137.183ZM134.095 20.5703H137.183C139.286 20.5703 141.009 19.8766 142.352 18.4893C143.717 17.102 144.399 15.3455 144.399 13.2197C144.399 11.0716 143.717 9.30393 142.352 7.91661C141.009 6.52929 139.286 5.83563 137.183 5.83563H134.095V20.5703Z" fill="white"/>
<path d="M119.451 1.50586H124.754V24.9001H119.451V1.50586Z" fill="white"/>
<path d="M116.113 9.15848C116.113 11.0381 115.509 12.6603 114.3 14.0253C113.114 15.3902 111.537 16.2517 109.568 16.6097L110.273 17.4824C111.794 19.4515 113.238 20.436 114.603 20.436C114.826 20.436 115.061 20.3242 115.307 20.1004H115.912V24.9001C114.882 24.9001 114.043 24.8777 113.394 24.8329C112.745 24.7882 112.052 24.6763 111.313 24.4973C110.597 24.3183 109.959 24.061 109.4 23.7253C108.841 23.3897 108.248 22.9422 107.621 22.3828C107.017 21.8233 106.39 21.1185 105.742 20.2682L101.613 14.9315V24.9001H96.3101V1.50586H107.051C109.669 1.50586 111.828 2.23308 113.528 3.68753C115.251 5.1196 116.113 6.94325 116.113 9.15848ZM101.613 6.20484C101.613 7.18939 101.848 8.16275 102.318 9.12492C102.788 10.0647 103.47 10.8591 104.365 11.508C105.283 12.1345 106.29 12.4478 107.386 12.4478C108.393 12.4478 109.21 12.1457 109.836 11.5415C110.485 10.915 110.81 10.1207 110.81 9.15848C110.81 8.19631 110.452 7.40196 109.736 6.77543C109.042 6.1489 108.147 5.83563 107.051 5.83563H101.613V6.20484Z" fill="white"/>
<path d="M78.3743 1.50586H82.8384L94.183 24.9001H88.3429C88.0296 24.3183 87.5933 23.8036 87.0339 23.3561C86.4745 22.8862 85.8144 22.6513 85.0536 22.6513C84.4494 22.6513 83.7446 22.7967 82.939 23.0876C82.1559 23.3785 81.4175 23.7029 80.7238 24.061C80.0302 24.3966 79.1799 24.7099 78.1729 25.0008C77.166 25.2916 76.1927 25.4371 75.2529 25.4371C74.3802 25.4371 73.597 25.2693 72.9034 24.9336C72.2097 24.598 71.6391 24.0833 71.1916 23.3897C70.7441 22.696 70.4644 21.8681 70.3525 20.9059C70.2406 19.9214 70.3525 18.7466 70.6881 17.3817C71.0238 16.0168 71.6056 14.5399 72.4335 12.9512L78.3743 1.50586ZM85.02 17.9858L80.5896 8.99066L78.0051 14.126C77.7142 14.6854 77.4681 15.1665 77.2667 15.5692C77.0877 15.9496 76.8751 16.4307 76.629 17.0125C76.4052 17.5943 76.2486 18.0865 76.1591 18.4893C76.0696 18.8697 76.0137 19.2501 75.9913 19.6305C75.9913 20.0109 76.092 20.3018 76.2934 20.5032C76.4947 20.6822 76.7968 20.7717 77.1996 20.7717C77.759 20.7717 78.4862 20.5703 79.3813 20.1675C80.2763 19.7424 81.2385 19.2949 82.2678 18.825C83.2971 18.3551 84.2145 18.0754 85.02 17.9858Z" fill="#FF3600"/>
<path d="M57.9842 24.9001L48.0156 1.50586H53.8558L60.0987 16.6433L66.2745 1.50586H72.1147L62.1461 24.9001H57.9842Z" fill="#FF3600"/>
<path d="M44.6446 21.9799C42.2727 24.2846 39.2632 25.437 35.6158 25.437C31.9685 25.437 28.959 24.2846 26.5871 21.9799C24.2152 19.6752 23.0293 16.7551 23.0293 13.2197C23.0293 10.8702 23.5663 8.76682 24.6404 6.9096C25.7144 5.05239 27.2136 3.59794 29.138 2.54627C31.0623 1.49459 33.2216 0.96875 35.6158 0.96875C38.0101 0.96875 40.1694 1.49459 42.0937 2.54627C44.0181 3.59794 45.5173 5.05239 46.5913 6.9096C47.6654 8.76682 48.2024 10.8702 48.2024 13.2197C48.2024 16.7551 47.0165 19.6752 44.6446 21.9799ZM28.3996 13.2197C28.3996 15.502 29.0708 17.3928 30.4134 18.892C31.7783 20.3688 33.5125 21.1072 35.6158 21.1072C37.7192 21.1072 39.4422 20.3688 40.7847 18.892C42.1497 17.3928 42.8321 15.502 42.8321 13.2197C42.8321 10.9149 42.1497 9.02414 40.7847 7.54732C39.4422 6.04812 37.7192 5.29852 35.6158 5.29852C34.2285 5.29852 32.9867 5.64535 31.8902 6.33901C30.7938 7.01029 29.9323 7.95009 29.3058 9.1584C28.7016 10.3443 28.3996 11.6981 28.3996 13.2197Z" fill="#FF3600"/>
<path d="M5.47647 1.50586C5.67786 1.752 6.0135 2.1212 6.4834 2.61348C6.97567 3.10575 7.44557 3.58684 7.89309 4.05673C8.34061 4.50426 8.86645 5.07485 9.4706 5.7685C10.0971 6.43979 10.6789 7.11107 11.2159 7.78235C11.7753 8.43126 12.3571 9.16967 12.9613 9.99758C13.5878 10.8255 14.1584 11.6422 14.673 12.4478V1.50586H19.9762V24.9001H14.673C14.673 23.4456 14.4157 21.9464 13.9011 20.4025C13.4088 18.8361 12.6928 17.3034 11.753 15.8042C10.8132 14.305 9.851 12.9289 8.86645 11.6758C7.8819 10.4004 6.75191 9.08016 5.47647 7.71522V24.9001H0.17334V1.50586H5.47647Z" fill="#FF3600"/>
</svg>
