<svg width="1922" height="732" viewBox="0 0 1922 732" fill="none" xmlns="http://www.w3.org/2000/svg">
<path d="M47.8127 150.455C42.4669 150.455 38.1332 154.795 38.1332 160.149C38.1332 165.503 42.4669 169.844 47.8127 169.844C53.1585 169.844 57.4922 165.503 57.4922 160.149C57.4922 154.795 53.1585 150.455 47.8127 150.455Z" fill="white" fill-opacity="0.3"/>
<path d="M47.8127 120.479C42.4669 120.479 38.1332 124.819 38.1332 130.173C38.1332 135.527 42.4669 139.867 47.8127 139.867C53.1585 139.867 57.4922 135.527 57.4922 130.173C57.4922 124.819 53.1585 120.479 47.8127 120.479Z" fill="#FF3600"/>
<path d="M76.853 60.9198C71.7236 60.9198 67.5654 65.0844 67.5654 70.2216C67.5654 75.3589 71.7236 79.5234 76.853 79.5234C81.9824 79.5234 86.1406 75.3589 86.1406 70.2216C86.1406 65.0844 81.9824 60.9198 76.853 60.9198Z" stroke="white" stroke-opacity="0.4"/>
<path d="M76.853 150.849C71.7236 150.849 67.5654 155.014 67.5654 160.151C67.5654 165.289 71.7236 169.453 76.853 169.453C81.9824 169.453 86.1406 165.289 86.1406 160.151C86.1406 155.014 81.9824 150.849 76.853 150.849Z" stroke="white" stroke-opacity="0.4"/>
<path d="M18.7658 60.5255C13.42 60.5255 9.08632 64.8657 9.08632 70.2198C9.08632 75.5738 13.42 79.9141 18.7658 79.9141C24.1117 79.9141 28.4453 75.5738 28.4453 70.2198C28.4453 64.8657 24.1117 60.5255 18.7658 60.5255Z" fill="#FF3600"/>
<path d="M47.8205 90.502C42.4747 90.502 38.141 94.8423 38.141 100.196C38.141 105.55 42.4747 109.891 47.8205 109.891C53.1663 109.891 57.5 105.55 57.5 100.196C57.5 94.8423 53.1663 90.502 47.8205 90.502Z" fill="white" fill-opacity="0.1"/>
<path d="M47.8205 60.5255C42.4747 60.5255 38.141 64.8657 38.141 70.2198C38.141 75.5738 42.4747 79.9141 47.8205 79.9141C53.1663 79.9141 57.5 75.5738 57.5 70.2198C57.5 64.8657 53.1663 60.5255 47.8205 60.5255Z" fill="white" fill-opacity="0.1"/>
<path d="M47.8205 30.5489C42.4747 30.5489 38.141 34.8892 38.141 40.2432C38.141 45.5972 42.4747 49.9375 47.8205 49.9375C53.1663 49.9375 57.5 45.5972 57.5 40.2432C57.5 34.8892 53.1663 30.5489 47.8205 30.5489Z" fill="white" fill-opacity="0.1"/>
<path d="M18.7736 180.432C13.4278 180.432 9.09414 184.772 9.09414 190.126C9.09414 195.48 13.4278 199.82 18.7736 199.82C24.1195 199.82 28.4531 195.48 28.4531 190.126C28.4531 184.772 24.1195 180.432 18.7736 180.432Z" fill="white" fill-opacity="0.1"/>
<path d="M18.7736 150.455C13.4278 150.455 9.09414 154.795 9.09414 160.149C9.09414 165.503 13.4278 169.844 18.7736 169.844C24.1195 169.844 28.4531 165.503 28.4531 160.149C28.4531 154.795 24.1195 150.455 18.7736 150.455Z" fill="white" fill-opacity="0.1"/>
<path d="M18.7736 120.479C13.4278 120.479 9.09414 124.819 9.09414 130.173C9.09414 135.527 13.4278 139.867 18.7736 139.867C24.1195 139.867 28.4531 135.527 28.4531 130.173C28.4531 124.819 24.1195 120.479 18.7736 120.479Z" fill="white" fill-opacity="0.1"/>
<path d="M76.8596 180.432C71.5137 180.432 67.1801 184.772 67.1801 190.126C67.1801 195.48 71.5137 199.82 76.8596 199.82C82.2054 199.82 86.5391 195.48 86.5391 190.126C86.5391 184.772 82.2054 180.432 76.8596 180.432Z" fill="white" fill-opacity="0.1"/>
<path d="M105.891 150.455C100.545 150.455 96.2113 154.795 96.2113 160.149C96.2113 165.503 100.545 169.844 105.891 169.844C111.237 169.844 115.57 165.503 115.57 160.149C115.57 154.795 111.237 150.455 105.891 150.455Z" fill="white" fill-opacity="0.1"/>
<path d="M76.8596 120.479C71.5137 120.479 67.1801 124.819 67.1801 130.173C67.1801 135.527 71.5137 139.867 76.8596 139.867C82.2054 139.867 86.5391 135.527 86.5391 130.173C86.5391 124.819 82.2054 120.479 76.8596 120.479Z" fill="white" fill-opacity="0.1"/>
<path d="M18.7736 90.502C13.4278 90.502 9.09414 94.8423 9.09414 100.196C9.09414 105.55 13.4278 109.891 18.7736 109.891C24.1195 109.891 28.4531 105.55 28.4531 100.196C28.4531 94.8423 24.1195 90.502 18.7736 90.502Z" fill="white" fill-opacity="0.1"/>
<path d="M18.7736 30.5489C13.4278 30.5489 9.09414 34.8892 9.09414 40.2432C9.09414 45.5972 13.4278 49.9375 18.7736 49.9375C24.1195 49.9375 28.4531 45.5972 28.4531 40.2432C28.4531 34.8892 24.1195 30.5489 18.7736 30.5489Z" fill="white" fill-opacity="0.1"/>
<path d="M1874.19 581.545C1879.53 581.545 1883.87 577.205 1883.87 571.851C1883.87 566.497 1879.53 562.156 1874.19 562.156C1868.84 562.156 1864.51 566.497 1864.51 571.851C1864.51 577.205 1868.84 581.545 1874.19 581.545Z" fill="#F2F2F2" fill-opacity="0.3"/>
<path d="M1874.19 611.521C1879.53 611.521 1883.87 607.181 1883.87 601.827C1883.87 596.473 1879.53 592.133 1874.19 592.133C1868.84 592.133 1864.51 596.473 1864.51 601.827C1864.51 607.181 1868.84 611.521 1874.19 611.521Z" fill="#FF3600"/>
<path d="M1845.15 671.08C1850.28 671.08 1854.43 666.916 1854.43 661.778C1854.43 656.641 1850.28 652.477 1845.15 652.477C1840.02 652.477 1835.86 656.641 1835.86 661.778C1835.86 666.916 1840.02 671.08 1845.15 671.08Z" stroke="white" stroke-opacity="0.4"/>
<path d="M1845.15 581.151C1850.28 581.151 1854.43 576.986 1854.43 571.849C1854.43 566.711 1850.28 562.547 1845.15 562.547C1840.02 562.547 1835.86 566.711 1835.86 571.849C1835.86 576.986 1840.02 581.151 1845.15 581.151Z" stroke="white" stroke-opacity="0.4"/>
<path d="M1903.23 671.475C1908.58 671.475 1912.91 667.134 1912.91 661.78C1912.91 656.426 1908.58 652.086 1903.23 652.086C1897.89 652.086 1893.55 656.426 1893.55 661.78C1893.55 667.134 1897.89 671.475 1903.23 671.475Z" fill="#FF3600"/>
<path d="M1874.18 641.498C1879.53 641.498 1883.86 637.158 1883.86 631.804C1883.86 626.45 1879.53 622.109 1874.18 622.109C1868.83 622.109 1864.5 626.45 1864.5 631.804C1864.5 637.158 1868.83 641.498 1874.18 641.498Z" fill="white" fill-opacity="0.1"/>
<path d="M1874.18 671.475C1879.53 671.475 1883.86 667.134 1883.86 661.78C1883.86 656.426 1879.53 652.086 1874.18 652.086C1868.83 652.086 1864.5 656.426 1864.5 661.78C1864.5 667.134 1868.83 671.475 1874.18 671.475Z" fill="white" fill-opacity="0.1"/>
<path d="M1874.18 701.451C1879.53 701.451 1883.86 697.111 1883.86 691.757C1883.86 686.403 1879.53 682.062 1874.18 682.062C1868.83 682.062 1864.5 686.403 1864.5 691.757C1864.5 697.111 1868.83 701.451 1874.18 701.451Z" fill="white" fill-opacity="0.1"/>
<path d="M1903.23 551.568C1908.57 551.568 1912.91 547.228 1912.91 541.874C1912.91 536.52 1908.57 532.18 1903.23 532.18C1897.88 532.18 1893.55 536.52 1893.55 541.874C1893.55 547.228 1897.88 551.568 1903.23 551.568Z" fill="white" fill-opacity="0.1"/>
<path d="M1903.23 581.545C1908.57 581.545 1912.91 577.205 1912.91 571.851C1912.91 566.497 1908.57 562.156 1903.23 562.156C1897.88 562.156 1893.55 566.497 1893.55 571.851C1893.55 577.205 1897.88 581.545 1903.23 581.545Z" fill="white" fill-opacity="0.1"/>
<path d="M1903.23 611.521C1908.57 611.521 1912.91 607.181 1912.91 601.827C1912.91 596.473 1908.57 592.133 1903.23 592.133C1897.88 592.133 1893.55 596.473 1893.55 601.827C1893.55 607.181 1897.88 611.521 1903.23 611.521Z" fill="white" fill-opacity="0.1"/>
<path d="M1845.14 551.568C1850.49 551.568 1854.82 547.228 1854.82 541.874C1854.82 536.52 1850.49 532.18 1845.14 532.18C1839.79 532.18 1835.46 536.52 1835.46 541.874C1835.46 547.228 1839.79 551.568 1845.14 551.568Z" fill="white" fill-opacity="0.1"/>
<path d="M1816.11 581.545C1821.46 581.545 1825.79 577.205 1825.79 571.851C1825.79 566.497 1821.46 562.156 1816.11 562.156C1810.76 562.156 1806.43 566.497 1806.43 571.851C1806.43 577.205 1810.76 581.545 1816.11 581.545Z" fill="white" fill-opacity="0.1"/>
<path d="M1845.14 611.521C1850.49 611.521 1854.82 607.181 1854.82 601.827C1854.82 596.473 1850.49 592.133 1845.14 592.133C1839.79 592.133 1835.46 596.473 1835.46 601.827C1835.46 607.181 1839.79 611.521 1845.14 611.521Z" fill="white" fill-opacity="0.1"/>
<path d="M1903.23 641.498C1908.57 641.498 1912.91 637.158 1912.91 631.804C1912.91 626.45 1908.57 622.109 1903.23 622.109C1897.88 622.109 1893.55 626.45 1893.55 631.804C1893.55 637.158 1897.88 641.498 1903.23 641.498Z" fill="white" fill-opacity="0.1"/>
<path d="M1903.23 701.451C1908.57 701.451 1912.91 697.111 1912.91 691.757C1912.91 686.403 1908.57 682.062 1903.23 682.062C1897.88 682.062 1893.55 686.403 1893.55 691.757C1893.55 697.111 1897.88 701.451 1903.23 701.451Z" fill="white" fill-opacity="0.1"/>
</svg>
