<svg width="120" height="36" viewBox="0 0 120 36" xmlns="http://www.w3.org/2000/svg" xmlns:xlink="http://www.w3.org/1999/xlink"><title>Button_AppStore</title><defs><path id="a" d="M0 .144h71.58V26.34H0V.145z"/><path id="c" d="M0 .144h71.58V26.34H0"/><path id="e" d="M0 .144h71.58V26.34H0"/><path id="g" d="M0 .144h71.58V26.34H0V.145z"/></defs><g fill="none" fill-rule="evenodd"><rect width="120" height="36" rx="3" fill="#000"/><path d="M25.267 10.626c2.544 0 4.17 2.47 4.17 2.47s-2.48 1.352-2.48 4.286c0 3.483 3.117 4.497 3.117 4.497s-2.46 5.856-5.224 5.856c-1.554 0-1.658-.897-3.723-.897-1.794 0-2.398.896-3.764.896-2.608 0-5.976-5.71-5.976-10.355 0-4.823 3.41-6.755 5.548-6.755 1.877 0 2.66 1.11 4.17 1.11 1.273 0 2.275-1.11 4.162-1.11zm-.438-4.92c.373 2.366-1.764 5.29-4.32 5.195-.375-3.007 2.38-5.033 4.318-5.192z" fill="#FFF"/><g transform="translate(37.664 5.707)"><mask id="b" fill="#fff"><use xlink:href="#a"/></mask><path d="M6.594 17.767l-1.01-3.156c-.107-.32-.308-1.08-.602-2.275h-.036c-.12.514-.308 1.273-.568 2.277l-.993 3.157h3.21zm3.493 5.04h-2.04l-1.116-3.55H3.05l-1.065 3.55H0L3.847 10.72h2.375l3.865 12.088z" fill="#FFF" mask="url(#b)"/><mask id="d" fill="#fff"><use xlink:href="#c"/></mask><path d="M18.01 18.413c0-.848-.188-1.548-.566-2.098-.414-.573-.97-.86-1.667-.86-.472 0-.9.16-1.285.475a2.204 2.204 0 0 0-.753 1.247c-.06.24-.09.434-.09.59v1.454c0 .634.19 1.17.576 1.607.384.436.883.655 1.497.655.72 0 1.282-.282 1.684-.842.402-.563.603-1.304.603-2.225m1.95-.07c0 1.482-.397 2.653-1.193 3.514-.713.764-1.6 1.147-2.656 1.147-1.14 0-1.96-.412-2.46-1.237v4.574h-1.91V16.96c0-.933-.024-1.888-.07-2.867h1.683l.107 1.384h.036c.64-1.042 1.607-1.563 2.907-1.563 1.016 0 1.864.407 2.543 1.22.678.815 1.018 1.885 1.018 3.212" fill="#FFF" mask="url(#d)"/><mask id="f" fill="#fff"><use xlink:href="#e"/></mask><path d="M27.92 18.413c0-.848-.19-1.548-.57-2.098-.413-.573-.967-.86-1.664-.86-.473 0-.9.16-1.286.475a2.198 2.198 0 0 0-.752 1.247c-.06.24-.09.434-.09.59v1.454c0 .634.192 1.17.575 1.607.384.435.884.655 1.5.655.72 0 1.283-.282 1.683-.842.4-.563.603-1.304.603-2.225m1.95-.07c0 1.482-.4 2.653-1.195 3.514-.714.764-1.6 1.147-2.656 1.147-1.143 0-1.963-.412-2.46-1.237v4.574h-1.916V16.96c0-.933-.024-1.888-.07-2.867h1.683l.107 1.384h.036c.638-1.042 1.607-1.563 2.908-1.563 1.015 0 1.864.407 2.544 1.22.677.815 1.018 1.885 1.018 3.212" fill="#FFF" mask="url(#f)"/><path d="M40.95 19.417c0 1.03-.357 1.866-1.063 2.512-.778.703-1.863 1.056-3.255 1.056-1.285 0-2.316-.252-3.094-.753l.443-1.615c.84.502 1.764.753 2.767.753.722 0 1.283-.163 1.684-.492.403-.33.605-.768.605-1.317 0-.49-.167-.902-.497-1.237-.332-.334-.88-.646-1.648-.932-2.094-.79-3.14-1.943-3.14-3.462 0-.992.37-1.803 1.107-2.44.738-.632 1.717-.95 2.934-.95 1.09 0 1.995.192 2.715.574l-.48 1.58c-.678-.372-1.442-.557-2.296-.557-.677 0-1.207.168-1.586.503-.318.298-.48.662-.48 1.095 0 .477.184.873.55 1.183.32.286.9.598 1.737.932 1.03.42 1.785.91 2.27 1.47.487.562.73 1.262.73 2.097m6.344-3.87h-2.11v4.23c0 1.078.372 1.615 1.117 1.615.343 0 .628-.03.85-.09l.054 1.47c-.376.143-.872.215-1.487.215-.757 0-1.347-.234-1.773-.7-.426-.468-.64-1.25-.64-2.35V15.54h-1.256v-1.45h1.257v-1.596l1.88-.574v2.17h2.11v1.456zm7.516 2.877c0-.798-.17-1.483-.512-2.056-.402-.692-.977-1.038-1.72-1.038-.767 0-1.356.346-1.755 1.038-.344.573-.515 1.27-.515 2.092 0 .8.17 1.486.515 2.058.414.692.99 1.038 1.74 1.038.73 0 1.303-.353 1.72-1.056.35-.585.527-1.276.527-2.076m1.985-.044c0 1.34-.38 2.44-1.136 3.3-.793.885-1.844 1.327-3.156 1.327-1.266 0-2.273-.425-3.024-1.272-.748-.85-1.124-1.92-1.124-3.21 0-1.35.388-2.457 1.16-3.317.775-.86 1.818-1.292 3.13-1.292 1.264 0 2.28.426 3.048 1.273.735.824 1.1 1.887 1.1 3.19m6.226-2.582a3.255 3.255 0 0 0-.604-.054c-.674 0-1.194.258-1.56.774-.32.454-.478 1.028-.478 1.72v4.575h-1.914v-5.973c0-1.003-.02-1.92-.056-2.744h1.667l.07 1.668h.053c.203-.572.52-1.034.957-1.38a2.295 2.295 0 0 1 1.384-.467c.175 0 .334.012.476.035l.002 1.848zm6.734 1.74c.014-.575-.112-1.07-.37-1.49-.333-.538-.843-.807-1.526-.807-.627 0-1.136.262-1.524.79-.318.418-.508.92-.566 1.505l3.986.002zm1.826.502c0 .347-.023.64-.07.88H65.77c.02.86.3 1.518.832 1.972.484.404 1.11.607 1.878.607.85 0 1.626-.135 2.324-.41l.3 1.343c-.815.36-1.78.54-2.888.54-1.336 0-2.385-.398-3.148-1.192-.76-.795-1.143-1.864-1.143-3.202 0-1.313.354-2.407 1.064-3.28.744-.932 1.75-1.398 3.013-1.398 1.242 0 2.182.466 2.82 1.398.505.738.76 1.653.76 2.74zM3.955 3.917l-.497-1.55c-.052-.16-.148-.53-.296-1.12h-.018c-.06.254-.148.625-.28 1.12l-.487 1.55h1.578zM5.67 6.392h-1l-.55-1.745H2.212L1.69 6.393H.712l1.89-5.94H3.77l1.9 5.94zM10.4 2.11L8.795 6.392H7.88L6.33 2.11h1.01l.724 2.265c.122.38.226.74.304 1.083h.027c.07-.308.174-.67.304-1.083l.713-2.266h.985zm3.28 2.15c-1.044 0-1.567.256-1.567.863 0 .45.27.67.645.67.48 0 .923-.37.923-.872v-.66zm.133 2.133l-.07-.493h-.027c-.287.397-.705.59-1.237.59-.76 0-1.3-.537-1.3-1.26 0-1.058.906-1.604 2.474-1.604v-.08c0-.564-.296-.846-.88-.846a1.96 1.96 0 0 0-1.106.318l-.192-.626c.393-.247.88-.37 1.456-.37 1.106 0 1.664.59 1.664 1.772V5.37c0 .434.018.77.06 1.024h-.845z" fill="#FFF"/><mask id="h" fill="#fff"><use xlink:href="#g"/></mask><path d="M17.182 6.394h-.94V2.11h.94v4.284zm-.488-4.99a.557.557 0 0 1-.558-.573c0-.324.253-.563.576-.563.322 0 .583.24.574.565 0 .344-.243.573-.592.573zm3.1 4.99h-.94V.144h.94v6.25zm3.87-2.134c-1.047 0-1.57.256-1.57.863 0 .45.27.67.645.67.477 0 .922-.37.922-.872v-.66zm.13 2.133l-.07-.493h-.026c-.288.397-.706.59-1.238.59-.757 0-1.298-.537-1.298-1.26 0-1.058.906-1.604 2.475-1.604v-.08c0-.564-.297-.846-.88-.846-.42 0-.785.106-1.106.318l-.19-.627c.392-.245.88-.37 1.455-.37 1.106 0 1.665.59 1.665 1.774V5.37c0 .433.017.768.06 1.023h-.846zM28.2 2.77c-.542 0-1.038.476-1.038 1.137v.75c0 .59.445 1.075 1.02 1.075.706 0 1.125-.582 1.125-1.507 0-.864-.437-1.455-1.108-1.455m.19 3.72c-.6 0-1.045-.256-1.333-.758h-.018l-.055.66h-.8c.024-.342.033-.73.033-1.153V.142h.942v2.592h.017c.278-.476.73-.714 1.35-.714 1.02 0 1.734.883 1.734 2.17 0 1.33-.793 2.3-1.873 2.3m4.21-.096h-.94V.144h.94v6.25zm4.258-2.592c0-.66-.33-1.128-.932-1.128-.542 0-.966.476-1.03 1.128h1.962zm.863.678h-2.825c.02.812.55 1.27 1.333 1.27.42 0 .802-.072 1.14-.203l.147.66c-.4.177-.87.265-1.42.265-1.323 0-2.107-.846-2.107-2.16 0-1.312.802-2.3 2.003-2.3 1.077 0 1.76.812 1.76 2.037.002.165-.007.315-.033.43zm5.74-1.763c-.68 0-1.117.643-1.117 1.542 0 .88.447 1.524 1.11 1.524.66 0 1.105-.688 1.105-1.544 0-.87-.436-1.523-1.097-1.523M43.42 6.49c-1.237 0-2.04-.934-2.04-2.203 0-1.322.82-2.266 2.112-2.266 1.217 0 2.038.89 2.038 2.198 0 1.34-.845 2.273-2.11 2.273m7.17-.097h-.94v-2.46c0-.757-.288-1.137-.855-1.137-.557 0-.942.485-.942 1.05v2.547h-.94v-3.06c0-.378-.01-.784-.035-1.224h.828l.044.66h.026c.25-.46.767-.75 1.34-.75.89 0 1.473.687 1.473 1.806v2.566zm6.155-3.57H55.71v2.08c0 .53.182.794.547.794.166 0 .306-.018.42-.044l.025.723c-.183.07-.428.106-.73.106-.743 0-1.185-.414-1.185-1.5v-2.16h-.617V2.11h.617v-.785l.923-.283V2.11h1.035v.713zm4.983 3.57h-.942v-2.44c0-.768-.288-1.156-.854-1.156-.488 0-.94.335-.94 1.014v2.584h-.942V.144h.942v2.573h.02c.294-.467.72-.696 1.27-.696.898 0 1.446.707 1.446 1.826v2.548zm3.945-2.59c0-.66-.33-1.13-.932-1.13-.54 0-.965.477-1.027 1.13h1.96zm.863.677h-2.824c.018.812.548 1.27 1.332 1.27.42 0 .802-.072 1.14-.203l.148.66c-.4.177-.87.265-1.42.265-1.325 0-2.108-.846-2.108-2.16 0-1.312.8-2.3 2.003-2.3 1.08 0 1.76.812 1.76 2.037.004.165-.005.315-.03.43z" fill="#FFF" mask="url(#h)"/></g></g></svg>