<?xml version="1.0" encoding="UTF-8"?>
<svg width="214px" height="169px" viewBox="0 0 214 169" version="1.1" xmlns="http://www.w3.org/2000/svg" xmlns:xlink="http://www.w3.org/1999/xlink">
    <defs>
        <rect id="path-1" x="0.041468254" y="0.363781513" width="18.8190476" height="12.5258824"></rect>
        <rect id="path-3" x="0.59" y="0.45" width="9.66" height="12.82"></rect>
        <rect id="path-5" x="0.59" y="0.45" width="9.66" height="12.82"></rect>
        <rect id="path-7" x="0.525" y="0.15" width="2.4375" height="1"></rect>
        <rect id="path-9" x="0.62" y="0.213333333" width="9.13" height="1.28888889"></rect>
        <rect id="path-11" x="0.78" y="0.3" width="3.65" height="4.24"></rect>
        <rect id="path-13" x="0.36" y="0.19" width="14.31" height="16.15"></rect>
        <rect id="path-15" x="0.534375" y="0.822857143" width="2.4" height="5.07428571"></rect>
        <rect id="path-17" x="0.11" y="0.21" width="2.23" height="1"></rect>
        <rect id="path-19" x="0.49" y="0.217105263" width="26.11" height="14.7828947"></rect>
        <rect id="path-21" x="0.0806746032" y="0.02" width="18.8288492" height="7.78"></rect>
        <rect id="path-23" x="0.56" y="0.16" width="3.87" height="5.32"></rect>
        <rect id="path-25" x="0.26" y="0.12" width="2.31" height="1.58666667"></rect>
        <path d="M6.32972136,0.0893798361 L4.73034056,0.149438503 C4.41161787,0.16517494 4.15972821,0.431217666 4.15495356,0.75715508 C4.15495356,2.68989305 3.91114551,9.21537433 3.40402477,15.7906684 C2.87739938,22.6847647 0.673374613,41.3048021 0.146749226,45.748107 C0.0722775434,46.3513988 0.29070006,46.9538535 0.731888545,47.3620428 L7.29520124,53.498984 C7.59305653,53.7740685 7.99312566,53.9035415 8.39170073,53.8538403 C8.7902758,53.8041391 9.14811074,53.5801575 9.37244582,53.2399572 L14.648452,45.1702781 C14.9342265,44.7381462 15.0427668,44.2087828 14.950774,43.6958182 C14.0828173,39.0134118 9.73328173,15.3822032 9.73328173,15.1729893 C9.73328173,14.9637754 7.46099071,3.21790909 6.94411765,0.587791444 C6.895518,0.293223787 6.64150744,0.0805298309 6.34922601,0.0893798361 L6.34922601,0.0893798361" id="path-27"></path>
    </defs>
    <g id="Trade" stroke="none" stroke-width="1" fill="none" fill-rule="evenodd">
        <g id="trade-annotated" transform="translate(-277.000000, -2044.000000)">
            <g id="Stacked-Group" transform="translate(140.000000, 1218.000000)">
                <g id="Group-14" transform="translate(0.000000, 802.000000)">
                    <g id="Resized-Illutration_TrueCar_09_Consumer_Control_Final" transform="translate(85.000000, 0.000000)">
                        <path d="M116.595514,36.4798765 L65.4976463,28.8655467 L63.4297561,24 C60.8273861,24.4765118 58.3553766,25.5023233 56.1771556,27.0096165 L56.1771556,27.0096165 C55.3972577,27.5872526 54.6716357,28.2353508 54.0093672,28.9458032 C52.6250567,30.4120468 51.9025043,32.3857008 52.0114057,34.4032411 L52.0114057,182.636887 C51.9074373,184.532675 52.5172168,186.398398 53.7196628,187.863588 C54.2528279,188.437884 54.8343987,188.964854 55.4578894,189.43862 C57.7959824,191.257077 60.5382706,192.479114 63.4497357,193 L65.1979521,188.896889 L116.006115,186.158138 C119.407236,185.813309 121.996789,182.939752 122,179.506886 L122,43.0709367 C122.001008,39.8905983 119.769562,37.150342 116.665442,36.5200047" id="Path" fill="#C6C6C6" fill-rule="nonzero"></path>
                        <path d="M58,30.7213735 L58,186.275072 C58,188.184373 58.8107505,190.003557 60.22911,191.279015 C61.6474694,192.554473 63.5401299,193.166007 65.4351633,192.961135 L123.99583,186.625915 C127.410608,186.257298 130,183.370256 130,179.929828 L130,42.5999102 C130,39.4002745 127.747824,36.6444646 124.616261,36.0140886 L66.0455872,24.1255278 C64.0768221,23.7391764 62.0387311,24.2548874 60.4893109,25.5314674 C58.9398907,26.8080473 58.0414721,28.7117505 58.0400278,30.7213735" id="Path" fill="#E5E5E5" fill-rule="nonzero"></path>
                        <polygon id="Path" fill="#FF6400" fill-rule="nonzero" points="58 37 130 50.8197425 130 169.849785 58 177"></polygon>
                        <path d="M73.8204619,151 L70.1750683,156.853772 C67.4148818,161.2804 65.7739656,166.327315 65.3973181,171.548549 L65,177 L98.8912342,174.364797 L105,166.408897 L73.8204619,151 Z" id="Path" fill="#01ACED" fill-rule="nonzero"></path>
                        <path d="M133.040811,109 C135.396924,111.561337 141.082749,115.388276 141.082749,125.603491 C141.082749,135.818706 143.390181,154.109666 142.942325,157.47456 C142.494469,160.839453 140.995125,167.036885 131.950379,170 L115,159.061584 C118.431367,156.248332 122.388967,154.196581 126.624786,153.034909 C125.407786,149.288325 124.901514,137.084308 124.901514,137.084308 L133.040811,109 Z" id="Path" fill="#000000" fill-rule="nonzero"></path>
                        <path d="M126,152.385756 C127.672161,152.077551 129.395852,152.211999 131,152.775756" id="Path" stroke="#454545" stroke-width="0.24" stroke-linecap="round"></path>
                        <path d="M130,125 C130,125 125.76,133.347826 124,137" id="Path" stroke="#454545" stroke-width="0.24" stroke-linecap="round"></path>
                        <path d="M124.62167,137.774498 C124.62167,137.774498 114.820227,156.851418 114.309109,160.105077 C113.797991,163.358735 112.525206,169.332016 105.740363,169.559476 C98.9555191,169.786935 90.3867728,171.537384 77.4985767,165.999242 C65.4722661,160.836902 67.3563881,152.064882 69.8518475,148.554095 C70.2552188,147.97969 70.6233491,147.38195 70.9542593,146.764089 C73.1189952,142.758825 80.1243211,129.665076 80.8458998,126.530092 C81.7178073,122.801736 80.8458998,111.408987 86.738792,105.762061 C92.6316841,100.115134 100.338545,97.088935 108.937357,96.1197602 C117.536169,95.1505854 124.41121,100.382151 124.41121,100.382151 C124.41121,100.382151 130.564672,107.581736 133,110.093679 L124.62167,137.774498 Z" id="Path" fill="#000000" fill-rule="nonzero"></path>
                        <g id="Group" opacity="0.1" transform="translate(83.000000, 170.000000)">
                            <g id="Clipped">
                                <mask id="mask-2" fill="white">
                                    <use xlink:href="#path-1"></use>
                                </mask>
                                <g id="Rectangle"></g>
                                <path d="M1.04123016,7.63941176 C1.04123016,7.63941176 -0.311388889,11.9163025 0.12968254,12.3489076 C0.570753968,12.7815126 1.84496032,12.8994958 2.43305556,11.0904202 C3.02115079,9.28134454 4.77563492,5.01428571 4.77563492,5.01428571 L7.94154762,9.9302521 C7.94154762,9.9302521 6.96138889,12.575042 7.94154762,12.8798319 C8.92170635,13.1846218 10.6761905,10.0678992 10.6761905,10.0678992 C10.6761905,10.0678992 10.6761905,11.4148739 11.4603175,11.4148739 C12.2444444,11.4148739 16.6747619,4.98478992 16.6747619,4.98478992 C16.6747619,4.98478992 18.8213095,4.09991597 18.8507853,3.19537815 C18.880119,2.29084034 9.76464286,0.412941176 9.68623016,0.373613445 C9.60781746,0.334285714 3.33480159,1.73042017 3.33480159,1.73042017 L1.04123016,7.63941176 Z" id="Path" fill="#1A1919" fill-rule="nonzero" mask="url(#mask-2)"></path>
                            </g>
                        </g>
                        <path d="M110.293001,163 C110.293001,163 106.166081,163.951678 101.667637,164.945188 C99.063609,165.566141 96.5010622,166.362627 93.9961844,167.329613 C93.8564987,167.373503 93.7218214,167.433116 93.5945376,167.507399 C92.7410383,168.009383 89.2868762,170.017319 88.322924,170.456555 C86.6492883,171.653994 85.1968282,173.156121 84.0353449,174.890748 C83.9248921,175.424106 84.0353449,175.601892 84.9189678,175.936548 C85.8025906,176.271204 92.1385681,175.173114 92.1385681,175.173114 L100.040968,174.200519 L112,173.499833 C112,173.499833 112,171.136325 111.849382,168.919229 C111.548687,166.901033 111.026473,164.925475 110.293001,163.031374" id="Path" fill="#CC935A" fill-rule="nonzero"></path>
                        <path d="M87.7387859,171.082145 C87.1627638,171.724107 86.6222924,172.397821 86.1198498,173.100198 L84.9827399,174.903773 C84.231091,176.122404 83.440896,177.438526 83.1807098,178.01372 C82.7663392,178.93013 81.6003198,180.616716 82.1399652,181.172412 C82.6796105,181.728108 84.1443623,181.718359 85.1561973,180.041522 C86.1680324,178.364686 88.0471547,175.800685 88.0471547,175.800685 C88.0471547,175.800685 87.2665962,181.591621 87.2376867,182.010831 C87.2087771,182.43004 87.4978728,182.849249 88.4326157,182.829751 C89.3673586,182.810253 89.3962682,182.352047 89.3962682,182.352047 C89.3962682,182.352047 89.1649916,182.878496 89.6853639,182.985736 C90.2057362,183.092975 91.6126688,182.615272 92.5763213,180.879941 C93.5399737,179.14461 95.0529081,176.98032 95.0529081,176.98032 C95.0529081,176.98032 93.6459755,179.973279 93.5688833,180.343743 C93.4917911,180.714207 94.1952574,180.996929 94.6578106,180.918937 C95.1203638,180.840944 100.304814,175.186495 100.304814,175.186495 C101.484402,174.939896 102.61684,174.502043 103.658325,173.889871 C104.776161,173.0807 106,172.05705 106,172.05705 L99.4471633,170 L87.7387859,171.082145 Z" id="Path" fill="#CC935A" fill-rule="nonzero"></path>
                        <path d="M90,170 C89.6872485,170.252765 89.3913862,170.541127 89.1157025,170.861878 C88.4132231,171.690608 88,176 88,176" id="Path" stroke="#000000" stroke-width="0.24" stroke-linecap="round"></path>
                        <path d="M92,172 C92,172 90.3601286,177.42192 89.8874598,178.702231 C89.5263807,179.782672 89.2300294,180.883903 89,182" id="Path" stroke="#000000" stroke-width="0.24" stroke-linecap="round"></path>
                        <line x1="97" y1="173" x2="95" y2="177" id="Path" stroke="#000000" stroke-width="0.24" stroke-linecap="round"></line>
                        <path d="M88,171 C87.3729907,171.671926 86.784679,172.377085 86.2377622,173.112245 L85,175" id="Path" stroke="#000000" stroke-width="0.24" stroke-linecap="round"></path>
                        <path d="M107.911918,149 C107.911918,149 114.664245,153.453276 120.207946,157.61304 C125.751646,161.772805 135.190919,164.222106 136,167.379884 L136,172.531514 C136,172.531514 134.861294,180.304504 131.135528,179.990751 C127.409762,179.676997 120.967083,179.990751 107.222701,172.298729 C93.4783201,164.606707 92.4994325,161.874015 92,161.07445" id="Path" fill="#000000" fill-rule="nonzero"></path>
                        <path d="M140,171.441436 C139.810728,169.87562 138.744571,168.587561 137.303977,168.184282 C134.844446,167.512807 132.337618,168.645295 130.795681,172.092867 C129.168608,175.730858 130.12404,179.559267 132.867363,180.701776 C135.610685,181.844285 139.555393,179.900015 140,171.441436" id="Path" fill="#FFFFFF" fill-rule="nonzero"></path>
                        <line x1="105" y1="149.455" x2="107" y2="149.545" id="Path" stroke="#454545" stroke-width="0.24" stroke-linecap="round"></line>
                        <path d="M136,167 C135.242705,163.915702 125.776512,161.505785 120.256228,157.429752 C114.735943,153.353719 108,149 108,149" id="Path" stroke="#454545" stroke-width="0.24" stroke-linecap="round"></path>
                        <path d="M91,161 C90.5867347,160.16 84.305102,144.89 82,123" id="Path" fill="#000000" fill-rule="nonzero"></path>
                        <path d="M103,110 C103,110 104.876228,138.387419 108,150" id="Path" fill="#000000" fill-rule="nonzero"></path>
                        <path d="M107,150 C104.843923,141.852222 103.470994,127.91313 102.842541,120.304543 C102.54097,116.713734 101.576065,113.21584 100,110" id="Path" stroke="#454545" stroke-width="0.24" stroke-linecap="round"></path>
                        <line x1="105" y1="149.455" x2="107" y2="149.545" id="Path" stroke="#454545" stroke-width="0.24" stroke-linecap="round"></line>
                        <path d="M96,166 C92.1696306,163.091058 91.6716826,161.792603 91.3844049,161.249064 C90.9534884,160.403558 84.4035568,145.033474 82,123" id="Path" stroke="#454545" stroke-width="0.24" stroke-linecap="round"></path>
                        <path d="M109.708025,93.2863505 C108.11165,92.6084882 106.236261,93.1694549 105.330641,94.5957147 C103.918581,96.6078995 106.934337,110 116.213585,110 C124.413617,110 124.17155,102.201581 123.90931,99.5635967 C123.851859,98.9517814 123.438339,98.4230011 122.840179,98.1964664 L109.708025,93.2863505 Z" id="Path" fill="#FFFFFF" fill-rule="nonzero"></path>
                        <path d="M133.654588,178.186651 C132.858216,177.489207 132.60935,174.326149 133.943273,172.361517 C135.277195,170.396885 136.780347,169.679794 138.592092,169.856611 C140.403838,170.033428 141.578486,170.455824 144.26624,169.561916 C145.929752,168.962177 147.73137,168.839569 149.462565,169.208282 C149.641749,169.32616 152.956646,170.534409 152.956646,170.534409 L152.548506,173.019669 C152.548506,173.019669 156.231725,176.831055 157.257053,178.265236 C158.0776,178.497515 158.866487,178.827374 159.60635,179.247553 C159.60635,179.247553 161,179.247553 161,180.023582 C160.418711,180.661404 159.793393,181.258769 159.128527,181.811398 C158.401837,182.351671 156.142133,182.106092 156.142133,182.106092 C155.48991,182.673794 154.652527,182.991074 153.782882,183 C151.688362,182.864317 149.607995,182.565416 147.561228,182.106092 C145.142249,181.575642 141.767624,180.91749 138.084405,179.846765 C134.401186,178.776041 134.650052,179.051089 133.624724,178.157182" id="Path" fill="#CC935A" fill-rule="nonzero"></path>
                        <path d="M156,182.945 C155.297871,182.715361 154.627021,182.416832 154,182.055" id="Path" stroke="#000000" stroke-width="0.24" stroke-linecap="round"></path>
                        <path d="M114.012994,87 L108,95.7704911 C108,95.7704911 109.28641,104.970307 114.656199,106.60583 C120.025988,108.241353 121.273416,104.295654 121.585273,103.712999 C121.89713,103.130344 126,95.146948 126,95.146948 L114.012994,87 Z" id="Path" fill="#CC935A" fill-rule="nonzero"></path>
                        <g id="Group" opacity="0.3" transform="translate(116.000000, 89.000000)">
                            <g id="Clipped">
                                <mask id="mask-4" fill="white">
                                    <use xlink:href="#path-3"></use>
                                </mask>
                                <g id="Rectangle"></g>
                                <path d="M1.31,0.45 L0.59,2 C1.27430202,6.29258296 3.33845816,10.2453718 6.47,13.26 L10.25,6.26 L1.31,0.45 Z" id="Path" fill="#1A1919" fill-rule="nonzero" mask="url(#mask-4)"></path>
                            </g>
                        </g>
                        <g id="Group" opacity="0.3" transform="translate(116.000000, 89.000000)">
                            <g id="Clipped">
                                <mask id="mask-6" fill="white">
                                    <use xlink:href="#path-5"></use>
                                </mask>
                                <g id="Rectangle"></g>
                                <path d="M1.31,0.45 L0.59,2 C1.27430202,6.29258296 3.33845816,10.2453718 6.47,13.26 L10.25,6.26 L1.31,0.45 Z" id="Path" fill="#1A1919" fill-rule="nonzero" mask="url(#mask-6)"></path>
                            </g>
                        </g>
                        <path d="M115.123188,91.9443221 C117.233322,96.3008877 121.690253,99.0510453 126.556522,98.9992818 C134.986957,98.9992818 136.194203,88.7292761 138,79.2655515 L132.927536,67 L117.628986,67 L112.810145,78.2677786 L110,79.8400268 L111.542029,88.0237801 L115.123188,91.9443221 Z" id="Path" fill="#CC935A" fill-rule="nonzero"></path>
                        <path d="M132.933132,91.7475152 C133.013835,91.6421944 133.022096,91.5060501 132.954604,91.3936958 C132.887111,91.2813416 132.75492,91.2111842 132.61106,91.211367 L130.413388,91.211367 C129.75977,91.211367 128.291498,91.0857072 127.42948,91.0019341 C127.28469,90.9883079 127.143445,91.0474485 127.0636,91.1551315 C126.983755,91.2628144 126.978725,91.4009475 127.050571,91.5129503 C127.649651,92.4568435 128.792132,93.0282008 130.015533,92.9957353 C131.168514,93.0502479 132.272881,92.5793018 132.942605,91.7475152" id="Path" fill="#FFFFFF" fill-rule="nonzero"></path>
                        <g id="Group" opacity="0.3" transform="translate(129.000000, 88.000000)">
                            <g id="Clipped">
                                <mask id="mask-8" fill="white">
                                    <use xlink:href="#path-7"></use>
                                </mask>
                                <g id="Rectangle"></g>
                                <path d="M0.590625,0.46 L1.528125,0.21 C1.67833954,0.169841619 1.83263965,0.149688136 1.9875,0.15 L2.653125,0.15 C2.84987644,0.15 3.00937517,0.320131795 3.00937517,0.53 C3.00944279,0.582172575 2.98939472,0.632079375 2.95393367,0.668013242 C2.91847262,0.70394711 2.87071904,0.722745978 2.821875,0.72 L0.65625,0.65 C0.617777387,0.636511641 0.591773428,0.59819732 0.591773428,0.555 C0.591773428,0.51180268 0.617777387,0.473488359 0.65625,0.46" id="Path" fill="#1A1919" fill-rule="nonzero" mask="url(#mask-8)"></path>
                            </g>
                        </g>
                        <path d="M113.443719,82.9115382 L114.519121,86.5582901 C114.599779,86.8423581 114.872821,87.0273052 115.166354,86.9966975 L116.092395,86.9070232 C116.435396,86.8754032 116.688759,86.5729529 116.659969,86.2294846 L116.331373,83.2403437 C116.310158,83.0609504 116.40108,82.8869017 116.560394,82.8019364 L116.918862,82.6026603 C117.856547,82.0957539 118.40997,81.0856958 118.332817,80.0220353 L118.332817,79.5537366 C118.312819,79.2858238 118.483162,79.040539 118.741072,78.9658722 L119.268815,78.826379 C120.222769,78.5660047 120.954645,77.799152 121.170685,76.8336184 L121.280216,76.3055368 C121.299159,76.2191572 121.352076,76.1440543 121.42702,76.097184 C121.501965,76.0503137 121.592618,76.0356277 121.678514,76.0564417 L121.947364,76.1261884 C123.639978,76.5350699 125.405811,75.8274851 126.348548,74.3625952 C126.466365,74.1899658 126.699552,74.1415374 126.876292,74.2529934 L127.1551,74.4323418 C128.133353,75.0489118 129.347336,75.1600178 130.421137,74.7312559 L130.71986,74.6116903 C131.06527,74.4732539 131.460148,74.5601826 131.715603,74.830894 L131.80522,74.930532 C132.373051,75.5479663 133.167481,75.907667 134.005812,75.9269123 L134.63313,75.9269123 C134.891538,75.9376258 135.120477,76.0968203 135.220619,76.3354282 L135.220619,76.4151387 C135.704122,77.5498238 136.655976,78.418673 137.829465,78.7964876 L138.387082,78.9857998 L137.640274,82.971321 L138.436869,82.8119002 C139.297562,82.626952 140.037332,82.0808334 140.467921,81.3125216 C140.89851,80.5442099 140.978396,79.6277948 140.687248,78.7964876 L140.687248,78.7167772 C140.637163,78.5681089 140.637163,78.4071104 140.687248,78.2584422 L140.79678,77.9595281 C141.178388,76.9887784 141.015304,75.8882051 140.36861,75.0700252 C140.315248,74.9775409 140.315248,74.8635955 140.36861,74.7711111 L140.607589,73.8145861 C141.19346,72.2474908 140.654354,70.4820153 139.293208,69.5102231 L138.964613,69.2710919 C138.76588,69.1354138 138.655543,68.9031771 138.675847,68.6632999 L138.675847,68.1551459 C138.766375,66.9023089 137.914153,65.7766564 136.684361,65.5247019 C136.432056,65.4756908 136.244154,65.2631437 136.226319,65.0065842 L136.047085,63.3525929 C135.874523,61.7365295 134.514791,60.5089834 132.89058,60.5029452 L132.731261,60.5029452 C132.50458,60.5044409 132.287733,60.410414 132.133815,60.2438863 L131.606072,59.6560219 C130.259106,58.1693558 128.002405,57.9534718 126.398335,59.1578318 C126.294202,59.2326668 126.153959,59.2326668 126.049825,59.1578318 L125.37272,58.6994969 C124.469658,58.0913216 123.362065,57.8672139 122.293807,58.076517 C121.22555,58.2858202 120.284218,58.9113728 119.67707,59.8154428 C119.611822,59.9138915 119.494752,59.9646543 119.378347,59.9449722 L118.302945,59.6759495 C117.408636,59.454125 116.462548,59.6088738 115.685375,60.1040973 C114.908202,60.5993207 114.367907,61.3917126 114.190526,62.2964297 L114.130781,62.5754162 C114.076788,62.8660429 113.818629,63.0735487 113.523378,63.0636426 L112.527635,63.0636426 C111.461391,63.0283574 110.433498,63.4636139 109.716446,64.2540276 C108.999393,65.0444413 108.665601,66.110183 108.803556,67.1687294 L108.853343,67.5872092 C108.891909,67.8573479 108.733024,68.116747 108.474961,68.2049649 L108.016919,68.3743496 C107.183033,68.6820483 106.50868,69.3136992 106.146844,70.1260059 C105.785009,70.9383125 105.766362,71.8624168 106.095135,72.6886763 L105.80637,73.1968303 C104.591726,75.2772085 104.761148,77.8872018 106.234539,79.7928679 C106.397429,79.9985187 106.494591,80.2485232 106.513347,80.5102617 L106.573092,81.0582709 C106.773609,82.9289005 107.986764,84.5372647 109.729597,85.2430681 L110.834872,85.6914393 L113.443719,82.9115382 Z" id="Path" fill="#000000" fill-rule="nonzero"></path>
                        <path d="M114,87.9830363 C114,87.9830363 111.249073,88.4926057 109.415121,83.9260804 C107.58117,79.3595551 112.337981,78.8009887 113.690521,82.1229889" id="Path" fill="#CC935A" fill-rule="nonzero"></path>
                        <path d="M201.358343,36.4798765 L252.492526,28.8655467 L254.561886,24 C257.168903,24.4775019 259.645732,25.5031709 261.829638,27.0096165 L261.829638,27.0096165 C262.607189,27.5870356 263.330027,28.235175 263.98897,28.9458032 C265.378392,30.4094725 266.102136,32.3849794 265.988352,34.4032411 L265.988352,182.636887 C266.092394,184.532675 265.482181,186.398398 264.27888,187.863588 C263.751122,188.443754 263.168579,188.971231 262.539418,189.43862 C260.199664,191.257077 257.455427,192.479114 254.541892,193 L252.80243,188.896889 L201.94816,186.158138 C198.56666,185.785073 196.00509,182.920717 196,179.506886 L196,43.0709367 C195.998991,39.8905983 198.232023,37.150342 201.338349,36.5200047" id="Path" fill="#C6C6C6" fill-rule="nonzero"></path>
                        <path d="M261,30.7309984 L261,186.275471 C261,188.184659 260.189249,190.003734 258.77089,191.279117 C257.352531,192.554499 255.45987,193.165998 253.564837,192.961137 L195.00417,186.626293 C191.589392,186.257698 189,183.370828 189,179.930604 L189,42.6088306 C189,39.4093846 191.252176,36.6537381 194.383739,36.0233995 L252.944406,24.1255204 C254.913171,23.7391919 256.951262,24.2548723 258.500682,25.5313765 C260.050102,26.8078808 260.948521,28.7114711 260.949965,30.7209749" id="Path" fill="#E5E5E5" fill-rule="nonzero"></path>
                        <polygon id="Path" fill="#01ACED" fill-rule="nonzero" points="260.989985 177 189 169.849785 189 50.8197425 261 37"></polygon>
                        <path d="M219.000027,38.0000121 C219.000038,38.405135 219.244477,38.7702223 219.619044,38.9245603 C219.993612,39.0788982 220.424288,38.9919874 220.709691,38.7044672 C220.995093,38.4169469 221.078822,37.9856352 220.921726,37.6122121 C220.76463,37.2387891 220.397753,36.9970484 219.992647,37.0000272 C219.728109,37 219.474511,37.1056093 219.288146,37.2933572 C219.101781,37.4811051 218.998068,37.735478 219.000027,38.0000121" id="Path" fill="#FFFFFF" fill-rule="nonzero"></path>
                        <line x1="216" y1="182" x2="226" y2="183" id="Path" stroke="#FFFFFF" stroke-width="1.46" stroke-linecap="round" stroke-linejoin="round"></line>
                        <path d="M261,169.034403 C260.593888,165.302164 260.791991,161.03528 257.790725,158.660219 C252.778708,154.701785 214.257497,169.836371 214.257497,169.836371 C214.346643,169.682146 213.326411,170.031723 214.822091,173.270442 L260.881138,178 L261,169.034403 Z" id="Path" fill="#000000" fill-rule="nonzero"></path>
                        <path d="M211,165.114846 L212.854183,170.020203 C212.854183,170.020203 217.210515,172.217803 228.046518,171.982346 C238.523647,171.717457 248.312934,168.941024 258.42122,160.072139 C259.02068,159.547627 259.173549,158.685613 258.790063,157.992268 L257.145223,155 L211,165.114846 Z" id="Path" fill="#373737" fill-rule="nonzero"></path>
                        <path d="M221,168.064835 L222.238874,172.160356 C222.334483,172.478595 222.596841,172.710067 222.911963,172.754207 L223.536278,172.846356 C224.947275,173.051215 226.378424,173.051215 227.78942,172.846356 L229.291677,172.631341 C229.523809,172.595447 229.730584,172.458005 229.860738,172.253091 C229.990891,172.048177 230.032236,171.794977 229.974521,171.556267 L228.881971,167.184298 L224.004514,167 L221,168.064835 Z" id="Path" fill="#EFC153" fill-rule="nonzero"></path>
                        <g id="Group" opacity="0.1" transform="translate(145.000000, 174.000000)">
                            <g id="Clipped">
                                <mask id="mask-10" fill="white">
                                    <use xlink:href="#path-9"></use>
                                </mask>
                                <g id="Rectangle"></g>
                                <polygon id="Path" fill="#1A1919" fill-rule="nonzero" mask="url(#mask-10)" points="9.75 1.50222222 4.76 0.648888889 0.62 0.488888889 3.2 0.213333333 8.78 0.488888889"></polygon>
                            </g>
                        </g>
                        <g id="Group" opacity="0.1" transform="translate(152.000000, 174.000000)">
                            <g id="Clipped">
                                <mask id="mask-12" fill="white">
                                    <use xlink:href="#path-11"></use>
                                </mask>
                                <g id="Rectangle"></g>
                                <path d="M0.78,0.3 L3.65,0.6 C3.65,0.6 2.03,1.52 4.21,4.25 C5.49,5.85 0.78,0.3 0.78,0.3" id="Path" fill="#1A1919" fill-rule="nonzero" mask="url(#mask-12)"></path>
                            </g>
                        </g>
                        <path d="M163.798821,174.649179 C163.157281,171.842833 159.786655,170.673523 157.87222,170.533206 C155.957786,170.392888 154.817272,170 154.063718,170 C152.626485,170.141896 151.203375,170.385843 149.807156,170.72965 L143.524145,173.124398 C143.276675,173.219883 143.092345,173.416538 143.026304,173.655529 C142.960263,173.89452 143.02017,174.148129 143.188101,174.340481 C143.588086,174.788935 144.212138,175.015411 144.837773,174.939168 L147.841806,174.555634 L153.52401,174.845623 C153.52401,174.845623 155.876321,177.231017 157.016835,178.540644 C157.856218,178.761841 158.663214,179.075961 159.420061,179.476093 C159.838486,179.715876 160.300835,179.883864 160.784605,179.971881 C161.18597,180.046058 161.602989,179.972129 161.945485,179.766082 C163.065633,179.092559 164.481092,177.418106 163.839553,174.621115" id="Path" fill="#FABE78" fill-rule="nonzero"></path>
                        <path d="M152,183.13191 C152,183.13191 152,183.52176 150.375503,183.816782 C149.402122,183.983928 148.40696,183.922846 147.457244,183.637662 C147.457244,183.637662 145.677106,184.543801 144.772446,183.490151 C143.867785,182.436501 143.799693,182.215234 143.799693,182.215234 C143.799693,182.215234 141.688819,183.268884 140.881434,182.215234 C140.074049,181.161584 138.206363,178.727653 139.373667,178.116536 C140.54097,177.505419 142.389201,179.496817 142.389201,179.496817 C142.389201,179.496817 142.223833,178.801408 143.361954,178.696043 C144.500075,178.590678 146.348305,180.729588 146.348305,180.729588 C146.348305,180.729588 146.182937,180.15008 147.554519,180.255445 C148.926101,180.36081 149.684848,182.194161 149.684848,182.194161 L150.142042,182.194161 C150.743087,182.255442 151.312873,182.512597 151.776267,182.931716 L152,183.13191 Z" id="Path" fill="#FABE78" fill-rule="nonzero"></path>
                        <path d="M147,181 C147.073661,181.554396 147.240204,182.098765 147.495327,182.619048 C147.5596,182.789667 147.717041,182.92918 147.925234,183 L148,183" id="Path" stroke="#000000" stroke-width="0.24" stroke-linecap="round"></path>
                        <path d="M145,182 C144.188696,181.38035 143.517114,180.708768 143,180" id="Path" stroke="#000000" stroke-width="0.24" stroke-linecap="round"></path>
                        <path d="M204.571641,86.4715623 L208.042142,85 C209.519632,88.5933543 211.174351,92.1087326 213,95.5327574 L208.210709,113 L195.687159,100.904968 L193,92.0856731 L204.571641,86.4715623 Z" id="Path" fill="#FABE78" fill-rule="nonzero"></path>
                        <path d="M183.122668,67 C183.305086,68.2923024 183.305086,69.6098982 183.122668,70.9022006 C182.690374,72.8436631 183.426118,74.8797131 184.92851,75.8995692 C186.780657,76.9628392 185.669369,69.2328668 185.669369,69.2328668 L183.122668,67 Z" id="Path" fill="#D85912" fill-rule="nonzero"></path>
                        <path d="M184.152369,71.408998 C184.152369,71.408998 183.263888,80.4239947 185.777885,88.1969251 C186.787522,91.1217907 188.43323,95.2787058 189.816433,95.9999056 C191.199636,96.7211053 194.036717,98.3438047 198.792108,94.7778727 C203.5475,91.2119407 208,87.0349922 208,87.0349922 L203.870584,66 L186.282703,67.722866 L184.263429,69.4457321 L184.152369,71.408998 Z" id="Path" fill="#FABE78" fill-rule="nonzero"></path>
                        <g id="Group" opacity="0.1" transform="translate(194.000000, 86.000000)">
                            <g id="Clipped">
                                <mask id="mask-14" fill="white">
                                    <use xlink:href="#path-13"></use>
                                </mask>
                                <g id="Rectangle"></g>
                                <path d="M9.14,12.58 C10.98,12.14 12.06,8.46 13.14,7.58 C14.22,6.7 14.67,2.72 14.67,2.72 L13.67,0.14 L12.04,0.82 L0.33,6.42 L3.04,15.17 L4.22,16.29 C7.33,15.86 7.27,12.98 9.11,12.53" id="Path" fill="#1A1919" fill-rule="nonzero" mask="url(#mask-14)"></path>
                            </g>
                        </g>
                        <g id="Group" opacity="0.1" transform="translate(195.000000, 98.000000)">
                            <g id="Clipped">
                                <mask id="mask-16" fill="white">
                                    <use xlink:href="#path-15"></use>
                                </mask>
                                <g id="Rectangle"></g>
                                <path d="M2.925,3.56571429 C2.925,3.56571429 3.084375,5.79428571 2.071875,5.85142857 C1.059375,5.90857143 0.346875,3.16571429 0.58125,0.788571429 L0.80625,1.65714286 L2.925,3.56571429 Z" id="Path" fill="#1A1919" fill-rule="nonzero" mask="url(#mask-16)"></path>
                            </g>
                        </g>
                        <path d="M204.241572,81 C204.479625,81.8977962 204.553171,82.8324609 204.458537,83.7573161 C204.132753,85.0727029 203.2966,86.1977334 202.140951,86.87559 C200.877814,87.3562237 199.498384,87.4228398 198.196123,87.0660955 C197.833593,85.3449952 196.260801,84.172659 194.537296,84.3388592 C191.46033,84.5594445 187.702882,84.5293647 186.864606,84.8602426 C186.344178,85.1422144 185.975147,85.6461424 185.858675,86.2338874 C185.600741,85.8218746 185.288869,85.4474564 184.93164,85.1209343 C184.252385,86.0067901 183.925059,87.1196597 184.014468,88.2392082 C184.270882,89.9236777 185.247227,89.7030924 185.316261,91.3274023 C185.385295,92.9517121 186.401089,95.4784164 188.580606,95.6689219 C189.282165,97.5444569 190.990673,98.8354794 192.959365,98.9777012 C195.633434,99.1874913 198.208813,97.905193 199.685296,95.6288154 C200.296744,94.4557028 202.180399,95.007166 203.235641,93.6234946 C204.290882,92.2398232 204.28102,91.3073491 204.675503,91.0065509 C205.069986,90.7057528 208.492124,90.0038905 207.939848,85.9932489 L207.535503,83.1256401 L204.241572,81 Z" id="Path" fill="#FF6400" fill-rule="nonzero"></path>
                        <path d="M208.350847,84 C208.350847,84 212.226815,81.6611814 212.55818,79.3911515 C212.78241,77.895799 212.929868,76.3903819 213,74.8805728 C213,74.0845883 212.256939,72.3943496 212.33727,71.4902684 C212.363644,70.744984 212.326699,69.9988433 212.226815,69.2595465 C212.226815,69.2595465 213.180745,65.8299343 211.152388,64.4639856 C211.050848,63.4099986 210.334095,62.5092306 209.314818,62.1546479 C207.507372,61.4274522 205.850546,61.5355488 204.153555,60.7100834 C202.456563,59.884618 201.281723,58.8429593 197.596541,59.0198448 C195.599013,59.0530859 193.633899,59.5196106 191.842837,60.3857935 C191.842837,60.3857935 187.31418,58.9117481 184.512638,61.5748567 C181.711097,64.2379653 181.600642,66.8421121 182.504365,68.9647374 C182.878751,70.1016957 183.518153,71.1378832 184.372059,71.9914439 C185.446486,72.1388484 185.376196,73.8683949 189.131668,73.9077028 C192.887139,73.9470107 198.851712,71.1659785 200.809779,70.4093019 C202.767846,69.6526252 203.822189,70.5861873 203.059045,72.1585023 C202.295901,73.7308174 201.211434,75.5291527 204.063182,77.7303938 C204.27247,79.139507 204.557369,80.5368681 204.916699,81.9166826 L208.350847,84 Z" id="Path" fill="#FF6400" fill-rule="nonzero"></path>
                        <path d="M194.950227,93.8187689 C196.190191,93.8187689 197.069823,92.4932542 196.995637,91.6411377 C196.921451,90.7890211 196.433944,88.2326714 195.829859,88.0338442 C195.225775,87.835017 193.551294,88.5735181 191.590668,88.6587297 C190.567046,88.6914243 189.542185,88.6439026 188.527852,88.5167103 C188.37908,88.4990167 188.229869,88.5463762 188.126941,88.6439593 C188.024013,88.7415425 187.979951,88.8774197 188.008551,89.0090443 C188.205817,90.0002551 188.492907,90.9755079 188.866988,91.9251765 C189.37569,92.9666523 189.661836,93.5915378 190.043363,93.8187689 C190.42489,94.0459999 191.749638,94.0744038 191.749638,93.8187689 C191.749638,93.5631339 191.240935,92.4364464 191.463492,92.2376193 C191.68605,92.0387921 193.201561,92.0955998 193.583088,92.0671959 C193.964615,92.0387921 193.763254,93.53473 193.826841,93.7051533 C193.890429,93.8755766 194.240163,93.790365 194.939629,93.8187689" id="Path" fill="#FABE78" fill-rule="nonzero"></path>
                        <path d="M189.069271,89.7475234 C188.986763,89.6421494 188.977238,89.5046441 189.044579,89.3910599 C189.111919,89.2774757 189.244876,89.2067854 189.389252,89.2078052 L191.596017,89.2078052 C192.247013,89.2078052 193.714512,89.0802354 194.57515,89.001731 C194.718598,88.9888932 194.858142,89.0481883 194.93704,89.1555055 C195.015938,89.2628228 195.021051,89.4002901 194.9503,89.51201 C194.347909,90.4488417 193.217434,91.0174391 192.004269,90.9937817 C190.851908,91.0604062 189.743803,90.5881076 189.080305,89.7475234" id="Path" fill="#FFFFFF" fill-rule="nonzero"></path>
                        <path d="M211.490905,79.064619 C209.022259,78.5073881 208,81.7372636 208,81.7372636 L208.228377,83.6256572 L208.717756,87 C210.37077,87 211.327778,84.8639482 212.07816,83.4502327 C212.828541,82.0365172 213.959551,79.6218499 211.490905,79.064619" id="Path" fill="#FABE78" fill-rule="nonzero"></path>
                        <g id="Group" opacity="0.3" transform="translate(190.000000, 84.000000)">
                            <g id="Clipped">
                                <mask id="mask-18" fill="white">
                                    <use xlink:href="#path-17"></use>
                                </mask>
                                <g id="Rectangle"></g>
                                <path d="M2.27,0.48 L1.46,0.27 C1.32706606,0.229773699 1.18888624,0.209552262 1.05,0.21 L0.43,0.21 C0.343369356,0.209957689 0.260423154,0.245041114 0.200115585,0.307233294 C0.139808016,0.369425475 0.107292782,0.453411657 0.11,0.54 C0.109913532,0.584225458 0.128136302,0.626514198 0.160341342,0.656824824 C0.192546382,0.68713545 0.235860925,0.702764181 0.28,0.7 L2.28,0.64 C2.32418278,0.64 2.36,0.60418278 2.36,0.56 C2.36,0.51581722 2.32418278,0.48 2.28,0.48" id="Path" fill="#1A1919" fill-rule="nonzero" mask="url(#mask-18)"></path>
                            </g>
                        </g>
                        <path d="M183,115.607553 L183.269147,112.28003 C184.036716,111.177477 189.808435,107.462571 190.466351,106.94606 C191.124267,106.429549 195.729679,101.393567 195.729679,101.393567 L207.980874,111.892646 L214.40054,99.3771874 L219.574153,96 L229.333241,98.0958427 L239.491067,98.7116828 C239.491067,98.7116828 243.936984,104.999211 244.983669,111.624458 C246.030354,118.249705 245.641585,128.510395 245.641585,128.510395 L254.533421,148.376203 L256.656695,152.150706 C257.07636,152.910651 257.113277,153.822921 256.75638,154.614067 C255.845863,156.603681 254.304903,158.240351 252.370272,159.272598 L246.130038,162.600121 C246.130038,162.600121 236.580287,167.467244 233.779159,167.636104 C230.751759,167.640392 227.726524,167.474581 224.71786,167.139458 L223.721018,167.536775 C222.331752,168.063256 220.81193,168.143145 219.374784,167.765231 L213.842308,166.32496 L211.609381,166.87127 L209.167117,165.341603 C209.167117,165.341603 208.230085,156.252996 207.263147,154.345878 C206.29621,152.438761 200.215471,142.426393 200.215471,142.426393 L183,115.607553 Z" id="Path" fill="#EEEEEE" fill-rule="nonzero"></path>
                        <path d="M223,166 C220.920177,161.127542 219.296044,156.077679 218.14787,150.913438 C216.794486,143.840066 211,130 211,130" id="Path" stroke="#E0E0E0" stroke-width="0.24" stroke-linecap="round"></path>
                        <path d="M223,159 C223,159.552285 222.552285,160 222,160 C221.447715,160 221,159.552285 221,159 C221,158.447715 221.447715,158 222,158 C222.552285,158 223,158.447715 223,159" id="Path" fill="#E0E0E0" fill-rule="nonzero"></path>
                        <path d="M220,146 C220,146.552285 219.552285,147 219,147 C218.447715,147 218,146.552285 218,146 C218,145.447715 218.447715,145 219,145 C219.552285,145 220,145.447715 220,146" id="Path" fill="#E0E0E0" fill-rule="nonzero"></path>
                        <path d="M215,133 C215,133.552285 214.552285,134 214,134 C213.447715,134 213,133.552285 213,133 C213,132.447715 213.447715,132 214,132 C214.552285,132 215,132.447715 215,133" id="Path" fill="#E0E0E0" fill-rule="nonzero"></path>
                        <path d="M212,123 C212,123.552285 211.552285,124 211,124 C210.447715,124 210,123.552285 210,123 C210,122.447715 210.447715,122 211,122 C211.552285,122 212,122.447715 212,123" id="Path" fill="#E0E0E0" fill-rule="nonzero"></path>
                        <path d="M180.186414,156.335648 C179.143071,146.969907 182.819614,116 182.819614,116 L200,142.5625 C199.344184,152.75463 198.231285,166.350694 197.625152,167 L180.186414,156.335648 Z" id="Path" fill="#EEEEEE" fill-rule="nonzero"></path>
                        <polygon id="Path" fill="#E0E0E0" fill-rule="nonzero" points="193 132 197.628866 143.155053 199.618557 160 200.494845 149.468077 201 142.21525 197.85567 137.802262"></polygon>
                        <path d="M191,130 L198.05314,138.70624 C198.71865,139.36726 199.299759,140.111891 199.782609,140.922374 L201,143" id="Path" stroke="#000000" stroke-width="0.24" stroke-linecap="round"></path>
                        <path d="M184,113 C184,113 188.317949,125.545812 190,128" id="Path" stroke="#E0E0E0" stroke-width="0.24" stroke-linecap="round"></path>
                        <path d="M198,166.918885 C197.385299,167.584917 193.747481,171.702204 189.696503,173.367284 C185.645525,175.032363 178.611737,178.281791 173.865442,179.785409 C171.648488,180.481715 167.879668,179.260656 167.879668,179.260656 L167.214582,173.145273 L164,169.532555 L164,167.635374 C164.393005,167.302358 164.886781,167.019799 167.023118,165.617096 C169.159455,164.214392 173.966212,160.450303 176.183165,158.724676 C177.494759,157.705489 178.886579,156.794289 180.344991,156 L198,166.918885 Z" id="Path" fill="#EEEEEE" fill-rule="nonzero"></path>
                        <path d="M165.129236,168 L164.769749,168 L161.252612,169.702838 L161,170.203673 L164.575432,179.529215 L165.692755,180 L168.529783,179.869783 L168.879553,179.529215 C170.113258,177.700653 170.344658,175.345293 169.491652,173.298831 C168.661277,171.074347 167.12328,169.206211 165.129236,168" id="Path" fill="#E0E0E0" fill-rule="nonzero"></path>
                        <path d="M166,178.5 C166,178.26 166.446809,178.07 167,178.07 C167.553191,178.07 168,178.26 168,178.5 C168,178.74 167.553191,178.93 167,178.93 C166.446809,178.93 166,178.74 166,178.5" id="Path" fill="#FFFFFF" fill-rule="nonzero"></path>
                        <rect id="Rectangle" fill="#FFFFFF" fill-rule="nonzero" x="166" y="178.83" width="2" height="1"></rect>
                        <path d="M166,178.505 C166,178.265 166.446809,178.075 167,178.075 C167.553191,178.075 168,178.265 168,178.505 C168,178.745 167.553191,178.925 167,178.925 C166.446809,178.925 166,178.735 166,178.505" id="Path" fill="#FFFFFF" fill-rule="nonzero"></path>
                        <path d="M181,156.52607 C183.031265,155.473987 185.243114,156.017339 187,158" id="Path" stroke="#000000" stroke-width="0.24" stroke-linecap="round"></path>
                        <path d="M189,175 C191.193943,174.074227 193.225151,172.720088 195,171" id="Path" stroke="#000000" stroke-width="0.24" stroke-linecap="round"></path>
                        <g id="Group" opacity="0.1" transform="translate(229.000000, 141.000000)">
                            <g id="Clipped">
                                <mask id="mask-20" fill="white">
                                    <use xlink:href="#path-19"></use>
                                </mask>
                                <g id="Rectangle"></g>
                                <path d="M0.49,3.375 C0.49,3.375 17.62,15.7401316 24.71,14.9703947 C25.84,14.8519737 26.22,14.4671053 26.44,13.9144737 C26.7003199,13.2267051 26.6380525,12.4604116 26.27,11.8223684 L24.5,8.69407895 L22.83,2.72368421 L7.54,0.217105263 L0.49,3.375 Z" id="Path" fill="#1A1919" fill-rule="nonzero" mask="url(#mask-20)"></path>
                            </g>
                        </g>
                        <path d="M223.240791,143.98194 C222.628026,144.065429 222.011617,143.856442 221.575311,143.417275 C221.139005,142.978108 220.933191,142.359482 221.019221,141.745806 L223.319781,127.695755 L224.307145,121.521648 L227.476585,102.148409 C227.650247,101.070222 228.501391,100.229301 229.579672,100.070584 L256.475482,96.0138797 C256.891755,95.9533007 257.312139,96.0931814 257.609577,96.3912441 C257.907014,96.6893068 258.046601,97.1105747 257.986149,97.5277232 L255.57698,113.536866 L253.345536,130.772914 L252.061962,139.450304 L223.240791,143.98194 Z" id="Path" fill="#000000" fill-rule="nonzero"></path>
                        <g id="Group" opacity="0.3" transform="translate(220.000000, 135.000000)">
                            <g id="Clipped">
                                <mask id="mask-22" fill="white">
                                    <use xlink:href="#path-21"></use>
                                </mask>
                                <g id="Rectangle"></g>
                                <path d="M12.6855159,7.8 L11.0094444,7.09 L10.1273016,5.84 C10.1273016,5.84 4.59920635,6.23 0.776587302,4.08 C-2.54615079,2.21 7.04960317,0 7.04960317,0 L13.6460714,1.25 L18.0763889,4.6 L18.8703175,5.68 L18.3018254,6.88 L12.6855159,7.8 Z" id="Path" fill="#1A1919" fill-rule="nonzero" mask="url(#mask-22)"></path>
                            </g>
                        </g>
                        <g id="Group" opacity="0.3" transform="translate(223.000000, 123.000000)">
                            <g id="Clipped">
                                <mask id="mask-24" fill="white">
                                    <use xlink:href="#path-23"></use>
                                </mask>
                                <g id="Rectangle"></g>
                                <path d="M1.45,0.16 C1.6287903,1.16687947 1.9663262,2.13898285 2.45,3.04 L2.59,4.12 L0.59,5.48 L2.74,5.18 L4.45,4.89 L2.77,1.77 L1.45,0.16 Z" id="Path" fill="#1A1919" fill-rule="nonzero" mask="url(#mask-24)"></path>
                            </g>
                        </g>
                        <path d="M233.608456,129.818509 L230.035839,124.323943 C230.035839,124.323943 224.884165,119.124255 224.193328,119.006304 C223.50249,118.888352 222.900475,120.451208 223.324846,121.552087 C223.738506,122.558039 224.360656,123.465726 225.150631,124.215821 L226.3744,126.909043 C226.3744,126.909043 224.104506,127.046652 222.84126,127.184262 L223.166941,125.218407 L219.219298,126.201335 C218.62273,126.377598 218.152817,126.837133 217.96496,127.427971 C217.777103,128.018809 217.895776,128.663977 218.281733,129.150118 L217.86723,129.238581 C217.462807,129.330357 217.159162,129.664197 217.107309,130.07407 L217.008618,130.988192 C216.946464,131.506237 217.224988,132.005556 217.699455,132.226681 L218.015267,132.38395 L217.916576,132.531389 C217.779297,132.730947 217.706945,132.967718 217.709324,133.209609 L217.709324,134.192537 C217.708972,134.627454 217.900169,135.04064 218.232387,135.322904 L218.745581,135.765221 L218.666628,135.932319 C218.523188,136.238967 218.478378,136.582265 218.538329,136.915247 C218.656014,137.560104 219.038837,138.126676 219.594324,138.478102 C220.534303,139.058455 221.581143,139.446093 222.673485,139.618298 C225.786436,139.909883 228.912875,140.034567 232.039268,139.99181 L235,133.425853 L233.608456,129.818509 Z" id="Path" fill="#FABE78" fill-rule="nonzero"></path>
                        <g id="Group" opacity="0.3" transform="translate(221.000000, 126.000000)">
                            <g id="Clipped">
                                <mask id="mask-26" fill="white">
                                    <use xlink:href="#path-25"></use>
                                </mask>
                                <g id="Rectangle"></g>
                                <path d="M2.41,1.38666667 L0.26,1.72 C0.26,1.72 2.14,1.42666667 1.72,0.12 L2.57,0.12 L2.41,1.38666667 Z" id="Path" fill="#1A1919" fill-rule="nonzero" mask="url(#mask-26)"></path>
                            </g>
                        </g>
                        <line x1="218" y1="129" x2="221" y2="131" id="Path" stroke="#000000" stroke-width="0.12" stroke-linecap="round"></line>
                        <line x1="218" y1="132" x2="221" y2="134" id="Path" stroke="#000000" stroke-width="0.12" stroke-linecap="round"></line>
                        <line x1="219" y1="136.035" x2="221" y2="136.965" id="Path" stroke="#000000" stroke-width="0.12" stroke-linecap="round"></line>
                        <path d="M254.826953,114 L260,119.905682 L260,149 L241.012454,143.286126 L239.642828,143.286126 C238.795114,143.307382 238.029173,142.770672 237.741118,141.953562 C237.187995,140.295204 236.940739,138.545914 237.011964,136.794924 C237.159766,132.75685 238.322469,131.111335 238.322469,131.111335 L238.41115,131.050764 C238.6969,130.879146 239.031916,130.566196 239.396493,130.606576 C239.685282,130.580655 239.976246,130.611494 240.25374,130.697433 L244.500566,131.030574 L252.747881,130.606576 L254.826953,114 Z" id="Path" fill="#EEEEEE" fill-rule="nonzero"></path>
                        <path d="M260,119.997592 L260,119.997592 C259.076081,119.594944 258.031344,119.679954 257.173655,120.227569 C256.315966,120.775185 255.74308,121.722994 255.623816,122.791692 L254.733424,130.897652 L253,131 L255.036536,114 L260,119.997592 Z" id="Path" fill="#1A1919" fill-rule="nonzero"></path>
                        <line x1="253" y1="130.67" x2="259" y2="130.33" id="Path" stroke="#000000" stroke-width="0.24" stroke-linecap="round"></line>
                        <path d="M233.698005,129.375427 L234.528554,129 L237.589998,129.781295 C237.833292,129.844195 238.060665,129.961909 238.256369,130.126282 L239,130.765524 L238.343287,141.693505 L237.985957,141.845706 C237.548458,142.027951 237.065158,142.049407 236.614585,141.906586 L232.2204,140.506343 C232.2204,140.506343 231.158069,135.970774 233.698005,129.344987" id="Path" fill="#E0E0E0" fill-rule="nonzero"></path>
                        <path d="M204.583781,115.009417 L206.365474,116.723677 C206.544324,116.901947 206.786443,117.001327 207.038347,116.999863 L208.185075,116.999863 C208.548753,117.00604 208.883863,116.802506 209.04749,116.476062 L210.781797,113.190397 C211.164978,112.458835 211.034808,111.562404 210.459576,110.971383 L207.559587,108 L206.44129,108.561896 L205.048158,108.657133 L204.043587,113.228492 C203.902999,113.876151 204.107599,114.550682 204.583781,115.009417" id="Path" fill="#000000" fill-rule="nonzero"></path>
                        <path d="M206.644287,117.060766 C206.322351,117.076569 206.067923,117.343723 206.0631,117.671022 C206.0631,119.611834 205.816834,126.164576 205.304602,132.76734 C204.772668,139.690237 202.546427,158.388062 202.014494,162.849929 C201.939271,163.455741 202.159895,164.060713 202.605531,164.470607 L209.235001,170.633186 C209.535858,170.90942 209.93996,171.039434 210.342553,170.989525 C210.745145,170.939616 211.106587,170.714699 211.333184,170.373077 L216.662371,162.269686 C216.951026,161.835749 217.060661,161.304174 216.96774,160.789067 C216.091035,156.087099 211.697657,132.357168 211.697657,132.14708 C211.697657,131.936992 209.402461,120.142056 208.880378,117.500951 C208.826372,117.199709 208.560921,116.98575 208.259789,117.000741 L206.644287,117.060766 Z" id="Path" fill="#373737" fill-rule="nonzero"></path>
                        <g id="Clipped" transform="translate(202.000000, 117.000000)">
                            <mask id="mask-28" fill="white">
                                <use xlink:href="#path-27"></use>
                            </mask>
                            <g id="Path"></g>
                            <g id="Group" mask="url(#mask-28)" stroke="#000000" stroke-linecap="round" stroke-width="1.21">
                                <g transform="translate(-4.690402, -12.157219)" id="Path">
                                    <line x1="0.663157895" y1="55.8331123" x2="25.7948916" y2="81.0184813"></line>
                                    <line x1="0.906965944" y1="50.7721283" x2="26.0386997" y2="75.9475348"></line>
                                    <line x1="1.15077399" y1="45.7011818" x2="26.2825077" y2="70.8765882"></line>
                                    <line x1="1.39458204" y1="40.6302353" x2="26.5165635" y2="65.8156043"></line>
                                    <line x1="1.62863777" y1="35.5592888" x2="26.7603715" y2="60.7446578"></line>
                                    <line x1="1.87244582" y1="30.4983048" x2="27.0041796" y2="55.6737112"></line>
                                    <line x1="2.11625387" y1="25.4273583" x2="27.2479876" y2="50.6027647"></line>
                                    <line x1="2.36006192" y1="20.3564118" x2="27.4917957" y2="45.5417807"></line>
                                    <line x1="2.60386997" y1="15.2954278" x2="27.7258514" y2="40.4708342"></line>
                                    <line x1="2.8379257" y1="10.2244813" x2="27.9696594" y2="35.3998877"></line>
                                    <line x1="3.08173375" y1="5.15353476" x2="28.2134675" y2="30.3389037"></line>
                                    <line x1="3.3255418" y1="0.0925508021" x2="28.4572755" y2="25.2679572"></line>
                                </g>
                            </g>
                        </g>
                        <path d="M195.729742,99.6455604 C198.830486,102.010507 202.067172,104.183498 205.422396,106.152849 L205.816807,106.515484 L205.816807,105.84058 L212.719002,94.1758117 L212.403473,93.6016391 C211.801996,92.4633673 211.604791,92 211.604791,92 L216.258842,92.946881 C216.962761,93.0902223 217.610433,93.4403058 218.122435,93.9542012 L219,94.8204966 L217.461796,99.6858532 L212.738723,111.169304 C212.680257,111.332821 212.548713,111.457872 212.384865,111.505697 C212.221017,111.553521 212.044661,111.518341 211.910459,111.41106 C211.120709,110.744829 210.366933,110.035304 209.652456,109.285615 C208.774891,108.368953 206.832416,106.485265 206.832416,106.485265 L205.846388,106.485265 L204.86036,106.898266 C204.219442,108.479759 203.716568,112.126258 203.341877,113.758117 C203.317452,113.865963 203.238962,113.95254 203.135575,113.985676 C203.032187,114.018811 202.919354,113.993554 202.839003,113.919288 C200.697625,111.892251 198.666646,109.746797 196.755211,107.492585 C196.535624,107.191388 196.331568,106.878694 196.143874,106.555777 C195.389507,105.294388 194.993481,103.843488 195,102.365325 L195,99.4944624 L195.483235,98.5979474 L195.729742,99.6455604 Z" id="Path" fill="#E0E0E0" fill-rule="nonzero"></path>
                        <polygon id="Path" fill="#7D7D7D" fill-rule="nonzero" points="212.625 94.985 212.945 94.425 212.055 94.015"></polygon>
                        <polygon id="Path" fill="#7D7D7D" fill-rule="nonzero" points="207 106.805 206 106.165 206 106.835"></polygon>
                        <polygon id="Path" fill="#7D7D7D" fill-rule="nonzero" points="205 107.88 205.61165 107.12 206 107.47"></polygon>
                        <rect id="Rectangle" x="0" y="0" width="320" height="214"></rect>
                    </g>
                </g>
            </g>
        </g>
    </g>
</svg>