<?xml version="1.0" encoding="UTF-8"?>
<svg width="216px" height="188px" viewBox="0 0 216 188" version="1.1" xmlns="http://www.w3.org/2000/svg" xmlns:xlink="http://www.w3.org/1999/xlink">
    <defs>
        <rect id="path-1" x="0.528001527" y="0.537476636" width="40.0384554" height="3.54336449"></rect>
        <rect id="path-3" x="0.249057324" y="0.716635514" width="4.91141043" height="4.84724299"></rect>
        <rect id="path-5" x="0.209208152" y="0.0796261682" width="12.1639597" height="12.1529439"></rect>
        <rect id="path-7" x="0.278944203" y="0.0869989616" width="31.9590358" height="2.70728972"></rect>
        <path d="M0,1.3038785 L0,30.9347664 C0.00547079908,31.6125091 0.556945197,32.1590187 1.23532433,32.1590187 L57.1237878,32.1590187 C57.8005366,32.1590187 58.3491907,31.6109023 58.3491907,30.9347664 L58.3491907,1.63233645 C58.3518062,1.30856323 58.2249292,0.997138347 57.996709,0.767255846 C57.7684888,0.537373344 57.4578277,0.408073235 57.1337501,0.408084112 L1.26521121,0.0796261682 C0.583817312,0.0844259278 0.0266006752,0.623603708 0,1.3038785" id="path-9"></path>
        <rect id="path-11" x="0.0970401129" y="0.457850467" width="38.324941" height="48.3629439"></rect>
        <rect id="path-13" x="0.146851578" y="0.0770456906" width="25.3440733" height="31.9898131"></rect>
        <rect id="path-15" x="0" y="0.766401869" width="23.7799933" height="186.365047"></rect>
        <polyline id="path-17" points="22.9132738 0.766401869 0 48.7610748 0.358642546 185.956963 23.6803704 187.131449 23.7899556 3.38411215"></polyline>
        <rect id="path-19" x="0" y="0.766401869" width="23.7799933" height="186.365047"></rect>
        <linearGradient x1="108.673649%" y1="50.194937%" x2="9.45119397%" y2="50.194937%" id="linearGradient-21">
            <stop stop-color="#E6E6E6" offset="0%"></stop>
            <stop stop-color="#E6E6E6" offset="0%"></stop>
            <stop stop-color="#DCDCDD" offset="2%"></stop>
            <stop stop-color="#D3D3D4" offset="3%"></stop>
            <stop stop-color="#DEDEDF" offset="35%"></stop>
            <stop stop-color="#FBFBFB" offset="92%"></stop>
            <stop stop-color="#FFFFFF" offset="99%"></stop>
            <stop stop-color="#FFFFFF" offset="100%"></stop>
        </linearGradient>
        <polygon id="path-22" points="0.116964699 26.6622326 0.116964699 200.784756 127.933183 201.630784 127.933183 0.0969522326"></polygon>
        <rect id="path-24" x="0.0372663551" y="0.726588785" width="27.0775123" height="29.4616822"></rect>
        <rect id="path-26" x="0.308831082" y="0.139345794" width="16.457708" height="3.25471963"></rect>
        <rect id="path-28" x="0.0796983437" y="0.16662513" width="39.9786816" height="97.4723832"></rect>
        <rect id="path-30" x="0.176738457" y="0.597196262" width="11.4665992" height="186.365047"></rect>
        <rect id="path-32" x="0" y="0.129392523" width="18.4501666" height="92.4559346"></rect>
    </defs>
    <g id="Trade" stroke="none" stroke-width="1" fill="none" fill-rule="evenodd">
        <g id="trade-annotated" transform="translate(-786.000000, -1264.000000)">
            <g id="Stacked-Group" transform="translate(140.000000, 1218.000000)">
                <g id="Group-10" transform="translate(0.000000, 40.000000)">
                    <g id="Stacked-Group-2" transform="translate(85.000000, 0.000000)">
                        <g id="right-car-illl" transform="translate(510.000000, 0.000000)">
                            <rect id="Rectangle" x="0" y="0" width="320" height="213"></rect>
                            <g id="Resized-Illutration_TrueCar_06_Get_A_Cash_Offer_In_Minutes_B_Small_Final-24">
                                <g id="Group" opacity="0.2" transform="translate(222.159133, 189.112150)">
                                    <g id="Clipped">
                                        <mask id="mask-2" fill="white">
                                            <use xlink:href="#path-1"></use>
                                        </mask>
                                        <g id="Rectangle"></g>
                                        <path d="M1.74340127,4.08084112 L30.7735229,4.08084112 C33.1475915,4.0835317 35.5051388,3.68647648 37.747128,2.90635514 L40.0683423,2.09018692 C40.4443549,1.96717137 40.6731091,1.58717658 40.6056329,1.19766718 C40.5381567,0.808157775 40.1948821,0.527078317 39.7993604,0.537476636 L8.44802443,0.537476636 C6.26125591,0.538881734 4.08757374,0.874540725 2.00242088,1.53280374 L1.38475872,1.72191589 C0.819485665,1.90568836 0.470203584,2.47100115 0.559108623,3.05822995 C0.648013661,3.64545876 1.14901548,4.08227365 1.74340127,4.09079439" id="Path" fill="#000000" fill-rule="nonzero" mask="url(#mask-2)"></path>
                                    </g>
                                </g>
                                <polygon id="Path" fill="#444444" fill-rule="nonzero" points="245.759805 191.968738 249.764647 191.968738 249.306381 190.794252 245.291577 190.973411"></polygon>
                                <polygon id="Path" fill="#444444" fill-rule="nonzero" points="264.817671 191.18243 251.946389 191.18243 249.306381 190.794252 251.667445 191.968738 265.256012 191.968738 265.913524 191.381495 266.052996 190.17715"></polygon>
                                <polygon id="Path" fill="#8B8B8B" fill-rule="nonzero" points="264.817671 191.18243 266.052996 190.17715 261.629738 189.619766 251.886615 185.608598 249.12706 183.060561 247.393621 182.473318 243.847045 183.69757 242.342739 184.663037 245.291577 190.973411 249.306381 190.794252 251.946389 191.18243"></polygon>
                                <path d="M215.982511,112.571495 L205.532066,144.421963 C204.903597,146.320955 203.589418,147.917833 201.846018,148.900935 L184.471779,158.645187 L184.471779,145.84528 L192.650821,141.435981 L199.624426,119.907056 L198.628197,109.515841 L217.397157,104.678551 L215.982511,112.571495 Z" id="Path" fill="#000000" fill-rule="nonzero"></path>
                                <path d="M240.300468,177.685794 L243.498364,184.653084 C243.498364,184.653084 246.397392,184.653084 246.795883,184.155421 C247.099006,183.633582 247.301739,183.059691 247.393621,182.463364 L244.69384,176.371963 L240.300468,177.685794 Z" id="Path" fill="#FFFFFF" fill-rule="nonzero"></path>
                                <g id="Group" opacity="0.15" transform="translate(241.087490, 177.168224)">
                                    <g id="Clipped">
                                        <mask id="mask-4" fill="white">
                                            <use xlink:href="#path-3"></use>
                                        </mask>
                                        <g id="Rectangle"></g>
                                        <path d="M4.48303183,1.18443925 L5.17043005,2.73714953 C5.17043005,2.73714953 4.59261705,4.72780374 1.52423082,5.57383178 L0.249057324,2.78691589 L3.98491718,0.716635514 L4.48303183,1.18443925 Z" id="Path" fill="#000000" fill-rule="nonzero" mask="url(#mask-4)"></path>
                                    </g>
                                </g>
                                <path d="M246.068636,177.984393 C244.141118,179.416363 241.784645,180.15319 239.383937,180.074579 L208.899321,111.018785 L224.151592,107.923318 L246.068636,177.984393 Z" id="Path" fill="#000000" fill-rule="nonzero"></path>
                                <path d="M216.251493,103.016355 C216.282044,100.857511 216.505421,98.7057001 216.918967,96.5865421 C217.456931,94.8845327 219.15052,87.9471028 219.15052,87.9471028 L237.202195,95.262757 L240.669073,90.5847196 C238.885625,89.2676666 237.029731,88.0514623 235.110114,86.9418224 C232.778937,85.677757 222.467964,76.2918224 222.467964,76.2918224 L221.272489,74.9580841 C221.142969,74.8168644 220.99562,74.6930697 220.834148,74.5898131 L213.402277,70.548785 L210.114721,73.8831308 L203.788665,71.9621495 L202.792435,72.529486 L196.057925,75.6448598 C194.143314,76.5294358 192.993982,78.5229965 193.188785,80.6214953 L194.673167,96.9846729 L192.680708,105.683832 C193.329995,105.990791 193.995077,106.263228 194.673167,106.5 C194.86245,106.5 216.321229,103.036262 216.321229,103.036262" id="Path" fill="#EAEAEA" fill-rule="nonzero"></path>
                                <path d="M244.454745,84.0155607 L188.586206,83.6869285 C187.893246,83.6757588 187.318087,84.2194545 187.291108,84.9113551 L187.291108,114.53229 C187.291108,115.213923 187.844181,115.766495 188.526432,115.766495 L244.414895,115.766495 C244.741615,115.766495 245.05481,115.636157 245.284899,115.404408 C245.514987,115.172659 245.642914,114.858703 245.640298,114.53229 L245.640298,85.2398131 C245.642914,84.9160399 245.516037,84.604615 245.287817,84.3747325 C245.059596,84.14485 244.748935,84.0155499 244.424858,84.0155607" id="Path" fill="#EAEAEA" fill-rule="nonzero"></path>
                                <path d="M188.586206,83.6869285 C187.893246,83.6757588 187.318087,84.2194545 187.291108,84.9113551 L187.291108,114.542243 C187.296578,115.219986 187.848053,115.766495 188.526432,115.766495 L244.414895,115.766495 C245.091644,115.766495 245.640298,115.218379 245.640298,114.542243 L245.640298,85.2398131 C245.642914,84.9160399 245.516037,84.604615 245.287817,84.3747325 C245.059596,84.14485 244.748935,84.0155499 244.424858,84.0155607 L188.556319,83.6869285" id="Path" fill="#00CBC1" fill-rule="nonzero"></path>
                                <path d="M241.08749,94.6854673 C238.212259,93.8009575 235.948472,91.5726447 235.020453,88.7135047 C234.940765,88.451026 234.697236,88.2725997 234.422716,88.2755244 L198.618235,88.2755244 C198.345797,88.2789479 198.105619,88.4549189 198.020497,88.7135047 C197.095441,91.5744714 194.830475,93.8039444 191.953461,94.6854673 C191.650716,94.7728839 191.440539,95.0474821 191.435421,95.3622897 L191.435421,104.230654 C191.438483,104.54942 191.654774,104.826674 191.963423,104.907477 C194.806989,105.745588 197.074928,107.896697 198.060346,110.690327 C198.14282,110.950822 198.38462,111.127982 198.658084,111.128271 L234.343017,111.128271 C234.615455,111.124884 234.855633,110.948913 234.940755,110.690327 C235.936166,107.885022 238.224938,105.731745 241.08749,104.907477 C241.390234,104.82006 241.600411,104.545462 241.605529,104.230654 L241.605529,95.3622897 C241.603699,95.04635 241.392189,94.7700107 241.08749,94.6854673" id="Path" fill="#00AFA6" fill-rule="nonzero"></path>
                                <g id="Group" opacity="0.8" transform="translate(210.204381, 93.560748)">
                                    <g id="Clipped">
                                        <mask id="mask-6" fill="white">
                                            <use xlink:href="#path-5"></use>
                                        </mask>
                                        <g id="Rectangle"></g>
                                        <path d="M12.373176,6.16107477 C12.373176,8.62169617 10.8890439,10.8398401 8.61327915,11.7805466 C6.33751441,12.7212531 3.71862414,12.1991233 1.97855182,10.4577768 C0.238479494,8.71643034 -0.279833144,6.09906002 0.665452499,3.82690015 C1.61073814,1.55474029 3.83332067,0.0755989646 6.29616915,0.0796179653 C7.90961698,0.0796179653 9.45683705,0.720663683 10.5967822,1.86144355 C11.7367273,3.00222341 12.3758129,4.54909026 12.373176,6.16107477" id="Path" fill="#FFFFFF" fill-rule="nonzero" mask="url(#mask-6)"></path>
                                    </g>
                                </g>
                                <g id="Group" opacity="0.8" transform="translate(200.242088, 98.330945)">
                                    <g id="Clipped">
                                        <mask id="mask-8" fill="white">
                                            <use xlink:href="#path-7"></use>
                                        </mask>
                                        <g id="Rectangle"></g>
                                        <g id="Group" mask="url(#mask-8)" fill="#FFFFFF" fill-rule="nonzero">
                                            <path d="M32.23798,1.44064382 C32.23798,2.18824123 31.6313832,2.79428868 30.8831082,2.79428868 C30.1348331,2.79428868 29.5282363,2.18824123 29.5282363,1.44064382 C29.5282363,0.693046409 30.1348331,0.0869989616 30.8831082,0.0869989616 C31.6313832,0.0869989616 32.23798,0.693046409 32.23798,1.44064382" id="Path"></path>
                                            <path d="M2.98868789,1.44064382 C2.98868789,2.18824123 2.3820911,2.79428868 1.63381605,2.79428868 C0.885540989,2.79428868 0.278944203,2.18824123 0.278944203,1.44064382 C0.278944203,0.693046409 0.885540989,0.0869989616 1.63381605,0.0869989616 C1.9931504,0.0869989616 2.33776735,0.229614707 2.59185511,0.483472362 C2.84594287,0.737330016 2.98868789,1.08163488 2.98868789,1.44064382" id="Path"></path>
                                        </g>
                                    </g>
                                </g>
                                <g id="Clipped" transform="translate(187.291108, 83.607477)">
                                    <mask id="mask-10" fill="white">
                                        <use xlink:href="#path-9"></use>
                                    </mask>
                                    <g id="Path"></g>
                                    <g id="Group" opacity="0.1" mask="url(#mask-10)">
                                        <g transform="translate(-7.180230, -5.971963)" id="Clipped">
                                            <g>
                                                <mask id="mask-12" fill="white">
                                                    <use xlink:href="#path-11"></use>
                                                </mask>
                                                <g id="Rectangle"></g>
                                                <path d="M14.034288,0.457850467 C14.034288,0.457850467 11.5437147,35.7621028 38.4219811,37.384486 L4.55018507,48.8207944 L0.067153234,0.826121495 L14.034288,0.457850467 Z" id="Path" fill="#231F20" fill-rule="nonzero" mask="url(#mask-12)"></path>
                                            </g>
                                        </g>
                                    </g>
                                </g>
                                <path d="M203.310475,63.9597196 C203.82444,66.3033172 204.190446,68.6768759 204.406327,71.0663551 L210.114721,73.8831308 L212.54552,70.8274766 L211.45963,65.6119626 L203.310475,63.9597196 Z" id="Path" fill="#FABE78" fill-rule="nonzero"></path>
                                <path d="M215.504321,50.1943458 C215.58023,50.9158446 215.768461,51.6210718 216.06221,52.2845327 C216.625679,53.2526719 216.466178,54.478491 215.67368,55.270514 C214.677451,56.1563551 214.259035,51.816729 214.259035,51.816729 L215.504321,50.1943458 Z" id="Path" fill="#E05000" fill-rule="nonzero"></path>
                                <path d="M204.565724,64.4772897 L204.565724,64.4772897 L205.561953,64.6066822 L212.19684,69.2349533 L212.525596,70.8175234 L212.396086,70.8175234 C208.863069,70.2052035 205.895718,67.8161667 204.545799,64.4971963" id="Path" fill="#000000" fill-rule="nonzero"></path>
                                <path d="M215.255264,52.7523364 C216.37724,55.8911077 216.933766,59.2036505 216.899042,62.5364019 C216.809382,64.3379439 216.480626,66.9556542 215.793228,67.572757 C215.10583,68.1898598 213.800769,69.5634112 210.553062,68.2396262 C207.305354,66.9158411 204.177194,65.2536449 204.177194,65.2536449 L203.310475,52.7523364 L213.5019,51.010514 L214.896621,51.6873364 L215.255264,52.7523364 Z" id="Path" fill="#FABE78" fill-rule="nonzero"></path>
                                <path d="M199.494916,58.7740654 C199.763805,59.6399645 200.079747,60.4905726 200.441334,61.3221028 C200.979298,62.5861682 203.539607,63.312757 203.539607,63.312757 L203.748816,65.0048131 L203.748816,65.0545794 C203.947837,65.5114048 204.300164,65.884533 204.745045,66.1096262 C206.249351,66.836215 209.726191,68.5382243 211.100988,68.966215 C212.844389,69.5235981 215.424623,69.225 216.15187,67.8315421 C216.906136,65.9302113 217.298074,63.9047829 217.307496,61.8595794 C217.197911,60.8642523 216.879118,60.923972 216.879118,60.923972 C216.725918,61.1658736 216.605331,61.4269107 216.520475,61.7003271 C216.352177,61.3945227 216.056478,61.1793321 215.713529,61.1130841 C214.197943,61.3287306 212.694852,61.6244252 211.210573,61.9989252 C210.18952,62.1692776 209.457534,63.0759471 209.507021,64.1090187 C208.823169,64.5385687 208.022061,64.7438841 207.215694,64.6962617 C206.445084,64.4832375 205.792041,63.970597 205.402556,63.2729439 C205.208731,62.7644593 205.110779,62.2245242 205.11365,61.6804206 C205.11365,60.8742056 204.934328,59.1323832 204.934328,59.1323832 C206.229427,57.4204206 205.342782,56.5345794 204.655384,55.748271 C203.967986,54.9619626 204.436214,54.2552804 205.651614,54.3946262 C206.867013,54.533972 210.63276,55.2406542 212.814502,54.6434579 C214.996244,54.0462617 214.627639,53.0608879 215.215415,52.8120561 C215.585188,52.187676 215.803542,51.485487 215.853002,50.7616822 C216.104468,49.0559061 215.140959,47.4033098 213.531787,46.7803738 C211.93782,46.013972 209.357587,44.73 208.142187,46.1135047 C208.142187,46.1135047 202.692813,44.0631308 200.710316,44.988785 C198.72782,45.9144393 199.245859,48.771028 199.245859,48.771028 C199.245859,48.771028 196.536115,48.8407009 197.432722,51.2095794 C198.329328,53.5784579 198.259592,53.2898131 198.259592,53.2898131 C198.259592,53.2898131 198.578386,53.8073832 198.259592,53.9765888 C198.002074,54.1353518 197.83074,54.4024475 197.793922,54.7025276 C197.757105,55.0026077 197.858796,55.3031408 198.070309,55.5193458 L199.136274,56.4549533 C199.136274,56.4549533 196.924645,56.226028 197.273325,57.1516822 C197.622005,58.0773364 199.524803,58.793972 199.524803,58.793972" id="Path" fill="#FF6400" fill-rule="nonzero"></path>
                                <path d="M201.158619,61.292243 C202.374019,60.6353271 203.380211,62.2875701 203.380211,62.2875701 L203.539607,63.3625234 L203.788665,65.2835047 C202.911983,65.5024766 202.105037,64.4772897 201.497337,63.8104206 C200.889638,63.1435514 199.953182,61.9591121 201.158619,61.3021963" id="Path" fill="#FABE78" fill-rule="nonzero"></path>
                                <path d="M212.704917,66.9257944 C212.047406,67.1348131 211.350045,66.4281308 211.250422,65.9304673 C211.150799,65.4328037 211.011327,63.9398131 211.310196,63.7507009 C212.037906,63.5006704 212.788812,63.3239506 213.551712,63.2231776 C214.219185,63.0838318 214.906584,62.9245794 215.275189,62.835 C215.352037,62.8108571 215.43558,62.8210863 215.504318,62.8630552 C215.573057,62.9050241 215.620278,62.9746342 215.633831,63.053972 C215.683583,63.680043 215.683583,64.3090692 215.633831,64.9351402 C215.622174,65.3887177 215.509888,65.8340548 215.305075,66.2390187 C215.145679,66.4281308 214.428394,66.6371495 214.388544,66.4878505 C214.348695,66.3385514 214.388544,65.5821028 214.288922,65.4925234 C213.916763,65.5130042 213.548626,65.5798777 213.193069,65.6915888 C213.003786,65.6915888 213.322579,66.6072897 213.322579,66.6869159 C213.322579,66.7665421 213.113371,66.7964019 212.744766,66.9158411" id="Path" fill="#FABE78" fill-rule="nonzero"></path>
                                <path d="M210.114721,73.8831308 L210.114721,73.3157944 L212.216765,69.2349533 L213.800769,69.921729 C214.020913,70.0122916 214.146138,70.2458339 214.099638,70.4791121 L213.103409,75.5353738 C213.081861,75.6172614 213.020114,75.6825824 212.939517,75.7087528 C212.858919,75.7349232 212.770533,75.7183512 212.704917,75.6647664 L210.523175,73.7736449 L210.114721,73.8831308 Z" id="Path" fill="#EAEAEA" fill-rule="nonzero"></path>
                                <g id="Group" opacity="0.15" transform="translate(192.065629, 82.405711)">
                                    <g id="Clipped">
                                        <mask id="mask-14" fill="white">
                                            <use xlink:href="#path-13"></use>
                                        </mask>
                                        <g id="Rectangle"></g>
                                        <path d="M9.24242505,1.46055036 L9.42174632,0.0770456906 L14.0840994,1.35106438 L11.2548082,1.35106438 L9.26234963,16.8582606 C9.22372156,17.1265286 9.32978482,17.3952312 9.54129384,17.5649429 L25.4809626,30.165784 L24.0563547,32.0569055 L3.58384265,22.9894756 C1.33456528,22.5609068 -0.163343302,20.419822 0.206625335,18.1621391 L2.89644443,0.435363448 L9.24242505,1.46055036 Z" id="Path" fill="#000000" fill-rule="nonzero" mask="url(#mask-14)"></path>
                                    </g>
                                </g>
                                <path d="M210.114721,73.8831308 L209.646493,73.3556075 L204.386402,70.4492523 L204.326629,69.8421028 L204.137345,69.8421028 C203.913957,69.8838131 203.720579,70.0223361 203.609343,70.2203271 L202.662926,71.8825234 C202.548177,72.0909034 202.608187,72.3521374 202.802398,72.4896729 L208.779774,76.7098598 C208.846087,76.7543219 208.92972,76.7643151 209.004658,76.7367313 C209.079597,76.7091475 209.13675,76.6473327 209.158341,76.570514 L209.596682,73.9727103 L210.114721,73.8831308 Z" id="Path" fill="#EAEAEA" fill-rule="nonzero"></path>
                                <path d="M195.260942,76.0131308 C193.751735,76.7105903 192.690402,78.1144635 192.431651,79.7555607 C191.624705,84.9213084 189.970964,96.2779907 189.203868,101.493505 C188.951547,103.164223 189.782221,104.812095 191.276025,105.604206 L211.967707,116.66229 C212.78481,117.104303 213.805844,116.801388 214.249072,115.985467 L215.962587,112.899953 C216.069134,112.695721 216.014678,112.444614 215.833077,112.302757 L199.435143,99.5824766 C199.419915,99.5406875 199.419915,99.4948733 199.435143,99.4530841 L201.626847,82.005 L198.140045,74.6495327 L195.260942,76.0131308 Z" id="Path" fill="#EAEAEA" fill-rule="nonzero"></path>
                                <path d="M215.982511,112.571495 L221.481697,112.571495 L226.353258,114.273505 C226.880746,114.461371 227.234804,114.958193 227.239902,115.517664 L232.121426,115.517664 L231.125197,116.094953 C231.013826,116.158066 230.897157,116.211352 230.776516,116.254206 L227.249865,117.448598 L225.127896,117.936308 L219.628711,117.936308 L214.129525,116.05514 L215.982511,112.571495 Z" id="Path" fill="#FABE78" fill-rule="nonzero"></path>
                                <path d="M231.603387,83.9558411 L233.715393,81.9651869 C234.16277,81.5643331 234.722733,81.310667 235.319322,81.2385981 L238.666652,80.8703271 C239.623931,80.7562945 240.574539,81.1302107 241.197075,81.8656542 L242.840853,83.8563084 L241.08749,83.8563084 L240.95798,87.588785 C240.966886,87.8212894 240.796121,88.0218878 240.564994,88.0504282 C240.333868,88.0789686 240.119357,87.9259452 240.071336,87.698271 L239.862128,87.0015421 L239.802354,87.9968692 C239.776341,88.3181123 239.507275,88.5652552 239.184692,88.5642056 L238.586954,88.5642056 L238.477369,88.9424299 C238.388816,89.2484012 238.108764,89.4592634 237.789971,89.4600013 C237.526598,89.4605003 237.284758,89.3147608 237.162346,89.0817757 L237.052761,88.8926636 L236.574571,88.8926636 C236.274145,88.891997 236.003337,88.711622 235.887173,88.4348131 L233.685506,83.8961215 L231.603387,83.9558411 Z" id="Path" fill="#FABE78" fill-rule="nonzero"></path>
                                <line x1="240.967942" y1="82.7415421" x2="241.08749" y2="83.9657944" id="Path" stroke="#000000" stroke-width="0.16" stroke-linecap="round"></line>
                                <line x1="239.862128" y1="87.0413551" x2="239.61307" y2="82.9107477" id="Path" stroke="#000000" stroke-width="0.16" stroke-linecap="round"></line>
                                <line x1="238.576992" y1="88.6239252" x2="237.839782" y2="83.0301869" id="Path" stroke="#000000" stroke-width="0.16" stroke-linecap="round"></line>
                                <line x1="237.052761" y1="88.9523832" x2="235.936984" y2="83.3486916" id="Path" stroke="#000000" stroke-width="0.16" stroke-linecap="round"></line>
                                <path d="M221.979812,121.161168 C223.419688,121.306554 224.866211,121.376323 226.313409,121.370187" id="Path" stroke="#000000" stroke-width="0.15" stroke-linecap="round"></path>
                                <g id="Group" opacity="0.48" transform="translate(153.419312, 5.971963)">
                                    <g id="Clipped">
                                        <mask id="mask-16" fill="white">
                                            <use xlink:href="#path-15"></use>
                                        </mask>
                                        <g id="Rectangle"></g>
                                        <g mask="url(#mask-16)">
                                            <mask id="mask-18" fill="white">
                                                <use xlink:href="#path-17"></use>
                                            </mask>
                                            <g id="Path"></g>
                                            <g mask="url(#mask-18)">
                                                <mask id="mask-20" fill="white">
                                                    <use xlink:href="#path-19"></use>
                                                </mask>
                                                <g id="Rectangle"></g>
                                                <rect id="Rectangle" fill="url(#linearGradient-21)" fill-rule="nonzero" mask="url(#mask-20)" x="0" y="0.766401869" width="23.7799933" height="186.365047"></rect>
                                            </g>
                                        </g>
                                    </g>
                                </g>
                                <path d="M176.800813,192.983976 L68.9689542,192.983976 C65.9156573,192.985607 62.8841231,192.470713 60.0028905,191.461121 L57.0142026,190.406075 C56.4640004,190.312625 56.0937979,189.791246 56.1873323,189.241542 C56.2808667,188.691838 56.8027183,188.321971 57.3529206,188.415421 L176.800813,188.415421 L176.800813,192.983976 Z" id="Path" fill="#CECECE" fill-rule="nonzero"></path>
                                <g id="Clipped" transform="translate(48.608610, 5.765524)">
                                    <mask id="mask-23" fill="white">
                                        <use xlink:href="#path-22"></use>
                                    </mask>
                                    <g id="Path"></g>
                                    <g id="Group" mask="url(#mask-23)">
                                        <g transform="translate(2.988688, 68.884008)">
                                            <path d="M24.3054101,88.8926636 C24.3013823,99.5214754 30.7067265,109.105944 40.5342127,113.176205 C50.361699,117.246465 61.6756265,115.000805 69.1995693,107.486523 C76.723512,99.9722417 78.9754937,88.6694118 74.9052677,78.849284 C70.8350416,69.0291563 61.2443123,62.6259813 50.6058654,62.6259813 C36.0844157,62.6259813 24.3109126,74.3843656 24.3054101,88.8926636" id="Path" fill="#010000" fill-rule="nonzero"></path>
                                            <polygon id="Path" fill="#100F0F" fill-rule="nonzero" points="28.4098767 92.2270093 32.5043791 94.8248131 90.2159422 96.2879439 242.330193 99.0947664 300.051719 99.0947664 306.168567 80.5020561 287.97742 52.2546729 265.881054 52.2546729 30.4919959 48.5918692"></polygon>
                                            <path d="M1.51168571,67.3438318 L7.1901927,63.4720093 L7.1901927,47.7757009 C7.71862178,43.2422006 9.36889978,38.9115784 11.9920179,35.1748598 L21.3864602,35.1748598 C24.789301,35.171399 27.7575499,32.8653068 28.5991603,29.5711682 L33.4209101,10.6599533 L32.4246808,7.1464486 C32.2480195,6.49618353 32.3779794,5.8009199 32.777638,5.25818654 C33.1772967,4.71545317 33.8029747,4.38456619 34.4769131,4.35953271 C47.5175546,3.85191589 103.904133,1.67214953 147.538976,0.228925234 C163.774638,-0.310228431 179.934773,2.66760621 194.909679,8.95794393 L194.311941,8.95794393 C193.91757,8.95356429 193.572388,9.2217784 193.479536,9.60474165 C193.386685,9.9877049 193.570751,10.3840059 193.923412,10.5604206 L242.499552,34.9857477 C243.88488,35.6794362 245.413076,36.0406907 246.96266,36.0407944 L250.519198,36.0407944 C309.83469,43.0976636 330.635958,59.3911682 330.635958,59.3911682 L338.46632,71.7630841 L338.46632,79.2280374 L334.740423,79.2280374 L336.932127,93.5607477 L339.064058,94.3769159 L339.064058,97.5420561 L300.01187,100.528037 L300.01187,90.1766355 C300.542381,79.56585 295.195904,69.5216218 286.093658,64.0290077 C276.991411,58.5363937 265.60495,58.4833809 256.451863,63.8910022 C247.298776,69.2986236 241.858836,79.2926328 242.290344,89.9078972 L242.290344,100.528037 L90.176093,97.9103271 L90.176093,90.1766355 C90.7468705,79.5426073 85.4107377,69.4584646 76.2935623,63.9416401 C67.1763869,58.4248156 55.7594763,58.3716519 46.5912259,63.8033289 C37.4229755,69.2350059 31.992991,79.2690153 32.4645299,89.9078972 L32.4645299,95.9992991 C15.3194238,95.9992991 6.69207805,91.4207944 2.77689692,88.2656075 C0.973851448,86.8097031 0.3558093,84.335711 1.26262839,82.2040654 L0.126926992,70.2601402 C0.0159065585,69.1278887 0.5314668,68.0252073 1.47183654,67.3836449" id="Path" fill="#FFFFFF" fill-rule="nonzero"></path>
                                            <path d="M93.0253088,82.6121495 C93.0253088,70.7179907 78.3907005,55.8478037 60.2194781,55.8478037 C49.8413714,55.6135959 40.1252983,60.924336 34.7259704,69.7823832 L16.0466711,69.7823832 L3.73327704,68.6676168 C2.80994919,68.5836476 1.89710656,68.9145414 1.2424794,69.5704994 C0.587852244,70.2264573 0.259340743,71.1394411 0.346097437,72.0616822 L1.34232673,82.0149533 C0.435507644,84.1465988 1.05354979,86.620591 2.85659526,88.0764953 C6.77177639,91.2316822 15.3991221,95.8101869 32.5442283,95.8101869 L32.5442283,89.718785 C32.5406358,74.0152864 45.103075,61.1900286 60.8172157,60.8542991 C77.0059418,60.5357944 90.2557914,74.0324299 90.2557914,90.2164486 L90.2557914,97.6814019 L124.984345,98.2785981 L124.984345,82.6121495 L93.0253088,82.6121495 Z" id="Path" fill="#B7B7B7" fill-rule="nonzero"></path>
                                            <path d="M35.4731424,14.7905607 L24.4349218,30.5864019 C23.4151224,32.0536317 21.7398087,32.9277254 19.95189,32.9254251 L13.5162487,32.9254251 C19.6629835,24.3556542 33.4408346,10.6101869 33.4408346,10.6101869 L35.0746507,11.8642991 C35.9809042,12.56542 36.1740899,13.8550825 35.5129916,14.7905607" id="Path" fill="#1A1919" fill-rule="nonzero"></path>
                                            <g id="Group" opacity="0.37" stroke-width="1" fill="none" fill-rule="evenodd" transform="translate(11.954752, 4.976636)">
                                                <g id="Clipped">
                                                    <mask id="mask-25" fill="white">
                                                        <use xlink:href="#path-24"></use>
                                                    </mask>
                                                    <g id="Rectangle"></g>
                                                    <path d="M17.570902,26.147243 C16.1086555,28.649002 13.4272701,30.187413 10.5275608,30.188271 L0.0372663551,30.188271 L0.146851578,30.0290187 C0.555305589,29.3820561 1.03349565,28.6853271 1.56149718,27.948785 L7.99713843,27.948785 C9.78505712,27.9510899 11.4603708,27.0769962 12.4801703,25.6097664 L23.5183909,9.81392523 C24.1884588,8.88855435 24.0130603,7.60054281 23.1198991,6.88766355 L21.5060077,5.6335514 L20.6193636,2.32906542 C20.4897814,1.83731358 20.665298,1.31566968 21.0658854,1.00198003 C21.4664729,0.688290392 22.0154029,0.642639105 22.4623878,0.885841121 L23.3589942,1.38350467 C25.081084,2.34584417 26.3430038,3.96019333 26.860274,5.86262275 C27.3775441,7.76505217 27.1066235,9.79542577 26.108587,11.496028 L17.570902,26.147243 Z" id="Path" fill="#CECECE" fill-rule="nonzero" mask="url(#mask-25)"></path>
                                                </g>
                                            </g>
                                            <path d="M63.5070348,28.3071028 L68.9464467,17.0997196 C71.7699245,11.2603136 77.4306394,7.30894243 83.8898862,6.66869159 L86.8785741,36.1502804 L67.7410093,35.3838785 C66.0862888,35.2978515 64.5827064,34.3953813 63.7296204,32.9761896 C62.8765343,31.5569978 62.7856346,29.8068916 63.4871102,28.3071028" id="Path" fill="#1A1919" fill-rule="nonzero"></path>
                                            <polygon id="Path" fill="#0188D6" fill-rule="nonzero" points="141.790733 5.36481308 151.822762 38.7580374 138.602799 38.230514 133.641577 5.54397196"></polygon>
                                            <polygon id="Path" fill="#1A1919" fill-rule="nonzero" points="133.641577 5.54397196 138.602799 38.230514 89.0902031 36.2398598 86.3904217 6.54925234"></polygon>
                                            <path d="M85.3144941,6.56915888 L86.3904217,6.56915888 L89.0902031,36.2597664 L86.8984987,36.1701869 L83.8201501,6.66869159 C84.3182648,6.66869159 84.8163794,6.57911215 85.3144941,6.56915888" id="Path" fill="#B7B7B7" fill-rule="nonzero"></path>
                                            <g id="Group" opacity="0.37" stroke-width="1" fill="none" fill-rule="evenodd" transform="translate(76.916281, 42.799065)">
                                                <g id="Clipped">
                                                    <mask id="mask-27" fill="white">
                                                        <use xlink:href="#path-26"></use>
                                                    </mask>
                                                    <g id="Rectangle"></g>
                                                    <path d="M6.57511335,0.706682243 L6.57511335,0.706682243 C8.03587608,1.08643089 9.53878384,1.28039461 11.0481829,1.28397196 L15.710536,1.28397196 C16.2937504,1.28397196 16.766539,1.75633247 16.766539,2.33901869 C16.766539,2.92170491 16.2937504,3.39406542 15.710536,3.39406542 L1.99245859,3.39406542 C1.38012255,3.44194709 0.792643391,3.14266909 0.471795867,2.61939813 C0.150948344,2.09612717 0.150948344,1.43728405 0.471795867,0.914013086 C0.792643391,0.390742122 1.38012255,0.0914641295 1.99245859,0.139345794 L2.16181757,0.139345794 C3.66758858,0.138479381 5.16734525,0.32912383 6.62492482,0.706682243" id="Path" fill="#CECECE" fill-rule="nonzero" mask="url(#mask-27)"></path>
                                                </g>
                                            </g>
                                            <path d="M12.539944,38.4793458 L12.6495292,38.4793458 L12.6495292,38.4793458 L23.1198991,38.4793458 C23.8902775,38.4669612 24.6157459,38.8405753 25.052584,39.4746729 L31.0897335,48.771028 C31.5487697,49.4800678 31.5838188,50.3829004 31.1811304,51.1253328 C30.778442,51.8677652 30.0022439,52.3313815 29.1570487,52.3342991 L12.539944,52.3342991 C11.1751099,52.3342991 10.0593331,49.2388318 10.0593331,45.3670093 C10.0593331,41.4951869 11.1751099,38.3997196 12.539944,38.3997196" id="Path" fill="#1A1919" fill-rule="nonzero"></path>
                                            <path d="M15.8872745,45.3371495 C15.8872745,47.4771028 16.3754268,49.1990187 16.9731644,49.1990187 C17.570902,49.1990187 18.0690166,47.4771028 18.0690166,45.3371495 C18.0690166,43.1971963 17.5808643,41.4752804 16.9731644,41.4752804 C16.3654645,41.4752804 15.8872745,43.2071495 15.8872745,45.3371495" id="Path" fill="#FFFFFF" fill-rule="nonzero"></path>
                                            <path d="M11.2647705,45.3371495 C11.2647705,48.2036916 12.0916408,50.532757 13.117757,50.532757 C14.1438732,50.532757 14.9807058,48.2036916 14.9807058,45.3371495 C14.9807058,42.4706075 14.1538355,40.1514953 13.1576062,40.1514953 C12.1613769,40.1514953 11.3046197,42.4706075 11.3046197,45.3371495" id="Path" fill="#FFFFFF" fill-rule="nonzero"></path>
                                        </g>
                                    </g>
                                </g>
                                <g id="Group" opacity="0.42" transform="translate(136.483414, 75.438422)">
                                    <g id="Clipped">
                                        <mask id="mask-29" fill="white">
                                            <use xlink:href="#path-28"></use>
                                        </mask>
                                        <g id="Rectangle"></g>
                                        <path d="M27.7051367,83.4954102 L8.4878736,11.5332606 C7.33565942,7.22718591 4.35417427,3.64100509 0.328755668,1.71933541 L0.0796983437,1.60984943 L40.05838,0.206438214 L39.9388325,97.6788214 L5.32982673,97.0816251 L5.32982673,93.8766719 L20.1836055,93.5382606 C22.6141223,93.4789464 24.8846147,92.3144688 26.3495614,90.3758993 C27.8145081,88.4373298 28.3136721,85.9367103 27.7051367,83.5849896" id="Path" fill="#000000" fill-rule="nonzero" mask="url(#mask-29)"></path>
                                    </g>
                                </g>
                                <rect id="Rectangle" fill="#FF6400" fill-rule="nonzero" x="176.412284" y="6.73836449" width="11.4665992" height="186.365047"></rect>
                                <g id="Clipped" transform="translate(176.125960, 5.971963)">
                                    <mask id="mask-31" fill="white">
                                        <use xlink:href="#path-30"></use>
                                    </mask>
                                    <g id="Rectangle"></g>
                                    <g id="Group" opacity="0.12" mask="url(#mask-31)">
                                        <g transform="translate(-1.785833, 99.532710)" id="Clipped">
                                            <g>
                                                <mask id="mask-33" fill="white">
                                                    <use xlink:href="#path-32"></use>
                                                </mask>
                                                <g id="Rectangle"></g>
                                                <path d="M0,48.9800467 C0,48.9800467 9.6136127,39.3253738 14.8438165,0.129392523 L18.4501666,92.5654206 L0,92.5654206 L0,48.9800467 Z" id="Path" fill="#000000" fill-rule="nonzero" mask="url(#mask-33)"></path>
                                            </g>
                                        </g>
                                    </g>
                                </g>
                                <path d="M86.4328537,165.522897 C86.4328537,180.035082 98.2079678,191.799533 112.733307,191.799533 C127.258646,191.799533 139.033761,180.035082 139.033761,165.522897 C139.033761,151.010712 127.258646,139.246262 112.733307,139.246262 C98.2079678,139.246262 86.4328537,151.010712 86.4328537,165.522897" id="Path" fill="#231F20" fill-rule="nonzero"></path>
                                <path d="M93.4363431,165.522897 C93.4323158,173.321626 98.1313137,180.35468 105.341774,183.341915 C112.552234,186.329149 120.853835,184.682136 126.374793,179.169025 C131.895751,173.655915 133.548544,165.362684 130.562326,158.157211 C127.576108,150.951739 120.539106,146.253362 112.733307,146.253362 C107.616351,146.250724 102.708068,148.279735 99.0888987,151.89376 C95.4697297,155.507784 93.4363431,160.410574 93.4363431,165.522897 M100.131007,154.982383 C100.75673,154.246066 101.443218,153.563529 102.183239,152.941963 C102.478122,152.678891 102.877784,152.566056 103.266864,152.636027 C103.655944,152.705998 103.99114,152.950988 104.175697,153.30028 L107.991256,159.859486 C108.145128,160.110591 108.106706,160.434336 107.898326,160.642528 C107.689945,160.85072 107.365907,160.889106 107.114574,160.735374 L100.539461,156.933224 C100.195833,156.743437 99.9559924,156.409164 99.8864354,156.023087 C99.8168784,155.637009 99.9249983,155.240161 100.180818,154.94257 M111.368473,181.816402 C110.983197,181.784366 110.631551,181.584569 110.407021,181.270129 C110.182492,180.955689 110.10783,180.558466 110.202885,180.184065 L112.195343,172.838551 C112.267577,172.556688 112.521786,172.359545 112.813005,172.359545 C113.104225,172.359545 113.358434,172.556688 113.430668,172.838551 L115.423126,180.184065 C115.518047,180.556895 115.444645,180.952558 115.222291,181.266635 C114.999938,181.580712 114.650976,181.781644 114.2675,181.816402 C113.799272,181.816402 113.331045,181.876121 112.852855,181.876121 C112.374665,181.876121 111.856625,181.876121 111.438209,181.816402 M110.272621,150.732336 C110.173866,150.357646 110.247021,149.958483 110.472251,149.643061 C110.697482,149.327639 111.051455,149.128636 111.438209,149.1 C112.379015,149.007117 113.326694,149.007117 114.2675,149.1 C114.652459,149.131406 115.003719,149.331563 115.226759,149.646609 C115.449799,149.961656 115.521704,150.359227 115.423126,150.732336 L113.430668,158.067897 C113.358434,158.34976 113.104225,158.546903 112.813005,158.546903 C112.521786,158.546903 112.267577,158.34976 112.195343,158.067897 L110.272621,150.732336 Z M121.330766,153.280374 C121.518077,152.93411 121.852955,152.691853 122.240681,152.622125 C122.628406,152.552398 123.026818,152.662782 123.323225,152.922056 C124.045178,153.54336 124.711829,154.226059 125.315683,154.962477 C125.575192,155.258615 125.685677,155.656666 125.615886,156.04404 C125.546095,156.431414 125.303619,156.76599 124.957041,156.953131 L118.381927,160.75528 C118.130594,160.909013 117.806556,160.870626 117.598175,160.662435 C117.389795,160.454243 117.351374,160.130498 117.505245,159.879393 L121.330766,153.280374 Z M129.101354,166.916355 C129.06992,167.300965 128.869582,167.651908 128.55425,167.874745 C128.238918,168.097583 127.840986,168.169424 127.467538,168.070935 L120.125328,166.08028 C119.84321,166.008112 119.645888,165.754133 119.645888,165.463178 C119.645888,165.172222 119.84321,164.918243 120.125328,164.846075 L127.467538,162.855421 C127.840986,162.756932 128.238918,162.828772 128.55425,163.05161 C128.869582,163.274448 129.06992,163.62539 129.101354,164.01 C129.101354,164.477804 129.17109,164.945607 129.17109,165.423364 C129.17109,165.901121 129.17109,166.368925 129.101354,166.836729 M125.325645,175.963879 C124.719367,176.701191 124.05293,177.387 123.333187,178.014252 C123.035327,178.26984 122.638118,178.377862 122.251691,178.308368 C121.865263,178.238874 121.530688,177.999251 121.340728,177.655935 L117.555057,171.196262 C117.401185,170.945156 117.439606,170.621411 117.647987,170.41322 C117.856367,170.205028 118.180406,170.166641 118.431739,170.320374 L125.006852,174.122523 C125.35343,174.309665 125.595907,174.64424 125.665697,175.031614 C125.735488,175.418989 125.625004,175.817039 125.365495,176.113178 M104.165735,177.805234 C103.978424,178.151498 103.643546,178.393755 103.25582,178.463482 C102.868095,178.53321 102.469683,178.422825 102.173277,178.163551 C101.435518,177.535917 100.749247,176.850268 100.121044,176.113178 C99.8688078,175.8142 99.7629698,175.418509 99.8323027,175.033675 C99.9016356,174.648842 100.138934,174.314859 100.479687,174.122523 L107.0548,170.320374 C107.306133,170.166641 107.630171,170.205028 107.838552,170.41322 C108.046932,170.621411 108.085354,170.945156 107.931482,171.196262 L104.165735,177.805234 Z M98.0289627,168.140607 C97.6555148,168.239096 97.2575835,168.167256 96.9422515,167.944418 C96.6269194,167.721581 96.4265809,167.370638 96.3951467,166.986028 C96.3951467,166.518224 96.3353729,166.050421 96.3353729,165.572664 C96.3353729,165.094907 96.3353729,164.577336 96.3951467,164.159299 C96.4299365,163.77617 96.63105,163.427525 96.9454116,163.205373 C97.2597733,162.983221 97.6557947,162.909885 98.0289627,163.00472 L105.381135,164.995374 C105.663253,165.067542 105.860575,165.321521 105.860575,165.612477 C105.860575,165.903432 105.663253,166.157411 105.381135,166.229579 L98.0289627,168.140607 Z" id="Shape" fill="#DCDCDC" fill-rule="nonzero"></path>
                                <rect id="Rectangle" x="0.00996229296" y="0" width="318.793375" height="213"></rect>
                            </g>
                        </g>
                    </g>
                </g>
            </g>
        </g>
    </g>
</svg>