<?xml version="1.0" encoding="UTF-8"?>
<svg width="209px" height="200px" viewBox="0 0 209 200" version="1.1" xmlns="http://www.w3.org/2000/svg" xmlns:xlink="http://www.w3.org/1999/xlink">
    <defs>
        <path d="M0.19,35.66 C-0.777783946,49.016038 5.51145892,61.8606783 16.6549017,69.2865817 C27.7983444,76.712485 42.0742028,77.5722679 54.0283359,71.5374473 C65.982469,65.5026267 73.7678319,53.5056487 74.41,40.13 L75.41,40.19 L74.41,40.13 C75.6230678,19.6448327 60.0226652,2.0446079 39.54,0.79 C38.78,0.74 38.03,0.72 37.28,0.72 C17.6325496,0.751727306 1.39352745,16.0494203 0.19,35.66" id="path-1"></path>
        <rect id="path-3" x="0.61" y="0.17" width="27.67" height="14.29"></rect>
        <rect id="path-5" x="0.73" y="0.38" width="12.49" height="6.55"></rect>
        <rect id="path-7" x="0.32" y="0.02" width="11.76" height="12.17"></rect>
        <rect id="path-9" x="0.22" y="0.49" width="107.69" height="93.9"></rect>
        <path d="M107.91,37.87 C107.91,37.87 88.84,21.87 65.35,33.78 C47.52,42.78 31.89,74.47 58.19,94.39 L0.19,80.39 L33.72,24.61 L92.67,0.49 L107.91,37.87 Z" id="path-11"></path>
        <polygon id="path-13" points="29.7933368 30.1753818 172.333337 30.1753818 172.333337 172.715382 29.7933368 172.715382"></polygon>
        <linearGradient x1="48.2338993%" y1="83.9347552%" x2="48.2338993%" y2="36.5860811%" id="linearGradient-15">
            <stop stop-color="#E6E6E6" offset="0%"></stop>
            <stop stop-color="#E6E6E6" offset="0%"></stop>
            <stop stop-color="#DCDCDD" offset="2%"></stop>
            <stop stop-color="#D3D3D4" offset="3%"></stop>
            <stop stop-color="#DEDEDF" offset="35%"></stop>
            <stop stop-color="#FBFBFB" offset="92%"></stop>
            <stop stop-color="#FFFFFF" offset="99%"></stop>
            <stop stop-color="#FFFFFF" offset="100%"></stop>
        </linearGradient>
        <rect id="path-16" x="0.76" y="0.58" width="16.56" height="3.09"></rect>
        <path d="M1.38,3.67 L15.78,3.67 C16.5851974,3.60516803 17.2056014,2.93280325 17.2056014,2.125 C17.2056014,1.31719675 16.5851974,0.644831971 15.78,0.58 L2,0.58 C1.15,0.58 0.76,1.27 0.76,2.13 C0.76,2.99 0.49,3.67 1.34,3.67" id="path-18"></path>
        <linearGradient x1="77.4196429%" y1="127.572816%" x2="173.47619%" y2="127.572816%" id="linearGradient-20">
            <stop stop-color="#EA018A" offset="0%"></stop>
            <stop stop-color="#E5058D" offset="22%"></stop>
            <stop stop-color="#D71197" offset="48%"></stop>
            <stop stop-color="#C124A6" offset="75%"></stop>
            <stop stop-color="#A53BB9" offset="100%"></stop>
            <stop stop-color="#A53BB9" offset="100%"></stop>
        </linearGradient>
        <path d="M26.87,0.673927273 L17.87,10.3392848 L0.77,30.2740848 L10.22,42.9202545 L24.95,30.9573939 L36.25,11.9435758 L38.02,9.9629697 C38.3964094,9.54046353 38.581621,8.98370473 38.5324958,8.42237214 C38.4833706,7.86103956 38.2041972,7.34413718 37.76,6.99206061 L29.76,0.465963636 C29.3936841,0.160506646 28.9288531,-0.00464758835 28.45,0.000403463677 C27.8682753,-0.00216842206 27.3125209,0.238841198 26.92,0.664024242" id="path-21"></path>
        <rect id="path-23" x="0.164081633" y="0.465442424" width="31.6" height="41.8105939"></rect>
        <path d="M22.9140816,0.465442424 C22.9140816,0.465442424 26.0940816,8.38786667 7.59408163,18.6771152 C-1.99591837,24.0346545 0.444081633,34.6408 0.444081633,34.6408 L7.70408163,42.2859394 L23.8240816,22.4798788 L31.7640816,8.53641212 L22.9140816,0.465442424 Z" id="path-25"></path>
        <linearGradient x1="8.9985194%" y1="49.3315964%" x2="103.836541%" y2="49.3315964%" id="linearGradient-27">
            <stop stop-color="#FF6400" offset="0%"></stop>
            <stop stop-color="#F75806" offset="26%"></stop>
            <stop stop-color="#E33716" offset="73%"></stop>
            <stop stop-color="#D62121" offset="100%"></stop>
        </linearGradient>
        <polygon id="path-28" points="0.13 4.48 6.3 9.71 9.97 5.38 3.71 0.14"></polygon>
        <rect id="path-30" x="0.0507692308" y="0.0807692308" width="12.09" height="13.28"></rect>
        <path d="M0.19,35.66 C-0.777783946,49.016038 5.51145892,61.8606783 16.6549017,69.2865817 C27.7983444,76.712485 42.0742028,77.5722679 54.0283359,71.5374473 C65.982469,65.5026267 73.7678319,53.5056487 74.41,40.13 L75.41,40.19 L74.41,40.13 C75.6230678,19.6448327 60.0226652,2.0446079 39.54,0.79 C38.78,0.74 38.03,0.72 37.28,0.72 C17.6325496,0.751727306 1.39352745,16.0494203 0.19,35.66" id="path-32"></path>
        <rect id="path-34" x="0.22" y="0.49" width="107.69" height="93.9"></rect>
        <path d="M107.91,37.87 C107.91,37.87 88.84,21.87 65.35,33.78 C47.52,42.78 31.89,74.47 58.19,94.39 L0.19,80.39 L33.72,24.61 L92.67,0.49 L107.91,37.87 Z" id="path-36"></path>
        <polygon id="path-38" points="29.7933368 30.1753818 172.333337 30.1753818 172.333337 172.715382 29.7933368 172.715382"></polygon>
        <path d="M29.28,0.17 C26.830581,0.232755554 24.4765768,1.13271217 22.61,2.72 C22.5185086,2.79816569 22.4316921,2.88164306 22.35,2.97 C19.72,5.64 5.59,22.46 0.66,32.86 L55.66,46 C60.45,36.46 66.78,18.93 67.22,16.71 C67.2356265,16.5403591 67.2356265,16.3696409 67.22,16.2 C67.2145826,15.0367819 66.6902103,13.9367002 65.79,13.2 C55.715628,4.94410202 43.1435329,0.341030461 30.12,0.14 L29.26,0.14" id="path-40"></path>
        <polygon id="path-42" points="133.29 26.21 85.64 77.81 0.61 51.95 48.26 0.35"></polygon>
        <linearGradient x1="85.983268%" y1="31.9627231%" x2="51.8372023%" y2="53.5487135%" id="linearGradient-44">
            <stop stop-color="#E6E6E6" offset="0%"></stop>
            <stop stop-color="#E6E6E6" offset="0%"></stop>
            <stop stop-color="#DCDCDD" offset="2%"></stop>
            <stop stop-color="#D3D3D4" offset="3%"></stop>
            <stop stop-color="#DEDEDF" offset="35%"></stop>
            <stop stop-color="#FBFBFB" offset="92%"></stop>
            <stop stop-color="#FFFFFF" offset="99%"></stop>
            <stop stop-color="#FFFFFF" offset="100%"></stop>
        </linearGradient>
        <path d="M50.82,1.42677696 C49.9593281,2.16018681 49.2172601,3.02173786 48.62,3.98100703 C48.62,3.98100703 40.49,4.85902362 37.72,7.52300577 C36.9896239,8.30337868 36.3643528,9.17544363 35.86,10.1171457 C35.86,10.1171457 30.66,10.1171457 24.94,14.4772962 C24.456462,14.8451595 24.0198811,15.2707042 23.64,15.7444338 C22.422794,15.8099226 21.2225337,16.0588526 20.08,16.482766 C17.7438039,17.4277473 15.7905905,19.1237397 14.53,21.3018797 L7.78,32.7160954 C5.86305221,35.9596307 4.78724742,39.629013 4.65,43.3919789 L2.19,75.3996745 C2.17211212,75.8961937 2.05658933,76.3843639 1.85,76.836429 L0.43,79.9893067 C13.6611343,80.023589 26.4766254,84.6040763 36.72,92.9600063 L38.89,87.9712757 C39.323831,86.9652946 40.0478937,86.1108813 40.97,85.5168202 C44.18,83.4514858 50.06,79.0813577 52.59,75.7488857 C55.59,71.8476983 71.43,47.5226479 75.1,40.4286729 C78.5010837,33.3304691 81.3787185,25.9942 83.71,18.4782582 C83.785064,18.0983451 83.6330357,17.7094074 83.32,17.4805121 C76.45,12.741218 67.12,28.9745474 65.32,32.297042 C65.1330975,32.6522207 64.8783048,32.9674516 64.57,33.2249459 C61.6568369,36.011019 58.8929971,38.9484736 56.29,42.0250667 L56.37,41.3366219 C56.8,37.9941724 58.37,23.8062225 58.5,22.3794455 C58.63,20.9526686 59,16.1036224 59,16.1036224 L65.88,8.67041381 C61,2.37463577 57.45,0.329256221 54.61,0.329256221 C53.2601499,0.362037376 51.9495017,0.788685588 50.84,1.55648395" id="path-45"></path>
        <rect id="path-47" x="0.04" y="0.72835467" width="34.17" height="33.8635034"></rect>
        <rect id="path-49" x="0.18754717" y="0.109835918" width="3.49" height="5.51753606"></rect>
    </defs>
    <g id="Trade" stroke="none" stroke-width="1" fill="none" fill-rule="evenodd">
        <g id="trade-annotated" transform="translate(-276.000000, -1525.000000)">
            <g id="Stacked-Group" transform="translate(140.000000, 1218.000000)">
                <g id="Group-11" transform="translate(0.000000, 294.000000)">
                    <g id="Resized-Illutration_TrueCar_05_New_Pricing_Curve_Final" transform="translate(86.000000, 0.000000)">
                        <g id="Clipped" transform="translate(143.000000, 27.000000)">
                            <mask id="mask-2" fill="white">
                                <use xlink:href="#path-1"></use>
                            </mask>
                            <g id="Path"></g>
                            <g id="Group" mask="url(#mask-2)">
                                <g transform="translate(-42.000000, -25.000000)">
                                    <path d="M55.1,64.59 L57.67,58.91 C57.7208839,58.7952672 57.7101353,58.6625617 57.6414499,58.5575135 C57.5727646,58.4524653 57.4555087,58.3893992 57.33,58.3899652 L56.54,58.3899652 C56.1422588,58.3872761 55.760162,58.544762 55.4798522,58.8269532 C55.1995423,59.1091443 55.0446157,59.4922859 55.05,59.89 L55.1,64.59 Z" id="Path" stroke="none" fill="#141414" fill-rule="nonzero"></path>
                                    <path d="M55.33,72.75 L55.23,72.75 C55.2461824,72.6037797 55.2461824,72.4562203 55.23,72.31 C55.205605,72.1512313 55.1513118,71.9985316 55.07,71.86 C54.8757141,71.4893729 54.5570611,71.1990446 54.17,71.04 C53.9034221,70.9198997 53.7342211,70.6523259 53.74,70.36 L53.74,66.22 C53.7395926,65.9083011 53.8575397,65.6080723 54.07,65.38 L54.82,64.59 L55.16,64.23 C55.16,64.23 55.16,64.36 55.25,64.59 C55.65,66.17 57.1,72.51 55.38,72.75" id="Path" stroke="none" fill="#EFF1F2" fill-rule="nonzero"></path>
                                    <rect id="Rectangle" stroke="none" fill="#000000" fill-rule="nonzero" x="64.96" y="56.41" width="31.67" height="20.4"></rect>
                                    <rect id="Rectangle" stroke="none" fill="#000000" fill-rule="nonzero" x="140.02" y="56.41" width="31.67" height="20.4"></rect>
                                    <path d="M181.8,67.72 L181.8,69.64 L179.52,74.33 C179.201716,74.9762667 178.629563,75.4615103 177.94,75.67 L169.78,78.05 L169.55,78.05 C169.346464,78.0490912 169.154377,77.9557098 169.027941,77.7962056 C168.901504,77.6367014 168.85443,77.4283711 168.9,77.23 L168.9,77.23 C170.038857,72.6429351 168.421231,67.8111459 164.750102,64.8344068 C161.078974,61.8576678 156.017196,61.2734543 151.764491,63.3356508 C147.511785,65.3978474 144.836014,69.734107 144.9,74.46 L144.9,74.59 C144.910772,75.4718139 145.014682,76.3500218 145.21,77.21 C145.25934,77.4169041 145.210496,77.6350006 145.07762,77.801096 C144.944744,77.9671914 144.742689,78.0627191 144.53,78.06 L94.18,78.06 C94.0445292,78.0591199 93.9163347,77.9985683 93.8296066,77.8944945 C93.7428785,77.7904208 93.7064365,77.6534086 93.73,77.52 C93.8598428,76.7804722 93.9234283,76.0308321 93.92,75.28 C93.92,75.05 93.92,74.82 93.92,74.59 C93.4894951,70.0330773 90.6606027,66.0519788 86.4989394,64.1463457 C82.3372761,62.2407127 77.4750975,62.7000561 73.7439393,65.3513458 C70.012781,68.0026354 67.9794949,72.4430773 68.41,77 C68.4353441,77.280432 68.3412857,77.5585539 68.1509324,77.7660389 C67.9605792,77.973524 67.6915726,78.0911429 67.41,78.0900083 L54.36,78.0900083 L54.53,75.03 L54.61,73.63 L55.36,72.87 L55.36,72.79 L55.21,72.36 L55.05,71.91 L54.77,71.1 L55.12,64.63 L55.12,64.27 C55.12,64.27 55.64,61.14 56.12,59.33 C56.2040546,59.014637 56.3144424,58.7068891 56.45,58.41 C65.24,51.27 82.3,51.04 82.3,51.04 L83.75,50.32 L107.84,38.27 C107.84,38.27 110.34,36.93 117.24,36.09 C121.405704,35.6094071 125.596756,35.3823222 129.79,35.41 C145.09,35.41 165.46,39.33 168.57,39.95 C168.78689,39.9891536 168.943506,40.1796321 168.94,40.4 L168.94,40.4 C168.925834,40.6075619 168.77412,40.7797784 168.57,40.82 L161,42.43 C160.506798,42.5985126 160.168251,43.0532915 160.148305,43.5741053 C160.128359,44.0949191 160.431131,44.5742591 160.91,44.78 L174.07,50.54 C174.851746,50.877364 175.429492,51.5625112 175.63,52.39 L177.79,61.15 L177.79,63.15 C177.790013,64.7072454 178.796689,66.0858666 180.28,66.56 L181.16,66.85 C181.522865,66.9636356 181.769895,67.2997577 181.77,67.68" id="Path" stroke="none" fill="#0DB8D7" fill-rule="nonzero"></path>
                                    <path d="M181.8,67.72 L181.8,69.64 L179.52,74.33 C179.201716,74.9762667 178.629563,75.4615103 177.94,75.67 L169.78,78.05 L169.55,78.05 C169.346464,78.0490912 169.154377,77.9557098 169.027941,77.7962056 C168.901504,77.6367014 168.85443,77.4283711 168.9,77.23 L168.9,77.23 C170.038857,72.6429351 168.421231,67.8111459 164.750102,64.8344068 C161.078974,61.8576678 156.017196,61.2734543 151.764491,63.3356508 C147.511785,65.3978474 144.836014,69.734107 144.9,74.46 C144.900315,75.3853669 145.004297,76.307786 145.21,77.21 C145.25934,77.4169041 145.210496,77.6350006 145.07762,77.801096 C144.944744,77.9671914 144.742689,78.0627191 144.53,78.0600565 L94.18,78.0600565 C94.0445292,78.0591199 93.9163347,77.9985683 93.8296066,77.8944945 C93.7428785,77.7904208 93.7064365,77.6534086 93.73,77.52 C93.8598428,76.7804722 93.9234283,76.0308321 93.92,75.28 C93.9200093,71.8773725 92.5662708,68.6145443 90.1574375,66.211339 C87.7486041,63.8081338 84.4826181,62.4620313 81.08,62.47 L80.62,59.75 C80.62,59.75 104.86,55.13 163.02,52.25 L165.5,51.69 C165.5,51.69 171.13,51.91 172.19,53.87 C173.25,55.83 177.68,60.99 177.82,61.15 L177.82,61.15 L177.82,63.15 C177.820013,64.7072454 178.826689,66.0858666 180.31,66.56 L181.19,66.85 C181.552865,66.9636356 181.8,67.2997577 181.8,67.68" id="Path" stroke="none" fill="#0686B6" fill-rule="nonzero"></path>
                                    <path d="M181.8,67.72 L181.8,69.64 L179.52,74.33 C179.201716,74.9762667 178.629563,75.4615103 177.94,75.67 L169.78,78.05 L169.55,78.05 C169.346464,78.0490912 169.154377,77.9557098 169.027941,77.7962056 C168.901504,77.6367014 168.85443,77.4283711 168.9,77.23 L168.9,77.23 C170.038857,72.6429351 168.421231,67.8111459 164.750102,64.8344068 C161.078974,61.8576678 156.017196,61.2734543 151.764491,63.3356508 C147.511785,65.3978474 144.836014,69.734107 144.9,74.46 C144.900315,75.3853669 145.004297,76.307786 145.21,77.21 C145.25934,77.4169041 145.210496,77.6350006 145.07762,77.801096 C144.944744,77.9671914 144.742689,78.0627191 144.53,78.0600565 L94.18,78.0600565 C94.0445292,78.0591199 93.9163347,77.9985683 93.8296066,77.8944945 C93.7428785,77.7904208 93.7064365,77.6534086 93.73,77.52 C93.8598428,76.7804722 93.9234283,76.0308321 93.92,75.28 C93.9200093,71.8773725 92.5662708,68.6145443 90.1574375,66.211339 C87.7486041,63.8081338 84.4826181,62.4620313 81.08,62.47 L80.62,59.75 C80.62,59.75 104.86,55.13 163.02,52.25 L165.5,51.69 C165.5,51.69 171.13,51.91 172.19,53.87 C173.25,55.83 177.68,60.99 177.82,61.15 L177.82,61.15 L177.82,63.15 C177.820013,64.7072454 178.826689,66.0858666 180.31,66.56 L181.19,66.85 C181.552865,66.9636356 181.8,67.2997577 181.8,67.68" id="Path" stroke="none" fill="#0DB8D7" fill-rule="nonzero"></path>
                                    <path d="M86.3,50.73 C84.5186526,51.7233293 82.659135,52.5694767 80.74,53.26 C76.74,54.37 58.28,58.78 56.14,59.26 C56.2240546,58.944637 56.3344424,58.6368891 56.47,58.34 C65.26,51.2 82.32,50.97 82.32,50.97 C83.6590826,51.1023028 85.0108443,51.0110589 86.32,50.7" id="Path" stroke="none" fill="#0DB8D7" fill-rule="nonzero"></path>
                                    <path d="M157.28,49.56 C156.61,52.14 155.18,57.8 153.78,61.56 C148.12,62.62 145.44,66.77 144.18,70.25 C143.662051,71.9214942 143.455292,73.6738596 143.57,75.42 C143.57,75.42 128.57,75.42 124.57,75.31 C124.57,75.31 124.5,73.53 124.48,70.87 C124.404088,65.7569607 124.641198,60.6440682 125.19,55.56 C126.26,47.19 128.4,38 128.4,38 C134.42614,38.0533033 140.441034,38.5311533 146.4,39.43 C148.595666,39.77037 150.630305,40.7876896 152.22,42.34 C154.005257,44.0558412 155.607208,45.9527129 157,48 C157.299384,48.4764221 157.389781,49.0549584 157.25,49.6" id="Path" stroke="none" fill="#EFF1F2" fill-rule="nonzero"></path>
                                    <path d="M157.28,49.56 C157.08,50.34 156.81,51.39 156.49,52.56 C151.13,52.79 133.24,54.03 126.67,54.5 C127.55,45.91 128.41,38.02 128.41,38.02 C134.43614,38.0733033 140.451034,38.5511533 146.41,39.45 C148.605666,39.79037 150.640305,40.8076896 152.23,42.36 C154.010688,44.0700569 155.609237,45.960166 157,48 C157.299384,48.4764221 157.389781,49.0549584 157.25,49.6" id="Path" stroke="none" fill="#FFFFFF" fill-rule="nonzero"></path>
                                    <path d="M144.18,70.29 C143.620184,71.9522738 143.419097,73.7143366 143.59,75.46 C143.59,75.46 128.53,75.46 124.59,75.35 C124.59,75.35 124.52,73.57 124.5,70.91 L144.18,70.29 Z" id="Path" stroke="none" fill="#7F0B4F" fill-rule="nonzero"></path>
                                    <path d="M128.41,38 C128.41,38 126.14,59.52 125,70.9 C124.82,72.66 124.68,74.19 124.57,75.35 L96.4,75.35 C96.14,74.13 95.89,72.96 95.68,71.83 C93.68,61.39 94.1,54.18 96.68,46.73 C96.8348625,46.2852265 97.1340761,45.9050492 97.53,45.65 C102.236154,42.6701726 107.340005,40.3707462 112.69,38.82 C113.170042,38.6783458 113.662126,38.581268 114.16,38.53 C118.896471,38.0888227 123.653843,37.9118819 128.41,38" id="Path" stroke="none" fill="#0DB8D7" fill-rule="nonzero"></path>
                                    <path d="M128.41,38 C128.41,38 127.58,45.82 126.68,54.5 C119.19,54.99 103.22,56.63 94.5,57.67 C94.6912469,53.9207892 95.4117129,50.2174594 96.64,46.67 C96.7948625,46.2252265 97.0940761,45.8450492 97.49,45.59 C102.196154,42.6101726 107.300005,40.3107462 112.65,38.76 C113.130042,38.6183458 113.622126,38.521268 114.12,38.47 C118.870865,38.047359 123.641631,37.8904479 128.41,38" id="Path" stroke="none" fill="#0DB8D7" fill-rule="nonzero"></path>
                                    <path d="M125,70.9 C124.82,72.66 124.68,74.19 124.57,75.35 L96.4,75.35 C96.14,74.13 95.9,72.96 95.68,71.83 L125,70.9 Z" id="Path" stroke="none" fill="#0DB8D7" fill-rule="nonzero"></path>
                                    <path d="M65.78,72.87 L60.11,74.81 L54.53,74.99 L54.61,73.59 L55.36,72.83 L55.36,72.75 L55.26,72.75 C55.2761824,72.6037797 55.2761824,72.4562203 55.26,72.31 L55.1,71.86 C54.9057141,71.4893729 54.5870611,71.1990446 54.2,71.04 C53.9334221,70.9198997 53.7642211,70.6523259 53.77,70.36 L53.77,66.22 C53.7695926,65.9083011 53.8875397,65.6080723 54.1,65.38 L54.28,65.19 C54.6432825,64.8045277 55.1503252,64.5872237 55.68,64.5899737 L58.68,64.5899737 C59.8202045,64.5932089 60.8828896,65.1677348 61.51,66.12 L65.78,72.87 Z" id="Path" stroke="none" fill="#0FA6CE" fill-rule="nonzero"></path>
                                    <path d="M63,70.45 L60.4,66.36 C60.1271163,65.9271952 59.6272272,65.6928722 59.12,65.76 L56.23,66.1 C55.8910931,66.1420137 55.5925977,66.3432755 55.4265822,66.641708 C55.2605668,66.9401405 55.2469754,67.2998919 55.39,67.61 L55.98,68.89 C56.125485,69.2272494 56.4441402,69.4576025 56.81,69.49 C58,69.62 60.73,70.06 62.05,71.25 C62.1634814,71.3488688 62.3095082,71.4022932 62.46,71.4 L62.46,71.4 C62.7020759,71.4119985 62.9289476,71.2818363 63.0407671,71.0667989 C63.1525865,70.8517614 63.1288484,70.5912821 62.98,70.4" id="Path" stroke="none" fill="#0F3A4A" fill-rule="nonzero"></path>
                                    <path d="M60.82,69.21 L59.32,66.84 C59.1592901,66.5928712 58.8729869,66.4574575 58.58,66.49 L56.9,66.69 C56.7043918,66.7139395 56.5318142,66.829445 56.4351059,67.0011516 C56.3383976,67.1728582 56.3290778,67.3803135 56.41,67.56 L56.76,68.31 C56.848069,68.5006979 57.0308841,68.6301919 57.24,68.65 C58.3095381,68.7188709 59.3430469,69.0633739 60.24,69.65 C60.306249,69.7084285 60.3916676,69.7404605 60.48,69.7400049 L60.48,69.7400049 C60.6096648,69.737929 60.7281951,69.6662793 60.7902932,69.5524327 C60.8523914,69.438586 60.8484595,69.3001388 60.78,69.19" id="Path" stroke="none" fill="#141414" fill-rule="nonzero"></path>
                                    <path d="M80.81,59.76 C73.3073777,59.9528371 67.0054516,65.4607205 65.81,72.87 C65.72,73.47 65.66,74.09 65.63,74.71 C65.591096,75.8291226 65.6749296,76.949139 65.88,78.05 L67.49,78.05 C67.7608957,78.0373335 68.0150305,77.9151872 68.1941447,77.7115625 C68.373259,77.5079379 68.4619913,77.2402985 68.44,76.97 C68.2667118,75.6394955 68.3004446,74.2901834 68.54,72.97 C69.8636257,66.5768874 75.7739423,62.1948282 82.2758265,62.7859086 C88.7777107,63.376989 93.8009295,68.7530059 93.95,75.28 C93.9501539,76.0477013 93.8832328,76.8139482 93.75,77.57 C93.7257512,77.6917662 93.7579857,77.8179616 93.8376602,77.9131823 C93.9173346,78.008403 94.0358659,78.062391 94.16,78.0600762 L96.41,78.0600762 C96.5747695,77.1424675 96.6584259,76.2122083 96.6600003,75.28 C96.6608326,71.1122136 94.9842626,67.1194675 92.0081779,64.2017006 C89.0320932,61.2839336 85.0069539,59.6866979 80.84,59.77" id="Path" stroke="none" fill="#141414" fill-rule="nonzero"></path>
                                    <path d="M125.72,38.88 L123.13,51.73 C116.89,52.23 110.69,52.61 105.29,52.88 L102.52,53.02 C98,53.24 94.22,53.38 91.72,53.46 C91.2514011,53.4717839 90.8287006,53.1799474 90.6736467,52.7375878 C90.5185928,52.2952281 90.6665903,51.8033531 91.04,51.52 C94.9704267,48.5178675 99.1641535,45.8771249 103.57,43.63 C106.384191,42.196631 109.331477,41.0411609 112.37,40.18 C114.309233,39.6851123 116.285904,39.3506502 118.28,39.18 C120.753349,38.9552418 123.23666,38.8584461 125.72,38.89" id="Path" stroke="none" fill="#141414" fill-rule="nonzero"></path>
                                    <g id="Group" opacity="0.1" stroke="none" stroke-width="1" fill="none" fill-rule="evenodd" transform="translate(90.000000, 39.000000)">
                                        <g id="Clipped">
                                            <mask id="mask-4" fill="white">
                                                <use xlink:href="#path-3"></use>
                                            </mask>
                                            <g id="Rectangle"></g>
                                            <path d="M28.28,0.17 C27.8840209,0.359544458 27.5197198,0.60915816 27.2,0.91 C25.2,2.7 26.47,4.05 24.5,5.85 C22.53,7.65 21.31,6.29 19.34,8.09 C17.37,9.89 18.61,11.23 16.65,13.03 L16.59,13.03 C16.0125058,13.5386173 15.2787407,13.8349455 14.51,13.87 L12.51,13.97 C7.99,14.19 4.21,14.33 1.71,14.41 C1.24140112,14.4217839 0.818700553,14.1299474 0.663646655,13.6875878 C0.508592758,13.2452281 0.656590342,12.7533531 1.03,12.47 C4.96042671,9.46786751 9.15415352,6.82712493 13.56,4.58 C16.3741912,3.14663098 19.3214772,1.9911609 22.36,1.13 C24.2992334,0.635112292 26.2759041,0.300650248 28.27,0.13" id="Path" fill="#FFFFFF" fill-rule="nonzero" mask="url(#mask-4)"></path>
                                        </g>
                                    </g>
                                    <path d="M146.63,40.69 L145.81,49.1 C141.54,49.84 136.58,50.46 131.39,50.98 L129.32,51.19 L130.55,39 C134.43,39.19 138.12,39.55 141.07,39.91 C143.42,40.19 145.31,40.46 146.46,40.64 C146.516528,40.6343855 146.573472,40.6343855 146.63,40.64" id="Path" stroke="none" fill="#141414" fill-rule="nonzero"></path>
                                    <path d="M103.57,43.63 L102.57,53.02 C98.05,53.24 94.27,53.38 91.77,53.46 C91.3014011,53.4717839 90.8787006,53.1799474 90.7236467,52.7375878 C90.5685928,52.2952281 90.7165903,51.8033531 91.09,51.52 C95.0204267,48.5178675 99.2141535,45.8771249 103.62,43.63" id="Path" stroke="none" fill="#0DB8D7" fill-rule="nonzero"></path>
                                    <path d="M101.79,44.56 C101.65,45.67 101.28,48.72 100.95,53.09 C97.12,53.27 93.95,53.39 91.72,53.46 C91.2514011,53.4717839 90.8287006,53.1799474 90.6736467,52.7375878 C90.5185928,52.2952281 90.6665903,51.8033531 91.04,51.52 C94.4393713,48.9156452 98.0332143,46.5754684 101.79,44.52" id="Path" stroke="none" fill="#FFFFFF" fill-rule="nonzero"></path>
                                    <path d="M101.79,44.56 C101.65,45.67 101.28,48.72 100.95,53.09 C97.12,53.27 93.95,53.39 91.72,53.46 C91.2514011,53.4717839 90.8287006,53.1799474 90.6736467,52.7375878 C90.5185928,52.2952281 90.6665903,51.8033531 91.04,51.52 C94.440713,48.9294148 98.0345202,46.6026336 101.79,44.56 L101.79,44.56 Z" id="Path" stroke="#231F20" stroke-width="0.23" fill="none"></path>
                                    <path d="M101.79,44.56 C101.65,45.67 101.28,48.72 100.95,53.09 C97.12,53.27 93.95,53.39 91.72,53.46 C91.2514011,53.4717839 90.8287006,53.1799474 90.6736467,52.7375878 C90.5185928,52.2952281 90.6665903,51.8033531 91.04,51.52 C94.4393713,48.9156452 98.0332143,46.5754684 101.79,44.52" id="Path" stroke="none" fill="#141414" fill-rule="nonzero"></path>
                                    <path d="M100.92,53.18 L100.92,53.07 C100.93209,52.8924617 101.057322,52.7429912 101.23,52.7 L102.04,52.49 C102.516895,52.3760819 102.872175,51.976891 102.93,51.49 C103.012395,50.9330308 103.012395,50.3669692 102.93,49.81 C102.877401,49.3028559 102.62318,48.8381325 102.224493,48.5203111 C101.825805,48.2024898 101.31611,48.0582426 100.81,48.12 C99.81,48.12 97.28,49.66 97.28,52.78 L97.28,53.3 L100.92,53.18 Z" id="Path" stroke="none" fill="#0FA6CE" fill-rule="nonzero"></path>
                                    <path d="M117.26,36.05 L117.26,36.05 C117.26,36.87 116.75,37.3 115.85,37.4 C114.861671,37.5046688 113.882368,37.6818123 112.92,37.93 C106.54,39.34 92.92,47.11 86.3,50.73 C85.8261361,50.9908096 85.2905744,51.1186534 84.75,51.1 C83.7,51.1 82.32,51 82.32,51 L107.86,38.23 C107.86,38.23 110.36,36.89 117.26,36.05" id="Path" stroke="none" fill="#141414" fill-rule="nonzero"></path>
                                    <path d="M72.1,56.48 C70.5700757,58.7808317 68.250816,60.4420193 65.58,61.15 C63.6648148,61.6253774 61.7028322,61.8869751 59.73,61.93 C59.6018814,61.9353125 59.4865267,61.8529163 59.45,61.73 L58.64,59.31 C58.4801209,58.7972358 58.7538611,58.2497553 59.26,58.07 C62.667265,56.9625709 66.1587007,56.1331878 69.7,55.59 C70.28,55.5 70.86,55.44 71.43,55.38 C71.7046222,55.3489858 71.9722864,55.4801463 72.1160511,55.716178 C72.2598159,55.9522096 72.2535535,56.2502162 72.1,56.48" id="Path" stroke="none" fill="#141414" fill-rule="nonzero"></path>
                                    <path d="M123.07,55.84 L117.97,56.23 C117.630972,56.2529677 117.336627,55.9987606 117.31,55.66 L117.31,55.54 C117.287032,55.2009717 117.541239,54.9066266 117.88,54.88 L122.98,54.49 C123.144517,54.4790421 123.306623,54.5340664 123.430476,54.642907 C123.554329,54.7517477 123.629727,54.9054389 123.64,55.07 L123.64,55.18 C123.662968,55.5190283 123.408761,55.8133734 123.07,55.84" id="Path" stroke="none" fill="#7F0B4F" fill-rule="nonzero"></path>
                                    <path d="M97.31,53.23 C97.31,54.01 97.31,54.78 97.31,55.23 C97.3073172,55.3828985 97.3661841,55.5304626 97.473372,55.639531 C97.5805599,55.7485994 97.7270779,55.8100235 97.88,55.81 L100.25,55.81 C100.557304,55.8158154 100.813878,55.5769356 100.83,55.27 L100.95,53.12 L97.31,53.23 Z" id="Path" stroke="none" fill="#141414" fill-rule="nonzero"></path>
                                    <g id="Group" opacity="0.1" stroke="none" stroke-width="1" fill="none" fill-rule="evenodd" transform="translate(59.000000, 55.000000)">
                                        <g id="Clipped">
                                            <mask id="mask-6" fill="white">
                                                <use xlink:href="#path-5"></use>
                                            </mask>
                                            <g id="Rectangle"></g>
                                            <path d="M13.1,1.48 C11.5700757,3.78083168 9.25081597,5.44201927 6.58,6.15 C4.66481481,6.62537743 2.7028322,6.88697511 0.73,6.93 C10.43,5.28 10.62,0.66 10.62,0.66 L10.7,0.59 C11.28,0.5 11.86,0.44 12.43,0.38 C12.7046222,0.348985828 12.9722864,0.480146286 13.1160511,0.716177962 C13.2598159,0.952209638 13.2535535,1.25021623 13.1,1.48" id="Path" fill="#FFFFFF" fill-rule="nonzero" mask="url(#mask-6)"></path>
                                        </g>
                                    </g>
                                    <g id="Group" opacity="0.1" stroke="none" stroke-width="1" fill="none" fill-rule="evenodd" transform="translate(129.000000, 39.000000)">
                                        <g id="Clipped">
                                            <mask id="mask-8" fill="white">
                                                <use xlink:href="#path-7"></use>
                                            </mask>
                                            <g id="Rectangle"></g>
                                            <path d="M12.07,0.93 C10.14,2.71 11.36,4.06 9.4,5.85 C7.44,7.64 6.2,6.29 4.23,8.09 C2.98,9.23 3.03,10.19 2.72,11.2 C2.57786978,11.6721452 2.16139108,12.0092947 1.67,12.05 L0.32,12.19 L1.55,0 C5.43,0.19 9.12,0.55 12.07,0.91" id="Path" fill="#FFFFFF" fill-rule="nonzero" mask="url(#mask-8)"></path>
                                        </g>
                                    </g>
                                    <path d="M144.5,78.05 L94.18,78.05 C94.0445292,78.0491199 93.9163347,77.9885683 93.8296066,77.8844945 C93.7428785,77.7804208 93.7064365,77.6434086 93.73,77.51 C93.8598428,76.7704722 93.9234283,76.0208321 93.92,75.27 C93.92,75.04 93.92,74.81 93.92,74.58 L144.92,74.58 C144.930772,75.4618139 145.034682,76.3400218 145.23,77.2 C145.27934,77.4069041 145.230496,77.6250006 145.09762,77.791096 C144.964744,77.9571914 144.762689,78.0527191 144.55,78.05" id="Path" stroke="none" fill="#141414" fill-rule="nonzero"></path>
                                    <path d="M68.41,77 C68.4319913,77.2702985 68.343259,77.5379379 68.1641447,77.7415625 C67.9850305,77.9451872 67.7308957,78.0673335 67.46,78.0800336 L54.65,78.0800336 C54.2624303,78.0827329 53.8923807,77.9187571 53.6340566,77.6298169 C53.3757326,77.3408767 53.254055,76.9548465 53.3,76.57 L53.65,73.64 C53.7008853,73.2155116 54.0624834,72.896961 54.49,72.8999784 L68.49,72.8999784 L68.49,73 C68.2504446,74.3201834 68.2167118,75.6694955 68.39,77" id="Path" stroke="none" fill="#141414" fill-rule="nonzero"></path>
                                    <path d="M63.73,58.75 C63.9234303,59.5091879 64.6917254,59.9713888 65.4530579,59.7865794 C66.2143903,59.60177 66.6852733,58.8387652 66.5091086,58.0753862 C66.3329439,57.3120071 65.5753275,56.8325026 64.81,57 C64.0429347,57.1787281 63.5617759,57.9405628 63.73,58.71" id="Path" stroke="none" fill="#0F3A4A" fill-rule="nonzero"></path>
                                    <path d="M61,60.11 C61.0444983,60.3276715 61.1775123,60.5170348 61.3671825,60.6327336 C61.5568527,60.7484324 61.7860945,60.7800452 62,60.72 C62.4276135,60.606021 62.6845964,60.1699433 62.5771393,59.7406444 C62.4696822,59.3113455 62.0375665,59.0477549 61.6066818,59.1486653 C61.175797,59.2495756 60.9056598,59.6776292 61,60.11" id="Path" stroke="none" fill="#EFF1F2" fill-rule="nonzero"></path>
                                    <path d="M100.92,53.18 L100.92,53.07 C100.93209,52.8924617 101.057322,52.7429912 101.23,52.7 L102.04,52.49 C102.516895,52.3760819 102.872175,51.976891 102.93,51.49 C103.012395,50.9330308 103.012395,50.3669692 102.93,49.81 C102.877401,49.3028559 102.62318,48.8381325 102.224493,48.5203111 C101.825805,48.2024898 101.31611,48.0582426 100.81,48.12 C99.81,48.12 97.28,49.66 97.28,52.78 L97.28,53.3 L100.92,53.18 Z" id="Path" stroke="none" fill="#0FA6CE" fill-rule="nonzero"></path>
                                    <path d="M97.31,53.23 C97.31,54.01 97.31,54.78 97.31,55.23 C97.3073172,55.3828985 97.3661841,55.5304626 97.473372,55.639531 C97.5805599,55.7485994 97.7270779,55.8100235 97.88,55.81 L100.25,55.81 C100.557304,55.8158154 100.813878,55.5769356 100.83,55.27 L100.95,53.12 L97.31,53.23 Z" id="Path" stroke="none" fill="#141414" fill-rule="nonzero"></path>
                                    <path d="M61,60.11 C61.0444983,60.3276715 61.1775123,60.5170348 61.3671825,60.6327336 C61.5568527,60.7484324 61.7860945,60.7800452 62,60.72 C62.4276135,60.606021 62.6845964,60.1699433 62.5771393,59.7406444 C62.4696822,59.3113455 62.0375665,59.0477549 61.6066818,59.1486653 C61.175797,59.2495756 60.9056598,59.6776292 61,60.11" id="Path" stroke="none" fill="#EFF1F2" fill-rule="nonzero"></path>
                                    <g id="Group" opacity="0.71" stroke="none" stroke-width="1" fill="none" fill-rule="evenodd">
                                        <g id="Clipped">
                                            <mask id="mask-10" fill="white">
                                                <use xlink:href="#path-9"></use>
                                            </mask>
                                            <g id="Rectangle"></g>
                                            <g mask="url(#mask-10)">
                                                <mask id="mask-12" fill="white">
                                                    <use xlink:href="#path-11"></use>
                                                </mask>
                                                <g id="Path"></g>
                                                <g mask="url(#mask-12)">
                                                    <g transform="translate(-47.000000, -54.000000)">
                                                        <mask id="mask-14" fill="white">
                                                            <use xlink:href="#path-13"></use>
                                                        </mask>
                                                        <g id="Rectangle" stroke="none" fill="none" transform="translate(101.063337, 101.445382) rotate(-45.000000) translate(-101.063337, -101.445382) "></g>
                                                        <polygon id="Rectangle" stroke="none" fill="url(#linearGradient-15)" fill-rule="nonzero" mask="url(#mask-14)" transform="translate(101.063337, 101.445382) rotate(-45.000000) translate(-101.063337, -101.445382) " points="29.7933368 30.1753818 172.333337 30.1753818 172.333337 172.715382 29.7933368 172.715382"></polygon>
                                                    </g>
                                                </g>
                                            </g>
                                        </g>
                                    </g>
                                </g>
                            </g>
                        </g>
                        <path d="M252.385827,56 L247.585827,56 C247.430456,56 247.281449,55.9032337 247.171585,55.7309885 C247.061721,55.5587433 247,55.3251288 247,55.0815373 L247,54.9037704 C247,54.6615189 247.062,54.4293985 247.172144,54.2594991 C247.282288,54.0895998 247.431331,53.9961503 247.585827,54.0001216 L252.414173,54.0001216 C252.568669,53.9961503 252.717712,54.0895998 252.827856,54.2594991 C252.938,54.4293985 253,54.6615189 253,54.9037704 L253,55.0815373 C253,55.5887903 252.737716,56 252.414173,56" id="Path" fill="#7F0B4F" fill-rule="nonzero"></path>
                        <path d="M192,76.5 C192,82.2989909 187.298986,87 181.5,87 C175.701009,87 171,82.2989909 171,76.5 C171,70.7010137 175.701009,66 181.5,66 C184.285571,65.9973903 186.957806,67.1027973 188.927504,69.0724959 C190.897203,71.0421944 192.00261,73.7144291 192,76.5" id="Path" fill="#141414" fill-rule="nonzero"></path>
                        <path d="M190,76.9776126 C190.003321,79.3064907 188.996666,81.5212933 187.242736,83.0440205 C186.86479,83.3717322 186.457921,83.6641806 186.027171,83.9177421 C184.808189,84.6278239 183.423887,85.001202 182.01482,85 C180.522595,85.0043846 179.059592,84.5844374 177.794933,83.7886696 L177.794933,83.7886696 C177.341792,83.5003246 176.91808,83.1677579 176.529955,82.7958042 C174.925144,81.2891582 174.009865,79.1842714 174,76.9776126 C174.001658,76.3655164 174.074627,75.7557191 174.217418,75.1606688 C174.317137,74.7047573 174.459418,74.2593064 174.642372,73.8302291 C175.770392,71.1807108 178.226226,69.3425759 181.075969,69.0148316 C181.378717,68.9950561 181.682424,68.9950561 181.985172,69.0148316 L182.528717,69.0148316 C185.410946,69.2128055 187.961972,70.9593774 189.199498,73.5820127 C189.401736,74.002535 189.563876,74.4413551 189.683747,74.8925951 C189.874428,75.58457 189.970839,76.2993247 189.970344,77.0173272" id="Path" fill="#7D7D7D" fill-rule="nonzero"></path>
                        <path d="M185,82.9938837 C182.825427,84.375623 180.135932,84.3313146 178,82.8785615 L181.099455,78.2027717 C181.183811,78.0753673 181.318509,78 181.461853,78 C181.605197,78 181.739895,78.0753673 181.824251,78.2027717 L185,82.9938837 Z" id="Path" fill="#141414" fill-rule="nonzero"></path>
                        <path d="M180.968641,70 L180.968641,75.5217518 C180.961548,75.674046 180.883962,75.8148969 180.757838,75.9044466 C180.631713,75.9939963 180.470772,76.0225022 180.320557,75.9818978 L175,74.3662741 C176.056627,71.9649652 178.345122,70.2995993 181,70" id="Path" fill="#141414" fill-rule="nonzero"></path>
                        <path d="M179.838102,77.4845361 L176.38987,82 C174.399672,80.2011827 173.570753,77.5340593 174.21433,75 L179.653181,76.742268 C179.806717,76.7916966 179.926409,76.9072241 179.975751,77.0536155 C180.025094,77.2000069 179.998235,77.3599028 179.903368,77.4845361" id="Path" fill="#141414" fill-rule="nonzero"></path>
                        <path d="M188.979862,76.8269231 C188.98295,78.8135633 188.078405,80.7026603 186.502868,82 L183.089449,77.5192308 C183.001633,77.4029863 182.976772,77.2538526 183.022446,77.1173145 C183.06812,76.9807764 183.178915,76.8730247 183.321038,76.8269231 L188.748273,75 C188.914304,75.5960652 188.998915,76.2101323 189,76.8269231" id="Path" fill="#141414" fill-rule="nonzero"></path>
                        <path d="M187.92,74.2251025 L182.610002,75.9777377 C182.467082,76.0242628 182.311465,75.9969699 182.190985,75.9042483 C182.070505,75.8115266 181.999576,75.6644706 182,75.5082818 L182,70 C184.576542,70.1556009 186.871344,71.7516131 188,74.1729408" id="Path" fill="#141414" fill-rule="nonzero"></path>
                        <rect id="Rectangle" fill="#FF6400" fill-rule="nonzero" x="124" y="116" width="27" height="3"></rect>
                        <rect id="Rectangle" fill="#06C4AB" fill-rule="nonzero" x="132" y="116" width="20" height="3"></rect>
                        <rect id="Rectangle" fill="#1A1919" fill-rule="nonzero" x="129" y="118" width="8" height="3"></rect>
                        <rect id="Rectangle" fill="#01ACED" fill-rule="nonzero" x="119" y="118" width="3" height="3"></rect>
                        <path d="M155.999945,75.9895142 C156.0042,76.3958548 155.762135,76.7643632 155.387524,76.9218351 C155.012913,77.079307 154.58026,76.9944238 154.292918,76.7070819 C154.005576,76.4197399 153.920693,75.9870868 154.078165,75.6124759 C154.235637,75.2378649 154.604145,74.9958 155.010486,75.0000552 C155.554571,75.0057529 155.994247,75.4454286 155.999945,75.9895142" id="Path" fill="#12D288" fill-rule="nonzero"></path>
                        <rect id="Rectangle" fill="#E82DA1" fill-rule="nonzero" x="214" y="78" width="10" height="3"></rect>
                        <path d="M214.823163,50 L219.465753,50 C220.313094,50 221,49.3284271 221,48.5 C221,47.6715729 220.313094,47 219.465753,47 L213,47 L214.823163,50 Z" id="Path" fill="#E82DA1" fill-rule="nonzero"></path>
                        <path d="M225.694915,50 L225.305085,50 C224.584306,50 224,49.3284271 224,48.5 C224,47.6715729 224.584306,47 225.305085,47 L225.694915,47 C226.415694,47 227,47.6715729 227,48.5 C227,49.3284271 226.415694,50 225.694915,50" id="Path" fill="#FF6400" fill-rule="nonzero"></path>
                        <path d="M230.519737,50 L233.480263,50 C234.319591,50 235,49.3284271 235,48.5 C235,47.6715729 234.319591,47 233.480263,47 L230.519737,47 C229.680409,47 229,47.6715729 229,48.5 C229,49.3284271 229.680409,50 230.519737,50" id="Path" fill="#1C8ACD" fill-rule="nonzero"></path>
                        <path d="M238.999945,94.9895142 C239.0042,95.3958548 238.762135,95.7643632 238.387524,95.9218351 C238.012913,96.079307 237.58026,95.9944238 237.292918,95.7070819 C237.005576,95.4197399 236.920693,94.9870868 237.078165,94.6124759 C237.235637,94.2378649 237.604145,93.9958 238.010486,94.0000552 C238.556949,94.0000552 238.999945,94.4430511 238.999945,94.9895142" id="Path" fill="#12D288" fill-rule="nonzero"></path>
                        <path d="M254.999945,94.9895142 C255.0042,95.3958548 254.762135,95.7643632 254.387524,95.9218351 C254.012913,96.079307 253.58026,95.9944238 253.292918,95.7070819 C253.005576,95.4197399 252.920693,94.9870868 253.078165,94.6124759 C253.235637,94.2378649 253.604145,93.9958 254.010486,94.0000552 C254.556949,94.0000552 254.999945,94.4430511 254.999945,94.9895142" id="Path" fill="#FF6400" fill-rule="nonzero"></path>
                        <path d="M241.612565,50 L242.387435,50 C243.27803,50 244,49.3284271 244,48.5 C244,47.6715729 243.27803,47 242.387435,47 L241.612565,47 C240.72197,47 240,47.6715729 240,48.5 C240,49.3284271 240.72197,50 241.612565,50" id="Path" fill="#1A1919" fill-rule="nonzero"></path>
                        <line x1="208" y1="108.5" x2="215" y2="108.5" id="Path" stroke="#E82DA1" stroke-width="0.77" stroke-linecap="round"></line>
                        <path d="M221,109.000067 C220.999967,109.405683 220.754917,109.771098 220.379672,109.925095 C220.004426,110.079093 219.573327,109.991162 219.28837,109.702504 C219.003412,109.413846 218.921051,108.98165 219.079878,108.608423 C219.238704,108.235196 219.607251,107.994883 220.012834,108.000083 C220.560098,108.0071 221.000045,108.452759 221,109.000067" id="Path" fill="#12D288" fill-rule="nonzero"></path>
                        <line x1="225" y1="108.5" x2="240" y2="108.5" id="Path" stroke="#E82DA1" stroke-width="0.77" stroke-linecap="round"></line>
                        <path d="M233.615175,88.9951444 L239.624822,88.9951444 C240.40154,88.9324045 241,88.2817363 241,87.5 C241,86.7182637 240.40154,86.0675955 239.624822,86.0048556 L233.615175,86.0048556 C233.0541,85.9595343 232.515198,86.2341828 232.220799,86.7154922 C231.9264,87.1968015 231.9264,87.8031985 232.220799,88.2845078 C232.515198,88.7658172 233.0541,89.0404657 233.615175,88.9951444" id="Path" fill="#FF6400" fill-rule="nonzero"></path>
                        <path d="M209.357769,89 L218.592043,89 C219.387275,88.9370579 220,88.2842924 220,87.5000365 C220,86.7157806 219.387275,86.0630151 218.592043,86.000073 L211.155243,86.000073 C210.28105,85.9920372 209.548667,86.6484576 209.476284,87.5048907 C209.476284,88.3301134 208.488661,89 209.357769,89" id="Path" fill="#06C4AB" fill-rule="nonzero"></path>
                        <path d="M224.404533,80.9951444 L235.350346,80.9951444 C235.923399,81.0404657 236.473805,80.7658172 236.774488,80.2845078 C237.075171,79.8031985 237.075171,79.1968015 236.774488,78.7154922 C236.473805,78.2341828 235.923399,77.9595343 235.350346,78.0048556 L224.404533,78.0048556 C223.611235,78.0675955 223,78.7182637 223,79.5 C223,80.2817363 223.611235,80.9324045 224.404533,80.9951444" id="Path" fill="#1A1919" fill-rule="nonzero"></path>
                        <path d="M225.788441,88.9951444 L225.423002,88.9951444 C224.928683,89.0404657 224.453899,88.7658172 224.194528,88.2845078 C223.935157,87.8031985 223.935157,87.1968015 224.194528,86.7154922 C224.453899,86.2341828 224.928683,85.9595343 225.423002,86.0048556 L225.788441,86.0048556 C226.472744,86.0675955 227,86.7182637 227,87.5 C227,88.2817363 226.472744,88.9324045 225.788441,88.9951444" id="Path" fill="#01ACED" fill-rule="nonzero"></path>
                        <path d="M127.123291,85.9951444 L126.876709,85.9951444 C126.224782,86.0404657 125.59862,85.7658172 125.256551,85.2845078 C124.914483,84.8031985 124.914483,84.1968015 125.256551,83.7154922 C125.59862,83.2341828 126.224782,82.9595343 126.876709,83.0048556 L127.123291,83.0048556 C127.775218,82.9595343 128.40138,83.2341828 128.743449,83.7154922 C129.085517,84.1968015 129.085517,84.8031985 128.743449,85.2845078 C128.40138,85.7658172 127.775218,86.0404657 127.123291,85.9951444" id="Path" fill="#E82DA1" fill-rule="nonzero"></path>
                        <path d="M115.763083,85.9951444 L116.236917,85.9951444 C116.849373,86.0404657 117.437624,85.7658172 117.758982,85.2845078 C118.080339,84.8031985 118.080339,84.1968015 117.758982,83.7154922 C117.437624,83.2341828 116.849373,82.9595343 116.236917,83.0048556 L115.763083,83.0048556 C115.150627,82.9595343 114.562376,83.2341828 114.241018,83.7154922 C113.919661,84.1968015 113.919661,84.8031985 114.241018,85.2845078 C114.562376,85.7658172 115.150627,86.0404657 115.763083,85.9951444" id="Path" fill="#FF6400" fill-rule="nonzero"></path>
                        <path d="M109.538145,86 L106.461855,86 C105.636181,85.9370563 105,85.284275 105,84.5 C105,83.715725 105.636181,83.0629437 106.461855,83 L109.538145,83 C110.363819,83.0629437 111,83.715725 111,84.5 C111,85.284275 110.363819,85.9370563 109.538145,86" id="Path" fill="#1C8ACD" fill-rule="nonzero"></path>
                        <path d="M98.4121182,86 L97.5878818,86 C96.6910264,85.9370563 96,85.284275 96,84.5 C96,83.715725 96.6910264,83.0629437 97.5878818,83 L98.4121182,83 C99.3089736,83.0629437 100,83.715725 100,84.5 C100,85.284275 99.3089736,85.9370563 98.4121182,86" id="Path" fill="#1A1919" fill-rule="nonzero"></path>
                        <path d="M125,50 C125,50.5522847 124.552285,51 124,51 C123.447715,51 123,50.5522847 123,50 C123,49.4477153 123.447715,49 124,49 C124.552285,49 125,49.4477153 125,50" id="Path" fill="#12D288" fill-rule="nonzero"></path>
                        <line x1="129" y1="49.5" x2="144" y2="49.5" id="Path" stroke="#E82DA1" stroke-width="0.77" stroke-linecap="round"></line>
                        <path d="M171.332408,118.995144 L125.419806,118.995144 C124.617882,118.932405 124,118.281736 124,117.5 C124,116.718264 124.617882,116.067595 125.419806,116.004856 L171.332408,116.004856 C171.911692,115.959534 172.468083,116.234183 172.772036,116.715492 C173.075988,117.196802 173.075988,117.803198 172.772036,118.284508 C172.468083,118.765817 171.911692,119.040466 171.332408,118.995144" id="Path" fill="#E82DA1" fill-rule="nonzero"></path>
                        <path d="M179.587882,119 L180.412118,119 C181.308974,118.937056 182,118.284275 182,117.5 C182,116.715725 181.308974,116.062944 180.412118,116 L179.587882,116 C178.691026,116.062944 178,116.715725 178,117.5 C178,118.284275 178.691026,118.937056 179.587882,119" id="Path" fill="#E82DA1" fill-rule="nonzero"></path>
                        <path d="M188.708383,119 L188.291617,119 C187.562095,118.937056 187,118.284275 187,117.5 C187,116.715725 187.562095,116.062944 188.291617,116 L188.708383,116 C189.437905,116.062944 190,116.715725 190,117.5 C190,118.284275 189.437905,118.937056 188.708383,119" id="Path" fill="#FF6400" fill-rule="nonzero"></path>
                        <path d="M194.646949,118.995144 L197.597769,118.995144 C198.389767,118.932405 199,118.281736 199,117.5 C199,116.718264 198.389767,116.067595 197.597769,116.004856 L194.646949,116.004856 C194.074836,115.959534 193.525333,116.234183 193.225143,116.715492 C192.924952,117.196802 192.924952,117.803198 193.225143,118.284508 C193.525333,118.765817 194.074836,119.040466 194.646949,118.995144" id="Path" fill="#1C8ACD" fill-rule="nonzero"></path>
                        <path d="M208.587882,119 L209.412118,119 C210.308974,118.937056 211,118.284275 211,117.5 C211,116.715725 210.308974,116.062944 209.412118,116 L208.587882,116 C207.691026,116.062944 207,116.715725 207,117.5 C207,118.284275 207.691026,118.937056 208.587882,119" id="Path" fill="#1A1919" fill-rule="nonzero"></path>
                        <path d="M206.99472,102.102463 C206.942197,102.612378 206.512604,103 206,103 C205.487396,103 205.057803,102.612378 205.00528,102.102463 C204.966158,101.722645 205.146734,101.353699 205.470677,101.151585 C205.79462,100.949472 206.20538,100.949472 206.529323,101.151585 C206.853266,101.353699 207.033842,101.722645 206.99472,102.102463" id="Path" fill="#E82DA1" fill-rule="nonzero"></path>
                        <path d="M225.999944,116.98946 C226.004212,117.394847 225.763298,117.762696 225.389987,117.920797 C225.016677,118.078898 224.58485,117.995961 224.29667,117.710814 C224.00849,117.425667 223.920988,116.994742 224.07513,116.619779 C224.229272,116.244816 224.594551,116.000022 224.99996,116 C225.548151,115.99997 225.994174,116.441298 225.999944,116.98946" id="Path" fill="#0DB8D7" fill-rule="nonzero"></path>
                        <path d="M174,111 C174,111.552285 173.552285,112 173,112 C172.447715,112 172,111.552285 172,111 C172,110.447715 172.447715,110 173,110 C173.552285,110 174,110.447715 174,111" id="Path" fill="#1A1919" fill-rule="nonzero"></path>
                        <path d="M132.573861,85.9951444 L139.426139,85.9951444 C139.972863,86.0404657 140.497981,85.7658172 140.784849,85.2845078 C141.071717,84.8031985 141.071717,84.1968015 140.784849,83.7154922 C140.497981,83.2341828 139.972863,82.9595343 139.426139,83.0048556 L132.573861,83.0048556 C132.027137,82.9595343 131.502019,83.2341828 131.215151,83.7154922 C130.928283,84.1968015 130.928283,84.8031985 131.215151,85.2845078 C131.502019,85.7658172 132.027137,86.0404657 132.573861,85.9951444" id="Path" fill="#0DB8D7" fill-rule="nonzero"></path>
                        <g id="Group" opacity="0.38" transform="translate(213.000000, 77.000000)">
                            <g id="Clipped">
                                <mask id="mask-17" fill="white">
                                    <use xlink:href="#path-16"></use>
                                </mask>
                                <g id="Rectangle"></g>
                                <g mask="url(#mask-17)">
                                    <mask id="mask-19" fill="white">
                                        <use xlink:href="#path-18"></use>
                                    </mask>
                                    <g id="Path"></g>
                                    <rect id="Rectangle" fill="url(#linearGradient-20)" fill-rule="nonzero" mask="url(#mask-19)" x="0.53" y="0.58" width="16.8" height="3.09"></rect>
                                </g>
                            </g>
                        </g>
                        <path d="M244.609419,79.9951444 L246.122872,79.9951444 C246.774944,80.0404657 247.401246,79.7658172 247.743391,79.2845078 C248.085536,78.8031985 248.085536,78.1968015 247.743391,77.7154922 C247.401246,77.2341828 246.774944,76.9595343 246.122872,77.0048556 L244.598208,77.0048556 C243.69552,77.0675955 243,77.7182637 243,78.5 C243,79.2817363 243.69552,79.9324045 244.598208,79.9951444" id="Path" fill="#0DB8D7" fill-rule="nonzero"></path>
                        <path d="M246.999945,36.9895142 C247.0042,37.3958548 246.762135,37.7643632 246.387524,37.9218351 C246.012913,38.079307 245.58026,37.9944238 245.292918,37.7070819 C245.005576,37.4197399 244.920693,36.9870868 245.078165,36.6124759 C245.235637,36.2378649 245.604145,35.9958 246.010486,36.0000552 C246.554571,36.0057529 246.994247,36.4454286 246.999945,36.9895142" id="Path" fill="#E82DA1" fill-rule="nonzero"></path>
                        <path d="M133.999944,76.9894598 C134.004212,77.394847 133.763298,77.7626963 133.389987,77.9207972 C133.016677,78.0788981 132.58485,77.9959613 132.29667,77.7108141 C132.00849,77.425667 131.920988,76.994742 132.07513,76.6197789 C132.229272,76.2448159 132.594551,76.0000225 132.99996,76 C133.548151,75.9999696 133.994174,76.4412979 133.999944,76.9894598" id="Path" fill="#06C4AB" fill-rule="nonzero"></path>
                        <path d="M142,77 C142,77.5522847 141.552285,78 141,78 C140.447715,78 140,77.5522847 140,77 C140,76.4477153 140.447715,76 141,76 C141.552285,76 142,76.4477153 142,77" id="Path" fill="#FF6400" fill-rule="nonzero"></path>
                        <path d="M111.999945,76.9895142 C112.0042,77.3958548 111.762135,77.7643632 111.387524,77.9218351 C111.012913,78.079307 110.58026,77.9944238 110.292918,77.7070819 C110.005576,77.4197399 109.920693,76.9870868 110.078165,76.6124759 C110.235637,76.2378649 110.604145,75.9958 111.010486,76.0000552 C111.556949,76.0000552 111.999945,76.4430511 111.999945,76.9895142" id="Path" fill="#FF6400" fill-rule="nonzero"></path>
                        <path d="M126.999944,76.9894598 C127.004212,77.394847 126.763298,77.7626963 126.389987,77.9207972 C126.016677,78.0788981 125.58485,77.9959613 125.29667,77.7108141 C125.00849,77.425667 124.920988,76.994742 125.07513,76.6197789 C125.229272,76.2448159 125.594551,76.0000225 125.99996,76 C126.548151,75.9999696 126.994174,76.4412979 126.999944,76.9894598" id="Path" fill="#12D288" fill-rule="nonzero"></path>
                        <path d="M120,57.0013855 C119.999243,57.5466465 119.561817,57.9907927 119.016633,57.999859 C118.471449,58.0089254 118.019496,57.5795694 118.000611,57.034635 C117.981726,56.4897005 118.402869,56.0300861 118.947373,56.0013876 C119.221584,55.9869351 119.489673,56.0858763 119.688751,56.2750015 C119.88783,56.4641267 120.00038,56.7267935 120,57.0013855" id="Path" fill="#0DB8D7" fill-rule="nonzero"></path>
                        <line x1="205" y1="35.5" x2="213" y2="35.5" id="Path" stroke="#E82DA1" stroke-width="0.77" stroke-linecap="round"></line>
                        <path d="M219,36 C219,36.5522847 218.552285,37 218,37 C217.447715,37 217,36.5522847 217,36 C217,35.4477153 217.447715,35 218,35 C218.552285,35 219,35.4477153 219,36" id="Path" fill="#12D288" fill-rule="nonzero"></path>
                        <line x1="224" y1="35.5" x2="231" y2="35.5" id="Path" stroke="#E82DA1" stroke-width="0.77" stroke-linecap="round"></line>
                        <path d="M214,30 C214,30.5522847 214.447715,31 215,31 C215.552285,31 216,30.5522847 216,30 C216,29.4477153 215.552285,29 215,29 C214.447715,29 214,29.4477153 214,30" id="Path" fill="#E82DA1" fill-rule="nonzero"></path>
                        <path d="M113.002041,50.0638236 C113.036748,50.6064342 113.498646,51.0218838 114.041891,50.9991066 C114.585135,50.9763293 115.010634,50.5236729 114.999798,49.9800615 C114.988961,49.43645 114.545759,49.0011109 114.002038,49 C113.725384,48.9994379 113.460858,49.1135099 113.271374,49.3150875 C113.08189,49.5166651 112.984382,49.787734 113.002041,50.0638236" id="Path" fill="#FF6400" fill-rule="nonzero"></path>
                        <path d="M226,30 C226,30.5522847 226.447715,31 227,31 C227.552285,31 228,30.5522847 228,30 C228,29.4477153 227.552285,29 227,29 C226.447715,29 226,29.4477153 226,30" id="Path" fill="#1C8ACD" fill-rule="nonzero"></path>
                        <path d="M193.4113,16 L199.5887,16 C200.38582,15.9370563 201,15.284275 201,14.5 C201,13.715725 200.38582,13.0629437 199.5887,13 L193.4113,13 C192.61418,13.0629437 192,13.715725 192,14.5 C192,15.284275 192.61418,15.9370563 193.4113,16" id="Path" fill="#FF6400" fill-rule="nonzero"></path>
                        <path d="M161.448046,15.9951444 L178.29924,15.9951444 C178.890046,16.0404657 179.457503,15.7658172 179.767501,15.2845078 C180.0775,14.8031985 180.0775,14.1968015 179.767501,13.7154922 C179.457503,13.2341828 178.890046,12.9595343 178.29924,13.0048556 L161.448046,13.0048556 C160.630172,13.0675955 160,13.7182637 160,14.5 C160,15.2817363 160.630172,15.9324045 161.448046,15.9951444" id="Path" fill="#06C4AB" fill-rule="nonzero"></path>
                        <path d="M186.700535,16 L186.299465,16 C185.565511,15.9370563 185,15.284275 185,14.5 C185,13.715725 185.565511,13.0629437 186.299465,13 L186.700535,13 C187.434489,13.0629437 188,13.715725 188,14.5 C188,15.284275 187.434489,15.9370563 186.700535,16" id="Path" fill="#01ACED" fill-rule="nonzero"></path>
                        <line x1="145" y1="14.5" x2="155" y2="14.5" id="Path" stroke="#E82DA1" stroke-width="0.77" stroke-linecap="round"></line>
                        <path d="M133.393762,68 L141,68 L141,65 L133.393762,65 C132.606548,65.0629437 132,65.715725 132,66.5 C132,67.284275 132.606548,67.9370563 133.393762,68" id="Path" fill="#FF6400" fill-rule="nonzero"></path>
                        <path d="M102.407583,68 L103.592417,68 C104.387437,67.9370563 105,67.284275 105,66.5 C105,65.715725 104.387437,65.0629437 103.592417,65 L102.407583,65 C101.612563,65.0629437 101,65.715725 101,66.5 C101,67.284275 101.612563,67.9370563 102.407583,68" id="Path" fill="#06C4AB" fill-rule="nonzero"></path>
                        <path d="M126.632386,68 L116.367614,68 C115.595169,67.9370563 115,67.284275 115,66.5 C115,65.715725 115.595169,65.0629437 116.367614,65 L126.632386,65 C127.404831,65.0629437 128,65.715725 128,66.5 C128,67.284275 127.404831,67.9370563 126.632386,68" id="Path" fill="#01ACED" fill-rule="nonzero"></path>
                        <path d="M225.537438,63 L228.462562,63 C229.311666,63 230,62.3284271 230,61.5 C230,60.6715729 229.311666,60 228.462562,60 L225.537438,60 C224.688334,60 224,60.6715729 224,61.5 C224,62.3284271 224.688334,63 225.537438,63" id="Path" fill="#E82DA1" fill-rule="nonzero"></path>
                        <line x1="218" y1="69.5" x2="224" y2="69.5" id="Path" stroke="#E82DA1" stroke-width="0.77" stroke-linecap="round"></line>
                        <path d="M246.999916,69 C247.003367,69.2640305 246.90022,69.5184297 246.713526,69.7063439 C246.526832,69.8942581 246.272155,70.0000223 246.006409,70 C245.450585,70 245,69.5522847 245,69 C245,68.4477153 245.450585,68 246.006409,68 C246.272155,67.9999777 246.526832,68.1057419 246.713526,68.2936561 C246.90022,68.4815703 247.003367,68.7359695 246.999916,69" id="Path" fill="#12D288" fill-rule="nonzero"></path>
                        <line x1="251" y1="69.5" x2="258" y2="69.5" id="Path" stroke="#E82DA1" stroke-width="0.77" stroke-linecap="round"></line>
                        <path d="M131.612565,28 L132.387434,28 C132.963549,28 133.4959,27.7141017 133.783957,27.25 C134.072014,26.7858984 134.072014,26.2141016 133.783957,25.75 C133.4959,25.2858983 132.963549,25 132.387434,25 L131.612565,25 C130.72197,25 130,25.6715729 130,26.5 C130,27.3284271 130.72197,28 131.612565,28" id="Path" fill="#E82DA1" fill-rule="nonzero"></path>
                        <path d="M140.694915,28 L140.305085,28 C139.838823,28 139.407979,27.7141017 139.174848,27.25 C138.941717,26.7858984 138.941717,26.2141016 139.174848,25.75 C139.407979,25.2858983 139.838823,25 140.305085,25 L140.694915,25 C141.415694,25 142,25.6715729 142,26.5 C142,27.3284271 141.415694,28 140.694915,28" id="Path" fill="#FF6400" fill-rule="nonzero"></path>
                        <path d="M146.519737,28 L149.480263,28 C150.023213,28 150.524919,27.7141017 150.796394,27.25 C151.067869,26.7858984 151.067869,26.2141016 150.796394,25.75 C150.524919,25.2858983 150.023213,25 149.480263,25 L146.519737,25 C145.680409,25 145,25.6715729 145,26.5 C145,27.3284271 145.680409,28 146.519737,28" id="Path" fill="#1C8ACD" fill-rule="nonzero"></path>
                        <path d="M158.446009,28 L161.553991,28 C162.0706,28 162.547967,27.7141017 162.806271,27.25 C163.064576,26.7858984 163.064576,26.2141016 162.806271,25.75 C162.547967,25.2858983 162.0706,25 161.553991,25 L158.446009,25 C157.6474,25 157,25.6715729 157,26.5 C157,27.3284271 157.6474,28 158.446009,28" id="Path" fill="#1A1919" fill-rule="nonzero"></path>
                        <line x1="119" y1="25.5" x2="126" y2="25.5" id="Path" stroke="#E82DA1" stroke-width="0.77" stroke-linecap="round"></line>
                        <path d="M183.466577,110 L200.533423,110 C201.361764,109.937056 202,109.284275 202,108.5 C202,107.715725 201.361764,107.062944 200.533423,107 L183.466577,107 C182.638236,107.062944 182,107.715725 182,108.5 C182,109.284275 182.638236,109.937056 183.466577,110" id="Path" fill="#06C4AB" fill-rule="nonzero"></path>
                        <path d="M201,24 C201,24.5522847 201.447715,25 202,25 C202.552285,25 203,24.5522847 203,24 C203,23.4477153 202.552285,23 202,23 C201.447715,23 201,23.4477153 201,24" id="Path" fill="#1C8ACD" fill-rule="nonzero"></path>
                        <path d="M107.998612,39.0526267 C107.969914,39.5971307 107.510299,40.0182743 106.965365,39.9993889 C106.420431,39.9805035 105.991075,39.5285514 106.000141,38.9833671 C106.009207,38.4381827 106.453353,38.0007567 106.998615,38 C107.273206,37.9996204 107.535873,38.1121703 107.724998,38.3112488 C107.914124,38.5103273 108.013065,38.7784161 107.998612,39.0526267" id="Path" fill="#0DB8D7" fill-rule="nonzero"></path>
                        <path d="M135.649654,40.9951444 L146.595467,40.9951444 C147.388765,40.9324045 148,40.2817363 148,39.5 C148,38.7182637 147.388765,38.0675955 146.595467,38.0048556 L135.649654,38.0048556 C135.076601,37.9595343 134.526195,38.2341828 134.225512,38.7154922 C133.924829,39.1968015 133.924829,39.8031985 134.225512,40.2845078 C134.526195,40.7658172 135.076601,41.0404657 135.649654,40.9951444" id="Path" fill="#1A1919" fill-rule="nonzero"></path>
                        <path d="M114.393212,41 L136.606788,41 C137.393692,40.9370563 138,40.284275 138,39.5 C138,38.715725 137.393692,38.0629437 136.606788,38 L114.393212,38 C113.606308,38.0629437 113,38.715725 113,39.5 C113,40.284275 113.606308,40.9370563 114.393212,41" id="Path" fill="#FF6400" fill-rule="nonzero"></path>
                        <path d="M136.294331,40.9951444 L133.452226,40.9951444 C132.631991,40.9324045 132,40.2817363 132,39.5 C132,38.7182637 132.631991,38.0675955 133.452226,38.0048556 L136.294331,38.0048556 C136.886842,37.9595343 137.455937,38.2341828 137.76683,38.7154922 C138.077723,39.1968015 138.077723,39.8031985 137.76683,40.2845078 C137.455937,40.7658172 136.886842,41.0404657 136.294331,40.9951444" id="Path" fill="#E82DA1" fill-rule="nonzero"></path>
                        <polyline id="Path" fill="#1B3445" fill-rule="nonzero" points="150 96.0815047 153.27439 92 159 96.9278997 155.643293 101"></polyline>
                        <path d="M155.692746,105.968803 L157.475872,103.984076 C157.855073,103.560691 158.041658,103.002774 157.992168,102.440274 C157.942679,101.877773 157.661435,101.359796 157.213944,101.006987 L149.154616,94.4673131 C148.298805,93.7743718 147.042331,93.8615337 146.293555,94.6657858 L137.226812,104.351251 L120,124.327522 L129.52008,137 L144.359317,125.012253 L155.692746,105.968803 Z" id="Path" fill="#FF6400" fill-rule="nonzero"></path>
                        <g id="Clipped" transform="translate(120.000000, 94.000000)">
                            <mask id="mask-22" fill="white">
                                <use xlink:href="#path-21"></use>
                            </mask>
                            <g id="Path"></g>
                            <g id="Group" opacity="0.62" mask="url(#mask-22)">
                                <g transform="translate(11.795918, 2.189091)" id="Clipped">
                                    <g>
                                        <mask id="mask-24" fill="white">
                                            <use xlink:href="#path-23"></use>
                                        </mask>
                                        <g id="Rectangle"></g>
                                        <g mask="url(#mask-24)">
                                            <mask id="mask-26" fill="white">
                                                <use xlink:href="#path-25"></use>
                                            </mask>
                                            <g id="Path"></g>
                                            <rect id="Rectangle" fill="url(#linearGradient-27)" fill-rule="nonzero" mask="url(#mask-26)" x="-1.99591837" y="0.465442424" width="33.77" height="41.8105939"></rect>
                                        </g>
                                    </g>
                                </g>
                            </g>
                        </g>
                        <path d="M162.532764,105.008369 C155.687417,100.307785 146.390898,116.408522 144.597357,119.703879 C144.411125,120.056156 144.157247,120.368812 143.850049,120.624203 C140.947339,123.38752 138.193418,126.300982 135.599761,129.352445 L135.679474,128.669624 C136.107931,125.354475 137.672297,111.282411 137.801831,109.867288 C137.931364,108.452165 138.300037,103.642726 138.300037,103.642726 L145.155348,96.2702308 C137.901472,86.9482307 133.58701,87.0273985 130.209175,89.214407 C129.351592,89.9418264 128.612187,90.7963404 128.01707,91.7477743 C128.01707,91.7477743 119.916244,92.6186193 117.156185,95.2608423 C116.42843,96.0348411 115.805402,96.8997831 115.302859,97.8337934 C115.302859,97.8337934 110.121519,97.8337934 104.422046,102.158331 C103.940243,102.523189 103.505229,102.945258 103.126711,103.415118 C101.913873,103.480072 100.71792,103.726969 99.5794859,104.14742 C97.2516732,105.084683 95.3054689,106.766822 94.0494021,108.927171 L87.3236245,120.248157 C85.4135557,123.465199 84.3416114,127.10461 84.2048565,130.83684 L81.7536842,162.5831 C81.7358605,163.075563 81.6207523,163.559746 81.4149043,164.008119 L80,167.135244 C93.1836543,167.169246 105.953157,171.712321 116.159773,180 L118.321986,175.052017 C118.75426,174.054253 119.475725,173.206818 120.394522,172.617609 C123.593003,170.569144 129.451902,166.234711 131.972824,162.929458 C134.962058,159.060136 150.745216,134.93377 154.402046,127.897738 C157.790925,120.857512 160.658234,113.581165 162.981149,106.126613 C163.055944,105.749803 162.904461,105.364042 162.592549,105.137016" id="Path" fill="#F8BD84" fill-rule="nonzero"></path>
                        <g id="Clipped" transform="translate(149.000000, 92.000000)">
                            <mask id="mask-29" fill="white">
                                <use xlink:href="#path-28"></use>
                            </mask>
                            <g id="Path"></g>
                            <g id="Group" opacity="0.61" style="mix-blend-mode: multiply;" mask="url(#mask-29)">
                                <g transform="translate(1.769231, -3.230769)" id="Clipped">
                                    <g>
                                        <mask id="mask-31" fill="white">
                                            <use xlink:href="#path-30"></use>
                                        </mask>
                                        <g id="Rectangle"></g>
                                        <path d="M0.0507692308,3.48076923 C0.0507692308,3.48076923 4.98076923,11.6507692 9.05076923,13.3607692 L12.1707692,7.85076923 L2.64076923,0.0707692308 L0.0507692308,3.48076923 Z" id="Path" fill="#1B3445" fill-rule="nonzero" mask="url(#mask-31)"></path>
                                    </g>
                                </g>
                            </g>
                        </g>
                        <path d="M95.0421435,117.922169 C94.4751716,119.066202 99.7601602,107.287637 103,103" id="Path" stroke="#000000" stroke-width="0.26" stroke-linecap="round" stroke-linejoin="round"></path>
                        <path d="M106,118 C106,118 111.613306,104.138614 115,98" id="Path" stroke="#000000" stroke-width="0.26" stroke-linecap="round"></path>
                        <path d="M116,119 C116,119 123.5,98.486631 128,91" id="Path" stroke="#000000" stroke-width="0.26" stroke-linecap="round"></path>
                        <path d="M135.785,130 C135.68627,130.680041 135.495236,131.350334 135.215,132" id="Path" stroke="#000000" stroke-width="0.26" stroke-linecap="round"></path>
                        <path d="M138.97,98 C138.97,98 138.52,100.840367 138.03,104" id="Path" stroke="#000000" stroke-width="0.26" stroke-linecap="round"></path>
                        <path d="M180.065864,103 C179.270967,103 178.47607,103 177.671237,102.930446 C156.403924,101.658076 140.093542,83.5537712 141.039118,62.2692872 C141.984694,40.9848033 159.836241,24.3981823 181.132599,25.0167528 C202.428958,25.6353232 219.28769,43.230133 218.996278,64.5336178 C218.704867,85.8371025 201.371173,102.964187 180.065864,103 M179.99631,27.076938 C159.883553,27.0861 143.473703,43.1832359 143.077484,63.2922222 C142.681264,83.4012085 158.44428,100.132274 178.541065,100.933719 C198.63785,101.735164 215.683118,86.3124694 216.889453,66.2357899 L217.883074,66.2954075 L216.889453,66.2357899 C218.094782,45.8811684 202.593897,28.3931046 182.241893,27.1464919 C181.486741,27.0968106 180.741526,27.076938 179.99631,27.076938" id="Shape" fill="#FF6400" fill-rule="nonzero"></path>
                        <g id="Clipped" transform="translate(143.000000, 27.000000)">
                            <mask id="mask-33" fill="white">
                                <use xlink:href="#path-32"></use>
                            </mask>
                            <g id="Path"></g>
                            <g id="Group" mask="url(#mask-33)">
                                <g transform="translate(-42.000000, -25.000000)">
                                    <path d="M100.92,53.18 L100.92,53.07 C100.93209,52.8924617 101.057322,52.7429912 101.23,52.7 L102.04,52.49 C102.516895,52.3760819 102.872175,51.976891 102.93,51.49 C103.012395,50.9330308 103.012395,50.3669692 102.93,49.81 C102.877401,49.3028559 102.62318,48.8381325 102.224493,48.5203111 C101.825805,48.2024898 101.31611,48.0582426 100.81,48.12 C99.81,48.12 97.28,49.66 97.28,52.78 L97.28,53.3 L100.92,53.18 Z" id="Path" fill="#0FA6CE" fill-rule="nonzero"></path>
                                    <path d="M97.31,53.23 C97.31,54.01 97.31,54.78 97.31,55.23 C97.3073172,55.3828985 97.3661841,55.5304626 97.473372,55.639531 C97.5805599,55.7485994 97.7270779,55.8100235 97.88,55.81 L100.25,55.81 C100.557304,55.8158154 100.813878,55.5769356 100.83,55.27 L100.95,53.12 L97.31,53.23 Z" id="Path" fill="#141414" fill-rule="nonzero"></path>
                                    <path d="M61,60.11 C61.0444983,60.3276715 61.1775123,60.5170348 61.3671825,60.6327336 C61.5568527,60.7484324 61.7860945,60.7800452 62,60.72 C62.4276135,60.606021 62.6845964,60.1699433 62.5771393,59.7406444 C62.4696822,59.3113455 62.0375665,59.0477549 61.6066818,59.1486653 C61.175797,59.2495756 60.9056598,59.6776292 61,60.11" id="Path" fill="#EFF1F2" fill-rule="nonzero"></path>
                                    <g id="Group" opacity="0.71" stroke-width="1" fill="none" fill-rule="evenodd">
                                        <g id="Clipped">
                                            <mask id="mask-35" fill="white">
                                                <use xlink:href="#path-34"></use>
                                            </mask>
                                            <g id="Rectangle"></g>
                                            <g mask="url(#mask-35)">
                                                <mask id="mask-37" fill="white">
                                                    <use xlink:href="#path-36"></use>
                                                </mask>
                                                <g id="Path"></g>
                                                <g mask="url(#mask-37)">
                                                    <g transform="translate(-47.000000, -54.000000)">
                                                        <mask id="mask-39" fill="white">
                                                            <use xlink:href="#path-38"></use>
                                                        </mask>
                                                        <g id="Rectangle" stroke="none" fill="none" transform="translate(101.063337, 101.445382) rotate(-45.000000) translate(-101.063337, -101.445382) "></g>
                                                        <polygon id="Rectangle" stroke="none" fill="url(#linearGradient-15)" fill-rule="nonzero" mask="url(#mask-39)" transform="translate(101.063337, 101.445382) rotate(-45.000000) translate(-101.063337, -101.445382) " points="29.7933368 30.1753818 172.333337 30.1753818 172.333337 172.715382 29.7933368 172.715382"></polygon>
                                                    </g>
                                                </g>
                                            </g>
                                        </g>
                                    </g>
                                </g>
                            </g>
                        </g>
                        <g id="Clipped" transform="translate(50.000000, 167.000000)">
                            <mask id="mask-41" fill="white">
                                <use xlink:href="#path-40"></use>
                            </mask>
                            <g id="Path"></g>
                            <g mask="url(#mask-41)">
                                <g transform="translate(-33.000000, -16.000000)">
                                    <mask id="mask-43" fill="white">
                                        <use xlink:href="#path-42"></use>
                                    </mask>
                                    <g id="Path" stroke="none" fill="none"></g>
                                    <polygon id="Path" stroke="none" fill="url(#linearGradient-44)" fill-rule="nonzero" mask="url(#mask-43)" points="133.29 26.21 85.64 77.81 0.61 51.95 48.26 0.35"></polygon>
                                </g>
                            </g>
                        </g>
                        <g id="Clipped" transform="translate(80.000000, 88.000000)">
                            <mask id="mask-46" fill="white">
                                <use xlink:href="#path-45"></use>
                            </mask>
                            <g id="Path"></g>
                            <g id="Group" mask="url(#mask-46)">
                                <g transform="translate(27.000000, 10.765597)">
                                    <g opacity="0.27" style="mix-blend-mode: multiply;" transform="translate(0.000000, 52.092409)">
                                        <g id="Clipped">
                                            <mask id="mask-48" fill="white">
                                                <use xlink:href="#path-47"></use>
                                            </mask>
                                            <g id="Rectangle"></g>
                                            <path d="M0,32.9256221 C0,32.9256221 6.58,24.0955689 11.58,21.2619699 C16.58,18.4283709 27.24,12.092683 34.16,0.768264515 L34.16,17.2610079 L20.09,31.2294537 L9,34.5918581 L0,32.9256221 Z" id="Path" fill="#F8BD84" fill-rule="nonzero" mask="url(#mask-48)"></path>
                                        </g>
                                    </g>
                                    <g opacity="0.43" style="mix-blend-mode: multiply;" transform="translate(31.792453, 0.000000)">
                                        <g id="Clipped">
                                            <mask id="mask-50" fill="white">
                                                <use xlink:href="#path-49"></use>
                                            </mask>
                                            <g id="Rectangle"></g>
                                            <path d="M1.03754717,0.109835918 C1.83245283,0.880208363 2.71907449,1.55037755 3.67754717,2.10532816 L0.73754717,5.58746213 L0.20754717,5.19834115 L1.03754717,0.109835918 Z" id="Path" fill="#F8BD84" fill-rule="nonzero" mask="url(#mask-50)"></path>
                                        </g>
                                    </g>
                                </g>
                            </g>
                        </g>
                        <rect id="Rectangle" x="0" y="0" width="319" height="213"></rect>
                    </g>
                </g>
            </g>
        </g>
    </g>
</svg>