<?xml version="1.0" encoding="UTF-8"?>
<svg width="320px" height="150px" viewBox="0 0 320 150" version="1.1" xmlns="http://www.w3.org/2000/svg" xmlns:xlink="http://www.w3.org/1999/xlink">
    <defs>
        <rect id="path-1" x="0.25" y="0.137142857" width="138.59" height="5.21678571"></rect>
        <path d="M0.86,3.80142857 L4.78,2.83714286 C11.7679643,1.06322242 18.9639464,0.16546519 26.19,0.166071122 L137.92,0.166071122 C138.385681,0.180071004 138.766996,0.527550935 138.807797,0.975092533 C138.848599,1.42263413 138.536005,1.82893834 138.08,1.92107143 L138.08,1.92107143 C124.958164,4.22518513 111.647618,5.38380371 98.31,5.38285772 L1.07,5.38285772 C0.661792109,5.37826208 0.319260229,5.08481638 0.266459356,4.69446707 C0.213658483,4.30411776 0.466671936,3.93576651 0.86,3.83035714" id="path-3"></path>
        <linearGradient x1="93.2110592%" y1="55.1349353%" x2="-57.1349372%" y2="55.1349353%" id="linearGradient-5">
            <stop stop-color="#FFFFFF" offset="0%"></stop>
            <stop stop-color="#8E8E8E" offset="48%"></stop>
            <stop stop-color="#141414" offset="100%"></stop>
        </linearGradient>
        <path d="M145.62,4.82927835 C145.62,4.82927835 96.46,30.8952577 84.8,37.2197938 C64.34,38.7150515 31.36,44.6758763 31.36,44.6758763 C25.4688235,46.9252283 20.0432013,50.2621258 15.36,54.5162887 C14.8416147,54.9856536 14.6754581,55.7358091 14.9463914,56.3836285 C15.2173248,57.0314478 15.8655504,57.4339507 16.56,57.385567 L17.34,57.385567 L0.76,78.6020619 L11.76,95.6459794 C12.7020571,97.0766805 14.2993735,97.9254394 16,97.8995705 L114.49,96.8886598 L163.28,96.3936082 L163.28,0.141443299 C150.89,2.46515464 145.58,4.82927835 145.58,4.82927835" id="path-6"></path>
        <linearGradient x1="93.1505198%" y1="45.6082868%" x2="-37.7031433%" y2="45.6082868%" id="linearGradient-8">
            <stop stop-color="#FFFFFF" offset="0%"></stop>
            <stop stop-color="#FFFFFF" offset="100%"></stop>
        </linearGradient>
        <path d="M19.9,4.51 L0.67,6.02309524 C0.67,6.02309524 10.58,7.97547619 19.84,19.0161905 C19.84,18.4109524 19.84,17.8154762 19.84,17.2297619 C20.19,25.9569048 21.53,34.7035714 24.84,40.9219048 L75.35,40.9219048 L75.35,0.556428571 C52.24,2.08904762 33.06,3.485 19.93,4.51" id="path-9"></path>
        <linearGradient x1="-4.79038307%" y1="45.9228537%" x2="95.9125368%" y2="45.9228537%" id="linearGradient-11">
            <stop stop-color="#FFFFFF" offset="0%"></stop>
            <stop stop-color="#FFFFFF" offset="100%"></stop>
        </linearGradient>
        <rect id="path-12" x="0.49" y="0.36" width="43.49" height="2.265"></rect>
        <path d="M0.66,1.95 L1.75,1.515 C3.70873065,0.74584557 5.72526396,0.357662908 7.75,0.35998951 L43.75,0.35998951 C43.8716461,0.396310961 43.9592555,0.556453086 43.9592555,0.7425 C43.9592555,0.928546914 43.8716461,1.08868904 43.75,1.125 C40.0911248,2.12641221 36.3792826,2.62846481 32.66,2.62501781 L0.72,2.62501781 C0.607335473,2.62003397 0.513669888,2.49333198 0.498773297,2.32574534 C0.483876707,2.1581587 0.55213878,1.99907118 0.66,1.95" id="path-14"></path>
        <linearGradient x1="211.319212%" y1="218.509934%" x2="-148.554156%" y2="218.509934%" id="linearGradient-16">
            <stop stop-color="#FFFFFF" offset="0%"></stop>
            <stop stop-color="#8E8E8E" offset="48%"></stop>
            <stop stop-color="#141414" offset="100%"></stop>
        </linearGradient>
        <rect id="path-17" x="0.13" y="0.31" width="22.14" height="39.25"></rect>
        <rect id="path-19" x="0.05" y="0.13" width="5.46" height="5.78"></rect>
        <rect id="path-21" x="0.56" y="0.414642857" width="5.26857143" height="5.48678571"></rect>
        <path d="M5,11.71 C3.34,15.71 -1.24,26.85 0.89,29.27 C2.14,30.64 13,11 13,11 L12.72,0.35 C9.04,2.35 6.72,7.72 5.04,11.73" id="path-23"></path>
        <linearGradient x1="64.672043%" y1="44.2277607%" x2="-133.937276%" y2="44.2277607%" id="linearGradient-25">
            <stop stop-color="#D2D2D2" offset="0%"></stop>
            <stop stop-color="#141414" offset="100%"></stop>
            <stop stop-color="#141414" offset="100%"></stop>
        </linearGradient>
        <rect id="path-26" x="0.716666667" y="0.42" width="3.93333333" height="5.49"></rect>
        <rect id="path-28" x="0.216666667" y="0.168229167" width="5.68333333" height="18.7723958"></rect>
        <rect id="path-30" x="0.14" y="0.1428" width="17.12" height="39.7902"></rect>
        <rect id="path-32" x="0.38" y="0.39" width="4.58" height="7.19"></rect>
        <rect id="path-34" x="0.3375" y="0.552" width="5.6025" height="4.248"></rect>
        <rect id="path-36" x="0.114285714" y="0.0225" width="19.7809524" height="2.655"></rect>
        <path d="M0.238095238,1.89 L1.05714286,1.3725 C2.5123381,0.474422101 4.01025841,0.0207250855 5.51428571,0.0224948125 L19.7047619,0.0224948125 C19.7914301,0.069163835 19.8529134,0.251246335 19.8529134,0.46125 C19.8529134,0.671253665 19.7914301,0.853336165 19.7047619,0.9 C16.9746971,2.08663871 14.2044563,2.68161088 11.4285714,2.67752116 L0.285714286,2.67752116 C0.208693658,2.63369335 0.154410237,2.47091013 0.154410237,2.28375 C0.154410237,2.09658987 0.208693658,1.93380665 0.285714286,1.89" id="path-38"></path>
        <linearGradient x1="188.591778%" y1="14.3728814%" x2="-185.851816%" y2="14.3728814%" id="linearGradient-40">
            <stop stop-color="#FFFFFF" offset="0%"></stop>
            <stop stop-color="#8E8E8E" offset="48%"></stop>
            <stop stop-color="#141414" offset="100%"></stop>
        </linearGradient>
        <rect id="path-41" x="0.46" y="0.341666667" width="3.84" height="5.50833333"></rect>
        <rect id="path-43" x="0.465833333" y="0.1275" width="9.425" height="5.74714286"></rect>
        <rect id="path-45" x="0.37" y="0.78" width="8.18" height="6.51"></rect>
        <rect id="path-47" x="0.12" y="0.57" width="1.95" height="1.215"></rect>
        <rect id="path-49" x="0.69" y="0.58" width="22.07" height="15.01"></rect>
        <rect id="path-51" x="0.48" y="0.0104545455" width="13.45" height="17.8354545"></rect>
        <path d="M0.426132479,4.5175 C0.319921742,4.58288321 0.242857706,4.69479838 0.213454519,4.82635858 C0.184051333,4.95791878 0.204966475,5.09723353 0.271175214,5.21083333 L2.69238248,9.54416667 C2.85419905,9.83752828 3.1820865,9.95672884 3.4671688,9.82583333 C4.98768697,9.12166667 9.74293803,7.13916667 13.5006517,7.65916667 C17.9750427,8.33083333 33.2480182,13.0758333 36.8604594,5.4925 C36.8951645,5.41585997 36.896703,5.32569296 36.8646376,5.24762739 C36.8325722,5.16956183 36.7704092,5.11213396 36.6958173,5.09166667 L36.5602297,5.09166667 C36.4542317,5.06502672 36.3449107,5.11743465 36.2890545,5.22166667 C35.9307158,5.85 34.2939797,7.90833333 28.4443429,6.305 C21.5971688,4.43083333 19.3696581,2.03666667 13.1713675,0.964166667 C12.5529797,0.856249258 11.9280638,0.801921015 11.3021955,0.801666667 C6.52757479,0.801666667 1.80137821,3.62916667 0.426132479,4.5175" id="path-53"></path>
        <rect id="path-55" x="0.533333333" y="0.69" width="3.96666667" height="9.13"></rect>
        <rect id="path-57" x="0.61" y="0.276190476" width="10.29" height="19.1809524"></rect>
    </defs>
    <g id="Trade" stroke="none" stroke-width="1" fill="none" fill-rule="evenodd">
        <g id="trade-annotated" transform="translate(-735.000000, -1799.000000)">
            <g id="Stacked-Group" transform="translate(140.000000, 1218.000000)">
                <g id="Group-12" transform="translate(0.000000, 547.000000)">
                    <g id="Group-13">
                        <g id="Resized-Illutration_TrueCar_06_Get_A_Cash_Offer_In_Minutes_C_Final" transform="translate(595.000000, 0.000000)">
                            <g id="Group" opacity="0.5" transform="translate(181.000000, 175.000000)">
                                <g id="Clipped">
                                    <mask id="mask-2" fill="white">
                                        <use xlink:href="#path-1"></use>
                                    </mask>
                                    <g id="Rectangle"></g>
                                    <g mask="url(#mask-2)">
                                        <mask id="mask-4" fill="white">
                                            <use xlink:href="#path-3"></use>
                                        </mask>
                                        <g id="Path"></g>
                                        <rect id="Rectangle" fill="url(#linearGradient-5)" fill-rule="nonzero" mask="url(#mask-4)" x="-0.07" y="0.137142857" width="139.25" height="5.21678571"></rect>
                                    </g>
                                </g>
                            </g>
                            <path d="M267,148.5 C267,164.240115 254.240115,177 238.5,177 C222.759885,177 210,164.240115 210,148.5 C210,132.759885 222.759885,120 238.5,120 C254.240115,120 267,132.759885 267,148.5" id="Path" fill="#141414" fill-rule="nonzero"></path>
                            <path d="M195,148.505519 L194.940697,151.872701 C194.940697,154.70443 192.568813,157 189.642945,157 L174.243884,157 C170.435679,156.998883 166.959199,154.902946 165.279219,151.595291 L155,131 L195,148.505519 Z" id="Path" fill="#141414" fill-rule="nonzero"></path>
                            <g id="Clipped" transform="translate(152.000000, 52.000000)">
                                <mask id="mask-7" fill="white">
                                    <use xlink:href="#path-6"></use>
                                </mask>
                                <g id="Path"></g>
                                <rect id="Rectangle" fill="url(#linearGradient-8)" fill-rule="nonzero" mask="url(#mask-7)" x="0.76" y="0.141443299" width="162.57" height="97.777732"></rect>
                            </g>
                            <g id="Clipped" transform="translate(239.000000, 102.000000)">
                                <mask id="mask-10" fill="white">
                                    <use xlink:href="#path-9"></use>
                                </mask>
                                <g id="Path"></g>
                                <rect id="Rectangle" fill="url(#linearGradient-11)" fill-rule="nonzero" mask="url(#mask-10)" x="0.67" y="0.556428571" width="74.66" height="40.3654762"></rect>
                            </g>
                            <path d="M226.284593,114.01947 C194.720598,114.93945 190.390049,144.212424 190,147.628093 L190,148 L195.570705,147.90213 L196.040765,147.628093 L269,147.628093 C268.479934,144.398377 257.708571,113.109277 226.254589,114.01947" id="Path" fill="#141414" fill-rule="nonzero"></path>
                            <path d="M316,149.960239 L272.302042,138.70928 C270.554656,138.745412 268.984842,137.655791 268.421567,136.015808 C265.754368,128.064601 255.787463,106 227.56127,106 C204.27842,106 192.17575,118.473457 187.573327,124.705216 C185.946301,126.939819 183.438828,128.384849 180.674705,128.680819 L153,131.503498 L165.563915,150 L187.954355,150 C188.345411,146.53128 192.687131,116.803703 224.332554,115.869436 C249.340059,115.13395 258.173905,134.952334 261.021592,144.841649 C261.907824,147.899011 264.731028,150.003903 267.940268,150 L316,149.960239 Z" id="Path" fill="#EFF1F2" fill-rule="nonzero"></path>
                            <path d="M159.986522,132.244586 L176.847386,131 L179.903417,139.537085 C180.076423,140.009674 180.014593,140.537906 179.737309,140.956199 C179.460024,141.374492 179.001226,141.631645 178.504732,141.647049 L169.231257,141.997088 C168.056049,142.039664 166.911065,141.613906 166.041105,140.810842 L159.33508,134.189253 C159.023022,133.877856 158.91806,133.410604 159.066291,132.992694 C159.214521,132.574784 159.588833,132.28265 160.024843,132.244586" id="Path" fill="#141414" fill-rule="nonzero"></path>
                            <path d="M173.94912,108.297466 C185.810839,103.843081 198.291493,101.048065 211,100 C208.847166,103.962541 201.754885,108.650753 192.791449,111.753948 C181.997098,115.477782 167.128458,119.335292 159,126 C164.834784,118.934264 170.669569,111.677562 172.470304,109.424165 C172.850375,108.947213 173.357299,108.574824 173.93906,108.345207" id="Path" fill="#141414" fill-rule="nonzero"></path>
                            <path d="M308.825584,61.2251791 C299.110337,64.6163909 288.224457,70.2522156 278.65929,75.8005879 C269.984604,80.8242455 262.400507,85.7701676 257.758,88.899022 C257.116254,89.3282173 256.843764,90.1176189 257.089472,90.8357411 C257.33518,91.5538633 258.039956,92.0278927 258.818573,91.9987257 L277.108452,91.3574077 L312.717687,90.1136394 L317,89.9678854 L317,59 C314.215676,59.5703712 311.471896,60.3136238 308.785563,61.2251791" id="Path" fill="#141414" fill-rule="nonzero"></path>
                            <path d="M280,74.010797 L278.576551,91.2859826 L261.68003,91.998584 C260.960731,92.030993 260.309645,91.5042745 260.082656,90.706332 C259.855667,89.9083895 260.107398,89.0312449 260.700254,88.5543439 C264.979843,85.0777128 271.995412,79.5820443 280,74" id="Path" fill="#DCE2E5" fill-rule="nonzero"></path>
                            <path d="M288,76.7361544 L287.354342,85.2280049 C287.203145,87.3548195 285.347096,89.0048698 283.111449,89 L271.14116,89 C269.877175,88.9940828 268.738765,88.2697848 268.247862,87.1591678 C267.756959,86.0485509 268.008234,84.7657965 268.886482,83.8990157 C269.458226,83.3323157 270.244769,83.0083853 271.06942,83 L272.40173,83 C273.731888,82.9507466 274.877726,82.0909001 275.240574,80.8697019 L276.73686,76.2964153 C277.497097,74.8866291 279.020007,74.0002853 280.682546,74 L285.304635,74 C286.047336,74.0008343 286.756238,74.2960643 287.26161,74.8150035 C287.766981,75.3339427 288.023321,76.0298677 287.969254,76.7361544" id="Path" fill="#9DB0B6" fill-rule="nonzero"></path>
                            <path d="M195,149 C195,149 197.302492,121 225.306301,121 C253.61514,121 257,148.581522 257,148.581522 L195,149 Z" id="Path" fill="#141414" fill-rule="nonzero"></path>
                            <path d="M155,129 L167.014637,141.669912 C167.637464,142.332444 168.518105,142.671423 169.411765,142.592623 L190,140.965477 L188.724109,147.841161 L169.295775,148 C167.937414,148.009256 166.667185,147.310636 165.922397,146.144564 L155,129 Z" id="Path" fill="#0F3A4A" fill-rule="nonzero"></path>
                            <path d="M237,88.9996329 C237,88.9996329 244.605535,89.0922996 249.530192,86.3328919 C253.63893,84.0059287 285.605491,65.4725935 296.115311,59.2948151 C296.704761,58.9506068 297.048861,58.2718435 296.994361,57.5608227 C296.939862,56.8498018 296.496904,56.2388251 295.862765,56 L237,88.9996329 Z" id="Path" fill="#141414" fill-rule="nonzero"></path>
                            <path d="M194.049013,104.26216 C194.162819,104.84075 194.474623,105.343611 194.915182,105.65907 C195.355741,105.97453 195.888586,106.076474 196.395387,105.942265 C197.433606,105.670135 202.230176,102.795026 201.991386,101.600021 C201.752596,100.405017 196.582267,101.31606 195.523284,101.600021 C194.4692,101.876007 193.80982,103.071963 194.049013,104.273992" id="Path" fill="#0686B6" fill-rule="nonzero"></path>
                            <path d="M177.210385,111.08045 C177.648384,112.216807 178.728949,112.975095 179.944896,112.999399 C181.160843,113.023703 182.270753,112.309196 182.75367,111.191247 C183.236587,110.073297 182.996629,108.773866 182.146426,107.902867 C181.296224,107.031867 180.004578,106.76223 178.877747,107.220514 C177.359859,107.832341 176.613046,109.550918 177.200401,111.08045" id="Path" fill="#0686B6" fill-rule="nonzero"></path>
                            <path d="M184.069789,105.640601 C184.329869,106.830524 185.283579,107.745063 186.483304,107.954987 C187.683029,108.16491 188.890586,107.628542 189.539218,106.597623 C190.187851,105.566703 190.148786,104.2459 189.440358,103.255123 C188.731931,102.264345 187.494784,101.800291 186.309564,102.080761 C184.716919,102.457644 183.720305,104.041637 184.069789,105.640601" id="Path" fill="#D3D8FF" fill-rule="nonzero"></path>
                            <path d="M273.956084,84 L273.956084,90 L271.365043,90 C270.010969,89.99436 268.79142,89.3027281 268.265528,88.2422004 C267.739637,87.1816728 268.00882,85.956771 268.949666,85.1290824 C269.562159,84.5879408 270.404763,84.2786198 271.28819,84.2706065 L272.715458,84.2706065 C273.158235,84.2622487 273.594732,84.179807 274,84.0279938" id="Path" fill="#718A94" fill-rule="nonzero"></path>
                            <path d="M256,150 C256,166.568542 242.568542,180 226,180 C209.431458,180 196,166.568542 196,150 C196,133.431458 209.431458,120 226,120 C242.568542,120 256,133.431458 256,150" id="Path" fill="#222222" fill-rule="nonzero"></path>
                            <path d="M250,148.500553 C250.007094,157.036932 245.380434,164.904648 237.916772,169.048277 C230.453111,173.191906 221.32846,172.958558 214.086374,168.438852 L214.086374,168.438852 C212.748235,167.613014 211.499043,166.651085 210.358709,165.568398 C203.715966,159.29228 201.3162,149.733517 204.206847,141.064264 C207.097495,132.395011 214.753831,126.188955 223.834061,125.154881 C224.722174,125.056079 225.614897,125.00438 226.508479,125 C227.045428,125 227.541073,125 228.088348,125.061952 C236.565163,125.643197 244.067413,130.756293 247.707633,138.433313 C248.294913,139.660886 248.768445,140.939697 249.122287,142.253701 C249.683424,144.270982 249.968264,146.355064 249.969014,148.448926" id="Path" fill="#B6B6B6" fill-rule="nonzero"></path>
                            <path d="M250,148.500553 C250.007094,157.036932 245.380434,164.904648 237.916772,169.048277 C230.453111,173.191906 221.32846,172.958558 214.086374,168.438852 L214.086374,168.438852 C212.748235,167.613014 211.499043,166.651085 210.358709,165.568398 C203.715966,159.29228 201.3162,149.733517 204.206847,141.064264 C207.097495,132.395011 214.753831,126.188955 223.834061,125.154881 C224.722174,125.056079 225.614897,125.00438 226.508479,125 C227.045428,125 227.541073,125 228.088348,125.061952 C236.565163,125.643197 244.067413,130.756293 247.707633,138.433313 C248.294913,139.660886 248.768445,140.939697 249.122287,142.253701 C249.698539,144.286184 249.993848,146.387977 250,148.500553 L250,148.500553 Z" id="Path" stroke="#000000" stroke-width="0.24"></path>
                            <path d="M236,167.296546 C229.795084,171.008533 222.09355,170.89023 216,166.989327 L224.868472,154.541976 C225.110571,154.201426 225.496959,154 225.908124,154 C226.319289,154 226.705677,154.201426 226.947776,154.541976 L236,167.296546 Z" id="Path" fill="#141414" fill-rule="nonzero"></path>
                            <path d="M223.98021,128 L223.871367,144.559662 C223.872019,145.0188 223.673511,145.450682 223.337108,145.722013 C223.000705,145.993344 222.566851,146.071505 222.16945,145.932371 L208,141.106101 C210.821677,133.907595 216.924923,128.920702 224,128.032684" id="Path" fill="#141414" fill-rule="nonzero"></path>
                            <path d="M219.800358,151.757322 L211.114905,164 C207.210314,160.242975 204.997897,155.008093 205,149.531381 C204.997177,148.005484 205.170391,146.484551 205.516099,145 L219.147976,149.720188 C219.522352,149.861549 219.812724,150.17003 219.936104,150.557466 C220.059485,150.944903 220.002297,151.368663 219.780884,151.707636" id="Path" fill="#141414" fill-rule="nonzero"></path>
                            <path d="M247,150.180841 C247.00836,155.86944 244.589691,161.279658 240.374988,165 L231.222544,152.077224 C231.000583,151.746091 230.940812,151.328863 231.060586,150.946692 C231.18036,150.564521 231.466257,150.260234 231.83526,150.12219 L246.310673,145 C246.769999,146.700267 247.001871,148.456179 247,150.219941" id="Path" fill="#141414" fill-rule="nonzero"></path>
                            <path d="M243,140.685141 L228.745975,145.928037 C228.360567,146.073445 227.938689,145.995853 227.610549,145.719209 C227.282409,145.442564 227.087459,145.000126 227.085868,144.52845 L227,128 C233.912284,128.545157 240.031843,133.396874 243,140.685141" id="Path" fill="#141414" fill-rule="nonzero"></path>
                            <g id="Group" opacity="0.5" transform="translate(108.000000, 180.000000)">
                                <g id="Clipped">
                                    <mask id="mask-13" fill="white">
                                        <use xlink:href="#path-12"></use>
                                    </mask>
                                    <g id="Rectangle"></g>
                                    <g mask="url(#mask-13)">
                                        <mask id="mask-15" fill="white">
                                            <use xlink:href="#path-14"></use>
                                        </mask>
                                        <g id="Path"></g>
                                        <rect id="Rectangle" fill="url(#linearGradient-16)" fill-rule="nonzero" mask="url(#mask-15)" x="0.4" y="0.36" width="43.67" height="2.265"></rect>
                                    </g>
                                </g>
                            </g>
                            <g id="Group" opacity="0.3" transform="translate(161.000000, 112.000000)">
                                <g id="Clipped">
                                    <mask id="mask-18" fill="white">
                                        <use xlink:href="#path-17"></use>
                                    </mask>
                                    <g id="Rectangle"></g>
                                    <path d="M22.27,0.31 C22.27,0.31 22.27,10.44 19.1,16.15 L20.82,27.9 L10.82,30.4 L11.43,32.25 L9.93,37.91 L5.29,39.57 L0.16,30.44 L22.27,0.31 Z" id="Path" fill="#000000" fill-rule="nonzero" mask="url(#mask-18)"></path>
                                </g>
                            </g>
                            <path d="M158.258135,49.2075928 C158.155034,46.6681178 158.984097,44.1865935 160.567092,42.2965056 C165.279249,37.3383318 170.754775,41.9524691 170.754775,41.9524691 C170.754775,41.9524691 177.643948,42.8935102 178.011496,48.7927252 C178.331923,53.8520862 183.439901,67.4314112 179.538235,70.0420415 C176.004118,72.7336216 174.637592,68.8986259 174.637592,68.8986259 C174.637592,68.8986259 169.17149,72.0151923 164.110634,68.3623336 C162.225771,66.5510824 162.828927,59.3971459 162.828927,59.3971459 C162.828927,59.3971459 153.743889,57.1103147 158.258135,49.1772366" id="Path" fill="#000000" fill-rule="nonzero"></path>
                            <path d="M130.030933,169.285776 C129.529897,170.033652 135.272535,175.732257 135.889194,174.92118 C136.505853,174.110103 134.347546,170.233788 134.347546,170.233788 C134.347546,170.233788 130.705404,168.285097 130.030933,169.285776" id="Path" fill="#141414" fill-rule="nonzero"></path>
                            <path d="M126,174.781106 C126.061338,174.781106 127.196097,173.402074 127.196097,173.402074 L128.6171,172.624424 L133.636617,168 L137,170.291475 L132.501859,174.998848 L130.999071,176.875576 L130.763941,177 L126,174.781106 Z" id="Path" fill="#FFFFFF" fill-rule="nonzero"></path>
                            <g id="Group" opacity="0.1" transform="translate(132.000000, 169.000000)">
                                <g id="Clipped">
                                    <mask id="mask-20" fill="white">
                                        <use xlink:href="#path-19"></use>
                                    </mask>
                                    <g id="Rectangle"></g>
                                    <path d="M0.05,2.63 C1.56701616,2.99204506 2.63547006,4.35038956 2.63,5.91 L5.51,2.91 L2.8,0.1 L0.05,2.63 Z" id="Path" fill="#000000" fill-rule="nonzero" mask="url(#mask-20)"></path>
                                </g>
                            </g>
                            <path d="M128.053186,172.63 C128.053186,172.63 129.449267,171.63 130.32524,172.25 C131.201212,172.87 130.507734,174.76 130.507734,174.76 C131.02626,174.956004 131.599785,174.736842 131.894691,174.23 C132.055527,174.547893 132.030497,174.939764 131.830818,175.23 L129.586138,178.66 L129.221149,180 L117.158277,180 L116.957534,179.85 C116.224663,179.277725 115.867259,178.286754 116.045062,177.32 L116.045062,177.32 L124.677042,174.24 L128.454673,172 L128.053186,172.63 Z" id="Path" fill="#008EAF" fill-rule="nonzero"></path>
                            <path d="M115.130843,178 L115.451256,179.177778 L116.452546,180.2 L130,179.833333 L129.599484,181 L116.382456,181 L115.731617,180.511111 C115.177807,180.078949 114.903554,179.326809 115.030714,178.588889 L115.130843,178 Z" id="Path" fill="#FFFFFF" fill-rule="nonzero"></path>
                            <path d="M140,169.847433 L135.891473,175 C136.19186,174.615329 135.174419,173.218366 133.682171,171.821403 C132.189922,170.42444 130.281008,169.219812 130,169.584237 L137.44186,161" id="Path" fill="#26BF67" fill-rule="nonzero"></path>
                            <path d="M135.006813,168.7804 C134.772299,169.797127 140.6675,173.924554 140.974794,172.810996 C141.282088,171.697438 138.678173,168.235724 138.678173,168.235724 C138.678173,168.235724 135.322195,167.436867 135.006813,168.7804" id="Path" fill="#141414" fill-rule="nonzero"></path>
                            <polygon id="Path" fill="#FFFFFF" fill-rule="nonzero" points="134.376682 168 132 174.757508 134.58296 177 135.991031 174.577308 138 169.481646"></polygon>
                            <g id="Group" opacity="0.1" transform="translate(135.000000, 167.000000)">
                                <g id="Clipped">
                                    <mask id="mask-22" fill="white">
                                        <use xlink:href="#path-21"></use>
                                    </mask>
                                    <g id="Rectangle"></g>
                                    <path d="M1.34857143,1.99607143 L0.56,3.68357143 C0.56,3.68357143 3.68,4.64785714 4.64,5.90142857 L5.78285714,3.645 L4.35428571,0.414642857 L1.34857143,1.99607143 Z" id="Path" fill="#000000" fill-rule="nonzero" mask="url(#mask-22)"></path>
                                </g>
                            </g>
                            <path d="M126.57504,176.339096 C128.130488,175.657357 129.55401,174.731656 130.785906,173.600814 C131.170669,173.173934 131.750802,172.952742 132.33943,173.008491 C133.790748,173.260957 134.240452,174.950534 134.240452,174.950534 C134.770147,175.368325 135.443266,175.586103 136.131253,175.562278 L136.570737,174.795171 C136.894484,175.323665 136.97928,175.954155 136.80581,176.54301 C136.772304,177.588656 136.837293,178.635054 137,179.6697 L136.785368,179.912456 L136.488973,181 L119.022055,181 L118,180.164921 C118.001772,179.573219 118.420546,179.055996 119.022055,178.902593 L122.609467,178.067514 L126.57504,176.339096 Z" id="Path" fill="#01ACED" fill-rule="nonzero"></path>
                            <polygon id="Path" fill="#FFFFFF" fill-rule="nonzero" points="138 181 121.65057 181.321429 120 181.232143 120.380901 182 137.716766 182"></polygon>
                            <path d="M162.303503,100.049942 C162.303503,100.049942 158.961996,104.324005 155.204011,116.157568 C151.446026,127.99113 135,168.674619 135,168.674619 C135.17434,168.245216 137.343898,168.814425 139.155091,169.673232 C140.966285,170.532039 142.331945,171.550624 142.14792,172 L144.627415,165.898475 C144.627415,165.898475 158.661745,147.923443 166.429538,137.687661 C174.197332,127.451879 179.078838,121.010826 180.057076,118.434405 C182.163417,113.743335 182.572251,108.430025 181.209654,103.455212 C181.064371,102.925947 180.996572,101.797515 180.851289,100.908749 C180.765819,100.382409 180.322849,99.9975814 179.805252,100 L162.303503,100.049942 Z" id="Path" fill="#30D97C" fill-rule="nonzero"></path>
                            <path d="M162,99.776495 C162,99.776495 164.853068,101.580631 170.77395,101.955516 C174.272319,102.189216 177.770832,101.499845 181,99.9405074 L180.61141,97.5974736 L164.454252,97 L162.634015,97.7966315 L162,99.776495 Z" id="Path" fill="#141414" fill-rule="nonzero"></path>
                            <path d="M173.172825,63.073284 C175.243654,63.3991338 177.296006,63.8335496 179.321426,64.374742 C183.805383,65.7726044 185.287205,68.4044417 185.893405,70.3421682 C186.730539,73.0222077 182.362049,84.4171959 182.362049,84.4171959 C182.362049,84.4171959 183.516716,94.2311536 183.10296,95.1277136 C182.689205,96.0242736 180.456849,96.9690357 180.456849,96.9690357 L180.206671,95.6193755 C177.33515,97.275498 174.05965,98.0967568 170.748024,97.9909213 C165.609757,97.6727871 163.290801,95.7832628 163.290801,95.7832628 L162.886667,96.8340697 L160,94.0479854 L163.204201,85.3715985 C163.204201,85.3715985 160.471489,73.3692632 160.2598,70.8434705 C160.048111,68.3176779 162.184245,66.9872985 162.934778,66.6306026 C163.973979,66.0232555 165.099779,65.5701553 166.725935,64.8374827 C168.352091,64.10481 170.776891,62.8033519 173.134336,63.0250818" id="Path" fill="#D2D2D2" fill-rule="nonzero"></path>
                            <path d="M173.54324,62.1485721 C170.794591,62.8264086 168.252608,63.224503 169.203268,66.6352041 C170.050596,69.6478107 175.981891,67.119373 176.870552,64.3865084 C177.542214,62.3099617 175.475561,61.6751625 173.54324,62.1485721" id="Path" fill="#D2D2D2" fill-rule="nonzero"></path>
                            <g id="Clipped" transform="translate(148.000000, 68.000000)">
                                <mask id="mask-24" fill="white">
                                    <use xlink:href="#path-23"></use>
                                </mask>
                                <g id="Path"></g>
                                <polygon id="Rectangle" fill="url(#linearGradient-25)" fill-rule="nonzero" mask="url(#mask-24)" transform="translate(5.899860, 15.482608) rotate(-63.950000) translate(-5.899860, -15.482608) " points="-10.8401403 2.44260814 22.6398597 2.44260814 22.6398597 28.5226081 -10.8401403 28.5226081"></polygon>
                            </g>
                            <path d="M185.415936,68 C187.133718,69.6804738 188.249729,73.1941918 189.267268,75.7817395 C190.284808,78.3692872 196.09463,91.2019963 190.809989,93.7799959 C185.525349,96.3579955 180,75.4284581 180,75.4284581 L185.415936,68 Z" id="Path" fill="#D2D2D2" fill-rule="nonzero"></path>
                            <g id="Group" opacity="0.3" transform="translate(179.000000, 76.000000)">
                                <g id="Clipped">
                                    <mask id="mask-27" fill="white">
                                        <use xlink:href="#path-26"></use>
                                    </mask>
                                    <g id="Rectangle"></g>
                                    <polygon id="Path" fill="#000000" fill-rule="nonzero" mask="url(#mask-27)" points="4.65 5.91 0.716666667 0.42 1.31666667 4.5"></polygon>
                                </g>
                            </g>
                            <g id="Group" opacity="0.3" transform="translate(161.000000, 108.000000)">
                                <g id="Clipped">
                                    <mask id="mask-29" fill="white">
                                        <use xlink:href="#path-28"></use>
                                    </mask>
                                    <g id="Rectangle"></g>
                                    <polygon id="Path" fill="#000000" fill-rule="nonzero" mask="url(#mask-29)" points="3.275 0.168229167 3.83333333 3.83958333 0.216666667 18.940625 3.05833333 10.8260417 5.89166667 3.69114583"></polygon>
                                </g>
                            </g>
                            <g id="Group" opacity="0.3" transform="translate(143.000000, 126.000000)">
                                <g id="Clipped">
                                    <mask id="mask-31" fill="white">
                                        <use xlink:href="#path-30"></use>
                                    </mask>
                                    <g id="Rectangle"></g>
                                    <polygon id="Path" fill="#000000" fill-rule="nonzero" mask="url(#mask-31)" points="0.14 39.933 17.26 0.1428 5.81 32.7216"></polygon>
                                </g>
                            </g>
                            <path d="M173.693593,57 C173.693593,57 174.743215,62.9669582 174.980865,63.9484937 C175.218515,64.9300292 173.20839,67 170.851692,67 C169.316867,67 169.920895,65.0563654 169.920895,64.3566569 C169.699121,63.1226646 169.391435,61.90504 169,60.7123421 L172.7826,57 L173.693593,57 Z" id="Path" fill="#B27A47" fill-rule="nonzero"></path>
                            <g id="Group" opacity="0.3" transform="translate(168.000000, 55.000000)">
                                <g id="Clipped">
                                    <mask id="mask-33" fill="white">
                                        <use xlink:href="#path-32"></use>
                                    </mask>
                                    <g id="Rectangle"></g>
                                    <path d="M5,0.39 L4.24,0.39 L0.42,4.21 C0.42,4.21 1.13,6.52 1.3,7.59 C4.55,6.11 4.95,1.59 5,0.39" id="Path" fill="#000000" fill-rule="nonzero" mask="url(#mask-33)"></path>
                                </g>
                            </g>
                            <path d="M161,54.5935157 L161.286554,55.6053032 C161.286554,55.7671893 164.037472,62.4449873 166.406319,62.9205275 C168.775165,63.3960677 171.535636,61.736736 173.31227,57.9627683 L174,54.5732799 C168.402645,54.0471504 162.53784,50 162.53784,50 L161,54.5935157 Z" id="Path" fill="#CC935A" fill-rule="nonzero"></path>
                            <path d="M172,55.5114081 C172,55.5114081 172.528458,52.6855214 174.183364,53.0289451 C175.838271,53.3723689 174.725729,57.9349984 173.084729,57.993871 C172.690098,58.0251262 172.295354,57.935858 172,57.7485683" id="Path" fill="#CC935A" fill-rule="nonzero"></path>
                            <g id="Group" opacity="0.3" transform="translate(160.000000, 96.000000)">
                                <g id="Clipped">
                                    <mask id="mask-35" fill="white">
                                        <use xlink:href="#path-34"></use>
                                    </mask>
                                    <g id="Rectangle"></g>
                                    <path d="M3.12428571,2.928 C1.64892857,1.728 0.3375,0.528 0.3375,0.528 L2.52642857,4.308 L2.93142857,3 C3.84454328,3.80894781 4.86205209,4.41771377 5.94,4.8 C4.95649344,4.28684097 4.01379965,3.66010026 3.12428571,2.928" id="Path" fill="#000000" fill-rule="nonzero" mask="url(#mask-35)"></path>
                                </g>
                            </g>
                            <path d="M164.129051,60.7603744 C164.050904,60.7276834 164,60.6510232 164,60.5660267 C164,60.4810303 164.050904,60.4043701 164.129051,60.3716791 C165.145324,60.0963533 167.355315,59.4809192 168.645821,59.0274415 C169.565306,58.7035288 168.645821,61.3434172 166.451961,61.8778732 C164.258101,62.4123291 164.661384,61.0195045 164.661384,61.0195045 L164.129051,60.7603744 Z" id="Path" fill="#FFFFFF" fill-rule="nonzero"></path>
                            <path d="M162.071429,58.7902843 L165,58.2802843 C165,58.2802843 165,58.1802843 165,58.1802843 L164.428571,58.1802843 C164.167861,58.1685523 163.905731,58.189035 163.660714,58.2402843 L162.875,58.3902843 C162.619221,58.4404144 162.38717,58.5224871 162.196429,58.6302843 L162,58.7402843 C162,58.7402843 162,58.8402843 162,58.8202843" id="Path" fill="#B27A47" fill-rule="nonzero"></path>
                            <g id="Group" opacity="0.5" transform="translate(84.000000, 181.000000)">
                                <g id="Clipped">
                                    <mask id="mask-37" fill="white">
                                        <use xlink:href="#path-36"></use>
                                    </mask>
                                    <g id="Rectangle"></g>
                                    <g mask="url(#mask-37)">
                                        <mask id="mask-39" fill="white">
                                            <use xlink:href="#path-38"></use>
                                        </mask>
                                        <g id="Path"></g>
                                        <rect id="Rectangle" fill="url(#linearGradient-40)" fill-rule="nonzero" mask="url(#mask-39)" x="0.0476190476" y="0.0225" width="19.9238095" height="2.655"></rect>
                                    </g>
                                </g>
                            </g>
                            <path d="M23,119.846951 C23,119.846951 18.1472881,117.244609 16.120206,116.09834 C14.6050132,115.241219 10.3972821,120.229041 12.6495956,121.674786 C13.0079182,121.912301 14.420733,121.809034 14.8404824,122.056876 C17.1235093,123.44066 20.092468,125 20.092468,125 L23,119.846951 Z" id="Path" fill="#FFFFFF" fill-rule="nonzero"></path>
                            <g id="Group" opacity="0.3" transform="translate(16.000000, 120.000000)">
                                <g id="Clipped">
                                    <mask id="mask-42" fill="white">
                                        <use xlink:href="#path-41"></use>
                                    </mask>
                                    <g id="Rectangle"></g>
                                    <path d="M1.59,0.341666667 C0.614039169,1.85582279 0.239417005,3.58888794 0.52,5.29166667 L1.71,5.85 L4.3,1.55 L1.59,0.341666667 Z" id="Path" fill="#1A1919" fill-rule="nonzero" mask="url(#mask-42)"></path>
                                </g>
                            </g>
                            <path d="M87.928574,162.923378 C88.422293,163.826783 86.2696785,166.374588 84.1466871,167.765222 C82.0236958,169.155857 78.6269097,170.597244 78.1430651,169.744593 C77.6592206,168.891941 78.557789,162.486901 78.557789,162.486901 L84.8971399,160 L87.928574,162.923378 Z" id="Path" fill="#141414" fill-rule="nonzero"></path>
                            <path d="M63.9358279,99.3377176 C64.2111974,103.619471 63.5983719,107.911762 62.1352674,111.949025 L52.8752422,137.161427 C52.0563894,139.275488 50.3241167,140.912743 48.1566017,141.621241 C45.9890867,142.32974 43.6155521,142.034557 41.6911896,140.817174 C32.8118543,135.272284 19.3025064,126.919207 17.4505014,125.765298 C15.392718,124.468427 20.8972885,114.093457 23.6238515,115.451598 C27.1117943,117.177356 42.2365022,124.764563 42.2365022,124.764563 L48.2760964,103.320236 L53.9761563,98 L63.9358279,99.3377176 Z" id="Path" fill="#01ACED" fill-rule="nonzero"></path>
                            <polygon id="Path" fill="#FFFFFF" fill-rule="nonzero" points="80 165.838095 86.1931923 175 91 170.945238 85.4949402 162"></polygon>
                            <g id="Group" opacity="0.3" transform="translate(78.000000, 164.000000)">
                                <g id="Clipped">
                                    <mask id="mask-44" fill="white">
                                        <use xlink:href="#path-43"></use>
                                    </mask>
                                    <g id="Rectangle"></g>
                                    <path d="M6.34833333,0.1275 L9.89083333,5.15142857 C9.89083333,5.15142857 4.88583333,3.31928571 2.13416667,5.87464286 L0.465833333,3.71464286 L6.34833333,0.1275 Z" id="Path" fill="#1A1919" fill-rule="nonzero" mask="url(#mask-44)"></path>
                                </g>
                            </g>
                            <path d="M41,100.930896 L41,104.792687 C41.001667,108.319569 41.9363633,111.778972 43.703154,114.797327 C47.1717172,120.800112 53.3240569,130.904798 58.0618429,136.377337 C58.0618429,136.377337 79.260771,173.314469 78.4081633,171.963843 C77.0420532,169.552725 86.3432282,162.909643 88,165.240725 L69.7561328,130.224483 L56.7538652,106.193336 L56.0465883,99 L41,100.930896 Z" id="Path" fill="#01ACED" fill-rule="nonzero"></path>
                            <path d="M63,99.2243902 L53.7848041,100 C53.7848041,100 52.4886008,97.204878 53.2278417,97.3073171 C53.9670827,97.4097561 63,97 63,97 L63,99.2243902 Z" id="Path" fill="#000000" fill-rule="nonzero"></path>
                            <path d="M64.086603,93.3588491 C64.1167518,91.0732526 64.3434385,88.7949787 64.7639764,86.5510315 C65.3218134,84.7562432 67.0451311,77.4120521 67.0451311,77.4120521 L85.4637121,85.1482085 L89,80.2073833 C87.1867762,78.8104803 85.2976523,77.522443 83.3419394,76.34962 C80.9512096,75.0190011 70.3921529,65.0857763 70.3921529,65.0857763 L69.1669038,63.6829533 C69.0365998,63.5275915 68.8856766,63.3921496 68.718642,63.2806732 L61.1778817,59 L57.8208986,62.5173724 L51.3559667,60.4543974 L50.3598292,61.0526602 L40.2191502,65.941911 L42.0620045,86.9533116 L40,96.1335505 C40.649413,96.4573003 41.3143708,96.7464935 41.9922749,97 C42.1915023,97 64.086603,93.3382193 64.086603,93.3382193" id="Path" fill="#D2D2D2" fill-rule="nonzero"></path>
                            <path d="M50,49 C50,49 52.059387,60.0592334 52.0114943,61.7735192 L58.6111111,67 L60,61.5121951 L58.9367816,55.9825784 L50,49 Z" id="Path" fill="#FABE78" fill-rule="nonzero"></path>
                            <path d="M64.764879,39 C64.8687913,39.8440074 65.1410901,40.668264 65.5708867,41.4398097 C66.3057563,42.5586988 66.0815486,43.9382659 65.0150193,44.8601036 C63.6253508,45.8975928 63,40.8241568 63,40.8241568 L64.764879,39 Z" id="Path" fill="#C26400" fill-rule="nonzero"></path>
                            <g id="Group" opacity="0.1" transform="translate(52.000000, 53.000000)">
                                <g id="Clipped">
                                    <mask id="mask-46" fill="white">
                                        <use xlink:href="#path-45"></use>
                                    </mask>
                                    <g id="Rectangle"></g>
                                    <path d="M0.37,0.78 L0.37,0.78 L1.43,0.92 L8,4.43 L8.59,7.29 L8.46,7.29 C4.84089038,6.65110474 1.80210624,4.20120299 0.41,0.8" id="Path" fill="#1A1919" fill-rule="nonzero" mask="url(#mask-46)"></path>
                                </g>
                            </g>
                            <path d="M64.3149386,42.8127014 C65.4693164,45.9660714 66.0391379,49.2935612 65.997913,52.6404824 C65.963803,54.3938222 65.5805013,56.1241148 64.8692116,57.735643 C64.2443948,58.6174977 62.7831295,59.6953201 59.4574915,58.4019332 C57.2194716,57.4937484 55.0298468,56.4766977 52.8969145,55.3546352 L52,42.7539111 L62.5211096,41 L63.9622194,41.685887 L64.3149386,42.8127014 Z" id="Path" fill="#FABE78" fill-rule="nonzero"></path>
                            <path d="M54.6508733,51.2691077 C54.6508733,51.2691077 54.9185657,51.4385426 54.9483093,50.6113015 C54.9780529,49.7840604 54.8987367,48.6777499 54.8987367,48.6777499 C56.207455,46.9236001 55.3052325,46.0265917 54.6112152,45.2192841 C53.9171979,44.4119765 54.383181,43.684403 55.6026685,43.8339044 C56.822156,43.9834058 60.6987382,44.7010125 62.8799353,44.0930402 C65.0611325,43.4850678 64.7240384,42.4684582 65.3189104,42.2192892 C65.6949444,41.5824822 65.9157735,40.865276 65.963355,40.1262695 C66.2048119,38.3910951 65.2339795,36.7151025 63.6136108,36.069798 C61.9777129,35.2923907 59.3701908,33.9767784 58.1308743,35.3920583 C58.1308743,35.3920583 52.5985651,33.2990387 50.585915,34.2458809 C48.5732649,35.1927231 49.0392479,38.1229507 49.0392479,38.1229507 C49.0392479,38.1229507 46.2929224,38.1827512 47.1951449,40.6146408 C48.0973673,43.0465303 48.0378801,42.7375607 48.0378801,42.7375607 C48.0378801,42.7375607 48.3650597,43.2657991 48.0378801,43.4452007 C47.7745343,43.6033023 47.5988121,43.8750347 47.5619603,44.1811512 C47.5251084,44.4872678 47.6312772,44.793294 47.849504,45.0099821 L48.9301881,46.0066582 C48.9301881,46.0066582 46.6895037,45.7674559 47.0365124,46.7142981 C47.383521,47.6611404 49.0194189,48.4983483 49.0194189,48.4983483 C49.5736825,49.5466343 50.2137239,50.5467582 50.9329236,51.4883764 C51.5280354,52.1145093 52.4395464,52.3190083 53.2430097,52.0066479 L53.9865997,54 L54.9780529,53.5813961 L54.6508733,51.2790744" id="Path" fill="#FF6400" fill-rule="nonzero"></path>
                            <path d="M47.8804021,50.1850617 C49.7947134,49.403106 51.3721059,51.3521598 51.3721059,51.3521598 L51.6324522,52.6359677 L52,54.9701639 C50.6513408,55.1248332 49.3073335,54.6696105 48.5542397,53.8030658 C47.6047413,52.9977681 45.9814053,51.0137013 47.8804021,50.2317456" id="Path" fill="#FABE78" fill-rule="nonzero"></path>
                            <path d="M63.9789416,53.5674011 C64.0220693,53.4213067 63.9978901,53.2568716 63.9161572,53.1404234 C63.8344242,53.0239752 63.7086172,52.9747189 63.5894825,53.012523 L61.7720067,53.6273879 C61.2409261,53.822345 60.0017381,54.077289 59.270027,54.2272561 C59.150382,54.2555363 59.0526525,54.3650921 59.0156516,54.5124138 C58.9786507,54.6597354 59.0083675,54.8209768 59.0930002,54.9321012 C59.8169751,55.8785281 60.8964337,56.2315775 61.8900246,55.8469002 C62.8496812,55.5971904 63.6396794,54.7351167 63.9789416,53.5674011" id="Path" fill="#FFFFFF" fill-rule="nonzero"></path>
                            <g id="Group" opacity="0.3" transform="translate(60.000000, 50.000000)">
                                <g id="Clipped">
                                    <mask id="mask-48" fill="white">
                                        <use xlink:href="#path-47"></use>
                                    </mask>
                                    <g id="Rectangle"></g>
                                    <path d="M0.15,1.5825 L0.81,1.02 C0.924314339,0.925979029 1.0449995,0.850550801 1.17,0.795 L1.71,0.5925 C1.86259883,0.532936305 2.01989366,0.660738352 2.07,0.885 C2.08894474,1.01504001 2.03592881,1.14426635 1.95,1.1775 L0.21,1.785" id="Path" fill="#1A1919" fill-rule="nonzero" mask="url(#mask-48)"></path>
                                </g>
                            </g>
                            <path d="M42.3046595,42.33 L46.6953405,42.33 C46.8597686,42.3349702 46.9910928,42.4082491 47,42.5 C47,42.5938884 46.8635993,42.67 46.6953405,42.67 L42.3046595,42.67 C42.1364007,42.67 42,42.5938884 42,42.5 C42.0089072,42.4082491 42.1402314,42.3349702 42.3046595,42.33" id="Path" fill="#000000" fill-rule="nonzero"></path>
                            <path d="M40.2931034,45.33 L42.7068966,45.33 C42.8687731,45.33 43,45.4061116 43,45.5 C43,45.5938884 42.8687731,45.67 42.7068966,45.67 L40.2931034,45.67 C40.1312269,45.67 40,45.5938884 40,45.5 C40,45.4061116 40.1312269,45.33 40.2931034,45.33" id="Path" fill="#000000" fill-rule="nonzero"></path>
                            <path d="M36.1634738,44.34 L43.8365262,44.34 C43.9268103,44.34 44,44.4116344 44,44.5 C44,44.5883656 43.9268103,44.66 43.8365262,44.66 L36.1634738,44.66 C36.0731897,44.66 36,44.5883656 36,44.5 C36,44.4116344 36.0731897,44.34 36.1634738,44.34" id="Path" fill="#000000" fill-rule="nonzero"></path>
                            <path d="M58,62.2916482 L58,61.7687163 L60.629434,58 L62.6229118,58.6401408 C62.8898289,58.7248761 63.041997,58.9342795 62.9898096,59.1450406 L61.7668171,63.8243797 C61.7435521,63.9001157 61.6690443,63.96169 61.5696238,63.9873429 C61.4702033,64.0129959 61.3598721,63.9991146 61.27762,63.9506046 L58.5381167,62.1473911 L58,62.2916482 Z" id="Path" fill="#E6E6E6" fill-rule="nonzero"></path>
                            <path d="M58,63.5165796 L57.503381,63.0685538 L51.9267633,60.5325589 L51.8646859,60 L51.6681075,60 C51.4280234,60.0411315 51.2209296,60.1641893 51.0990649,60.3381327 L50.064442,61.7751964 C49.9389064,61.954134 50.0018267,62.1818005 50.2092892,62.299302 L56.4997967,65.959588 C56.5687759,66.0017375 56.6595628,66.0116683 56.7396828,65.9858283 C56.8198028,65.9599882 56.8778093,65.9020689 56.8929534,65.8327882 L57.36888,63.5842061 L58,63.5165796 Z" id="Path" fill="#E6E6E6" fill-rule="nonzero"></path>
                            <polygon id="Path" fill="#A9A9A9" fill-rule="nonzero" points="59.215 62.835 59.785 62.695 59.305 62.165"></polygon>
                            <polygon id="Path" fill="#A9A9A9" fill-rule="nonzero" points="59.73 62.68 59.27 62.21 59.27 62.79"></polygon>
                            <path d="M60.4395604,62 L59.3406593,62.3649534 L59,64.9780197 L59.1318681,65.1094029 C59.2270682,65.1999656 59.3153978,65.3026378 59.3956044,65.4159637 L60.4945055,66.7735903 C60.5282493,66.8164906 60.569964,66.8467171 60.6153846,66.8611792 L61,66.9925624 C61.1444512,67.0309759 61.2872078,66.9171906 61.3296703,66.7297959 L62,63.72258 L60.4395604,62 Z" id="Path" fill="#01ACED" fill-rule="nonzero"></path>
                            <path d="M41.370258,65 L38.5353107,77.5189416 C38.5353107,77.5189416 36.5089567,85.9510802 35.1450645,92.2055792 C34.7040743,94.2661984 35.2822925,96.4164875 36.6920749,97.9586317 C38.1018574,99.500776 40.1635455,100.238249 42.2080774,99.9317251 L42.383435,99.9317251 C48.4819813,98.9373691 56.3730715,97.087867 56.3730715,97.087867 L58,91.4697558 L44.6825674,92.2055792 L44.7897304,92.0166516 C44.8728494,91.8652209 44.8895742,91.6850421 44.8357968,91.5203732 C44.7820193,91.3557042 44.6627225,91.2218037 44.5072099,91.1515619 L44.3513365,91.081957 L48.2481712,75.2418664" id="Path" fill="#D2D2D2" fill-rule="nonzero"></path>
                            <g id="Group" opacity="0.15" transform="translate(36.000000, 67.000000)">
                                <g id="Clipped">
                                    <mask id="mask-50" fill="white">
                                        <use xlink:href="#path-49"></use>
                                    </mask>
                                    <g id="Rectangle"></g>
                                    <path d="M22.76,0.58 C22.76,0.58 19.81,3.8 13.08,6.06 C7.94298402,7.65229542 3.54705031,11.03351 0.69,15.59 L2.44,8.11 C2.44,8.11 7.78,3.66 12.76,3.66 C17.74,3.66 21.85,1.59 22.76,0.58" id="Path" fill="#1A1919" fill-rule="nonzero" mask="url(#mask-50)"></path>
                                </g>
                            </g>
                            <g id="Group" opacity="0.3" transform="translate(45.000000, 76.000000)">
                                <g id="Clipped">
                                    <mask id="mask-52" fill="white">
                                        <use xlink:href="#path-51"></use>
                                    </mask>
                                    <g id="Rectangle"></g>
                                    <path d="M13.93,17.1036364 L0.82,17.8459091 L0.93,17.6472727 C1.01531951,17.4880602 1.03248713,17.2986223 0.977285931,17.1254913 C0.92208473,16.9523602 0.799629729,16.8115787 0.64,16.7377273 L0.48,16.6645455 L4.48,0.0104545455 L2.73,15.8386364 L13.93,17.1036364 Z" id="Path" fill="#1A1919" fill-rule="nonzero" mask="url(#mask-52)"></path>
                                </g>
                            </g>
                            <polygon id="Path" fill="#E6E6E6" fill-rule="nonzero" points="59.6159794 94.4414414 59.2551546 94.4594595 59.6159794 94.1711712 62 94 60.7628866 99.5225225 57.3479381 100 57 99.6126126 57.4639175 99.5315315"></polygon>
                            <path d="M58.6698048,66.2231687 C58.5629031,66.1967645 58.4526499,66.2487085 58.3963175,66.3520178 C58.0349235,66.9747887 56.384232,69.0149002 50.4847194,67.4257607 C43.579164,65.6003978 41.3326609,63.2274259 35.0815216,62.1644204 C29.6899141,61.2087892 23.7513318,64.6877163 22.2276166,65.6862972 C22.1205003,65.7511016 22.0427792,65.862026 22.0131253,65.9924216 C21.9834714,66.1228171 22.0045649,66.2608985 22.0713381,66.3734927 L24.5131894,70.6684643 C24.6763857,70.9592289 25.0070688,71.0773742 25.2945818,70.9476375 C26.8280644,70.2497046 31.6238603,68.2847551 35.4136134,68.8001517 C39.9261545,69.4658723 55.3293523,74.1688662 58.9725944,66.6526658 C59.0075954,66.5767043 59.009147,66.4873355 58.9768082,66.409961 C58.9444694,66.3325865 58.8817764,66.2756671 58.8065485,66.2553809 L58.6698048,66.2231687 Z" id="Path" fill="#01ACED" fill-rule="nonzero"></path>
                            <g id="Clipped" transform="translate(22.000000, 62.000000)">
                                <mask id="mask-54" fill="white">
                                    <use xlink:href="#path-53"></use>
                                </mask>
                                <g id="Path"></g>
                                <g id="Group" mask="url(#mask-54)" stroke="#9BDEF7" stroke-width="0.95">
                                    <g transform="translate(-2.905449, -4.583333)" id="Path">
                                        <line x1="0.20338141" y1="0.195833333" x2="12.0963515" y2="22.3825"></line>
                                        <line x1="3.13788462" y1="0.195833333" x2="15.0308547" y2="22.3825"></line>
                                        <line x1="6.07238782" y1="0.195833333" x2="17.9653579" y2="22.3825"></line>
                                        <line x1="9.00689103" y1="0.195833333" x2="20.8998611" y2="22.3825"></line>
                                        <line x1="11.9413942" y1="0.195833333" x2="23.8343643" y2="22.3825"></line>
                                        <line x1="14.8855823" y1="0.195833333" x2="26.7688675" y2="22.3825"></line>
                                        <line x1="17.8200855" y1="0.195833333" x2="29.7130556" y2="22.3825"></line>
                                        <line x1="20.7545887" y1="0.195833333" x2="32.6475588" y2="22.3825"></line>
                                        <line x1="23.6890919" y1="0.195833333" x2="35.582062" y2="22.3825"></line>
                                        <line x1="26.6235951" y1="0.195833333" x2="38.5165652" y2="22.3825"></line>
                                        <line x1="29.5580983" y1="0.195833333" x2="41.4510684" y2="22.3825"></line>
                                        <line x1="32.4926015" y1="0.195833333" x2="44.3855716" y2="22.3825"></line>
                                        <line x1="35.4271047" y1="0.195833333" x2="47.3200748" y2="22.3825"></line>
                                        <line x1="38.3616079" y1="0.195833333" x2="50.254578" y2="22.3825"></line>
                                    </g>
                                </g>
                            </g>
                            <g id="Group" opacity="0.3" transform="translate(68.000000, 70.000000)">
                                <g id="Clipped">
                                    <mask id="mask-56" fill="white">
                                        <use xlink:href="#path-55"></use>
                                    </mask>
                                    <g id="Rectangle"></g>
                                    <polygon id="Path" fill="#1A1919" fill-rule="nonzero" mask="url(#mask-56)" points="0.533333333 8.85 2.05 3.93 2.41666667 0.69 4.5 9.82"></polygon>
                                </g>
                            </g>
                            <g id="Group" opacity="0.3" transform="translate(44.000000, 116.000000)">
                                <g id="Clipped">
                                    <mask id="mask-58" fill="white">
                                        <use xlink:href="#path-57"></use>
                                    </mask>
                                    <g id="Rectangle"></g>
                                    <polygon id="Path" fill="#000000" fill-rule="nonzero" mask="url(#mask-58)" points="10.9 14.3714286 1.06 0.276190476 0.61 1.57142857 8.95 19.447619"></polygon>
                                </g>
                            </g>
                            <line x1="63" y1="113" x2="58" y2="107" id="Path" stroke="#141414" stroke-width="0.24" stroke-linecap="round" stroke-linejoin="round"></line>
                            <path d="M25.1528288,86.34 L37.8471712,86.34 C37.9315762,86.34 38,86.4116344 38,86.5 C38,86.5883656 37.9315762,86.66 37.8471712,86.66 L25.1528288,86.66 C25.0684238,86.66 25,86.5883656 25,86.5 C25,86.4116344 25.0684238,86.34 25.1528288,86.34" id="Path" fill="#000000" fill-rule="nonzero"></path>
                            <path d="M56.1529412,157.34 L68.8470588,157.34 C68.9315259,157.34 69,157.411634 69,157.5 C69,157.588366 68.9315259,157.66 68.8470588,157.66 L56.1529412,157.66 C56.0684741,157.66 56,157.588366 56,157.5 C56,157.411634 56.0684741,157.34 56.1529412,157.34" id="Path" fill="#000000" fill-rule="nonzero"></path>
                            <path d="M50.1528288,154.34 L62.8471712,154.34 C62.9315762,154.34 63,154.411634 63,154.5 C63,154.588366 62.9315762,154.66 62.8471712,154.66 L50.1528288,154.66 C50.0684238,154.66 50,154.588366 50,154.5 C50,154.411634 50.0684238,154.34 50.1528288,154.34" id="Path" fill="#000000" fill-rule="nonzero"></path>
                            <path d="M14.160562,141.34 L33.839438,141.34 C33.928114,141.34 34,141.411634 34,141.5 C34,141.588366 33.928114,141.66 33.839438,141.66 L14.160562,141.66 C14.071886,141.66 14,141.588366 14,141.5 C14,141.411634 14.071886,141.34 14.160562,141.34" id="Path" fill="#000000" fill-rule="nonzero"></path>
                            <path d="M15.1529412,77.34 L27.8470588,77.34 C27.9315259,77.34 28,77.4116344 28,77.5 C28,77.5883656 27.9315259,77.66 27.8470588,77.66 L15.1529412,77.66 C15.0684741,77.66 15,77.5883656 15,77.5 C15,77.4116344 15.0684741,77.34 15.1529412,77.34" id="Path" fill="#000000" fill-rule="nonzero"></path>
                            <line x1="43" y1="124" x2="40" y2="129" id="Path" stroke="#141414" stroke-width="0.24" stroke-linecap="round" stroke-linejoin="round"></line>
                            <path d="M92.0604271,181 C93.561814,180.887555 95.0453784,180.599938 96.4816801,180.142857 C98.7391395,179.437294 100.781097,178.15872 102.413612,176.428571 C103.715468,174.937176 104.875445,173.324578 105.878101,171.612245 C106.069454,171.295918 106.009027,171 105.878101,171 C105.747176,171 104.095501,171.193878 104.095501,171.193878 L101.285638,173.704082 L92,178.877551 L92.0604271,181 Z" id="Path" fill="#141414" fill-rule="nonzero"></path>
                            <path d="M103.855375,172.206924 L100.422093,173.589552 L95.7942167,173.78707 C94.8235621,173.5393 93.8948531,173.149458 93.0381849,172.630177 C91.5519971,171.689614 89.7083717,171.981189 89.8212467,173.570741 C89.8212467,173.570741 89.3133091,174.511304 86.284496,174.577143 C86.0089974,174.899254 85.9265057,175.343962 86.0681522,175.743441 L86.7924336,177.850303 L87.1592774,181.725423 C88.5406275,182.067772 89.9819061,182.09029 91.3732783,181.791263 L91.0346532,180.41804 L93.0946224,181.30217 C93.8285189,181.047749 94.5476471,180.75258 95.2486541,180.41804 C99.1146236,178.461669 101.626093,175.038019 103.554375,173.222732 C104.256034,172.636059 105.099292,172.243645 106,172.084651 L104.523218,172 C104.28926,172.011507 104.06094,172.075818 103.855375,172.188113" id="Path" fill="#9DB0B6" fill-rule="nonzero"></path>
                            <polygon id="Path" fill="#D2D2D2" fill-rule="nonzero" points="89.5538462 184 92 182.726027 89 181"></polygon>
                            <line x1="101" y1="172.17" x2="98" y2="172.83" id="Path" stroke="#141414" stroke-width="0.24" stroke-linecap="round" stroke-linejoin="round"></line>
                            <path d="M12.6897965,110.390596 C11.7246963,109.578853 9.98390811,109.730378 6.58350834,113.821561 L7.60272631,114.903885 L5.58232963,115.098703 C1.85722326,119.990806 -0.145134161,125.207605 0.0081995154,127.437192 C0.0081995154,127.729419 0.387023892,127.902591 0.810946409,128 C1.40664189,127.683399 1.98505279,127.321903 2.54271499,126.917676 C4.02193399,125.835353 7.00743086,123.2486 8.63998353,122.339448 C10.8678317,121.105599 13.2219546,121.387003 13.4474453,120.867488 C13.672936,120.347972 11.4360682,119.785164 11.4360682,119.785164 C11.4360682,119.785164 12.8070517,113.291223 16,115.574925 L16,114.492602 C14.9887979,113.012265 13.8819721,111.629829 12.6897965,110.358126" id="Path" fill="#9DB0B6" fill-rule="nonzero"></path>
                            <path d="M157.240274,77.8347818 L157.000303,71.6795562 C156.994893,71.5012127 157.062024,71.3282889 157.186374,71.2002542 C157.310724,71.0722195 157.48168,71 157.660221,71 L163.949437,71 C164.304584,70.9944556 164.598471,71.2748014 164.609355,71.629595 L164.999307,83.3205267 C165.007508,83.4979165 164.942673,83.6709264 164.819889,83.7992935 C164.697105,83.9276605 164.527082,84.0001889 164.349388,84 L158.040174,84 C157.68338,84.0001634 157.391068,83.7168936 157.380256,83.3604957 L157.240274,77.8347818 Z" id="Path" fill="#000000" fill-rule="nonzero"></path>
                            <path d="M154.025,83 L154.025,79.3918919 C154.025288,78.7562813 154.187158,78.1314675 154.495,77.5777027 L154.815,77 L154.975,80.972973 L154.025,83 Z" id="Path" fill="#B27A47" fill-rule="nonzero"></path>
                            <path d="M160.944998,86.3695613 C161.611382,84.5813008 156.017798,81.7634356 155.230254,83.595048 C154.553773,85.1557117 155.452382,87.4750315 156.825536,87.8651975 C158.19869,88.2553634 160.409872,87.8110077 160.944998,86.3695613" id="Path" fill="#000000" fill-rule="nonzero"></path>
                            <path d="M157,87.719918 C157.12002,87.5540938 158.360227,84.6107152 158.360227,84.6107152 L158.460244,81.3771444 C158.480416,80.5775005 158.678966,79.7935519 159.04034,79.0866983 L161.500751,74.2985261 C161.634006,74.0369074 161.940732,73.9279344 162.200868,74.0497899 C162.467315,74.1686119 162.592111,74.4872863 162.480915,74.7649065 L160.350559,80.3200154 L164.07118,75.1380108 C164.155145,75.0153133 164.283993,74.9336634 164.427653,74.9121173 C164.571313,74.8905711 164.717215,74.9310139 164.831307,75.0240067 C165.04385,75.1867222 165.111559,75.4849087 164.991334,75.7287594 L161.840808,82.2477211 L164.841309,76.9206204 C164.982165,76.6344262 165.320246,76.5207431 165.596435,76.6667022 C165.872623,76.8126612 165.982332,77.1629907 165.841475,77.4491849 L165.21137,78.8794182 L165.21137,78.7965061 C165.264708,78.678264 165.366435,78.5910635 165.488518,78.5589351 C165.610601,78.5268066 165.740154,78.5531413 165.841475,78.6306819 C165.99244,78.7491843 166.042533,78.9611409 165.961495,79.1385184 L163.791133,84.320523 L162.180865,86.5176929 L160.590599,90 L157,87.719918 Z" id="Path" fill="#CC935A" fill-rule="nonzero"></path>
                            <path d="M150.872935,96.9303359 C149.203419,95.152663 150.193132,93.2458854 151.632715,90.5744104 C153.882063,86.4033343 155.34164,84 155.34164,84 C154.631846,85.6982238 159.48044,88.8364621 161,86.5423702 C161,86.5423702 160.00029,89.6706773 158.080846,94.2389987 C156.371342,98.2909012 152.682411,98.866907 150.872935,96.9303359" id="Path" fill="#D2D2D2" fill-rule="nonzero"></path>
                            <line x1="164" y1="78" x2="161" y2="83" id="Path" stroke="#000000" stroke-width="0.24" stroke-linecap="round"></line>
                            <path d="M177.327186,79.0683073 C176.443168,78.4461644 172.065171,82.2516051 173.180718,83.2781409 C174.296266,84.3046766 176.47474,84.2217242 177.242994,83.1226051 C178.011248,82.023486 178.432209,79.856355 177.327186,79.0683073" id="Path" fill="#000000" fill-rule="nonzero"></path>
                            <path d="M177.327186,79.0683073 C176.443168,78.4461644 172.065171,82.2516051 173.180718,83.2781409 C174.296266,84.3046766 176.47474,84.2217242 177.242994,83.1226051 C178.011248,82.023486 178.432209,79.856355 177.327186,79.0683073 Z" id="Path" stroke="#141414" stroke-width="0.24" stroke-linecap="round" stroke-linejoin="round"></path>
                            <path d="M173,73.3140945 L170.844161,70.8583247 L169.053519,69.152929 C168.946358,69.0555227 168.794523,69 168.63531,69 C168.476097,69 168.324261,69.0555227 168.217101,69.152929 C167.979899,69.3493678 167.931595,69.6530476 168.099295,69.893558 L169.713229,72.0764645 L171.562774,75 L173,74.6979013 L173,73.3140945 Z" id="Path" fill="#B27A47" fill-rule="nonzero"></path>
                            <path d="M177.416042,79.0894894 L176.898209,77.8267867 L176.756059,75.9728184 C176.72476,75.5440083 176.506481,75.1497012 176.157776,74.8920561 C175.80907,74.634411 175.364253,74.5387816 174.938568,74.629944 L174.3192,74.7702443 L174.380121,74.2491289 C174.435828,73.8716944 174.289894,73.4926558 173.994285,73.2469839 C173.549917,72.8856568 172.898098,72.9250448 172.501709,73.337177 L172.410327,73.42737 L171.983876,73.1868552 C171.672772,73.0232412 171.297948,73.0305975 170.993679,73.2062887 C170.68941,73.3819799 170.499243,73.7008613 170.4913,74.0486999 L170.4913,74.9005232 C170.314112,74.9121624 170.152608,75.0048383 170.054696,75.1510595 L169.95316,75.3013812 L169.841471,75.4617244 L169.283024,76.4638694 C168.77348,77.3951053 168.965463,78.5484865 169.750089,79.2698755 C170.877136,80.2720205 171.892494,81.4345087 173.598296,81.6549806 L176.116383,84 L177.984642,82.6070184 L179,80.4524066 L177.416042,79.0894894 Z" id="Path" fill="#CC935A" fill-rule="nonzero"></path>
                            <path d="M170.972973,76.6649194 C170.972973,76.6649194 170.718147,77.9514481 171.459459,78.1784825 C171.640337,78.2581498 171.839153,78.2255341 171.999346,78.0899145 C172.159539,77.9542948 172.263574,77.7305166 172.281853,77.4822435 C172.281853,77.4822435 172.177606,78.1936182 172.571429,78.3752457 C172.778551,78.482344 173.012831,78.4483289 173.196911,78.2844319 L174.841699,75.5146115 L176,75 L174.841699,76.6951907 C174.394187,77.7877948 173.84568,78.8044468 173.208494,79.7223169 C172.698842,80.4185559 171.969112,79.5860962 171.969112,79.5860962 L170,77.0584458 L170.474903,77.0584458 L170.972973,76.6649194 Z" id="Path" fill="#B27A47" fill-rule="nonzero"></path>
                            <path d="M175.352698,74 L175.352698,74 C174.845018,74.1184849 174.448044,74.4361346 174.29997,74.8423686 L173.030504,78.1994554 C172.928262,78.485616 173.089483,78.7900684 173.417537,78.9303341 C173.747303,79.0689308 174.154035,78.9954404 174.377377,78.7569053 L176.45187,76.5890448 L178,76.1678605" id="Path" stroke="#000000" stroke-width="0.24" stroke-linecap="round"></path>
                            <path d="M174,77.2979518 L173.804594,77.5377298 C173.682598,77.710287 173.416631,77.8524828 173.067079,77.9320334 C172.717526,78.0115839 172.314045,78.02174 171.948239,77.9601958 C171.293753,77.8447437 170.905059,77.5291622 171.020062,77.2066078 L172.094794,73.244562 C172.197263,72.8485596 172.436486,72.4629508 172.80314,72.102762 L173.022971,72" id="Path" stroke="#000000" stroke-width="0.24" stroke-linecap="round"></path>
                            <path d="M170,73.0119299 C170.12971,72.9960234 170.263147,72.9960234 170.392857,73.0119299 C170.855746,73.1254468 171.114457,73.4338313 171,73.7356454 L170.160714,76.0292669 L173,78" id="Path" stroke="#000000" stroke-width="0.24" stroke-linecap="round"></path>
                            <path d="M170.985,77.2441202 C170.943487,77.5542969 170.667022,77.7781022 170.355,77.7541202 C170.229639,77.7377175 170.111627,77.6856534 170.015,77.6041202" id="Path" stroke="#000000" stroke-width="0.24" stroke-linecap="round"></path>
                            <path d="M190,96.7386074 C186.842105,97.8130234 183.864662,95.4170758 181.348371,92.4409436 C178.441103,88.9813242 174,83.3621288 174,83.3621288 C174.952381,84.2753823 179.082707,80.7620422 177.949875,79 L188.666667,87.079608" id="Path" fill="#D2D2D2" fill-rule="nonzero"></path>
                            <line x1="178" y1="78" x2="189" y2="86" id="Path" stroke="#141414" stroke-width="0.24" stroke-linecap="round" stroke-linejoin="round"></line>
                            <path d="M183,93 C181.834821,91.8133971 182.678571,92.6076555 181.362723,91.0861244 C178.550223,87.9186603 174,83 174,83" id="Path" stroke="#141414" stroke-width="0.24" stroke-linecap="round" stroke-linejoin="round"></path>
                            <polygon id="Path" fill="#E6E6E6" fill-rule="nonzero" points="70.3105778 92.346056 70 80.783715 111.938024 72 113 102.005089 70.7313607 112"></polygon>
                            <polygon id="Path" fill="#999999" fill-rule="nonzero" points="69 81 70.3138686 81.2627975 72 112 70.5985401 112"></polygon>
                            <polygon id="Path" fill="#F5F5F5" fill-rule="nonzero" points="113.287625 70 72 79.7180043 72.6020067 80 114 70.3579176"></polygon>
                            <path d="M95,99.7854467 C95,99.7854467 98.7626433,92.7104048 102.859069,94.2081853 C106.955496,95.7059657 101.089009,104.318203 100.755226,101.401473 C100.421443,98.4847426 95.8293999,97.7654139 110,96.4745636" id="Path" stroke="#141414" stroke-width="0.24" stroke-linecap="round" stroke-linejoin="round"></path>
                            <polygon id="Path" fill="#D9D9D9" fill-rule="nonzero" points="95 78.6105033 95.2315436 85 110 81.3676149 109.768456 75"></polygon>
                            <line x1="80" y1="95" x2="106" y2="89" id="Path" stroke="#D9D9D9" stroke-width="0.71"></line>
                            <line x1="77" y1="101" x2="93" y2="96" id="Path" stroke="#D9D9D9" stroke-width="0.71"></line>
                            <path d="M81.0973227,81.8931531 C82.4960859,83.2908363 82.2417653,85.8109016 80.5251014,87.5262401 C78.8084375,89.2415786 76.2864251,89.4957029 74.8982586,88.0980196 C73.5100922,86.7003364 73.753816,84.1802711 75.4704799,82.4649326 C77.1871438,80.749594 79.6985595,80.5166468 81.0973227,81.8931531 Z" id="Path" stroke="#D9D9D9" stroke-width="0.71"></path>
                            <path d="M114.559621,88.3920312 L114.720464,87.8544002 C115.152899,86.4204077 115.081887,84.8797857 114.519411,83.4924883 L114.077092,82.3969384 L113.514142,80.2768463 C113.484501,80.1668472 113.406925,80.0764027 113.303295,80.0310228 C113.199665,79.985643 113.081213,79.9902464 112.981349,80.0435348 L112.840612,80.1145426 L112.941139,83.0867291 L112.368135,83.3606166 L107.251317,84.9430777 C107.100979,84.9950903 107,85.1377446 107,85.298117 L107,85.3894128 C107.001417,85.4933629 107.047912,85.5914635 107.127216,85.6578248 C107.20652,85.7241862 107.310663,85.7521397 107.41216,85.7343082 L113.13214,84.7199101 L107.392055,86.7081304 C107.209381,86.7709074 107.107656,86.9672779 107.160843,87.1544655 L107.241265,87.3979211 C107.290359,87.578534 107.47332,87.686606 107.653425,87.6413766 L113.624721,86.3023711 L108.678799,88.4833271 C108.580016,88.5291306 108.506871,88.6173184 108.479588,88.7235078 C108.452305,88.8296971 108.473775,88.9426374 108.538061,89.0311021 L108.638588,89.1731178 C108.730823,89.2930304 108.885555,89.3450763 109.030643,89.3049895 L113.534247,87.8848322 L110.769758,89.3252775 C110.675897,89.3767956 110.609394,89.4675342 110.588067,89.5731827 C110.566739,89.6788312 110.592768,89.78859 110.659178,89.8730525 C110.749793,89.9821105 110.896188,90.0260286 111.031128,89.9846363 L113.755406,89.1731178 C114.139516,89.0586798 114.441391,88.7578714 114.559621,88.3717433" id="Path" fill="#FABE78" fill-rule="nonzero"></path>
                            <path d="M60.7572596,92.8161414 L65.9415749,92.1707614 L67.7570562,90.9632762 C68.6103487,90.3788583 69.2853531,89.5393243 69.6987473,88.5483059 L69.8346657,88.2152066 C69.8960371,88.0607921 70.0501283,87.9738365 70.203587,88.0070195 C70.4158918,88.0472152 70.5711062,88.2442916 70.5725083,88.4754404 L70.6307591,90.6509956 C70.6386784,90.9134709 70.8243953,91.1302956 71.0676396,91.161054 L71.5627708,91.2235101 C71.8858512,91.2517205 72.210536,91.2517205 72.5336164,91.2235101 L77.1936752,91.046551 C77.4081484,91.0235554 77.5993999,91.1913307 77.6208472,91.4212878 C77.6422945,91.6512449 77.4858161,91.8563037 77.2713428,91.8792994 L71.8054822,92.8473694 L77.5237627,92.8473694 C77.6481081,92.8416909 77.7692211,92.8907178 77.8590403,92.9830907 C77.9488595,93.0754636 77.9995897,93.2031657 77.999477,93.3366091 C78.011093,93.6013545 77.8278894,93.8297615 77.5820134,93.8570768 L71.8346076,94.5649129 L76.9315469,94.9916965 C77.0609305,95.007195 77.1771265,95.0837546 77.2484733,95.2005142 C77.3198201,95.3172738 77.3388832,95.4620666 77.3004682,95.5954391 C77.2474364,95.7800413 77.0920888,95.9091275 76.91213,95.9181291 L71.5821877,96.1159068 L75.3781939,96.5530997 C75.4816847,96.5621671 75.5751639,96.6229185 75.6305396,96.7170972 C75.6859153,96.8112758 75.696732,96.9279029 75.6597392,97.03193 C75.6116619,97.1618471 75.4985025,97.2508216 75.3684855,97.2609358 L71.4851032,97.4795323 C70.9266046,97.5127222 70.3663971,97.4778006 69.8152488,97.3754387 L66.5532076,96.7508774 L60,98 L60.7572596,92.8161414 Z" id="Path" fill="#FABE78" fill-rule="nonzero"></path>
                            <rect id="Rectangle" x="0" y="0" width="320" height="215"></rect>
                        </g>
                    </g>
                </g>
            </g>
        </g>
    </g>
</svg>