<svg xmlns="http://www.w3.org/2000/svg" xmlns:xlink="http://www.w3.org/1999/xlink" width="160" height="80" viewBox="0 0 160 80"><defs><style>.a{fill:#141414;}.b{fill:none;}.c{clip-path:url(#a);}.d{clip-path:url(#b);}.e{clip-path:url(#c);}.f{clip-path:url(#d);}.g{fill:#282828;}.h{clip-path:url(#e);}.i{clip-path:url(#f);}.j{fill:#7d7d7d;}.k{clip-path:url(#g);}.l{clip-path:url(#h);}.m{clip-path:url(#i);}.n{clip-path:url(#j);}.o{fill:#3b3b3b;}.p{fill:#fff;}.q{fill:#6c6c6c;}.r{fill:#e2e2e2;}.s{fill:#313131;}.t{fill:#0098D1;}.u{clip-path:url(#k);}.v{clip-path:url(#l);}.w{clip-path:url(#m);}.x{clip-path:url(#n);}.y{clip-path:url(#o);}.z{fill:#12d288;}.aa{opacity:0.2;}</style><clipPath id="a"><path class="a" d="M1007.415,611.942c2.98,0,5.4,7.248,5.4,16.189s-2.416,16.189-5.4,16.189h-9.491V611.942Z" transform="translate(-997.924 -611.942)"/></clipPath><clipPath id="b"><path class="a" d="M1002.7,611.942c2.981,0,5.4,7.248,5.4,16.189s-2.416,16.189-5.4,16.189h1.954c2.981,0,5.4-7.247,5.4-16.189s-2.416-16.189-5.4-16.189Z" transform="translate(-1002.705 -611.942)"/></clipPath><clipPath id="c"><path class="a" d="M1000.762,611.942c2.98,0,5.4,7.248,5.4,16.189s-2.416,16.189-5.4,16.189h1.953c2.98,0,5.4-7.247,5.4-16.189s-2.416-16.189-5.4-16.189Z" transform="translate(-1000.762 -611.942)"/></clipPath><clipPath id="d"><path class="b" d="M945.507,612.123c2.981,0,5.4,7.248,5.4,16.189s-2.415,16.189-5.4,16.189h-9.49V612.123Z" transform="translate(-936.017 -612.123)"/></clipPath><clipPath id="e"><path class="b" d="M940.8,612.123c2.98,0,5.4,7.248,5.4,16.189s-2.416,16.189-5.4,16.189h1.954c2.98,0,5.4-7.247,5.4-16.189s-2.416-16.189-5.4-16.189Z" transform="translate(-940.799 -612.123)"/></clipPath><clipPath id="f"><path class="b" d="M938.856,612.123c2.98,0,5.4,7.248,5.4,16.189s-2.416,16.189-5.4,16.189h1.954c2.98,0,5.4-7.247,5.4-16.189s-2.416-16.189-5.4-16.189Z" transform="translate(-938.856 -612.123)"/></clipPath><clipPath id="g"><path class="b" d="M1049.448,612.328c6.471,0,11.717,7.194,11.717,16.067,0,8.783-5.14,15.92-11.52,16.064-.065,0-1.574,0-1.64,0a16.876,16.876,0,0,0,11.019-16.431C1059.024,615.833,1049.448,612.328,1049.448,612.328Z" transform="translate(-1048.005 -612.328)"/></clipPath><clipPath id="h"><path class="b" d="M1044.214,612.328c6.471,0,11.717,7.194,11.717,16.067s-5.245,16.066-11.717,16.066h-3.143V612.328Z" transform="translate(-1041.071 -612.328)"/></clipPath><clipPath id="i"><path class="b" d="M1045.554,612.328c6.471,0,11.717,7.194,11.717,16.067s-5.245,16.066-11.717,16.066h1.606c6.471,0,11.717-7.193,11.717-16.066s-5.246-16.067-11.717-16.067Z" transform="translate(-1045.554 -612.328)"/></clipPath><clipPath id="j"><path class="b" d="M1043.957,612.328c6.471,0,11.717,7.194,11.717,16.067s-5.246,16.066-11.717,16.066h1.606c6.471,0,11.717-7.193,11.717-16.066s-5.246-16.067-11.717-16.067Z" transform="translate(-1043.957 -612.328)"/></clipPath><clipPath id="k"><path class="b" d="M979.138,647.071l23.055,1.356,2.782-18.535H988.884a.858.858,0,0,1-.94-.993c.145-4.315-.486-12.7-3.108-17.5-15.822,1.016-22.424,14.536-22.424,14.536Z" transform="translate(-962.412 -611.401)"/></clipPath><clipPath id="l"><path class="b" d="M990.8,612.418c6.52,0,11.806,7.248,11.806,16.189,0,8.85-5.179,16.042-11.608,16.187-.065,0-1.586,0-1.652,0a17.006,17.006,0,0,0,11.1-16.557C1000.444,615.95,990.8,612.418,990.8,612.418Z" transform="translate(-989.341 -612.418)"/></clipPath><clipPath id="m"><path class="b" d="M985.521,612.418c6.519,0,11.805,7.248,11.805,16.189s-5.286,16.19-11.805,16.19h-3.167V612.418Z" transform="translate(-982.354 -612.418)"/></clipPath><clipPath id="n"><path class="b" d="M986.872,612.418c6.519,0,11.805,7.248,11.805,16.189s-5.286,16.19-11.805,16.19h1.618c6.521,0,11.806-7.248,11.806-16.19s-5.286-16.189-11.806-16.189Z" transform="translate(-986.872 -612.418)"/></clipPath><clipPath id="o"><path class="b" d="M985.262,612.418c6.52,0,11.806,7.248,11.806,16.189s-5.286,16.19-11.806,16.19h1.618c6.52,0,11.806-7.248,11.806-16.19s-5.286-16.189-11.806-16.189Z" transform="translate(-985.262 -612.418)"/></clipPath></defs><g transform="translate(-917.789 -568.661)"><g transform="translate(923.274 568.661)"><path class="a" d="M1001.95,629.841H988.473v-8.476l13.074,2.138Z" transform="translate(-922.888 -568.373)"/><path class="a" d="M981.1,605.4c-4.879,0-8.832,10.414-8.832,23.26,0,.428,0,.85.014,1.272h1.455a.55.55,0,0,0,.582-.523c0-.248-.006-.5-.006-.749,0-9.872,3.038-17.874,6.787-17.874s6.788,8,6.788,17.874q0,.294,0,.586a.729.729,0,0,0,.772.686h1.263c.01-.422.013-.844.013-1.272C989.934,615.811,985.982,605.4,981.1,605.4Z" transform="translate(-922.977 -568.46)"/><g transform="translate(69.691 43.517)"><path class="a" d="M1007.415,611.942c2.98,0,5.4,7.248,5.4,16.189s-2.416,16.189-5.4,16.189h-9.491V611.942Z" transform="translate(-992.527 -611.942)"/><g transform="translate(5.397 0)"><path class="a" d="M1007.415,611.942c2.98,0,5.4,7.248,5.4,16.189s-2.416,16.189-5.4,16.189h-9.491V611.942Z" transform="translate(-997.924 -611.942)"/><g class="c"><g transform="translate(1.52 -1.427)"><g transform="translate(0 1.117)"><line class="a" x1="6.823" y1="2.834"/><line class="a" x1="6.823" y1="2.834" transform="translate(0 2.425)"/><line class="a" x1="6.823" y1="2.834" transform="translate(0 4.851)"/><line class="a" x1="6.823" y1="2.834" transform="translate(0 7.276)"/><line class="a" x1="6.823" y1="2.834" transform="translate(0 9.701)"/><line class="a" x1="6.823" y1="2.834" transform="translate(0 12.127)"/><line class="a" x1="6.823" y1="2.834" transform="translate(0 14.552)"/><line class="a" x1="6.823" y1="2.834" transform="translate(0 16.977)"/><line class="a" x1="6.823" y1="2.834" transform="translate(0 19.403)"/><line class="a" x1="6.823" y1="2.834" transform="translate(0 21.828)"/><line class="a" x1="6.823" y1="2.834" transform="translate(0 24.253)"/><line class="a" x1="6.823" y1="2.834" transform="translate(0 26.679)"/><line class="a" x1="6.823" y1="2.834" transform="translate(0 29.104)"/><line class="a" x1="6.823" y1="2.834" transform="translate(0 31.529)"/></g><g transform="translate(6.668)"><line class="a" y1="2.834" x2="6.73"/><line class="a" y1="2.834" x2="6.73" transform="translate(0 2.368)"/><line class="a" y1="2.834" x2="6.73" transform="translate(0 4.736)"/><line class="a" y1="2.834" x2="6.73" transform="translate(0 7.104)"/><line class="a" y1="2.834" x2="6.73" transform="translate(0 9.472)"/><line class="a" y1="2.834" x2="6.73" transform="translate(0 11.84)"/><line class="a" y1="2.834" x2="6.73" transform="translate(0 14.208)"/><line class="a" y1="2.834" x2="6.73" transform="translate(0 16.576)"/><line class="a" y1="2.834" x2="6.73" transform="translate(0 18.944)"/><line class="a" y1="2.834" x2="6.73" transform="translate(0 21.313)"/><line class="a" y1="2.834" x2="6.73" transform="translate(0 23.681)"/><line class="a" y1="2.834" x2="6.73" transform="translate(0 26.049)"/><line class="a" y1="2.834" x2="6.73" transform="translate(0 28.417)"/><line class="a" y1="2.834" x2="6.73" transform="translate(0 30.785)"/></g></g></g></g><ellipse class="a" cx="5.396" cy="16.189" rx="5.396" ry="16.189"/><path class="a" d="M1002.7,612.11c2.981,0,5.4,7.173,5.4,16.02s-2.416,16.02-5.4,16.02h1.954c2.981,0,5.4-7.173,5.4-16.02s-2.416-16.02-5.4-16.02Z" transform="translate(-992.501 -611.941)"/><g transform="translate(10.204 0)"><path class="a" d="M1002.7,611.942c2.981,0,5.4,7.248,5.4,16.189s-2.416,16.189-5.4,16.189h1.954c2.981,0,5.4-7.247,5.4-16.189s-2.416-16.189-5.4-16.189Z" transform="translate(-1002.705 -611.942)"/><g class="d"><g transform="translate(0.403 0.341)"><line class="a" x1="6.823" y1="2.834"/><line class="a" x1="6.823" y1="2.834" transform="translate(0.057 2.339)"/><line class="a" x1="6.823" y1="2.834" transform="translate(0.115 4.679)"/><line class="a" x1="6.823" y1="2.834" transform="translate(0.172 7.018)"/><line class="a" x1="6.823" y1="2.834" transform="translate(0.229 9.358)"/><line class="a" x1="6.823" y1="2.834" transform="translate(0.286 11.697)"/><line class="a" x1="6.823" y1="2.834" transform="translate(0.344 14.037)"/><line class="a" x1="6.823" y1="2.834" transform="translate(0.401 16.376)"/><line class="a" x1="6.823" y1="2.834" transform="translate(0.458 18.715)"/><line class="a" x1="6.823" y1="2.834" transform="translate(0.515 21.055)"/><line class="a" x1="6.823" y1="2.834" transform="translate(0.573 23.394)"/><line class="a" x1="6.823" y1="2.834" transform="translate(0.63 25.734)"/><line class="a" x1="6.823" y1="2.834" transform="translate(0.687 28.073)"/><line class="a" x1="6.823" y1="2.834" transform="translate(0.744 30.413)"/></g></g></g><path class="a" d="M1000.762,612.11c2.98,0,5.4,7.173,5.4,16.02s-2.416,16.02-5.4,16.02h1.953c2.98,0,5.4-7.173,5.4-16.02s-2.416-16.02-5.4-16.02Z" transform="translate(-992.512 -611.941)"/><g transform="translate(8.25 0)"><path class="a" d="M1000.762,611.942c2.98,0,5.4,7.248,5.4,16.189s-2.416,16.189-5.4,16.189h1.953c2.98,0,5.4-7.247,5.4-16.189s-2.416-16.189-5.4-16.189Z" transform="translate(-1000.762 -611.942)"/><g class="e"><g transform="translate(-0.342 -1.892)"><line class="a" y1="2.834" x2="6.823" transform="translate(2.233)"/><line class="a" y1="2.834" x2="6.823" transform="translate(2.061 2.425)"/><line class="a" y1="2.834" x2="6.823" transform="translate(1.89 4.851)"/><line class="a" y1="2.834" x2="6.823" transform="translate(1.718 7.276)"/><line class="a" y1="2.834" x2="6.823" transform="translate(1.546 9.701)"/><line class="a" y1="2.834" x2="6.823" transform="translate(1.374 12.127)"/><line class="a" y1="2.834" x2="6.823" transform="translate(1.203 14.552)"/><line class="a" y1="2.834" x2="6.823" transform="translate(1.031 16.977)"/><line class="a" y1="2.834" x2="6.823" transform="translate(0.859 19.403)"/><line class="a" y1="2.834" x2="6.823" transform="translate(0.687 21.828)"/><line class="a" y1="2.834" x2="6.823" transform="translate(0.515 24.253)"/><line class="a" y1="2.834" x2="6.823" transform="translate(0.344 26.679)"/><line class="a" y1="2.834" x2="6.823" transform="translate(0.172 29.104)"/><line class="a" y1="2.834" x2="6.823" transform="translate(0 31.529)"/></g></g></g><g transform="translate(1.439 4.011)"><path class="a" d="M993.988,628.082a29.094,29.094,0,0,0,1.287,9.185,9.7,9.7,0,0,0,.568,1.315c.55,1.048,1.192,1.648,1.874,1.648.724,0,1.4-.672,1.971-1.838h0a11.182,11.182,0,0,0,.591-1.488,29.962,29.962,0,0,0,1.167-8.822c0-.949-.033-1.875-.1-2.763-.049-.7-.118-1.37-.2-2.017-.517-3.93-1.651-6.792-3.005-7.294a1.193,1.193,0,0,0-.676-.05c-1.379.3-2.554,3.045-3.119,6.917-.091.63-.168,1.291-.224,1.977C994.035,625.882,993.988,626.963,993.988,628.082Z" transform="translate(-993.988 -615.931)"/><g transform="translate(0.442 1.466)"><path class="a" d="M996.054,637.261c.485.923,1.05,1.452,1.652,1.452.639,0,1.233-.591,1.738-1.619l-1.5-6.707c-.086-.389-.265-.389-.353,0Z" transform="translate(-994.419 -617.32)"/><path class="a" d="M998.069,617.434l.017,8.118c0,.477.143.815.283.675l2.35-2.365C1000.262,620.4,999.263,617.876,998.069,617.434Z" transform="translate(-994.408 -617.389)"/><path class="a" d="M998.489,629.227l1.463,6.58a26.424,26.424,0,0,0,1.027-7.776c0-.837-.029-1.652-.085-2.435l-2.3,2.541A1.637,1.637,0,0,0,998.489,629.227Z" transform="translate(-994.406 -617.344)"/><path class="a" d="M994.428,628.032a25.644,25.644,0,0,0,1.134,8.1l1.568-7.059a1.639,1.639,0,0,0-.106-1.089l-2.477-2.8C994.469,626.094,994.428,627.047,994.428,628.032Z" transform="translate(-994.428 -617.346)"/><path class="a" d="M994.743,623.485l2.449,2.522c.14.145.282-.195.283-.674l.016-7.944C996.276,617.652,995.241,620.073,994.743,623.485Z" transform="translate(-994.426 -617.389)"/></g></g></g><rect width="66.565" height="30.514" transform="translate(5.315 30.092)"/><g transform="translate(7.446 43.7)"><path class="a" d="M945.507,612.123c2.981,0,5.4,7.248,5.4,16.189s-2.415,16.189-5.4,16.189h-9.49V612.123Z" transform="translate(-930.621 -612.123)"/><g transform="translate(5.396 0)"><g class="f"><g transform="translate(1.493 -1.491)"><g transform="translate(0 1.116)"><rect class="g" width="0.139" height="7.388" transform="translate(0 0.129) rotate(-67.442)"/><rect class="g" width="0.139" height="7.388" transform="translate(0 2.554) rotate(-67.442)"/><rect class="g" width="0.139" height="7.388" transform="translate(0 4.979) rotate(-67.442)"/><rect class="g" width="0.139" height="7.388" transform="translate(0 7.404) rotate(-67.442)"/><rect class="g" width="0.139" height="7.388" transform="translate(0 9.83) rotate(-67.442)"/><rect class="g" width="0.139" height="7.388" transform="matrix(0.384, -0.923, 0.923, 0.384, 0, 12.255)"/><rect class="g" width="0.139" height="7.388" transform="matrix(0.384, -0.923, 0.923, 0.384, 0, 14.681)"/><rect class="g" width="0.139" height="7.388" transform="translate(0 17.106) rotate(-67.442)"/><rect class="g" width="0.139" height="7.388" transform="translate(0 19.531) rotate(-67.443)"/><rect class="g" width="0.139" height="7.388" transform="translate(0 21.957) rotate(-67.443)"/><rect class="g" width="0.139" height="7.388" transform="translate(0 24.382) rotate(-67.443)"/><rect class="g" width="0.139" height="7.388" transform="translate(0 26.807) rotate(-67.443)"/><rect class="g" width="0.139" height="7.388" transform="translate(0 29.232) rotate(-67.443)"/><rect class="g" width="0.139" height="7.388" transform="matrix(0.384, -0.923, 0.923, 0.384, 0, 31.658)"/></g><g transform="translate(6.667)"><path class="g" d="M944.188,613.6l-.054-.128,6.73-2.834.054.128Z" transform="translate(-944.134 -610.64)"/><path class="g" d="M944.188,615.958l-.054-.128,6.73-2.834.054.128Z" transform="translate(-944.134 -610.627)"/><path class="g" d="M944.188,618.313l-.054-.128,6.73-2.834.054.128Z" transform="translate(-944.134 -610.614)"/><path class="g" d="M944.188,620.668l-.054-.128,6.73-2.834.054.128Z" transform="translate(-944.134 -610.602)"/><path class="g" d="M944.188,623.023l-.054-.128,6.73-2.834.054.128Z" transform="translate(-944.134 -610.589)"/><path class="g" d="M944.188,625.379l-.054-.128,6.73-2.834.054.128Z" transform="translate(-944.134 -610.576)"/><path class="g" d="M944.188,627.734l-.054-.128,6.73-2.834.054.128Z" transform="translate(-944.134 -610.563)"/><path class="g" d="M944.188,630.089l-.054-.128,6.73-2.834.054.128Z" transform="translate(-944.134 -610.55)"/><path class="g" d="M944.188,632.444l-.054-.128,6.73-2.834.054.128Z" transform="translate(-944.134 -610.537)"/><path class="g" d="M944.188,634.8l-.054-.128,6.73-2.834.054.128Z" transform="translate(-944.134 -610.524)"/><path class="g" d="M944.188,637.154l-.054-.128,6.73-2.834.054.128Z" transform="translate(-944.134 -610.511)"/><path class="g" d="M944.188,639.51l-.054-.128,6.73-2.834.054.128Z" transform="translate(-944.134 -610.499)"/><path class="g" d="M944.188,641.865l-.054-.128,6.73-2.834.054.128Z" transform="translate(-944.134 -610.486)"/><path class="g" d="M944.188,644.22l-.054-.128,6.73-2.834.054.128Z" transform="translate(-944.134 -610.473)"/></g></g></g></g><ellipse class="a" cx="5.396" cy="16.189" rx="5.396" ry="16.189"/><path class="a" d="M940.8,612.292c2.98,0,5.4,7.172,5.4,16.019s-2.416,16.02-5.4,16.02h1.954c2.98,0,5.4-7.172,5.4-16.02s-2.416-16.019-5.4-16.019Z" transform="translate(-930.595 -612.122)"/><g transform="translate(10.204 0)"><g class="h"><g transform="translate(0.376 0.277)"><rect class="g" width="0.139" height="7.388" transform="matrix(0.384, -0.923, 0.923, 0.384, 0, 0.129)"/><rect class="g" width="0.139" height="7.388" transform="matrix(0.384, -0.923, 0.923, 0.384, 0.057, 2.468)"/><rect class="g" width="0.139" height="7.388" transform="translate(0.115 4.807) rotate(-67.443)"/><rect class="g" width="0.139" height="7.388" transform="translate(0.172 7.147) rotate(-67.443)"/><rect class="g" width="0.139" height="7.388" transform="translate(0.229 9.486) rotate(-67.442)"/><rect class="g" width="0.139" height="7.388" transform="translate(0.286 11.826) rotate(-67.442)"/><rect class="g" width="0.139" height="7.388" transform="translate(0.344 14.165) rotate(-67.442)"/><rect class="g" width="0.139" height="7.388" transform="matrix(0.384, -0.923, 0.923, 0.384, 0.401, 16.504)"/><rect class="g" width="0.139" height="7.388" transform="translate(0.458 18.844) rotate(-67.441)"/><rect class="g" width="0.139" height="7.388" transform="matrix(0.384, -0.923, 0.923, 0.384, 0.516, 21.183)"/><rect class="g" width="0.139" height="7.388" transform="translate(0.573 23.523) rotate(-67.441)"/><rect class="g" width="0.139" height="7.388" transform="translate(0.63 25.862) rotate(-67.441)"/><rect class="g" width="0.139" height="7.388" transform="translate(0.687 28.202) rotate(-67.441)"/><rect class="g" width="0.139" height="7.388" transform="matrix(0.384, -0.923, 0.923, 0.384, 0.745, 30.541)"/></g></g></g><path class="a" d="M938.856,612.292c2.98,0,5.4,7.172,5.4,16.019s-2.416,16.02-5.4,16.02h1.954c2.98,0,5.4-7.172,5.4-16.02s-2.416-16.019-5.4-16.019Z" transform="translate(-930.606 -612.122)"/><g transform="translate(8.25 0)"><g class="i"><g transform="translate(-0.368 -1.958)"><rect class="g" width="7.388" height="0.139" transform="translate(2.233 2.838) rotate(-22.593)"/><rect class="g" width="7.388" height="0.139" transform="translate(2.062 5.264) rotate(-22.593)"/><rect class="g" width="7.388" height="0.139" transform="translate(1.89 7.689) rotate(-22.593)"/><rect class="g" width="7.388" height="0.139" transform="translate(1.718 10.114) rotate(-22.593)"/><rect class="g" width="7.388" height="0.139" transform="translate(1.546 12.54) rotate(-22.593)"/><rect class="g" width="7.388" height="0.139" transform="translate(1.374 14.965) rotate(-22.593)"/><rect class="g" width="7.388" height="0.139" transform="translate(1.203 17.39) rotate(-22.593)"/><rect class="g" width="7.388" height="0.139" transform="translate(1.031 19.816) rotate(-22.593)"/><rect class="g" width="7.388" height="0.139" transform="translate(0.859 22.241) rotate(-22.593)"/><rect class="g" width="7.388" height="0.139" transform="translate(0.687 24.666) rotate(-22.593)"/><rect class="g" width="7.388" height="0.139" transform="translate(0.515 27.092) rotate(-22.593)"/><rect class="g" width="7.388" height="0.139" transform="translate(0.344 29.517) rotate(-22.593)"/><rect class="g" width="7.388" height="0.139" transform="translate(0.172 31.942) rotate(-22.593)"/><rect class="g" width="7.388" height="0.139" transform="translate(0 34.368) rotate(-22.593)"/></g></g></g><g transform="translate(1.439 4.011)"><path class="j" d="M932.082,628.263a29.065,29.065,0,0,0,1.287,9.185,9.69,9.69,0,0,0,.567,1.315c.551,1.048,1.192,1.648,1.874,1.648.725,0,1.4-.672,1.972-1.838h0a11.1,11.1,0,0,0,.591-1.488,29.963,29.963,0,0,0,1.166-8.822c0-.949-.033-1.875-.1-2.763-.049-.7-.118-1.369-.2-2.017-.518-3.929-1.652-6.791-3.005-7.293a1.226,1.226,0,0,0-.425-.078,1.24,1.24,0,0,0-.25.027c-1.38.3-2.554,3.045-3.119,6.917-.091.63-.168,1.292-.225,1.977C932.128,626.063,932.082,627.144,932.082,628.263Z" transform="translate(-932.082 -616.112)"/><g transform="translate(0.441 1.466)"><path class="a" d="M934.147,637.442c.486.923,1.051,1.453,1.652,1.453.638,0,1.233-.592,1.737-1.62l-1.5-6.706c-.088-.39-.265-.39-.353,0Z" transform="translate(-932.512 -617.5)"/><path class="a" d="M936.163,617.615l.017,8.118c0,.477.143.815.283.675l2.349-2.365C938.356,620.579,937.355,618.057,936.163,617.615Z" transform="translate(-932.501 -617.57)"/><path class="a" d="M936.582,629.408l1.463,6.58a26.384,26.384,0,0,0,1.029-7.775c0-.838-.029-1.653-.087-2.436l-2.3,2.542A1.633,1.633,0,0,0,936.582,629.408Z" transform="translate(-932.499 -617.525)"/><path class="a" d="M932.521,628.215a25.614,25.614,0,0,0,1.135,8.095l1.567-7.059a1.645,1.645,0,0,0-.105-1.089l-2.479-2.8C932.563,626.275,932.521,627.228,932.521,628.215Z" transform="translate(-932.521 -617.527)"/><path class="a" d="M932.836,623.666l2.449,2.522c.141.145.284-.194.285-.674l.015-7.944C934.369,617.833,933.335,620.254,932.836,623.666Z" transform="translate(-932.519 -617.57)"/></g></g></g><g transform="translate(107.084 43.906)"><path class="a" d="M1049.486,612.328c6.471,0,11.717,7.194,11.717,16.067s-5.245,16.066-11.717,16.066h-8.415V612.328Z" transform="translate(-1029.684 -612.328)"/><g transform="translate(18.359)"><g class="k"><g transform="translate(1.286 -1.484)"><path class="g" d="M1049.311,613.794l-.027-.137,14.563-2.8.027.137Z" transform="translate(-1049.284 -610.852)"/><path class="g" d="M1049.311,616.124l-.027-.137,14.563-2.8.027.137Z" transform="translate(-1049.284 -610.84)"/><path class="g" d="M1049.311,618.455l-.027-.137,14.563-2.8.027.137Z" transform="translate(-1049.284 -610.827)"/><path class="g" d="M1049.311,620.786l-.027-.137,14.563-2.8.027.137Z" transform="translate(-1049.284 -610.814)"/><path class="g" d="M1049.311,623.116l-.027-.137,14.563-2.8.027.137Z" transform="translate(-1049.284 -610.801)"/><path class="g" d="M1049.311,625.447l-.027-.137,14.563-2.8.027.137Z" transform="translate(-1049.284 -610.789)"/><path class="g" d="M1049.311,627.778l-.027-.137,14.563-2.8.027.137Z" transform="translate(-1049.284 -610.776)"/><path class="g" d="M1049.311,630.108l-.027-.137,14.563-2.8.027.137Z" transform="translate(-1049.284 -610.763)"/><path class="g" d="M1049.311,632.439l-.027-.137,14.563-2.8.027.137Z" transform="translate(-1049.284 -610.75)"/><path class="g" d="M1049.311,634.77l-.027-.137,14.563-2.8.027.137Z" transform="translate(-1049.284 -610.738)"/><path class="g" d="M1049.311,637.1l-.027-.137,14.563-2.8.027.137Z" transform="translate(-1049.284 -610.725)"/><path class="g" d="M1049.311,639.431l-.027-.137,14.563-2.8.027.137Z" transform="translate(-1049.284 -610.712)"/><path class="g" d="M1049.311,641.761l-.027-.137,14.563-2.8.027.137Z" transform="translate(-1049.284 -610.699)"/><path class="g" d="M1049.311,644.092l-.027-.137,14.563-2.8.027.137Z" transform="translate(-1049.284 -610.687)"/></g></g></g><g transform="translate(11.387)"><g class="l"><g transform="translate(-0.008 -0.376)"><g transform="translate(0 0)"><rect class="g" width="0.139" height="15.079" transform="matrix(0.187, -0.982, 0.982, 0.187, 0, 0.137)"/><rect class="g" width="0.139" height="15.079" transform="matrix(0.187, -0.982, 0.982, 0.187, 0, 2.544)"/><rect class="g" width="0.139" height="15.079" transform="matrix(0.187, -0.982, 0.982, 0.187, 0, 4.951)"/><rect class="g" width="0.139" height="15.079" transform="matrix(0.187, -0.982, 0.982, 0.187, 0, 7.358)"/><rect class="g" width="0.139" height="15.079" transform="matrix(0.187, -0.982, 0.982, 0.187, 0, 9.764)"/><rect class="g" width="0.139" height="15.079" transform="matrix(0.187, -0.982, 0.982, 0.187, 0, 12.171)"/><rect class="g" width="0.139" height="15.079" transform="matrix(0.187, -0.982, 0.982, 0.187, 0, 14.578)"/><rect class="g" width="0.139" height="15.079" transform="matrix(0.187, -0.982, 0.982, 0.187, 0, 16.985)"/><rect class="g" width="0.139" height="15.079" transform="matrix(0.187, -0.982, 0.982, 0.187, 0, 19.392)"/><rect class="g" width="0.139" height="15.079" transform="matrix(0.187, -0.982, 0.982, 0.187, 0, 21.799)"/><rect class="g" width="0.139" height="15.079" transform="matrix(0.187, -0.982, 0.982, 0.187, 0, 24.206)"/><rect class="g" width="0.139" height="15.079" transform="matrix(0.187, -0.982, 0.982, 0.187, 0, 26.613)"/><rect class="g" width="0.139" height="15.079" transform="matrix(0.187, -0.982, 0.982, 0.187, 0, 29.02)"/><rect class="g" width="0.139" height="15.079" transform="matrix(0.187, -0.982, 0.982, 0.187, 0, 31.427)"/></g></g></g></g><ellipse class="a" cx="11.717" cy="16.067" rx="11.717" ry="16.067" transform="translate(0 0)"/><path class="a" d="M1045.555,612.328c6.47,0,11.717,7.15,11.717,15.969s-5.246,15.969-11.717,15.969h1.606c6.47,0,11.717-7.15,11.717-15.969s-5.246-15.969-11.717-15.969Z" transform="translate(-1029.66 -612.328)"/><g transform="translate(15.894)"><g class="m"><g transform="translate(0.861 0.271)"><rect class="g" width="0.139" height="15.079" transform="matrix(0.187, -0.982, 0.982, 0.187, 0, 0.137)"/><rect class="g" width="0.139" height="15.079" transform="matrix(0.187, -0.982, 0.982, 0.187, 0.124, 2.458)"/><rect class="g" width="0.139" height="15.079" transform="matrix(0.187, -0.982, 0.982, 0.187, 0.249, 4.78)"/><rect class="g" width="0.139" height="15.079" transform="matrix(0.187, -0.982, 0.982, 0.187, 0.373, 7.102)"/><rect class="g" width="0.139" height="15.079" transform="matrix(0.187, -0.982, 0.982, 0.187, 0.497, 9.424)"/><rect class="g" width="0.139" height="15.079" transform="matrix(0.187, -0.982, 0.982, 0.187, 0.622, 11.745)"/><rect class="g" width="0.139" height="15.079" transform="matrix(0.187, -0.982, 0.982, 0.187, 0.746, 14.067)"/><rect class="g" width="0.139" height="15.079" transform="matrix(0.187, -0.982, 0.982, 0.187, 0.87, 16.389)"/><rect class="g" width="0.139" height="15.079" transform="matrix(0.187, -0.982, 0.982, 0.187, 0.995, 18.71)"/><rect class="g" width="0.139" height="15.079" transform="matrix(0.187, -0.982, 0.982, 0.187, 1.119, 21.032)"/><rect class="g" width="0.139" height="15.079" transform="matrix(0.187, -0.982, 0.982, 0.187, 1.243, 23.354)"/><rect class="g" width="0.139" height="15.079" transform="matrix(0.187, -0.982, 0.982, 0.187, 1.368, 25.675)"/><rect class="g" width="0.139" height="15.079" transform="matrix(0.187, -0.982, 0.982, 0.187, 1.492, 27.997)"/><rect class="g" width="0.139" height="15.079" transform="matrix(0.187, -0.982, 0.982, 0.187, 1.616, 30.319)"/></g></g></g><path class="a" d="M1043.957,612.328c6.471,0,11.717,7.15,11.717,15.969s-5.246,15.969-11.717,15.969h1.606c6.471,0,11.717-7.15,11.717-15.969s-5.246-15.969-11.717-15.969Z" transform="translate(-1029.669 -612.328)"/><g transform="translate(14.289)"><g class="n"><g transform="translate(-0.756 -1.941)"><rect class="g" width="15.079" height="0.139" transform="translate(4.849 2.804) rotate(-10.718)"/><rect class="g" width="15.079" height="0.139" transform="translate(4.476 5.211) rotate(-10.718)"/><rect class="g" width="15.079" height="0.139" transform="translate(4.103 7.618) rotate(-10.718)"/><rect class="g" width="15.079" height="0.139" transform="translate(3.73 10.025) rotate(-10.718)"/><rect class="g" width="15.079" height="0.139" transform="translate(3.357 12.432) rotate(-10.718)"/><rect class="g" width="15.079" height="0.139" transform="translate(2.984 14.839) rotate(-10.718)"/><rect class="g" width="15.079" height="0.139" transform="translate(2.611 17.246) rotate(-10.718)"/><rect class="g" width="15.079" height="0.139" transform="translate(2.238 19.653) rotate(-10.718)"/><rect class="g" width="15.079" height="0.139" transform="translate(1.865 22.06) rotate(-10.718)"/><rect class="g" width="15.079" height="0.139" transform="translate(1.492 24.467) rotate(-10.718)"/><rect class="g" width="15.079" height="0.139" transform="translate(1.119 26.874) rotate(-10.718)"/><rect class="g" width="15.079" height="0.139" transform="translate(0.746 29.281) rotate(-10.718)"/><rect class="g" width="15.079" height="0.139" transform="translate(0.373 31.687) rotate(-10.718)"/><rect class="g" width="15.079" height="0.139" transform="translate(0 34.094) rotate(-10.718)"/></g></g></g><g transform="translate(3.125 3.981)"><path class="o" d="M1032.854,628.347a15.047,15.047,0,0,0,2.8,9.115,8.848,8.848,0,0,0,1.231,1.306,6.185,6.185,0,0,0,4.07,1.635,6.256,6.256,0,0,0,4.279-1.824h0a9.43,9.43,0,0,0,1.283-1.477,15.279,15.279,0,0,0,2.533-8.755,17.594,17.594,0,0,0-.212-2.742,16.468,16.468,0,0,0-.439-2c-1.123-3.9-3.585-6.74-6.525-7.237a5.62,5.62,0,0,0-.922-.078c-.183,0-.364.01-.545.027-3,.3-5.545,3.021-6.772,6.864a15.972,15.972,0,0,0-.489,1.962A17.654,17.654,0,0,0,1032.854,628.347Z" transform="translate(-1032.854 -616.287)"/></g></g><path class="a" d="M926.894,598.687a26.669,26.669,0,0,1-1.505-3.647,16.988,16.988,0,0,1,.082-3.085,3.03,3.03,0,0,1,.331-1.427L930.679,581l1.862-.391.638,13.847Z" transform="translate(-923.233 -568.596)"/><path class="a" d="M998.106,629.914h66.444a1.817,1.817,0,0,0,1.791-1.513l2.137-12.621-70.372,1.25Z" transform="translate(-922.835 -568.403)"/><path class="p" d="M1068.8,612.255l-.264,3.693-1.044,6.1-4.793.009a1.979,1.979,0,0,1-1.214-.414l-4.219-3.25a2.968,2.968,0,0,0-1.811-.617h-28.151a2.724,2.724,0,0,0-1.539.482l-6.811,2.97a3.1,3.1,0,0,1-1.777.556h-27.5l3.559-17.569,73.4.143,1.088,2.268A11.183,11.183,0,0,1,1068.8,612.255Z" transform="translate(-922.881 -568.467)"/><path class="p" d="M1068.373,612.959l-.19,3.069-.02.129-.217,1.231-.809,4.608-5.506-.007-4.719-3.649a2.965,2.965,0,0,0-1.811-.616h.672l8.821-1.194a4.088,4.088,0,0,0,3.106-2.224Z" transform="translate(-922.524 -568.419)"/><path class="p" d="M998.4,606.37l1.775,3.645a2.863,2.863,0,0,0,2.08,1.565l21.686,3.771a3.146,3.146,0,0,0,.541.046h31.833a3.1,3.1,0,0,0,1.469-.369l7.467-4a2.534,2.534,0,0,0,1.338-2.235V604.35Z" transform="translate(-922.834 -568.466)"/><path class="q" d="M994.06,598.814l21.36,9.663,3.565.128a7.309,7.309,0,0,1,2.693.8c.514.266,5.461,3.246,5.461,3.246a6.464,6.464,0,0,0,2.224.405h24.481a2.562,2.562,0,0,0,2.216-1.245l.567-1.764c.324-1,1.639-1.261,2.429-1.458l1.456-.11,2.712-8.984Z" transform="translate(-922.857 -568.496)"/><rect class="q" width="45.997" height="9.154" transform="translate(90.528 30.951)"/><path class="p" d="M1047.5,590.757l-61.281.085-22.96-18.987-2.214-1.831-4.615-.811s15.292-.553,20.716-.553c17.8,0,41.672,1.1,47.251,2.972a29.068,29.068,0,0,1,8.864,5.434C1039.755,582.593,1047.5,590.757,1047.5,590.757Z" transform="translate(-923.063 -568.661)"/><path class="r" d="M1048.135,591.02l-61.988-.188s-5.368-7.968-9.127-12.263a44.869,44.869,0,0,0-8.376-7.367c17.515-1.3,40.032-.53,58.125,1.433a31.461,31.461,0,0,1,6.42,4.421C1039.688,582.582,1048.135,591.02,1048.135,591.02Z" transform="translate(-922.996 -568.651)"/><path class="a" d="M1042.039,589.706l-53-.239a2.432,2.432,0,0,1-1.868-.926c-5.738-7-8.565-11.354-12.866-15.036a.624.624,0,0,1,.376-1.139c11.307-.229,23.944-.193,38.828.6a89.594,89.594,0,0,1,11,1.095c3,.739,5.251,2.629,7.377,4.331,4.126,3.313,7.948,7.076,10.817,9.822A.874.874,0,0,1,1042.039,589.706Z" transform="translate(-922.967 -568.641)"/><path class="s" d="M1056.934,625.468h-29.492a.383.383,0,0,1-.223-.694l2-1.44a3.079,3.079,0,0,1,1.8-.579h22.34a3.082,3.082,0,0,1,1.8.579l2,1.44A.383.383,0,0,1,1056.934,625.468Z" transform="translate(-922.677 -568.365)"/><path class="p" d="M924.789,628.084v0l.084.483c.142.8,1.215,1.421,1.994,1.563a1.563,1.563,0,0,0,.255.03.771.771,0,0,0,.1,0h.905a1.028,1.028,0,0,0,1.029-1.037c0-.135,0-.269,0-.4,0-.275,0-.546.007-.817a56.844,56.844,0,0,1,.413-6.218c.956-7.72,3.445-13.223,6.368-13.223s5.41,5.5,6.366,13.223c.217,1.766.36,3.648.4,5.607.01.472.016.946.016,1.428h0a1.441,1.441,0,0,0,1.441,1.441H974a.608.608,0,0,0,.607-.618c0-.272-.006-.547-.006-.823,0-11.189,3.039-20.258,6.788-20.258s6.788,9.069,6.788,20.258c0,.213,0,.426,0,.638a.8.8,0,0,0,.8.8H1001.7a.026.026,0,0,0,.025-.029l-3.217-23.7v-.005a31.888,31.888,0,0,0-9.769-11.524l-.007-.008a97.021,97.021,0,0,0-10.847-15.534c-5.191-6.319-8.236-9.9-16.409-10.15a81.484,81.484,0,0,0-24.344,3c-2.691.506-2.6,1.413-2.117,2.124a.029.029,0,0,0,.024.012l.944-.083-4.766,6.078c-.817.876-.67,1.954-2.015,5.1v0l-1.224,3.755a.666.666,0,0,0,.478.855l3.387.816a.466.466,0,0,1,.343.565L931.43,593c-.345.777-1.114,3.9-2.874,4.782l-.009,0-1.64.178a.027.027,0,0,0-.015.008l-1.24,1.247-.006.012-.982,4.394v.008c.057.892.5,1.435.063,2.218h0c-.435.789.211,1.284.27,2.184Z" transform="translate(-923.237 -568.658)"/><path class="t" d="M934.491,573.262" transform="translate(-923.183 -568.636)"/><path class="p" d="M934.966,601.547a82.107,82.107,0,0,1,1.889-13.006c.844-3.835,1.633-8.672,3.07-14.457,7.12-1.441,16.5-2.246,16.5-2.246l-2.1,48.229-9.21-.024-2.825-11.87Z" transform="translate(-923.181 -568.644)"/><path class="p" d="M958.1,572.007s-4.041,16.009-5.309,22.5c-1.9,9.708.139,27.169.139,27.169l21.021.113,2.287-14.4,7.26-.978-1-16.045Z" transform="translate(-923.087 -568.643)"/><g transform="translate(0.803 24.341)"><path class="p" d="M984.9,601.4c-4.4-3.374-18.133-5.04-34.851-7.2a130.3,130.3,0,0,0-16.861-1.139l-1.753-.194a29.83,29.83,0,0,0-5.394,3.549c-2.228,2.081-2.022,6.233-1.963,7.133l.716,24.4.086.485c.142.8,1.215,1.421,1.994,1.563a1.564,1.564,0,0,0,.254.03.8.8,0,0,0,.1,0h.93a1,1,0,0,0,1-1.011c0-.143,0-.287,0-.429,0-.276,0-.546.007-.817a56.813,56.813,0,0,1,.413-6.218c.956-7.72,3.445-13.223,6.367-13.223s5.411,5.5,6.367,13.223c.217,1.766.36,3.648.4,5.608.01.471.016.946.016,1.428v.025a1.416,1.416,0,0,0,1.416,1.416h29.879a.583.583,0,0,0,.582-.592c0-.281-.007-.565-.007-.849,0-11.189,3.038-20.258,6.788-20.258s6.788,9.069,6.788,20.258c0,.221,0,.443,0,.664a.77.77,0,0,0,.772.777h4.5C991.015,619.738,986.791,602.85,984.9,601.4Z" transform="translate(-924.043 -592.87)"/></g><path class="p" d="M994.179,611.942s5.75.519,7.975,3.072c2.587,2.97-5.043,2.246-5.043,2.246Z" transform="translate(-922.857 -568.424)"/><path class="r" d="M1001.863,623.889l-.923-5.491a6.238,6.238,0,0,0-5.823-4.916c-2.151-.11-4.347-.685-4.923-2.48-1.744-5.436-4.775-10.134-8.8-10.134-3.967,0-7.4,4.627-9.054,13.921a4.84,4.84,0,0,1-4.767,3.986H949.656a4.952,4.952,0,0,1-4.872-4.074c-1.663-9.245-5.085-13.832-9.038-13.832-2.883,0-5.483,2.665-7.324,8.075a5.724,5.724,0,0,1-4.263,3.681,1.1,1.1,0,0,0-.906,1.2l.906,7.695H925.5c-.2,2.217-.307,4.539-.307,6.93,0,.52,1.475,1.032,1.484,1.544l0,0h1.279a1,1,0,0,0,1-1.011c0-.143,0-.287,0-.429a57.787,57.787,0,0,1,.42-7.035c.956-7.72,3.445-13.223,6.368-13.223s5.411,5.5,6.368,13.223a57.763,57.763,0,0,1,.42,7.035v.014A1.427,1.427,0,0,0,943.959,630h1.886q.015-.769.014-1.546c0-2.391-.108-4.713-.307-6.93h26.035c-.2,2.217-.307,4.539-.307,6.93q0,.778.014,1.546h2.737a.583.583,0,0,0,.582-.592c0-.281-.007-.565-.007-.849,0-11.189,3.038-20.258,6.788-20.258s6.788,9.069,6.788,20.258c0,.221,0,.443,0,.664a.77.77,0,0,0,.772.777h2.544q.015-.769.014-1.546a49.664,49.664,0,0,0-.308-5.576Z" transform="translate(-923.245 -568.485)"/><path class="a" d="M929.772,621.407a57.76,57.76,0,0,0-.42,7.035c0,.143,0,.287,0,.429a1,1,0,0,1-1,1.011h-1.395c-.762,0-1.855-.556-1.977-1.309l-.825-7.167Z" transform="translate(-923.24 -568.373)"/><path class="a" d="M973.486,621.407v8.476h-29.1c-.786,0-.631-.64-.631-1.427v-.014a57.564,57.564,0,0,0-.42-7.035Z" transform="translate(-923.135 -568.373)"/><path class="a" d="M1001.974,629.9H988.458v-9.491l13.515,1.277Z" transform="translate(-922.888 -568.378)"/><path class="a" d="M935.718,605.9c-4.879,0-8.832,10.219-8.832,22.825,0,.419,0,.83.013,1.245v0h1.029a.943.943,0,0,0,1-.876c0-.124,0-.248,0-.372a43.429,43.429,0,0,1,.42-6.092c.956-6.684,3.445-11.448,6.368-11.448s5.411,4.764,6.368,11.448a43.429,43.429,0,0,1,.42,6.092v.012a1.341,1.341,0,0,0,1.426,1.236h.605c.01-.414.013-.828.013-1.248C944.55,616.115,940.6,605.9,935.718,605.9Z" transform="translate(-923.225 -568.457)"/><path class="s" d="M1015.55,624.973l-1.9,2.182a.465.465,0,0,1-.351.16h-10.188a.466.466,0,0,1-.463-.419l-.214-2.183a.465.465,0,0,1,.462-.51h12.3A.465.465,0,0,1,1015.55,624.973Z" transform="translate(-922.812 -568.357)"/><path class="s" d="M1064.986,627.315h1.174l.527-3.112h-2.836a.541.541,0,0,0-.483.786l.985,1.937A.709.709,0,0,0,1064.986,627.315Z" transform="translate(-922.479 -568.357)"/><path class="a" d="M941.742,588.326l7.924.573,2.634.19,3.651.261,1.258.091.058,0,3.275.237,16.992,1.228.109.007,4.591.332c.448.03.641-1.139.271-1.658-1.166-1.641-3.069-4.218-5.246-6.852-.04-.05-.081-.1-.122-.149a53.828,53.828,0,0,0-6.788-7.042c-.325-.265-.643-.515-.959-.742-2.411-1.753-5.923-2.563-9.646-2.844-.2-.017-.394-.027-.593-.041q-1.166-.071-2.337-.077c-.126,0-.247,0-.373,0-1.108,0-2.214.034-3.292.1-14.331.809-23.835,12.214-21.25,13.638A27.288,27.288,0,0,0,941.742,588.326Z" transform="translate(-923.2 -568.644)"/><path class="s" d="M941.655,574.983c-1.135,3.845-1.537,6.591-2.591,12.969a11.057,11.057,0,0,1-2-.448,61.347,61.347,0,0,1,2.555-11.411A15.449,15.449,0,0,1,941.655,574.983Z" transform="translate(-923.169 -568.626)"/><path class="r" d="M981.985,591.189l-4.591-.332-.383-8.179c2.177,2.634,4.079,5.211,5.245,6.852C982.626,590.05,982.432,591.219,981.985,591.189Z" transform="translate(-922.951 -568.584)"/><rect class="q" width="5.142" height="2.034" rx="0.146" transform="translate(14.703 22.606) rotate(5.109)"/><rect class="q" width="5.142" height="2.034" rx="0.146" transform="translate(30.158 23.931) rotate(5.109)"/><path class="b" d="M1014.2,572.624c-2.2,2.444-.769,4.384-3.526,6.9-2.953,2.7-4.811.669-7.764,3.367-2.031,1.856-1.789,3.4-2.4,5.052a2.317,2.317,0,0,1-2.171,1.518H988.83a2.31,2.31,0,0,1-1.868-.926c-5.31-7.3-9.029-11.965-13.3-14.775a.621.621,0,0,1,.376-1.139Z" transform="translate(-922.971 -568.639)"/><path class="b" d="M969.759,575.171a.936.936,0,0,1,.337.953,5.967,5.967,0,0,1-1.953,3.406c-2.953,2.7-4.811.669-7.764,3.367-2.351,2.148-1.654,3.873-2.764,5.848a1.3,1.3,0,0,1-1.229.643l-.554-.039-2.4-.22s4.827-17.258,5.6-17.211c.2.014.4.024.593.041,3.722.281,7.234,1.092,9.646,2.844C969.433,574.921,969.595,575.043,969.759,575.171Z" transform="translate(-923.079 -568.643)"/><g transform="translate(39.653 15.169)"><path class="q" d="M979.772,589.155l-.377.852a1.931,1.931,0,0,1-1.751.992c-.495.012-1.1.022-1.806.028-3.058.037-7.793.016-11.634-.34a1.5,1.5,0,0,1-1.516-1.3c-.009-.776-.006-1.567,0-2.3.019-1.8,1.943-3.271,4.3-3.289l6.894-.056a1.954,1.954,0,0,1,2.18,1.648v2.1a.725.725,0,0,0,.825.6l1.8-.054C979.465,588.019,980.023,588.591,979.772,589.155Z" transform="translate(-962.682 -583.748)"/></g><path class="s" d="M959.633,571.961a147.988,147.988,0,0,0-3.795,17.39c-.857-.051-2.844-.217-3.651-.262a91.451,91.451,0,0,1,4.515-17.247c.78,0,1.56.03,2.337.077C959.238,571.933,959.435,571.944,959.633,571.961Z" transform="translate(-923.086 -568.644)"/><path class="a" d="M991.546,597.894c2.518,3.358,4.239,7.033,6.894,8.511,4.777,2.661,19.748,2.2,19.748,2.2l6.034-6.738c0-2.086-5.7.018-7.787-.036C1011.566,601.707,991.094,597.292,991.546,597.894Z" transform="translate(-922.871 -568.502)"/><path class="a" d="M1059.057,608.614s5.7.113,7.232-4.221a8.521,8.521,0,0,0-4.608-7.847,9.013,9.013,0,0,1-8.213,5.315Z" transform="translate(-922.533 -568.509)"/><path class="b" d="M1007.08,608.745l0,.026c-3.872-.485-7.445-1.238-8.8-2.393-.827-.706-1.76-1.465-2.732-2.306l-.818-5.066A34.671,34.671,0,0,0,999,600.2l.384.088a1.069,1.069,0,0,1,.823,1.233C999.865,603.3,1000.084,607.026,1007.08,608.745Z" transform="translate(-922.854 -568.495)"/><path class="p" d="M1048.041,590.91l13.793,5.538c2.772,1.3,4.119,5.462-1.22,5.462h-39.047s-27.957,1.032-33.424-6.894c-1.7-3.222-2.176-4.294-2.176-4.294Z" transform="translate(-922.902 -568.541)"/><path class="a" d="M1049.474,627.725v5.363l-15.129,3.831-3.506-9.245Z" transform="translate(-922.656 -568.338)"/><g transform="translate(39.382 42.974)"><g class="u"><g transform="translate(8.577 1.023)"><path class="a" d="M990.833,612.418c6.52,0,11.806,7.248,11.806,16.189s-5.286,16.19-11.806,16.19h-8.479V612.418Z" transform="translate(-970.88 -612.418)"/><g transform="translate(18.499)"><g class="v"><g transform="translate(1.296 -1.495)"><path class="g" d="M990.657,613.894l-.027-.137,14.674-2.826.027.137Z" transform="translate(-990.63 -610.931)"/><path class="g" d="M990.657,616.242l-.027-.137,14.674-2.826.027.137Z" transform="translate(-990.63 -610.918)"/><path class="g" d="M990.657,618.591l-.027-.137,14.674-2.826.027.137Z" transform="translate(-990.63 -610.906)"/><path class="g" d="M990.657,620.939l-.027-.137,14.674-2.826.027.137Z" transform="translate(-990.63 -610.893)"/><path class="g" d="M990.657,623.288l-.027-.137,14.674-2.826.027.137Z" transform="translate(-990.63 -610.88)"/><path class="g" d="M990.657,625.636l-.027-.137,14.674-2.826.027.137Z" transform="translate(-990.63 -610.867)"/><path class="g" d="M990.657,627.985l-.027-.137,14.674-2.826.027.137Z" transform="translate(-990.63 -610.854)"/><path class="g" d="M990.657,630.333l-.027-.137,14.674-2.826.027.137Z" transform="translate(-990.63 -610.841)"/><path class="g" d="M990.657,632.682l-.027-.137,14.674-2.826.027.137Z" transform="translate(-990.63 -610.828)"/><path class="g" d="M990.657,635.03l-.027-.137,14.674-2.826.027.137Z" transform="translate(-990.63 -610.816)"/><path class="g" d="M990.657,637.379l-.027-.137,14.674-2.826.027.137Z" transform="translate(-990.63 -610.803)"/><path class="g" d="M990.657,639.727l-.027-.137,14.674-2.826.027.137Z" transform="translate(-990.63 -610.79)"/><path class="g" d="M990.657,642.075l-.027-.137,14.674-2.826.027.137Z" transform="translate(-990.63 -610.777)"/><path class="g" d="M990.657,644.424l-.027-.137,14.674-2.826.027.137Z" transform="translate(-990.63 -610.764)"/></g></g></g><g transform="translate(11.474)"><g class="w"><g transform="translate(-0.008 -0.379)"><g transform="translate(0 0)"><rect class="g" width="0.139" height="15.194" transform="translate(0 0.137) rotate(-79.248)"/><rect class="g" width="0.139" height="15.194" transform="translate(0 2.562) rotate(-79.248)"/><rect class="g" width="0.139" height="15.194" transform="translate(0 4.987) rotate(-79.248)"/><rect class="g" width="0.139" height="15.194" transform="translate(0 7.413) rotate(-79.248)"/><rect class="g" width="0.139" height="15.194" transform="translate(0 9.838) rotate(-79.248)"/><rect class="g" width="0.139" height="15.194" transform="translate(0 12.263) rotate(-79.248)"/><rect class="g" width="0.139" height="15.194" transform="translate(0 14.689) rotate(-79.248)"/><rect class="g" width="0.139" height="15.194" transform="translate(0 17.114) rotate(-79.248)"/><rect class="g" width="0.139" height="15.194" transform="translate(0 19.539) rotate(-79.248)"/><rect class="g" width="0.139" height="15.194" transform="translate(0 21.965) rotate(-79.248)"/><rect class="g" width="0.139" height="15.194" transform="translate(0 24.39) rotate(-79.248)"/><rect class="g" width="0.139" height="15.194" transform="translate(0 26.815) rotate(-79.248)"/><rect class="g" width="0.139" height="15.194" transform="translate(0 29.241) rotate(-79.248)"/><rect class="g" width="0.139" height="15.194" transform="translate(0 31.666) rotate(-79.248)"/></g></g></g></g><ellipse class="a" cx="11.806" cy="16.189" rx="11.806" ry="16.189" transform="translate(0 0)"/><path class="a" d="M986.872,612.418c6.52,0,11.806,7.2,11.806,16.09S993.392,644.6,986.872,644.6h1.618c6.521,0,11.806-7.2,11.806-16.091s-5.286-16.09-11.806-16.09Z" transform="translate(-970.856 -612.418)"/><g transform="translate(16.016)"><g class="x"><g transform="translate(0.867 0.273)"><rect class="g" width="0.139" height="15.194" transform="translate(0 0.137) rotate(-79.248)"/><rect class="g" width="0.139" height="15.194" transform="translate(0.125 2.476) rotate(-79.249)"/><rect class="g" width="0.139" height="15.194" transform="matrix(0.187, -0.982, 0.982, 0.187, 0.251, 4.816)"/><rect class="g" width="0.139" height="15.194" transform="translate(0.376 7.155) rotate(-79.249)"/><rect class="g" width="0.139" height="15.194" transform="translate(0.501 9.494) rotate(-79.249)"/><rect class="g" width="0.139" height="15.194" transform="translate(0.626 11.834) rotate(-79.249)"/><rect class="g" width="0.139" height="15.194" transform="translate(0.752 14.173) rotate(-79.249)"/><rect class="g" width="0.139" height="15.194" transform="translate(0.877 16.513) rotate(-79.249)"/><rect class="g" width="0.139" height="15.194" transform="translate(1.002 18.852) rotate(-79.249)"/><rect class="g" width="0.139" height="15.194" transform="matrix(0.187, -0.982, 0.982, 0.187, 1.127, 21.192)"/><rect class="g" width="0.139" height="15.194" transform="translate(1.253 23.531) rotate(-79.249)"/><rect class="g" width="0.139" height="15.194" transform="matrix(0.187, -0.982, 0.982, 0.187, 1.378, 25.87)"/><rect class="g" width="0.139" height="15.194" transform="matrix(0.187, -0.982, 0.982, 0.187, 1.503, 28.21)"/><rect class="g" width="0.139" height="15.194" transform="matrix(0.187, -0.982, 0.982, 0.187, 1.628, 30.549)"/></g></g></g><path class="a" d="M985.262,612.418c6.52,0,11.806,7.2,11.806,16.09S991.782,644.6,985.262,644.6h1.618c6.52,0,11.806-7.2,11.806-16.091s-5.286-16.09-11.806-16.09Z" transform="translate(-970.865 -612.418)"/><g transform="translate(14.398)"><g class="y"><g transform="translate(-0.762 -1.956)"><rect class="g" width="15.194" height="0.139" transform="translate(4.886 2.826) rotate(-10.718)"/><rect class="g" width="15.194" height="0.139" transform="translate(4.51 5.251) rotate(-10.718)"/><rect class="g" width="15.194" height="0.139" transform="translate(4.134 7.676) rotate(-10.718)"/><rect class="g" width="15.194" height="0.139" transform="translate(3.758 10.102) rotate(-10.718)"/><rect class="g" width="15.194" height="0.139" transform="translate(3.382 12.527) rotate(-10.718)"/><rect class="g" width="15.194" height="0.139" transform="translate(3.007 14.952) rotate(-10.718)"/><rect class="g" width="15.194" height="0.139" transform="translate(2.631 17.377) rotate(-10.718)"/><rect class="g" width="15.194" height="0.139" transform="translate(2.255 19.803) rotate(-10.718)"/><rect class="g" width="15.194" height="0.139" transform="translate(1.879 22.228) rotate(-10.718)"/><rect class="g" width="15.194" height="0.139" transform="translate(1.503 24.653) rotate(-10.718)"/><rect class="g" width="15.194" height="0.139" transform="translate(1.127 27.079) rotate(-10.718)"/><rect class="g" width="15.194" height="0.139" transform="translate(0.752 29.504) rotate(-10.718)"/><rect class="g" width="15.194" height="0.139" transform="translate(0.376 31.929) rotate(-10.718)"/><rect class="g" width="15.194" height="0.139" transform="translate(0 34.355) rotate(-10.718)"/></g></g></g><g transform="translate(3.148 4.011)"><path class="j" d="M974.074,628.558a15.162,15.162,0,0,0,2.816,9.185,8.9,8.9,0,0,0,1.241,1.315,6.228,6.228,0,0,0,4.1,1.648,6.307,6.307,0,0,0,4.313-1.837h0a9.56,9.56,0,0,0,1.293-1.489,15.4,15.4,0,0,0,2.552-8.822,17.68,17.68,0,0,0-.213-2.763,16.448,16.448,0,0,0-.442-2.017c-1.131-3.929-3.614-6.791-6.576-7.293a5.6,5.6,0,0,0-.929-.078c-.184,0-.366.01-.548.027-3.02.3-5.587,3.044-6.824,6.917a16.039,16.039,0,0,0-.492,1.977A17.733,17.733,0,0,0,974.074,628.558Z" transform="translate(-974.074 -616.407)"/><g transform="translate(0.967 1.467)"><path class="a" d="M978.593,637.737a5.487,5.487,0,0,0,3.615,1.453,5.564,5.564,0,0,0,3.8-1.62l-3.281-6.706a.4.4,0,0,0-.772,0Z" transform="translate(-975.017 -617.797)"/><path class="a" d="M983,617.91l.037,8.118c0,.478.313.815.619.675l5.139-2.365C987.8,620.874,985.613,618.352,983,617.91Z" transform="translate(-974.992 -617.866)"/><path class="a" d="M983.922,629.7l3.2,6.579a13.575,13.575,0,0,0,2.249-7.775,15.515,15.515,0,0,0-.189-2.435l-5.027,2.541A.875.875,0,0,0,983.922,629.7Z" transform="translate(-974.988 -617.821)"/><path class="a" d="M975.036,628.509a13.367,13.367,0,0,0,2.483,8.1l3.428-7.059a.879.879,0,0,0-.231-1.089l-5.421-2.8A15.6,15.6,0,0,0,975.036,628.509Z" transform="translate(-975.036 -617.823)"/><path class="a" d="M975.725,623.962l5.359,2.521c.307.145.619-.194.621-.674l.034-7.943C979.078,618.128,976.815,620.55,975.725,623.962Z" transform="translate(-975.032 -617.866)"/></g></g></g></g></g><path class="a" d="M981.126,605.439c-4.879,0-8.832,10.414-8.832,23.26,0,.428,0,.849.013,1.272h1.015a.549.549,0,0,0,.581-.523q-.006-.373-.006-.749c0-9.872,3.48-17.874,7.229-17.874s6.788,8,6.788,17.874c0,.2,0,.391,0,.586a.728.728,0,0,0,.772.686h1.262c.011-.422.014-.844.014-1.272C989.958,615.853,986,605.439,981.126,605.439Z" transform="translate(-922.976 -568.46)"/><path class="z" d="M299.26,641.721l-1.344.731,5.106,5.094-1.344-5.094,1.344-.731-5.106-5.094Z" transform="translate(-182.969 -603.214)"/></g><path class="p" d="M1020.227,603.552l-2.985,3.317a.421.421,0,0,1-.278.139l-.047,0c-1.333.048-2.643.034-3.964-.014s-2.633-.144-3.946-.283l-.043,0a.437.437,0,0,1-.293-.163l-1.275-1.638.249.108c-.74-.021-1.456-.082-2.178-.166s-1.435-.2-2.146-.337-1.417-.308-2.115-.508a21.2,21.2,0,0,1-2.059-.706.255.255,0,0,1,.18-.477l.008,0a20.641,20.641,0,0,0,2.02.645q1.026.272,2.074.451c.7.121,1.4.218,2.107.286s1.418.112,2.11.117a.337.337,0,0,1,.221.082l.028.024,1.574,1.353-.336-.167q1.924.234,3.868.34c1.291.069,2.6.1,3.877.078l-.326.143,3.314-2.989a.256.256,0,0,1,.361.361Z" transform="translate(0.444 0.187)"/><path class="p" d="M1057.387,603.2l3.253,2.893-.382-.14a6.931,6.931,0,0,0,1.088-.193,7.184,7.184,0,0,0,1.06-.365,5.366,5.366,0,0,0,.964-.542,4.479,4.479,0,0,0,.8-.735l-.083.19c.158-.619.29-1.243.406-1.868l0-.018a.259.259,0,0,1,.065-.127l.591-.623a.255.255,0,0,1,.38.341l-.556.655.068-.145c-.073.633-.13,1.267-.162,1.905l-.083.191h0a5.288,5.288,0,0,1-.925.914,6.23,6.23,0,0,1-1.1.671,8.2,8.2,0,0,1-1.184.456,7.786,7.786,0,0,1-1.259.266h-.067a.427.427,0,0,1-.315-.14l-2.926-3.223a.256.256,0,0,1,.359-.363Z" transform="translate(0.761 0.18)"/><path class="aa" d="M918.37,643.348a18.731,18.731,0,0,1,3.433-.975l150.519.73a.394.394,0,0,1,.357.422s7.831.83,0,1.383-68.408,1.23-68.408,1.23l-86.438-1.612C917.6,643.5,918.37,643.348,918.37,643.348Z" transform="translate(0 0.403)"/></g></svg>