<svg xmlns="http://www.w3.org/2000/svg" xmlns:xlink="http://www.w3.org/1999/xlink" width="160" height="80" viewBox="0 0 160 80"><defs><style>.a,.c,.u{fill:none;}.b{fill:#ccc;}.c{stroke:#282828;stroke-miterlimit:10;stroke-width:0.047px;}.d{fill:#141414;}.e{clip-path:url(#a);}.f{clip-path:url(#b);}.g{clip-path:url(#c);}.h{clip-path:url(#d);}.i{clip-path:url(#e);}.j{clip-path:url(#f);}.k{fill:#3b3b3b;}.l{clip-path:url(#g);}.m{clip-path:url(#h);}.n{clip-path:url(#i);}.o{fill:#7d7d7d;}.p{fill:url(#j);}.q{fill:#dcddde;}.r{fill:#b6b6b6;}.s{fill:#e6e6e6;}.t{fill:#d3d8ff;}.u{opacity:0.1;}.v{clip-path:url(#n);}.w{clip-path:url(#o);}.x{clip-path:url(#p);}.y{clip-path:url(#q);}.z{clip-path:url(#r);}.aa{opacity:0.2;}.ab{fill:#12d288;}</style><clipPath id="a"><path class="a" d="M581.734,613.077c3.214,0,5.819,7.814,5.819,17.456s-2.6,17.454-5.819,17.454h2.107c3.213,0,5.819-7.815,5.819-17.454s-2.606-17.456-5.819-17.456Z" transform="translate(-581.734 -613.077)"/></clipPath><clipPath id="b"><path class="a" d="M579.916,613.077c3.213,0,5.818,7.814,5.818,17.456s-2.6,17.454-5.818,17.454h2.106c3.214,0,5.819-7.815,5.819-17.454s-2.6-17.456-5.819-17.456Z" transform="translate(-579.916 -613.077)"/></clipPath><clipPath id="c"><path class="a" d="M645.936,613.236c7.031,0,12.73,7.814,12.73,17.456,0,9.542-5.584,17.3-12.516,17.452-.071,0-1.709,0-1.781,0,0,0,11.971-3.747,11.971-17.851C656.341,617.044,645.936,613.236,645.936,613.236Z" transform="translate(-644.369 -613.236)"/></clipPath><clipPath id="d"><path class="a" d="M641.243,613.236c7.03,0,12.73,7.814,12.73,17.456s-5.7,17.455-12.73,17.455H637.83v-34.91Z" transform="translate(-637.83 -613.236)"/></clipPath><clipPath id="e"><path class="a" d="M642.058,613.236c7.03,0,12.729,7.814,12.729,17.456s-5.7,17.455-12.729,17.455H643.8c7.03,0,12.729-7.815,12.729-17.455s-5.7-17.456-12.729-17.456Z" transform="translate(-642.058 -613.236)"/></clipPath><clipPath id="f"><path class="a" d="M640.551,613.236c7.03,0,12.729,7.814,12.729,17.456s-5.7,17.455-12.729,17.455H642.3c7.03,0,12.73-7.815,12.73-17.455s-5.7-17.456-12.73-17.456Z" transform="translate(-640.551 -613.236)"/></clipPath><clipPath id="g"><path class="a" d="M546.7,612.952c3.214,0,5.819,7.814,5.819,17.454s-2.6,17.456-5.819,17.456H536.467v-34.91Z" transform="translate(-536.467 -612.952)"/></clipPath><clipPath id="h"><path class="a" d="M540.942,612.952c3.213,0,5.818,7.814,5.818,17.454s-2.6,17.456-5.818,17.456h2.107c3.213,0,5.818-7.815,5.818-17.456s-2.6-17.454-5.818-17.454Z" transform="translate(-540.942 -612.952)"/></clipPath><clipPath id="i"><path class="a" d="M539.123,612.952c3.214,0,5.819,7.814,5.819,17.454s-2.6,17.456-5.819,17.456h2.107c3.213,0,5.818-7.815,5.818-17.456s-2.6-17.454-5.818-17.454Z" transform="translate(-539.123 -612.952)"/></clipPath><linearGradient id="j" y1="0.5" x2="1" y2="0.5" gradientUnits="objectBoundingBox"><stop offset="0" stop-color="#fff"/><stop offset="1" stop-color="#fff"/></linearGradient><clipPath id="n"><path class="a" d="M580.824,651.2l24.426,1.463,2.97-15.2-7.723-.045-9.326-1.132a.923.923,0,0,1-1-1.071c.186-9.279-1.349-17.43-5.492-21.975A24.359,24.359,0,0,0,563.1,628.41Z" transform="translate(-563.102 -613.235)"/></clipPath><clipPath id="o"><path class="a" d="M589.41,613.757c6.908,0,12.509,7.816,12.509,17.456,0,9.543-5.488,17.3-12.3,17.452-.071,0-1.681,0-1.751,0,0,0,11.764-3.748,11.764-17.852C599.634,617.565,589.41,613.757,589.41,613.757Z" transform="translate(-587.87 -613.757)"/></clipPath><clipPath id="p"><path class="a" d="M584.8,613.757c6.908,0,12.508,7.816,12.508,17.456s-5.6,17.456-12.508,17.456h-3.355V613.757Z" transform="translate(-581.444 -613.757)"/></clipPath><clipPath id="q"><path class="a" d="M585.6,613.757c6.908,0,12.509,7.816,12.509,17.456s-5.6,17.456-12.509,17.456h1.714c6.908,0,12.509-7.816,12.509-17.456s-5.6-17.456-12.509-17.456Z" transform="translate(-585.599 -613.757)"/></clipPath><clipPath id="r"><path class="a" d="M584.118,613.757c6.909,0,12.509,7.816,12.509,17.456s-5.6,17.456-12.509,17.456h1.714c6.909,0,12.509-7.816,12.509-17.456s-5.6-17.456-12.509-17.456Z" transform="translate(-584.118 -613.757)"/></clipPath></defs><g transform="translate(-520.171 -578.202)"><path class="b" d="M635.6,594.112l-.911,5.707a1.061,1.061,0,0,0,.9,1.3c1.788-.024,5.19-.072,6.14-.1,1.308-.036,4.121.046,4.077-4.3-.043-4.291-4.2-3.794-5.769-3.769-1.009.016-2.487.066-3.415.1A1.156,1.156,0,0,0,635.6,594.112Z" transform="translate(18.117 2.331)"/><rect width="14.536" height="25.554" transform="translate(531.56 615.674)"/><g transform="translate(582.025 617.057)"><g transform="translate(5.905)"><g transform="translate(0 1.204)"><line class="c" x1="7.357" y1="3.056"/></g><g transform="translate(7.189)"><line class="c" y1="3.056" x2="7.256"/><line class="c" y1="3.056" x2="7.256" transform="translate(0 2.553)"/><line class="c" y1="3.056" x2="7.256" transform="translate(0 5.106)"/><line class="c" y1="3.056" x2="7.256" transform="translate(0 7.66)"/><line class="c" y1="3.056" x2="7.256" transform="translate(0 10.213)"/><line class="c" y1="3.056" x2="7.256" transform="translate(0 12.766)"/><line class="c" y1="3.056" x2="7.256" transform="translate(0 15.319)"/><line class="c" y1="3.056" x2="7.256" transform="translate(0 17.873)"/><line class="c" y1="3.056" x2="7.256" transform="translate(0 20.426)"/><line class="c" y1="3.056" x2="7.256" transform="translate(0 22.979)"/><line class="c" y1="3.056" x2="7.256" transform="translate(0 25.532)"/><line class="c" y1="3.056" x2="7.256" transform="translate(0 28.085)"/><line class="c" y1="3.056" x2="7.256" transform="translate(0 30.639)"/><line class="c" y1="3.056" x2="7.256" transform="translate(0 33.192)"/></g></g><path class="d" d="M581.734,613.235c3.214,0,5.819,7.734,5.819,17.273s-2.6,17.271-5.819,17.271h2.107c3.213,0,5.819-7.732,5.819-17.271s-2.606-17.273-5.819-17.273Z" transform="translate(-572.284 -611.514)"/><g transform="translate(9.45 1.538)"><g class="e"><g transform="translate(0.435 0.368)"><line class="c" x1="7.357" y1="3.056"/><line class="c" x1="7.357" y1="3.056" transform="translate(0.062 2.522)"/><line class="c" x1="7.357" y1="3.056" transform="translate(0.123 5.045)"/><line class="c" x1="7.357" y1="3.056" transform="translate(0.185 7.567)"/><line class="c" x1="7.357" y1="3.056" transform="translate(0.247 10.089)"/><line class="c" x1="7.357" y1="3.056" transform="translate(0.309 12.612)"/><line class="c" x1="7.357" y1="3.056" transform="translate(0.37 15.134)"/><line class="c" x1="7.357" y1="3.056" transform="translate(0.432 17.656)"/><line class="c" x1="7.357" y1="3.056" transform="translate(0.494 20.179)"/><line class="c" x1="7.357" y1="3.056" transform="translate(0.556 22.701)"/><line class="c" x1="7.357" y1="3.056" transform="translate(0.617 25.223)"/><line class="c" x1="7.357" y1="3.056" transform="translate(0.679 27.746)"/><line class="c" x1="7.357" y1="3.056" transform="translate(0.741 30.268)"/><line class="c" x1="7.357" y1="3.056" transform="translate(0.803 32.79)"/></g></g></g><path class="d" d="M579.916,613.235c3.213,0,5.818,7.734,5.818,17.273s-2.6,17.271-5.818,17.271h2.106c3.214,0,5.819-7.732,5.819-17.271s-2.6-17.273-5.819-17.273Z" transform="translate(-572.572 -611.514)"/><g transform="translate(7.344 1.538)"><g class="f"><g transform="translate(-0.369 -2.04)"><line class="c" y1="3.056" x2="7.357" transform="translate(2.408)"/><line class="c" y1="3.056" x2="7.357" transform="translate(2.223 2.615)"/><line class="c" y1="3.056" x2="7.357" transform="translate(2.037 5.23)"/><line class="c" y1="3.056" x2="7.357" transform="translate(1.852 7.845)"/><line class="c" y1="3.056" x2="7.357" transform="translate(1.667 10.46)"/><line class="c" y1="3.056" x2="7.357" transform="translate(1.482 13.075)"/><line class="c" y1="3.056" x2="7.357" transform="translate(1.297 15.69)"/><line class="c" y1="3.056" x2="7.357" transform="translate(1.111 18.305)"/><line class="c" y1="3.056" x2="7.357" transform="translate(0.926 20.92)"/><line class="c" y1="3.056" x2="7.357" transform="translate(0.741 23.535)"/><line class="c" y1="3.056" x2="7.357" transform="translate(0.556 26.15)"/><line class="c" y1="3.056" x2="7.357" transform="translate(0.37 28.764)"/><line class="c" y1="3.056" x2="7.357" transform="translate(0.185 31.379)"/><line class="c" y1="3.056" x2="7.357" transform="translate(0 33.994)"/></g></g></g><g transform="translate(0 5.863)"><path class="d" d="M573.575,629.912a31.359,31.359,0,0,0,1.388,9.9,10.57,10.57,0,0,0,.612,1.419c.594,1.129,1.286,1.777,2.021,1.777.782,0,1.508-.724,2.125-1.982h0a11.944,11.944,0,0,0,.637-1.6,32.283,32.283,0,0,0,1.259-9.513c0-1.023-.036-2.021-.107-2.979-.052-.753-.126-1.477-.217-2.175-.558-4.237-1.781-7.321-3.241-7.863a1.291,1.291,0,0,0-.729-.055c-1.488.322-2.754,3.282-3.363,7.458-.1.68-.181,1.392-.242,2.131C573.626,627.54,573.575,628.706,573.575,629.912Z" transform="translate(-573.575 -616.811)"/></g></g><g transform="translate(644.075 618.779)"><path class="d" d="M646.971,613.236c7.03,0,12.73,7.814,12.73,17.456s-5.7,17.455-12.73,17.455H637.83v-34.91Z" transform="translate(-625.459 -613.236)"/><g transform="translate(19.945 0)"><g class="g"><g transform="translate(1.412 -1.538)"><line class="c" y1="3.047" x2="15.822"/><line class="c" y1="3.047" x2="15.822" transform="translate(0 2.546)"/><line class="c" y1="3.047" x2="15.822" transform="translate(0 5.092)"/><line class="c" y1="3.047" x2="15.822" transform="translate(0 7.638)"/><line class="c" y1="3.047" x2="15.822" transform="translate(0 10.184)"/><line class="c" y1="3.047" x2="15.822" transform="translate(0 12.729)"/><line class="c" y1="3.047" x2="15.822" transform="translate(0 15.275)"/><line class="c" y1="3.047" x2="15.822" transform="translate(0 17.821)"/><line class="c" y1="3.047" x2="15.822" transform="translate(0 20.367)"/><line class="c" y1="3.047" x2="15.822" transform="translate(0 22.913)"/><line class="c" y1="3.047" x2="15.822" transform="translate(0 25.459)"/><line class="c" y1="3.047" x2="15.822" transform="translate(0 28.005)"/><line class="c" y1="3.047" x2="15.822" transform="translate(0 30.551)"/><line class="c" y1="3.047" x2="15.822" transform="translate(0 33.097)"/></g></g></g><g transform="translate(12.372 0)"><g class="h"><g transform="translate(0.005 -0.334)"><line class="c" x1="16.094" y1="3.056"/><line class="c" x1="16.094" y1="3.056" transform="translate(0 2.615)"/><line class="c" x1="16.094" y1="3.056" transform="translate(0 5.23)"/><line class="c" x1="16.094" y1="3.056" transform="translate(0 7.845)"/><line class="c" x1="16.094" y1="3.056" transform="translate(0 10.46)"/><line class="c" x1="16.094" y1="3.056" transform="translate(0 13.075)"/><line class="c" x1="16.094" y1="3.056" transform="translate(0 15.69)"/><line class="c" x1="16.094" y1="3.056" transform="translate(0 18.305)"/><line class="c" x1="16.094" y1="3.056" transform="translate(0 20.92)"/><line class="c" x1="16.094" y1="3.056" transform="translate(0 23.535)"/><line class="c" x1="16.094" y1="3.056" transform="translate(0 26.15)"/><line class="c" x1="16.094" y1="3.056" transform="translate(0 28.764)"/><line class="c" x1="16.094" y1="3.056" transform="translate(0 31.379)"/><line class="c" x1="16.094" y1="3.056" transform="translate(0 33.994)"/></g></g></g><ellipse class="d" cx="12.729" cy="17.455" rx="12.729" ry="17.455" transform="translate(0 0)"/><path class="d" d="M642.058,613.236c7.03,0,12.729,7.767,12.729,17.349s-5.7,17.348-12.729,17.348H643.8c7.03,0,12.729-7.767,12.729-17.348s-5.7-17.349-12.729-17.349Z" transform="translate(-624.79 -613.236)"/><g transform="translate(17.268 0)"><g class="i"><g transform="translate(0.949 0.368)"><line class="c" x1="16.094" y1="3.056"/><line class="c" x1="16.094" y1="3.056" transform="translate(0.135 2.522)"/><line class="c" x1="16.094" y1="3.056" transform="translate(0.27 5.045)"/><line class="c" x1="16.094" y1="3.056" transform="translate(0.405 7.567)"/><line class="c" x1="16.094" y1="3.056" transform="translate(0.54 10.089)"/><line class="c" x1="16.094" y1="3.056" transform="translate(0.675 12.612)"/><line class="c" x1="16.094" y1="3.056" transform="translate(0.81 15.134)"/><line class="c" x1="16.094" y1="3.056" transform="translate(0.946 17.656)"/><line class="c" x1="16.094" y1="3.056" transform="translate(1.081 20.179)"/><line class="c" x1="16.094" y1="3.056" transform="translate(1.216 22.701)"/><line class="c" x1="16.094" y1="3.056" transform="translate(1.351 25.223)"/><line class="c" x1="16.094" y1="3.056" transform="translate(1.486 27.746)"/><line class="c" x1="16.094" y1="3.056" transform="translate(1.621 30.268)"/><line class="c" x1="16.094" y1="3.056" transform="translate(1.756 32.79)"/></g></g></g><path class="d" d="M640.551,613.236c7.03,0,12.729,7.767,12.729,17.349s-5.7,17.348-12.729,17.348H642.3c7.03,0,12.73-7.767,12.73-17.348s-5.7-17.349-12.73-17.349Z" transform="translate(-625.028 -613.236)"/><g transform="translate(15.523 0)"><g class="j"><g transform="translate(-0.806 -2.04)"><line class="c" y1="3.056" x2="16.094" transform="translate(5.268)"/><line class="c" y1="3.056" x2="16.094" transform="translate(4.863 2.615)"/><line class="c" y1="3.056" x2="16.094" transform="translate(4.457 5.23)"/><line class="c" y1="3.056" x2="16.094" transform="translate(4.052 7.845)"/><line class="c" y1="3.056" x2="16.094" transform="translate(3.647 10.46)"/><line class="c" y1="3.056" x2="16.094" transform="translate(3.242 13.075)"/><line class="c" y1="3.056" x2="16.094" transform="translate(2.837 15.69)"/><line class="c" y1="3.056" x2="16.094" transform="translate(2.431 18.305)"/><line class="c" y1="3.056" x2="16.094" transform="translate(2.026 20.92)"/><line class="c" y1="3.056" x2="16.094" transform="translate(1.621 23.535)"/><line class="c" y1="3.056" x2="16.094" transform="translate(1.216 26.15)"/><line class="c" y1="3.056" x2="16.094" transform="translate(0.81 28.764)"/><line class="c" y1="3.056" x2="16.094" transform="translate(0.405 31.379)"/><line class="c" y1="3.056" x2="16.094" transform="translate(0 33.994)"/></g></g></g><g transform="translate(3.394 4.325)"><path class="k" d="M630.079,630.071a16.356,16.356,0,0,0,3.037,9.9,9.666,9.666,0,0,0,1.338,1.419,6.719,6.719,0,0,0,4.422,1.777,6.8,6.8,0,0,0,4.649-1.982h0a10.379,10.379,0,0,0,1.395-1.6,16.612,16.612,0,0,0,2.752-9.513,19.052,19.052,0,0,0-.23-2.979,17.958,17.958,0,0,0-.476-2.175c-1.221-4.237-3.9-7.321-7.091-7.863a6.132,6.132,0,0,0-1-.083c-.2,0-.4.01-.592.029-3.256.322-6.025,3.282-7.357,7.458a17.092,17.092,0,0,0-.531,2.131A19.09,19.09,0,0,0,630.079,630.071Z" transform="translate(-630.079 -616.97)"/></g></g><path class="d" d="M648.5,629.624v5.354l-16.436,4.162-4.337-9.571Z" transform="translate(17.018 8.128)"/><g transform="translate(533.227 618.45)"><path class="d" d="M546.7,612.952c3.214,0,5.819,7.814,5.819,17.454s-2.6,17.456-5.819,17.456H536.467v-34.91Z" transform="translate(-530.648 -612.952)"/><g transform="translate(5.819 0)"><g class="l"><g transform="translate(1.638 -1.538)"><g transform="translate(0 1.204)"><line class="c" x1="7.357" y1="3.056"/><line class="c" x1="7.357" y1="3.056" transform="translate(0 2.615)"/><line class="c" x1="7.357" y1="3.056" transform="translate(0 5.23)"/><line class="c" x1="7.357" y1="3.056" transform="translate(0 7.845)"/><line class="c" x1="7.357" y1="3.056" transform="translate(0 10.46)"/><line class="c" x1="7.357" y1="3.056" transform="translate(0 13.075)"/><line class="c" x1="7.357" y1="3.056" transform="translate(0 15.69)"/><line class="c" x1="7.357" y1="3.056" transform="translate(0 18.305)"/><line class="c" x1="7.357" y1="3.056" transform="translate(0 20.92)"/><line class="c" x1="7.357" y1="3.056" transform="translate(0 23.535)"/><line class="c" x1="7.357" y1="3.056" transform="translate(0 26.15)"/><line class="c" x1="7.357" y1="3.056" transform="translate(0 28.764)"/><line class="c" x1="7.357" y1="3.056" transform="translate(0 31.379)"/><line class="c" x1="7.357" y1="3.056" transform="translate(0 33.994)"/></g><g transform="translate(7.189)"><line class="c" y1="3.056" x2="7.256"/><line class="c" y1="3.056" x2="7.256" transform="translate(0 2.553)"/><line class="c" y1="3.056" x2="7.256" transform="translate(0 5.106)"/><line class="c" y1="3.056" x2="7.256" transform="translate(0 7.66)"/><line class="c" y1="3.056" x2="7.256" transform="translate(0 10.213)"/><line class="c" y1="3.056" x2="7.256" transform="translate(0 12.766)"/><line class="c" y1="3.056" x2="7.256" transform="translate(0 15.319)"/><line class="c" y1="3.056" x2="7.256" transform="translate(0 17.872)"/><line class="c" y1="3.056" x2="7.256" transform="translate(0 20.426)"/><line class="c" y1="3.056" x2="7.256" transform="translate(0 22.979)"/><line class="c" y1="3.056" x2="7.256" transform="translate(0 25.532)"/><line class="c" y1="3.056" x2="7.256" transform="translate(0 28.085)"/><line class="c" y1="3.056" x2="7.256" transform="translate(0 30.639)"/><line class="c" y1="3.056" x2="7.256" transform="translate(0 33.192)"/></g></g></g></g><ellipse class="d" cx="5.818" cy="17.455" rx="5.818" ry="17.455" transform="translate(0 0)"/><path class="d" d="M540.942,613.11c3.213,0,5.818,7.732,5.818,17.271s-2.6,17.273-5.818,17.273h2.107c3.213,0,5.818-7.732,5.818-17.273s-2.6-17.271-5.818-17.271Z" transform="translate(-529.94 -612.927)"/><g transform="translate(11.002 0)"><g class="m"><g transform="translate(0.434 0.368)"><line class="c" x1="7.357" y1="3.056"/><line class="c" x1="7.357" y1="3.056" transform="translate(0.062 2.522)"/><line class="c" x1="7.357" y1="3.056" transform="translate(0.123 5.045)"/><line class="c" x1="7.357" y1="3.056" transform="translate(0.185 7.567)"/><line class="c" x1="7.357" y1="3.056" transform="translate(0.247 10.089)"/><line class="c" x1="7.357" y1="3.056" transform="translate(0.309 12.612)"/><line class="c" x1="7.357" y1="3.056" transform="translate(0.37 15.134)"/><line class="c" x1="7.357" y1="3.056" transform="translate(0.432 17.656)"/><line class="c" x1="7.357" y1="3.056" transform="translate(0.494 20.179)"/><line class="c" x1="7.357" y1="3.056" transform="translate(0.556 22.701)"/><line class="c" x1="7.357" y1="3.056" transform="translate(0.617 25.223)"/><line class="c" x1="7.357" y1="3.056" transform="translate(0.679 27.746)"/><line class="c" x1="7.357" y1="3.056" transform="translate(0.741 30.268)"/><line class="c" x1="7.357" y1="3.056" transform="translate(0.803 32.79)"/></g></g></g><path class="d" d="M539.123,613.11c3.214,0,5.819,7.732,5.819,17.271s-2.6,17.273-5.819,17.273h2.107c3.213,0,5.818-7.732,5.818-17.273s-2.6-17.271-5.818-17.271Z" transform="translate(-530.228 -612.927)"/><g transform="translate(8.895 0)"><g class="n"><g transform="translate(-0.368 -2.04)"><line class="c" y1="3.056" x2="7.357" transform="translate(2.408)"/><line class="c" y1="3.056" x2="7.357" transform="translate(2.223 2.615)"/><line class="c" y1="3.056" x2="7.357" transform="translate(2.037 5.23)"/><line class="c" y1="3.056" x2="7.357" transform="translate(1.852 7.845)"/><line class="c" y1="3.056" x2="7.357" transform="translate(1.667 10.46)"/><line class="c" y1="3.056" x2="7.357" transform="translate(1.482 13.075)"/><line class="c" y1="3.056" x2="7.357" transform="translate(1.297 15.69)"/><line class="c" y1="3.056" x2="7.357" transform="translate(1.111 18.305)"/><line class="c" y1="3.056" x2="7.357" transform="translate(0.926 20.92)"/><line class="c" y1="3.056" x2="7.357" transform="translate(0.741 23.535)"/><line class="c" y1="3.056" x2="7.357" transform="translate(0.556 26.15)"/><line class="c" y1="3.056" x2="7.357" transform="translate(0.37 28.764)"/><line class="c" y1="3.056" x2="7.357" transform="translate(0.185 31.379)"/><line class="c" y1="3.056" x2="7.357" transform="translate(0 33.994)"/></g></g></g><g transform="translate(1.552 4.325)"><path class="o" d="M532.783,629.787a31.357,31.357,0,0,0,1.388,9.9,10.474,10.474,0,0,0,.612,1.419c.594,1.129,1.284,1.777,2.021,1.777.781,0,1.508-.724,2.125-1.982h0a12.035,12.035,0,0,0,.637-1.605,32.268,32.268,0,0,0,1.258-9.511c0-1.024-.036-2.021-.105-2.979-.052-.753-.126-1.477-.218-2.175-.557-4.237-1.78-7.322-3.241-7.863a1.29,1.29,0,0,0-.729-.055c-1.487.322-2.753,3.282-3.362,7.457-.1.68-.181,1.393-.242,2.131C532.833,627.415,532.783,628.581,532.783,629.787Z" transform="translate(-532.783 -616.686)"/><g transform="translate(0.476 1.581)"><path class="d" d="M534.716,637.669c.524.995,1.133,1.566,1.781,1.566.688,0,1.33-.638,1.873-1.747l-1.617-7.23c-.094-.42-.286-.42-.38,0Z" transform="translate(-532.953 -616.169)"/><path class="d" d="M536.6,618.092l.018,8.754c0,.514.154.879.306.727l2.532-2.551C538.967,621.289,537.889,618.569,536.6,618.092Z" transform="translate(-532.655 -618.045)"/><path class="d" d="M537,629.647l1.578,7.094a28.477,28.477,0,0,0,1.108-8.383c0-.9-.031-1.783-.093-2.627l-2.477,2.74A1.76,1.76,0,0,0,537,629.647Z" transform="translate(-532.599 -616.836)"/><path class="d" d="M533.194,628.419a27.6,27.6,0,0,0,1.224,8.727l1.689-7.611a1.768,1.768,0,0,0-.114-1.174l-2.671-3.014C533.239,626.327,533.194,627.355,533.194,628.419Z" transform="translate(-533.194 -616.897)"/><path class="d" d="M533.489,624.624l2.641,2.718c.152.155.306-.21.307-.726l.016-8.565C535.142,618.335,534.026,620.944,533.489,624.624Z" transform="translate(-533.147 -618.051)"/></g></g></g><rect width="19.592" height="23.113" transform="translate(579.582 615.288)"/><g transform="translate(556.469 578.202)"><path class="p" d="M681.943,641.37c-.082.266-.2.419-.328.419,0,0-72.456.048-86.5-.024-1.442-.006-2.245-.015-2.267-.024l-1.264-20.125c-.192-.087-10.356-12.006-10.356-12.006-.038-.643-4.212-6.772-4.212-6.772s-12.34-18.6-12.323-19.427c0,0-14.261-4.194-13.115-5.207,10.745,0,57.964.075,66.969.075,9.023,0,13.156,2.765,15.08,4.053,8.676,5.81,21.016,16.726,24.845,20.107,6.425,2.092,19.742,5.3,24.148,10.111a75.331,75.331,0,0,1,.309,8.207l.38.507a1.135,1.135,0,0,1,.229.7V627.4Z" transform="translate(-551.51 -578.202)"/></g><path class="p" d="M521.589,636.89,531,641.147c.235.106,1.056-.162,1.022-.815-.063-1.2-.086-2.442-.065-3.706.161-10.008,3.09-18.131,6.7-18.587,1.4-.177,2.721.786,3.843,2.579,1.741,2.786,3.01,7.574,3.4,13.226.083,1.19.126,2.417.126,3.676,0,1.069-.031,2.118-.091,3.142-.035.584.125,1.117.338,1.117h36.013c.124,0,.217-.313.195-.651l-.008-.121c-.074-1.133-.113-2.3-.113-3.487,0-10.771,3.153-19.5,7.039-19.5a2.723,2.723,0,0,1,1.034.21c3.4,1.384,6,9.492,6,19.293,0,1.167-.037,2.312-.109,3.425-.028.435.093.834.253.834l10.437,1.146c.126,0-1.771-24.458-1.771-24.458a15.115,15.115,0,0,0-2.966-6.127c-4.4-4.811-13.087-9.354-14.479-10.066a.566.566,0,0,0-.383-.051l-1.749.4L571.055,583.2s-.207-.336-.583-.878c-1.444-1.381-5.317-4.054-12.092-4.054-9.008,0-14.481,2.914-15.75,4.035-1.146,1.013-12.264,13.028-14.377,15.011a5.926,5.926,0,0,1-1.634.768l-2.443,1.173c-.429,0-.785.929-.809,2.118,0,0-.471,6.466-.549,7.147l-.054.481-1.128,10.943-.364,7.638s.152,7.32.063,8.168C521.281,636.268,521.4,636.8,521.589,636.89Z" transform="translate(0.174 0.01)"/><path class="p" d="M521.589,633.441l9.36,4.23a.809.809,0,0,0,1.076-.787c-.063-1.2-.086-2.428-.066-3.684.159-10,3.084-18.141,6.695-18.608,4.041-.522,7.376,8.4,7.376,19.48,0,1.069-.031,2.118-.091,3.142-.035.584.125,1.117.338,1.117h36.013c.123,0,.218-.308.195-.644-.08-1.172-.122-2.381-.122-3.615,0-10.771,3.153-19.5,7.039-19.5a2.723,2.723,0,0,1,1.034.21l.019-3.048s-30.848-12.055-61.661-11.656l-5.87,3.486-1.286,12.935-.364,7.638s.152,7.32.063,8.168C521.281,632.819,521.4,633.354,521.589,633.441Z" transform="translate(0.174 3.459)"/><path class="q" d="M521.589,631.969,531,636.236a.752.752,0,0,0,1.026-.825c-.063-1.2-.086-2.442-.065-3.706.161-10.008,3.09-18.131,6.7-18.587,1.4-.177,2.721.786,3.843,2.579.024-2.182-.459-3.93-1.653-4.991-6.076-5.4-10.789,7.026-12.063,10.87-.23.69-.551,1.085-.892,1.085h-6.624s.152,7.32.063,8.168C521.281,631.347,521.4,631.882,521.589,631.969Z" transform="translate(0.174 4.931)"/><path class="d" d="M584.261,602.852h-5.313s-.236-.015-.675-.039c-.983-.059-2.967-.185-5.534-.367-3.324-.238-7.622-.577-11.97-.995-.742-.072-1.488-.147-2.231-.225-.461-.044-.92-.095-1.377-.144-.917-.1-1.827-.2-2.718-.3a73.589,73.589,0,0,1-11.468-1.993c-.12-.039-.234-.078-.344-.117l-.389-.144a14.506,14.506,0,0,1-7-5.32,2.625,2.625,0,0,1,.077-2.531,31.439,31.439,0,0,1,6.436-5.087c.23-.138.468-.276.708-.412A31.259,31.259,0,0,1,547.2,583a29.674,29.674,0,0,1,8.99-1.74c.347-.017.7-.024,1.056-.024h.148c.331,0,.66.009.986.03a18.47,18.47,0,0,1,6.829,1.7,25.114,25.114,0,0,1,4.856,3.007,66.72,66.72,0,0,1,8.211,7.944q.209.233.423.467c.446.49.869.971,1.274,1.44a70.451,70.451,0,0,1,4.449,5.709C584.682,601.911,584.567,602.852,584.261,602.852Z" transform="translate(2.339 0.48)"/><path class="r" d="M540.823,585.048l.49,12.938.39.142c.109.039.224.078.343.117l-.514-13.61Q541.169,584.841,540.823,585.048Z" transform="translate(3.268 1.018)"/><path class="q" d="M542.911,634.572h36.013c.124,0,.217-.313.195-.651v-.008a1.331,1.331,0,0,0-.031-.207l-.557-2.272-31.982-1.345s-2.562.448-3.183-6.276a8.393,8.393,0,0,0-.827,2.825c.083,1.19.126,2.417.126,3.676,0,1.069-.031,2.118-.091,3.142C542.538,634.039,542.7,634.572,542.911,634.572Z" transform="translate(3.539 7.217)"/><path class="r" d="M555.955,606.747l4.194.8a.2.2,0,0,0,.233-.146l.3-1.391a.187.187,0,0,0-.154-.22l-4.2-.8a.2.2,0,0,0-.233.146l-.3,1.391A.187.187,0,0,0,555.955,606.747Z" transform="translate(5.637 4.238)"/><path class="r" d="M539.241,604.009l4.25.59a.188.188,0,0,0,.215-.152l.22-1.419a.182.182,0,0,0-.16-.2l-4.25-.589a.187.187,0,0,0-.215.152l-.22,1.419A.182.182,0,0,0,539.241,604.009Z" transform="translate(2.992 3.802)"/><path class="q" d="M573.085,632.4c0,1.488.047,2.948.147,4.356h.858c.123,0,.218-.308.194-.644-.08-1.172-.122-2.381-.122-3.615,0-11.064,3.326-19.976,7.358-19.483,3.623.444,6.561,8.61,6.713,18.651.022,1.457-.014,2.882-.1,4.258-.028.434.093.833.252.833l1.331.131c.1-1.378.144-2.935.144-4.39,0-12.636-4.3-22.838-8.889-22.481C576.616,610.353,573.1,620.334,573.085,632.4Z" transform="translate(8.372 5.032)"/><path class="q" d="M529.563,632.5c0,1.234.036,2.444.107,3.622,0,0,1.084.281,1.048-.811-.039-1.2-.086-2.427-.066-3.683.159-10,3.091-18.141,6.711-18.608,4.05-.522,7.394,8.4,7.394,19.48,0,1.069-.031,2.119-.092,3.142-.035.584.124,1.116.338,1.116h.687c.1-1.408.15-2.865.147-4.354-.017-12.062-3.536-22.042-7.9-22.386C533.335,609.653,529.563,619.858,529.563,632.5Z" transform="translate(1.486 5.032)"/><path class="r" d="M578.469,600.769h-6.575v-3.061H577.7l1.382,1.822A.773.773,0,0,1,578.469,600.769Z" transform="translate(8.184 3.086)"/><path class="r" d="M574.7,594.466l1.278,5.732a1.083,1.083,0,0,1-1.13,1.289c-2.285-.06-6.634-.175-7.849-.219-1.671-.061-5.265-.035-5.3-4.383-.029-4.3,5.292-3.717,7.3-3.66,1.289.036,3.179.115,4.366.167A1.409,1.409,0,0,1,574.7,594.466Z" transform="translate(6.572 2.368)"/><path class="d" d="M616.022,613.748l-5.006,3.431a1.271,1.271,0,0,1-.865.221l-10.873-.409s-7.578-1.766-10.791-8.439a.5.5,0,0,1,.417-.736,120.131,120.131,0,0,1,12.27,1.964l14.692,2.857A.641.641,0,0,1,616.022,613.748Z" transform="translate(10.801 4.686)"/><path class="p" d="M675.679,634.072a2.794,2.794,0,0,1-2.818,2.335s-62.51.047-77.236-.022a.7.7,0,0,1-.556-.275l-1.655-2.209a4.2,4.2,0,0,1-.443-4.347l4.214-8.827a1.124,1.124,0,0,1,1-.619l27.55-.341,35.482.2,14.682.141a1.276,1.276,0,0,1,1.146.711l-.967,10.492C676.047,631.65,675.679,634.072,675.679,634.072Z" transform="translate(11.454 6.577)"/><path class="s" d="M636.582,618.166a14.823,14.823,0,0,1-.654,3.272c-.05.116-.572.679-.649.8a2.147,2.147,0,0,1-1.736,1.14H621.279a3.687,3.687,0,0,1-2.6-1.5l-2.518-3.048-.418-.505-.023-.037-.564-.891a1.546,1.546,0,0,1,.245-1.934l2.716-2.223a1.223,1.223,0,0,1,.842-.29c2.415.124,12.081,0,14.582,0a3.565,3.565,0,0,1,1.233.29,3.443,3.443,0,0,1,1.339,1.187A8.5,8.5,0,0,1,636.582,618.166Z" transform="translate(14.992 5.498)"/><path class="d" d="M636.384,618.268c0,3.038-.929,4.942-3.394,4.942H621.178a3.687,3.687,0,0,1-2.6-1.5l-2.518-3.049-.272-.427a1.468,1.468,0,0,1,.233-1.832l2.572-2.1a1.154,1.154,0,0,1,.8-.275c2.286.117,12.295,0,14.729,0a1.227,1.227,0,0,1,.8.275S636.384,615.231,636.384,618.268Z" transform="translate(15.094 5.668)"/><path class="s" d="M635.265,618.166a15.149,15.149,0,0,0,.638,3.272c.05.116.559.679.632.8a2.093,2.093,0,0,0,1.693,1.14h11.958a3.574,3.574,0,0,0,2.538-1.5l2.457-3.048.408-.505.022-.037.55-.891a1.575,1.575,0,0,0-.24-1.934l-2.649-2.223a1.171,1.171,0,0,0-.82-.29c-2.355.124-11.78,0-14.218,0a3.025,3.025,0,0,0-2.509,1.477A8.715,8.715,0,0,0,635.265,618.166Z" transform="translate(18.207 5.498)"/><path class="d" d="M635.343,618.268c0,3.038.921,4.942,3.324,4.942h11.5a3.574,3.574,0,0,0,2.538-1.5l2.457-3.049.264-.427a1.5,1.5,0,0,0-.226-1.832l-2.509-2.1a1.109,1.109,0,0,0-.778-.275c-2.229.117-11.988,0-14.362,0a1.173,1.173,0,0,0-.776.275S635.343,615.231,635.343,618.268Z" transform="translate(18.223 5.668)"/><path class="q" d="M607.54,620.816a3.126,3.126,0,0,1,2.148,1.872l3.884,7.547a1.664,1.664,0,0,1,.027,1.316l-.346.4a1.718,1.718,0,0,1-1.132.141l-12.793.037c-1.238-.226-4.457-4.153-4.407-5.988l1.384-6.047a1.326,1.326,0,0,1,1.2-.737Z" transform="translate(11.827 6.512)"/><path class="q" d="M658.533,620.693c-.877,1.165-3.2,9.936-3.2,9.936-.579,1.767.184,2.032.724,1.992,0,0,5.549.039,6.378.039s2.223-4.458,2.2-6.428l-.69-6.493c-.107-.482-.342-.792-.6-.792Z" transform="translate(21.353 6.447)"/><path class="q" d="M613.475,626.6c.738,2.3,1.564,4.555,3.66,4.555H656.4c2.1,0,2.512-1.745,3.614-4.555.212-.54.361-1.119.045-1.118H613.913C613.6,625.483,613.345,626.2,613.475,626.6Z" transform="translate(14.758 7.481)"/><path class="q" d="M586.875,600.993a1.912,1.912,0,0,0,1.681.961h63.289a.619.619,0,0,0,.486-1.067c-3.272-2.953-13.216-12.388-25.388-17.905a10.167,10.167,0,0,0-4.185-1.1H570.982a.738.738,0,0,0-.491,1.349A55.1,55.1,0,0,1,586.875,600.993Z" transform="translate(7.908 0.582)"/><path class="d" d="M649.65,601.489H589.932a1.564,1.564,0,0,1-1.375-.78q-.34-.618-.7-1.222a51.956,51.956,0,0,0-14.508-15.521.689.689,0,0,1,.459-1.261h47.675a9.494,9.494,0,0,1,4.832,1.032,108.786,108.786,0,0,1,23.826,16.68A.622.622,0,0,1,649.65,601.489Z" transform="translate(8.363 0.712)"/><path class="k" d="M609.226,582.686l.324,1.094a1.605,1.605,0,0,1-1.651,2.166H594.682a3.225,3.225,0,0,1-2.933-2.166l-.323-1.091c3.981-.078,7.318-.09,8.958-.069C601.989,582.6,605.269,582.612,609.226,582.686Z" transform="translate(11.275 0.698)"/><ellipse class="k" cx="2.671" cy="2.526" rx="2.671" ry="2.526" transform="translate(608.298 614.706)"/><ellipse class="t" cx="1.517" cy="1.435" rx="1.517" ry="1.435" transform="translate(614.014 617.173)"/><path class="u" d="M606.848,582.705a5.162,5.162,0,0,0-1.472.927c-2.459,2.125-.914,3.724-3.372,5.849s-4,.523-6.459,2.649-.914,3.724-3.372,5.848a5.5,5.5,0,0,1-3.395,1.346,1.44,1.44,0,0,1-1.414-.635,51.975,51.975,0,0,0-14.019-14.722.689.689,0,0,1,.459-1.261Z" transform="translate(8.363 0.712)"/><path class="u" d="M567.017,585.975a3.826,3.826,0,0,0-1.172.72c-1.845,1.592-.686,2.795-2.531,4.391s-3.006.391-4.851,1.988-.686,2.8-2.532,4.39-1.536-.487-1.536-.487l-.2-15.743h.148c.331,0,.66.009.986.03a18.47,18.47,0,0,1,6.829,1.7A25.115,25.115,0,0,1,567.017,585.975Z" transform="translate(5.384 0.48)"/><path class="r" d="M553.286,581.258l.975,19.824c1.193.129,2.4.251,3.607.368l-2.393-20.187c-.347-.021-.7-.029-1.055-.029C554.038,581.235,553.659,581.241,553.286,581.258Z" transform="translate(5.24 0.48)"/><g transform="translate(569.895 618.778)"><g class="v" transform="translate(0)"><g transform="translate(9.088 0.605)"><path class="d" d="M590.427,613.757c6.908,0,12.509,7.816,12.509,17.456s-5.6,17.456-12.509,17.456h-8.983V613.757Z" transform="translate(-569.288 -613.757)"/><g transform="translate(19.599)"><g class="w"><g transform="translate(1.388 -1.538)"><line class="c" y1="3.047" x2="15.547"/><line class="c" y1="3.047" x2="15.547" transform="translate(0 2.546)"/><line class="c" y1="3.047" x2="15.547" transform="translate(0 5.092)"/><line class="c" y1="3.047" x2="15.547" transform="translate(0 7.638)"/><line class="c" y1="3.047" x2="15.547" transform="translate(0 10.184)"/><line class="c" y1="3.047" x2="15.547" transform="translate(0 12.729)"/><line class="c" y1="3.047" x2="15.547" transform="translate(0 15.275)"/><line class="c" y1="3.047" x2="15.547" transform="translate(0 17.821)"/><line class="c" y1="3.047" x2="15.547" transform="translate(0 20.367)"/><line class="c" y1="3.047" x2="15.547" transform="translate(0 22.913)"/><line class="c" y1="3.047" x2="15.547" transform="translate(0 25.459)"/><line class="c" y1="3.047" x2="15.547" transform="translate(0 28.005)"/><line class="c" y1="3.047" x2="15.547" transform="translate(0 30.551)"/><line class="c" y1="3.047" x2="15.547" transform="translate(0 33.097)"/></g></g></g><g transform="translate(12.156)"><g class="x"><g transform="translate(0.005 -0.334)"><line class="c" x1="15.815" y1="3.056"/><line class="c" x1="15.815" y1="3.056" transform="translate(0 2.615)"/><line class="c" x1="15.815" y1="3.056" transform="translate(0 5.23)"/><line class="c" x1="15.815" y1="3.056" transform="translate(0 7.845)"/><line class="c" x1="15.815" y1="3.056" transform="translate(0 10.46)"/><line class="c" x1="15.815" y1="3.056" transform="translate(0 13.075)"/><line class="c" x1="15.815" y1="3.056" transform="translate(0 15.69)"/><line class="c" x1="15.815" y1="3.056" transform="translate(0 18.305)"/><line class="c" x1="15.815" y1="3.056" transform="translate(0 20.92)"/><line class="c" x1="15.815" y1="3.056" transform="translate(0 23.535)"/><line class="c" x1="15.815" y1="3.056" transform="translate(0 26.15)"/><line class="c" x1="15.815" y1="3.056" transform="translate(0 28.764)"/><line class="c" x1="15.815" y1="3.056" transform="translate(0 31.379)"/><line class="c" x1="15.815" y1="3.056" transform="translate(0 33.994)"/></g></g></g><ellipse class="d" cx="12.508" cy="17.455" rx="12.508" ry="17.455" transform="translate(0 0.001)"/><path class="d" d="M585.6,613.757c6.909,0,12.509,7.768,12.509,17.349s-5.6,17.348-12.509,17.348h1.714c6.909,0,12.509-7.767,12.509-17.348s-5.6-17.349-12.509-17.349Z" transform="translate(-568.63 -613.757)"/><g transform="translate(16.969)"><g class="y"><g transform="translate(0.933 0.369)"><line class="c" x1="15.815" y1="3.056"/><line class="c" x1="15.815" y1="3.056" transform="translate(0.133 2.522)"/><line class="c" x1="15.815" y1="3.056" transform="translate(0.265 5.045)"/><line class="c" x1="15.815" y1="3.056" transform="translate(0.398 7.567)"/><line class="c" x1="15.815" y1="3.056" transform="translate(0.531 10.089)"/><line class="c" x1="15.815" y1="3.056" transform="translate(0.664 12.612)"/><line class="c" x1="15.815" y1="3.056" transform="translate(0.796 15.134)"/><line class="c" x1="15.815" y1="3.056" transform="translate(0.929 17.656)"/><line class="c" x1="15.815" y1="3.056" transform="translate(1.062 20.179)"/><line class="c" x1="15.815" y1="3.056" transform="translate(1.195 22.701)"/><line class="c" x1="15.815" y1="3.056" transform="translate(1.327 25.223)"/><line class="c" x1="15.815" y1="3.056" transform="translate(1.46 27.746)"/><line class="c" x1="15.815" y1="3.056" transform="translate(1.593 30.268)"/><line class="c" x1="15.815" y1="3.056" transform="translate(1.725 32.79)"/></g></g></g><path class="d" d="M584.118,613.757c6.909,0,12.509,7.768,12.509,17.349s-5.6,17.348-12.509,17.348h1.714c6.909,0,12.509-7.767,12.509-17.348s-5.6-17.349-12.509-17.349Z" transform="translate(-568.865 -613.757)"/><g transform="translate(15.253)"><g class="z"><g transform="translate(-0.792 -2.039)"><line class="c" y1="3.056" x2="15.815" transform="translate(5.176)"/><line class="c" y1="3.056" x2="15.815" transform="translate(4.778 2.615)"/><line class="c" y1="3.056" x2="15.815" transform="translate(4.38 5.23)"/><line class="c" y1="3.056" x2="15.815" transform="translate(3.982 7.845)"/><line class="c" y1="3.056" x2="15.815" transform="translate(3.584 10.46)"/><line class="c" y1="3.056" x2="15.815" transform="translate(3.185 13.075)"/><line class="c" y1="3.056" x2="15.815" transform="translate(2.787 15.69)"/><line class="c" y1="3.056" x2="15.815" transform="translate(2.389 18.305)"/><line class="c" y1="3.056" x2="15.815" transform="translate(1.991 20.92)"/><line class="c" y1="3.056" x2="15.815" transform="translate(1.593 23.535)"/><line class="c" y1="3.056" x2="15.815" transform="translate(1.195 26.15)"/><line class="c" y1="3.056" x2="15.815" transform="translate(0.796 28.764)"/><line class="c" y1="3.056" x2="15.815" transform="translate(0.398 31.379)"/><line class="c" y1="3.056" x2="15.815" transform="translate(0 33.994)"/></g></g></g><g transform="translate(3.335 4.325)"><path class="o" d="M573.828,630.593a16.552,16.552,0,0,0,2.985,9.9,9.548,9.548,0,0,0,1.315,1.418,6.53,6.53,0,0,0,4.345,1.777,6.634,6.634,0,0,0,4.569-1.981h0a10.341,10.341,0,0,0,1.37-1.605,16.818,16.818,0,0,0,2.7-9.511,19.32,19.32,0,0,0-.226-2.979,18.1,18.1,0,0,0-.468-2.175c-1.2-4.237-3.829-7.322-6.967-7.863a5.805,5.805,0,0,0-.984-.085c-.2,0-.389.012-.581.029-3.2.322-5.92,3.284-7.23,7.458a17.305,17.305,0,0,0-.521,2.131A19.419,19.419,0,0,0,573.828,630.593Z" transform="translate(-573.828 -617.491)"/><g transform="translate(1.025 1.581)"><path class="d" d="M577.985,638.474a5.76,5.76,0,0,0,3.829,1.566,5.841,5.841,0,0,0,4.027-1.746l-3.476-7.231a.423.423,0,0,0-.818,0Z" transform="translate(-574.195 -616.974)"/><path class="d" d="M582.04,618.9l.039,8.753c0,.514.331.879.656.727l5.446-2.549C587.123,622.095,584.806,619.375,582.04,618.9Z" transform="translate(-573.554 -618.849)"/><path class="d" d="M582.9,630.453l3.39,7.093a14.818,14.818,0,0,0,2.384-8.383,17.162,17.162,0,0,0-.2-2.626l-5.328,2.739A.957.957,0,0,0,582.9,630.453Z" transform="translate(-573.433 -617.641)"/><path class="d" d="M574.713,629.224a14.594,14.594,0,0,0,2.63,8.728l3.632-7.612a.955.955,0,0,0-.244-1.173l-5.744-3.014A17.146,17.146,0,0,0,574.713,629.224Z" transform="translate(-574.713 -617.702)"/><path class="d" d="M575.347,625.429l5.678,2.718c.324.156.655-.21.658-.726l.036-8.565C578.9,619.14,576.5,621.749,575.347,625.429Z" transform="translate(-574.613 -618.856)"/></g></g></g></g></g><g transform="translate(675.238 610.973)"><path class="d" d="M654.353,614.275l5.436,3.443a1.3,1.3,0,0,0,.917.19l5.411-1.352a.714.714,0,0,0,.555-.683l-.019-6.676a1.807,1.807,0,0,0-.458-1.3l-1.575-1.4-.127.79a.871.871,0,0,1-.454.618l-9.591,5.155A.71.71,0,0,0,654.353,614.275Z" transform="translate(-654.054 -606.496)"/><ellipse class="k" cx="2.909" cy="2.751" rx="2.909" ry="2.751" transform="translate(6.103 3.374)"/><ellipse class="t" cx="1.652" cy="1.562" rx="1.652" ry="1.562" transform="translate(4.343 6.413)"/></g><path class="aa" d="M520.831,642.8a23.4,23.4,0,0,1,3.89-.982l170.57.736a.414.414,0,0,1,.4.424s8.874.836,0,1.392-77.52,1.238-77.52,1.238l-97.954-1.623C519.956,642.95,520.831,642.8,520.831,642.8Z" transform="translate(0 10.066)"/><path class="ab" d="M299.26,641.721l-1.344.731,5.106,5.094-1.344-5.094,1.344-.731-5.106-5.094Z" transform="translate(350.427 -26.625)"/></g></svg>