<svg xmlns="http://www.w3.org/2000/svg" xmlns:xlink="http://www.w3.org/1999/xlink" width="160" height="80" viewBox="0 0 160 80"><defs><style>.a,.e,.q{fill:none;}.b{opacity:0.2;}.c{fill:#141414;}.d{clip-path:url(#a);}.e{stroke:#282828;}.e,.s{stroke-miterlimit:10;stroke-width:0.172px;}.f{clip-path:url(#b);}.g{clip-path:url(#c);}.h{clip-path:url(#d);}.i{fill:#3b3b3b;}.j{clip-path:url(#e);}.k{clip-path:url(#f);}.l{clip-path:url(#g);}.m{fill:#7d7d7d;}.n,.s,.u{fill:#fff;}.o{fill:#d1d3d4;}.p{fill:#eb008b;}.q,.u{opacity:0.1;}.r{fill:#939598;}.s{stroke:#0686b6;}.t{fill:#d3d8ff;}.v{clip-path:url(#h);}.w{clip-path:url(#i);}.x{clip-path:url(#j);}.y{clip-path:url(#k);}.z{clip-path:url(#l);}.aa{fill:#12d288;}</style><clipPath id="a"><path class="a" d="M287.269,639.521c6.57,0,11.9,7.3,11.9,16.316,0,8.919-5.218,16.166-11.7,16.313-.067,0-1.6,0-1.665,0a17.135,17.135,0,0,0,11.189-16.684C296.992,643.081,287.269,639.521,287.269,639.521Z" transform="translate(-285.803 -639.521)"/></clipPath><clipPath id="b"><path class="a" d="M292.105,639.521c6.57,0,11.9,7.3,11.9,16.316s-5.328,16.314-11.9,16.314h-3.191V639.521Z" transform="translate(-288.914 -639.521)"/></clipPath><clipPath id="c"><path class="a" d="M287.161,639.521c6.57,0,11.9,7.3,11.9,16.316s-5.326,16.314-11.9,16.314h1.629c6.572,0,11.9-7.3,11.9-16.314s-5.326-16.316-11.9-16.316Z" transform="translate(-287.161 -639.521)"/></clipPath><clipPath id="d"><path class="a" d="M288.109,639.521c6.572,0,11.9,7.3,11.9,16.316s-5.326,16.314-11.9,16.314h1.631c6.572,0,11.9-7.3,11.9-16.314s-5.326-16.316-11.9-16.316Z" transform="translate(-288.109 -639.521)"/></clipPath><clipPath id="e"><path class="a" d="M362.668,639.521c3,0,5.438,7.3,5.438,16.316s-2.434,16.314-5.438,16.314H353.1V639.521Z" transform="translate(-353.104 -639.521)"/></clipPath><clipPath id="f"><path class="a" d="M354.7,639.521c3,0,5.438,7.3,5.438,16.316s-2.434,16.314-5.438,16.314h1.968c3,0,5.438-7.3,5.438-16.314s-2.434-16.316-5.438-16.316Z" transform="translate(-354.703 -639.521)"/></clipPath><clipPath id="g"><path class="a" d="M355.847,639.521c3,0,5.438,7.3,5.438,16.316s-2.434,16.314-5.438,16.314h1.97c3,0,5.438-7.3,5.438-16.314s-2.436-16.316-5.438-16.316Z" transform="translate(-355.847 -639.521)"/></clipPath><clipPath id="h"><path class="a" d="M338.435,675.069l23.234,1.366,2.825-14.207H348.276a.869.869,0,0,1-.946-1c.177-8.672-.167-17.04-2.56-22.105-15.946,1.025-23.191,14.649-23.191,14.649Z" transform="translate(-321.579 -639.121)"/></clipPath><clipPath id="i"><path class="a" d="M324.36,639.72c6.572,0,11.9,7.3,11.9,16.315,0,8.92-5.218,16.166-11.7,16.313-.067,0-1.6,0-1.665,0a17.138,17.138,0,0,0,11.189-16.686C334.085,643.28,324.36,639.72,324.36,639.72Z" transform="translate(-322.896 -639.72)"/></clipPath><clipPath id="j"><path class="a" d="M329.2,639.72c6.57,0,11.9,7.3,11.9,16.315s-5.326,16.316-11.9,16.316h-3.191V639.72Z" transform="translate(-326.008 -639.72)"/></clipPath><clipPath id="k"><path class="a" d="M324.254,639.72c6.572,0,11.9,7.3,11.9,16.315s-5.326,16.316-11.9,16.316h1.631c6.572,0,11.9-7.3,11.9-16.316s-5.326-16.315-11.9-16.315Z" transform="translate(-324.254 -639.72)"/></clipPath><clipPath id="l"><path class="a" d="M325.2,639.72c6.572,0,11.9,7.3,11.9,16.315s-5.326,16.316-11.9,16.316h1.631c6.57,0,11.9-7.3,11.9-16.316s-5.328-16.315-11.9-16.315Z" transform="translate(-325.202 -639.72)"/></clipPath></defs><path class="b" d="M282.219,658.97a1.683,1.683,0,0,0,1.683,1.677H441.443a22.489,22.489,0,0,0-6.014-3.36H283.9a1.683,1.683,0,0,0-1.683,1.682Z" transform="translate(-282.219 -583.347)"/><g transform="translate(121.053 43.375)"><path class="c" d="M294.348,639.521c6.57,0,11.9,7.3,11.9,16.316s-5.326,16.314-11.9,16.314H285.8V639.521Z" transform="translate(-274.24 -639.521)"/><g transform="translate(18.643)"><g class="d" transform="translate(0)"><g transform="translate(1.32 -1.437)"><line class="e" y1="2.848" x2="14.789"/><line class="e" y1="2.848" x2="14.789" transform="translate(0 2.38)"/><line class="e" y1="2.848" x2="14.789" transform="translate(0 4.759)"/><line class="e" y1="2.848" x2="14.789" transform="translate(0 7.139)"/><line class="e" y1="2.848" x2="14.789" transform="translate(0 9.519)"/><line class="e" y1="2.848" x2="14.789" transform="translate(0 11.898)"/><line class="e" y1="2.848" x2="14.789" transform="translate(0 14.278)"/><line class="e" y1="2.848" x2="14.789" transform="translate(0 16.657)"/><line class="e" y1="2.848" x2="14.789" transform="translate(0 19.037)"/><line class="e" y1="2.848" x2="14.789" transform="translate(0 21.417)"/><line class="e" y1="2.848" x2="14.789" transform="translate(0 23.796)"/><line class="e" y1="2.848" x2="14.789" transform="translate(0 26.176)"/><line class="e" y1="2.848" x2="14.789" transform="translate(0 28.556)"/><line class="e" y1="2.848" x2="14.789" transform="translate(0 30.935)"/></g></g></g><g transform="translate(11.563)"><g class="f"><g transform="translate(0.005 -0.312)"><line class="e" x1="15.043" y1="2.856"/><line class="e" x1="15.043" y1="2.856" transform="translate(0 2.444)"/><line class="e" x1="15.043" y1="2.856" transform="translate(0 4.888)"/><line class="e" x1="15.043" y1="2.856" transform="translate(0 7.333)"/><line class="e" x1="15.043" y1="2.856" transform="translate(0 9.777)"/><line class="e" x1="15.043" y1="2.856" transform="translate(0 12.221)"/><line class="e" x1="15.043" y1="2.856" transform="translate(0 14.665)"/><line class="e" x1="15.043" y1="2.856" transform="translate(0 17.109)"/><line class="e" x1="15.043" y1="2.856" transform="translate(0 19.554)"/><line class="e" x1="15.043" y1="2.856" transform="translate(0 21.998)"/><line class="e" x1="15.043" y1="2.856" transform="translate(0 24.442)"/><line class="e" x1="15.043" y1="2.856" transform="translate(0 26.886)"/><line class="e" x1="15.043" y1="2.856" transform="translate(0 29.33)"/><line class="e" x1="15.043" y1="2.856" transform="translate(0 31.774)"/></g></g></g><ellipse class="c" cx="11.898" cy="16.315" rx="11.898" ry="16.315" transform="translate(0 0.001)"/><path class="c" d="M287.161,639.521c6.57,0,11.9,7.26,11.9,16.216s-5.328,16.215-11.9,16.215h1.631c6.57,0,11.9-7.26,11.9-16.215s-5.326-16.216-11.9-16.216Z" transform="translate(-271.02 -639.521)"/><g transform="translate(16.141)"><g class="g"><g transform="translate(0.887 0.345)"><line class="e" x1="15.043" y1="2.856" transform="translate(0)"/><line class="e" x1="15.043" y1="2.856" transform="translate(0.126 2.358)"/><line class="e" x1="15.043" y1="2.856" transform="translate(0.252 4.715)"/><line class="e" x1="15.043" y1="2.856" transform="translate(0.379 7.073)"/><line class="e" x1="15.043" y1="2.856" transform="translate(0.505 9.43)"/><line class="e" x1="15.043" y1="2.856" transform="translate(0.631 11.788)"/><line class="e" x1="15.043" y1="2.856" transform="translate(0.758 14.146)"/><line class="e" x1="15.043" y1="2.856" transform="translate(0.884 16.503)"/><line class="e" x1="15.043" y1="2.856" transform="translate(1.01 18.861)"/><line class="e" x1="15.043" y1="2.856" transform="translate(1.136 21.219)"/><line class="e" x1="15.043" y1="2.856" transform="translate(1.263 23.576)"/><line class="e" x1="15.043" y1="2.856" transform="translate(1.389 25.934)"/><line class="e" x1="15.043" y1="2.856" transform="translate(1.515 28.291)"/><line class="e" x1="15.043" y1="2.856" transform="translate(1.641 30.649)"/></g></g></g><path class="c" d="M288.109,639.521c6.572,0,11.9,7.26,11.9,16.216s-5.326,16.215-11.9,16.215h1.631c6.572,0,11.9-7.26,11.9-16.215s-5.326-16.216-11.9-16.216Z" transform="translate(-273.6 -639.521)"/><g transform="translate(14.509)"><g class="h"><g transform="translate(-0.753 -1.906)"><line class="e" y1="2.856" x2="15.043" transform="translate(4.924)"/><line class="e" y1="2.856" x2="15.043" transform="translate(4.545 2.444)"/><line class="e" y1="2.856" x2="15.043" transform="translate(4.166 4.888)"/><line class="e" y1="2.856" x2="15.043" transform="translate(3.788 7.332)"/><line class="e" y1="2.856" x2="15.043" transform="translate(3.409 9.777)"/><line class="e" y1="2.856" x2="15.043" transform="translate(3.03 12.221)"/><line class="e" y1="2.856" x2="15.043" transform="translate(2.651 14.665)"/><line class="e" y1="2.856" x2="15.043" transform="translate(2.273 17.109)"/><line class="e" y1="2.856" x2="15.043" transform="translate(1.894 19.553)"/><line class="e" y1="2.856" x2="15.043" transform="translate(1.515 21.998)"/><line class="e" y1="2.856" x2="15.043" transform="translate(1.136 24.442)"/><line class="e" y1="2.856" x2="15.043" transform="translate(0.758 26.886)"/><line class="e" y1="2.856" x2="15.043" transform="translate(0.379 29.33)"/><line class="e" y1="2.856" x2="15.043" transform="translate(0 31.774)"/></g></g></g><g transform="translate(3.173 4.043)"><path class="i" d="M293,654.117a15.284,15.284,0,0,0,2.839,9.256,9.036,9.036,0,0,0,1.251,1.326,6.28,6.28,0,0,0,4.132,1.66,6.362,6.362,0,0,0,4.346-1.851h0a9.751,9.751,0,0,0,1.3-1.5,15.525,15.525,0,0,0,2.572-8.891,17.928,17.928,0,0,0-.215-2.785,16.657,16.657,0,0,0-.446-2.032c-1.141-3.96-3.642-6.844-6.627-7.35a5.664,5.664,0,0,0-.936-.079c-.186,0-.37.01-.554.028-3.042.3-5.631,3.067-6.876,6.969a16.291,16.291,0,0,0-.5,1.992A17.871,17.871,0,0,0,293,654.117Z" transform="translate(-293.003 -641.871)"/></g></g><path class="c" d="M312.175,649.85v5l-15.363,3.89-4.054-8.946Z" transform="translate(-171.082 -588.742)"/><rect width="20.085" height="25.992" transform="translate(15.462 34.705)"/><g transform="translate(16.833 43.375)"><path class="c" d="M362.668,639.521c3,0,5.438,7.3,5.438,16.316s-2.434,16.314-5.438,16.314H353.1V639.521Z" transform="translate(-347.665 -639.521)"/><g transform="translate(5.439)"><g class="j"><g transform="translate(1.531 -1.437)"><g transform="translate(0 1.125)"><line class="e" x1="6.876" y1="2.856"/><line class="e" x1="6.876" y1="2.856" transform="translate(0 2.444)"/><line class="e" x1="6.876" y1="2.856" transform="translate(0 4.888)"/><line class="e" x1="6.876" y1="2.856" transform="translate(0 7.333)"/><line class="e" x1="6.876" y1="2.856" transform="translate(0 9.777)"/><line class="e" x1="6.876" y1="2.856" transform="translate(0 12.221)"/><line class="e" x1="6.876" y1="2.856" transform="translate(0 14.665)"/><line class="e" x1="6.876" y1="2.856" transform="translate(0 17.109)"/><line class="e" x1="6.876" y1="2.856" transform="translate(0 19.554)"/><line class="e" x1="6.876" y1="2.856" transform="translate(0 21.998)"/><line class="e" x1="6.876" y1="2.856" transform="translate(0 24.442)"/><line class="e" x1="6.876" y1="2.856" transform="translate(0 26.886)"/><line class="e" x1="6.876" y1="2.856" transform="translate(0 29.33)"/><line class="e" x1="6.876" y1="2.856" transform="translate(0 31.774)"/></g><g transform="translate(6.72)"><line class="e" y1="2.856" x2="6.782"/><line class="e" y1="2.856" x2="6.782" transform="translate(0 2.386)"/><line class="e" y1="2.856" x2="6.782" transform="translate(0 4.773)"/><line class="e" y1="2.856" x2="6.782" transform="translate(0 7.159)"/><line class="e" y1="2.856" x2="6.782" transform="translate(0 9.546)"/><line class="e" y1="2.856" x2="6.782" transform="translate(0 11.932)"/><line class="e" y1="2.856" x2="6.782" transform="translate(0 14.319)"/><line class="e" y1="2.856" x2="6.782" transform="translate(0 16.705)"/><line class="e" y1="2.856" x2="6.782" transform="translate(0 19.092)"/><line class="e" y1="2.856" x2="6.782" transform="translate(0 21.478)"/><line class="e" y1="2.856" x2="6.782" transform="translate(0 23.865)"/><line class="e" y1="2.856" x2="6.782" transform="translate(0 26.251)"/><line class="e" y1="2.856" x2="6.782" transform="translate(0 28.638)"/><line class="e" y1="2.856" x2="6.782" transform="translate(0 31.024)"/></g></g></g></g><ellipse class="c" cx="5.438" cy="16.315" rx="5.438" ry="16.315" transform="translate(0 0.001)"/><path class="c" d="M354.7,639.621c3,0,5.438,7.227,5.438,16.144s-2.434,16.144-5.438,16.144h1.968c3,0,5.438-7.227,5.438-16.144s-2.434-16.144-5.438-16.144Z" transform="translate(-344.419 -639.449)"/><g transform="translate(10.284)"><g class="k" transform="translate(0)"><g transform="translate(0.405 0.345)"><line class="e" x1="6.876" y1="2.856" transform="translate(0)"/><line class="e" x1="6.876" y1="2.856" transform="translate(0.058 2.358)"/><line class="e" x1="6.876" y1="2.856" transform="translate(0.115 4.715)"/><line class="e" x1="6.876" y1="2.856" transform="translate(0.173 7.073)"/><line class="e" x1="6.876" y1="2.856" transform="translate(0.231 9.43)"/><line class="e" x1="6.876" y1="2.856" transform="translate(0.289 11.788)"/><line class="e" x1="6.876" y1="2.856" transform="translate(0.346 14.146)"/><line class="e" x1="6.876" y1="2.856" transform="translate(0.404 16.503)"/><line class="e" x1="6.876" y1="2.856" transform="translate(0.462 18.861)"/><line class="e" x1="6.876" y1="2.856" transform="translate(0.519 21.219)"/><line class="e" x1="6.876" y1="2.856" transform="translate(0.577 23.576)"/><line class="e" x1="6.876" y1="2.856" transform="translate(0.635 25.934)"/><line class="e" x1="6.876" y1="2.856" transform="translate(0.693 28.291)"/><line class="e" x1="6.876" y1="2.856" transform="translate(0.75 30.649)"/></g></g></g><path class="c" d="M355.847,639.621c3,0,5.438,7.227,5.438,16.144s-2.434,16.144-5.438,16.144h1.97c3,0,5.438-7.227,5.438-16.144s-2.436-16.144-5.438-16.144Z" transform="translate(-347.533 -639.449)"/><g transform="translate(8.314)"><g class="l" transform="translate(0)"><g transform="translate(-0.344 -1.906)"><line class="e" y1="2.856" x2="6.876" transform="translate(2.251)"/><line class="e" y1="2.856" x2="6.876" transform="translate(2.077 2.444)"/><line class="e" y1="2.856" x2="6.876" transform="translate(1.904 4.888)"/><line class="e" y1="2.856" x2="6.876" transform="translate(1.731 7.332)"/><line class="e" y1="2.856" x2="6.876" transform="translate(1.558 9.777)"/><line class="e" y1="2.856" x2="6.876" transform="translate(1.385 12.221)"/><line class="e" y1="2.856" x2="6.876" transform="translate(1.212 14.665)"/><line class="e" y1="2.856" x2="6.876" transform="translate(1.039 17.109)"/><line class="e" y1="2.856" x2="6.876" transform="translate(0.866 19.553)"/><line class="e" y1="2.856" x2="6.876" transform="translate(0.693 21.998)"/><line class="e" y1="2.856" x2="6.876" transform="translate(0.519 24.442)"/><line class="e" y1="2.856" x2="6.876" transform="translate(0.346 26.886)"/><line class="e" y1="2.856" x2="6.876" transform="translate(0.173 29.33)"/><line class="e" y1="2.856" x2="6.876" transform="translate(0 31.774)"/></g></g></g><g transform="translate(1.45 4.043)"><path class="m" d="M359.773,654.117a29.305,29.305,0,0,0,1.3,9.256,9.8,9.8,0,0,0,.573,1.326c.554,1.055,1.2,1.66,1.889,1.66.729,0,1.409-.676,1.985-1.851h0a11.439,11.439,0,0,0,.6-1.5,30.166,30.166,0,0,0,1.177-8.891c0-.957-.034-1.889-.1-2.785-.048-.7-.119-1.38-.2-2.032-.521-3.96-1.664-6.844-3.03-7.35a1.228,1.228,0,0,0-.427-.079,1.246,1.246,0,0,0-.253.028c-1.392.3-2.574,3.067-3.143,6.969-.093.637-.17,1.3-.227,1.992C359.821,651.9,359.773,652.99,359.773,654.117Z" transform="translate(-359.773 -641.871)"/><g transform="translate(0.446 1.478)"><path class="c" d="M360.941,657.435c.489.931,1.058,1.464,1.665,1.464.643,0,1.242-.6,1.75-1.633l-1.511-6.758c-.088-.392-.268-.392-.356,0Z" transform="translate(-359.293 -637.339)"/><path class="c" d="M360.187,642.756l.017,8.182c0,.48.145.821.286.68l2.367-2.383C362.4,645.744,361.39,643.2,360.187,642.756Z" transform="translate(-356.497 -642.711)"/><path class="c" d="M360.073,651.224l1.474,6.631a26.6,26.6,0,0,0,1.037-7.836c0-.843-.031-1.665-.088-2.455l-2.316,2.562A1.646,1.646,0,0,0,360.073,651.224Z" transform="translate(-355.958 -639.248)"/><path class="c" d="M362.277,650.192a25.84,25.84,0,0,0,1.144,8.158L365,651.234a1.653,1.653,0,0,0-.107-1.1l-2.5-2.816C362.32,648.237,362.277,649.2,362.277,650.192Z" transform="translate(-362.277 -639.422)"/><path class="c" d="M362.088,648.874l2.469,2.541c.141.146.286-.2.286-.68l.015-8.005C363.633,642.995,362.59,645.434,362.088,648.874Z" transform="translate(-361.768 -642.73)"/></g></g></g><path class="n" d="M404.407,665.26l-.186,3.412a1.762,1.762,0,0,1-.387,1.23l-.318.208a1.445,1.445,0,0,0-.358.956l-.141,1.277-.542,6.033a1.7,1.7,0,0,1-1.695,1.554c-14.326.015-79.572.2-79.572.2l-.963-18.195-.611-11.589-12.7-5.906-25.106-30.128h65.788c9.844,0,10.615,1.772,13.739,4.134a146.374,146.374,0,0,1,21.436,20.688,1.029,1.029,0,0,0,.59.354c2.25.47,16.225,4.692,18.331,8.236.422.836.817,4.33,1.006,5.282.552.375.874.623,1.049.759a.533.533,0,0,1,.127.3,1.727,1.727,0,0,1,.026.313c0,1.154,0,3.8,0,3.8,0,.506-.041.889-.291.979l-.021.005c-.095.029-.162.289-.15.573l.078,1.844.022.1Z" transform="translate(-244.508 -614.309)"/><path class="o" d="M373.106,637.305l-61.447.088a1.141,1.141,0,0,1-.986-.54,147.471,147.471,0,0,0-8.592-12.705,32.328,32.328,0,0,0-5.292-5.194,1.192,1.192,0,0,1,.833-2.07h52.594a8.882,8.882,0,0,1,4.378,1.1,34.765,34.765,0,0,1,6.205,4.525c4.953,4.482,10.548,10.568,13.03,13.324A.909.909,0,0,1,373.106,637.305Z" transform="translate(-239.182 -612.454)"/><path class="c" d="M370.512,636.434H311.9a2.235,2.235,0,0,1-1.941-1.034c-4.941-8.146-8.456-13.359-12.8-16.5-.542-.394-.158-1.273.554-1.273h50.82a7.737,7.737,0,0,1,3.664.895,34.106,34.106,0,0,1,6.593,4.664c4.129,3.7,9.33,9.2,12.149,12.268A.555.555,0,0,1,370.512,636.434Z" transform="translate(-237.162 -611.918)"/><path class="p" d="M284.606,616.633" transform="translate(-129.488 -612.635)"/><path d="M351.544,665.09l-18.239-.591-2.289-30.275h20.528Z" transform="translate(-276.271 -599.962)"/><path class="n" d="M325.265,658.318v5.564c0,.332.015.659.043.975.022.272.057.535.1.786l.778,4.551c.15.884.435,1.481.76,1.586l.963.316,3.558,1.167,5.708,1.87c0-.735.005-1.5.005-2.341,0-6.321.96-11.955,2.458-15.611,1.115-2.715,2.526-4.339,4.062-4.339,3.6,0,6.519,8.932,6.519,19.95v4.734l.6.033h.014l30.981,1.686.791.045.107.014c.021-2.381.031-4.1.031-6.512q0-.9.026-1.782c.292-10.181,3.088-18.167,6.494-18.167a2.576,2.576,0,0,1,1.572.588c2.84,2.149,4.946,10,4.946,19.361v3.076c0,1.462,0,2.833,0,4.308h.046c.107,0,.212,0,.315,0s.206,0,.308,0c.356-.005.7-.014,1.022-.029.141-.005.277-.014.411-.021q.41-.026.79-.057l.459-.043.25-.028c.136-.014.268-.033.4-.05.241-.029.47-.065.688-.1.119-.021.236-.04.347-.06s.193-.038.284-.055l.169-.036c.33-.071.63-.144.9-.219q.134-.036.258-.077c.095-.026.184-.055.27-.084.124-.039.241-.081.349-.122.036-.014.071-.026.107-.041.052-.017.1-.038.15-.059l.144-.062c.04-.015.077-.033.115-.05.16-.074.3-.143.413-.208l.058-.031c.095-.053.174-.1.241-.148.026-.019.05-.033.071-.05a1.56,1.56,0,0,0,.169-.134l0,0,.685-6.061.143-1.277a1.437,1.437,0,0,1,.356-.956l.32-.208a1.772,1.772,0,0,0,.385-1.23l.186-3.412-.843-3.587-.026-.1-.076-1.844c-.01-.284.057-.544.15-.573l.022-.005c.165-.052.291-.473.291-.979,0,0,0-2.643-.005-3.8a.912.912,0,0,0-.153-.609c-.174-.136-.5-.384-1.049-.759-2.037-10.362-19.692-13.588-19.692-13.588l-13.6-21.109-.1-.157s-2.7-3.84-12.549-3.84c-4.747,0-9.029,2.41-12.729,5.633-5.18,4.5-9.223,10.589-11.812,13.861h-.069a35.478,35.478,0,0,0-5.793.821c-.175.039-.323.411-.37.931l-1.2,13.41-.588,6.577c-.038.42-.163.709-.3.709h-.146C325.568,656.25,325.265,657.176,325.265,658.318Z" transform="translate(-321.422 -614.309)"/><path class="n" d="M334.5,644.141l3.883,17.9,5.708,1.87c0-.735.005-1.5.005-2.341,0-11.017,2.918-19.95,6.52-19.95s6.519,8.932,6.519,19.95V666.3l.6.033h.014l30.981,1.686.791.045.107.014c.021-2.381.031-4.1.031-6.512q0-.9.026-1.782c.292-10.181,3.088-18.167,6.494-18.167a2.576,2.576,0,0,1,1.572.588c-.255-2.257-.75-3.7-1.571-3.926-5.018-1.376-51.092-8.392-56.931-8.392S334.5,644.141,334.5,644.141Z" transform="translate(-328.344 -603.085)"/><path class="n" d="M358.216,630.777a22.308,22.308,0,0,1,1.177,6.976c.243,4.8.532,28.355-1.641,28.208s-17.856-1.034-17.856-1.034L339.7,628.3Z" transform="translate(-299.225 -604.229)"/><path class="n" d="M368.1,631.965s1.567,21.636-.1,35.3c-2.873-.074-10.642.886-10.642.886l-2.486-19.938a134.544,134.544,0,0,1-4.122-18.77c-1.258-8.217,16.284-2.348,16.284-2.348Z" transform="translate(-327.33 -606.564)"/><g transform="translate(40.51 30.527)"><path class="n" d="M339.7,632.053l.16,30.171s15.685.886,17.856,1.034c2.147.145,1.891-22.847,1.65-28.027C354.1,634.312,346.9,633.151,339.7,632.053Z" transform="translate(-339.701 -632.053)"/></g><g transform="translate(58.526 33.704)"><path class="n" d="M337.206,662.223c.007-1.123.01-2.233.01-3.544q0-.9.026-1.782c.292-10.181,3.088-18.167,6.494-18.167a2.576,2.576,0,0,1,1.572.588c-.255-2.257-.75-3.7-1.571-3.926-1.065-.289-3.861-.828-7.664-1.492.241,5.18.5,28.171-1.65,28.027Z" transform="translate(-334.424 -633.9)"/></g><g transform="translate(24.326 28.192)"><path class="n" d="M350.685,630.7a123.156,123.156,0,0,0,3.215,13.453l.153,5.739a52.726,52.726,0,0,1,1.1,11.1v3.62c.373.325.872.748,1.455,1.194l9.608.523a10.388,10.388,0,0,0,.81-3.123c1.156-9.49.752-22.826.4-30.086C361.52,632.212,355.581,631.35,350.685,630.7Z" transform="translate(-350.685 -630.696)"/></g><path class="n" d="M339.113,655.552l31.772,1.731.107.014c.021-2.381.031-4.1.031-6.512q0-.9.026-1.782l-30.7-4.126s-.764-.37-.877,2.09C339.419,648.177,339.247,652.294,339.113,655.552Z" transform="translate(-309.705 -592.302)"/><path class="n" d="M339.668,655.875h.014l30.981,1.686-.141-3.107-27.091-1.772s-2.93-.1-3.668-8.272Z" transform="translate(-310.273 -592.625)"/><path class="c" d="M381.746,640.534c-.9-.115-2.517-.317-4.609-.576-1.837-.227-4.043-.5-6.457-.786-2.749-.33-5.774-.688-8.831-1.036q-1.045-.121-2.1-.237-.97-.108-1.937-.218c-1.9-.21-3.764-.408-5.548-.59-2.486-.255-4.81-.475-6.811-.638q-.619-.052-1.2-.1c-.172-.016-.339-.028-.506-.039l-.232-.014a35.729,35.729,0,0,0-4.442-.139c-.2.017-.382-.26-.468-.709-.4-2.106-.779-4.046-1.074-5.545-.341-1.7-.045-3.771.649-4.538a26.5,26.5,0,0,1,2.077-2.059,27.405,27.405,0,0,1,3.258-2.5c.153-.1.31-.2.473-.3.084-.053.177-.11.265-.163.308-.187.626-.375.951-.554a24.157,24.157,0,0,1,10.565-3.043c.31-.014.623-.026.943-.029.095,0,.189,0,.286,0q.624,0,1.2.012l.4.009c.289.01.568.019.836.031.54.022,1.048.055,1.524.095.139.01.272.022.4.038,4.936.466,6.4,1.8,8.294,3.214a11.169,11.169,0,0,1,1.394,1.409,73.182,73.182,0,0,1,6.082,8.365A58.106,58.106,0,0,1,382,639.125C382.212,639.662,382.047,640.572,381.746,640.534Z" transform="translate(-317.799 -612.578)"/><path class="q" d="M356.762,621.514c-.471,1.172-.241,2.245-1.671,3.547-2,1.827-3.258.451-5.258,2.28s-.745,3.205-2.744,5.034-.681-2.5-2.684-.676c0,0-.879-14.988-.5-14.98.432.009.843.021,1.235.039.54.022,1.048.055,1.524.095,5.261.434,6.758,1.794,8.7,3.252A11.179,11.179,0,0,1,356.762,621.514Z" transform="translate(-303.506 -612.573)"/><path class="r" d="M337.4,624.368v10.075c2.09.26,3.706.461,4.609.576.3.038.465-.872.253-1.409A58.032,58.032,0,0,0,337.4,624.368Z" transform="translate(-278.059 -607.063)"/><path d="M348.573,634.182l3.036.428c.239.034.444-.533.454-1.266h0c.01-.733-.174-1.356-.415-1.388l-3.036-.43c-.239-.034-.442.533-.454,1.266h0C348.148,633.525,348.332,634.147,348.573,634.182Z" transform="translate(-306.28 -601.907)"/><path d="M358.192,632.617l3.036.492c.239.04.444-.525.456-1.258h0c.014-.733-.17-1.357-.411-1.4l-3.035-.492c-.241-.04-.446.525-.458,1.258h0C357.769,631.953,357.953,632.579,358.192,632.617Z" transform="translate(-332.457 -603.034)"/><path class="n" d="M350.359,632.825h-9.027a2.566,2.566,0,0,1-2.565-2.567V627.97a1.642,1.642,0,0,1,1.643-1.643H347.9a1.791,1.791,0,0,1,1.791,1.791v1.254a.573.573,0,0,0,.573.573h.5a1.2,1.2,0,0,1,1.013,1.841l-.248.394A1.387,1.387,0,0,1,350.359,632.825Z" transform="translate(-290.026 -605.651)"/><path class="n" d="M364.18,643.807v5.565c0,.33.014.657.041.974.022.272.057.535.1.786l.776,4.551c.15.884.435,1.481.76,1.586l.963.316,3.558,1.167,5.712,1.87c0-.735,0-1.5,0-2.341,0-6.321.96-11.955,2.46-15.611l-12.66-8.217-.588,6.577c-.038.42-.162.709-.3.709h-.146C364.481,641.739,364.18,642.664,364.18,643.807Z" transform="translate(-360.335 -599.797)"/><path class="c" d="M374.779,630.161l-5.115-.58a.691.691,0,0,0-.673.633l-.79,9.3a.665.665,0,0,0,.693.719h0l1.7-2.24Z" transform="translate(-363.476 -603.307)"/><path class="r" d="M331.266,617.628l-.7,1.553a.993.993,0,0,1-.943.564H318.1a1.722,1.722,0,0,1-1.218-.564l-1.459-1.553Z" transform="translate(-229.171 -611.918)"/><path class="n" d="M367.005,648.616l-.186,3.412a1.762,1.762,0,0,1-.387,1.23l-.318.208a1.445,1.445,0,0,0-.358.956l-.141,1.277-.542,6.033a1.7,1.7,0,0,1-1.695,1.554c-14.326.015-81.552.2-81.552.2l.284-14.857a2.9,2.9,0,0,1,.91-2.077l4.87-4.6a2.234,2.234,0,0,1,1.81-.59l1.886.238,38.3-1.6,36.608-2.587a1.728,1.728,0,0,1,.026.313c0,1.154,0,3.8,0,3.8,0,.506-.041.889-.291.979l-.021.005c-.095.029-.162.289-.15.573l.078,1.844.022.1Z" transform="translate(-207.107 -597.665)"/><path class="r" d="M328.226,637.755c-15.16.232-36.582-.323-41.859-2.386,1.772,3.594,10.438,8.184,10.438,8.184l17.932,5.765a2.026,2.026,0,0,0,.714.131h24.884a.983.983,0,0,0,.738-.332c.7-.793,2.434-2.985,4.4-5.454,2.242-2.821,4.836-5.837,5.815-8.1C346.006,637.623,342.7,637.535,328.226,637.755Z" transform="translate(-199.195 -599.138)"/><path class="c" d="M335.29,649.631l-4.915,4.069a1.482,1.482,0,0,1-1.344.286l-8.473-2.378a1.183,1.183,0,0,1-.772-1.595l1.612-3.874a.8.8,0,0,1,.886-.473l12.629,2.479A.848.848,0,0,1,335.29,649.631Z" transform="translate(-240.845 -591.731)"/><path class="r" d="M337.085,652.337l-2.811-3.732a6.29,6.29,0,0,0-5.092-2.45H297.868a8.047,8.047,0,0,0-5.66,2.45l-3.678,3.732a.345.345,0,0,0,.208.612h48A.4.4,0,0,0,337.085,652.337Z" transform="translate(-188.575 -591.367)"/><path class="c" d="M289,645.841l-.915,6.563a.839.839,0,0,1-.475.644l-1.724.8a.643.643,0,0,1-.809-.284l-2.969-4.07c-.334-.458-.194-1.349.229-1.488Z" transform="translate(-129.262 -591.594)"/><g transform="translate(90.584 36.231)"><path class="s" d="M322.22,635.557l-.246-.188A1.041,1.041,0,0,0,322.22,635.557Z" transform="translate(-321.974 -635.369)"/><path class="r" d="M332.085,637.465l-30.816.09s-14.727-.635-17.18-2.077l6.35,4.834,15.95,2.46h28.46a2.5,2.5,0,0,0,.755-.117l7.31-2.343,6.352-4.834c-.962.564-4.2.764-7.307,1.092C338.691,637.484,332.085,637.465,332.085,637.465Z" transform="translate(-283.843 -635.29)"/><path class="s" d="M283.946,635.557a1.118,1.118,0,0,0,.246-.188Z" transform="translate(-218.523 -635.369)"/></g><path class="c" d="M341.557,646.707l-11.423-1.337-.654-.086-.169-.021-7.933-1.017a2.382,2.382,0,0,1-1.808-1.266l0-.01c-.014-.07-.115-.509-.336-1.2l-.007-.022a22.145,22.145,0,0,0-4.146-7.539.459.459,0,0,1,.446-.75c1.153.268,2.718.623,4.5,1.022,2.684.606,5.86,1.313,8.838,1.97,5.416,1.2,10.63,2.147,10.63,2.147Z" transform="translate(-238.667 -600.522)"/><path class="c" d="M284.734,637.829l8.664-4.1,1.891,2.694a1.339,1.339,0,0,1,.241.74l.1,4.926a1.051,1.051,0,0,1-.917,1.065l-12.638,2.107Z" transform="translate(-136.161 -600.318)"/><path class="o" d="M330.913,664.5l.975.053.107.014c.021-2.381.031-4.1.031-6.512,0-11.017,2.918-19.95,6.52-19.95s6.519,8.932,6.519,19.95c0,2.766,0,4.932,0,7.384h.046c.363,0,.712-.007,1.046-.015v-7.368c0-12.862-3.408-23.287-7.611-23.287s-7.609,10.426-7.609,23.287C330.939,660.461,330.93,662.279,330.913,664.5Z" transform="translate(-270.708 -599.571)"/><ellipse class="n" cx="2.497" cy="2.497" rx="2.497" ry="2.497" transform="translate(87.926 37.623)"/><ellipse class="t" cx="1.418" cy="1.418" rx="1.418" ry="1.418" transform="translate(93.879 40.601)"/><ellipse class="n" cx="2.497" cy="2.497" rx="2.497" ry="2.497" transform="translate(152.924 36.442)"/><ellipse class="t" cx="1.418" cy="1.418" rx="1.418" ry="1.418" transform="translate(149.129 39.419)"/><path class="q" d="M356.435,617.628a6.11,6.11,0,0,0-3.928,1.567c-2.632,2.405-.979,4.215-3.609,6.617s-4.285.593-6.918,3-.977,4.215-3.609,6.618a5.6,5.6,0,0,1-1.478,1h-4.6a2.235,2.235,0,0,1-1.941-1.034c-4.941-8.146-8.456-13.359-12.8-16.5-.542-.394-.158-1.273.554-1.273Z" transform="translate(-257.559 -611.918)"/><path class="q" d="M364.986,623.065a4.215,4.215,0,0,0-1.228.81c-2,1.829-.742,3.205-2.744,5.031s-3.257.451-5.258,2.28-.743,3.2-2.744,5.034c-.091.083-.182.162-.272.232q-.619-.052-1.2-.1c-.172-.016-.339-.028-.506-.039.031-4.645.084-13.125.241-15.81.084-.053.177-.11.265-.163.308-.187.626-.375.951-.554a24.157,24.157,0,0,1,10.565-3.043c.31-.014.623-.026.943-.029.095,0,.189,0,.286,0q.624,0,1.2.012l.4.009c-.065,1.327-.7,4.564-.4,4.569C365.92,621.312,366.348,622.5,364.986,623.065Z" transform="translate(-325.083 -612.578)"/><path class="r" d="M349.165,616.715l1.094,20.965c1.337.151,2.689.3,4.034.456l-2.41-21.372c-.745-.033-1.553-.052-2.436-.052C349.352,616.712,349.258,616.712,349.165,616.715Z" transform="translate(-310.243 -612.578)"/><path class="r" d="M359.39,619.29v15.492c.237.014.483.033.735.053V618.822C359.873,618.977,359.629,619.13,359.39,619.29Z" transform="translate(-333.665 -611.058)"/><path class="q" d="M332.83,644.831l-7.933-1.017a2.382,2.382,0,0,1-1.808-1.266l0-.01c-.021-.07-.165-.528-.336-1.2l-.007-.022c-.569-2.252-1.45-6.844.771-7.26l.028-.007c2.684.606,5.86,1.313,8.838,1.97l.07.031s-4.671-.614-3.692,4.134A6.694,6.694,0,0,0,332.83,644.831Z" transform="translate(-242.186 -600.089)"/><path class="u" d="M322.587,640.388a3.105,3.105,0,0,1-.569.028,4.407,4.407,0,0,1-.745-.089l.091,0Z" transform="translate(-230.551 -595.567)"/><path class="o" d="M357.4,660.041l1.084.354c0-.735.005-1.5.005-2.341,0-11.017,2.918-19.95,6.52-19.95s6.519,8.932,6.519,19.95v4.735l.6.033h.014l.483.026c0-1.5,0-3.042,0-4.793,0-12.862-3.408-23.287-7.611-23.287s-7.609,10.426-7.609,23.287C357.4,658.756,357.4,659.412,357.4,660.041Z" transform="translate(-342.727 -599.571)"/><g transform="translate(48.594 42.686)"><g class="v"><g transform="translate(8.644 1.031)"><path class="c" d="M331.439,639.72c6.572,0,11.9,7.3,11.9,16.315s-5.326,16.316-11.9,16.316H322.9V639.72Z" transform="translate(-311.332 -639.72)"/><g transform="translate(18.643)"><g class="w"><g transform="translate(1.319 -1.438)"><line class="e" y1="2.848" x2="14.789"/><line class="e" y1="2.848" x2="14.789" transform="translate(0 2.38)"/><line class="e" y1="2.848" x2="14.789" transform="translate(0 4.759)"/><line class="e" y1="2.848" x2="14.789" transform="translate(0 7.139)"/><line class="e" y1="2.848" x2="14.789" transform="translate(0 9.519)"/><line class="e" y1="2.848" x2="14.789" transform="translate(0 11.898)"/><line class="e" y1="2.848" x2="14.789" transform="translate(0 14.278)"/><line class="e" y1="2.848" x2="14.789" transform="translate(0 16.657)"/><line class="e" y1="2.848" x2="14.789" transform="translate(0 19.037)"/><line class="e" y1="2.848" x2="14.789" transform="translate(0 21.417)"/><line class="e" y1="2.848" x2="14.789" transform="translate(0 23.796)"/><line class="e" y1="2.848" x2="14.789" transform="translate(0 26.176)"/><line class="e" y1="2.848" x2="14.789" transform="translate(0 28.556)"/><line class="e" y1="2.848" x2="14.789" transform="translate(0 30.935)"/></g></g></g><g transform="translate(11.564)"><g class="x"><g transform="translate(0.004 -0.313)"><line class="e" x1="15.043" y1="2.856"/><line class="e" x1="15.043" y1="2.856" transform="translate(0 2.444)"/><line class="e" x1="15.043" y1="2.856" transform="translate(0 4.888)"/><line class="e" x1="15.043" y1="2.856" transform="translate(0 7.333)"/><line class="e" x1="15.043" y1="2.856" transform="translate(0 9.777)"/><line class="e" x1="15.043" y1="2.856" transform="translate(0 12.221)"/><line class="e" x1="15.043" y1="2.856" transform="translate(0 14.665)"/><line class="e" x1="15.043" y1="2.856" transform="translate(0 17.109)"/><line class="e" x1="15.043" y1="2.856" transform="translate(0 19.553)"/><line class="e" x1="15.043" y1="2.856" transform="translate(0 21.998)"/><line class="e" x1="15.043" y1="2.856" transform="translate(0 24.442)"/><line class="e" x1="15.043" y1="2.856" transform="translate(0 26.886)"/><line class="e" x1="15.043" y1="2.856" transform="translate(0 29.33)"/><line class="e" x1="15.043" y1="2.856" transform="translate(0 31.774)"/></g></g></g><ellipse class="c" cx="11.898" cy="16.315" rx="11.898" ry="16.315" transform="translate(0)"/><path class="c" d="M324.254,639.72c6.572,0,11.9,7.26,11.9,16.215s-5.326,16.216-11.9,16.216h1.631c6.572,0,11.9-7.26,11.9-16.216s-5.326-16.215-11.9-16.215Z" transform="translate(-308.114 -639.72)"/><g transform="translate(16.14)"><g class="y" transform="translate(0)"><g transform="translate(0.888 0.344)"><line class="e" x1="15.043" y1="2.856" transform="translate(0)"/><line class="e" x1="15.043" y1="2.856" transform="translate(0.126 2.358)"/><line class="e" x1="15.043" y1="2.856" transform="translate(0.252 4.715)"/><line class="e" x1="15.043" y1="2.856" transform="translate(0.379 7.073)"/><line class="e" x1="15.043" y1="2.856" transform="translate(0.505 9.43)"/><line class="e" x1="15.043" y1="2.856" transform="translate(0.631 11.788)"/><line class="e" x1="15.043" y1="2.856" transform="translate(0.758 14.146)"/><line class="e" x1="15.043" y1="2.856" transform="translate(0.884 16.503)"/><line class="e" x1="15.043" y1="2.856" transform="translate(1.01 18.861)"/><line class="e" x1="15.043" y1="2.856" transform="translate(1.136 21.219)"/><line class="e" x1="15.043" y1="2.856" transform="translate(1.263 23.576)"/><line class="e" x1="15.043" y1="2.856" transform="translate(1.389 25.934)"/><line class="e" x1="15.043" y1="2.856" transform="translate(1.515 28.291)"/><line class="e" x1="15.043" y1="2.856" transform="translate(1.641 30.649)"/></g></g></g><path class="c" d="M325.2,639.72c6.572,0,11.9,7.26,11.9,16.215s-5.326,16.216-11.9,16.216h1.631c6.57,0,11.9-7.26,11.9-16.216s-5.328-16.215-11.9-16.215Z" transform="translate(-310.693 -639.72)"/><g transform="translate(14.509)"><g class="z"><g transform="translate(-0.753 -1.907)"><line class="e" y1="2.856" x2="15.043" transform="translate(4.924)"/><line class="e" y1="2.856" x2="15.043" transform="translate(4.545 2.444)"/><line class="e" y1="2.856" x2="15.043" transform="translate(4.166 4.888)"/><line class="e" y1="2.856" x2="15.043" transform="translate(3.788 7.332)"/><line class="e" y1="2.856" x2="15.043" transform="translate(3.409 9.777)"/><line class="e" y1="2.856" x2="15.043" transform="translate(3.03 12.221)"/><line class="e" y1="2.856" x2="15.043" transform="translate(2.651 14.665)"/><line class="e" y1="2.856" x2="15.043" transform="translate(2.273 17.109)"/><line class="e" y1="2.856" x2="15.043" transform="translate(1.894 19.553)"/><line class="e" y1="2.856" x2="15.043" transform="translate(1.515 21.998)"/><line class="e" y1="2.856" x2="15.043" transform="translate(1.136 24.442)"/><line class="e" y1="2.856" x2="15.043" transform="translate(0.758 26.886)"/><line class="e" y1="2.856" x2="15.043" transform="translate(0.379 29.33)"/><line class="e" y1="2.856" x2="15.043" transform="translate(0 31.774)"/></g></g></g><g transform="translate(3.173 4.041)"><path class="m" d="M330.1,654.315a15.289,15.289,0,0,0,2.837,9.257,9.124,9.124,0,0,0,1.251,1.325,6.278,6.278,0,0,0,4.132,1.66,6.362,6.362,0,0,0,4.347-1.851h0a9.685,9.685,0,0,0,1.3-1.5,15.524,15.524,0,0,0,2.572-8.891,17.679,17.679,0,0,0-.217-2.784,16.361,16.361,0,0,0-.444-2.033c-1.141-3.96-3.642-6.844-6.627-7.35a5.649,5.649,0,0,0-.938-.079c-.186,0-.368.01-.552.028-3.043.3-5.631,3.069-6.876,6.971a15.9,15.9,0,0,0-.5,1.992A17.856,17.856,0,0,0,330.1,654.315Z" transform="translate(-330.096 -642.069)"/><g transform="translate(0.974 1.478)"><path class="c" d="M332.65,657.634a5.531,5.531,0,0,0,3.644,1.462,5.6,5.6,0,0,0,3.83-1.631l-3.307-6.758a.4.4,0,0,0-.778,0Z" transform="translate(-329.046 -637.536)"/><path class="c" d="M331,642.955l.038,8.18c0,.482.315.822.624.68l5.178-2.383C335.838,645.942,333.634,643.4,331,642.955Z" transform="translate(-322.93 -642.908)"/><path class="c" d="M330.754,651.421l3.226,6.63a13.678,13.678,0,0,0,2.267-7.836,15.606,15.606,0,0,0-.191-2.453l-5.067,2.56A.885.885,0,0,0,330.754,651.421Z" transform="translate(-321.751 -639.446)"/><path class="c" d="M335.573,650.39a13.473,13.473,0,0,0,2.5,8.158l3.455-7.114a.886.886,0,0,0-.232-1.1l-5.464-2.816A15.7,15.7,0,0,0,335.573,650.39Z" transform="translate(-335.573 -639.62)"/><path class="c" d="M335.16,649.073l5.4,2.541c.31.145.624-.2.626-.68l.034-8.007C338.539,643.195,336.258,645.633,335.16,649.073Z" transform="translate(-334.461 -642.928)"/></g></g></g></g></g><path class="aa" d="M299.361,642.1l-1.445.786,5.49,5.477-1.445-5.477,1.445-.786-5.49-5.477Z" transform="translate(-171.188 -598.231)"/></svg>