<svg xmlns="http://www.w3.org/2000/svg" xmlns:xlink="http://www.w3.org/1999/xlink" width="160" height="80" viewBox="0 0 160 80"><defs><style>.a,.e{fill:none;}.b{fill:#1a1919;}.c{fill:#141414;}.d{clip-path:url(#a);}.e{stroke:#282828;stroke-miterlimit:10;stroke-width:0.045px;}.f{clip-path:url(#b);}.g{clip-path:url(#c);}.h{clip-path:url(#d);}.i{fill:#3b3b3b;}.j{clip-path:url(#e);}.k{clip-path:url(#f);}.l{clip-path:url(#g);}.m{clip-path:url(#h);}.n{fill:#7d7d7d;}.o{clip-path:url(#i);}.p{clip-path:url(#j);}.q{clip-path:url(#k);}.r{opacity:0.2;}.s{fill:#ea0189;}.t{fill:#ccc;}.u{fill:url(#l);}.v{fill:#e6e6e6;}.w{fill:#12d288;}.x{fill:#fff;}.y{fill:#b3b3b3;}</style><clipPath id="a"><path class="a" d="M1002.216,825.34c6.024,0,10.907,6.943,10.907,15.508,0,8.479-4.785,15.367-10.723,15.507l-1.526,0s10.257-3.329,10.257-15.86C1011.131,828.723,1002.216,825.34,1002.216,825.34Z" transform="translate(-1000.874 -825.34)"/></clipPath><clipPath id="b"><path class="a" d="M997.628,825.34c6.025,0,10.907,6.943,10.907,15.508s-4.883,15.509-10.907,15.509H994.7V825.34Z" transform="translate(-994.703 -825.34)"/></clipPath><clipPath id="c"><path class="a" d="M998.693,825.34c6.024,0,10.906,6.943,10.906,15.508s-4.883,15.509-10.906,15.509h1.495c6.024,0,10.906-6.944,10.906-15.509s-4.883-15.508-10.906-15.508Z" transform="translate(-998.693 -825.34)"/></clipPath><clipPath id="d"><path class="a" d="M997.271,825.34c6.024,0,10.907,6.943,10.907,15.508s-4.884,15.509-10.907,15.509h1.495c6.024,0,10.907-6.944,10.907-15.509s-4.884-15.508-10.907-15.508Z" transform="translate(-997.271 -825.34)"/></clipPath><clipPath id="e"><path class="a" d="M945.321,825.648c6.006,0,10.875,6.944,10.875,15.509,0,8.478-4.77,15.367-10.692,15.506-.061,0-1.46,0-1.522,0,0,0,10.227-3.33,10.227-15.861C954.209,829.032,945.321,825.648,945.321,825.648Z" transform="translate(-943.982 -825.648)"/></clipPath><clipPath id="f"><path class="a" d="M940.748,825.648c6,0,10.874,6.944,10.874,15.509s-4.869,15.509-10.874,15.509h-2.917V825.648Z" transform="translate(-937.831 -825.648)"/></clipPath><clipPath id="g"><path class="a" d="M941.808,825.648c6.006,0,10.874,6.944,10.874,15.509s-4.868,15.509-10.874,15.509h1.49c6.006,0,10.874-6.944,10.874-15.509S949.3,825.648,943.3,825.648Z" transform="translate(-941.808 -825.648)"/></clipPath><clipPath id="h"><path class="a" d="M940.391,825.648c6,0,10.874,6.944,10.874,15.509s-4.869,15.509-10.874,15.509h1.49c6,0,10.874-6.944,10.874-15.509s-4.869-15.509-10.874-15.509Z" transform="translate(-940.391 -825.648)"/></clipPath><clipPath id="i"><path class="a" d="M906.067,825.168c2.854,0,5.17,6.943,5.17,15.508s-2.315,15.509-5.17,15.509h-9.092V825.168Z" transform="translate(-896.975 -825.168)"/></clipPath><clipPath id="j"><path class="a" d="M901.354,825.168c2.854,0,5.17,6.943,5.17,15.508s-2.315,15.509-5.17,15.509h1.871c2.856,0,5.17-6.944,5.17-15.509s-2.314-15.508-5.17-15.508Z" transform="translate(-901.354 -825.168)"/></clipPath><clipPath id="k"><path class="a" d="M899.574,825.168c2.856,0,5.17,6.943,5.17,15.508s-2.314,15.509-5.17,15.509h1.872c2.854,0,5.169-6.944,5.169-15.509s-2.314-15.508-5.169-15.508Z" transform="translate(-899.574 -825.168)"/></clipPath><linearGradient id="l" y1="0.5" x2="1" y2="0.5" gradientUnits="objectBoundingBox"><stop offset="0" stop-color="#fff"/><stop offset="1" stop-color="#fff"/></linearGradient></defs><g transform="translate(-880.107 -780.569)"><path class="b" d="M893.107,838.02l-1.637-3.23-.5-14.285,3.808-4.288,47.772.257L970,832.038l49.5-.357,1.442,8.989-1.4,2.88-6.932,1.7-49.4.147-14.126-1.638-39.9-1.509Z" transform="translate(0.563 1.847)"/><g transform="translate(990.041 827.66)"><path class="c" d="M1002.536,825.34c6.024,0,10.907,6.943,10.907,15.508s-4.884,15.509-10.907,15.509H994.7V825.34Z" transform="translate(-984.103 -825.34)"/><g transform="translate(17.091 0)"><g class="d"><g transform="translate(1.209 -1.367)"><line class="e" y1="2.707" x2="13.557"/><line class="e" y1="2.707" x2="13.557" transform="translate(0 2.262)"/><line class="e" y1="2.707" x2="13.557" transform="translate(0 4.524)"/><line class="e" y1="2.707" x2="13.557" transform="translate(0 6.786)"/><line class="e" y1="2.707" x2="13.557" transform="translate(0 9.048)"/><line class="e" y1="2.707" x2="13.557" transform="translate(0 11.31)"/><line class="e" y1="2.707" x2="13.557" transform="translate(0 13.572)"/><line class="e" y1="2.707" x2="13.557" transform="translate(0 15.834)"/><line class="e" y1="2.707" x2="13.557" transform="translate(0 18.096)"/><line class="e" y1="2.707" x2="13.557" transform="translate(0 20.358)"/><line class="e" y1="2.707" x2="13.557" transform="translate(0 22.62)"/><line class="e" y1="2.707" x2="13.557" transform="translate(0 24.882)"/><line class="e" y1="2.707" x2="13.557" transform="translate(0 27.144)"/><line class="e" y1="2.707" x2="13.557" transform="translate(0 29.406)"/></g></g></g><g transform="translate(10.6 0)"><g class="f"><g transform="translate(0.005 -0.297)"><line class="e" x1="13.791" y1="2.715"/><line class="e" x1="13.791" y1="2.715" transform="translate(0 2.323)"/><line class="e" x1="13.791" y1="2.715" transform="translate(0 4.647)"/><line class="e" x1="13.791" y1="2.715" transform="translate(0 6.97)"/><line class="e" x1="13.791" y1="2.715" transform="translate(0 9.293)"/><line class="e" x1="13.791" y1="2.715" transform="translate(0 11.617)"/><line class="e" x1="13.791" y1="2.715" transform="translate(0 13.94)"/><line class="e" x1="13.791" y1="2.715" transform="translate(0 16.263)"/><line class="e" x1="13.791" y1="2.715" transform="translate(0 18.587)"/><line class="e" x1="13.791" y1="2.715" transform="translate(0 20.91)"/><line class="e" x1="13.791" y1="2.715" transform="translate(0 23.233)"/><line class="e" x1="13.791" y1="2.715" transform="translate(0 25.557)"/><line class="e" x1="13.791" y1="2.715" transform="translate(0 27.88)"/><line class="e" x1="13.791" y1="2.715" transform="translate(0 30.203)"/></g></g></g><ellipse class="c" cx="10.907" cy="15.509" rx="10.907" ry="15.509"/><path class="c" d="M998.693,825.34c6.024,0,10.907,6.9,10.907,15.413s-4.884,15.414-10.907,15.414h1.495c6.024,0,10.907-6.9,10.907-15.414s-4.884-15.413-10.907-15.413Z" transform="translate(-983.896 -825.34)"/><g transform="translate(14.797 0)"><g class="g"><g transform="translate(0.813 0.327)"><line class="e" x1="13.791" y1="2.715"/><line class="e" x1="13.791" y1="2.715" transform="translate(0.116 2.241)"/><line class="e" x1="13.791" y1="2.715" transform="translate(0.231 4.482)"/><line class="e" x1="13.791" y1="2.715" transform="translate(0.347 6.723)"/><line class="e" x1="13.791" y1="2.715" transform="translate(0.463 8.964)"/><line class="e" x1="13.791" y1="2.715" transform="translate(0.579 11.205)"/><line class="e" x1="13.791" y1="2.715" transform="translate(0.694 13.446)"/><line class="e" x1="13.791" y1="2.715" transform="translate(0.81 15.687)"/><line class="e" x1="13.791" y1="2.715" transform="translate(0.926 17.928)"/><line class="e" x1="13.791" y1="2.715" transform="translate(1.042 20.169)"/><line class="e" x1="13.791" y1="2.715" transform="translate(1.157 22.411)"/><line class="e" x1="13.791" y1="2.715" transform="translate(1.273 24.652)"/><line class="e" x1="13.791" y1="2.715" transform="translate(1.389 26.893)"/><line class="e" x1="13.791" y1="2.715" transform="translate(1.505 29.134)"/></g></g></g><path class="c" d="M997.271,825.34c6.024,0,10.907,6.9,10.907,15.413s-4.884,15.414-10.907,15.414h1.495c6.024,0,10.907-6.9,10.907-15.414s-4.884-15.413-10.907-15.413Z" transform="translate(-983.97 -825.34)"/><g transform="translate(13.301 0)"><g class="h"><g transform="translate(-0.691 -1.813)"><line class="e" y1="2.715" x2="13.791" transform="translate(4.514)"/><line class="e" y1="2.715" x2="13.791" transform="translate(4.166 2.323)"/><line class="e" y1="2.715" x2="13.791" transform="translate(3.819 4.647)"/><line class="e" y1="2.715" x2="13.791" transform="translate(3.472 6.97)"/><line class="e" y1="2.715" x2="13.791" transform="translate(3.125 9.293)"/><line class="e" y1="2.715" x2="13.791" transform="translate(2.778 11.617)"/><line class="e" y1="2.715" x2="13.791" transform="translate(2.43 13.94)"/><line class="e" y1="2.715" x2="13.791" transform="translate(2.083 16.263)"/><line class="e" y1="2.715" x2="13.791" transform="translate(1.736 18.587)"/><line class="e" y1="2.715" x2="13.791" transform="translate(1.389 20.91)"/><line class="e" y1="2.715" x2="13.791" transform="translate(1.042 23.233)"/><line class="e" y1="2.715" x2="13.791" transform="translate(0.694 25.557)"/><line class="e" y1="2.715" x2="13.791" transform="translate(0.347 27.88)"/><line class="e" y1="2.715" x2="13.791" transform="translate(0 30.203)"/></g></g></g><g transform="translate(2.908 3.842)"><path class="i" d="M987.39,840.634a14.9,14.9,0,0,0,2.6,8.8,8.506,8.506,0,0,0,1.146,1.26,5.645,5.645,0,0,0,3.789,1.578,5.729,5.729,0,0,0,3.984-1.76h0a9.027,9.027,0,0,0,1.195-1.426,15.152,15.152,0,0,0,2.357-8.45,17.484,17.484,0,0,0-.2-2.647,16.264,16.264,0,0,0-.408-1.932c-1.044-3.764-3.337-6.505-6.074-6.986a4.959,4.959,0,0,0-.858-.075c-.17,0-.339.009-.507.025-2.789.286-5.162,2.917-6.3,6.627a15.846,15.846,0,0,0-.454,1.893A17.578,17.578,0,0,0,987.39,840.634Z" transform="translate(-987.39 -828.993)"/></g></g><path class="c" d="M1002.615,839.961v4.757l-14.6,3.7-3.853-8.5Z" transform="translate(5.391 3.075)"/><g transform="translate(930.254 827.984)"><path class="c" d="M945.64,825.648c6.006,0,10.875,6.944,10.875,15.509s-4.869,15.509-10.875,15.509h-7.809V825.648Z" transform="translate(-927.263 -825.648)"/><g transform="translate(17.038)"><g class="j"><g transform="translate(1.206 -1.366)"><line class="e" y1="2.707" x2="13.516"/><line class="e" y1="2.707" x2="13.516" transform="translate(0 2.262)"/><line class="e" y1="2.707" x2="13.516" transform="translate(0 4.524)"/><line class="e" y1="2.707" x2="13.516" transform="translate(0 6.786)"/><line class="e" y1="2.707" x2="13.516" transform="translate(0 9.048)"/><line class="e" y1="2.707" x2="13.516" transform="translate(0 11.31)"/><line class="e" y1="2.707" x2="13.516" transform="translate(0 13.572)"/><line class="e" y1="2.707" x2="13.516" transform="translate(0 15.834)"/><line class="e" y1="2.707" x2="13.516" transform="translate(0 18.096)"/><line class="e" y1="2.707" x2="13.516" transform="translate(0 20.358)"/><line class="e" y1="2.707" x2="13.516" transform="translate(0 22.62)"/><line class="e" y1="2.707" x2="13.516" transform="translate(0 24.882)"/><line class="e" y1="2.707" x2="13.516" transform="translate(0 27.144)"/><line class="e" y1="2.707" x2="13.516" transform="translate(0 29.406)"/></g></g></g><g transform="translate(10.568)"><g class="k"><g transform="translate(0.004 -0.297)"><line class="e" x1="13.749" y1="2.715"/><line class="e" x1="13.749" y1="2.715" transform="translate(0 2.323)"/><line class="e" x1="13.749" y1="2.715" transform="translate(0 4.647)"/><line class="e" x1="13.749" y1="2.715" transform="translate(0 6.97)"/><line class="e" x1="13.749" y1="2.715" transform="translate(0 9.293)"/><line class="e" x1="13.749" y1="2.715" transform="translate(0 11.617)"/><line class="e" x1="13.749" y1="2.715" transform="translate(0 13.94)"/><line class="e" x1="13.749" y1="2.715" transform="translate(0 16.263)"/><line class="e" x1="13.749" y1="2.715" transform="translate(0 18.587)"/><line class="e" x1="13.749" y1="2.715" transform="translate(0 20.91)"/><line class="e" x1="13.749" y1="2.715" transform="translate(0 23.233)"/><line class="e" x1="13.749" y1="2.715" transform="translate(0 25.557)"/><line class="e" x1="13.749" y1="2.715" transform="translate(0 27.88)"/><line class="e" x1="13.749" y1="2.715" transform="translate(0 30.203)"/></g></g></g><ellipse class="c" cx="10.874" cy="15.509" rx="10.874" ry="15.509" transform="translate(0 0.001)"/><path class="c" d="M941.808,825.648c6.006,0,10.875,6.9,10.875,15.414s-4.869,15.413-10.875,15.413h1.49c6.006,0,10.874-6.9,10.874-15.413S949.3,825.648,943.3,825.648Z" transform="translate(-927.057 -825.648)"/><g transform="translate(14.751)"><g class="l"><g transform="translate(0.811 0.327)"><line class="e" x1="13.749" y1="2.715"/><line class="e" x1="13.749" y1="2.715" transform="translate(0.115 2.241)"/><line class="e" x1="13.749" y1="2.715" transform="translate(0.231 4.482)"/><line class="e" x1="13.749" y1="2.715" transform="translate(0.346 6.723)"/><line class="e" x1="13.749" y1="2.715" transform="translate(0.462 8.964)"/><line class="e" x1="13.749" y1="2.715" transform="translate(0.577 11.205)"/><line class="e" x1="13.749" y1="2.715" transform="translate(0.692 13.446)"/><line class="e" x1="13.749" y1="2.715" transform="translate(0.808 15.687)"/><line class="e" x1="13.749" y1="2.715" transform="translate(0.923 17.928)"/><line class="e" x1="13.749" y1="2.715" transform="translate(1.038 20.169)"/><line class="e" x1="13.749" y1="2.715" transform="translate(1.154 22.411)"/><line class="e" x1="13.749" y1="2.715" transform="translate(1.269 24.652)"/><line class="e" x1="13.749" y1="2.715" transform="translate(1.385 26.893)"/><line class="e" x1="13.749" y1="2.715" transform="translate(1.5 29.134)"/></g></g></g><path class="c" d="M940.391,825.648c6,0,10.874,6.9,10.874,15.414s-4.869,15.413-10.874,15.413h1.49c6,0,10.874-6.9,10.874-15.413s-4.869-15.414-10.874-15.414Z" transform="translate(-927.13 -825.648)"/><g transform="translate(13.261)"><g class="m"><g transform="translate(-0.689 -1.812)"><line class="e" y1="2.715" x2="13.749" transform="translate(4.5)"/><line class="e" y1="2.715" x2="13.749" transform="translate(4.154 2.323)"/><line class="e" y1="2.715" x2="13.749" transform="translate(3.808 4.647)"/><line class="e" y1="2.715" x2="13.749" transform="translate(3.462 6.97)"/><line class="e" y1="2.715" x2="13.749" transform="translate(3.115 9.293)"/><line class="e" y1="2.715" x2="13.749" transform="translate(2.769 11.617)"/><line class="e" y1="2.715" x2="13.749" transform="translate(2.423 13.94)"/><line class="e" y1="2.715" x2="13.749" transform="translate(2.077 16.263)"/><line class="e" y1="2.715" x2="13.749" transform="translate(1.731 18.587)"/><line class="e" y1="2.715" x2="13.749" transform="translate(1.385 20.91)"/><line class="e" y1="2.715" x2="13.749" transform="translate(1.038 23.233)"/><line class="e" y1="2.715" x2="13.749" transform="translate(0.692 25.557)"/><line class="e" y1="2.715" x2="13.749" transform="translate(0.346 27.88)"/><line class="e" y1="2.715" x2="13.749" transform="translate(0 30.203)"/></g></g></g><g transform="translate(2.9 3.842)"><path class="n" d="M930.54,840.941a14.932,14.932,0,0,0,2.594,8.8,8.369,8.369,0,0,0,1.143,1.26,5.617,5.617,0,0,0,3.777,1.579,5.7,5.7,0,0,0,3.972-1.761h0a9.054,9.054,0,0,0,1.192-1.425,15.188,15.188,0,0,0,2.351-8.451,17.5,17.5,0,0,0-.2-2.646,16.118,16.118,0,0,0-.407-1.933c-1.041-3.763-3.328-6.505-6.056-6.986a5.02,5.02,0,0,0-.855-.075c-.17,0-.338.01-.506.026-2.78.286-5.146,2.917-6.284,6.626a15.882,15.882,0,0,0-.453,1.894A17.649,17.649,0,0,0,930.54,840.941Z" transform="translate(-930.54 -829.301)"/><g transform="translate(0.891 1.405)"><path class="c" d="M934.519,849.137a4.958,4.958,0,0,0,3.329,1.391,5.026,5.026,0,0,0,3.5-1.551l-3.021-6.423c-.176-.373-.535-.373-.711,0Z" transform="translate(-931.225 -830.034)"/><path class="c" d="M938.4,830.678l.035,7.777c0,.457.288.781.57.646l4.733-2.266C942.821,833.518,940.806,831.1,938.4,830.678Z" transform="translate(-931.024 -830.635)"/><path class="c" d="M939.214,841.63l2.947,6.3a13.376,13.376,0,0,0,2.072-7.448,15.47,15.47,0,0,0-.174-2.334l-4.631,2.435A.862.862,0,0,0,939.214,841.63Z" transform="translate(-930.986 -830.248)"/><path class="c" d="M931.387,840.5a13.168,13.168,0,0,0,2.286,7.755l3.158-6.763a.863.863,0,0,0-.213-1.043l-4.993-2.677A15.586,15.586,0,0,0,931.387,840.5Z" transform="translate(-931.387 -830.267)"/><path class="c" d="M931.994,836.477l4.935,2.416c.283.138.571-.187.573-.646l.031-7.61C935.082,830.89,933,833.208,931.994,836.477Z" transform="translate(-931.356 -830.637)"/></g></g></g><g transform="translate(892.68 827.479)"><path class="c" d="M906.067,825.168c2.854,0,5.17,6.943,5.17,15.508s-2.315,15.509-5.17,15.509h-9.092V825.168Z" transform="translate(-891.806 -825.168)"/><g transform="translate(5.169 0)"><g class="o"><g transform="translate(1.456 -1.367)"><g transform="translate(0 1.07)"><line class="e" x1="6.536" y1="2.715"/><line class="e" x1="6.536" y1="2.715" transform="translate(0 2.323)"/><line class="e" x1="6.536" y1="2.715" transform="translate(0 4.647)"/><line class="e" x1="6.536" y1="2.715" transform="translate(0 6.97)"/><line class="e" x1="6.536" y1="2.715" transform="translate(0 9.293)"/><line class="e" x1="6.536" y1="2.715" transform="translate(0 11.617)"/><line class="e" x1="6.536" y1="2.715" transform="translate(0 13.94)"/><line class="e" x1="6.536" y1="2.715" transform="translate(0 16.263)"/><line class="e" x1="6.536" y1="2.715" transform="translate(0 18.587)"/><line class="e" x1="6.536" y1="2.715" transform="translate(0 20.91)"/><line class="e" x1="6.536" y1="2.715" transform="translate(0 23.233)"/><line class="e" x1="6.536" y1="2.715" transform="translate(0 25.557)"/><line class="e" x1="6.536" y1="2.715" transform="translate(0 27.88)"/><line class="e" x1="6.536" y1="2.715" transform="translate(0 30.203)"/></g><g transform="translate(6.388)"><line class="e" y1="2.715" x2="6.447"/><line class="e" y1="2.715" x2="6.447" transform="translate(0 2.268)"/><line class="e" y1="2.715" x2="6.447" transform="translate(0 4.537)"/><line class="e" y1="2.715" x2="6.447" transform="translate(0 6.805)"/><line class="e" y1="2.715" x2="6.447" transform="translate(0 9.074)"/><line class="e" y1="2.715" x2="6.447" transform="translate(0 11.342)"/><line class="e" y1="2.715" x2="6.447" transform="translate(0 13.611)"/><line class="e" y1="2.715" x2="6.447" transform="translate(0 15.879)"/><line class="e" y1="2.715" x2="6.447" transform="translate(0 18.148)"/><line class="e" y1="2.715" x2="6.447" transform="translate(0 20.416)"/><line class="e" y1="2.715" x2="6.447" transform="translate(0 22.685)"/><line class="e" y1="2.715" x2="6.447" transform="translate(0 24.953)"/><line class="e" y1="2.715" x2="6.447" transform="translate(0 27.222)"/><line class="e" y1="2.715" x2="6.447" transform="translate(0 29.49)"/></g></g></g></g><ellipse class="c" cx="5.17" cy="15.509" rx="5.17" ry="15.509"/><path class="c" d="M901.354,825.322c2.854,0,5.17,6.87,5.17,15.346s-2.315,15.346-5.17,15.346h1.871c2.856,0,5.17-6.87,5.17-15.346s-2.314-15.346-5.17-15.346Z" transform="translate(-891.579 -825.16)"/><g transform="translate(9.775 0)"><g class="p"><g transform="translate(0.386 0.327)"><line class="e" x1="6.536" y1="2.715"/><line class="e" x1="6.536" y1="2.715" transform="translate(0.055 2.241)"/><line class="e" x1="6.536" y1="2.715" transform="translate(0.11 4.482)"/><line class="e" x1="6.536" y1="2.715" transform="translate(0.165 6.723)"/><line class="e" x1="6.536" y1="2.715" transform="translate(0.219 8.964)"/><line class="e" x1="6.536" y1="2.715" transform="translate(0.274 11.205)"/><line class="e" x1="6.536" y1="2.715" transform="translate(0.329 13.446)"/><line class="e" x1="6.536" y1="2.715" transform="translate(0.384 15.687)"/><line class="e" x1="6.536" y1="2.715" transform="translate(0.439 17.928)"/><line class="e" x1="6.536" y1="2.715" transform="translate(0.494 20.169)"/><line class="e" x1="6.536" y1="2.715" transform="translate(0.549 22.411)"/><line class="e" x1="6.536" y1="2.715" transform="translate(0.603 24.652)"/><line class="e" x1="6.536" y1="2.715" transform="translate(0.658 26.893)"/><line class="e" x1="6.536" y1="2.715" transform="translate(0.713 29.134)"/></g></g></g><path class="c" d="M899.574,825.322c2.856,0,5.17,6.87,5.17,15.346s-2.314,15.346-5.17,15.346h1.872c2.854,0,5.169-6.87,5.169-15.346s-2.314-15.346-5.169-15.346Z" transform="translate(-891.671 -825.16)"/><g transform="translate(7.903 0)"><g class="q"><g transform="translate(-0.327 -1.813)"><line class="e" y1="2.715" x2="6.536" transform="translate(2.139)"/><line class="e" y1="2.715" x2="6.536" transform="translate(1.975 2.323)"/><line class="e" y1="2.715" x2="6.536" transform="translate(1.81 4.647)"/><line class="e" y1="2.715" x2="6.536" transform="translate(1.646 6.97)"/><line class="e" y1="2.715" x2="6.536" transform="translate(1.481 9.293)"/><line class="e" y1="2.715" x2="6.536" transform="translate(1.317 11.617)"/><line class="e" y1="2.715" x2="6.536" transform="translate(1.152 13.94)"/><line class="e" y1="2.715" x2="6.536" transform="translate(0.987 16.263)"/><line class="e" y1="2.715" x2="6.536" transform="translate(0.823 18.587)"/><line class="e" y1="2.715" x2="6.536" transform="translate(0.658 20.91)"/><line class="e" y1="2.715" x2="6.536" transform="translate(0.494 23.233)"/><line class="e" y1="2.715" x2="6.536" transform="translate(0.329 25.557)"/><line class="e" y1="2.715" x2="6.536" transform="translate(0.165 27.88)"/><line class="e" y1="2.715" x2="6.536" transform="translate(0 30.203)"/></g></g></g><g transform="translate(1.378 3.843)"><path class="n" d="M893.371,840.46a27.837,27.837,0,0,0,1.234,8.8,9.3,9.3,0,0,0,.543,1.26c.528,1,1.141,1.578,1.8,1.578.694,0,1.34-.643,1.888-1.76h0a10.589,10.589,0,0,0,.567-1.426,28.7,28.7,0,0,0,1.117-8.451c0-.909-.032-1.8-.094-2.646-.046-.669-.113-1.313-.194-1.932-.5-3.764-1.582-6.505-2.879-6.986a1.164,1.164,0,0,0-.407-.075,1.234,1.234,0,0,0-.24.025c-1.322.286-2.447,2.917-2.988,6.627-.087.6-.161,1.237-.216,1.893C893.416,838.353,893.371,839.39,893.371,840.46Z" transform="translate(-893.371 -828.821)"/><g transform="translate(0.424 1.404)"><path class="c" d="M895.263,848.656c.465.885,1.006,1.391,1.582,1.391.612,0,1.181-.566,1.665-1.552l-1.437-6.423c-.083-.373-.255-.373-.339,0Z" transform="translate(-893.697 -829.553)"/><path class="c" d="M897.108,830.2l.017,7.777c0,.456.137.78.27.646l2.251-2.266C899.21,833.037,898.251,830.621,897.108,830.2Z" transform="translate(-893.601 -830.154)"/><path class="c" d="M897.495,841.149l1.4,6.3A25.3,25.3,0,0,0,899.88,840c0-.8-.027-1.583-.082-2.333l-2.2,2.434A1.56,1.56,0,0,0,897.495,841.149Z" transform="translate(-893.583 -829.767)"/><path class="c" d="M893.774,840.023a24.559,24.559,0,0,0,1.086,7.755l1.5-6.763a1.568,1.568,0,0,0-.1-1.043l-2.373-2.677C893.813,838.165,893.774,839.079,893.774,840.023Z" transform="translate(-893.774 -829.786)"/><path class="c" d="M894.062,836l2.347,2.416c.135.138.271-.187.272-.646l.015-7.61C895.53,830.408,894.54,832.727,894.062,836Z" transform="translate(-893.759 -830.156)"/></g></g></g><path class="r" d="M880.67,854.4a19.824,19.824,0,0,1,3.312-.836l145.241.626a.353.353,0,0,1,.344.362s7.556.712,0,1.184-66.009,1.055-66.009,1.055l-83.408-1.382C879.924,854.524,880.67,854.4,880.67,854.4Z" transform="translate(0 3.782)"/><path class="s" d="M1014.38,832.143" transform="translate(6.957 2.672)"/><path class="t" d="M993.761,801.773l.259-3.066a.815.815,0,0,1,.81-.747l7.176-.022a.816.816,0,0,1,.817.827l-.055,4.351a.816.816,0,0,1-.813.8l-6.475.02a.817.817,0,0,1-.669-.346l-.9-1.283A.819.819,0,0,1,993.761,801.773Z" transform="translate(5.889 0.9)"/><path class="u" d="M947.509,843.97l17.092,1.144q.89.06,1.784.057l42.945-.127a27.736,27.736,0,0,0,3.114-.184l6.967-.808a1.889,1.889,0,0,0,1.64-1.536s1.358-9.108,1.4-9.784l-1.34-9.339-.726-3.45a2.249,2.249,0,0,0-.985-1.428l-2-2.229-.311-4.065c-.186-2.422-2.842-4.075-5.211-4.614l-10.828-2.833-11.973-19.558a6.193,6.193,0,0,0-4.994-2.953l-30.121-1.411q-7.371-.345-14.753-.269l-32.635.339a3.466,3.466,0,0,0-3.127,2.049l-9.075,20.269a13.091,13.091,0,0,0-.943,3.073l-2.36,13.345.282.467-2.461,2.164a60.82,60.82,0,0,0,.308,9.09,59.712,59.712,0,0,0,1.081,6.588l2.1.662-.465-8.686a15.5,15.5,0,0,1,.58-5.105l.941-3.283a1.8,1.8,0,0,1,1.9-1.3l3.869.353a1.8,1.8,0,0,1,1.584,1.35l4.39,17.963,22.995.812a1.316,1.316,0,0,0,1.342-1.312l.234-6.35,2.664-11.556a1.518,1.518,0,0,1,1.525-1.23L939,820.4a1.369,1.369,0,0,1,1.292,1.016l5.106,20.822A2.343,2.343,0,0,0,947.509,843.97Z" transform="translate(0.452 0)"/><g transform="translate(889.884 809.661)"><path class="v" d="M889.4,828.876c.454,3.244.848,6.719.848,6.719l2.1.662-.35-6.543Z" transform="translate(-889.402 -807.158)"/><path class="v" d="M902.921,830.7l1.529,6.625,23.055.812a1.315,1.315,0,0,0,1.342-1.313l.175-5.365Z" transform="translate(-888.702 -807.063)"/><path class="v" d="M940.2,829.339l2.542,10.5a2.341,2.341,0,0,0,2.108,1.734l17.092,1.145q.89.06,1.784.057l42.946-.127a27.732,27.732,0,0,0,3.113-.184l6.967-.808a1.889,1.889,0,0,0,1.64-1.536l1.4-9.915-4.418,1.08H951.635Z" transform="translate(-886.77 -807.134)"/><path class="v" d="M947.408,820.426a3.114,3.114,0,0,0,2.717,3.088l7.05.906c1.036.006,46.86.067,47.893-.073l4.586-.657a3.113,3.113,0,0,0,2.673-3.1l-.053-8.754a3.113,3.113,0,0,0-3.113-3.1h-58.64a3.113,3.113,0,0,0-3.113,3.113Z" transform="translate(-886.396 -808.739)"/><path class="w" d="M299.26,641.722l-1.344.731,5.107,5.094-1.344-5.094,1.344-.731-5.107-5.094Z" transform="translate(-203.945 -635.028)"/></g><path class="b" d="M893.319,805.045l.7.3-2.035,12.794-.74.724-.282-.468Z" transform="translate(0.562 1.268)"/><path class="t" d="M903.36,806.8l-.117.878a.845.845,0,0,0,.765.954l3.149.272a.845.845,0,0,0,.912-.742l.113-.951a.845.845,0,0,0-.786-.943l-3.144-.2A.845.845,0,0,0,903.36,806.8Z" transform="translate(1.198 1.321)"/><path class="t" d="M915.477,807.821l-.117.878a.846.846,0,0,0,.766.955l3.148.272a.845.845,0,0,0,.912-.743l.114-.95a.847.847,0,0,0-.787-.944l-3.144-.2A.846.846,0,0,0,915.477,807.821Z" transform="translate(1.826 1.374)"/><path class="b" d="M964.442,834.7l-1.018,3.692a.981.981,0,0,0,.945,1.241l35.448.034a.981.981,0,0,0,.936-1.277l-1.1-3.482a.98.98,0,0,0-.928-.686l-33.33-.243A.981.981,0,0,0,964.442,834.7Z" transform="translate(4.315 2.767)"/><circle class="b" cx="5.285" cy="5.285" r="5.285" transform="translate(953.424 812.265)"/><g transform="translate(955.294 814.135)"><circle class="x" cx="2.866" cy="2.866" r="2.866" transform="translate(0.549 0.549)"/><path class="y" d="M955.005,813.03a2.866,2.866,0,0,1,.008,5.732h-.008A2.866,2.866,0,0,1,955,813.03h.008m0-.549v0H955a3.415,3.415,0,0,0,.01,6.83h.01a3.415,3.415,0,0,0-.009-6.83Z" transform="translate(-951.59 -812.481)"/></g><g transform="translate(896.955 784.598)"><path class="b" d="M927.978,785.633a.663.663,0,0,0-.645-.617l-4.531-.1a.408.408,0,0,0-.4.3l-5.317,19.407a.408.408,0,0,0,.324.51l11.025.823a.836.836,0,0,0,.977-.882Z" transform="translate(-895.04 -784.373)"/><path class="b" d="M912.584,784.939l-7.1,18.656a.421.421,0,0,0,.363.569l8.314.532a.421.421,0,0,0,.432-.3l5.932-19.273a.3.3,0,0,0-.282-.392l-7.2-.1A.473.473,0,0,0,912.584,784.939Z" transform="translate(-895.642 -784.388)"/><path class="b" d="M904.269,784.4a.418.418,0,0,0-.4.257l-7.713,18.225a.42.42,0,0,0,.357.583l5.73.415a.419.419,0,0,0,.421-.262l7.534-18.651a.3.3,0,0,0-.273-.417Z" transform="translate(-896.125 -784.4)"/></g><path class="b" d="M932.594,804.47h0q8.838-.7,17.714-.606l42.83.466,2.97.129a.517.517,0,0,0,.464-.787L985.909,786.3a.932.932,0,0,0-.61-.429c-1.444-.291-7.146-1-24.287-1.466s-26.1.2-29.066.44a.935.935,0,0,0-.858.983l.95,18.15A.517.517,0,0,0,932.594,804.47Z" transform="translate(2.641 0.19)"/><path class="t" d="M929.671,806.331l-1.314-.861-6.484.019a1.107,1.107,0,0,1-1.016-1.167l-.058-4.134a1.112,1.112,0,0,1,1.009-1.2l7.292-.022a.461.461,0,0,1,.424.475l.156,4.441.869,1.211a.932.932,0,0,1,0,1.053h0A.632.632,0,0,1,929.671,806.331Z" transform="translate(2.108 0.953)"/><circle class="b" cx="2.394" cy="2.394" r="2.394" transform="translate(960.739 836.685)"/><circle class="b" cx="5.198" cy="5.198" r="5.198" transform="translate(1004.138 812.439)"/><g transform="translate(1005.968 814.269)"><circle class="x" cx="2.819" cy="2.819" r="2.819" transform="translate(0.548 0.549)"/><path class="y" d="M1003.135,813.158h.009a2.819,2.819,0,0,1-.009,5.638h-.008a2.819,2.819,0,0,1,.008-5.638m0-.549a3.368,3.368,0,0,0-.009,6.736h.009a3.368,3.368,0,0,0,.01-6.736h-.01Z" transform="translate(-999.768 -812.609)"/></g><circle class="b" cx="2.394" cy="2.394" r="2.394" transform="translate(1007.245 836.547)"/></g></svg>