<svg width="232" height="108" viewBox="0 0 232 108" fill="none" xmlns="http://www.w3.org/2000/svg">
<g clip-path="url(#clip0_1700_21842)">
<path d="M210.721 101.202C221.034 101.202 229.394 100.326 229.394 99.2447C229.394 98.1637 221.034 97.2875 210.721 97.2875C200.408 97.2875 192.048 98.1637 192.048 99.2447C192.048 100.326 200.408 101.202 210.721 101.202Z" fill="#E5E5E5"/>
<path d="M7.72178 98.0029C7.56588 97.9965 7.41277 97.9593 7.2712 97.8934C7.12963 97.8275 7.00236 97.7342 6.89666 97.6189C6.79097 97.5036 6.70891 97.3685 6.65519 97.2214C6.60146 97.0742 6.57711 96.9179 6.58353 96.7613C6.58994 96.6047 6.62701 96.4509 6.6926 96.3087C6.75819 96.1664 6.85102 96.0386 6.96579 95.9324C7.08057 95.8262 7.21504 95.7438 7.36152 95.6898C7.50801 95.6359 7.66364 95.6114 7.81954 95.6178H95.6044L210.721 101.23L215.658 102.072C215.928 102.124 216.168 102.273 216.335 102.492C216.501 102.711 216.582 102.984 216.561 103.259C216.541 103.533 216.42 103.791 216.223 103.982C216.025 104.173 215.765 104.285 215.491 104.295L118.244 106.007C116.483 106.064 114.721 106.027 112.964 105.895L7.72178 98.0029Z" fill="#E5E5E5"/>
<path d="M184.444 29.4738C184.793 29.3335 187.237 27.6289 189.765 28.611C192.293 29.5931 195.302 33.0374 195.149 34.2721C194.995 35.5067 194.786 36.9658 192.404 37.527L188.843 38.0882L184.444 29.4738Z" fill="white"/>
<path d="M185.023 30.6102L184.444 29.4738C184.569 29.4247 184.981 29.1581 185.575 28.8986" stroke="#DCDCDC" stroke-width="0.73" stroke-linecap="round" stroke-linejoin="round"/>
<path d="M186.713 28.4988C187.717 28.2123 188.785 28.2515 189.765 28.611C192.279 29.5861 195.302 33.0375 195.149 34.2721C194.995 35.5067 194.786 36.9658 192.404 37.527L190.7 37.7936" stroke="#DCDCDC" stroke-width="0.73" stroke-linecap="round" stroke-linejoin="round" stroke-dasharray="3.46 1.73"/>
<path d="M190.1 37.8918L188.843 38.0882L188.263 36.9518" stroke="#DCDCDC" stroke-width="0.73" stroke-linecap="round" stroke-linejoin="round"/>
<path d="M187.795 36.0469L185.254 31.0663" stroke="#DCDCDC" stroke-width="0.73" stroke-linecap="round" stroke-linejoin="round" stroke-dasharray="2.9 1.45"/>
<path d="M97.9227 91.0511H105.904L113.844 53.8228L100.681 49.1719L92.9717 64.2049L93.6979 82.9348L97.9227 91.0511Z" fill="white"/>
<path d="M97.3361 89.9216L97.9227 91.051H99.1936" stroke="#DCDCDC" stroke-width="0.73" stroke-linecap="round" stroke-linejoin="round"/>
<path d="M100.555 91.0511H103.956" stroke="#DCDCDC" stroke-width="0.73" stroke-linecap="round" stroke-linejoin="round" stroke-dasharray="3.89 1.95"/>
<path d="M104.633 91.0512H105.904L106.17 89.8025" stroke="#DCDCDC" stroke-width="0.73" stroke-linecap="round" stroke-linejoin="round"/>
<path d="M106.435 88.5609L113.446 55.6958" stroke="#DCDCDC" stroke-width="0.73" stroke-linecap="round" stroke-linejoin="round" stroke-dasharray="3.62 1.81"/>
<path d="M113.579 55.0714L113.844 53.8228L112.65 53.4019" stroke="#DCDCDC" stroke-width="0.73" stroke-linecap="round" stroke-linejoin="round"/>
<path d="M111.568 53.0161L102.42 49.7892" stroke="#DCDCDC" stroke-width="0.73" stroke-linecap="round" stroke-linejoin="round" stroke-dasharray="3.27 1.63"/>
<path d="M101.882 49.5998L100.681 49.1719L100.101 50.3083" stroke="#DCDCDC" stroke-width="0.73" stroke-linecap="round" stroke-linejoin="round"/>
<path d="M99.5358 51.4166L92.9717 64.2049L93.6979 82.9348L97.0498 89.3675" stroke="#DCDCDC" stroke-width="0.73" stroke-linecap="round" stroke-linejoin="round" stroke-dasharray="3.54 1.77"/>
<path d="M29.1878 53.8087H17.1908L21.2759 61.5252C19.4945 66.2564 18.6179 71.2829 18.6922 76.3407C18.6922 82.6542 19.9002 88.3503 21.8416 92.4751L17.1908 98.9219H29.1878C34.9768 98.9219 39.6625 88.8273 39.6625 76.3688C39.6625 63.9102 34.9768 53.8087 29.1878 53.8087Z" fill="white"/>
<path d="M18.4617 53.8228H17.1908L17.7913 54.9522" stroke="#DCDCDC" stroke-width="0.73" stroke-linecap="round" stroke-linejoin="round"/>
<path d="M18.5106 56.3201L20.3192 59.7363" stroke="#DCDCDC" stroke-width="0.73" stroke-linecap="round" stroke-linejoin="round" stroke-dasharray="4.42 2.21"/>
<path d="M20.6824 60.4238L21.2759 61.5532C21.1223 61.939 20.9687 62.3319 20.829 62.7458" stroke="#DCDCDC" stroke-width="0.73" stroke-linecap="round" stroke-linejoin="round"/>
<path d="M20.417 63.9944C19.2403 68.0117 18.6592 72.1812 18.6922 76.3687C18.6407 81.2484 19.4614 86.0978 21.1153 90.6863" stroke="#DCDCDC" stroke-width="0.73" stroke-linecap="round" stroke-linejoin="round" stroke-dasharray="3.77 1.89"/>
<path d="M21.3249 91.3037C21.4924 91.7106 21.667 92.0964 21.8416 92.4752L21.1154 93.5064" stroke="#DCDCDC" stroke-width="0.73" stroke-linecap="round" stroke-linejoin="round"/>
<path d="M20.3053 94.6077L18.3361 97.3435" stroke="#DCDCDC" stroke-width="0.73" stroke-linecap="round" stroke-linejoin="round" stroke-dasharray="3.85 1.93"/>
<path d="M17.938 97.8906L17.1908 98.9218H18.4617" stroke="#DCDCDC" stroke-width="0.73" stroke-linecap="round" stroke-linejoin="round"/>
<path d="M19.7536 98.9219H29.1878C34.9768 98.9219 39.6625 88.8273 39.6625 76.3688C39.6625 63.9102 34.9768 53.8087 29.1878 53.8087H19.1111" stroke="#DCDCDC" stroke-width="0.73" stroke-linecap="round" stroke-linejoin="round" stroke-dasharray="3.7 1.85"/>
<path d="M17.1908 98.9289C22.9835 98.9289 27.6794 88.8315 27.6794 76.3758C27.6794 63.9201 22.9835 53.8228 17.1908 53.8228C11.3981 53.8228 6.70215 63.9201 6.70215 76.3758C6.70215 88.8315 11.3981 98.9289 17.1908 98.9289Z" fill="white"/>
<path d="M27.6795 76.3688C27.6795 88.8273 22.9868 98.9219 17.2048 98.9219C11.4228 98.9219 6.7301 88.8273 6.7301 76.3688C6.7301 63.9102 11.4018 53.8087 17.1908 53.8087C22.9798 53.8087 27.6795 63.9172 27.6795 76.3688Z" stroke="#DCDCDC" stroke-width="0.73" stroke-linecap="round" stroke-linejoin="round" stroke-dasharray="3.64 1.82"/>
<path d="M16.0805 80.2832C16.713 80.2832 17.2257 79.0175 17.2257 77.4562C17.2257 75.8949 16.713 74.6292 16.0805 74.6292C15.448 74.6292 14.9352 75.8949 14.9352 77.4562C14.9352 79.0175 15.448 80.2832 16.0805 80.2832Z" fill="white"/>
<path d="M17.2257 77.4561C17.2257 79.0205 16.709 80.2621 16.0805 80.2621C15.452 80.2621 14.9352 78.9994 14.9352 77.4561C14.9352 75.9128 15.445 74.6501 16.0805 74.6501C16.7159 74.6501 17.2257 75.8918 17.2257 77.4561Z" stroke="#DCDCDC" stroke-width="0.73" stroke-linecap="round" stroke-linejoin="round" stroke-dasharray="4.13 2.07"/>
<path d="M16.6392 92.7277C20.4148 92.7277 23.4756 85.8904 23.4756 77.4561C23.4756 69.0219 20.4148 62.1846 16.6392 62.1846C12.8635 62.1846 9.80267 69.0219 9.80267 77.4561C9.80267 85.8904 12.8635 92.7277 16.6392 92.7277Z" fill="white"/>
<path d="M23.4756 77.4561C23.4756 85.8741 20.417 92.7277 16.6391 92.7277C12.8613 92.7277 9.80267 85.8881 9.80267 77.4561C9.80267 69.0242 12.8613 62.1846 16.6391 62.1846C20.417 62.1846 23.4756 69.0242 23.4756 77.4561Z" stroke="#DCDCDC" stroke-width="0.73" stroke-linecap="round" stroke-linejoin="round" stroke-dasharray="3.6 1.8"/>
<path d="M121.47 55.7449H108.614L112.992 64.0366C111.072 69.111 110.124 74.5043 110.199 79.9324C110.199 86.6948 111.491 92.8119 113.579 97.2032L108.593 104.12H121.449C127.664 104.12 132.706 93.2889 132.706 79.9324C132.706 66.5759 127.685 55.7449 121.47 55.7449Z" fill="white"/>
<path d="M109.885 55.7449H108.607L109.207 56.8743" stroke="#DCDCDC" stroke-width="0.73" stroke-linecap="round" stroke-linejoin="round"/>
<path d="M109.661 57.7371L112.168 62.4792" stroke="#DCDCDC" stroke-width="0.73" stroke-linecap="round" stroke-linejoin="round" stroke-dasharray="2.78 1.39"/>
<path d="M112.399 62.9281L112.992 64.0575C112.839 64.4433 112.685 64.8362 112.538 65.25" stroke="#DCDCDC" stroke-width="0.73" stroke-linecap="round" stroke-linejoin="round"/>
<path d="M112.14 66.4357C110.83 70.8196 110.183 75.3764 110.22 79.9535C110.146 85.2434 111.036 90.5023 112.846 95.4706" stroke="#DCDCDC" stroke-width="0.73" stroke-linecap="round" stroke-linejoin="round" stroke-dasharray="3.58 1.79"/>
<path d="M113.076 96.0387C113.244 96.4385 113.418 96.8244 113.6 97.2032L112.853 98.2344" stroke="#DCDCDC" stroke-width="0.73" stroke-linecap="round" stroke-linejoin="round"/>
<path d="M111.98 99.448L109.794 102.478" stroke="#DCDCDC" stroke-width="0.73" stroke-linecap="round" stroke-linejoin="round" stroke-dasharray="4.26 2.13"/>
<path d="M109.354 103.082L108.607 104.12H109.885" stroke="#DCDCDC" stroke-width="0.73" stroke-linecap="round" stroke-linejoin="round"/>
<path d="M111.142 104.12H121.47C127.685 104.12 132.727 93.2889 132.727 79.9324C132.727 66.5759 127.685 55.7449 121.47 55.7449H110.499" stroke="#DCDCDC" stroke-width="0.73" stroke-linecap="round" stroke-linejoin="round" stroke-dasharray="3.6 1.8"/>
<path d="M107.413 84.1344C108.092 84.1344 108.642 82.7745 108.642 81.0969C108.642 79.4194 108.092 78.0594 107.413 78.0594C106.734 78.0594 106.184 79.4194 106.184 81.0969C106.184 82.7745 106.734 84.1344 107.413 84.1344Z" fill="white"/>
<path d="M107.413 84.1344C108.092 84.1344 108.642 82.7745 108.642 81.0969C108.642 79.4194 108.092 78.0594 107.413 78.0594C106.734 78.0594 106.184 79.4194 106.184 81.0969C106.184 82.7745 106.734 84.1344 107.413 84.1344Z" stroke="#DCDCDC" stroke-width="0.73" stroke-linecap="round" stroke-linejoin="round" stroke-dasharray="3.33 1.66"/>
<path d="M108.607 104.12C114.82 104.12 119.857 93.2909 119.857 79.9324C119.857 66.574 114.82 55.7449 108.607 55.7449C102.394 55.7449 97.3571 66.574 97.3571 79.9324C97.3571 93.2909 102.394 104.12 108.607 104.12Z" fill="white"/>
<path d="M119.864 79.9324C119.864 93.2608 114.822 104.12 108.614 104.12C102.406 104.12 97.3571 93.2889 97.3571 79.9324C97.3571 66.5759 102.399 55.7449 108.614 55.7449C114.829 55.7449 119.864 66.5759 119.864 79.9324Z" stroke="#DCDCDC" stroke-width="0.73" stroke-linecap="round" stroke-linejoin="round" stroke-dasharray="3.65 1.82"/>
<path d="M108.013 97.4767C112.063 97.4767 115.346 90.1432 115.346 81.0968C115.346 72.0505 112.063 64.7169 108.013 64.7169C103.964 64.7169 100.681 72.0505 100.681 81.0968C100.681 90.1432 103.964 97.4767 108.013 97.4767Z" fill="white"/>
<path d="M115.346 81.0969C115.346 90.1391 112.064 97.4697 108.013 97.4697C103.963 97.4697 100.681 90.1391 100.681 81.0969C100.681 72.0546 103.963 64.7169 108.013 64.7169C112.064 64.7169 115.346 72.0476 115.346 81.0969Z" stroke="#DCDCDC" stroke-width="0.73" stroke-linecap="round" stroke-linejoin="round" stroke-dasharray="3.67 1.84"/>
<path d="M210.931 53.8718H198.068L202.453 62.1635C200.533 67.2379 199.585 72.6312 199.66 78.0594C199.66 84.8218 200.952 90.9388 203.033 95.3302L198.047 102.247H210.91C217.125 102.247 222.159 91.4158 222.159 78.0594C222.159 64.7029 217.146 53.8718 210.931 53.8718Z" fill="white"/>
<path d="M199.339 53.8718H198.068L198.668 55.0012" stroke="#DCDCDC" stroke-width="0.73" stroke-linecap="round" stroke-linejoin="round"/>
<path d="M199.122 55.8641L201.629 60.6062" stroke="#DCDCDC" stroke-width="0.73" stroke-linecap="round" stroke-linejoin="round" stroke-dasharray="2.78 1.39"/>
<path d="M201.852 61.0341L202.453 62.1635C202.292 62.5493 202.146 62.9491 201.999 63.356" stroke="#DCDCDC" stroke-width="0.73" stroke-linecap="round" stroke-linejoin="round"/>
<path d="M201.601 64.5416C200.287 68.9248 199.64 73.4821 199.681 78.0595C199.608 83.3487 200.496 88.6069 202.299 93.5765" stroke="#DCDCDC" stroke-width="0.73" stroke-linecap="round" stroke-linejoin="round" stroke-dasharray="3.58 1.79"/>
<path d="M202.537 94.1658C202.704 94.5656 202.879 94.9514 203.054 95.3302L202.306 96.3684" stroke="#DCDCDC" stroke-width="0.73" stroke-linecap="round" stroke-linejoin="round"/>
<path d="M201.433 97.575L199.255 100.605" stroke="#DCDCDC" stroke-width="0.73" stroke-linecap="round" stroke-linejoin="round" stroke-dasharray="4.26 2.13"/>
<path d="M198.815 101.209L198.068 102.247H199.339" stroke="#DCDCDC" stroke-width="0.73" stroke-linecap="round" stroke-linejoin="round"/>
<path d="M200.582 102.247H210.91C217.125 102.247 222.159 91.4158 222.159 78.0594C222.159 64.7029 217.125 53.8718 210.91 53.8718H199.946" stroke="#DCDCDC" stroke-width="0.73" stroke-linecap="round" stroke-linejoin="round" stroke-dasharray="3.6 1.8"/>
<path d="M196.874 82.2614C197.552 82.2614 198.103 80.9014 198.103 79.2239C198.103 77.5463 197.552 76.1864 196.874 76.1864C196.195 76.1864 195.644 77.5463 195.644 79.2239C195.644 80.9014 196.195 82.2614 196.874 82.2614Z" fill="white"/>
<path d="M198.103 79.2238C198.103 80.9004 197.551 82.2543 196.874 82.2543C196.196 82.2543 195.644 80.9004 195.644 79.2238C195.644 77.5473 196.196 76.1864 196.874 76.1864C197.551 76.1864 198.103 77.5473 198.103 79.2238Z" stroke="#DCDCDC" stroke-width="0.73" stroke-linecap="round" stroke-linejoin="round" stroke-dasharray="3.33 1.66"/>
<path d="M197.474 95.6038C201.524 95.6038 204.806 88.2703 204.806 79.2239C204.806 70.1775 201.524 62.844 197.474 62.844C193.425 62.844 190.142 70.1775 190.142 79.2239C190.142 88.2703 193.425 95.6038 197.474 95.6038Z" fill="white"/>
<path d="M204.806 79.2239C204.806 88.2662 201.524 95.5968 197.474 95.5968C193.424 95.5968 190.142 88.2662 190.142 79.2239C190.142 70.1816 193.424 62.844 197.474 62.844C201.524 62.844 204.806 70.1746 204.806 79.2239Z" stroke="#DCDCDC" stroke-width="0.73" stroke-linecap="round" stroke-linejoin="round" stroke-dasharray="3.67 1.84"/>
<path d="M198.068 102.247C204.281 102.247 209.317 91.4178 209.317 78.0594C209.317 64.701 204.281 53.8718 198.068 53.8718C191.855 53.8718 186.818 64.701 186.818 78.0594C186.818 91.4178 191.855 102.247 198.068 102.247Z" fill="white"/>
<path d="M209.317 78.0594C209.317 91.3878 204.283 102.247 198.068 102.247C191.853 102.247 186.818 91.4158 186.818 78.0594C186.818 64.7029 191.853 53.8718 198.068 53.8718C204.283 53.8718 209.317 64.7029 209.317 78.0594Z" stroke="#DCDCDC" stroke-width="0.73" stroke-linecap="round" stroke-linejoin="round" stroke-dasharray="3.65 1.82"/>
<path d="M30.7313 87.5787C31.1153 87.5787 97.9229 91.0862 97.9229 91.0862C97.9229 91.0862 94.0752 62.6546 101.512 57.4144C110.108 51.3254 115.332 62.3249 117.895 71.8161C120.457 81.3073 121.861 91.9981 126.973 91.9981C132.084 91.9981 169.081 94.0605 187.516 94.0605C202.286 94.0605 217.306 93.0644 222.69 92.6575C223.346 92.6084 223.976 92.3842 224.517 92.008C225.057 91.6318 225.487 91.1174 225.763 90.518C227.767 86.1898 231.761 75.3306 228.214 63.6998C225.784 55.7308 223.605 49.6699 221.049 47.6285C218.493 45.5872 197.244 38.8879 190.715 37.1061C182.288 25.9329 171.711 16.5765 159.612 9.59347C159.612 9.59347 149.34 1.68762 88.3071 1.68762C27.2746 1.68762 29.4464 8.63242 29.4464 8.63242C29.4464 8.63242 13.5598 18.6147 6.53474 47.0814C6.53474 47.0814 2.70101 48.2248 2.70101 53.8228V66.7513C2.70101 66.7513 0.780645 67.2634 1.93286 71.8933C3.08508 76.5232 3.59484 83.2084 7.56126 83.2084C6.5906 73.7382 8.95788 54.875 17.6728 54.875C27.1 54.875 30.7313 80.2551 30.7313 87.5787Z" fill="white"/>
<path d="M30.6962 86.309C30.6962 86.7719 30.6962 87.1999 30.6962 87.5787L31.9601 87.6418" stroke="#DCDCDC" stroke-width="0.73" stroke-linecap="round" stroke-linejoin="round"/>
<path d="M33.238 87.705C44.0479 88.2521 86.5332 90.4618 96.0303 90.9529" stroke="#DCDCDC" stroke-width="0.73" stroke-linecap="round" stroke-linejoin="round" stroke-dasharray="3.57 1.78"/>
<path d="M96.6588 90.9879L97.9227 91.0511C97.9227 91.0511 97.8738 90.588 97.783 89.7883" stroke="#DCDCDC" stroke-width="0.73" stroke-linecap="round" stroke-linejoin="round"/>
<path d="M97.6504 88.5187C96.9521 81.4336 95.4297 61.6655 101.512 57.3653C110.108 51.2763 115.332 62.2757 117.894 71.767C120.457 81.2582 121.861 91.949 126.972 91.949C132.084 91.949 169.081 94.0114 187.516 94.0114C202.285 94.0114 217.306 93.0153 222.69 92.6084C223.346 92.5593 223.976 92.335 224.516 91.9589C225.057 91.5827 225.487 91.0683 225.763 90.4689C227.767 86.1406 231.761 75.2815 228.214 63.6507C225.784 55.6817 223.605 49.6208 221.049 47.5794C218.493 45.5381 197.244 38.8388 190.714 37.057C182.288 25.8838 171.711 16.5274 159.612 9.54436C159.612 9.54436 149.339 1.68762 88.3069 1.68762C45.2769 1.68762 33.664 5.13897 30.5565 7.18032" stroke="#DCDCDC" stroke-width="0.73" stroke-linecap="round" stroke-linejoin="round" stroke-dasharray="3.64 1.82"/>
<path d="M30.0468 7.55908C29.3135 8.20446 29.4462 8.63237 29.4462 8.63237C29.4462 8.63237 29.0761 8.87088 28.4127 9.33386" stroke="#DCDCDC" stroke-width="0.73" stroke-linecap="round" stroke-linejoin="round"/>
<path d="M27.4001 10.1547C23.0217 13.7814 12.6029 24.2267 6.98846 45.2294" stroke="#DCDCDC" stroke-width="0.73" stroke-linecap="round" stroke-linejoin="round" stroke-dasharray="3.62 1.81"/>
<path d="M6.84884 45.8397L6.5346 47.0813C6.13412 47.2186 5.75722 47.4174 5.4173 47.6706" stroke="#DCDCDC" stroke-width="0.73" stroke-linecap="round" stroke-linejoin="round"/>
<path d="M4.54441 48.4282C3.60867 49.4243 2.70087 51.0939 2.70087 53.8227V64.8853" stroke="#DCDCDC" stroke-width="0.73" stroke-linecap="round" stroke-linejoin="round" stroke-dasharray="3.32 1.66"/>
<path d="M2.70082 65.4746V66.7513C2.50286 66.8325 2.32444 66.9553 2.17751 67.1113C2.03059 67.2674 1.91854 67.4532 1.84888 67.6562" stroke="#DCDCDC" stroke-width="0.73" stroke-linecap="round" stroke-linejoin="round"/>
<path d="M1.56259 68.8909C1.52437 69.9042 1.64454 70.9173 1.91873 71.8933C2.86843 75.7094 3.3782 80.9285 5.75944 82.6402" stroke="#DCDCDC" stroke-width="0.73" stroke-linecap="round" stroke-linejoin="round" stroke-dasharray="3.63 1.81"/>
<path d="M6.32507 82.9559C6.71532 83.1248 7.13615 83.2108 7.56109 83.2084C7.51919 82.8016 7.48427 82.3736 7.45634 81.9387" stroke="#DCDCDC" stroke-width="0.73" stroke-linecap="round" stroke-linejoin="round"/>
<path d="M7.3865 80.6409C7.03036 70.7007 9.66998 54.875 17.6726 54.875C26.4015 54.875 30.1585 76.6214 30.6682 85.6566" stroke="#DCDCDC" stroke-width="0.73" stroke-linecap="round" stroke-linejoin="round" stroke-dasharray="3.7 1.85"/>
<path d="M40.6681 8.95513C31.1291 10.758 29.6278 23.8409 28.0984 28.8425L34.3833 29.4809C36.1471 22.3189 38.6635 15.3654 41.8901 8.73767L40.6681 8.95513Z" fill="white"/>
<path d="M28.4127 27.6149C28.294 28.0638 28.1823 28.4707 28.0635 28.8425L29.3275 28.9687" stroke="#DCDCDC" stroke-width="0.73" stroke-linecap="round" stroke-linejoin="round"/>
<path d="M30.2702 29.067L32.6305 29.3055" stroke="#DCDCDC" stroke-width="0.73" stroke-linecap="round" stroke-linejoin="round" stroke-dasharray="2.72 1.36"/>
<path d="M33.1053 29.3547L34.3763 29.4809C34.474 29.067 34.5718 28.6531 34.6765 28.2393" stroke="#DCDCDC" stroke-width="0.73" stroke-linecap="round" stroke-linejoin="round"/>
<path d="M34.9908 27.0537C36.5505 21.3526 38.5851 15.7935 41.0731 10.4353" stroke="#DCDCDC" stroke-width="0.73" stroke-linecap="round" stroke-linejoin="round" stroke-dasharray="3.48 1.74"/>
<path d="M41.3664 9.88813C41.5759 9.44619 41.7575 9.06036 41.9181 8.73767L40.717 8.95513H40.6681" stroke="#DCDCDC" stroke-width="0.73" stroke-linecap="round" stroke-linejoin="round"/>
<path d="M39.4251 9.27075C31.9252 11.6418 29.956 21.5399 28.5663 27.0116" stroke="#DCDCDC" stroke-width="0.73" stroke-linecap="round" stroke-linejoin="round" stroke-dasharray="3.55 1.78"/>
<path d="M43.4613 8.47808C42.0647 11.2841 37.5815 20.9226 35.8707 29.6352C41.8482 30.2525 50.228 31.1223 57.2111 31.894C58.475 23.2586 63.454 10.1476 64.7389 6.86462C57.6163 6.86994 50.504 7.40927 43.4613 8.47808V8.47808Z" fill="white"/>
<path d="M44.7253 8.2887L43.4683 8.47811L42.9166 9.62855" stroke="#DCDCDC" stroke-width="0.73" stroke-linecap="round" stroke-linejoin="round"/>
<path d="M42.3929 10.7579C39.8318 16.2267 37.7861 21.9243 36.2827 27.7762" stroke="#DCDCDC" stroke-width="0.73" stroke-linecap="round" stroke-linejoin="round" stroke-dasharray="3.56 1.78"/>
<path d="M36.136 28.3865C36.0452 28.8074 35.9544 29.2213 35.8776 29.6351L37.1416 29.7684" stroke="#DCDCDC" stroke-width="0.73" stroke-linecap="round" stroke-linejoin="round"/>
<path d="M38.3148 29.8877C43.4334 30.4138 49.7252 31.0732 55.3606 31.6905" stroke="#DCDCDC" stroke-width="0.73" stroke-linecap="round" stroke-linejoin="round" stroke-dasharray="3.39 1.69"/>
<path d="M55.9541 31.7537L57.218 31.894C57.2739 31.4871 57.3437 31.0662 57.4206 30.6383" stroke="#DCDCDC" stroke-width="0.73" stroke-linecap="round" stroke-linejoin="round"/>
<path d="M57.651 29.4177C59.1175 22.1643 62.4135 13.0027 64.0615 8.6394" stroke="#DCDCDC" stroke-width="0.73" stroke-linecap="round" stroke-linejoin="round" stroke-dasharray="3.55 1.77"/>
<path d="M64.285 8.05015C64.4666 7.57314 64.6202 7.17328 64.7459 6.86462H63.475" stroke="#DCDCDC" stroke-width="0.73" stroke-linecap="round" stroke-linejoin="round"/>
<path d="M62.3157 6.8717C56.6318 6.99156 50.9593 7.43656 45.3258 8.20454" stroke="#DCDCDC" stroke-width="0.73" stroke-linecap="round" stroke-linejoin="round" stroke-dasharray="3.37 1.68"/>
<path d="M83.9634 13.3745C80.7512 10.0495 74.187 8.03617 69.5293 7.26453C68.412 10.5826 63.6355 25.0124 62.4205 32.5184C64.1453 32.7218 65.6676 32.9042 66.8897 33.0655C76.7917 34.3422 87.9019 36.089 87.9019 36.089L91.3934 25.5034C91.3934 25.5034 87.7343 17.2749 83.9634 13.3745Z" fill="white"/>
<path d="M70.7863 7.51005L69.5363 7.27856C69.4316 7.59424 69.2919 7.98005 69.1313 8.49214" stroke="#DCDCDC" stroke-width="0.73" stroke-linecap="round" stroke-linejoin="round"/>
<path d="M68.7402 9.65662C67.1411 14.5671 64.0894 24.1846 62.7766 30.6173" stroke="#DCDCDC" stroke-width="0.73" stroke-linecap="round" stroke-linejoin="round" stroke-dasharray="3.55 1.78"/>
<path d="M62.6509 31.2275C62.5671 31.6625 62.4903 32.0833 62.4275 32.4832L63.6914 32.6305" stroke="#DCDCDC" stroke-width="0.73" stroke-linecap="round" stroke-linejoin="round"/>
<path d="M64.9065 32.7639L66.8967 33.0164C74.3477 33.9775 82.483 35.2051 86.0514 35.7523" stroke="#DCDCDC" stroke-width="0.73" stroke-linecap="round" stroke-linejoin="round" stroke-dasharray="3.49 1.75"/>
<path d="M86.6519 35.8575L87.9089 36.0539L88.3069 34.8403" stroke="#DCDCDC" stroke-width="0.73" stroke-linecap="round" stroke-linejoin="round"/>
<path d="M88.698 33.6478L91.3795 25.4684C91.3795 25.4684 87.7343 17.2749 83.9634 13.3746C81.1702 10.4704 75.7862 8.56933 71.3938 7.62231" stroke="#DCDCDC" stroke-width="0.73" stroke-linecap="round" stroke-linejoin="round" stroke-dasharray="3.57 1.78"/>
<path d="M91.3795 10.4142C91.3795 10.4142 105.737 8.66751 127.091 9.01124C148.446 9.35497 158.515 11.6839 158.515 11.6839C158.515 11.6839 175.184 21.6241 187.684 36.7413C187.684 36.7413 169.744 35.5207 151.455 35.5207C133.167 35.5207 104.668 36.0469 104.668 36.0469C104.668 36.0469 99.1378 19.8914 91.3795 10.4142Z" fill="white"/>
<path d="M92.1756 11.4103C91.9102 11.0666 91.6449 10.7089 91.3795 10.4142C91.3795 10.4142 91.8125 10.3581 92.6435 10.2739" stroke="#DCDCDC" stroke-width="0.73" stroke-linecap="round" stroke-linejoin="round"/>
<path d="M93.8934 10.1477C104.931 9.17842 116.013 8.8014 127.091 9.01826C148.453 9.362 158.515 11.691 158.515 11.691C158.515 11.691 174.116 20.9928 186.448 35.2893" stroke="#DCDCDC" stroke-width="0.73" stroke-linecap="round" stroke-linejoin="round" stroke-dasharray="3.61 1.8"/>
<path d="M186.867 35.7732C187.146 36.0959 187.418 36.4186 187.691 36.7483L186.427 36.6711" stroke="#DCDCDC" stroke-width="0.73" stroke-linecap="round" stroke-linejoin="round"/>
<path d="M185.17 36.594C179.583 36.2643 165.617 35.5277 151.462 35.5277C135.995 35.5277 113.258 35.8995 106.596 36.0188" stroke="#DCDCDC" stroke-width="0.73" stroke-linecap="round" stroke-linejoin="round" stroke-dasharray="3.6 1.8"/>
<path d="M105.96 36.0259H104.696C104.696 36.0259 104.543 35.5909 104.263 34.8263" stroke="#DCDCDC" stroke-width="0.73" stroke-linecap="round" stroke-linejoin="round"/>
<path d="M103.837 33.7249C102.12 29.2564 97.9297 19.1338 92.5387 11.8944" stroke="#DCDCDC" stroke-width="0.73" stroke-linecap="round" stroke-linejoin="round" stroke-dasharray="3.43 1.72"/>
<path d="M137.035 63.2509C136.355 60.0616 135.442 56.9268 134.305 53.8719C132.838 50.3644 128.439 46.9692 131.567 46.9692C134.696 46.9692 148.662 46.7728 150.617 48.5335C152.573 50.2943 159.695 57.1689 162.237 63.2649L137.035 63.2509Z" fill="white"/>
<path d="M138.285 63.2578H137.035C137.035 63.2578 136.937 62.7738 136.756 62.0092" stroke="#DCDCDC" stroke-width="0.73" stroke-linecap="round" stroke-linejoin="round"/>
<path d="M136.428 60.7816C135.867 58.4321 135.149 56.1235 134.277 53.8719C132.81 50.3644 128.411 46.9692 131.539 46.9692C134.668 46.9692 148.634 46.7728 150.589 48.5335C152.356 50.1399 158.383 55.9343 161.385 61.5322" stroke="#DCDCDC" stroke-width="0.73" stroke-linecap="round" stroke-linejoin="round" stroke-dasharray="3.6 1.8"/>
<path d="M161.679 62.0934C161.874 62.4862 162.049 62.872 162.209 63.2578H160.938" stroke="#DCDCDC" stroke-width="0.73" stroke-linecap="round" stroke-linejoin="round"/>
<path d="M159.744 63.2578H138.879" stroke="#DCDCDC" stroke-width="0.73" stroke-linecap="round" stroke-linejoin="round" stroke-dasharray="3.42 1.71"/>
<path d="M214.192 54.903C214.023 57.9026 213.493 60.8705 212.614 63.7419L228.221 63.6647C225.888 56.0184 223.794 50.1469 221.363 47.8671C218.403 47.9302 213.982 48.1547 213.403 48.2388C212.823 48.323 214.366 50.3994 214.192 54.903Z" fill="white"/>
<path d="M212.963 62.5143C212.774 63.2158 212.641 63.6297 212.614 63.7419H213.884" stroke="#DCDCDC" stroke-width="0.73" stroke-linecap="round" stroke-linejoin="round"/>
<path d="M215.19 63.7348L226.293 63.6787" stroke="#DCDCDC" stroke-width="0.73" stroke-linecap="round" stroke-linejoin="round" stroke-dasharray="3.74 1.87"/>
<path d="M226.95 63.6718H228.221C228.095 63.2579 227.969 62.851 227.851 62.4512" stroke="#DCDCDC" stroke-width="0.73" stroke-linecap="round" stroke-linejoin="round"/>
<path d="M227.474 61.2516C225.434 54.7908 223.528 49.9014 221.363 47.8671C218.402 47.9302 213.982 48.1547 213.403 48.2388C212.823 48.323 214.366 50.3994 214.192 54.903C214.072 57.2721 213.712 59.6227 213.116 61.918" stroke="#DCDCDC" stroke-width="0.73" stroke-linecap="round" stroke-linejoin="round" stroke-dasharray="3.56 1.78"/>
<path d="M167.761 76.1864H210.113C210.113 76.1864 209.778 85.6776 204.792 86.2388C200.079 86.7789 195.854 86.8 188.941 86.8C182.027 86.8 173.92 86.6036 171.965 85.4321C170.009 84.2606 167.761 76.1864 167.761 76.1864Z" fill="white"/>
<path d="M168.138 77.407C167.915 76.6634 167.775 76.1864 167.775 76.1864H169.053" stroke="#DCDCDC" stroke-width="0.73" stroke-linecap="round" stroke-linejoin="round"/>
<path d="M170.331 76.1864H208.214" stroke="#DCDCDC" stroke-width="0.73" stroke-linecap="round" stroke-linejoin="round" stroke-dasharray="3.68 1.84"/>
<path d="M208.857 76.1864H210.128C210.128 76.1864 210.127 76.6845 210.023 77.4561" stroke="#DCDCDC" stroke-width="0.73" stroke-linecap="round" stroke-linejoin="round"/>
<path d="M209.855 78.6767C209.38 81.5318 208.123 85.8671 204.806 86.2388C200.093 86.779 195.868 86.8001 188.955 86.8001C182.041 86.8001 173.934 86.6107 171.979 85.4321C170.582 84.6114 169.116 80.4515 168.327 78.0033" stroke="#DCDCDC" stroke-width="0.73" stroke-linecap="round" stroke-linejoin="round" stroke-dasharray="3.52 1.76"/>
<path d="M186.818 53.1493H165.666C160.778 53.1493 163.417 57.6599 164.786 59.2312C166.155 60.8026 168.885 62.1846 172.502 62.1846H205.903C210.093 62.1846 209.813 57.8563 209.813 56.285C209.813 54.3769 207.872 53.2756 202.711 53.2756C197.551 53.2756 186.818 53.1493 186.818 53.1493Z" fill="white"/>
<path d="M186.818 53.1493H165.666C160.778 53.1493 163.417 57.6599 164.786 59.2312C166.155 60.8026 168.885 62.1846 172.502 62.1846H205.903C210.093 62.1846 209.813 57.8563 209.813 56.285C209.813 54.3769 207.872 53.2756 202.711 53.2756C197.551 53.2756 186.818 53.1493 186.818 53.1493Z" stroke="#DCDCDC" stroke-width="0.73" stroke-linecap="round" stroke-linejoin="round" stroke-dasharray="3.68 1.84"/>
<path d="M190.186 61.1941C191.547 60.2903 191.745 58.1822 190.628 56.4855C189.511 54.7888 187.503 54.146 186.142 55.0498C184.781 55.9536 184.583 58.0617 185.7 59.7584C186.816 61.4551 188.825 62.0979 190.186 61.1941Z" fill="white"/>
<path d="M191.357 58.9506C191.367 59.3608 191.28 59.7676 191.102 60.1369C190.924 60.5062 190.661 60.8275 190.334 61.0739C190.007 61.3203 189.627 61.4847 189.224 61.5535C188.821 61.6222 188.408 61.5932 188.019 61.469C187.13 61.1893 186.354 60.6285 185.808 59.87C185.262 59.1115 184.974 58.196 184.988 57.26C184.979 56.8495 185.068 56.4428 185.246 56.0735C185.425 55.7043 185.689 55.3832 186.016 55.137C186.343 54.8907 186.724 54.7264 187.127 54.6577C187.53 54.5889 187.943 54.6177 188.333 54.7417C189.222 55.0206 189.998 55.5815 190.543 56.3403C191.088 57.0991 191.374 58.015 191.357 58.9506Z" stroke="#DCDCDC" stroke-width="0.73" stroke-linecap="round" stroke-linejoin="round" stroke-dasharray="3.98 1.99"/>
<path d="M89.7734 36.5729C89.6919 36.8725 89.5062 37.1329 89.2499 37.3066C88.9937 37.4804 88.6838 37.5561 88.3768 37.52C86.0025 37.2955 80.2973 36.7272 77.4063 36.2292C73.6982 35.5838 71.0377 35.9907 70.9818 33.6126C70.9259 31.2345 74.1033 26.8081 81.1073 26.8081C88.1114 26.8081 88.2161 28.9126 88.279 30.4699C88.3418 32.0272 89.096 32.7989 90.1365 32.9672C90.6463 33.0514 90.1365 35.219 89.7734 36.5729Z" fill="white"/>
<path d="M89.7734 36.5729C89.6919 36.8725 89.5062 37.1329 89.2499 37.3066C88.9936 37.4804 88.6838 37.5561 88.3768 37.52C86.0025 37.2955 80.2973 36.7272 77.4063 36.2292C73.6982 35.5838 71.0377 35.9907 70.9818 33.6126C70.9259 31.2345 74.1102 26.8081 81.1073 26.8081C88.1044 26.8081 88.2161 28.9126 88.279 30.4699C88.3418 32.0272 89.096 32.7989 90.1365 32.9672C90.6463 33.0514 90.1365 35.219 89.7734 36.5729Z" stroke="#DCDCDC" stroke-width="0.73" stroke-linecap="round" stroke-linejoin="round" stroke-dasharray="3.67 1.83"/>
<path d="M194.841 38.2496L192.404 37.5481C193.255 37.4124 194.021 36.9557 194.548 36.2714" stroke="#343434" stroke-width="1.09" stroke-linecap="round" stroke-linejoin="round"/>
<path d="M194.569 32.7638C193.369 30.9717 191.709 29.5391 189.765 28.618C189.397 28.4727 189.012 28.3783 188.62 28.3374" stroke="#343434" stroke-width="1.09" stroke-linecap="round" stroke-linejoin="round" stroke-dasharray="8.2 5.33"/>
<path d="M186.776 28.4848C185.959 28.7127 185.176 29.0452 184.444 29.4739C183.892 28.8776 183.305 28.2603 182.691 27.6219" stroke="#343434" stroke-width="1.09" stroke-linecap="round" stroke-linejoin="round"/>
<path d="M180.407 25.328C174.176 19.1961 167.19 13.8896 159.619 9.53736C159.619 9.53736 149.339 1.68762 88.307 1.68762C51.6735 1.68762 37.812 4.19195 32.5817 6.19121" stroke="#343434" stroke-width="1.09" stroke-linecap="round" stroke-linejoin="round" stroke-dasharray="7.12 4.63"/>
<path d="M31.1012 6.85767C29.2088 7.87483 29.4462 8.63245 29.4462 8.63245C28.736 9.10555 28.0529 9.61845 27.4001 10.1687" stroke="#343434" stroke-width="1.09" stroke-linecap="round" stroke-linejoin="round"/>
<path d="M24.7326 12.6029C19.8863 17.3941 12.4074 26.8573 7.67981 42.8584" stroke="#343434" stroke-width="1.09" stroke-linecap="round" stroke-linejoin="round" stroke-dasharray="7.98 5.19"/>
<path d="M7.18406 44.6051C6.9606 45.4118 6.74413 46.2396 6.53463 47.0814C5.7304 47.3654 5.01005 47.8479 4.4397 48.4843" stroke="#343434" stroke-width="1.09" stroke-linecap="round" stroke-linejoin="round"/>
<path d="M3.15475 50.7924C2.83908 51.7707 2.68573 52.7945 2.70085 53.8228V62.8721" stroke="#343434" stroke-width="1.09" stroke-linecap="round" stroke-linejoin="round" stroke-dasharray="5.81 3.78"/>
<path d="M2.70082 64.1979V66.7513C2.70082 66.7513 1.70223 67.0179 1.57654 68.8979" stroke="#343434" stroke-width="1.09" stroke-linecap="round" stroke-linejoin="round"/>
<path d="M2.12122 72.7001C2.68685 75.2114 3.14774 78.1507 4.06951 80.2832" stroke="#343434" stroke-width="1.09" stroke-linecap="round" stroke-linejoin="round" stroke-dasharray="8.44 5.49"/>
<path d="M5.0542 81.9457C5.31232 82.2861 5.63554 82.5713 6.00488 82.7845C6.37423 82.9977 6.78225 83.1347 7.205 83.1873C7.3307 84.0502 7.48433 84.8919 7.6589 85.7057" stroke="#343434" stroke-width="1.09" stroke-linecap="round" stroke-linejoin="round"/>
<path d="M8.40601 88.6801C10.2775 94.8462 13.5107 98.9219 17.1908 98.9219H29.1878C32.1975 98.9219 34.9139 96.186 36.8273 91.8157" stroke="#343434" stroke-width="1.09" stroke-linecap="round" stroke-linejoin="round" stroke-dasharray="6.74 4.38"/>
<path d="M37.4 90.3917C37.6863 89.6201 37.9447 88.8063 38.1821 87.9575L40.724 88.0908" stroke="#343434" stroke-width="1.09" stroke-linecap="round" stroke-linejoin="round"/>
<path d="M44.1597 88.2662L94.3962 90.8688" stroke="#343434" stroke-width="1.09" stroke-linecap="round" stroke-linejoin="round" stroke-dasharray="7.52 4.89"/>
<path d="M96.0791 90.988L97.9226 91.0863H98.621C98.8235 91.9421 99.0539 92.7628 99.3193 93.5485" stroke="#343434" stroke-width="1.09" stroke-linecap="round" stroke-linejoin="round"/>
<path d="M100.367 96.3825C102.42 101.139 105.353 104.099 108.614 104.099H121.47C124.829 104.099 127.845 100.935 129.905 95.9265" stroke="#343434" stroke-width="1.09" stroke-linecap="round" stroke-linejoin="round" stroke-dasharray="6.71 4.36"/>
<path d="M130.45 94.4955C130.725 93.7192 130.976 92.9055 131.204 92.0543L133.746 92.1595" stroke="#343434" stroke-width="1.09" stroke-linecap="round" stroke-linejoin="round"/>
<path d="M137.035 92.3208C149.954 92.882 171.727 93.8991 185.428 94.0044" stroke="#343434" stroke-width="1.09" stroke-linecap="round" stroke-linejoin="round" stroke-dasharray="7.24 4.71"/>
<path d="M187.069 94.0115H189.611C189.933 94.801 190.294 95.5736 190.693 96.3264" stroke="#343434" stroke-width="1.09" stroke-linecap="round" stroke-linejoin="round"/>
<path d="M192.342 98.8799C194.018 100.984 195.98 102.247 198.068 102.247H210.931C213.724 102.247 216.224 100.1 218.186 96.5509" stroke="#343434" stroke-width="1.09" stroke-linecap="round" stroke-linejoin="round" stroke-dasharray="6.7 4.36"/>
<path d="M218.87 95.197C219.22 94.4534 219.569 93.6607 219.841 92.833L222.383 92.6576" stroke="#343434" stroke-width="1.09" stroke-linecap="round" stroke-linejoin="round"/>
<path d="M225.232 91.3317C225.45 91.0758 225.631 90.79 225.77 90.4829C227.774 86.1547 231.768 75.2955 228.221 63.6647C228.151 63.4192 228.074 63.1807 228.004 62.9633C228.004 62.8721 227.941 62.7809 227.913 62.6827C227.886 62.5845 227.823 62.3951 227.781 62.2478L227.676 61.918L227.564 61.5532C227.522 61.427 227.487 61.3077 227.446 61.1885L227.341 60.8588C227.306 60.7325 227.264 60.6133 227.222 60.487C227.18 60.3607 227.159 60.2836 227.124 60.1854L226.999 59.7995L226.915 59.5259C226.866 59.3927 226.824 59.2594 226.782 59.1261L226.698 58.8805C226.65 58.7402 226.608 58.607 226.559 58.4737C226.51 58.3404 226.51 58.3194 226.482 58.2422C226.454 58.165 226.391 57.9686 226.342 57.8283C226.293 57.688 226.293 57.695 226.272 57.6249L226.126 57.211L226.063 57.0216C226.014 56.8813 225.965 56.741 225.909 56.6007C225.894 56.5436 225.875 56.4874 225.853 56.4323C225.798 56.292 225.749 56.1517 225.7 56.0114L225.637 55.8571C225.588 55.7098 225.532 55.5695 225.483 55.4362C225.434 55.3029 225.448 55.345 225.434 55.3029L225.267 54.875L225.225 54.7557C225.169 54.6154 225.113 54.4681 225.05 54.3278C225.042 54.2963 225.03 54.2658 225.015 54.2366C224.96 54.0893 224.897 53.942 224.841 53.8017V53.7316C224.778 53.5773 224.715 53.437 224.652 53.2896V53.2405C224.59 53.0932 224.527 52.9389 224.457 52.7916C223.381 50.3644 222.285 48.5826 221.112 47.6286C219.08 46.0011 205.316 41.4624 196.448 38.7546" stroke="#343434" stroke-width="1.09" stroke-linecap="round" stroke-linejoin="round" stroke-dasharray="7.13 4.64"/>
</g>
<defs>
<clipPath id="clip0_1700_21842">
<rect width="230" height="106" fill="white" transform="matrix(-1 0 0 1 230 0)"/>
</clipPath>
</defs>
</svg>
