<svg xmlns="http://www.w3.org/2000/svg" xmlns:xlink="http://www.w3.org/1999/xlink" width="405" height="166" viewBox="0 0 405 166"><defs><style>.a{fill:url(#a);}.aa,.aw,.b,.t,.u,.v{fill:none;}.c{clip-path:url(#b);}.d{fill:url(#c);}.e,.l{fill:#e84d00;}.e,.f,.g,.j,.m,.n,.o,.p,.u{opacity:0.5;}.f{fill:#ff8d4d;}.h{fill:#ffd8bf;}.i,.j{fill:#ffb280;}.k,.n{fill:#ff6400;}.m{fill:#c45005;}.o{fill:#8a3c0a;}.p{fill:#ff814a;}.am,.aq,.q{fill:#fff;}.r{fill:#ffccb6;}.s{fill:#ffd5c0;}.t,.u,.v{stroke:#4f280f;}.aa,.am,.aw,.t,.u,.v{stroke-miterlimit:10;}.t{stroke-width:0.113px;}.v{stroke-width:0.767px;}.w{fill:#4f280f;}.x{opacity:0.2;}.y{fill:#151515;}.z{clip-path:url(#d);}.aa,.am{stroke:#282827;stroke-width:0.341px;}.ab{clip-path:url(#e);}.ac{clip-path:url(#f);}.ad{fill:#7e7e7e;}.ae{clip-path:url(#g);}.af{clip-path:url(#h);}.ag{clip-path:url(#i);}.ah{clip-path:url(#j);}.ai{fill:#3b3b3b;}.aj{fill:#b1b1b1;}.ak{fill:#d1d3d4;}.al{fill:#11403a;}.an{fill:#939598;}.ao{fill:#d2d3d5;}.ap{fill:#d4d6eb;}.aq{opacity:0.1;}.ar{clip-path:url(#k);}.as{clip-path:url(#l);}.at{clip-path:url(#m);}.au{clip-path:url(#n);}.av{clip-path:url(#o);}.aw{stroke:#b2b3b3;stroke-linecap:round;stroke-width:1.869px;}.ax{fill:#099784;}</style><linearGradient id="a" x1="0.5" x2="0.5" y2="1" gradientUnits="objectBoundingBox"><stop offset="0" stop-color="#fff"/><stop offset="1" stop-color="#ff8d4d"/></linearGradient><clipPath id="b"><rect class="a" width="405" height="166" transform="translate(-1)"/></clipPath><linearGradient id="c" x1="0.5" x2="0.5" y2="1" gradientUnits="objectBoundingBox"><stop offset="0" stop-color="#ff8d4d"/><stop offset="1" stop-color="#fff"/></linearGradient><clipPath id="d"><path class="b" d="M975.53,611.23c3.247,0,5.88,7.9,5.88,17.639s-2.633,17.639-5.88,17.639H965.19V611.23Z" transform="translate(-965.19 -611.23)"/></clipPath><clipPath id="e"><path class="b" d="M973.2,611.23c3.247,0,5.879,7.9,5.879,17.639s-2.633,17.639-5.879,17.639h2.128c3.248,0,5.88-7.9,5.88-17.639s-2.632-17.639-5.88-17.639Z" transform="translate(-973.197 -611.23)"/></clipPath><clipPath id="f"><path class="b" d="M969.943,611.23c3.247,0,5.879,7.9,5.879,17.639s-2.633,17.639-5.879,17.639h2.128c3.247,0,5.88-7.9,5.88-17.639s-2.633-17.639-5.88-17.639Z" transform="translate(-969.943 -611.23)"/></clipPath><clipPath id="g"><path class="b" d="M1142.212,611.23c7.1,0,12.863,7.9,12.863,17.639,0,9.642-5.642,17.478-12.646,17.636-.072,0-1.728,0-1.8,0,0,0,12.1-3.787,12.1-18.039C1152.725,615.078,1142.212,611.23,1142.212,611.23Z" transform="translate(-1140.628 -611.23)"/></clipPath><clipPath id="h"><path class="b" d="M1132.378,611.23c7.1,0,12.863,7.9,12.863,17.639s-5.759,17.639-12.863,17.639h-3.45V611.23Z" transform="translate(-1128.928 -611.23)"/></clipPath><clipPath id="i"><path class="b" d="M1136.493,611.23c7.1,0,12.863,7.9,12.863,17.639s-5.759,17.639-12.863,17.639h1.762c7.1,0,12.863-7.9,12.863-17.639s-5.759-17.639-12.863-17.639Z" transform="translate(-1136.493 -611.23)"/></clipPath><clipPath id="j"><path class="b" d="M1133.8,611.23c7.1,0,12.863,7.9,12.863,17.639s-5.759,17.639-12.863,17.639h1.763c7.1,0,12.863-7.9,12.863-17.639s-5.759-17.639-12.863-17.639Z" transform="translate(-1133.797 -611.23)"/></clipPath><clipPath id="k"><path class="b" d="M1005.339,649.133l25.119,1.478,3.255-17.115-18-.031a1.342,1.342,0,0,1-1.185-1.447c.336-3.792,1.017-14.612-3.094-21.563-17.238,1.108-24.318,15.653-24.318,15.653Z" transform="translate(-987.116 -610.454)"/></clipPath><clipPath id="l"><path class="b" d="M1033.989,611.23c7.1,0,12.863,7.9,12.863,17.639,0,9.642-5.642,17.478-12.647,17.636-.072,0-1.728,0-1.8,0,0,0,12.1-3.787,12.1-18.039C1044.5,615.078,1033.989,611.23,1033.989,611.23Z" transform="translate(-1032.405 -611.23)"/></clipPath><clipPath id="m"><path class="b" d="M1024.155,611.23c7.1,0,12.863,7.9,12.863,17.639s-5.759,17.639-12.863,17.639h-3.45V611.23Z" transform="translate(-1020.705 -611.23)"/></clipPath><clipPath id="n"><path class="b" d="M1028.27,611.23c7.1,0,12.863,7.9,12.863,17.639s-5.759,17.639-12.863,17.639h1.762c7.1,0,12.863-7.9,12.863-17.639s-5.759-17.639-12.863-17.639Z" transform="translate(-1028.27 -611.23)"/></clipPath><clipPath id="o"><path class="b" d="M1025.574,611.23c7.1,0,12.863,7.9,12.863,17.639s-5.759,17.639-12.863,17.639h1.763c7.1,0,12.863-7.9,12.863-17.639s-5.759-17.639-12.863-17.639Z" transform="translate(-1025.574 -611.23)"/></clipPath></defs><g transform="translate(-1466 -1906)"><g transform="translate(-507)"><g class="c" transform="translate(1974 1906)"><path class="d" d="M320.161-30.3H-84.472V140.581H320.161Z" transform="translate(83.472 27.263)"/><path class="e" d="M94.211,118.191s7.354-9.226,13.118-9.226c4.571,0,6.658,3.524,11.826,3.524,3.677,0,2.981-2.177,7.354-2.177,3.677,0,6.957,3.629,6.957,3.629l-3.777,8.4-31.3-.311Z" transform="translate(33)"/><path class="f" d="M322.149,120.845H-82.484v51.076H322.149Z" transform="translate(81.484)"/><g class="g" transform="translate(83.633)"><path class="h" d="M74.335,140.27a9.717,9.717,0,0,1,5.963-1.244,6.308,6.308,0,0,0-5.963,1.244Z"/><path class="i" d="M52.373,142.551a5.986,5.986,0,0,1-2.981.414,21.218,21.218,0,0,0-5.963.622s-.1,0,0-.1c.7-.415,2.385-1.141,5.963-.933A13.782,13.782,0,0,0,52.373,142.551Z"/><path class="i" d="M58.237,143.173c3.28-.208,4.472-1.141,5.565-1.141,0,0,.1,0,0,.1-.895.207-1.193.829-2.186.933a7.571,7.571,0,0,1-3.379.1C58.137,143.276,58.137,143.173,58.237,143.173Z"/><path class="i" d="M54.857,144.52c.1,0,.1.1,0,0-.5.1-1.292.1-2.186.311-.994.207-1.59.933-3.379,1.037h0c1.789-.415,1.789-.933,2.981-1.141A10.486,10.486,0,0,1,54.857,144.52Z"/><path class="i" d="M67.677,143.38a6.4,6.4,0,0,1-2.882.518s-.1-.1,0-.1c.994-.1,2.286-.415,2.882-.415Z"/><path class="h" d="M28.423,149.392c.2.415.7,2.177-3.478,2.8,3.478-.207,5.367-1.555,3.478-2.8Z"/><path class="h" d="M30.51,150.844a1.172,1.172,0,0,1-.8,1.036v.1C30.907,151.673,30.709,151.051,30.51,150.844Z"/></g><path class="e" d="M36.174,121.2c1.789-.519,2.286-1.659,3.776-1.659,1.988,0,2.286.519,4.075.519,1.888,0,2.882-1.141,4.869-.83,3.28.415,3.18-1.866,6.261-1.866s3.776,3.732,3.776,3.732S37.366,121.2,36.174,121.2Z" transform="translate(33)"/><path class="j" d="M5.266,160.484c6.857,0,3.975-3.524,13.516-4.457,4.075-.415,8.348,1.866,12.82.622,4.571-1.244,8.547-4.665,12.025-5.183,3.578-.518,2.981,1.451,4.869.829,1.988-.622,4.671-4.146,9.043-4.354,8.646-.207,14.509-.829,19.18-4.146a10.163,10.163,0,0,1,8.05-1.348c2.484.726-.1,1.037,1.59,1.141,1.689.207,3.876-1.348,5.565-1.141,2.385.311,2.783-.725,4.77-.207.7.207.5,1.659,1.491,1.97l-24.05,11.506L32.5,167.533s-29.118-.622-28.621-1.14C4.67,165.875-.3,160.484,5.266,160.484Z" transform="translate(83.633)"/><path class="f" d="M48.6,142.862c-2.981.1-5.863,4.457-13.019,5.494-5.565.829-6.559-.1-11.826.933-4.77.933-6.658,4.353-10.137,4.664-3.081.208-.3-1.969-2.882-1.866-3.677.208-6.161,4.562-13.615,6.013-5.764,1.14-8.248.1-12.919.518-5.168.415-5.863,3.939-11.23,4.25s2.683,12.025,2.683,12.025l77.019-2.177,9.54-22.7s-2.683-6.738-3.478-6.945c-1.193-.311-3.677,1.451-6.46,1.348C50.385,144.106,54.459,142.551,48.6,142.862Z" transform="translate(83.633)"/><g class="g" transform="translate(33)"><path class="k" d="M132.77,115.5l.3,1.347-5.367,1.866,1.789,5.183H48.6c.7-1.036,2.783-1.036,4.472-1.244a7.708,7.708,0,0,0,2.484-1.244c.894-.622,1.689-1.347,2.286-1.762a2.377,2.377,0,0,1,1.59-.622h1.093l6.261-.311a10.09,10.09,0,0,0,3.478-.829,7.533,7.533,0,0,0,1.888-1.244l11.528-9.33,2.286-1.865a5.21,5.21,0,0,1,3.18-1.141h2.683a6.286,6.286,0,0,1,3.578,1.037l12.423,7.878c4.273,2.7,12.223,3.421,12.223,3.421a5.18,5.18,0,0,0,2.186-.1Z"/><path class="i" d="M48.6,123.685s.4.414,2.087.414c1.987,0,3.478-.1,4.074.415.994.726-2.981,1.037-1.689,1.555.7.311,10.335.207,13.019-.311a30.128,30.128,0,0,1,5.665-.622c2.484.1,1.292,1.14,5.764,1.14s6.261-.414,8.646-.414c3.876,0,8.646.933,16.6.933,5.864,0,19.18-3.317,19.18-3.317Z"/><path class="l" d="M87.851,107.2s-8.348,6.116-8.547,6.219l-1.988,1.037a7.578,7.578,0,0,0,1.093-.829l7.851-7.257a1.58,1.58,0,0,1,.994-.207l.5.1A.8.8,0,0,1,87.851,107.2Z"/></g><path class="m" d="M128.894,117.569l-7.255.725-2.186,1.97,226.286,45.714L347.13,152.5Z" transform="translate(83.633)"/><path class="n" d="M97.392,171.057l-80.3-.933,3.578-5.079a8.248,8.248,0,0,1,4.87-3.214l6.658-1.555h.2a3.185,3.185,0,0,0,1.689-1.036L35.081,158l5.764-7.256a7.086,7.086,0,0,1,3.379-2.385l8.646-3.628a.739.739,0,0,0,.4-.207,3.173,3.173,0,0,0,1.59-1.659l6.46-8.707c.2-.415,2.683-3.525,3.975-3.939,0,0,5.764-3.939,10.335-5.287a30.474,30.474,0,0,0,3.975-3.421c1.888-2.8,35.478-.311,35.478-.311Z" transform="translate(83.633)"/><path class="o" d="M97.392,171.415l17.49-49.965c.3-1.659.5-2.488,2.385-2.9,0,0,1.988-.311,4.174-.519,3.28-.207,7.454-.311,7.454-.311l.3.311-.4.311a34.83,34.83,0,0,0-5.863.519c-.3.1-.1.311,0,.311L383.7,169.963,247.951,174.11Z" transform="translate(83.633)"/><g class="g" transform="translate(83.633)"><path class="i" d="M128.3,117.776c-2.385.1-4.87.207-7.255.518l-1.789.311a6.7,6.7,0,0,0-.795.311c-.1.1-.3.207-.3.311a.647.647,0,0,0,.1.415c.994.725,2.087,1.347,3.081,1.969l12.621,7.568,25.243,14.927,25.341,14.823,25.342,14.72-.9,1.659-25.043-15.446-24.944-15.238-25.044-15.238-12.521-7.671c-.994-.622-2.087-1.244-3.081-1.97-.1-.1-.2-.311-.1-.414.1-.208.2-.311.3-.311a3.028,3.028,0,0,1,.894-.311,5.4,5.4,0,0,1,1.789-.311A31.972,31.972,0,0,1,128.3,117.776Z"/></g><g class="g" transform="translate(83.633)"><path class="i" d="M128.7,117.569c-2.684,0-5.466.1-8.149.311a24.471,24.471,0,0,0-3.976.622,2.4,2.4,0,0,0-.894.414.813.813,0,0,0-.2.519l-.1.518-.5,2.073-3.776,16.586L107.329,155.2l-3.677,16.585-.894-.207,4.074-16.482,3.976-16.482,3.975-16.482.5-2.073.1-.519a.807.807,0,0,1,.2-.518,3.48,3.48,0,0,1,.894-.415,17.674,17.674,0,0,1,4.075-.622A72.9,72.9,0,0,1,128.7,117.569Z"/></g><g class="g" transform="translate(83.633)"><path class="i" d="M128.9,117.776c-1.192,0-2.484.1-3.677.1a13,13,0,0,0-1.888.207,2.815,2.815,0,0,0-.894.207.742.742,0,0,0-.4.208c-.2.1,0,.31.1.31,2.385.622,4.77,1.141,7.155,1.763l14.41,3.213,28.919,6.324,57.938,12.439,115.876,24.671-.1.622L230.56,142.862l-57.839-12.543L143.8,124l-14.41-3.214c-2.385-.518-4.77-1.037-7.155-1.762a.225.225,0,0,1-.1-.415c.1-.1.3-.1.4-.207.3-.1.6-.1.894-.207.6-.1,1.193-.1,1.889-.208C126.51,117.88,127.7,117.88,128.9,117.776Z"/></g><path class="j" d="M179.279,95.074a.91.91,0,0,0,0,1.348c.994.933,2.584,1.659,2.485,2.488-.2,1.244-7.056,3.317-10.137,3.939a5.05,5.05,0,0,0-3.478,2.8c-.5,1.036-.994,2.28-1.491,3.213a2.57,2.57,0,0,1-1.888,1.348,25.617,25.617,0,0,0-3.776.933,2.55,2.55,0,0,0-1.093.725,4.292,4.292,0,0,0-.7,1.141,3.13,3.13,0,0,1-2.683,2.176c-2.584.208-6.559.726-7.255,1.141-1.093.725-.1,2.591-.7,4.561a1.418,1.418,0,0,1-1.292.933l-19.08-3.006a.219.219,0,0,1-.2-.208,9.247,9.247,0,0,1,1.988-5.805,8.441,8.441,0,0,1,2.087-1.451,14.39,14.39,0,0,1,2.981-1.037l1.59-4.042a4.413,4.413,0,0,1,2.783-2.592l.5-.207,2.087-.726,1.193-1.866,1.292-2.073a6.651,6.651,0,0,1,2.286-2.177l2.882-1.451,1.888-3.835a6.568,6.568,0,0,1,4.869-3.628l5.367-.726,2.286-.311a3.716,3.716,0,0,0,1.689-.829l8.944-9.64a7.806,7.806,0,0,1,6.46-2.591l.894.1a3.723,3.723,0,0,0,2.683-.933,9.887,9.887,0,0,0-2.683,5.7,4.128,4.128,0,0,0,1.292,3.317l2.385,2.177a3.009,3.009,0,0,1,.1,4.354Z" transform="translate(33)"/><path class="n" d="M377.93,157.886,147.379,121.819,128.3,118.813a.219.219,0,0,1-.2-.208,9.251,9.251,0,0,1,1.987-5.805,8.479,8.479,0,0,1,2.087-1.451,14.439,14.439,0,0,1,2.982-1.036l1.59-4.043a4.409,4.409,0,0,1,2.782-2.592l.5-.207,1.093-.415.994-.311.7-1.14.5-.726,1.292-2.073a6.659,6.659,0,0,1,2.285-2.177l2.882-1.451,1.888-3.835a6.57,6.57,0,0,1,4.87-3.628l7.652-1.037a3.718,3.718,0,0,0,1.69-.829l8.944-9.64a7.8,7.8,0,0,1,6.459-2.592l.9.1a3.723,3.723,0,0,0,2.683-.933l.1-.1L199.652,58.9a9.153,9.153,0,0,1,6.162-2.488h6.062a5.562,5.562,0,0,0,5.068-3.421L224.3,35.573S256.5,3.646,261.764-.5c5.367-4.146,21.963.207,21.963.207l34.882-21.872,55.147-8.506Z" transform="translate(83.633)"/><path class="e" d="M137.938,120.367l2.285-5.805a1.068,1.068,0,0,1,.7-.622l4.174-1.244a1,1,0,0,0,.5-.414l1.59-2.9c.1-.1-.1-.207-.2-.1l-2.584,2.281c-.2.1-.4.311-.6.311l-4.77,1.244a1.517,1.517,0,0,0-.994.933l-2.087,6.116Z" transform="translate(33)"/><path class="e" d="M190.212,83.05l7.95-10.988a.642.642,0,0,1,.7-.207l1.192.518a.6.6,0,0,0,.9-.415c.5-1.762,1.888-6.22,3.379-8.4.1-.207-.1-.311-.2-.207-1.888,1.659-3.379,4.872-3.776,5.7-.1.1-.2.207-.3.1l-2.087-.518a1.428,1.428,0,0,0-1.391.518c-1.689,2.281-7.553,13.165-6.956,13.994C189.616,83.361,190.013,83.361,190.212,83.05Z" transform="translate(33)"/><path class="o" d="M126.509,122.751h-4.671v.311h4.671Z" transform="translate(33)"/><path class="o" d="M122.434,120.471h-4.67v.1h4.67Z" transform="translate(33)"/><path class="j" d="M71.056,158.826l-5.466,1.451a3.18,3.18,0,0,0,1.689-1.037L68.273,158l2.783.414C71.254,158.411,71.354,158.722,71.056,158.826Z" transform="translate(83.633)"/><path class="e" d="M43.727,166.7a15.806,15.806,0,0,1,7.851-6.531c3.975-1.348,6.559-4.354,7.056-6.323.3-1.037.6-2.385.795-3.421a2.774,2.774,0,0,1,1.888-2.177l5.068-1.762c.4-.1.7.414.3.622l-4.075,3.42a2.882,2.882,0,0,0-.994,1.866l-.4,5.494a1.67,1.67,0,0,1-.8,1.452l-5.565,3.628a4.4,4.4,0,0,0-1.689,2.8C50.584,166.082,43.727,166.7,43.727,166.7Z" transform="translate(83.633)"/><path class="e" d="M145.093,102.434c.2,0,.1.311,0,.311l-3.876.518.5-.207a1.556,1.556,0,0,0,.795-.622l.4-.726Z" transform="translate(33)"/><path class="e" d="M165.863,85.952c-.1.207-4.77,5.7-6.36,8.6-.1.207-.4.1-.3-.1a50.537,50.537,0,0,1,2.782-7.36l2.286-.311A2.047,2.047,0,0,0,165.863,85.952Z" transform="translate(33)"/><path class="p" d="M147.678,50.707a7.989,7.989,0,1,0-7.653-7.982A7.822,7.822,0,0,0,147.678,50.707Z" transform="translate(33)"/><g class="g" transform="translate(33)"><path class="q" d="M2.784,114.148H23.951a1.208,1.208,0,0,0-.994-.83,4.378,4.378,0,0,1-1.689-.1c-.6-.208-1.093-1.037-2.087-1.037-1.292,0-1.491.518-2.683.518-1.789,0-2.186-1.762-4.472-1.762s-2.882,2.177-4.671,1.97a3.573,3.573,0,0,0-2.385.311c-.6.311-1.689-.1-2.186.622Q2.634,114.147,2.784,114.148Z"/><path class="r" d="M118.361,98.08h20.572c.2,0,.3-.1.2-.207a1.313,1.313,0,0,0-1.192-.518,4,4,0,0,1-1.59-.1c-1.093-.207-2.087-2.073-4.373-2.073-2.584,0-3.876,1.97-5.963,1.97s-2.285-.518-3.677-.518c-1.093,0-1.689.726-2.782.726a1.93,1.93,0,0,0-1.292.415C118.162,98.08,118.262,98.08,118.361,98.08Z"/><path class="r" d="M189.416,41.378h47.9c.4,0,.6-.207.5-.518-.3-.518-1.093-1.14-2.882-1.14a14.294,14.294,0,0,1-3.677-.1c-2.485-.518-4.87-4.768-10.137-4.768-5.963,0-9.143,4.665-14.012,4.665s-5.367-1.14-8.448-1.14c-2.484,0-3.975,1.659-6.459,1.659a4.409,4.409,0,0,0-3.081.933C188.919,41.171,189.118,41.378,189.416,41.378Z"/><path class="r" d="M126.709,70.092H93.417c-.2,0-.2-.207-.1-.311A4.176,4.176,0,0,1,96.7,68.744c2.783.1,3.876-3.524,8.447-3.524,4.075,0,5.267,3.11,8.746,3.11,3.577,0,3.18-.518,4.869-.518s2.485.933,3.677.933,2.187-.829,3.28-.415a1.9,1.9,0,0,1,1.192,1.348C127.007,69.988,126.808,70.092,126.709,70.092Z"/><path class="r" d="M121.143,103.781H110.41c-.1,0-.1-.1,0-.1a1.719,1.719,0,0,1,1.094-.311c.894,0,1.292-1.14,2.683-1.14,1.292,0,1.689,1.036,2.782,1.036a12.684,12.684,0,0,0,1.591-.207c.6,0,.8.311,1.192.311s.7-.207.994-.1c.4.1.5.311.4.518Z"/><path class="r" d="M159.9,48.634H115.777a.283.283,0,0,1-.2-.415,6.113,6.113,0,0,1,4.571-1.348c3.777.207,5.168-4.665,11.23-4.665,5.466,0,6.957,4.146,11.628,4.146s4.174-.726,6.459-.726c2.385,0,3.379,1.244,4.87,1.244s2.882-1.037,4.273-.518a2.246,2.246,0,0,1,1.491,1.762C160.3,48.427,160.1,48.634,159.9,48.634Z"/><path class="q" d="M24.746,117.776H37.864a.219.219,0,0,0,.2-.208,1.14,1.14,0,0,0-1.292-.518,2.114,2.114,0,0,1-1.789-.311,4.2,4.2,0,0,0-2.683-1.347c-1.391,0-2.286,1.658-3.379,1.658-.894,0-.994-.311-1.491-.311-.7,0-.7.622-1.391.622-.3,0-.994-.1-1.292.311C24.547,117.672,24.646,117.776,24.746,117.776Z"/><path class="q" d="M-1.788,86.781h38.46a.455.455,0,0,0,.4-.622c-.2-.415-.8-1.037-2.286-1.244-3.876-.518-3.776-4.665-8.944-4.665-3.876,0-5.565,3.939-9.342,3.939-2.584,0-2.683-1.037-6.46-1.037-3.478,0-4.075,2.591-7.752,2.591-1.689,0-3.081-.1-3.975.726C-1.987,86.574-1.987,86.781-1.788,86.781Z"/><path class="q" d="M-39.552,57.445H27.827a.714.714,0,0,0,.6-1.037c-.4-.829-1.391-1.866-3.975-2.177-6.857-.829-6.658-8.293-15.7-8.293-6.758,0-9.839,6.945-16.4,6.945-4.571,0-4.77-1.762-11.429-1.762-6.161,0-7.155,4.561-13.615,4.561-2.882,0-5.366-.207-7.056,1.244C-39.85,57.134-39.751,57.445-39.552,57.445Z"/><path class="s" d="M43.131,107.721h24.05c.2,0,.3-.1.2-.311s-.5-.518-1.391-.622c-2.484-.207-2.385-2.281-5.565-2.281-2.385,0-3.478,1.97-5.863,1.97-1.59,0-1.689-.518-4.075-.518-2.186,0-2.584,1.244-4.869,1.244a4.438,4.438,0,0,0-2.485.31C43.032,107.721,43.131,107.721,43.131,107.721Z"/><path class="q" d="M11.231,120.057h9.839c.1,0,.2-.1.1-.1a1.367,1.367,0,0,0-.994-.311,3.044,3.044,0,0,1-1.391-.207,3.7,3.7,0,0,0-1.988-.726c-.994,0-1.689.933-2.584.933-.7,0-.8-.207-1.093-.207-.5,0-.6.311-.994.311-.1.1-.6,0-.894.311Z"/></g><g class="g" transform="translate(33)"><path class="l" d="M67.378,114.77s-.994-2.281-2.981-1.141-1.193,3.836-1.193,3.836Z"/><path class="l" d="M68.173,119.331a12.482,12.482,0,0,0-2.186-3.628c.7-.83,1.491-.311,2.087.622A4.346,4.346,0,0,1,68.173,119.331Z"/><path class="l" d="M64.3,118.916s.994-2.9,2.783-3.732c-.6-.725-1.789-.311-2.385.519A3.759,3.759,0,0,0,64.3,118.916Z"/><path class="l" d="M66.186,114.148a2.276,2.276,0,0,1,2.683-.414c1.292.622,1.689,2.177,1.789,3.317A23.66,23.66,0,0,0,66.186,114.148Z"/><path class="l" d="M66.881,114.77a1.842,1.842,0,0,0-2.484.207,5.21,5.21,0,0,0-.8,3.317A8.347,8.347,0,0,1,66.881,114.77Z"/><path class="t" d="M67.08,133.118l-.4-17.83"/><path class="l" d="M66.682,114.977s-.1,3.214-1.789,4.976C64.4,117.672,65.39,115.184,66.682,114.977Z"/><path class="l" d="M69.564,118.812l-3.578-3.628a1.966,1.966,0,0,1,2.584-.311C70.458,116.221,69.564,118.812,69.564,118.812Z"/></g><path class="u" d="M224.4,136.746s2.385-56.184-1.988-97.338" transform="translate(33)"/><g class="g" transform="translate(33)"><path class="v" d="M135.055,120.471s1.392-20.214-2.285-39.806"/><path class="w" d="M135.652,118.294c0,1.036.5,1.658.2,2.384a1.519,1.519,0,0,1-1.491-.1c-.2-.518.4-1.451.4-2.384C134.757,117.568,135.652,117.465,135.652,118.294Z"/><path class="l" d="M133.267,79.214s-2.882,9.019-3.379,10.159c-.894-.518-1.292-6.012.4-8.189C131.876,79.11,133.267,79.214,133.267,79.214Z"/><path class="l" d="M127.4,86.677s4.274-4.665,4.969-6.634-2.385.415-3.279,1.555A9.72,9.72,0,0,0,127.4,86.677Z"/><path class="l" d="M124.521,83.568a8.635,8.635,0,0,1,7.156-2.177c2.484.311,1.888-2.488.5-2.8C131.279,78.385,125.615,79.214,124.521,83.568Z"/><path class="l" d="M128.7,79.836s0-2.488,1.988-2.8,1.888,2.384,1.888,2.384Z"/><path class="l" d="M135.453,78.281s-.993-1.866-2.186-1.451-1.491,2.177-1.491,2.177Z"/><path class="l" d="M132.173,87.714a47.3,47.3,0,0,0,1.889-6.842c.1-1.762-2.485-2.591-2.485-.311A47.561,47.561,0,0,0,132.173,87.714Z"/><path class="l" d="M135.95,88.854s1.093-4.976-.9-7.775c-1.689-2.488-3.577-1.762-3.975-1.451C133.962,82.946,135.95,88.854,135.95,88.854Z"/><path class="l" d="M139.826,83.982s-3.479-4.043-7.951-4.25c-.1-1.866,3.28-2.9,5.267-1.659A6.246,6.246,0,0,1,139.826,83.982Z"/><path class="l" d="M137.739,85.226s-.5-5.079-4.174-6.531a1.138,1.138,0,0,0-1.689,1.037Z"/></g><g class="g" transform="translate(33)"><path class="l" d="M178.683,72.269a14.415,14.415,0,0,0-5.665-8.293c-4.074-2.9-2.385-4.043-2.385-4.043s3.777-2.073,6.758,2.9C180.472,68.019,178.683,72.269,178.683,72.269Z"/><path class="v" d="M175.1,60.659c3.677,32.342,1.292,67.9,1.292,67.9"/><path class="w" d="M177.391,121.818a9.987,9.987,0,0,0,.7,3.421,9.181,9.181,0,0,1,.2,3.214c0,.1-.1.207-.2.311a3.546,3.546,0,0,1-2.783,0c-.1,0-.2-.208-.2-.311a7.37,7.37,0,0,1,.2-3.214,7.88,7.88,0,0,0,.7-3.11C176,121.507,177.391,121.818,177.391,121.818Z"/><path class="l" d="M183.851,73.72s.894-6.323-2.286-9.951c-3.08-3.524-8.049-5.39-8.844-3.213s4.273,4.043,6.459,6.116A21.293,21.293,0,0,1,183.851,73.72Z"/><path class="l" d="M175.8,62.836s7.155-1.97,12.82,6.323c.7-3.524-2.982-8.6-6.062-9.744-2.584-.933-8.447-.726-8.944.622C173.217,61.488,173.913,63.25,175.8,62.836Z"/><path class="l" d="M169.44,76.519s1.491-8.189,6.162-14.409c4.174-5.6-2.683-3.317-6.062.415C166.36,65.946,164.77,70.092,169.44,76.519Z"/><path class="l" d="M164.074,67.293s2.485-4.457,9.242-5.6c5.764-.933,4.572-3.11,4.572-3.11s-4.472-5.805-10.137-2.073C161.987,60.451,164.074,67.293,164.074,67.293Z"/><path class="l" d="M172.919,73.409s5.466-10.159,2.783-11.4C173.018,60.659,172.919,73.409,172.919,73.409Z"/><path class="l" d="M188.223,62.214s-3.081-4.354-12.422-1.866c-3.28-4.457,3.776-6.116,7.254-5.183C184.347,55.579,188.223,57.756,188.223,62.214Z"/></g><g class="g" transform="translate(33)"><path class="l" d="M207.7,67.707s8.547-15.756,11.628-19.488c4.571-5.7,4.074-8.086,3.975-8.811s-5.466-1.866-9.739,4.976C204.721,58.585,207.7,67.707,207.7,67.707Z"/><path class="l" d="M201.242,52.262s9.044-9.848,16.4-10.47c9.341-.829,8.447-3.732,8.447-3.732a12.448,12.448,0,0,0-14.311-.933C204.124,41.377,202.137,47.286,201.242,52.262Z"/><path class="l" d="M236.025,59.311s2.385-13.269-4.87-19.281c-7.453-6.116-9.242-4.25-10.534-2.281C227.578,44.073,236.025,59.311,236.025,59.311Z"/><path class="l" d="M207.006,51.225s13.217-8.189,16.894-8.811c3.777-.622,2.385-9.641-4.77-6.945C211.975,38.06,207.006,51.225,207.006,51.225Z"/><path class="l" d="M243.578,51.329S231.951,40.859,222.41,42.1c-9.441,1.14-2.584-7.049,4.572-6.738C234.336,35.676,241.59,42,243.578,51.329Z"/></g></g></g><g transform="translate(1527.842 1959)"><g transform="translate(-0 0)"><rect class="x" width="238.287" height="3.373" rx="1.687" transform="translate(0 80.874)"/><rect width="22.418" height="28.343" transform="translate(96.368 41.311)"/><g transform="translate(151.647 45.406)"><path class="y" d="M1058.556,610.4c3.247,0,5.879,7.9,5.879,17.639s-2.632,17.639-5.879,17.639h-10.34V610.4Z" transform="translate(-1042.336 -608.883)"/><g transform="translate(7.535 0.507)"><g transform="translate(0 1.217)"><line class="y" x1="7.434" y1="3.088"/></g><g transform="translate(7.265)"><line class="y" y1="3.088" x2="7.333" transform="translate(0)"/><line class="y" y1="2.851" x2="6.768" transform="translate(0 2.818)"/><line class="y" y1="2.613" x2="6.204" transform="translate(0 5.635)"/><line class="y" y1="2.375" x2="5.64" transform="translate(0 8.453)"/><line class="y" y1="2.138" x2="5.076" transform="translate(0 11.27)"/><line class="y" y1="1.9" x2="4.512" transform="translate(0 14.088)"/><line class="y" y1="1.663" x2="3.948" transform="translate(0 16.906)"/><line class="y" y1="1.425" x2="3.384" transform="translate(0 19.723)"/><line class="y" y1="1.188" x2="2.82" transform="translate(0 22.541)"/><line class="y" y1="0.95" x2="2.256" transform="translate(0 25.358)"/><line class="y" y1="0.713" x2="1.692" transform="translate(0 28.176)"/><line class="y" y1="0.475" x2="1.128" transform="translate(0 30.994)"/><line class="y" y1="0.238" x2="0.564" transform="translate(0 33.811)"/><path class="y" d="M1061.851,664.844" transform="translate(-1061.851 -628.215)"/></g></g><ellipse class="y" cx="5.88" cy="17.639" rx="5.88" ry="17.639" transform="translate(0 1.521)"/><path class="y" d="M1056.222,610.686c3.247,0,5.879,7.815,5.879,17.454s-2.632,17.454-5.879,17.454h2.129c3.247,0,5.879-7.815,5.879-17.454s-2.633-17.454-5.879-17.454Z" transform="translate(-1045.104 -608.981)"/><g transform="translate(11.556 2.433)"><line class="y" x1="7.434" y1="3.088"/></g><path class="y" d="M1052.968,610.686c3.248,0,5.879,7.815,5.879,17.454s-2.632,17.454-5.879,17.454h2.129c3.247,0,5.879-7.815,5.879-17.454s-2.632-17.454-5.879-17.454Z" transform="translate(-1043.979 -608.981)"/><g transform="translate(11.05)"><line class="y" y1="3.088" x2="7.434"/></g><g transform="translate(1.568 6.431)"><path class="y" d="M1041.625,631.149a31.67,31.67,0,0,0,1.4,10.007,10.52,10.52,0,0,0,.618,1.433c.6,1.142,1.3,1.8,2.042,1.8.789,0,1.524-.731,2.148-2h0a12.1,12.1,0,0,0,.645-1.622,32.63,32.63,0,0,0,1.271-9.612c0-1.034-.037-2.043-.107-3.011-.054-.761-.128-1.492-.22-2.2-.564-4.281-1.8-7.4-3.275-7.945a1.338,1.338,0,0,0-.463-.085,1.382,1.382,0,0,0-.273.029c-1.5.325-2.782,3.318-3.4,7.536-.1.687-.182,1.407-.245,2.154C1041.676,628.752,1041.625,629.93,1041.625,631.149Z" transform="translate(-1041.625 -617.91)"/><g transform="translate(0.481 1.598)"><path class="y" d="M1045.084,649.436c.529,1.006,1.144,1.582,1.8,1.582.7,0,1.343-.644,1.893-1.764l-1.634-7.306c-.095-.425-.289-.425-.385,0Z" transform="translate(-1043.303 -627.71)"/><path class="y" d="M1048.458,620.427l.019,8.845c0,.519.156.888.308.735l2.559-2.577C1050.848,623.657,1049.759,620.909,1048.458,620.427Z" transform="translate(-1044.469 -620.378)"/><path class="y" d="M1049.137,638.05l1.594,7.168a28.776,28.776,0,0,0,1.12-8.472c0-.911-.032-1.8-.094-2.653l-2.5,2.769A1.784,1.784,0,0,0,1049.137,638.05Z" transform="translate(-1044.688 -625.104)"/><path class="y" d="M1042.361,636.509a27.918,27.918,0,0,0,1.236,8.82l1.708-7.691a1.789,1.789,0,0,0-.115-1.186l-2.7-3.045C1042.406,634.4,1042.361,635.435,1042.361,636.509Z" transform="translate(-1042.361 -624.866)"/><path class="y" d="M1042.888,626.994l2.669,2.747c.152.158.308-.212.309-.734l.017-8.655C1044.558,620.638,1043.431,623.276,1042.888,626.994Z" transform="translate(-1042.543 -620.352)"/></g></g></g><g transform="translate(97.331 47.467)"><path class="y" d="M975.53,611.23c3.247,0,5.88,7.9,5.88,17.639s-2.633,17.639-5.88,17.639H965.19V611.23Z" transform="translate(-959.31 -611.23)"/><g transform="translate(5.88)"><g class="z"><g transform="translate(1.656 -1.554)"><g transform="translate(0 1.217)"><line class="aa" x1="7.434" y1="3.088"/><line class="aa" x1="7.434" y1="3.088" transform="translate(0 2.642)"/><line class="aa" x1="7.434" y1="3.088" transform="translate(0 5.285)"/><line class="aa" x1="7.434" y1="3.088" transform="translate(0 7.927)"/><line class="aa" x1="7.434" y1="3.088" transform="translate(0 10.57)"/><line class="aa" x1="7.434" y1="3.088" transform="translate(0 13.212)"/><line class="aa" x1="7.434" y1="3.088" transform="translate(0 15.855)"/><line class="aa" x1="7.434" y1="3.088" transform="translate(0 18.497)"/><line class="aa" x1="7.434" y1="3.088" transform="translate(0 21.14)"/><line class="aa" x1="7.434" y1="3.088" transform="translate(0 23.782)"/><line class="aa" x1="7.434" y1="3.088" transform="translate(0 26.425)"/><line class="aa" x1="7.434" y1="3.088" transform="translate(0 29.067)"/><line class="aa" x1="7.434" y1="3.088" transform="translate(0 31.709)"/><line class="aa" x1="7.434" y1="3.088" transform="translate(0 34.352)"/></g><g transform="translate(7.265)"><line class="aa" y1="3.088" x2="7.333"/><line class="aa" y1="3.088" x2="7.333" transform="translate(0 2.58)"/><line class="aa" y1="3.088" x2="7.333" transform="translate(0 5.16)"/><line class="aa" y1="3.088" x2="7.333" transform="translate(0 7.74)"/><line class="aa" y1="3.088" x2="7.333" transform="translate(0 10.32)"/><line class="aa" y1="3.088" x2="7.333" transform="translate(0 12.9)"/><line class="aa" y1="3.088" x2="7.333" transform="translate(0 15.48)"/><line class="aa" y1="3.088" x2="7.333" transform="translate(0 18.06)"/><line class="aa" y1="3.088" x2="7.333" transform="translate(0 20.64)"/><line class="aa" y1="3.088" x2="7.333" transform="translate(0 23.221)"/><line class="aa" y1="3.088" x2="7.333" transform="translate(0 25.801)"/><line class="aa" y1="3.088" x2="7.333" transform="translate(0 28.381)"/><line class="aa" y1="3.088" x2="7.333" transform="translate(0 30.961)"/><line class="aa" y1="3.088" x2="7.333" transform="translate(0 33.541)"/></g></g></g></g><ellipse class="y" cx="5.88" cy="17.639" rx="5.88" ry="17.639" transform="translate(0 0)"/><path class="y" d="M973.2,611.513c3.247,0,5.879,7.814,5.879,17.454s-2.633,17.454-5.879,17.454h2.128c3.248,0,5.88-7.815,5.88-17.454s-2.632-17.454-5.88-17.454Z" transform="translate(-962.079 -611.328)"/><g transform="translate(11.118)"><g class="ab"><g transform="translate(0.438 0.372)"><line class="aa" x1="7.434" y1="3.088"/><line class="aa" x1="7.434" y1="3.088" transform="translate(0.062 2.549)"/><line class="aa" x1="7.434" y1="3.088" transform="translate(0.125 5.098)"/><line class="aa" x1="7.434" y1="3.088" transform="translate(0.187 7.647)"/><line class="aa" x1="7.434" y1="3.088" transform="translate(0.25 10.195)"/><line class="aa" x1="7.434" y1="3.088" transform="translate(0.312 12.744)"/><line class="aa" x1="7.434" y1="3.088" transform="translate(0.374 15.293)"/><line class="aa" x1="7.434" y1="3.088" transform="translate(0.437 17.842)"/><line class="aa" x1="7.434" y1="3.088" transform="translate(0.499 20.391)"/><line class="aa" x1="7.434" y1="3.088" transform="translate(0.561 22.94)"/><line class="aa" x1="7.434" y1="3.088" transform="translate(0.624 25.489)"/><line class="aa" x1="7.434" y1="3.088" transform="translate(0.686 28.038)"/><line class="aa" x1="7.434" y1="3.088" transform="translate(0.749 30.586)"/><line class="aa" x1="7.434" y1="3.088" transform="translate(0.811 33.135)"/></g></g></g><path class="y" d="M969.943,611.513c3.247,0,5.879,7.814,5.879,17.454s-2.633,17.454-5.879,17.454h2.128c3.247,0,5.88-7.815,5.88-17.454s-2.633-17.454-5.88-17.454Z" transform="translate(-960.954 -611.328)"/><g transform="translate(8.989)"><g class="ac"><g transform="translate(-0.373 -2.061)"><line class="aa" y1="3.088" x2="7.434" transform="translate(2.433)"/><line class="aa" y1="3.088" x2="7.434" transform="translate(2.246 2.642)"/><line class="aa" y1="3.088" x2="7.434" transform="translate(2.059 5.285)"/><line class="aa" y1="3.088" x2="7.434" transform="translate(1.872 7.927)"/><line class="aa" y1="3.088" x2="7.434" transform="translate(1.685 10.57)"/><line class="aa" y1="3.088" x2="7.434" transform="translate(1.497 13.212)"/><line class="aa" y1="3.088" x2="7.434" transform="translate(1.31 15.855)"/><line class="aa" y1="3.088" x2="7.434" transform="translate(1.123 18.497)"/><line class="aa" y1="3.088" x2="7.434" transform="translate(0.936 21.14)"/><line class="aa" y1="3.088" x2="7.434" transform="translate(0.749 23.782)"/><line class="aa" y1="3.088" x2="7.434" transform="translate(0.561 26.425)"/><line class="aa" y1="3.088" x2="7.434" transform="translate(0.374 29.067)"/><line class="aa" y1="3.088" x2="7.434" transform="translate(0.187 31.709)"/><line class="aa" y1="3.088" x2="7.434" transform="translate(0 34.352)"/></g></g></g><g transform="translate(1.568 4.37)"><path class="ad" d="M958.6,631.149a31.674,31.674,0,0,0,1.4,10.007,10.525,10.525,0,0,0,.618,1.433c.6,1.142,1.3,1.8,2.042,1.8.79,0,1.524-.731,2.148-2h0a12.06,12.06,0,0,0,.644-1.622,32.632,32.632,0,0,0,1.271-9.612c0-1.034-.036-2.043-.107-3.011-.053-.761-.128-1.492-.22-2.2-.563-4.281-1.8-7.4-3.274-7.945a1.342,1.342,0,0,0-.463-.085,1.375,1.375,0,0,0-.273.029c-1.5.325-2.783,3.318-3.4,7.536-.1.687-.182,1.407-.245,2.154C958.65,628.752,958.6,629.93,958.6,631.149Z" transform="translate(-958.599 -617.91)"/><g transform="translate(0.482 1.598)"><path class="y" d="M962.058,649.436c.529,1.006,1.144,1.582,1.8,1.582.7,0,1.343-.644,1.893-1.764l-1.634-7.306c-.095-.425-.29-.425-.385,0Z" transform="translate(-960.277 -627.71)"/><path class="y" d="M965.433,620.427l.019,8.845c0,.519.156.888.307.735l2.56-2.577C967.823,623.657,966.733,620.909,965.433,620.427Z" transform="translate(-961.444 -620.378)"/><path class="y" d="M966.112,638.05l1.594,7.168a28.769,28.769,0,0,0,1.121-8.472c0-.911-.032-1.8-.094-2.653l-2.5,2.769A1.78,1.78,0,0,0,966.112,638.05Z" transform="translate(-961.663 -625.104)"/><path class="y" d="M959.336,636.509a27.92,27.92,0,0,0,1.236,8.82l1.707-7.691a1.789,1.789,0,0,0-.115-1.186l-2.7-3.045C959.381,634.4,959.336,635.435,959.336,636.509Z" transform="translate(-959.336 -624.866)"/><path class="y" d="M959.863,626.994l2.668,2.747c.153.158.309-.212.309-.734l.017-8.655C961.533,620.638,960.405,623.276,959.863,626.994Z" transform="translate(-959.518 -620.352)"/></g></g></g><g transform="translate(197.828 47.467)"><path class="y" d="M1138.166,611.23c7.1,0,12.863,7.9,12.863,17.639s-5.759,17.639-12.863,17.639h-9.238V611.23Z" transform="translate(-1116.427 -611.23)"/><g transform="translate(20.155)"><g class="ae"><g transform="translate(1.426 -1.554)"><line class="aa" y1="3.079" x2="15.988"/><line class="aa" y1="3.079" x2="15.988" transform="translate(0 2.573)"/><line class="aa" y1="3.079" x2="15.988" transform="translate(0 5.145)"/><line class="aa" y1="3.079" x2="15.988" transform="translate(0 7.718)"/><line class="aa" y1="3.079" x2="15.988" transform="translate(0 10.291)"/><line class="aa" y1="3.079" x2="15.988" transform="translate(0 12.863)"/><line class="aa" y1="3.079" x2="15.988" transform="translate(0 15.436)"/><line class="aa" y1="3.079" x2="15.988" transform="translate(0 18.009)"/><line class="aa" y1="3.079" x2="15.988" transform="translate(0 20.581)"/><line class="aa" y1="3.079" x2="15.988" transform="translate(0 23.154)"/><line class="aa" y1="3.079" x2="15.988" transform="translate(0 25.727)"/><line class="aa" y1="3.079" x2="15.988" transform="translate(0 28.299)"/><line class="aa" y1="3.079" x2="15.988" transform="translate(0 30.872)"/><line class="aa" y1="3.079" x2="15.988" transform="translate(0 33.445)"/></g></g></g><g transform="translate(12.501)"><g class="af"><g transform="translate(0.006 -0.338)"><line class="aa" x1="16.264" y1="3.088"/><line class="aa" x1="16.264" y1="3.088" transform="translate(0 2.642)"/><line class="aa" x1="16.264" y1="3.088" transform="translate(0 5.285)"/><line class="aa" x1="16.264" y1="3.088" transform="translate(0 7.927)"/><line class="aa" x1="16.264" y1="3.088" transform="translate(0 10.57)"/><line class="aa" x1="16.264" y1="3.088" transform="translate(0 13.212)"/><line class="aa" x1="16.264" y1="3.088" transform="translate(0 15.855)"/><line class="aa" x1="16.264" y1="3.088" transform="translate(0 18.497)"/><line class="aa" x1="16.264" y1="3.088" transform="translate(0 21.14)"/><line class="aa" x1="16.264" y1="3.088" transform="translate(0 23.782)"/><line class="aa" x1="16.264" y1="3.088" transform="translate(0 26.425)"/><line class="aa" x1="16.264" y1="3.088" transform="translate(0 29.067)"/><line class="aa" x1="16.264" y1="3.088" transform="translate(0 31.709)"/><line class="aa" x1="16.264" y1="3.088" transform="translate(0 34.352)"/></g></g></g><ellipse class="y" cx="12.863" cy="17.639" rx="12.863" ry="17.639" transform="translate(0 0)"/><path class="y" d="M1136.493,611.23c7.1,0,12.863,7.849,12.863,17.531s-5.759,17.531-12.863,17.531h1.763c7.1,0,12.863-7.849,12.863-17.531s-5.759-17.531-12.863-17.531Z" transform="translate(-1119.043 -611.23)"/><g transform="translate(17.45)"><g class="ag"><g transform="translate(0.959 0.372)"><line class="aa" x1="16.264" y1="3.088"/><line class="aa" x1="16.264" y1="3.088" transform="translate(0.136 2.549)"/><line class="aa" x1="16.264" y1="3.088" transform="translate(0.273 5.098)"/><line class="aa" x1="16.264" y1="3.088" transform="translate(0.41 7.647)"/><line class="aa" x1="16.264" y1="3.088" transform="translate(0.546 10.195)"/><line class="aa" x1="16.264" y1="3.088" transform="translate(0.682 12.744)"/><line class="aa" x1="16.264" y1="3.088" transform="translate(0.819 15.293)"/><line class="aa" x1="16.264" y1="3.088" transform="translate(0.955 17.842)"/><line class="aa" x1="16.264" y1="3.088" transform="translate(1.092 20.391)"/><line class="aa" x1="16.264" y1="3.088" transform="translate(1.228 22.94)"/><line class="aa" x1="16.264" y1="3.088" transform="translate(1.365 25.489)"/><line class="aa" x1="16.264" y1="3.088" transform="translate(1.501 28.038)"/><line class="aa" x1="16.264" y1="3.088" transform="translate(1.638 30.586)"/><line class="aa" x1="16.264" y1="3.088" transform="translate(1.774 33.135)"/></g></g></g><path class="y" d="M1133.8,611.23c7.1,0,12.863,7.849,12.863,17.531s-5.759,17.531-12.863,17.531h1.763c7.1,0,12.863-7.849,12.863-17.531s-5.759-17.531-12.863-17.531Z" transform="translate(-1118.111 -611.23)"/><g transform="translate(15.686)"><g class="ah"><g transform="translate(-0.815 -2.061)"><line class="aa" y1="3.088" x2="16.264" transform="translate(5.323)"/><line class="aa" y1="3.088" x2="16.264" transform="translate(4.914 2.642)"/><line class="aa" y1="3.088" x2="16.264" transform="translate(4.504 5.285)"/><line class="aa" y1="3.088" x2="16.264" transform="translate(4.095 7.927)"/><line class="aa" y1="3.088" x2="16.264" transform="translate(3.685 10.57)"/><line class="aa" y1="3.088" x2="16.264" transform="translate(3.276 13.212)"/><line class="aa" y1="3.088" x2="16.264" transform="translate(2.866 15.855)"/><line class="aa" y1="3.088" x2="16.264" transform="translate(2.457 18.497)"/><line class="aa" y1="3.088" x2="16.264" transform="translate(2.047 21.14)"/><line class="aa" y1="3.088" x2="16.264" transform="translate(1.638 23.782)"/><line class="aa" y1="3.088" x2="16.264" transform="translate(1.228 26.425)"/><line class="aa" y1="3.088" x2="16.264" transform="translate(0.819 29.067)"/><line class="aa" y1="3.088" x2="16.264" transform="translate(0.41 31.709)"/><line class="aa" y1="3.088" x2="16.264" transform="translate(0 34.352)"/></g></g></g><g transform="translate(3.43 4.37)"><path class="ai" d="M1115.062,631.149a16.526,16.526,0,0,0,3.069,10.007,9.7,9.7,0,0,0,1.352,1.433,6.785,6.785,0,0,0,4.468,1.8,6.876,6.876,0,0,0,4.7-2h0a10.421,10.421,0,0,0,1.409-1.622,16.78,16.78,0,0,0,2.78-9.612,19.218,19.218,0,0,0-.233-3.011,17.965,17.965,0,0,0-.482-2.2c-1.233-4.281-3.937-7.4-7.164-7.945a6.126,6.126,0,0,0-1.012-.085c-.2,0-.4.011-.6.029-3.289.325-6.087,3.318-7.434,7.536a17.417,17.417,0,0,0-.536,2.154A19.265,19.265,0,0,0,1115.062,631.149Z" transform="translate(-1115.062 -617.91)"/></g></g><rect width="18.901" height="29.613" transform="translate(129.683 40.326)"/><path class="y" d="M954.863,571.174l-1.3.082a2.311,2.311,0,0,0-2.133,1.928L949.67,583.8a5.621,5.621,0,0,0,1.635,4.956l1.829,1.771Z" transform="translate(-856.587 -549.912)"/><path class="aj" d="M1011.091,608.858l-8.5-.052-.3,0h-.115a.939.939,0,0,1-.935-1.02c.137-1.592.215-3.258.215-4.976q0-1.506-.078-2.955v-.007c0-.026,0-.056,0-.081-.011-.273-.029-.543-.048-.809-.037-.595-.089-1.178-.148-1.751-.026-.288-.059-.572-.092-.854s-.067-.561-.107-.835c0-.011,0-.022,0-.037-.071-.54-.152-1.064-.244-1.577q-.167-.965-.366-1.869c-.074-.343-.155-.684-.24-1.016-.081-.314-.163-.624-.247-.924-.052-.181-.1-.358-.159-.532s-.111-.366-.174-.543c-.026-.085-.055-.166-.081-.247-.125-.373-.258-.731-.4-1.075q-.1-.272-.222-.532c-.185-.425-.377-.824-.576-1.193-.048-.089-.092-.174-.14-.255-.152-.274-.311-.525-.473-.761-.037-.056-.078-.11-.115-.162-.056-.082-.118-.163-.177-.24l-.129-.163c-.052-.063-.1-.126-.155-.185s-.1-.114-.159-.174a4.181,4.181,0,0,0-1.259-.953,1.318,1.318,0,0,0-.155-.067c-.044-.018-.092-.037-.137-.052s-.085-.029-.126-.041-.107-.029-.159-.041a2.338,2.338,0,0,0-.359-.052c-.059,0-.118-.008-.177-.008-3.59,0-6.545,7.942-6.871,18.1-.022.621-.033,1.253-.033,1.891,0,.311,0,.621.007.928,0,.059,0,.122,0,.184.011.635.033,1.259.067,1.876.014.325.037.65.059.968s.048.661.078.986.059.647.092.964l-1.149-.007-5.346-.033-10.276-.063-3.894-.026-.557,0a.518.518,0,0,1-.107-.011.525.525,0,0,1-.266-.144.535.535,0,0,1-.147-.421q.055-.615.1-1.241c.015-.233.029-.469.044-.706.007-.166.018-.336.025-.51.022-.5.041-1,.052-1.518,0-.14,0-.281,0-.421.007-.266.007-.532.007-.8,0-.639-.011-1.271-.029-1.891-.321-10.155-3.217-18.1-6.742-18.1s-6.416,7.942-6.742,18.1l-.022.861c0,.34-.008.684-.008,1.03,0,.362,0,.72.011,1.076,0,.25.008.5.018.746,0,.126.008.247.011.373l.011.244c.008.222.019.444.03.665,0,.074.007.145.011.218.018.3.037.587.059.875v.014c.037.5.081.994.13,1.478l-.695,0a.48.48,0,0,1-.107-.011.519.519,0,0,1-.2-.074.632.632,0,0,1-.081-.063.57.57,0,0,1-.2-.362l-1.038-7.067-1.854-12.607a27.041,27.041,0,0,1,.355-9.811l4.089-18.4,8.112-16.534a5.853,5.853,0,0,1,4.876-3.265l10.993-.731.033,0,.1-.007.1-.007.166-.011.277-.019.163-.01.554-.037.584-.041c.1-.007.192-.011.288-.018l2.745-.185a7.888,7.888,0,0,1,1.1,0h.014a7.694,7.694,0,0,1,6.221,4.1v0a7.122,7.122,0,0,1,.317.684l.621,1.533.092.222,7.536,18.573.705,1.175,0,.011,8.71,14.514Z" transform="translate(-856.289 -538.859)"/><path class="q" d="M1010.844,585.026l-1.869,17.738L1001.1,583.25c-11.884-17.794-45.129-23.15-45.129-23.15l.074-.148s0-.01,0-.014l7.974-16.249a6.1,6.1,0,0,1,5.073-3.4l10.857-.72.033,0,.1-.008.1-.007.166-.011.277-.018.162-.011.554-.037.584-.041c.1-.007.192-.011.288-.018l2.744-.185a7.759,7.759,0,0,1,1.1,0h.015a7.693,7.693,0,0,1,6.22,4.1v0a7.112,7.112,0,0,1,.318.683l.62,1.534.093.221,7.535,18.574.706,1.174,0,.011,8.71,14.514Z" transform="translate(-858.79 -538.859)"/><path class="ak" d="M1001.424,610.173c-.011.24-.026.48-.037.713,0-.026,0-.056,0-.081-.014-.273-.033-.54-.048-.809-.041-.595-.092-1.178-.148-1.751-.029-.285-.059-.569-.092-.854s-.07-.557-.107-.835c0-.011,0-.022,0-.037-.074-.536-.156-1.064-.244-1.577q-.167-.965-.366-1.869c-.078-.347-.155-.684-.24-1.016-.081-.314-.163-.624-.247-.924-.052-.18-.1-.358-.159-.532s-.111-.366-.174-.543c-.026-.085-.052-.166-.081-.247-.125-.373-.258-.731-.4-1.075q-.1-.272-.222-.532c-.185-.425-.377-.824-.576-1.193-.044-.089-.092-.174-.14-.255-.152-.273-.311-.525-.473-.761-.037-.056-.074-.11-.115-.162-.056-.082-.118-.163-.177-.24-.04-.056-.085-.111-.129-.163s-.1-.126-.155-.185-.1-.118-.159-.174a4.18,4.18,0,0,0-1.259-.953,1.319,1.319,0,0,0-.155-.067c-.044-.018-.092-.037-.137-.052s-.085-.029-.126-.041-.107-.029-.159-.041a2.323,2.323,0,0,0-.359-.052c-.059,0-.118-.008-.177-.008-3.59,0-6.545,7.942-6.871,18.1-.022.621-.033,1.253-.033,1.891,0,.311,0,.621.007.928,0,.059,0,.122,0,.184.011.635.033,1.259.067,1.876.018.325.037.65.059.968s.048.661.078.986.059.647.092.964l-1.149-.007-5.346-.033-10.276-.063-3.894-.026-.557,0a.513.513,0,0,1-.107-.011.555.555,0,0,1-.266-.144.535.535,0,0,1-.147-.421q.055-.615.1-1.241c.015-.233.029-.469.044-.706.011-.169.018-.34.025-.51.022-.5.041-1,.052-1.518,0-.14,0-.281,0-.421.007-.266.007-.532.007-.8,0-.638-.011-1.27-.029-1.891-.321-10.155-3.217-18.1-6.742-18.1s-6.416,7.942-6.742,18.1l-.022.861c0,.34-.008.684-.008,1.03,0,.362,0,.72.011,1.076,0,.251.008.5.018.746,0,.126.008.247.011.373l.011.244c.008.222.019.443.03.665,0,.074.007.145.011.218.018.3.037.587.059.875v.014c.037.5.081.994.13,1.478l-.695,0a.473.473,0,0,1-.107-.011.672.672,0,0,1-.2-.074.632.632,0,0,1-.081-.063.57.57,0,0,1-.2-.362l-1.038-7.067-1.854-12.607a27.041,27.041,0,0,1,.355-9.811l4.089-18.4a109.767,109.767,0,0,1,16.29,4.263c10.185,3.491,22.526,9.434,28.839,18.887C998.595,594.289,1001.919,600.074,1001.424,610.173Z" transform="translate(-856.289 -549.899)"/><path class="q" d="M999.414,607.915s-2.28-26.135,6.709-26.135c9.358,0,7.164,27.02,7.164,27.02l.9.008v-.052l.746-29.485a15.368,15.368,0,0,0-1.185-6.332s-1.315-3.166-3.1-7.458l0-.011c-2.634-6.331-9.144-22.161-9.144-22.161-.17-.4-.563-1.081-.6-1.155-.469-.934-3.255-3.059-6.233-3.094-.639,0-5.628.455-5.628.455s-5.234,18.5-6.066,25.334a371.3,371.3,0,0,0-.188,43.71c0,.022,0,.041,0,.063l16.746.1Z" transform="translate(-867.882 -538.807)"/><path class="al" d="M975.61,630.569c.019.621.09,3.192.09,3.831,0,1.754-.077,3.458-.222,5.078a.637.637,0,0,0,.63.7l.438,0,3.893.024c-.134-2.644-.238-6.751-.317-9.232Z" transform="translate(-865.536 -570.45)"/><path class="am" d="M1008.631,644.721c-.044-.416-.082-.84-.117-1.267.035.428.073.851.117,1.267Z" transform="translate(-876.961 -574.906)"/><path class="am" d="M1008.37,641.336q.028.5.065,1C1008.411,642,1008.388,641.671,1008.37,641.336Z" transform="translate(-876.911 -574.173)"/><path class="am" d="M1008.244,637.843c.013.491.034.976.058,1.458q-.071-1.409-.073-2.876c0,.462,0,.923.014,1.378Z" transform="translate(-876.863 -572.475)"/><path class="am" d="M1008.469,642.857c.01.13.019.261.029.391C1008.488,643.118,1008.479,642.987,1008.469,642.857Z" transform="translate(-876.945 -574.699)"/><path class="ak" d="M1010.187,596.844c-5.981-8.958-17.376-14.762-27.217-18.318-.056.729-1.161,15.3-.5,35.987h16.815c.255-7.935,2.113-14.517,4.628-17.018.052-.052.107-.1.163-.152a3.086,3.086,0,0,1,2.08-.927c1.477,0,2.844,1.34,3.963,3.628.115.229.226.465.333.716a34.859,34.859,0,0,1,2.331,10.04c.022.211.041.425.059.639.015.155.026.314.037.469.044.506.078,1.019.1,1.541.011-.237.026-.477.037-.72C1013.512,602.629,1010.187,596.844,1010.187,596.844Z" transform="translate(-867.882 -552.454)"/><path class="am" d="M1004.117,645.424l1.149.007,0-.041h-6.49Z" transform="translate(-873.592 -575.575)"/><path class="am" d="M983.063,645.295l10.277.063-10.277-.064Z" transform="translate(-868.16 -575.542)"/><path class="am" d="M1008.341,640.821c.006.113.013.224.019.337C1008.353,641.045,1008.347,640.934,1008.341,640.821Z" transform="translate(-876.901 -573.995)"/><path class="an" d="M976.817,637.458l10.276.064h6.49c-.044-.416-.082-.839-.116-1.267-.01-.13-.02-.26-.029-.391q-.036-.494-.065-1c-.007-.113-.013-.224-.019-.337-.025-.482-.045-.966-.058-1.458v-.041c-.011-.455-.015-.916-.015-1.378,0-.639.011-1.271.033-1.891l-16.863-1.57C976.53,630.676,976.682,634.814,976.817,637.458Z" transform="translate(-865.874 -569.629)"/><path class="q" d="M1109.452,588.541l1.23,2.192a6.345,6.345,0,0,1,.8,3.419l-.833,16.767H1028.03l.838-19.708a15.146,15.146,0,0,0-1.255-6.712l-3.768-8.61-1.373-3.3a5.033,5.033,0,0,0,2.666,2.748C1026.984,575.95,1109.452,588.541,1109.452,588.541Z" transform="translate(-881.787 -550.4)"/><path class="an" d="M1087.041,564.162h-67.334a5.032,5.032,0,0,1-4.672-3.155c-2.109-5.242-6.21-15.415-7.285-17.916a5.916,5.916,0,0,0-.332-.661c-.048-.085-.1-.167-.152-.248-1.681-2.63-4.839-3.121-6.11-3.213-.24-.015-.413-.018-.5-.018l.5,0,58.719-.273a11.3,11.3,0,0,1,7.956,3.509c.063.063.141.148.233.248a103.165,103.165,0,0,1,13.013,17.461,7.6,7.6,0,0,0,4.071,3.365Z" transform="translate(-874.244 -538.673)"/><path class="ak" d="M1042.142,595.736s3.711,9.6,49.208,9.6c20.994,0,24.9-11.174,24.9-11.174l-5.079-2.493-68.911-2.818Z" transform="translate(-888.589 -556.026)"/><path class="q" d="M1026.147,574.589h61.907a1.573,1.573,0,0,0,1.389-2.31l-.13-.245a14.429,14.429,0,0,0,3.355,2.555c1.662.8,13.668,6.218,13.668,6.218s-6.372,7.818-9,7.818h-28.074c-5.218,0-36.755-8.157-36.755-8.157a9.436,9.436,0,0,0-6.373-4.926,4.126,4.126,0,0,1-2.787-2.091A3.257,3.257,0,0,0,1026.147,574.589Z" transform="translate(-882.089 -550.209)"/><path class="ak" d="M1035.958,626.719l8.352-6.971a5.851,5.851,0,0,1,4.491-1.313,309.272,309.272,0,0,0,40.658,2.989,73.533,73.533,0,0,0,22.347-3.053c2.673-.859,3.7,4.438,3.7,4.438l-.185,3.908Z" transform="translate(-886.451 -566.199)"/><path class="y" d="M1113.392,631.179l-1.431,7.864a1.972,1.972,0,0,1-1.941,1.619h-79.628l.376-9.483Z" transform="translate(-884.526 -570.661)"/><path class="ao" d="M1117.024,631.179h0a2.711,2.711,0,0,1-2.711,2.712H1049.3a2.711,2.711,0,0,1-2.711-2.712h70.432Z" transform="translate(-890.128 -570.661)"/><path class="an" d="M1062.9,619.758s-10.133-1.237-11.172-1.352c-1.214-.136-4.922.111-5.735,5.878a1.576,1.576,0,0,0,1.537,1.7h0a1.549,1.549,0,0,0,.88-.2c.692-.408,2.594-1.227,6.863-1.353,4.842-.144,7.036-1.516,7.906-4.3A.306.306,0,0,0,1062.9,619.758Z" transform="translate(-889.916 -566.236)"/><path class="an" d="M1144.866,619.758s4.207-1.236,4.638-1.353c.5-.135,2.043.111,2.381,5.879.049.845-.247,1.645-.638,1.7h0a.382.382,0,0,1-.365-.2,3.605,3.605,0,0,0-2.849-1.354c-2.01-.143-2.92-1.516-3.281-4.3C1144.728,619.962,1144.785,619.781,1144.866,619.758Z" transform="translate(-924.069 -566.236)"/><path class="y" d="M1052.615,620.385a2.3,2.3,0,0,0-1.12.178,5.8,5.8,0,0,0-3.078,3.637c-.107.319.269.609.631.492a17.338,17.338,0,0,1,6.153-.881,12.961,12.961,0,0,0,4.573-.685,1.086,1.086,0,0,0-.272-2.1C1056.614,620.75,1052.615,620.385,1052.615,620.385Z" transform="translate(-890.753 -566.925)"/><path class="y" d="M1150.384,620.69a.451.451,0,0,1,.421.2,7.576,7.576,0,0,1,1.219,3.694c.046.321-.088.6-.226.48a3.187,3.187,0,0,0-2.315-1,2.4,2.4,0,0,1-1.859-.991,1.247,1.247,0,0,1,.75-1.994Z" transform="translate(-924.971 -567.032)"/><g transform="translate(182.691 36.848)"><path class="y" d="M1120.053,595h-31.008a2.442,2.442,0,0,0-2.168,3.417l.01.025c.432,1.009.867,1.991,1.149,2.56.76,1.522,3.163,6.464,12.483,6.464,1.984,0,4.67.047,8.06,0,9.319-.127,11.724-4.942,12.484-6.464.281-.568.717-1.551,1.148-2.56,0-.007.007-.018.011-.025A2.443,2.443,0,0,0,1120.053,595Z" transform="translate(-1086.682 -594.997)"/><path class="an" d="M1120.053,595h-31.008a2.442,2.442,0,0,0-2.168,3.417h12.82a4.623,4.623,0,0,1,3.117,1.252,4.9,4.9,0,0,0,7.241,0,4.62,4.62,0,0,1,3.117-1.252h9.048A2.443,2.443,0,0,0,1120.053,595Z" transform="translate(-1086.682 -594.997)"/><ellipse class="ap" cx="3.945" cy="2.863" rx="3.945" ry="2.863" transform="translate(15.996 0.554)"/></g><path class="an" d="M1125.241,632.655h-41.716a8.318,8.318,0,0,1,1.481-2.342c2.364-2.616,5.792-2.708,7.646-2.708h23.457c1.855,0,5.286.092,7.65,2.708A8.317,8.317,0,0,1,1125.241,632.655Z" transform="translate(-902.899 -569.425)"/><path class="an" d="M991.5,582.484l-3.293-.722a1.274,1.274,0,0,1-.969-1.182V580.3a.756.756,0,0,1,.969-.758l3.293.722a1.274,1.274,0,0,1,.97,1.182v.277A.756.756,0,0,1,991.5,582.484Z" transform="translate(-869.602 -552.798)"/><path class="an" d="M967.24,574.644l-3.293-.722a1.274,1.274,0,0,1-.97-1.182v-.277a.756.756,0,0,1,.97-.757l3.293.722a1.275,1.275,0,0,1,.97,1.182v.277A.756.756,0,0,1,967.24,574.644Z" transform="translate(-861.214 -550.088)"/><path class="y" d="M1001.373,548.225l-1.255,15.079-13.531-1.891,1.589-6.538,2.973-12.22,2.944-.243a6.688,6.688,0,0,1,6.324,3.557c.1.188.192.385.273.583Z" transform="translate(-869.379 -539.961)"/><path class="aq" d="M1000.547,544.91a.9.9,0,0,1-.551,1.461A4.628,4.628,0,0,0,997,547.545c-1.947,1.781-.724,3.122-2.67,4.9s-3.179.285-5.372,2.594c.785-3.325,3.008-12.384,3.008-12.384l2.944-.243A6.7,6.7,0,0,1,1000.547,544.91Z" transform="translate(-870.2 -539.961)"/><path class="y" d="M983.165,543.156l-.617,2.29-4.112,15.267-6.5-3.188-.169-.085,1.354-13.184a.321.321,0,0,1,.293-.287Z" transform="translate(-864.253 -540.223)"/><path class="y" d="M1063,589.96a2.934,2.934,0,0,1,.855,5.406c-1.068.62-2.107,1.221-2.976,1.719a4.03,4.03,0,0,1-2.759.458c-1.382-.258-3.225-.6-5.234-.968-2.808-.514-5.94-1.09-8.585-1.584-1.382-.262-2.722-.521-3.96-.772a13.114,13.114,0,0,1-3.4-9.305.461.461,0,0,1,.557-.436l5.338,1.112,4,.867C1051.045,587.374,1057.779,588.837,1063,589.96Z" transform="translate(-886.788 -554.508)"/><path class="aq" d="M1052.886,596.575c-2.808-.514-5.94-1.09-8.585-1.584-1.382-.262-2.722-.521-3.96-.772a13.114,13.114,0,0,1-3.4-9.305.461.461,0,0,1,.557-.436l5.338,1.112,1.4.3a3.372,3.372,0,0,1,2.594,2.921A8.861,8.861,0,0,0,1052.886,596.575Z" transform="translate(-886.788 -554.508)"/><path class="y" d="M1044.3,594.991c-1.382-.262-2.722-.521-3.96-.772a13.114,13.114,0,0,1-3.4-9.305.461.461,0,0,1,.557-.436l5.338,1.112-1.072.052a1.4,1.4,0,0,0-1.3,1.7l1.023,4.651a3.976,3.976,0,0,0,2.392,2.831Z" transform="translate(-886.788 -554.508)"/><path class="y" d="M1150.82,592.986l-.838.654L1147,595.956a2.153,2.153,0,0,1-2.925-.266l-1.061-1.186a3.6,3.6,0,0,1,.147-4.949c.5-.5,1.05-1.041,1.6-1.582.923-.9,1.862-1.806,2.637-2.53A11.077,11.077,0,0,1,1150.82,592.986Z" transform="translate(-923.155 -554.846)"/><path class="y" d="M1079.671,561.529H1025.85a10.539,10.539,0,0,1-9.774-6.6l-4.492-11.156a7.8,7.8,0,0,0-6.025-4.78l2.154-.011,51.564-.251s.033,0,.092-.007a11.965,11.965,0,0,1,8.448,3.38c4.917,4.632,10.542,13.165,13.081,17.2A1.45,1.45,0,0,1,1079.671,561.529Z" transform="translate(-875.939 -538.689)"/><path class="y" d="M969.187,624.589c0,2-.092,3.934-.266,5.777l-.57,0a.513.513,0,0,1-.509-.562c.153-1.66.234-3.409.234-5.212,0-11.042-3.029-19.988-6.771-19.988s-6.771,8.946-6.771,19.988a56.088,56.088,0,0,0,.281,5.688l-.555,0a.634.634,0,0,1-.629-.58c-.134-1.639-.2-3.35-.2-5.106,0-12.368,3.528-22.393,7.879-22.393S969.187,612.221,969.187,624.589Z" transform="translate(-857.911 -560.639)"/><path class="y" d="M969.317,545.609l-1.286,12.319-3.636-1.785a.876.876,0,0,1-.384-1.2l5.1-9.4A.112.112,0,0,1,969.317,545.609Z" transform="translate(-861.535 -541.029)"/><path class="y" d="M1013.638,567.862l-4.765-.665,1.13-13.816,5.135,12.552A1.41,1.41,0,0,1,1013.638,567.862Z" transform="translate(-877.085 -543.759)"/><path class="y" d="M954.326,641.112l-.695,0a.479.479,0,0,1-.107-.011.519.519,0,0,1-.2-.074.631.631,0,0,1-.081-.063.57.57,0,0,1-.2-.362l-1.038-7.067h2.065l-.021.861c0,.34-.008.684-.008,1.03,0,.362,0,.72.011,1.076,0,.251.008.5.018.746,0,.126.008.247.011.373l.011.244c.008.222.019.444.03.665,0,.074.007.145.011.218.018.3.037.587.059.875v.014C954.233,640.134,954.277,640.628,954.326,641.112Z" transform="translate(-857.422 -571.475)"/><path class="y" d="M1022.571,624.589a58.926,58.926,0,0,1-.3,6h-.221a.848.848,0,0,1-.837-.929c.145-1.618.223-3.314.223-5.065,0-11.042-3.092-19.988-6.9-19.988-3.591,0-6.546,7.942-6.871,18.1-.022.62-.033,1.252-.033,1.891a56.094,56.094,0,0,0,.307,5.906h0l-1.149-.008a58.292,58.292,0,0,1-.288-5.9c0-12.368,3.6-22.393,8.034-22.393S1022.571,612.221,1022.571,624.589Z" transform="translate(-876.265 -560.639)"/><path class="am" d="M1025.35,612.512a33.419,33.419,0,0,1,2.331,10.04A34.86,34.86,0,0,0,1025.35,612.512Z" transform="translate(-882.783 -564.206)"/><path class="y" d="M997.2,644.422l-1.149-.007-5.345-.033-10.277-.063-3.893-.026-.558,0a.525.525,0,0,1-.521-.576q.056-.614.1-1.241h21.472C997.079,643.137,997.138,643.787,997.2,644.422Z" transform="translate(-865.531 -574.566)"/><path class="an" d="M1010.512,569.586l-1.113-5.12a2.4,2.4,0,0,0-2.892-1.827l-4.639,1.086a2.662,2.662,0,0,0-2,2.07l-.426,2.13a1.967,1.967,0,0,0,1.793,2.348l3.655.254a1.346,1.346,0,0,1,1.108.735Z" transform="translate(-873.809 -546.938)"/><path class="y" d="M1013.99,573.316l-4.579,1.639,1.52,2.856a1.581,1.581,0,0,0,2.715.128l.62-.939a1.669,1.669,0,0,0,.239-1.266Z" transform="translate(-877.271 -550.652)"/><path class="aq" d="M1148.591,595.51a.228.228,0,0,1,.187.4l-1.774,1.38a2.153,2.153,0,0,1-2.925-.266l-1.06-1.185a3.6,3.6,0,0,1,.146-4.95c.5-.5,1.049-1.041,1.6-1.581,0,0-2.327,3.373.39,5.505A3.957,3.957,0,0,0,1148.591,595.51Z" transform="translate(-923.155 -556.183)"/><g transform="translate(117.555 46.96)"><g class="ar"><g transform="translate(9.473 0.508)"><path class="y" d="M1029.943,611.23c7.1,0,12.863,7.9,12.863,17.639s-5.759,17.639-12.863,17.639H1020.7V611.23Z" transform="translate(-1008.204 -611.23)"/><g transform="translate(20.155)"><g class="as"><g transform="translate(1.426 -1.554)"><line class="aa" y1="3.079" x2="15.988"/><line class="aa" y1="3.079" x2="15.988" transform="translate(0 2.573)"/><line class="aa" y1="3.079" x2="15.988" transform="translate(0 5.145)"/><line class="aa" y1="3.079" x2="15.988" transform="translate(0 7.718)"/><line class="aa" y1="3.079" x2="15.988" transform="translate(0 10.291)"/><line class="aa" y1="3.079" x2="15.988" transform="translate(0 12.863)"/><line class="aa" y1="3.079" x2="15.988" transform="translate(0 15.436)"/><line class="aa" y1="3.079" x2="15.988" transform="translate(0 18.009)"/><line class="aa" y1="3.079" x2="15.988" transform="translate(0 20.581)"/><line class="aa" y1="3.079" x2="15.988" transform="translate(0 23.154)"/><line class="aa" y1="3.079" x2="15.988" transform="translate(0 25.727)"/><line class="aa" y1="3.079" x2="15.988" transform="translate(0 28.299)"/><line class="aa" y1="3.079" x2="15.988" transform="translate(0 30.872)"/><line class="aa" y1="3.079" x2="15.988" transform="translate(0 33.445)"/></g></g></g><g transform="translate(12.501)"><g class="at"><g transform="translate(0.005 -0.338)"><line class="aa" x1="16.264" y1="3.088"/><line class="aa" x1="16.264" y1="3.088" transform="translate(0 2.642)"/><line class="aa" x1="16.264" y1="3.088" transform="translate(0 5.285)"/><line class="aa" x1="16.264" y1="3.088" transform="translate(0 7.927)"/><line class="aa" x1="16.264" y1="3.088" transform="translate(0 10.57)"/><line class="aa" x1="16.264" y1="3.088" transform="translate(0 13.212)"/><line class="aa" x1="16.264" y1="3.088" transform="translate(0 15.855)"/><line class="aa" x1="16.264" y1="3.088" transform="translate(0 18.497)"/><line class="aa" x1="16.264" y1="3.088" transform="translate(0 21.14)"/><line class="aa" x1="16.264" y1="3.088" transform="translate(0 23.782)"/><line class="aa" x1="16.264" y1="3.088" transform="translate(0 26.425)"/><line class="aa" x1="16.264" y1="3.088" transform="translate(0 29.067)"/><line class="aa" x1="16.264" y1="3.088" transform="translate(0 31.709)"/><line class="aa" x1="16.264" y1="3.088" transform="translate(0 34.352)"/></g></g></g><ellipse class="y" cx="12.863" cy="17.639" rx="12.863" ry="17.639" transform="translate(0 0)"/><path class="y" d="M1028.27,611.23c7.1,0,12.863,7.849,12.863,17.531s-5.759,17.531-12.863,17.531h1.763c7.1,0,12.863-7.849,12.863-17.531s-5.759-17.531-12.863-17.531Z" transform="translate(-1010.82 -611.23)"/><g transform="translate(17.45)"><g class="au"><g transform="translate(0.959 0.372)"><line class="aa" x1="16.264" y1="3.088"/><line class="aa" x1="16.264" y1="3.088" transform="translate(0.136 2.549)"/><line class="aa" x1="16.264" y1="3.088" transform="translate(0.273 5.098)"/><line class="aa" x1="16.264" y1="3.088" transform="translate(0.41 7.647)"/><line class="aa" x1="16.264" y1="3.088" transform="translate(0.546 10.195)"/><line class="aa" x1="16.264" y1="3.088" transform="translate(0.682 12.744)"/><line class="aa" x1="16.264" y1="3.088" transform="translate(0.819 15.293)"/><line class="aa" x1="16.264" y1="3.088" transform="translate(0.955 17.842)"/><line class="aa" x1="16.264" y1="3.088" transform="translate(1.092 20.391)"/><line class="aa" x1="16.264" y1="3.088" transform="translate(1.228 22.94)"/><line class="aa" x1="16.264" y1="3.088" transform="translate(1.365 25.489)"/><line class="aa" x1="16.264" y1="3.088" transform="translate(1.501 28.038)"/><line class="aa" x1="16.264" y1="3.088" transform="translate(1.638 30.586)"/><line class="aa" x1="16.264" y1="3.088" transform="translate(1.774 33.135)"/></g></g></g><path class="y" d="M1025.574,611.23c7.1,0,12.863,7.849,12.863,17.531s-5.759,17.531-12.863,17.531h1.763c7.1,0,12.863-7.849,12.863-17.531s-5.759-17.531-12.863-17.531Z" transform="translate(-1009.888 -611.23)"/><g transform="translate(15.686)"><g class="av"><g transform="translate(-0.815 -2.061)"><line class="aa" y1="3.088" x2="16.264" transform="translate(5.323)"/><line class="aa" y1="3.088" x2="16.264" transform="translate(4.914 2.642)"/><line class="aa" y1="3.088" x2="16.264" transform="translate(4.504 5.285)"/><line class="aa" y1="3.088" x2="16.264" transform="translate(4.095 7.927)"/><line class="aa" y1="3.088" x2="16.264" transform="translate(3.685 10.57)"/><line class="aa" y1="3.088" x2="16.264" transform="translate(3.276 13.212)"/><line class="aa" y1="3.088" x2="16.264" transform="translate(2.866 15.855)"/><line class="aa" y1="3.088" x2="16.264" transform="translate(2.457 18.497)"/><line class="aa" y1="3.088" x2="16.264" transform="translate(2.047 21.14)"/><line class="aa" y1="3.088" x2="16.264" transform="translate(1.638 23.782)"/><line class="aa" y1="3.088" x2="16.264" transform="translate(1.228 26.425)"/><line class="aa" y1="3.088" x2="16.264" transform="translate(0.819 29.067)"/><line class="aa" y1="3.088" x2="16.264" transform="translate(0.41 31.709)"/><line class="aa" y1="3.088" x2="16.264" transform="translate(0 34.352)"/></g></g></g><g transform="translate(3.43 4.37)"><path class="ad" d="M1006.839,631.149a16.525,16.525,0,0,0,3.069,10.007,9.7,9.7,0,0,0,1.352,1.433,6.784,6.784,0,0,0,4.468,1.8,6.876,6.876,0,0,0,4.7-2h0a10.418,10.418,0,0,0,1.409-1.622,16.78,16.78,0,0,0,2.78-9.612,19.218,19.218,0,0,0-.233-3.011,17.954,17.954,0,0,0-.482-2.2c-1.232-4.281-3.937-7.4-7.164-7.945a6.124,6.124,0,0,0-1.012-.085c-.2,0-.4.011-.6.029-3.289.325-6.087,3.318-7.435,7.536a17.428,17.428,0,0,0-.536,2.154A19.271,19.271,0,0,0,1006.839,631.149Z" transform="translate(-1006.839 -617.91)"/><g transform="translate(1.055 1.598)"><path class="y" d="M1014.407,649.436a5.981,5.981,0,0,0,3.938,1.582,6.058,6.058,0,0,0,4.141-1.764l-3.574-7.306a.437.437,0,0,0-.841,0Z" transform="translate(-1010.511 -627.71)"/><path class="y" d="M1021.79,620.427l.041,8.845c0,.519.34.888.674.735l5.6-2.577C1027.018,623.657,1024.635,620.909,1021.79,620.427Z" transform="translate(-1013.064 -620.378)"/><path class="y" d="M1023.276,638.05l3.487,7.168a14.79,14.79,0,0,0,2.451-8.472,16.952,16.952,0,0,0-.205-2.653l-5.478,2.769A.955.955,0,0,0,1023.276,638.05Z" transform="translate(-1013.543 -625.104)"/><path class="y" d="M1008.451,636.509a14.565,14.565,0,0,0,2.7,8.82l3.736-7.691a.957.957,0,0,0-.252-1.186l-5.906-3.045A17,17,0,0,0,1008.451,636.509Z" transform="translate(-1008.451 -624.866)"/><path class="y" d="M1009.6,626.994l5.839,2.747c.334.158.675-.212.677-.734l.037-8.655C1013.258,620.638,1010.792,623.276,1009.6,626.994Z" transform="translate(-1008.85 -620.352)"/></g></g></g></g></g><path class="an" d="M1070.686,544.3l-3.257.7a1.358,1.358,0,0,0-1.081,1l-.206.858a1.211,1.211,0,0,1-1.261.886h-7.757a2.52,2.52,0,0,1-1.816-.886l-.945-1.078a3.07,3.07,0,0,0-1.792-1.021l-3.109-.488c4.195-.146,8.079-.174,10.458-.174.51,0,.949,0,1.312,0s-2.159,0-1.645,0C1062.065,544.108,1066.194,544.14,1070.686,544.3Z" transform="translate(-891.12 -540.552)"/><path class="q" d="M1068.328,542.43h-60.647c-.048-.085-.1-.167-.152-.248-1.681-2.63-4.839-3.121-6.11-3.213v-.022l58.719-.273a11.3,11.3,0,0,1,7.956,3.509C1068.158,542.245,1068.236,542.33,1068.328,542.43Z" transform="translate(-874.508 -538.673)"/><ellipse class="ak" cx="2.863" cy="2.863" rx="2.863" ry="2.863" transform="translate(159.833 34.127)"/><ellipse class="ap" cx="1.626" cy="1.626" rx="1.626" ry="1.626" transform="translate(168.326 36.792)"/><g transform="translate(223.201 32.762)"><path class="ak" d="M1148.6,591.614a2.864,2.864,0,0,0,4.46,2.377,11.844,11.844,0,0,0-1.606-5.239A2.862,2.862,0,0,0,1148.6,591.614Z" transform="translate(-1148.603 -588.752)"/></g><ellipse class="ap" cx="1.626" cy="1.626" rx="1.626" ry="1.626" transform="translate(221.575 35.569)"/><path class="y" d="M1132.927,645.644v2.049l-16.609,4.206-2.325-6.31Z" transform="translate(-913.435 -575.644)"/></g><path class="al" d="M959.151,591.712l.926-5.006A1.36,1.36,0,0,0,958.7,585.1l-1.307-.058a1.925,1.925,0,0,0-1.957,1.464l-.926,5.005a1.361,1.361,0,0,0,1.375,1.609l1.307.057A1.925,1.925,0,0,0,959.151,591.712Z" transform="translate(-858.278 -554.706)"/><path class="aw" d="M893.678,572.192s4.307,1.375,5.342,10.107-1.113,42.493,17.377,42.493c13.843,0,18.2-10.578,19.018-37.653" transform="translate(-837.251 -550.264)"/><rect class="y" width="4.746" height="5.928" transform="translate(57.501 25.266) rotate(-180)"/><path class="q" d="M833.324,559.935a56.089,56.089,0,0,1,37.9,0v56.908l-18.95.216-18.95-.216V559.935Z" transform="translate(-816.382 -544.885)"/><path class="ak" d="M886.913,626.3h2.841V582.215h0a5.632,5.632,0,0,0-2.841,4.892Z" transform="translate(-834.912 -553.73)"/><path class="ak" d="M836.211,626.3H833.37V582.215h0a5.632,5.632,0,0,1,2.841,4.892Z" transform="translate(-816.397 -553.73)"/><path class="ax" d="M858.463,605.338l-2.43,1.322,9.232,9.21-2.43-9.21,2.43-1.322-9.232-9.21Z" transform="translate(-824.234 -558.541)"/><path class="y" d="M827.745,659.032h45.2l-.648-10.367h-43.9Z" transform="translate(-814.452 -576.708)"/><rect class="ax" width="17.65" height="2.353" rx="1.177" transform="translate(27.131 21.087)"/><path class="q" d="M958.8,591.091l1.014-4.966a1.707,1.707,0,0,0-1.314-1.76l-2.188-.5c-.874-.287-1.7.037-1.852.723l-1.014,4.966a1.706,1.706,0,0,0,1.314,1.759l2.188.5C957.825,592.1,958.654,591.776,958.8,591.091Z" transform="translate(-857.911 -554.264)"/></g></g></svg>