<svg xmlns="http://www.w3.org/2000/svg" xmlns:xlink="http://www.w3.org/1999/xlink" width="405" height="166" viewBox="0 0 405 166"><defs><style>.a,.an,.p{fill:none;}.b{fill:url(#a);}.c{fill:#006a91;}.d{opacity:0.5;}.e{fill:#01acec;}.f{fill:#0f3a4a;}.g{fill:#0a9885;}.h{fill:#0b6080;}.i{fill:#0686b6;}.j{fill:#141414;}.k{fill:#06c4ab;}.l{fill:#10403a;}.m{opacity:0.2;}.n{fill:#151515;}.o{clip-path:url(#b);}.ac,.p{stroke:#282827;stroke-width:0.341px;}.ac,.an,.p{stroke-miterlimit:10;}.q{clip-path:url(#c);}.r{clip-path:url(#d);}.s{fill:#7e7e7e;}.t{clip-path:url(#e);}.u{clip-path:url(#f);}.v{clip-path:url(#g);}.w{clip-path:url(#h);}.x{fill:#3b3b3b;}.y{fill:#b1b1b1;}.ac,.ag,.z{fill:#fff;}.aa{fill:#d1d3d4;}.ab{fill:#11403a;}.ad{fill:#939598;}.ae{fill:#d2d3d5;}.af{fill:#d4d6eb;}.ag{opacity:0.1;}.ah{clip-path:url(#i);}.ai{clip-path:url(#j);}.aj{clip-path:url(#k);}.ak{clip-path:url(#l);}.al{clip-path:url(#m);}.am{fill:#b2b3b3;}.an{stroke:#b2b3b3;stroke-linecap:round;stroke-width:1.869px;}.ao{fill:#099784;}</style><linearGradient id="a" x1="0.5" x2="0.5" y2="1" gradientUnits="objectBoundingBox"><stop offset="0" stop-color="#0098D1"/><stop offset="1" stop-color="#fff"/></linearGradient><clipPath id="b"><path class="a" d="M975.53,611.23c3.247,0,5.88,7.9,5.88,17.639s-2.633,17.639-5.88,17.639H965.19V611.23Z" transform="translate(-965.19 -611.23)"/></clipPath><clipPath id="c"><path class="a" d="M973.2,611.23c3.247,0,5.879,7.9,5.879,17.639s-2.633,17.639-5.879,17.639h2.128c3.248,0,5.88-7.9,5.88-17.639s-2.632-17.639-5.88-17.639Z" transform="translate(-973.197 -611.23)"/></clipPath><clipPath id="d"><path class="a" d="M969.943,611.23c3.247,0,5.879,7.9,5.879,17.639s-2.633,17.639-5.879,17.639h2.128c3.247,0,5.88-7.9,5.88-17.639s-2.633-17.639-5.88-17.639Z" transform="translate(-969.943 -611.23)"/></clipPath><clipPath id="e"><path class="a" d="M1142.212,611.23c7.1,0,12.863,7.9,12.863,17.639,0,9.642-5.642,17.478-12.646,17.636-.072,0-1.728,0-1.8,0,0,0,12.1-3.787,12.1-18.039C1152.725,615.078,1142.212,611.23,1142.212,611.23Z" transform="translate(-1140.628 -611.23)"/></clipPath><clipPath id="f"><path class="a" d="M1132.378,611.23c7.1,0,12.863,7.9,12.863,17.639s-5.759,17.639-12.863,17.639h-3.45V611.23Z" transform="translate(-1128.928 -611.23)"/></clipPath><clipPath id="g"><path class="a" d="M1136.493,611.23c7.1,0,12.863,7.9,12.863,17.639s-5.759,17.639-12.863,17.639h1.762c7.1,0,12.863-7.9,12.863-17.639s-5.759-17.639-12.863-17.639Z" transform="translate(-1136.493 -611.23)"/></clipPath><clipPath id="h"><path class="a" d="M1133.8,611.23c7.1,0,12.863,7.9,12.863,17.639s-5.759,17.639-12.863,17.639h1.763c7.1,0,12.863-7.9,12.863-17.639s-5.759-17.639-12.863-17.639Z" transform="translate(-1133.797 -611.23)"/></clipPath><clipPath id="i"><path class="a" d="M1005.339,649.133l25.119,1.478,3.255-17.115-18-.031a1.342,1.342,0,0,1-1.185-1.447c.336-3.792,1.017-14.612-3.094-21.563-17.238,1.108-24.318,15.653-24.318,15.653Z" transform="translate(-987.116 -610.454)"/></clipPath><clipPath id="j"><path class="a" d="M1033.989,611.23c7.1,0,12.863,7.9,12.863,17.639,0,9.642-5.642,17.478-12.647,17.636-.072,0-1.728,0-1.8,0,0,0,12.1-3.787,12.1-18.039C1044.5,615.078,1033.989,611.23,1033.989,611.23Z" transform="translate(-1032.405 -611.23)"/></clipPath><clipPath id="k"><path class="a" d="M1024.155,611.23c7.1,0,12.863,7.9,12.863,17.639s-5.759,17.639-12.863,17.639h-3.45V611.23Z" transform="translate(-1020.705 -611.23)"/></clipPath><clipPath id="l"><path class="a" d="M1028.27,611.23c7.1,0,12.863,7.9,12.863,17.639s-5.759,17.639-12.863,17.639h1.762c7.1,0,12.863-7.9,12.863-17.639s-5.759-17.639-12.863-17.639Z" transform="translate(-1028.27 -611.23)"/></clipPath><clipPath id="m"><path class="a" d="M1025.574,611.23c7.1,0,12.863,7.9,12.863,17.639s-5.759,17.639-12.863,17.639h1.763c7.1,0,12.863-7.9,12.863-17.639s-5.759-17.639-12.863-17.639Z" transform="translate(-1025.574 -611.23)"/></clipPath></defs><g transform="translate(-1467 -1540)"><g transform="translate(-507)"><g transform="translate(1974 1540)"><path class="b" d="M0,0H405V146.485H0Z"/><path class="c" d="M405,111.067H0V166H405Z"/><g class="d" transform="translate(42)"><path class="e" d="M167.7,55.132l135.058.511.261-1.149L235.1,14.533,167.175,54.494Z"/><path class="f" d="M298.174,111.308H167.566v5.235H298.174Z"/><path class="g" d="M95.981,26.151H64.834l-54.7,32.684H41.147Z"/><path class="h" d="M50.308,62.154H20.731v49.154H50.308Z"/><path class="e" d="M152.517,62.154H48.606v49.154H152.517Z"/><path class="i" d="M278.544,62.154H152.386v49.154H278.544Z"/><path class="h" d="M227.505,73.9h-2.879v27.45h2.879Z"/><path class="g" d="M264.018,73.9H225.411v27.45h38.607Z"/><path class="j" d="M261.793,76.07H227.636V99.306h34.157Z"/><path class="g" d="M227.561,87.087v1.149h34.157V87.087Z"/><path class="g" d="M250.725,87.084H251.9V75.976h-1.177Z"/><path class="g" d="M238.751,87.084h1.178V75.976h-1.178Z"/><path class="h" d="M278.544,101.478H152.386v9.83H278.544Z"/><path class="h" d="M186.02,70.708h-2.094v40.6h2.094Z"/><path class="g" d="M203.556,70.708H184.58v40.6h18.976Z"/><path class="k" d="M201.986,72.368H186.15v38.94h15.836Z"/><path class="j" d="M200.284,74.156H187.852V84.242h12.432Z"/><path class="k" d="M194.656,74.156h-1.047V84.242h1.047Z"/><path class="i" d="M301.053,62.154H294.9v54.389h6.151Z"/><path class="i" d="M234.834,62.154h-6.15v54.389h6.15Z"/><path class="i" d="M171.624,62.154h-6.151v54.389h6.151Z"/><path class="i" d="M58.944,73.517H56.72V111.18h2.225Z"/><path class="g" d="M143.487,73.517H57.506V111.18h85.981Z"/><path class="k" d="M141.131,76.071H59.861v35.237h81.27Z"/><path class="j" d="M79.753,78.113H64.572v4.979H79.753Z"/><path class="j" d="M98.991,78.113H83.811v4.979H98.991Z"/><path class="j" d="M118.1,78.113H102.918v4.979H118.1Z"/><path class="j" d="M137.205,78.113H122.024v4.979h15.181Z"/><path class="l" d="M39.969,58.835H10v3.319H39.969Z"/><path class="h" d="M152.386,58.835H38.4v3.319H152.386Z"/><path class="k" d="M207.22,26.151H93.233L38.4,58.834H152.386Z"/><path class="e" d="M297,98.158H236.8v18.257H297Z"/><path class="g" d="M161.809,54.877l67.659-39.706L235.226,7,213.5,7.128,137.729,51.685v3.064Z"/><path class="h" d="M167.436,54.877h-15.05v7.277h15.05Z"/><path class="l" d="M167.436,51.685H137.729v3.192h29.707Z"/><path class="k" d="M167.436,54.878l67.791-39.706V7.129L159.453,51.686v3.192Z"/><path class="k" d="M303.017,54.878l-67.79-39.706V7.129L311,51.686V54.75Z"/><path class="h" d="M239.545,32.151H226.327V50.664h13.218Z"/><path class="k" d="M240.2,32.151H226.981V50.664H240.2Z"/><path class="j" d="M238.761,33.684h-10.47V49.259h10.47Z"/><path class="k" d="M234.572,33.684h-1.963V49.259h1.963Z"/><path class="f" d="M181.571,73.773h-1.963L178.3,78.879h4.449Z"/><path class="e" d="M303.017,62.154h-6.151v54.389h6.151Z"/><path class="e" d="M236.8,62.154h-6.151v54.389H236.8Z"/><path class="e" d="M173.586,62.154h-6.15v54.389h6.15Z"/><path class="e" d="M303.016,54.877H167.436v7.277h135.58Z"/></g></g></g><g transform="translate(-903 77)"><g transform="translate(2455.122 1516)"><g transform="translate(69.193 0)"><rect class="m" width="145.843" height="3.373" rx="1.687" transform="translate(0 80.874)"/><rect width="22.418" height="28.343" transform="translate(3.924 41.311)"/><g transform="translate(59.203 45.406)"><path class="n" d="M1058.556,610.4c3.247,0,5.879,7.9,5.879,17.639s-2.632,17.639-5.879,17.639h-10.34V610.4Z" transform="translate(-1042.336 -608.883)"/><g transform="translate(7.535 0.507)"><g transform="translate(0 1.217)"><line class="n" x1="7.434" y1="3.088"/></g><g transform="translate(7.265)"><line class="n" y1="3.088" x2="7.333" transform="translate(0)"/><line class="n" y1="2.851" x2="6.768" transform="translate(0 2.818)"/><line class="n" y1="2.613" x2="6.204" transform="translate(0 5.635)"/><line class="n" y1="2.375" x2="5.64" transform="translate(0 8.453)"/><line class="n" y1="2.138" x2="5.076" transform="translate(0 11.27)"/><line class="n" y1="1.9" x2="4.512" transform="translate(0 14.088)"/><line class="n" y1="1.663" x2="3.948" transform="translate(0 16.906)"/><line class="n" y1="1.425" x2="3.384" transform="translate(0 19.723)"/><line class="n" y1="1.188" x2="2.82" transform="translate(0 22.541)"/><line class="n" y1="0.95" x2="2.256" transform="translate(0 25.358)"/><line class="n" y1="0.713" x2="1.692" transform="translate(0 28.176)"/><line class="n" y1="0.475" x2="1.128" transform="translate(0 30.994)"/><line class="n" y1="0.238" x2="0.564" transform="translate(0 33.811)"/><path class="n" d="M1061.851,664.844" transform="translate(-1061.851 -628.215)"/></g></g><ellipse class="n" cx="5.88" cy="17.639" rx="5.88" ry="17.639" transform="translate(0 1.521)"/><path class="n" d="M1056.222,610.686c3.247,0,5.879,7.815,5.879,17.454s-2.632,17.454-5.879,17.454h2.129c3.247,0,5.879-7.815,5.879-17.454s-2.633-17.454-5.879-17.454Z" transform="translate(-1045.104 -608.981)"/><g transform="translate(11.556 2.433)"><line class="n" x1="7.434" y1="3.088"/></g><path class="n" d="M1052.968,610.686c3.248,0,5.879,7.815,5.879,17.454s-2.632,17.454-5.879,17.454h2.129c3.247,0,5.879-7.815,5.879-17.454s-2.632-17.454-5.879-17.454Z" transform="translate(-1043.979 -608.981)"/><g transform="translate(11.05)"><line class="n" y1="3.088" x2="7.434"/></g><g transform="translate(1.568 6.431)"><path class="n" d="M1041.625,631.149a31.67,31.67,0,0,0,1.4,10.007,10.52,10.52,0,0,0,.618,1.433c.6,1.142,1.3,1.8,2.042,1.8.789,0,1.524-.731,2.148-2h0a12.1,12.1,0,0,0,.645-1.622,32.63,32.63,0,0,0,1.271-9.612c0-1.034-.037-2.043-.107-3.011-.054-.761-.128-1.492-.22-2.2-.564-4.281-1.8-7.4-3.275-7.945a1.338,1.338,0,0,0-.463-.085,1.382,1.382,0,0,0-.273.029c-1.5.325-2.782,3.318-3.4,7.536-.1.687-.182,1.407-.245,2.154C1041.676,628.752,1041.625,629.93,1041.625,631.149Z" transform="translate(-1041.625 -617.91)"/><g transform="translate(0.481 1.598)"><path class="n" d="M1045.084,649.436c.529,1.006,1.144,1.582,1.8,1.582.7,0,1.343-.644,1.893-1.764l-1.634-7.306c-.095-.425-.289-.425-.385,0Z" transform="translate(-1043.303 -627.71)"/><path class="n" d="M1048.458,620.427l.019,8.845c0,.519.156.888.308.735l2.559-2.577C1050.848,623.657,1049.759,620.909,1048.458,620.427Z" transform="translate(-1044.469 -620.378)"/><path class="n" d="M1049.137,638.05l1.594,7.168a28.776,28.776,0,0,0,1.12-8.472c0-.911-.032-1.8-.094-2.653l-2.5,2.769A1.784,1.784,0,0,0,1049.137,638.05Z" transform="translate(-1044.688 -625.104)"/><path class="n" d="M1042.361,636.509a27.918,27.918,0,0,0,1.236,8.82l1.708-7.691a1.789,1.789,0,0,0-.115-1.186l-2.7-3.045C1042.406,634.4,1042.361,635.435,1042.361,636.509Z" transform="translate(-1042.361 -624.866)"/><path class="n" d="M1042.888,626.994l2.669,2.747c.152.158.308-.212.309-.734l.017-8.655C1044.558,620.638,1043.431,623.276,1042.888,626.994Z" transform="translate(-1042.543 -620.352)"/></g></g></g><g transform="translate(4.887 47.467)"><path class="n" d="M975.53,611.23c3.247,0,5.88,7.9,5.88,17.639s-2.633,17.639-5.88,17.639H965.19V611.23Z" transform="translate(-959.31 -611.23)"/><g transform="translate(5.88)"><g class="o"><g transform="translate(1.656 -1.554)"><g transform="translate(0 1.217)"><line class="p" x1="7.434" y1="3.088"/><line class="p" x1="7.434" y1="3.088" transform="translate(0 2.642)"/><line class="p" x1="7.434" y1="3.088" transform="translate(0 5.285)"/><line class="p" x1="7.434" y1="3.088" transform="translate(0 7.927)"/><line class="p" x1="7.434" y1="3.088" transform="translate(0 10.57)"/><line class="p" x1="7.434" y1="3.088" transform="translate(0 13.212)"/><line class="p" x1="7.434" y1="3.088" transform="translate(0 15.855)"/><line class="p" x1="7.434" y1="3.088" transform="translate(0 18.497)"/><line class="p" x1="7.434" y1="3.088" transform="translate(0 21.14)"/><line class="p" x1="7.434" y1="3.088" transform="translate(0 23.782)"/><line class="p" x1="7.434" y1="3.088" transform="translate(0 26.425)"/><line class="p" x1="7.434" y1="3.088" transform="translate(0 29.067)"/><line class="p" x1="7.434" y1="3.088" transform="translate(0 31.709)"/><line class="p" x1="7.434" y1="3.088" transform="translate(0 34.352)"/></g><g transform="translate(7.265)"><line class="p" y1="3.088" x2="7.333"/><line class="p" y1="3.088" x2="7.333" transform="translate(0 2.58)"/><line class="p" y1="3.088" x2="7.333" transform="translate(0 5.16)"/><line class="p" y1="3.088" x2="7.333" transform="translate(0 7.74)"/><line class="p" y1="3.088" x2="7.333" transform="translate(0 10.32)"/><line class="p" y1="3.088" x2="7.333" transform="translate(0 12.9)"/><line class="p" y1="3.088" x2="7.333" transform="translate(0 15.48)"/><line class="p" y1="3.088" x2="7.333" transform="translate(0 18.06)"/><line class="p" y1="3.088" x2="7.333" transform="translate(0 20.64)"/><line class="p" y1="3.088" x2="7.333" transform="translate(0 23.221)"/><line class="p" y1="3.088" x2="7.333" transform="translate(0 25.801)"/><line class="p" y1="3.088" x2="7.333" transform="translate(0 28.381)"/><line class="p" y1="3.088" x2="7.333" transform="translate(0 30.961)"/><line class="p" y1="3.088" x2="7.333" transform="translate(0 33.541)"/></g></g></g></g><ellipse class="n" cx="5.88" cy="17.639" rx="5.88" ry="17.639" transform="translate(0 0)"/><path class="n" d="M973.2,611.513c3.247,0,5.879,7.814,5.879,17.454s-2.633,17.454-5.879,17.454h2.128c3.248,0,5.88-7.815,5.88-17.454s-2.632-17.454-5.88-17.454Z" transform="translate(-962.079 -611.328)"/><g transform="translate(11.118)"><g class="q"><g transform="translate(0.438 0.372)"><line class="p" x1="7.434" y1="3.088"/><line class="p" x1="7.434" y1="3.088" transform="translate(0.062 2.549)"/><line class="p" x1="7.434" y1="3.088" transform="translate(0.125 5.098)"/><line class="p" x1="7.434" y1="3.088" transform="translate(0.187 7.647)"/><line class="p" x1="7.434" y1="3.088" transform="translate(0.25 10.195)"/><line class="p" x1="7.434" y1="3.088" transform="translate(0.312 12.744)"/><line class="p" x1="7.434" y1="3.088" transform="translate(0.374 15.293)"/><line class="p" x1="7.434" y1="3.088" transform="translate(0.437 17.842)"/><line class="p" x1="7.434" y1="3.088" transform="translate(0.499 20.391)"/><line class="p" x1="7.434" y1="3.088" transform="translate(0.561 22.94)"/><line class="p" x1="7.434" y1="3.088" transform="translate(0.624 25.489)"/><line class="p" x1="7.434" y1="3.088" transform="translate(0.686 28.038)"/><line class="p" x1="7.434" y1="3.088" transform="translate(0.749 30.586)"/><line class="p" x1="7.434" y1="3.088" transform="translate(0.811 33.135)"/></g></g></g><path class="n" d="M969.943,611.513c3.247,0,5.879,7.814,5.879,17.454s-2.633,17.454-5.879,17.454h2.128c3.247,0,5.88-7.815,5.88-17.454s-2.633-17.454-5.88-17.454Z" transform="translate(-960.954 -611.328)"/><g transform="translate(8.989)"><g class="r"><g transform="translate(-0.373 -2.061)"><line class="p" y1="3.088" x2="7.434" transform="translate(2.433)"/><line class="p" y1="3.088" x2="7.434" transform="translate(2.246 2.642)"/><line class="p" y1="3.088" x2="7.434" transform="translate(2.059 5.285)"/><line class="p" y1="3.088" x2="7.434" transform="translate(1.872 7.927)"/><line class="p" y1="3.088" x2="7.434" transform="translate(1.685 10.57)"/><line class="p" y1="3.088" x2="7.434" transform="translate(1.497 13.212)"/><line class="p" y1="3.088" x2="7.434" transform="translate(1.31 15.855)"/><line class="p" y1="3.088" x2="7.434" transform="translate(1.123 18.497)"/><line class="p" y1="3.088" x2="7.434" transform="translate(0.936 21.14)"/><line class="p" y1="3.088" x2="7.434" transform="translate(0.749 23.782)"/><line class="p" y1="3.088" x2="7.434" transform="translate(0.561 26.425)"/><line class="p" y1="3.088" x2="7.434" transform="translate(0.374 29.067)"/><line class="p" y1="3.088" x2="7.434" transform="translate(0.187 31.709)"/><line class="p" y1="3.088" x2="7.434" transform="translate(0 34.352)"/></g></g></g><g transform="translate(1.568 4.37)"><path class="s" d="M958.6,631.149a31.674,31.674,0,0,0,1.4,10.007,10.525,10.525,0,0,0,.618,1.433c.6,1.142,1.3,1.8,2.042,1.8.79,0,1.524-.731,2.148-2h0a12.06,12.06,0,0,0,.644-1.622,32.632,32.632,0,0,0,1.271-9.612c0-1.034-.036-2.043-.107-3.011-.053-.761-.128-1.492-.22-2.2-.563-4.281-1.8-7.4-3.274-7.945a1.342,1.342,0,0,0-.463-.085,1.375,1.375,0,0,0-.273.029c-1.5.325-2.783,3.318-3.4,7.536-.1.687-.182,1.407-.245,2.154C958.65,628.752,958.6,629.93,958.6,631.149Z" transform="translate(-958.599 -617.91)"/><g transform="translate(0.482 1.598)"><path class="n" d="M962.058,649.436c.529,1.006,1.144,1.582,1.8,1.582.7,0,1.343-.644,1.893-1.764l-1.634-7.306c-.095-.425-.29-.425-.385,0Z" transform="translate(-960.277 -627.71)"/><path class="n" d="M965.433,620.427l.019,8.845c0,.519.156.888.307.735l2.56-2.577C967.823,623.657,966.733,620.909,965.433,620.427Z" transform="translate(-961.444 -620.378)"/><path class="n" d="M966.112,638.05l1.594,7.168a28.769,28.769,0,0,0,1.121-8.472c0-.911-.032-1.8-.094-2.653l-2.5,2.769A1.78,1.78,0,0,0,966.112,638.05Z" transform="translate(-961.663 -625.104)"/><path class="n" d="M959.336,636.509a27.92,27.92,0,0,0,1.236,8.82l1.707-7.691a1.789,1.789,0,0,0-.115-1.186l-2.7-3.045C959.381,634.4,959.336,635.435,959.336,636.509Z" transform="translate(-959.336 -624.866)"/><path class="n" d="M959.863,626.994l2.668,2.747c.153.158.309-.212.309-.734l.017-8.655C961.533,620.638,960.405,623.276,959.863,626.994Z" transform="translate(-959.518 -620.352)"/></g></g></g><g transform="translate(105.384 47.467)"><path class="n" d="M1138.166,611.23c7.1,0,12.863,7.9,12.863,17.639s-5.759,17.639-12.863,17.639h-9.238V611.23Z" transform="translate(-1116.427 -611.23)"/><g transform="translate(20.155)"><g class="t"><g transform="translate(1.426 -1.554)"><line class="p" y1="3.079" x2="15.988"/><line class="p" y1="3.079" x2="15.988" transform="translate(0 2.573)"/><line class="p" y1="3.079" x2="15.988" transform="translate(0 5.145)"/><line class="p" y1="3.079" x2="15.988" transform="translate(0 7.718)"/><line class="p" y1="3.079" x2="15.988" transform="translate(0 10.291)"/><line class="p" y1="3.079" x2="15.988" transform="translate(0 12.863)"/><line class="p" y1="3.079" x2="15.988" transform="translate(0 15.436)"/><line class="p" y1="3.079" x2="15.988" transform="translate(0 18.009)"/><line class="p" y1="3.079" x2="15.988" transform="translate(0 20.581)"/><line class="p" y1="3.079" x2="15.988" transform="translate(0 23.154)"/><line class="p" y1="3.079" x2="15.988" transform="translate(0 25.727)"/><line class="p" y1="3.079" x2="15.988" transform="translate(0 28.299)"/><line class="p" y1="3.079" x2="15.988" transform="translate(0 30.872)"/><line class="p" y1="3.079" x2="15.988" transform="translate(0 33.445)"/></g></g></g><g transform="translate(12.501)"><g class="u"><g transform="translate(0.006 -0.338)"><line class="p" x1="16.264" y1="3.088"/><line class="p" x1="16.264" y1="3.088" transform="translate(0 2.642)"/><line class="p" x1="16.264" y1="3.088" transform="translate(0 5.285)"/><line class="p" x1="16.264" y1="3.088" transform="translate(0 7.927)"/><line class="p" x1="16.264" y1="3.088" transform="translate(0 10.57)"/><line class="p" x1="16.264" y1="3.088" transform="translate(0 13.212)"/><line class="p" x1="16.264" y1="3.088" transform="translate(0 15.855)"/><line class="p" x1="16.264" y1="3.088" transform="translate(0 18.497)"/><line class="p" x1="16.264" y1="3.088" transform="translate(0 21.14)"/><line class="p" x1="16.264" y1="3.088" transform="translate(0 23.782)"/><line class="p" x1="16.264" y1="3.088" transform="translate(0 26.425)"/><line class="p" x1="16.264" y1="3.088" transform="translate(0 29.067)"/><line class="p" x1="16.264" y1="3.088" transform="translate(0 31.709)"/><line class="p" x1="16.264" y1="3.088" transform="translate(0 34.352)"/></g></g></g><ellipse class="n" cx="12.863" cy="17.639" rx="12.863" ry="17.639" transform="translate(0 0)"/><path class="n" d="M1136.493,611.23c7.1,0,12.863,7.849,12.863,17.531s-5.759,17.531-12.863,17.531h1.763c7.1,0,12.863-7.849,12.863-17.531s-5.759-17.531-12.863-17.531Z" transform="translate(-1119.043 -611.23)"/><g transform="translate(17.45)"><g class="v"><g transform="translate(0.959 0.372)"><line class="p" x1="16.264" y1="3.088"/><line class="p" x1="16.264" y1="3.088" transform="translate(0.136 2.549)"/><line class="p" x1="16.264" y1="3.088" transform="translate(0.273 5.098)"/><line class="p" x1="16.264" y1="3.088" transform="translate(0.41 7.647)"/><line class="p" x1="16.264" y1="3.088" transform="translate(0.546 10.195)"/><line class="p" x1="16.264" y1="3.088" transform="translate(0.682 12.744)"/><line class="p" x1="16.264" y1="3.088" transform="translate(0.819 15.293)"/><line class="p" x1="16.264" y1="3.088" transform="translate(0.955 17.842)"/><line class="p" x1="16.264" y1="3.088" transform="translate(1.092 20.391)"/><line class="p" x1="16.264" y1="3.088" transform="translate(1.228 22.94)"/><line class="p" x1="16.264" y1="3.088" transform="translate(1.365 25.489)"/><line class="p" x1="16.264" y1="3.088" transform="translate(1.501 28.038)"/><line class="p" x1="16.264" y1="3.088" transform="translate(1.638 30.586)"/><line class="p" x1="16.264" y1="3.088" transform="translate(1.774 33.135)"/></g></g></g><path class="n" d="M1133.8,611.23c7.1,0,12.863,7.849,12.863,17.531s-5.759,17.531-12.863,17.531h1.763c7.1,0,12.863-7.849,12.863-17.531s-5.759-17.531-12.863-17.531Z" transform="translate(-1118.111 -611.23)"/><g transform="translate(15.686)"><g class="w"><g transform="translate(-0.815 -2.061)"><line class="p" y1="3.088" x2="16.264" transform="translate(5.323)"/><line class="p" y1="3.088" x2="16.264" transform="translate(4.914 2.642)"/><line class="p" y1="3.088" x2="16.264" transform="translate(4.504 5.285)"/><line class="p" y1="3.088" x2="16.264" transform="translate(4.095 7.927)"/><line class="p" y1="3.088" x2="16.264" transform="translate(3.685 10.57)"/><line class="p" y1="3.088" x2="16.264" transform="translate(3.276 13.212)"/><line class="p" y1="3.088" x2="16.264" transform="translate(2.866 15.855)"/><line class="p" y1="3.088" x2="16.264" transform="translate(2.457 18.497)"/><line class="p" y1="3.088" x2="16.264" transform="translate(2.047 21.14)"/><line class="p" y1="3.088" x2="16.264" transform="translate(1.638 23.782)"/><line class="p" y1="3.088" x2="16.264" transform="translate(1.228 26.425)"/><line class="p" y1="3.088" x2="16.264" transform="translate(0.819 29.067)"/><line class="p" y1="3.088" x2="16.264" transform="translate(0.41 31.709)"/><line class="p" y1="3.088" x2="16.264" transform="translate(0 34.352)"/></g></g></g><g transform="translate(3.43 4.37)"><path class="x" d="M1115.062,631.149a16.526,16.526,0,0,0,3.069,10.007,9.7,9.7,0,0,0,1.352,1.433,6.785,6.785,0,0,0,4.468,1.8,6.876,6.876,0,0,0,4.7-2h0a10.421,10.421,0,0,0,1.409-1.622,16.78,16.78,0,0,0,2.78-9.612,19.218,19.218,0,0,0-.233-3.011,17.965,17.965,0,0,0-.482-2.2c-1.233-4.281-3.937-7.4-7.164-7.945a6.126,6.126,0,0,0-1.012-.085c-.2,0-.4.011-.6.029-3.289.325-6.087,3.318-7.434,7.536a17.417,17.417,0,0,0-.536,2.154A19.265,19.265,0,0,0,1115.062,631.149Z" transform="translate(-1115.062 -617.91)"/></g></g><rect width="18.901" height="29.613" transform="translate(37.239 40.326)"/><path class="n" d="M954.863,571.174l-1.3.082a2.311,2.311,0,0,0-2.133,1.928L949.67,583.8a5.621,5.621,0,0,0,1.635,4.956l1.829,1.771Z" transform="translate(-949.031 -549.912)"/><path class="y" d="M1011.091,608.858l-8.5-.052-.3,0h-.115a.939.939,0,0,1-.935-1.02c.137-1.592.215-3.258.215-4.976q0-1.506-.078-2.955v-.007c0-.026,0-.056,0-.081-.011-.273-.029-.543-.048-.809-.037-.595-.089-1.178-.148-1.751-.026-.288-.059-.572-.092-.854s-.067-.561-.107-.835c0-.011,0-.022,0-.037-.071-.54-.152-1.064-.244-1.577q-.167-.965-.366-1.869c-.074-.343-.155-.684-.24-1.016-.081-.314-.163-.624-.247-.924-.052-.181-.1-.358-.159-.532s-.111-.366-.174-.543c-.026-.085-.055-.166-.081-.247-.125-.373-.258-.731-.4-1.075q-.1-.272-.222-.532c-.185-.425-.377-.824-.576-1.193-.048-.089-.092-.174-.14-.255-.152-.274-.311-.525-.473-.761-.037-.056-.078-.11-.115-.162-.056-.082-.118-.163-.177-.24l-.129-.163c-.052-.063-.1-.126-.155-.185s-.1-.114-.159-.174a4.181,4.181,0,0,0-1.259-.953,1.318,1.318,0,0,0-.155-.067c-.044-.018-.092-.037-.137-.052s-.085-.029-.126-.041-.107-.029-.159-.041a2.338,2.338,0,0,0-.359-.052c-.059,0-.118-.008-.177-.008-3.59,0-6.545,7.942-6.871,18.1-.022.621-.033,1.253-.033,1.891,0,.311,0,.621.007.928,0,.059,0,.122,0,.184.011.635.033,1.259.067,1.876.014.325.037.65.059.968s.048.661.078.986.059.647.092.964l-1.149-.007-5.346-.033-10.276-.063-3.894-.026-.557,0a.518.518,0,0,1-.107-.011.525.525,0,0,1-.266-.144.535.535,0,0,1-.147-.421q.055-.615.1-1.241c.015-.233.029-.469.044-.706.007-.166.018-.336.025-.51.022-.5.041-1,.052-1.518,0-.14,0-.281,0-.421.007-.266.007-.532.007-.8,0-.639-.011-1.271-.029-1.891-.321-10.155-3.217-18.1-6.742-18.1s-6.416,7.942-6.742,18.1l-.022.861c0,.34-.008.684-.008,1.03,0,.362,0,.72.011,1.076,0,.25.008.5.018.746,0,.126.008.247.011.373l.011.244c.008.222.019.444.03.665,0,.074.007.145.011.218.018.3.037.587.059.875v.014c.037.5.081.994.13,1.478l-.695,0a.48.48,0,0,1-.107-.011.519.519,0,0,1-.2-.074.632.632,0,0,1-.081-.063.57.57,0,0,1-.2-.362l-1.038-7.067-1.854-12.607a27.041,27.041,0,0,1,.355-9.811l4.089-18.4,8.112-16.534a5.853,5.853,0,0,1,4.876-3.265l10.993-.731.033,0,.1-.007.1-.007.166-.011.277-.019.163-.01.554-.037.584-.041c.1-.007.192-.011.288-.018l2.745-.185a7.888,7.888,0,0,1,1.1,0h.014a7.694,7.694,0,0,1,6.221,4.1v0a7.122,7.122,0,0,1,.317.684l.621,1.533.092.222,7.536,18.573.705,1.175,0,.011,8.71,14.514Z" transform="translate(-948.733 -538.859)"/><path class="z" d="M1010.844,585.026l-1.869,17.738L1001.1,583.25c-11.884-17.794-45.129-23.15-45.129-23.15l.074-.148s0-.01,0-.014l7.974-16.249a6.1,6.1,0,0,1,5.073-3.4l10.857-.72.033,0,.1-.008.1-.007.166-.011.277-.018.162-.011.554-.037.584-.041c.1-.007.192-.011.288-.018l2.744-.185a7.759,7.759,0,0,1,1.1,0h.015a7.693,7.693,0,0,1,6.22,4.1v0a7.112,7.112,0,0,1,.318.683l.62,1.534.093.221,7.535,18.574.706,1.174,0,.011,8.71,14.514Z" transform="translate(-951.234 -538.859)"/><path class="aa" d="M1001.424,610.173c-.011.24-.026.48-.037.713,0-.026,0-.056,0-.081-.014-.273-.033-.54-.048-.809-.041-.595-.092-1.178-.148-1.751-.029-.285-.059-.569-.092-.854s-.07-.557-.107-.835c0-.011,0-.022,0-.037-.074-.536-.156-1.064-.244-1.577q-.167-.965-.366-1.869c-.078-.347-.155-.684-.24-1.016-.081-.314-.163-.624-.247-.924-.052-.18-.1-.358-.159-.532s-.111-.366-.174-.543c-.026-.085-.052-.166-.081-.247-.125-.373-.258-.731-.4-1.075q-.1-.272-.222-.532c-.185-.425-.377-.824-.576-1.193-.044-.089-.092-.174-.14-.255-.152-.273-.311-.525-.473-.761-.037-.056-.074-.11-.115-.162-.056-.082-.118-.163-.177-.24-.04-.056-.085-.111-.129-.163s-.1-.126-.155-.185-.1-.118-.159-.174a4.18,4.18,0,0,0-1.259-.953,1.319,1.319,0,0,0-.155-.067c-.044-.018-.092-.037-.137-.052s-.085-.029-.126-.041-.107-.029-.159-.041a2.323,2.323,0,0,0-.359-.052c-.059,0-.118-.008-.177-.008-3.59,0-6.545,7.942-6.871,18.1-.022.621-.033,1.253-.033,1.891,0,.311,0,.621.007.928,0,.059,0,.122,0,.184.011.635.033,1.259.067,1.876.018.325.037.65.059.968s.048.661.078.986.059.647.092.964l-1.149-.007-5.346-.033-10.276-.063-3.894-.026-.557,0a.513.513,0,0,1-.107-.011.555.555,0,0,1-.266-.144.535.535,0,0,1-.147-.421q.055-.615.1-1.241c.015-.233.029-.469.044-.706.011-.169.018-.34.025-.51.022-.5.041-1,.052-1.518,0-.14,0-.281,0-.421.007-.266.007-.532.007-.8,0-.638-.011-1.27-.029-1.891-.321-10.155-3.217-18.1-6.742-18.1s-6.416,7.942-6.742,18.1l-.022.861c0,.34-.008.684-.008,1.03,0,.362,0,.72.011,1.076,0,.251.008.5.018.746,0,.126.008.247.011.373l.011.244c.008.222.019.443.03.665,0,.074.007.145.011.218.018.3.037.587.059.875v.014c.037.5.081.994.13,1.478l-.695,0a.473.473,0,0,1-.107-.011.672.672,0,0,1-.2-.074.632.632,0,0,1-.081-.063.57.57,0,0,1-.2-.362l-1.038-7.067-1.854-12.607a27.041,27.041,0,0,1,.355-9.811l4.089-18.4a109.767,109.767,0,0,1,16.29,4.263c10.185,3.491,22.526,9.434,28.839,18.887C998.595,594.289,1001.919,600.074,1001.424,610.173Z" transform="translate(-948.733 -549.899)"/><path class="z" d="M999.414,607.915s-2.28-26.135,6.709-26.135c9.358,0,7.164,27.02,7.164,27.02l.9.008v-.052l.746-29.485a15.368,15.368,0,0,0-1.185-6.332s-1.315-3.166-3.1-7.458l0-.011c-2.634-6.331-9.144-22.161-9.144-22.161-.17-.4-.563-1.081-.6-1.155-.469-.934-3.255-3.059-6.233-3.094-.639,0-5.628.455-5.628.455s-5.234,18.5-6.066,25.334a371.3,371.3,0,0,0-.188,43.71c0,.022,0,.041,0,.063l16.746.1Z" transform="translate(-960.326 -538.807)"/><path class="ab" d="M975.61,630.569c.019.621.09,3.192.09,3.831,0,1.754-.077,3.458-.222,5.078a.637.637,0,0,0,.63.7l.438,0,3.893.024c-.134-2.644-.238-6.751-.317-9.232Z" transform="translate(-957.981 -570.45)"/><path class="ac" d="M1008.631,644.721c-.044-.416-.082-.84-.117-1.267.035.428.073.851.117,1.267Z" transform="translate(-969.405 -574.906)"/><path class="ac" d="M1008.37,641.336q.028.5.065,1C1008.411,642,1008.388,641.671,1008.37,641.336Z" transform="translate(-969.355 -574.173)"/><path class="ac" d="M1008.244,637.843c.013.491.034.976.058,1.458q-.071-1.409-.073-2.876c0,.462,0,.923.014,1.378Z" transform="translate(-969.307 -572.475)"/><path class="ac" d="M1008.469,642.857c.01.13.019.261.029.391C1008.488,643.118,1008.479,642.987,1008.469,642.857Z" transform="translate(-969.389 -574.699)"/><path class="aa" d="M1010.187,596.844c-5.981-8.958-17.376-14.762-27.217-18.318-.056.729-1.161,15.3-.5,35.987h16.815c.255-7.935,2.113-14.517,4.628-17.018.052-.052.107-.1.163-.152a3.086,3.086,0,0,1,2.08-.927c1.477,0,2.844,1.34,3.963,3.628.115.229.226.465.333.716a34.859,34.859,0,0,1,2.331,10.04c.022.211.041.425.059.639.015.155.026.314.037.469.044.506.078,1.019.1,1.541.011-.237.026-.477.037-.72C1013.512,602.629,1010.187,596.844,1010.187,596.844Z" transform="translate(-960.326 -552.454)"/><path class="ac" d="M1004.117,645.424l1.149.007,0-.041h-6.49Z" transform="translate(-966.036 -575.575)"/><path class="ac" d="M983.063,645.295l10.277.063-10.277-.064Z" transform="translate(-960.604 -575.542)"/><path class="ac" d="M1008.341,640.821c.006.113.013.224.019.337C1008.353,641.045,1008.347,640.934,1008.341,640.821Z" transform="translate(-969.345 -573.995)"/><path class="ad" d="M976.817,637.458l10.276.064h6.49c-.044-.416-.082-.839-.116-1.267-.01-.13-.02-.26-.029-.391q-.036-.494-.065-1c-.007-.113-.013-.224-.019-.337-.025-.482-.045-.966-.058-1.458v-.041c-.011-.455-.015-.916-.015-1.378,0-.639.011-1.271.033-1.891l-16.863-1.57C976.53,630.676,976.682,634.814,976.817,637.458Z" transform="translate(-958.318 -569.629)"/><path class="z" d="M1109.452,588.541l1.23,2.192a6.345,6.345,0,0,1,.8,3.419l-.833,16.767H1028.03l.838-19.708a15.146,15.146,0,0,0-1.255-6.712l-3.768-8.61-1.373-3.3a5.033,5.033,0,0,0,2.666,2.748C1026.984,575.95,1109.452,588.541,1109.452,588.541Z" transform="translate(-974.231 -550.4)"/><path class="ad" d="M1087.041,564.162h-67.334a5.032,5.032,0,0,1-4.672-3.155c-2.109-5.242-6.21-15.415-7.285-17.916a5.916,5.916,0,0,0-.332-.661c-.048-.085-.1-.167-.152-.248-1.681-2.63-4.839-3.121-6.11-3.213-.24-.015-.413-.018-.5-.018l.5,0,58.719-.273a11.3,11.3,0,0,1,7.956,3.509c.063.063.141.148.233.248a103.165,103.165,0,0,1,13.013,17.461,7.6,7.6,0,0,0,4.071,3.365Z" transform="translate(-966.688 -538.673)"/><path class="aa" d="M1042.142,595.736s3.711,9.6,49.208,9.6c20.994,0,24.9-11.174,24.9-11.174l-5.079-2.493-68.911-2.818Z" transform="translate(-981.033 -556.026)"/><path class="z" d="M1026.147,574.589h61.907a1.573,1.573,0,0,0,1.389-2.31l-.13-.245a14.429,14.429,0,0,0,3.355,2.555c1.662.8,13.668,6.218,13.668,6.218s-6.372,7.818-9,7.818h-28.074c-5.218,0-36.755-8.157-36.755-8.157a9.436,9.436,0,0,0-6.373-4.926,4.126,4.126,0,0,1-2.787-2.091A3.257,3.257,0,0,0,1026.147,574.589Z" transform="translate(-974.533 -550.209)"/><path class="aa" d="M1035.958,626.719l8.352-6.971a5.851,5.851,0,0,1,4.491-1.313,309.272,309.272,0,0,0,40.658,2.989,73.533,73.533,0,0,0,22.347-3.053c2.673-.859,3.7,4.438,3.7,4.438l-.185,3.908Z" transform="translate(-978.895 -566.199)"/><path class="n" d="M1113.392,631.179l-1.431,7.864a1.972,1.972,0,0,1-1.941,1.619h-79.628l.376-9.483Z" transform="translate(-976.97 -570.661)"/><path class="ae" d="M1117.024,631.179h0a2.711,2.711,0,0,1-2.711,2.712H1049.3a2.711,2.711,0,0,1-2.711-2.712h70.432Z" transform="translate(-982.572 -570.661)"/><path class="ad" d="M1062.9,619.758s-10.133-1.237-11.172-1.352c-1.214-.136-4.922.111-5.735,5.878a1.576,1.576,0,0,0,1.537,1.7h0a1.549,1.549,0,0,0,.88-.2c.692-.408,2.594-1.227,6.863-1.353,4.842-.144,7.036-1.516,7.906-4.3A.306.306,0,0,0,1062.9,619.758Z" transform="translate(-982.36 -566.236)"/><path class="ad" d="M1144.866,619.758s4.207-1.236,4.638-1.353c.5-.135,2.043.111,2.381,5.879.049.845-.247,1.645-.638,1.7h0a.382.382,0,0,1-.365-.2,3.605,3.605,0,0,0-2.849-1.354c-2.01-.143-2.92-1.516-3.281-4.3C1144.728,619.962,1144.785,619.781,1144.866,619.758Z" transform="translate(-1016.513 -566.236)"/><path class="n" d="M1052.615,620.385a2.3,2.3,0,0,0-1.12.178,5.8,5.8,0,0,0-3.078,3.637c-.107.319.269.609.631.492a17.338,17.338,0,0,1,6.153-.881,12.961,12.961,0,0,0,4.573-.685,1.086,1.086,0,0,0-.272-2.1C1056.614,620.75,1052.615,620.385,1052.615,620.385Z" transform="translate(-983.197 -566.925)"/><path class="n" d="M1150.384,620.69a.451.451,0,0,1,.421.2,7.576,7.576,0,0,1,1.219,3.694c.046.321-.088.6-.226.48a3.187,3.187,0,0,0-2.315-1,2.4,2.4,0,0,1-1.859-.991,1.247,1.247,0,0,1,.75-1.994Z" transform="translate(-1017.415 -567.032)"/><g transform="translate(90.247 36.848)"><path class="n" d="M1120.053,595h-31.008a2.442,2.442,0,0,0-2.168,3.417l.01.025c.432,1.009.867,1.991,1.149,2.56.76,1.522,3.163,6.464,12.483,6.464,1.984,0,4.67.047,8.06,0,9.319-.127,11.724-4.942,12.484-6.464.281-.568.717-1.551,1.148-2.56,0-.007.007-.018.011-.025A2.443,2.443,0,0,0,1120.053,595Z" transform="translate(-1086.682 -594.997)"/><path class="ad" d="M1120.053,595h-31.008a2.442,2.442,0,0,0-2.168,3.417h12.82a4.623,4.623,0,0,1,3.117,1.252,4.9,4.9,0,0,0,7.241,0,4.62,4.62,0,0,1,3.117-1.252h9.048A2.443,2.443,0,0,0,1120.053,595Z" transform="translate(-1086.682 -594.997)"/><ellipse class="af" cx="3.945" cy="2.863" rx="3.945" ry="2.863" transform="translate(15.996 0.554)"/></g><path class="ad" d="M1125.241,632.655h-41.716a8.318,8.318,0,0,1,1.481-2.342c2.364-2.616,5.792-2.708,7.646-2.708h23.457c1.855,0,5.286.092,7.65,2.708A8.317,8.317,0,0,1,1125.241,632.655Z" transform="translate(-995.343 -569.425)"/><path class="ad" d="M991.5,582.484l-3.293-.722a1.274,1.274,0,0,1-.969-1.182V580.3a.756.756,0,0,1,.969-.758l3.293.722a1.274,1.274,0,0,1,.97,1.182v.277A.756.756,0,0,1,991.5,582.484Z" transform="translate(-962.046 -552.798)"/><path class="ad" d="M967.24,574.644l-3.293-.722a1.274,1.274,0,0,1-.97-1.182v-.277a.756.756,0,0,1,.97-.757l3.293.722a1.275,1.275,0,0,1,.97,1.182v.277A.756.756,0,0,1,967.24,574.644Z" transform="translate(-953.659 -550.088)"/><path class="n" d="M1001.373,548.225l-1.255,15.079-13.531-1.891,1.589-6.538,2.973-12.22,2.944-.243a6.688,6.688,0,0,1,6.324,3.557c.1.188.192.385.273.583Z" transform="translate(-961.823 -539.961)"/><path class="ag" d="M1000.547,544.91a.9.9,0,0,1-.551,1.461A4.628,4.628,0,0,0,997,547.545c-1.947,1.781-.724,3.122-2.67,4.9s-3.179.285-5.372,2.594c.785-3.325,3.008-12.384,3.008-12.384l2.944-.243A6.7,6.7,0,0,1,1000.547,544.91Z" transform="translate(-962.644 -539.961)"/><path class="n" d="M983.165,543.156l-.617,2.29-4.112,15.267-6.5-3.188-.169-.085,1.354-13.184a.321.321,0,0,1,.293-.287Z" transform="translate(-956.697 -540.223)"/><path class="n" d="M1063,589.96a2.934,2.934,0,0,1,.855,5.406c-1.068.62-2.107,1.221-2.976,1.719a4.03,4.03,0,0,1-2.759.458c-1.382-.258-3.225-.6-5.234-.968-2.808-.514-5.94-1.09-8.585-1.584-1.382-.262-2.722-.521-3.96-.772a13.114,13.114,0,0,1-3.4-9.305.461.461,0,0,1,.557-.436l5.338,1.112,4,.867C1051.045,587.374,1057.779,588.837,1063,589.96Z" transform="translate(-979.232 -554.508)"/><path class="ag" d="M1052.886,596.575c-2.808-.514-5.94-1.09-8.585-1.584-1.382-.262-2.722-.521-3.96-.772a13.114,13.114,0,0,1-3.4-9.305.461.461,0,0,1,.557-.436l5.338,1.112,1.4.3a3.372,3.372,0,0,1,2.594,2.921A8.861,8.861,0,0,0,1052.886,596.575Z" transform="translate(-979.232 -554.508)"/><path class="n" d="M1044.3,594.991c-1.382-.262-2.722-.521-3.96-.772a13.114,13.114,0,0,1-3.4-9.305.461.461,0,0,1,.557-.436l5.338,1.112-1.072.052a1.4,1.4,0,0,0-1.3,1.7l1.023,4.651a3.976,3.976,0,0,0,2.392,2.831Z" transform="translate(-979.232 -554.508)"/><path class="n" d="M1150.82,592.986l-.838.654L1147,595.956a2.153,2.153,0,0,1-2.925-.266l-1.061-1.186a3.6,3.6,0,0,1,.147-4.949c.5-.5,1.05-1.041,1.6-1.582.923-.9,1.862-1.806,2.637-2.53A11.077,11.077,0,0,1,1150.82,592.986Z" transform="translate(-1015.599 -554.846)"/><path class="n" d="M1079.671,561.529H1025.85a10.539,10.539,0,0,1-9.774-6.6l-4.492-11.156a7.8,7.8,0,0,0-6.025-4.78l2.154-.011,51.564-.251s.033,0,.092-.007a11.965,11.965,0,0,1,8.448,3.38c4.917,4.632,10.542,13.165,13.081,17.2A1.45,1.45,0,0,1,1079.671,561.529Z" transform="translate(-968.383 -538.689)"/><path class="n" d="M969.187,624.589c0,2-.092,3.934-.266,5.777l-.57,0a.513.513,0,0,1-.509-.562c.153-1.66.234-3.409.234-5.212,0-11.042-3.029-19.988-6.771-19.988s-6.771,8.946-6.771,19.988a56.088,56.088,0,0,0,.281,5.688l-.555,0a.634.634,0,0,1-.629-.58c-.134-1.639-.2-3.35-.2-5.106,0-12.368,3.528-22.393,7.879-22.393S969.187,612.221,969.187,624.589Z" transform="translate(-950.356 -560.639)"/><path class="n" d="M969.317,545.609l-1.286,12.319-3.636-1.785a.876.876,0,0,1-.384-1.2l5.1-9.4A.112.112,0,0,1,969.317,545.609Z" transform="translate(-953.979 -541.029)"/><path class="n" d="M1013.638,567.862l-4.765-.665,1.13-13.816,5.135,12.552A1.41,1.41,0,0,1,1013.638,567.862Z" transform="translate(-969.529 -543.759)"/><path class="n" d="M954.326,641.112l-.695,0a.479.479,0,0,1-.107-.011.519.519,0,0,1-.2-.074.631.631,0,0,1-.081-.063.57.57,0,0,1-.2-.362l-1.038-7.067h2.065l-.021.861c0,.34-.008.684-.008,1.03,0,.362,0,.72.011,1.076,0,.251.008.5.018.746,0,.126.008.247.011.373l.011.244c.008.222.019.444.03.665,0,.074.007.145.011.218.018.3.037.587.059.875v.014C954.233,640.134,954.277,640.628,954.326,641.112Z" transform="translate(-949.866 -571.475)"/><path class="n" d="M1022.571,624.589a58.926,58.926,0,0,1-.3,6h-.221a.848.848,0,0,1-.837-.929c.145-1.618.223-3.314.223-5.065,0-11.042-3.092-19.988-6.9-19.988-3.591,0-6.546,7.942-6.871,18.1-.022.62-.033,1.252-.033,1.891a56.094,56.094,0,0,0,.307,5.906h0l-1.149-.008a58.292,58.292,0,0,1-.288-5.9c0-12.368,3.6-22.393,8.034-22.393S1022.571,612.221,1022.571,624.589Z" transform="translate(-968.709 -560.639)"/><path class="ac" d="M1025.35,612.512a33.419,33.419,0,0,1,2.331,10.04A34.86,34.86,0,0,0,1025.35,612.512Z" transform="translate(-975.227 -564.206)"/><path class="n" d="M997.2,644.422l-1.149-.007-5.345-.033-10.277-.063-3.893-.026-.558,0a.525.525,0,0,1-.521-.576q.056-.614.1-1.241h21.472C997.079,643.137,997.138,643.787,997.2,644.422Z" transform="translate(-957.975 -574.566)"/><path class="ad" d="M1010.512,569.586l-1.113-5.12a2.4,2.4,0,0,0-2.892-1.827l-4.639,1.086a2.662,2.662,0,0,0-2,2.07l-.426,2.13a1.967,1.967,0,0,0,1.793,2.348l3.655.254a1.346,1.346,0,0,1,1.108.735Z" transform="translate(-966.253 -546.938)"/><path class="n" d="M1013.99,573.316l-4.579,1.639,1.52,2.856a1.581,1.581,0,0,0,2.715.128l.62-.939a1.669,1.669,0,0,0,.239-1.266Z" transform="translate(-969.715 -550.652)"/><path class="ag" d="M1148.591,595.51a.228.228,0,0,1,.187.4l-1.774,1.38a2.153,2.153,0,0,1-2.925-.266l-1.06-1.185a3.6,3.6,0,0,1,.146-4.95c.5-.5,1.049-1.041,1.6-1.581,0,0-2.327,3.373.39,5.505A3.957,3.957,0,0,0,1148.591,595.51Z" transform="translate(-1015.599 -556.183)"/><g transform="translate(25.11 46.96)"><g class="ah"><g transform="translate(9.473 0.508)"><path class="n" d="M1029.943,611.23c7.1,0,12.863,7.9,12.863,17.639s-5.759,17.639-12.863,17.639H1020.7V611.23Z" transform="translate(-1008.204 -611.23)"/><g transform="translate(20.155)"><g class="ai"><g transform="translate(1.426 -1.554)"><line class="p" y1="3.079" x2="15.988"/><line class="p" y1="3.079" x2="15.988" transform="translate(0 2.573)"/><line class="p" y1="3.079" x2="15.988" transform="translate(0 5.145)"/><line class="p" y1="3.079" x2="15.988" transform="translate(0 7.718)"/><line class="p" y1="3.079" x2="15.988" transform="translate(0 10.291)"/><line class="p" y1="3.079" x2="15.988" transform="translate(0 12.863)"/><line class="p" y1="3.079" x2="15.988" transform="translate(0 15.436)"/><line class="p" y1="3.079" x2="15.988" transform="translate(0 18.009)"/><line class="p" y1="3.079" x2="15.988" transform="translate(0 20.581)"/><line class="p" y1="3.079" x2="15.988" transform="translate(0 23.154)"/><line class="p" y1="3.079" x2="15.988" transform="translate(0 25.727)"/><line class="p" y1="3.079" x2="15.988" transform="translate(0 28.299)"/><line class="p" y1="3.079" x2="15.988" transform="translate(0 30.872)"/><line class="p" y1="3.079" x2="15.988" transform="translate(0 33.445)"/></g></g></g><g transform="translate(12.501)"><g class="aj"><g transform="translate(0.005 -0.338)"><line class="p" x1="16.264" y1="3.088"/><line class="p" x1="16.264" y1="3.088" transform="translate(0 2.642)"/><line class="p" x1="16.264" y1="3.088" transform="translate(0 5.285)"/><line class="p" x1="16.264" y1="3.088" transform="translate(0 7.927)"/><line class="p" x1="16.264" y1="3.088" transform="translate(0 10.57)"/><line class="p" x1="16.264" y1="3.088" transform="translate(0 13.212)"/><line class="p" x1="16.264" y1="3.088" transform="translate(0 15.855)"/><line class="p" x1="16.264" y1="3.088" transform="translate(0 18.497)"/><line class="p" x1="16.264" y1="3.088" transform="translate(0 21.14)"/><line class="p" x1="16.264" y1="3.088" transform="translate(0 23.782)"/><line class="p" x1="16.264" y1="3.088" transform="translate(0 26.425)"/><line class="p" x1="16.264" y1="3.088" transform="translate(0 29.067)"/><line class="p" x1="16.264" y1="3.088" transform="translate(0 31.709)"/><line class="p" x1="16.264" y1="3.088" transform="translate(0 34.352)"/></g></g></g><ellipse class="n" cx="12.863" cy="17.639" rx="12.863" ry="17.639" transform="translate(0 0)"/><path class="n" d="M1028.27,611.23c7.1,0,12.863,7.849,12.863,17.531s-5.759,17.531-12.863,17.531h1.763c7.1,0,12.863-7.849,12.863-17.531s-5.759-17.531-12.863-17.531Z" transform="translate(-1010.82 -611.23)"/><g transform="translate(17.45)"><g class="ak"><g transform="translate(0.959 0.372)"><line class="p" x1="16.264" y1="3.088"/><line class="p" x1="16.264" y1="3.088" transform="translate(0.136 2.549)"/><line class="p" x1="16.264" y1="3.088" transform="translate(0.273 5.098)"/><line class="p" x1="16.264" y1="3.088" transform="translate(0.41 7.647)"/><line class="p" x1="16.264" y1="3.088" transform="translate(0.546 10.195)"/><line class="p" x1="16.264" y1="3.088" transform="translate(0.682 12.744)"/><line class="p" x1="16.264" y1="3.088" transform="translate(0.819 15.293)"/><line class="p" x1="16.264" y1="3.088" transform="translate(0.955 17.842)"/><line class="p" x1="16.264" y1="3.088" transform="translate(1.092 20.391)"/><line class="p" x1="16.264" y1="3.088" transform="translate(1.228 22.94)"/><line class="p" x1="16.264" y1="3.088" transform="translate(1.365 25.489)"/><line class="p" x1="16.264" y1="3.088" transform="translate(1.501 28.038)"/><line class="p" x1="16.264" y1="3.088" transform="translate(1.638 30.586)"/><line class="p" x1="16.264" y1="3.088" transform="translate(1.774 33.135)"/></g></g></g><path class="n" d="M1025.574,611.23c7.1,0,12.863,7.849,12.863,17.531s-5.759,17.531-12.863,17.531h1.763c7.1,0,12.863-7.849,12.863-17.531s-5.759-17.531-12.863-17.531Z" transform="translate(-1009.888 -611.23)"/><g transform="translate(15.686)"><g class="al"><g transform="translate(-0.815 -2.061)"><line class="p" y1="3.088" x2="16.264" transform="translate(5.323)"/><line class="p" y1="3.088" x2="16.264" transform="translate(4.914 2.642)"/><line class="p" y1="3.088" x2="16.264" transform="translate(4.504 5.285)"/><line class="p" y1="3.088" x2="16.264" transform="translate(4.095 7.927)"/><line class="p" y1="3.088" x2="16.264" transform="translate(3.685 10.57)"/><line class="p" y1="3.088" x2="16.264" transform="translate(3.276 13.212)"/><line class="p" y1="3.088" x2="16.264" transform="translate(2.866 15.855)"/><line class="p" y1="3.088" x2="16.264" transform="translate(2.457 18.497)"/><line class="p" y1="3.088" x2="16.264" transform="translate(2.047 21.14)"/><line class="p" y1="3.088" x2="16.264" transform="translate(1.638 23.782)"/><line class="p" y1="3.088" x2="16.264" transform="translate(1.228 26.425)"/><line class="p" y1="3.088" x2="16.264" transform="translate(0.819 29.067)"/><line class="p" y1="3.088" x2="16.264" transform="translate(0.41 31.709)"/><line class="p" y1="3.088" x2="16.264" transform="translate(0 34.352)"/></g></g></g><g transform="translate(3.43 4.37)"><path class="s" d="M1006.839,631.149a16.525,16.525,0,0,0,3.069,10.007,9.7,9.7,0,0,0,1.352,1.433,6.784,6.784,0,0,0,4.468,1.8,6.876,6.876,0,0,0,4.7-2h0a10.418,10.418,0,0,0,1.409-1.622,16.78,16.78,0,0,0,2.78-9.612,19.218,19.218,0,0,0-.233-3.011,17.954,17.954,0,0,0-.482-2.2c-1.232-4.281-3.937-7.4-7.164-7.945a6.124,6.124,0,0,0-1.012-.085c-.2,0-.4.011-.6.029-3.289.325-6.087,3.318-7.435,7.536a17.428,17.428,0,0,0-.536,2.154A19.271,19.271,0,0,0,1006.839,631.149Z" transform="translate(-1006.839 -617.91)"/><g transform="translate(1.055 1.598)"><path class="n" d="M1014.407,649.436a5.981,5.981,0,0,0,3.938,1.582,6.058,6.058,0,0,0,4.141-1.764l-3.574-7.306a.437.437,0,0,0-.841,0Z" transform="translate(-1010.511 -627.71)"/><path class="n" d="M1021.79,620.427l.041,8.845c0,.519.34.888.674.735l5.6-2.577C1027.018,623.657,1024.635,620.909,1021.79,620.427Z" transform="translate(-1013.064 -620.378)"/><path class="n" d="M1023.276,638.05l3.487,7.168a14.79,14.79,0,0,0,2.451-8.472,16.952,16.952,0,0,0-.205-2.653l-5.478,2.769A.955.955,0,0,0,1023.276,638.05Z" transform="translate(-1013.543 -625.104)"/><path class="n" d="M1008.451,636.509a14.565,14.565,0,0,0,2.7,8.82l3.736-7.691a.957.957,0,0,0-.252-1.186l-5.906-3.045A17,17,0,0,0,1008.451,636.509Z" transform="translate(-1008.451 -624.866)"/><path class="n" d="M1009.6,626.994l5.839,2.747c.334.158.675-.212.677-.734l.037-8.655C1013.258,620.638,1010.792,623.276,1009.6,626.994Z" transform="translate(-1008.85 -620.352)"/></g></g></g></g></g><path class="ad" d="M1070.686,544.3l-3.257.7a1.358,1.358,0,0,0-1.081,1l-.206.858a1.211,1.211,0,0,1-1.261.886h-7.757a2.52,2.52,0,0,1-1.816-.886l-.945-1.078a3.07,3.07,0,0,0-1.792-1.021l-3.109-.488c4.195-.146,8.079-.174,10.458-.174.51,0,.949,0,1.312,0s-2.159,0-1.645,0C1062.065,544.108,1066.194,544.14,1070.686,544.3Z" transform="translate(-983.564 -540.552)"/><path class="z" d="M1068.328,542.43h-60.647c-.048-.085-.1-.167-.152-.248-1.681-2.63-4.839-3.121-6.11-3.213v-.022l58.719-.273a11.3,11.3,0,0,1,7.956,3.509C1068.158,542.245,1068.236,542.33,1068.328,542.43Z" transform="translate(-966.952 -538.673)"/><ellipse class="aa" cx="2.863" cy="2.863" rx="2.863" ry="2.863" transform="translate(67.389 34.127)"/><ellipse class="af" cx="1.626" cy="1.626" rx="1.626" ry="1.626" transform="translate(75.882 36.792)"/><g transform="translate(130.757 32.762)"><path class="aa" d="M1148.6,591.614a2.864,2.864,0,0,0,4.46,2.377,11.844,11.844,0,0,0-1.606-5.239A2.862,2.862,0,0,0,1148.6,591.614Z" transform="translate(-1148.603 -588.752)"/></g><ellipse class="af" cx="1.626" cy="1.626" rx="1.626" ry="1.626" transform="translate(129.131 35.569)"/><path class="n" d="M1132.927,645.644v2.049l-16.609,4.206-2.325-6.31Z" transform="translate(-1005.879 -575.644)"/></g><path class="ab" d="M959.151,591.712l.926-5.006A1.36,1.36,0,0,0,958.7,585.1l-1.307-.058a1.925,1.925,0,0,0-1.957,1.464l-.926,5.005a1.361,1.361,0,0,0,1.375,1.609l1.307.057A1.925,1.925,0,0,0,959.151,591.712Z" transform="translate(-881.529 -554.706)"/><path class="z" d="M958.8,591.091l1.014-4.966a1.707,1.707,0,0,0-1.314-1.76l-2.188-.5c-.874-.287-1.7.037-1.852.723l-1.014,4.966a1.706,1.706,0,0,0,1.314,1.759l2.188.5C957.825,592.1,958.654,591.776,958.8,591.091Z" transform="translate(-881.162 -554.264)"/></g></g><g transform="translate(1582.973 1593.212)"><rect class="z" width="6.292" height="9.438" rx="2" transform="translate(0 40.402)"/><g transform="translate(1.259 41.782)"><path class="aa" d="M226.187,306.075h-2.024a1.72,1.72,0,0,0,0,2.937h2.024a1.72,1.72,0,0,0,0-2.937Z" transform="translate(-223.338 -306.075)"/></g><rect class="am" width="3.775" height="3.775" rx="1.888" transform="translate(1.258 45.436)"/><path class="ab" d="M292.953,294.219l.926-5.006A1.36,1.36,0,0,0,292.5,287.6l-1.307-.057a1.925,1.925,0,0,0-1.956,1.464l-.926,5.005a1.361,1.361,0,0,0,1.375,1.609l1.307.057A1.925,1.925,0,0,0,292.953,294.219Z" transform="translate(-246.163 -257.423)"/><path class="an" d="M244.318,329.857a12.3,12.3,0,0,0,10.6,5.738c13.843,0,18.2-10.578,19.018-37.653" transform="translate(-229.859 -261.278)"/><path class="z" d="M292.573,293.546l1.014-4.966a1.707,1.707,0,0,0-1.314-1.762l-2.188-.5c-.874-.286-1.7.037-1.852.723l-1.014,4.966a1.706,1.706,0,0,0,1.314,1.762l2.188.5C291.594,294.554,292.424,294.232,292.573,293.546Z" transform="translate(-245.764 -256.929)"/><path class="an" d="M227.326,316.086c1.226,3.641,2.175,3.775,5.207,3.123,3.587-.843,4.944,2.1,5.107,4.977" transform="translate(-223.558 -268.005)"/><path class="z" d="M236.444,341.122v-13a11.858,11.858,0,0,1,9.811,0v13a11.854,11.854,0,0,1-9.811,0Z" transform="translate(-226.939 -272.076)"/><path class="aa" d="M250.775,342.325h.891v-7.451h0c-.551.169-.891.485-.891.827Z" transform="translate(-232.253 -274.972)"/><path class="aa" d="M250.775,336.181h.891v7.451h0c-.551-.169-.891-.485-.891-.827Z" transform="translate(-232.253 -275.456)"/><path class="aa" d="M237.335,342.325h-.891v-7.451h0c.551.169.891.485.891.827Z" transform="translate(-226.939 -274.972)"/><path class="aa" d="M237.335,336.181h-.891v7.451h0c.551-.169.891-.485.891-.827Z" transform="translate(-226.939 -275.456)"/><path class="ao" d="M242.165,335.636l-1.1.6,4.187,4.176-1.1-4.176,1.1-.6-4.187-4.176Z" transform="translate(-228.652 -273.706)"/></g></g></svg>