<svg width="120" height="36" viewBox="0 0 120 36" xmlns="http://www.w3.org/2000/svg" xmlns:xlink="http://www.w3.org/1999/xlink"><title>Button_GooglePlay</title><defs><linearGradient x1="19.215%" y1="-35.157%" x2="69.302%" y2="93.537%" id="a"><stop stop-color="#19A3B4" offset="0%"/><stop stop-color="#5BC3AF" offset="34.817%"/><stop stop-color="#C9F7A6" offset="92.234%"/><stop stop-color="#D7FEA5" offset="100%"/></linearGradient><path id="b" d="M15.325 7.587L1.998.227C1.62.02 1.272-.03.99.06l10.915 10.96 3.42-3.435"/><linearGradient x1="-14.698%" y1="-114.322%" x2="74.844%" y2="114.156%" id="c"><stop stop-color="#FC227C" offset="0%"/><stop stop-color="#FEEB7B" offset="100%"/></linearGradient><linearGradient x1="28.151%" y1="-14.814%" x2="48.188%" y2="82.894%" id="d"><stop stop-color="#0E4DA0" offset="0%"/><stop stop-color="#6BFED4" offset="100%"/></linearGradient><path id="e" d="M.99.06C.583.186.32.6.32 1.22l.004 19.626c0 .616.254 1.022.648 1.158l10.933-10.982L.99.06"/><linearGradient x1="132.245%" y1="16.466%" x2="5.959%" y2="126.31%" id="f"><stop stop-color="#FC472E" offset="0%"/><stop stop-color="#FC472E" offset=".332%"/><stop stop-color="#893CD8" offset="100%"/></linearGradient><path id="g" d="M.972 22.006c.284.096.64.05 1.026-.162l13.342-7.37-3.435-3.45L.972 22.006"/><path id="h" d="M0 .86h74.942v26.8H0V.86z"/></defs><g fill="none" fill-rule="evenodd"><rect width="120" height="36" rx="3" fill="#000"/><g transform="translate(9.635 7.024)"><use fill="url(#a)" xlink:href="#b"/><path d="M15.342 14.474l4.55-2.512c.922-.512.922-1.344 0-1.854l-4.567-2.52-3.42 3.434 3.437 3.452" fill="url(#c)"/><use fill="url(#d)" xlink:href="#e"/><use fill="url(#f)" xlink:href="#g"/></g><g transform="translate(36.788 4.83)"><path d="M4.184 1.247c.84 0 1.422.378 1.8.765l-.59.663c-.304-.295-.637-.498-1.2-.498-1.072 0-1.792.83-1.792 2.184 0 1.374.646 2.204 1.856 2.204.333 0 .665-.092.86-.268v-1.3H3.98v-.874h2.097v2.654c-.415.387-1.126.718-1.948.718-1.608 0-2.827-1.105-2.827-3.105 0-1.973 1.256-3.143 2.88-3.143M10.05 4.72c0-.718-.303-1.15-.922-1.15-.536 0-.998.395-1.09 1.15h2.013zM9.1 2.75c1.228 0 1.875.883 1.875 2.145 0 .204-.02.387-.046.498H8.047c.09.82.61 1.282 1.34 1.282.386 0 .718-.12 1.05-.332l.36.663c-.433.285-.977.488-1.55.488-1.257 0-2.235-.875-2.235-2.368C7.013 3.65 8.038 2.75 9.1 2.75zm2.91.948h-.645v-.792l.702-.046.13-1.236h.886V2.86h1.154v.838h-1.154v2.156c0 .534.202.792.637.792.157 0 .342-.046.47-.1l.186.782c-.25.083-.564.166-.924.166-1.053 0-1.44-.664-1.44-1.64V3.698z" fill="#E7E7E7"/><mask id="i" fill="#fff"><use xlink:href="#h"/></mask><path d="M17.084 2.86h1.062v4.524h-1.062V2.86zm-.12-1.392c0-.36.277-.608.655-.608.38 0 .655.25.655.608 0 .35-.276.6-.656.6s-.656-.25-.656-.6zm2.698 2.23h-.647v-.792l.703-.046.13-1.236h.886V2.86h1.154v.838h-1.154v2.156c0 .534.202.792.637.792.158 0 .342-.046.472-.1l.185.782c-.25.083-.564.166-.924.166-1.053 0-1.44-.664-1.44-1.64V3.698zm6.928 2.93c.666 0 1.072-.6 1.072-1.502 0-.912-.406-1.51-1.072-1.51-.665 0-1.06.598-1.06 1.51 0 .903.395 1.502 1.06 1.502m0-3.88c1.136 0 2.162.867 2.162 2.378 0 1.502-1.026 2.37-2.162 2.37-1.127 0-2.15-.868-2.15-2.37 0-1.51 1.023-2.377 2.15-2.377m3.217.111h.877l.074.608h.036c.407-.396.87-.72 1.488-.72.97 0 1.394.655 1.394 1.798v2.838h-1.062v-2.7c0-.747-.21-1.022-.71-1.022-.398 0-.656.192-1.036.56v3.162h-1.06V2.86z" fill="#E7E7E7" mask="url(#i)"/><path d="M54.282 16.592c-.754 0-1.3.21-1.637.627-.337.416-.51 1.08-.52 1.99v.25c0 1.034.173 1.774.52 2.222.345.446.9.67 1.665.67.638 0 1.14-.26 1.5-.775.363-.514.543-1.226.543-2.132 0-.918-.18-1.624-.544-2.115-.36-.492-.87-.738-1.528-.738m.163 6.693c-.482 0-.92-.088-1.318-.265a2.466 2.466 0 0 1-1-.817h-.083c.055.43.082.838.082 1.223v3.034h-1.118V15.78h.91l.154 1.008h.054c.288-.404.622-.693 1.006-.874a3.07 3.07 0 0 1 1.313-.268c.98 0 1.736.333 2.27 1 .53.668.796 1.607.796 2.813 0 1.21-.27 2.15-.81 2.82-.543.67-1.293 1.005-2.255 1.005m5.657-.134h-1.12V12.686h1.12V23.15zm3.906-.786c.697 0 1.245-.19 1.64-.57.398-.383.597-.917.597-1.603v-.663l-1.12.046c-.89.032-1.53.17-1.922.414-.394.244-.59.626-.59 1.14 0 .403.12.71.367.92.245.212.587.317 1.028.317zm2.526.787l-.22-1.048h-.055c-.37.463-.737.775-1.104.937-.365.163-.823.245-1.37.245-.733 0-1.307-.188-1.723-.564-.416-.376-.624-.91-.624-1.607 0-1.488 1.192-2.27 3.58-2.34l1.253-.04v-.46c0-.576-.125-1.004-.375-1.28-.25-.275-.65-.413-1.197-.413-.615 0-1.31.19-2.087.565l-.345-.855c.364-.196.763-.35 1.196-.464a5.21 5.21 0 0 1 1.306-.167c.88 0 1.532.194 1.957.585.424.39.637 1.014.637 1.875v5.03h-.83zm1.48-7.371h1.2l1.618 4.204c.353.96.575 1.652.66 2.078h.053c.06-.23.18-.62.37-1.175.185-.553.794-2.257 1.827-5.108h1.2l-3.173 8.393c-.316.83-.683 1.418-1.104 1.766-.42.348-.936.52-1.546.52-.342 0-.68-.04-1.012-.115v-.895c.247.056.524.082.83.082.767 0 1.315-.432 1.643-1.29l.414-1.05-2.98-7.413zm-34.946 4.6c.356-.356.387-.846.387-1.125 0-1.11-.665-2.837-1.947-2.837-.402 0-.835.202-1.082.51-.263.323-.34.74-.34 1.14 0 1.033.604 2.746 1.932 2.746a1.58 1.58 0 0 0 1.05-.434zm-.447 2.93c-.123-.016-.2-.016-.354-.016-.14 0-.975.03-1.623.25-.34.12-1.33.492-1.33 1.585s1.068 1.88 2.72 1.88c1.484 0 2.272-.708 2.272-1.664 0-.788-.51-1.203-1.684-2.035zm1.097-6.845c.357.292 1.097.91 1.097 2.08 0 1.142-.65 1.682-1.297 2.19-.2.198-.434.418-.434.757 0 .338.233.523.403.662l.557.43c.68.573 1.297 1.096 1.297 2.16 0 1.45-1.408 2.915-4.064 2.915-2.24 0-3.32-1.066-3.32-2.206 0-.556.275-1.34 1.19-1.882.956-.586 2.255-.662 2.95-.71-.218-.276-.464-.57-.464-1.045 0-.265.077-.42.154-.605-.17.016-.34.03-.495.03-1.636 0-2.563-1.218-2.563-2.42 0-.708.324-1.495.988-2.065.88-.724 1.93-.848 2.767-.848h3.183l-.99.555h-.958zm-7.8 5.352c.37-.492.463-1.11.463-1.71 0-1.354-.645-3.94-2.56-3.94-.508 0-1.017.2-1.387.524-.6.54-.71 1.217-.71 1.88 0 1.523.756 4.032 2.623 4.032.6 0 1.22-.293 1.572-.785m-1.927 1.248c-2.452 0-3.763-1.91-3.763-3.635 0-2.015 1.65-3.74 3.995-3.74 2.267 0 3.687 1.77 3.687 3.634 0 1.816-1.404 3.74-3.92 3.74m-6.433-1.248c.37-.492.462-1.11.462-1.71 0-1.354-.648-3.94-2.56-3.94-.51 0-1.02.2-1.388.524-.604.54-.71 1.217-.71 1.88 0 1.523.755 4.032 2.622 4.032.602 0 1.218-.293 1.574-.785m-1.928 1.248c-2.454 0-3.766-1.91-3.766-3.635 0-2.015 1.652-3.74 3.997-3.74 2.268 0 3.687 1.77 3.687 3.634 0 1.816-1.403 3.74-3.917 3.74m-4.946-.242l-2.216.51c-.903.14-1.71.262-2.56.262-4.28 0-5.91-3.14-5.91-5.6 0-3.003 2.31-5.788 6.266-5.788a8.96 8.96 0 0 1 2.372.324c1.164.326 1.707.728 2.047.96l-1.287 1.222-.542.124.388-.62c-.528-.51-1.49-1.454-3.32-1.454-2.45 0-4.295 1.86-4.295 4.567 0 2.908 2.107 5.648 5.488 5.648.994 0 1.505-.203 1.97-.388V20.1l-2.34.123 1.24-.668h3.288l-.404.39c-.11.092-.125.122-.155.247-.016.138-.032.588-.032.74v1.89z" fill="#FFF" mask="url(#i)"/><path d="M38.62 22.377c-.512-.047-.62-.138-.62-.744v-8.758l.01-.1c.062-.542.216-.634.7-.914h-2.22l-1.164.56h1.185v.006-.006 9.552c0 .31-.06.357-.418.82h2.745l.575-.337c-.264-.034-.528-.048-.792-.08m4.862-4.439c.293-.106.446-.2.446-.413 0-.614-.693-1.322-1.525-1.322-.617 0-1.77.477-1.77 2.137 0 .26.03.537.047.813l2.8-1.216zm1.45 4.582c-.17.09-.34.2-.508.275-.51.233-1.034.293-1.497.293-.49 0-1.262-.032-2.047-.6-1.094-.768-1.57-2.09-1.57-3.243 0-2.383 1.942-3.55 3.527-3.55.554 0 1.124.14 1.588.43.768.507.968 1.167 1.076 1.522l-3.618 1.46-1.187.093c.385 1.95 1.71 3.088 3.173 3.088.786 0 1.356-.277 1.88-.537l-.816.77zm1.485-6.719v1.014h-.124V15.8h-.336v-.105h.797v.105h-.337zm1.385 1.014V15.79H47.8l-.315 1.024h-.097l-.316-1.023h-.003v1.024h-.114v-1.12h.193l.286.906h.002l.282-.905h.194v1.12h-.11z" fill="#FFF" mask="url(#i)"/></g></g></svg>