<svg viewBox="0 0 102.65 47.006" width="102.65px" height="47.006px" fill="none" xmlns="http://www.w3.org/2000/svg">
  <path d="M 43.604 25.878 L 48.596 25.878" stroke="#BCBCBC" stroke-width="1.205"/>
  <path d="M 56.616 22.311 L 31.494 22.767" stroke="#BCBCBC" stroke-width="1.205"/>
  <path d="M 26.321 39.919 L 68.749 39.919" stroke="#BCBCBC" stroke-width="1.205"/>
  <path fill-rule="evenodd" clip-rule="evenodd" d="M 14.853 31.633 C 10.896 31.633 7.677 34.896 7.677 38.906 C 7.677 42.917 10.896 46.179 14.853 46.179 C 18.81 46.179 22.029 42.916 22.029 38.906 C 22.029 34.895 18.81 31.633 14.853 31.633 Z M 80.011 31.633 C 76.054 31.633 72.836 34.896 72.836 38.906 C 72.836 42.917 76.055 46.179 80.011 46.179 C 83.968 46.179 87.186 42.916 87.186 38.906 C 87.186 34.895 83.968 31.633 80.011 31.633 Z" stroke="#BCBCBC" stroke-width="1.163"/>
  <path d="M 5.661 39.534 L 1 37.938 C 1 37.938 1.43 29.876 2.347 27.991 C 3.264 26.106 6.81 23.25 7.588 22.926 C 8.367 22.601 25.089 21.912 25.089 21.912 L 42.865 11.653 C 42.865 11.653 61.021 10.124 61.539 11.653 C 62.057 13.182 62.057 21.256 62.057 21.256 C 62.057 21.256 99.878 19.585 101.163 21.256 C 102.447 22.927 102.098 34.179 101.163 35.587 C 100.227 36.997 90.798 36.869 90.798 36.869" stroke="#BCBCBC" stroke-width="1.1" stroke-linecap="round" stroke-linejoin="bevel"/>
  <rect y="7.974" width="22" height="24" fill="white" x="38"/>
  <path d="M 44 2.025 L 43.231 2.886 L 41.692 4.606 L 41.108 5.26 M 44 2.025 L 44.471 1.498 C 44.661 1.286 44.932 1.165 45.217 1.165 L 53.237 1.165 C 53.481 1.165 53.716 1.254 53.899 1.416 L 58.663 5.631 C 58.877 5.821 59 6.094 59 6.38 L 59 25.974 C 59 26.526 58.552 26.974 58 26.974 L 41.52 26.974 C 40.975 26.974 40.53 26.537 40.52 25.992 L 40.161 6.719 C 40.157 6.467 40.247 6.222 40.416 6.034 L 41.108 5.26 M 44 2.025 L 42.731 0.715 C 42.338 0.31 41.688 0.31 41.295 0.715 L 39.674 2.388 C 39.298 2.776 39.298 3.392 39.674 3.78 L 41.108 5.26 M 48.462 6.724 L 53.527 6.724 C 54.464 6.724 54.886 5.55 54.163 4.953 L 52.739 3.776 C 52.56 3.628 52.334 3.547 52.102 3.547 L 48.462 3.547 C 47.909 3.547 47.462 3.995 47.462 4.547 L 47.462 5.724 C 47.462 6.276 47.909 6.724 48.462 6.724 Z" stroke="#343434"/>
  <path d="M 53.125 16.394 C 53.125 16.93 53.04 17.419 52.87 17.859 C 52.7 18.299 52.46 18.675 52.15 18.989 C 51.84 19.302 51.467 19.545 51.03 19.719 C 50.597 19.889 50.117 19.974 49.59 19.974 L 46.915 19.974 L 46.915 12.809 L 49.59 12.809 C 50.117 12.809 50.597 12.895 51.03 13.069 C 51.467 13.239 51.84 13.482 52.15 13.799 C 52.46 14.112 52.7 14.489 52.87 14.929 C 53.04 15.369 53.125 15.857 53.125 16.394 Z M 52.13 16.394 C 52.13 15.954 52.07 15.56 51.95 15.214 C 51.83 14.867 51.66 14.574 51.44 14.334 C 51.22 14.094 50.953 13.91 50.64 13.784 C 50.327 13.657 49.977 13.594 49.59 13.594 L 47.885 13.594 L 47.885 19.189 L 49.59 19.189 C 49.977 19.189 50.327 19.125 50.64 18.999 C 50.953 18.872 51.22 18.69 51.44 18.454 C 51.66 18.214 51.83 17.92 51.95 17.574 C 52.07 17.227 52.13 16.834 52.13 16.394 Z" fill="black"/>
</svg>