<?xml version="1.0" encoding="UTF-8"?>
<svg width="99px" height="40px" viewBox="0 0 99 40" version="1.1" xmlns="http://www.w3.org/2000/svg" xmlns:xlink="http://www.w3.org/1999/xlink">
    <title>Group</title>
    <g id="Page-1" stroke="none" stroke-width="1" fill="none" fill-rule="evenodd">
        <g id="EV_Icon" transform="translate(-596.000000, -506.000000)">
            <g id="Group" transform="translate(597.000000, 507.000000)">
                <path d="M83.9126821,32.669 L94.6686821,30.98 C94.7813753,30.9648256 94.8827458,30.9036412 94.9486821,30.811 L96.8586821,28.125 C96.881626,28.0926155 96.9001241,28.0573009 96.9136821,28.02 C96.9476821,27.922 97.7316821,25.604 97.2006821,23.932 C96.7576821,22.541 95.8026821,21.385 95.4996821,21.041 L94.5986821,15.013 C94.570975,14.8272267 94.4246069,14.6816718 94.2386821,14.655 L86.3706821,13.531 C85.4156821,13.114 74.7236821,8.473 69.3576821,7.372 C66.9216821,6.872 62.1016821,6.575 56.4676821,6.575 C50.4036821,6.575 45.0056821,6.916 42.7136821,7.445 C38.2256821,8.481 25.5956821,14.689 24.4956821,15.233 C23.1216821,15.446 6.29568215,18.071 4.55768215,18.559 C2.74268215,19.067 1.28368215,22.561 0.989682147,23.314 C0.710682147,23.564 -0.0673178531,24.367 0.00468214686,25.435 C0.0726821469,26.475 0.214682147,31.732 0.214682147,31.785 C0.220682147,31.992 0.374682147,32.165 0.579682147,32.195 L8.13968215,33.397 C8.15768215,33.399 8.17468215,33.402 8.19268215,33.402 L8.66268215,33.405" id="Path" stroke="#BCBCBC"></path>
                <path d="M17.1936821,24.087 C13.4458203,24.0908584 10.4085405,27.1281382 10.4046821,30.876 C10.4079903,34.6246423 13.4460398,37.6626919 17.1946821,37.666 C20.9429339,37.6621407 23.9803749,34.6242523 23.9836821,30.876 C23.980374,27.1273577 20.9423245,24.0893081 17.1936821,24.086 L17.1936821,24.087 Z M74.9256821,24.087 C71.1774298,24.0903072 68.1395415,27.1277482 68.1356821,30.876 C68.1389903,34.6246423 71.1770398,37.6626919 74.9256821,37.666 C78.6740962,37.6621416 81.7118238,34.6244141 81.7156821,30.876 C81.7118238,27.1275859 78.6740962,24.0898584 74.9256821,24.086 L74.9256821,24.087 Z M25.6606821,33.756 L63.2646821,33.756" id="Shape" stroke="#BCBCBC"></path>
                <path d="M45.1592134,29.3328849 C45.0113905,29.5281175 44.7929672,29.5483938 44.6299281,29.3820187 C44.4747261,29.2314365 44.4004554,28.9517133 44.4446783,28.6843186 L46.5155068,16.7054956 L41.0175563,16.7054956 C40.8398047,16.7047938 40.6812707,16.5392733 40.6206439,16.2910915 C40.5600171,16.0429096 40.6102054,15.7649066 40.7462976,15.5950714 L53.2308135,0.147401431 C53.3809604,-0.0132964281 53.5834876,-0.0132964281 53.7336344,0.147401431 C53.8888364,0.297983561 53.9631071,0.577706841 53.9188843,0.84510154 L51.8480557,12.7747907 L57.3393902,12.7747907 C57.5171418,12.7754925 57.6756757,12.941013 57.7363026,13.1891948 C57.7969294,13.4373767 57.746741,13.7153797 57.6106489,13.8852148 L45.1592134,29.3328849 Z" id="_Path_" stroke="#050505" fill="#FFFFFF" fill-rule="nonzero"></path>
            </g>
        </g>
    </g>
</svg>