<svg xmlns="http://www.w3.org/2000/svg" width="86" height="86" viewBox="0 0 86 86">
    <g fill="none" fill-rule="evenodd">
        <g fill="#8B8B8C" stroke="#979797" stroke-width=".25">
            <path d="M43 77.045L25 62.074h5.676V50h.948v12.862h-4.336L43 75.93 58.71 62.862h-4.336V60.27h.948v1.805H61zM55 26.612h-.923V14.788H31.923v6.326H31V14h24z"/>
        </g>
        <path fill="#666" d="M43 1C19.841 1 1 19.841 1 43s18.841 42 42 42 42-18.841 42-42S66.159 1 43 1m0 85C19.29 86 0 66.71 0 43S19.29 0 43 0s43 19.29 43 43-19.29 43-43 43" opacity=".2"/>
        <path stroke="#6FC1E6" stroke-linejoin="round" stroke-width="1.5" d="M24.989 23.616l-4.856 11.439 6.861 11.623 29.513 12.528L67.304 33.77 37.791 21.242z"/>
        <path stroke="#5AC1E7" stroke-width=".8" d="M27 32.446C27 31.096 28.085 30 29.423 30c1.34 0 2.423 1.096 2.423 2.446s-1.084 2.446-2.423 2.446c-1.338 0-2.423-1.096-2.423-2.446z"/>
        <g fill="#000">
            <path d="M43.5 44c-1.41 0-3.5-.978-3.5-3.074h.95c0 1.46 1.66 2.068 2.55 2.068.598 0 2.55-.149 2.55-2.074 0-1.952-2.725-2.01-2.841-2.01-1.303-.12-2.214-.548-2.74-1.278a2.546 2.546 0 0 1-.458-1.707c-.002-.24.036-1.205.72-1.97.565-.633 1.4-.955 2.483-.955 2.452 0 3.408 1.699 3.571 2.597l-.932.194c-.014-.074-.377-1.785-2.64-1.785-.81 0-1.414.215-1.792.64-.484.542-.46 1.271-.46 1.278l.003.059-.01.058c-.002.016-.072.522.277.993.357.481 1.057.783 2.023.87 1.272.012 3.746.658 3.746 3.016 0 2.273-1.886 3.08-3.5 3.08"/>
            <path d="M43 34h1v-3h-1zM43 46h1v-3h-1z"/>
        </g>
    </g>
</svg>
