<svg viewBox="0 0 102.163 45.552" width="102.163px" height="45.552px" fill="none" xmlns="http://www.w3.org/2000/svg">
  <defs>
    <clipPath id="clip0_675_14740">
      <rect width="101" height="41" fill="white" transform="translate(29.5789 59.5264)"/>
    </clipPath>
  </defs>
  <g clip-path="url(#clip0_675_14740)" transform="matrix(1, 0, 0, 1, -29, -55)">
    <path d="M119.301 92.0688L128.033 90.2718C128.033 90.2718 130.02 90.0428 129.983 86.7098C129.974 85.7251 129.928 84.7411 129.848 83.7598C129.838 83.6288 128.85 83.4998 128.838 83.3738C128.535 80.1468 127.936 78.4878 127.936 78.4878L126.573 72.2248L124.441 67.9218C121.579 63.2758 120.398 62.0028 120.398 62.0028C100.794 59.8708 90.2828 60.6768 90.2828 60.6768C83.8708 60.6768 78.1628 61.0408 75.7408 61.6018C70.9948 62.7048 57.6408 71.7318 56.4778 72.3108C55.0258 72.5378 37.2359 75.3308 35.3979 75.8488C33.4789 76.3888 31.9369 80.1058 31.6259 80.9068C31.3309 81.1728 30.5079 82.0268 30.5839 83.1628C30.6559 84.2698 30.8059 91.0728 30.8069 91.1298C30.8129 91.3498 30.9749 91.5338 31.1919 91.5648L39.1849 92.8448C39.2049 92.8468 39.2219 92.8488 39.2419 92.8488L39.7379 92.8528M74.5788 75.0428H79.3979H74.5788ZM99.8789 75.0428H104.699H99.8789Z" stroke="#BCBCBC" stroke-width="1.205"/>
    <path fill-rule="evenodd" clip-rule="evenodd" d="M49.5809 85.3867C45.7209 85.3867 42.5809 88.5257 42.5809 92.3867C42.5809 96.2467 45.7209 99.3867 49.5809 99.3867C53.4409 99.3867 56.5809 96.2467 56.5809 92.3867C56.5809 88.5257 53.4409 85.3867 49.5809 85.3867ZM108.389 85.7587C104.529 85.7587 101.389 88.8987 101.389 92.7587C101.389 96.6187 104.529 99.7587 108.389 99.7587C112.249 99.7587 115.389 96.6187 115.389 92.7587C115.389 88.8987 112.249 85.7587 108.389 85.7587Z" stroke="#BCBCBC" stroke-width="1.205"/>
    <path d="M60.1199 92.0128H96.2649" stroke="#BCBCBC" stroke-width="1.205"/>
    <path d="M119.281 71.9541L63.6838 72.6951C63.5738 72.6981 63.5358 72.5501 63.6328 72.4981" stroke="#BCBCBC" stroke-width="1.205"/>
    <rect x="62.0526" y="72" width="7" height="2" fill="white"/>
    <rect x="99.0526" y="74" width="8" height="2" fill="white"/>
  </g>
  <path d="M 66.053 9.293 L 61.152 2.419 C 60.964 2.156 60.661 2 60.337 2 L 55.653 2 M 66.053 9.293 L 53.341 25 M 66.053 9.293 L 58.541 9.293 M 53.341 25 L 40.053 9.293 M 53.341 25 L 48.141 9.293 M 53.341 25 L 58.541 9.293 M 40.053 9.293 L 45.53 2.379 C 45.72 2.14 46.008 2 46.314 2 L 50.453 2 M 40.053 9.293 L 48.141 9.293 M 50.453 2 L 48.141 9.293 M 50.453 2 L 55.653 2 M 48.141 9.293 L 58.541 9.293 M 55.653 2 L 58.541 9.293" stroke="white" stroke-width="12"/>
  <path d="M 66.053 9.293 L 61.152 2.419 C 60.964 2.156 60.661 2 60.337 2 L 55.653 2 M 66.053 9.293 L 53.341 25 M 66.053 9.293 L 58.541 9.293 M 53.341 25 L 40.053 9.293 M 53.341 25 L 48.141 9.293 M 53.341 25 L 58.541 9.293 M 40.053 9.293 L 45.53 2.379 C 45.72 2.14 46.008 2 46.314 2 L 50.453 2 M 40.053 9.293 L 48.141 9.293 M 50.453 2 L 48.141 9.293 M 50.453 2 L 55.653 2 M 48.141 9.293 L 58.541 9.293 M 55.653 2 L 58.541 9.293" stroke="#343434"/>
</svg>