<svg xmlns="http://www.w3.org/2000/svg" width="99" height="41" viewBox="0 0 99 41">
    <g fill="none" fill-rule="evenodd">
        <path stroke="#BCBCBC" d="M84.914 34.669L95.67 32.98a.411.411 0 0 0 .28-.169l1.91-2.686a.444.444 0 0 0 .055-.105c.034-.098.818-2.416.287-4.088-.443-1.391-1.398-2.547-1.701-2.891l-.901-6.028a.425.425 0 0 0-.36-.358l-7.868-1.124c-.955-.417-11.647-5.058-17.013-6.159-2.436-.5-7.256-.797-12.89-.797-6.064 0-11.462.341-13.754.87-4.488 1.036-17.118 7.244-18.218 7.788-1.374.213-18.2 2.838-19.938 3.326-1.815.508-3.274 4.002-3.568 4.755-.279.25-1.057 1.053-.985 2.121.068 1.04.21 6.297.21 6.35.006.207.16.38.365.41l7.56 1.202c.018.002.035.005.053.005l.47.003"/>
        <path stroke="#BCBCBC" d="M18.195 26.087a6.796 6.796 0 0 0-6.789 6.789 6.796 6.796 0 0 0 6.79 6.79 6.796 6.796 0 0 0 6.789-6.79 6.796 6.796 0 0 0-6.79-6.79zM75.927 26.087a6.796 6.796 0 0 0-6.79 6.789 6.796 6.796 0 0 0 6.79 6.79 6.797 6.797 0 0 0 6.79-6.79 6.797 6.797 0 0 0-6.79-6.79zM26.662 35.756h37.604"/>
        <path fill="#FFF" d="M41.983 6.698l-2.538 5.982 24.215-.284-2.706-5.698z"/>
        <path stroke="#050505" d="M59.815 14.874c0 5.413-3.737 9.801-8.346 9.801-4.61 0-8.346-4.388-8.346-9.801C43.123 6.49 51.469 1 51.469 1s8.346 5.49 8.346 13.874zM51.162 5.558v26.21"/>
    </g>
</svg>
