<svg width="102" height="42" viewBox="0 0 102 42" fill="none" xmlns="http://www.w3.org/2000/svg">
<g clip-path="url(#clip0_675_14694)">
<path d="M87.2083 35.4825L98.1816 33.7594C98.2385 33.7517 98.2932 33.7324 98.3423 33.7028C98.3914 33.6731 98.434 33.6337 98.4672 33.5869L100.416 30.8467C100.439 30.8136 100.458 30.7776 100.472 30.7396C100.507 30.6396 101.306 28.2748 100.765 26.569C100.313 25.1499 99.3385 23.9705 99.0294 23.6196L98.1102 17.4698C98.0964 17.3775 98.0532 17.2921 97.9871 17.2263C97.9209 17.1605 97.8353 17.1178 97.7429 17.1046L89.716 15.9579C88.7417 15.5324 77.8337 10.7977 72.3593 9.67443C69.874 9.16433 64.9567 8.86133 59.2089 8.86133C53.0223 8.86133 47.5153 9.20922 45.177 9.7489C40.5983 10.8058 27.7132 17.1392 26.5909 17.6942C25.1892 17.9115 8.02327 20.5896 6.25016 21.0874C4.39849 21.6057 2.91002 25.1703 2.61008 25.9385C2.32544 26.1935 1.53173 27.0128 1.60518 28.1023C1.67455 29.1633 1.81942 34.5265 1.81942 34.5806C1.82554 34.7918 1.98265 34.9683 2.1918 34.9989L9.90452 36.2252C9.92289 36.2272 9.94023 36.2303 9.95859 36.2303L10.4381 36.2333" stroke="#BCBCBC"/>
<path d="M27.7796 36.5909H66.1433M19.1415 26.7266C17.3052 26.7285 15.5446 27.4588 14.2461 28.7573C12.9476 30.0558 12.2173 31.8164 12.2154 33.6528C12.217 35.4895 12.9474 37.2505 14.2461 38.5492C15.5449 39.848 17.3059 40.5783 19.1426 40.5799C20.9791 40.578 22.7398 39.8476 24.0384 38.5489C25.3369 37.2501 26.0671 35.4893 26.0687 33.6528C26.0671 31.8161 25.3368 30.055 24.038 28.7563C22.7393 27.4576 20.9782 26.7272 19.1415 26.7256V26.7266ZM78.0399 26.7266C76.2033 26.7282 74.4425 27.4584 73.1438 28.757C71.845 30.0555 71.1146 31.8162 71.1127 33.6528C71.1143 35.4895 71.8446 37.2505 73.1434 38.5492C74.4421 39.848 76.2031 40.5783 78.0399 40.5799C79.8765 40.578 81.6373 39.8476 82.936 38.5489C84.2347 37.2502 84.9651 35.4894 84.967 33.6528C84.9651 31.8161 84.2347 30.0553 82.936 28.7566C81.6373 27.4579 79.8765 26.7275 78.0399 26.7256V26.7266Z" stroke="#BCBCBC"/>
<path fill-rule="evenodd" clip-rule="evenodd" d="M43.4099 6.94629L40.8206 13.0491L65.5248 12.7594L62.7642 6.94629H43.4099Z" fill="white"/>
<path d="M66.0526 11.2927L61.1516 4.41943C60.964 4.15624 60.6607 4 60.3374 4H55.6526M66.0526 11.2927L53.3414 27M66.0526 11.2927H58.5414M53.3414 27L40.0526 11.2927M53.3414 27L48.1414 11.2927M53.3414 27L58.5414 11.2927M40.0526 11.2927L45.5301 4.37901C45.7197 4.1396 46.0084 4 46.3139 4H50.4526M40.0526 11.2927H48.1414M50.4526 4L48.1414 11.2927M50.4526 4H55.6526M48.1414 11.2927H58.5414M55.6526 4L58.5414 11.2927" stroke="white" stroke-width="4"/>
<path d="M66.0526 11.2927L61.1516 4.41943C60.964 4.15624 60.6607 4 60.3374 4H55.6526M66.0526 11.2927L53.3414 27M66.0526 11.2927H58.5414M53.3414 27L40.0526 11.2927M53.3414 27L48.1414 11.2927M53.3414 27L58.5414 11.2927M40.0526 11.2927L45.5301 4.37901C45.7197 4.1396 46.0084 4 46.3139 4H50.4526M40.0526 11.2927H48.1414M50.4526 4L48.1414 11.2927M50.4526 4H55.6526M48.1414 11.2927H58.5414M55.6526 4L58.5414 11.2927" stroke="#343434"/>
</g>
<defs>
<clipPath id="clip0_675_14694">
<rect width="101" height="41.8283" fill="white" transform="translate(0.578918 0.112305)"/>
</clipPath>
</defs>
</svg>
