<svg xmlns="http://www.w3.org/2000/svg" width="86" height="86" viewBox="0 0 86 86">
    <g fill="none" fill-rule="evenodd">
        <path fill="#666" d="M43 1C19.841 1 1 19.841 1 43s18.841 42 42 42 42-18.841 42-42S66.159 1 43 1m0 85C19.29 86 0 66.71 0 43S19.29 0 43 0s43 19.29 43 43-19.29 43-43 43" opacity=".2"/>
        <path fill="#6FC1E6" d="M29.276 37.02a2 2 0 1 1-.554 3.962 2 2 0 0 1 .554-3.963M68.449 40L53 34.311 53.551 33 69 38.689zM24.362 37L23 36.445l2.057-5.424L31.581 29 32 30.454l-5.842 1.81z"/>
        <path fill="#6FC1E6" d="M59.043 67l-30.61-12.167L21 42.04 22.963 37l1.388.552-1.697 4.357 6.804 11.71 28.744 11.426 10.408-26.73 1.39.553z"/>
        <path fill="#6FC1E6" d="M27.233 39a.726.726 0 0 1-.28-.056l-10.467-4.372c-.394-.165-.588-.637-.432-1.056.155-.42.604-.622.993-.46l10.466 4.372c.395.165.589.637.433 1.055a.768.768 0 0 1-.713.517"/>
        <path fill="#333" d="M43.516 13.98c-.32 0-.64.014-.961.04a11.449 11.449 0 0 0-7.844 4.029c-4.109 4.842-3.511 12.124 1.333 16.234a11.47 11.47 0 0 0 8.395 2.696 11.45 11.45 0 0 0 7.843-4.028 11.443 11.443 0 0 0 2.697-8.394 11.442 11.442 0 0 0-4.03-7.841 11.436 11.436 0 0 0-7.433-2.735M43.476 38a12.407 12.407 0 0 1-8.068-2.97c-5.256-4.458-5.904-12.36-1.445-17.616a12.419 12.419 0 0 1 8.511-4.373c3.32-.267 6.564.766 9.11 2.927a12.418 12.418 0 0 1 4.373 8.509 12.417 12.417 0 0 1-2.928 9.109 12.422 12.422 0 0 1-8.51 4.37c-.35.03-.697.044-1.043.044"/>
        <path fill="#000" d="M43.5 31c-1.41 0-3.5-.978-3.5-3.074h.95c0 1.46 1.66 2.068 2.55 2.068.598 0 2.55-.149 2.55-2.074 0-1.952-2.725-2.01-2.841-2.01-1.303-.12-2.214-.548-2.74-1.278a2.546 2.546 0 0 1-.458-1.707c-.002-.24.036-1.205.72-1.97.565-.633 1.4-.955 2.483-.955 2.452 0 3.408 1.699 3.571 2.597l-.932.194c-.014-.074-.377-1.785-2.64-1.785-.81 0-1.414.215-1.792.64-.484.542-.46 1.271-.46 1.278l.003.059-.01.058c-.002.016-.072.522.277.993.357.481 1.057.783 2.023.87 1.272.012 3.746.658 3.746 3.016 0 2.273-1.886 3.08-3.5 3.08"/>
        <path fill="#FFF" d="M44 21v-3 3z"/>
        <path fill="#000" d="M43 21h1v-3h-1z"/>
        <path fill="#FFF" d="M44 34v-3 3z"/>
        <path fill="#000" d="M43 33h1v-3h-1z"/>
        <path fill="#6FC1E6" d="M56.688 39.969c-.488-.215-.726-.806-.526-1.327.191-.521.754-.776 1.242-.571.487.214.725.806.525 1.326a.954.954 0 0 1-.889.643.853.853 0 0 1-.352-.071m-1.767 4.738c-.495-.205-.734-.807-.533-1.327.19-.522.754-.777 1.24-.573.486.214.725.807.534 1.327-.152.4-.515.644-.887.644a.867.867 0 0 1-.354-.071m-1.774 4.736c-.488-.204-.727-.796-.536-1.327.2-.52.755-.775 1.241-.56.488.204.727.796.536 1.326a.953.953 0 0 1-.889.634.871.871 0 0 1-.352-.073m-1.776 4.738c-.486-.204-.725-.796-.535-1.328.201-.52.754-.776 1.242-.562.495.206.734.807.533 1.328a.95.95 0 0 1-.886.633.873.873 0 0 1-.354-.07m-1.776 4.746c-.486-.215-.724-.807-.524-1.327.191-.532.745-.776 1.24-.571.488.203.726.805.525 1.327a.95.95 0 0 1-.878.643.92.92 0 0 1-.363-.072"/>
    </g>
</svg>
