<svg xmlns="http://www.w3.org/2000/svg" width="86" height="86" viewBox="0 0 86 86">
    <g fill="none" fill-rule="evenodd">
        <path fill="#666" d="M43 1C19.841 1 1 19.841 1 43s18.841 42 42 42 42-18.841 42-42S66.159 1 43 1m0 85C19.29 86 0 66.71 0 43S19.29 0 43 0s43 19.29 43 43-19.29 43-43 43" opacity=".2"/>
        <g fill="#8B8B8C">
            <path d="M35.536 70.127c-1.869 0-3.136-1.487-3.136-2.767V56.457h1.059V67.36c0 .676.788 1.715 2.077 1.715H55.91c1.247 0 2.43-1.004 2.43-2.241V56.457h1.06v10.377c0 1.817-1.66 3.293-3.49 3.293H35.536zM59.4 31.745H58.34v-8.1c0-1.237-1.185-2.415-2.43-2.415H35.536c-1.246 0-2.077 1.178-2.077 2.416v3.893h-1.06v-3.893c0-1.818 1.307-3.468 3.137-3.468h20.375c1.83 0 3.489 1.65 3.489 3.468v8.1z"/>
            <path d="M36 26h20v-1H36zM36 64h20v-1H36zM45.723 67.657c-.679 0-1.23-.547-1.23-1.22 0-.675.551-1.222 1.23-1.222.679 0 1.23.547 1.23 1.221s-.551 1.221-1.23 1.221z"/>
        </g>
        <path fill="#6FC1E6" d="M36.67 57.478l-2.522-2.506.748-.743 1.774 1.762 1.774-1.762.748.743z"/>
        <path fill="#6FC1E6" stroke="#6FC1E6" stroke-width=".25" d="M30.282 51.199H16.518V29.116h40.235v4.732h-1.059v-3.68H17.576v19.98h12.706z"/>
        <path fill="#6FC1E6" stroke="#6FC1E6" stroke-width=".25" d="M30.282 53.828h13.221l6.016 5.975 6.017-5.975H68.93V34.374H30.282v19.454zM49.52 61.29l-6.454-6.41H29.223V33.322h40.765v21.556H55.975l-6.456 6.411z"/>
        <path fill="#FFF" d="M36.635 40.157h12.706-12.706z"/>
        <path fill="#343434" d="M37 41h13v-1H37z"/>
        <path fill="#FFF" d="M36.635 44.364h12.706-12.706z"/>
        <path fill="#343434" d="M37 45h13v-1H37z"/>
        <path fill="#FFF" d="M36.635 48.044h12.706-12.706z"/>
        <path fill="#343434" d="M37 49h13v-1H37z"/>
        <path fill="#FFF" d="M23.4 36.477h6.353H23.4z"/>
        <path fill="#8B8B8C" d="M23 37h6v-1h-6z"/>
        <path fill="#FFF" d="M23.4 40.684h6.353H23.4z"/>
        <path fill="#8B8B8C" d="M23 41h6v-1h-6z"/>
        <path fill="#FFF" d="M23.4 44.364h6.353H23.4z"/>
        <path fill="#8B8B8C" d="M23 45h6v-1h-6z"/>
        <path fill="#343434" d="M60.5 50c-1.41 0-3.5-.978-3.5-3.074h.95c0 1.46 1.66 2.068 2.55 2.068.598 0 2.55-.149 2.55-2.074 0-1.952-2.725-2.01-2.841-2.01-1.303-.12-2.214-.548-2.74-1.278a2.546 2.546 0 0 1-.458-1.707c-.002-.24.036-1.205.72-1.97.565-.633 1.4-.955 2.483-.955 2.452 0 3.408 1.699 3.571 2.597l-.932.194c-.014-.074-.377-1.785-2.64-1.785-.81 0-1.414.215-1.792.64-.484.542-.46 1.271-.46 1.278l.003.059-.01.058c-.002.016-.072.522.277.993.357.481 1.057.783 2.023.87 1.272.012 3.746.658 3.746 3.016 0 2.273-1.886 3.08-3.5 3.08"/>
        <path fill="#343434" d="M60 40h1v-3h-1zM60 52h1v-3h-1z"/>
    </g>
</svg>
