<svg xmlns="http://www.w3.org/2000/svg" width="99" height="37" viewBox="0 0 99 37">
    <g fill="none" fill-rule="evenodd">
        <path stroke="#050505" d="M43.437 13.513h4.611M67.648 13.513h4.612M85.903 28.554l9.728-1.709a.416.416 0 0 0 .284-.17l1.932-2.718a.45.45 0 0 0 .055-.107c.035-.099.828-2.444.29-4.135-.448-1.408-1.414-2.577-1.72-2.925l-1.304-5.958-1.73-4.164c-1.585-3.027-4.18-3.253-4.18-3.253C70.499 1.387 58.135 1 58.135 1c-6.136 0-11.597.346-13.916.88-4.541 1.049-17.32 8.483-18.433 9.033-1.39.216-18.414 2.872-20.172 3.365-1.837.515-3.313 4.05-3.611 4.812-.281.252-1.069 1.065-.997 2.145.07 1.053.213 6.371.214 6.426a.43.43 0 0 0 .369.414l7.649 1.216c.018.002.035.004.054.004l.475.004"/>
        <path stroke="#BCBCBC" d="M18.399 20.692a6.876 6.876 0 0 0-6.87 6.87c0 3.788 3.081 6.868 6.87 6.868 3.787 0 6.869-3.08 6.869-6.869a6.877 6.877 0 0 0-6.87-6.87zM76.51 22.143a6.877 6.877 0 0 0-6.869 6.87 6.877 6.877 0 0 0 6.87 6.869c3.788 0 6.869-3.081 6.869-6.87 0-3.788-3.08-6.869-6.87-6.869z"/>
        <path stroke="#050505" d="M27.296 29.654h40.352"/>
        <path stroke="#BCBCBC" d="M85.536 10.575l-53.204.704c-.103.003-.14-.138-.048-.188"/>
    </g>
</svg>
