<?xml version="1.0" encoding="UTF-8"?>
<svg width="273px" height="175px" viewBox="0 0 273 175" version="1.1" xmlns="http://www.w3.org/2000/svg" xmlns:xlink="http://www.w3.org/1999/xlink">
    <title>AB1A9E9C-7BAF-4B7C-B609-D3357E95DE8D</title>
    <defs>
        <polygon id="path-1" points="0 2.84217094e-14 8.11871309 2.84217094e-14 8.11871309 1.87408876 0 1.87408876"></polygon>
    </defs>
    <g id="Used-Car-Landing-Redesign" stroke="none" stroke-width="1" fill="none" fill-rule="evenodd">
        <g id="Desktop" transform="translate(-801.000000, -3201.000000)">
            <g id="Group-419" transform="translate(801.000000, 3201.000000)">
                <polygon id="Fill-1" fill="#F8F8F8" points="178.889601 131.711 251.538601 131.711 251.538601 104.25 178.889601 104.25"></polygon>
                <polygon id="Fill-2" fill="#000000" points="178.888601 131.711 193.688601 131.711 193.688601 104.25 178.888601 104.25"></polygon>
                <polygon id="Fill-4" fill="#F2F2F2" points="251.538401 131.7113 178.889401 131.7113 193.688401 128.2763 251.442401 128.2763"></polygon>
                <polygon id="Fill-5" fill="#E5E5E5" points="120.340601 98.49 192.990601 98.49 192.990601 71.029 120.340601 71.029"></polygon>
                <polygon id="Fill-6" fill="#000000" points="120.340601 98.49 140.965601 98.49 140.965601 71.029 120.340601 71.029"></polygon>
                <polygon id="Fill-8" fill="#F2F2F2" points="120.340201 98.4899 140.965201 96.8309 192.990201 96.8309 192.990201 98.4899"></polygon>
                <polygon id="Fill-9" fill="#E5E5E5" points="99.1146009 131.711 171.764601 131.711 171.764601 104.25 99.1146009 104.25"></polygon>
                <polygon id="Fill-10" fill="#000000" points="99.1146009 131.711 119.739601 131.711 119.739601 104.25 99.1146009 104.25"></polygon>
                <polygon id="Fill-12" fill="#F2F2F2" points="99.1146009 131.7113 119.739601 128.2763 171.764601 128.2763 171.764601 131.7113"></polygon>
                <polygon id="Fill-13" fill="#E5E5E5" points="199.428601 98.49 272.079601 98.49 272.079601 71.029 199.428601 71.029"></polygon>
                <polygon id="Fill-14" fill="#000000" points="199.428601 98.49 220.053601 98.49 220.053601 71.029 199.428601 71.029"></polygon>
                <polygon id="Fill-16" fill="#F2F2F2" points="220.054101 96.8303 199.429101 98.4903 272.079101 98.4903 272.079101 96.8303"></polygon>
                <polygon id="Fill-17" fill="#E5E5E5" points="159.964601 67.918 232.613601 67.918 232.613601 40.457 159.964601 40.457"></polygon>
                <polygon id="Fill-18" fill="#000000" points="159.964601 67.918 175.797601 67.918 175.797601 40.457 159.964601 40.457"></polygon>
                <polygon id="Fill-20" fill="#1A1919" points="232.613601 40.4567 159.964601 40.4567 175.797601 42.1157 232.517601 42.1157"></polygon>
                <g id="Group-418">
                    <path d="M246.303101,99.744 L244.197101,101.851 C244.032101,102.015 243.940101,102.239 243.940101,102.471 L243.940101,106.716 C243.940101,107.201 244.332101,107.594 244.817101,107.594 L246.303101,107.594 L247.790101,107.594 C248.275101,107.594 248.667101,107.201 248.667101,106.716 L248.667101,102.471 C248.667101,102.239 248.574101,102.015 248.410101,101.851 L246.303101,99.744 Z" id="Fill-21" fill="#EA018A"></path>
                    <path d="M234.155601,129.2191 L212.135601,129.2191 C211.935601,129.2191 211.735601,129.2261 211.535601,129.2401 L203.500601,129.8081 C203.301601,129.8231 203.309601,130.1691 203.509601,130.1691 L227.183601,130.1691 C227.436601,130.1691 227.689601,130.1571 227.941601,130.1351 L234.167601,129.5791 C234.364601,129.5621 234.353601,129.2191 234.155601,129.2191" id="Fill-23" fill="#1A1919"></path>
                    <polygon id="Fill-25" fill="#1A1919" points="231.327501 120.5592 231.060501 125.8282 226.914501 125.8282 226.881501 120.4812"></polygon>
                    <path d="M227.452501,121.2333 C227.482501,121.0773 227.620501,120.9653 227.779501,120.9653 L230.936501,120.9653 C231.096501,120.9653 231.233501,121.0773 231.264501,121.2333 C231.347501,121.6523 231.471501,122.6683 231.471501,124.9883 C231.471501,127.1583 231.362501,128.4553 231.280501,129.1223 C231.240501,129.4493 230.962501,129.6943 230.633501,129.6943 L227.805501,129.6943 C227.639501,129.6943 227.499501,129.5733 227.474501,129.4103 C227.394501,128.8733 227.245501,127.5303 227.245501,124.9883 C227.245501,122.6683 227.369501,121.6523 227.452501,121.2333" id="Fill-27" fill="#1A1919"></path>
                    <path d="M230.662501,125.4918 C230.662501,127.4368 230.785501,129.0128 230.936501,129.0128 C231.088501,129.0128 231.211501,127.4368 231.211501,125.4918 C231.211501,123.5468 231.088501,121.9708 230.936501,121.9708 C230.785501,121.9708 230.662501,123.5468 230.662501,125.4918" id="Fill-29" fill="#11A58C"></path>
                    <path d="M223.933001,121.7025 C223.963001,121.5465 224.101001,121.4345 224.260001,121.4345 L227.795001,121.4345 C227.954001,121.4345 228.092001,121.5465 228.122001,121.7025 C228.205001,122.1205 228.329001,123.1375 228.329001,125.4575 C228.329001,127.6275 228.221001,128.9245 228.139001,129.5905 C228.099001,129.9175 227.821001,130.1635 227.492001,130.1635 L224.565001,130.1635 C224.235001,130.1635 223.956001,129.9175 223.916001,129.5905 C223.835001,128.9245 223.726001,127.6275 223.726001,125.4575 C223.726001,123.1375 223.850001,122.1205 223.933001,121.7025" id="Fill-31" fill="#1A1919"></path>
                    <path d="M227.288401,125.7987 C227.288401,127.8167 227.470401,129.4527 227.693401,129.4527 C227.918401,129.4527 228.100401,127.8167 228.100401,125.7987 C228.100401,123.7807 227.918401,122.1447 227.693401,122.1447 C227.470401,122.1447 227.288401,123.7807 227.288401,125.7987" id="Fill-33" fill="#11A58C"></path>
                    <path d="M207.836301,121.2333 C207.867301,121.0773 208.004301,120.9653 208.163301,120.9653 L211.698301,120.9653 C211.857301,120.9653 211.995301,121.0773 212.026301,121.2333 C212.108301,121.6523 212.233301,122.6683 212.233301,124.9883 C212.233301,127.1583 212.124301,128.4553 212.042301,129.1223 C212.002301,129.4493 211.724301,129.6943 211.395301,129.6943 L208.189301,129.6943 C208.023301,129.6943 207.883301,129.5733 207.858301,129.4103 C207.778301,128.8733 207.629301,127.5303 207.629301,124.9883 C207.629301,122.6683 207.754301,121.6523 207.836301,121.2333" id="Fill-35" fill="#1A1919"></path>
                    <path d="M204.735701,121.7025 C204.766701,121.5465 204.903701,121.4345 205.062701,121.4345 L208.597701,121.4345 C208.756701,121.4345 208.894701,121.5465 208.925701,121.7025 C209.007701,122.1205 209.132701,123.1375 209.132701,125.4575 C209.132701,127.6275 209.023701,128.9245 208.942701,129.5905 C208.902701,129.9175 208.623701,130.1635 208.294701,130.1635 L205.367701,130.1635 C205.037701,130.1635 204.758701,129.9175 204.718701,129.5905 C204.637701,128.9245 204.528701,127.6275 204.528701,125.4575 C204.528701,123.1375 204.653701,122.1205 204.735701,121.7025" id="Fill-37" fill="#1A1919"></path>
                    <polygon id="Fill-39" fill="#1A1919" points="226.509201 127.15 226.223201 128.075 205.552201 128.075 205.314201 127.074"></polygon>
                    <path d="M205.313801,127.0741 L204.558801,123.7841 C204.532801,123.6691 204.523801,123.5501 204.531801,123.4311 L204.753801,120.2591 C204.823801,119.2671 205.424801,118.3901 206.326801,117.9681 L207.171801,117.5721 L208.804801,114.1171 C209.080801,113.5341 209.452801,113.0011 209.905801,112.5421 C210.324801,112.1171 210.869801,111.8431 211.459801,111.7581 C212.484801,111.6101 214.422801,111.4241 217.692801,111.4241 C221.497801,111.4241 223.794801,111.5681 224.831801,111.6541 C225.252801,111.6891 225.660801,111.8221 226.020801,112.0431 L226.317801,112.2231 C226.755801,112.4911 227.111801,112.8741 227.343801,113.3311 L228.963801,116.5111 L230.582801,117.1181 C230.845801,117.2171 231.030801,117.4571 231.056801,117.7371 L231.327801,120.5591 C231.334801,120.6361 231.318801,120.7141 231.277801,120.7801 C231.199801,120.9041 231.059801,121.2801 230.903801,122.4211 C230.665801,124.1591 230.153801,127.7271 230.153801,127.7271 L228.304801,128.0741 C228.304801,128.0741 228.634801,126.1171 228.597801,124.0491 C228.561801,121.9811 228.415801,120.5731 228.012801,120.5731 C227.609801,120.5731 227.462801,122.5311 227.389801,123.6471 C227.329801,124.5701 226.717801,126.5091 226.508801,127.1501 C226.466801,127.2761 226.349801,127.3611 226.217801,127.3611 L205.672801,127.3611 C205.500801,127.3611 205.351801,127.2421 205.313801,127.0741" id="Fill-41" fill="#06C4AB"></path>
                    <path d="M223.309901,126.318 C223.309901,126.631 223.563901,126.885 223.876901,126.885 C224.190901,126.885 224.444901,126.631 224.444901,126.318 C224.444901,126.005 224.190901,125.751 223.876901,125.751 C223.563901,125.751 223.309901,126.005 223.309901,126.318" id="Fill-43" fill="#FFFFFF"></path>
                    <path d="M206.859701,126.318 C206.859701,126.631 207.113701,126.885 207.426701,126.885 C207.740701,126.885 207.994701,126.631 207.994701,126.318 C207.994701,126.005 207.740701,125.751 207.426701,125.751 C207.113701,125.751 206.859701,126.005 206.859701,126.318" id="Fill-45" fill="#FFFFFF"></path>
                    <path d="M221.172201,126.3893 L221.063201,126.1743 C221.005201,126.0603 220.888201,125.9883 220.759201,125.9883 L210.254201,125.9883 C210.125201,125.9883 210.008201,126.0603 209.950201,126.1743 L209.840201,126.3893 C209.725201,126.6163 209.890201,126.8853 210.144201,126.8853 L220.868201,126.8853 C221.123201,126.8853 221.288201,126.6163 221.172201,126.3893" id="Fill-47" fill="#1A1919"></path>
                    <path d="M214.435901,122.0731 C214.435901,121.8541 214.903901,121.6761 215.479901,121.6761 C216.055901,121.6761 216.522901,121.8541 216.522901,122.0731 C216.522901,122.2921 216.055901,122.4701 215.479901,122.4701 C214.903901,122.4701 214.435901,122.2921 214.435901,122.0731 M209.448901,123.6651 L221.510901,123.6651 C221.847901,123.6651 222.086901,123.3361 221.983901,123.0151 L221.423901,121.2921 C221.356901,121.0821 221.177901,120.9281 220.959901,120.8911 C220.190901,120.7611 218.200901,120.4811 215.295901,120.4811 C212.450901,120.4811 210.658901,120.7501 209.943901,120.8831 C209.725901,120.9241 209.549901,121.0831 209.486901,121.2951 L208.971901,123.0271 C208.876901,123.3451 209.115901,123.6651 209.448901,123.6651" id="Fill-49" fill="#1A1919"></path>
                    <path d="M222.788401,121.7323 L222.788401,121.7323 C222.668401,121.2883 222.929401,120.8303 223.372401,120.7053 L224.894401,120.2793 C225.447401,120.1233 226.016401,120.4723 226.127401,121.0363 C226.241401,121.6113 225.831401,122.1583 225.247401,122.2103 L223.672401,122.3483 C223.267401,122.3843 222.894401,122.1253 222.788401,121.7323" id="Fill-51" fill="#1A1919"></path>
                    <path d="M224.419301,121.2303 C224.419301,121.6493 224.758301,121.9883 225.177301,121.9883 C225.596301,121.9883 225.936301,121.6493 225.936301,121.2303 C225.936301,120.8113 225.596301,120.4723 225.177301,120.4723 C224.758301,120.4723 224.419301,120.8113 224.419301,121.2303" id="Fill-53" fill="#11A58C"></path>
                    <path d="M223.050201,121.5155 C223.050201,121.8195 223.297201,122.0655 223.601201,122.0655 C223.904201,122.0655 224.151201,121.8195 224.151201,121.5155 C224.151201,121.2115 223.904201,120.9655 223.601201,120.9655 C223.297201,120.9655 223.050201,121.2115 223.050201,121.5155" id="Fill-55" fill="#FFFFFF"></path>
                    <path d="M208.524801,121.7323 L208.524801,121.7323 C208.644801,121.2883 208.383801,120.8303 207.940801,120.7053 L206.418801,120.2793 C205.865801,120.1233 205.296801,120.4723 205.185801,121.0363 C205.071801,121.6113 205.481801,122.1583 206.065801,122.2103 L207.640801,122.3483 C208.045801,122.3843 208.418801,122.1253 208.524801,121.7323" id="Fill-57" fill="#1A1919"></path>
                    <path d="M206.893901,121.2303 C206.893901,121.6493 206.554901,121.9883 206.135901,121.9883 C205.716901,121.9883 205.376901,121.6493 205.376901,121.2303 C205.376901,120.8113 205.716901,120.4723 206.135901,120.4723 C206.554901,120.4723 206.893901,120.8113 206.893901,121.2303" id="Fill-59" fill="#11A58C"></path>
                    <path d="M208.263101,121.5155 C208.263101,121.8195 208.016101,122.0655 207.712101,122.0655 C207.409101,122.0655 207.162101,121.8195 207.162101,121.5155 C207.162101,121.2115 207.409101,120.9655 207.712101,120.9655 C208.016101,120.9655 208.263101,121.2115 208.263101,121.5155" id="Fill-61" fill="#FFFFFF"></path>
                    <polygon id="Fill-63" fill="#1A1919" points="226.146801 117.559 207.994801 117.559 210.271801 112.966 225.256801 112.966"></polygon>
                    <path d="M207.517901,116.84 L207.069901,116.626 C207.069901,116.377 206.879901,116.17 206.631901,116.149 L205.481901,116.051 C205.170901,116.024 204.893901,116.244 204.846901,116.552 C204.793901,116.909 205.070901,117.23 205.430901,117.23 L206.859901,117.23 L207.234901,117.441 L207.517901,116.84 Z" id="Fill-65" fill="#11A58C"></path>
                    <path d="M227.128301,116.84 L226.566301,113.323 C226.544301,113.182 226.653301,113.054 226.796301,113.054 C226.883301,113.054 226.963301,113.102 227.002301,113.18 L228.555301,116.179 L227.946301,116.745 L227.128301,116.84 Z" id="Fill-67" fill="#1A1919"></path>
                    <path d="M227.128301,116.84 L227.576301,116.626 C227.576301,116.377 227.766301,116.17 228.014301,116.149 L229.164301,116.051 C229.475301,116.024 229.752301,116.244 229.799301,116.552 C229.852301,116.909 229.575301,117.23 229.215301,117.23 L227.786301,117.23 L227.411301,117.441 L227.128301,116.84 Z" id="Fill-69" fill="#11A58C"></path>
                    <path d="M130.088301,115.8051 L130.019301,114.9901 C130.010301,114.8781 129.916301,114.7911 129.804301,114.7911 L127.895301,114.7851 C127.774301,114.7851 127.676301,114.8841 127.678301,115.0051 L127.692301,116.1621 C127.693301,116.2811 127.790301,116.3761 127.908301,116.3771 L129.630301,116.3821 C129.701301,116.3821 129.768301,116.3471 129.809301,116.2901 L130.049301,115.9481 C130.078301,115.9071 130.092301,115.8561 130.088301,115.8051" id="Fill-71" fill="#06C4AB"></path>
                    <polygon id="Fill-73" fill="#1A1919" points="158.384201 125.5013 158.819201 124.6423 158.953201 120.8433 157.941201 119.7033 145.235201 119.7713 137.935201 123.9103 124.770201 123.8153 124.386201 126.2063 124.578201 126.9283 126.602201 127.4223 139.739201 127.4613 143.496201 127.0263 154.109201 126.6253"></polygon>
                    <path d="M153.836301,120.8744 C153.916301,120.7664 154.045301,120.7044 154.180301,120.7044 L155.843301,120.7094 L157.506301,120.7144 C157.641301,120.7144 157.769301,120.7774 157.849301,120.8864 C158.115301,121.2484 158.614301,122.3034 158.606301,125.1284 C158.599301,127.5554 158.225301,128.7524 157.949301,129.3054 C157.817301,129.5694 157.547301,129.7334 157.252301,129.732405 L155.815301,129.7284 L154.380301,129.7244 C154.085301,129.7234 153.815301,129.5574 153.686301,129.2934 C153.413301,128.7384 153.046301,127.5394 153.054301,125.1124 C153.062301,122.2874 153.566301,121.2344 153.836301,120.8744" id="Fill-75" fill="#1A1919"></path>
                    <path d="M135.661501,120.8634 C135.742501,120.7554 135.870501,120.6934 136.005501,120.6934 L137.668501,120.6984 L139.331501,120.7034 C139.466501,120.7034 139.594501,120.7664 139.674501,120.8754 C139.940501,121.2374 140.439501,122.2924 140.431501,125.1174 C140.424501,127.5444 140.050501,128.7414 139.774501,129.2944 C139.642501,129.5584 139.372501,129.7224 139.077501,129.721405 L137.641501,129.7174 L136.205501,129.7134 C135.911501,129.7124 135.640501,129.5464 135.511501,129.2824 C135.238501,128.7274 134.872501,127.5284 134.879501,125.1014 C134.888501,122.2764 135.392501,121.2234 135.661501,120.8634" id="Fill-77" fill="#1A1919"></path>
                    <path d="M143.473001,121.1024 C143.545001,121.0294 143.643001,120.9904 143.744001,120.9904 L145.704001,120.9964 L147.395001,121.0014 C147.506001,121.0014 147.611001,121.0494 147.683001,121.1334 C147.972001,121.4714 148.621001,122.5664 148.613001,125.5624 C148.606001,128.0884 148.138001,129.2184 147.817001,129.6974 C147.681001,129.9004 147.453001,130.0204 147.209001,130.019406 L145.677001,130.0154 L143.918001,130.0104 C143.671001,130.0094 143.440001,129.8854 143.308001,129.6764 C142.987001,129.1704 142.502001,127.9774 142.510001,125.3984 C142.519001,122.4014 143.180001,121.3994 143.473001,121.1024" id="Fill-79" fill="#1A1919"></path>
                    <path d="M125.212301,121.0914 C125.284301,121.0184 125.382301,120.9794 125.483301,120.9794 L127.443301,120.9854 L129.134301,120.9904 C129.244301,120.9904 129.350301,121.0384 129.422301,121.1224 C129.711301,121.4604 130.360301,122.5554 130.352301,125.5514 C130.344301,128.0774 129.877301,129.2074 129.556301,129.6864 C129.420301,129.8894 129.192301,130.0094 128.948301,130.008406 L127.416301,130.0044 L125.657301,129.9994 C125.410301,129.9984 125.179301,129.8744 125.046301,129.6654 C124.726301,129.1594 124.241301,127.9664 124.249301,125.3874 C124.258301,122.3904 124.919301,121.3884 125.212301,121.0914" id="Fill-81" fill="#1A1919"></path>
                    <path d="M156.139001,125.6454 C156.134001,127.2994 156.509001,128.6414 156.978001,128.642402 C157.446001,128.6444 157.829001,127.3044 157.834001,125.6504 C157.839001,123.9964 157.463001,122.6544 156.995001,122.653398 C156.528001,122.6514 156.144001,123.9914 156.139001,125.6454" id="Fill-83" fill="#06C4AB"></path>
                    <path d="M145.582401,125.7828 C145.577401,127.4368 146.076401,128.7798 146.695401,128.780802 C147.315401,128.7828 147.821401,127.4438 147.826401,125.7898 C147.831401,124.1358 147.333401,122.7928 146.713401,122.791798 C146.094401,122.7898 145.587401,124.1288 145.582401,125.7828" id="Fill-85" fill="#06C4AB"></path>
                    <path d="M143.944701,126.5924 L139.398701,126.8964 C139.241701,126.9074 139.083701,126.9124 138.924701,126.9124 L127.503701,126.8784 C127.226701,126.8774 126.950701,126.8614 126.674701,126.8294 L124.822701,126.6144 C124.602701,126.5884 124.425701,126.4234 124.385701,126.2064 L124.154701,124.9454 L123.989701,124.7944 C123.856701,124.6734 123.775701,124.5044 123.763701,124.3244 L123.645701,122.4854 L123.779701,122.4314 L123.782701,121.6174 L124.223701,121.1204 L124.417701,120.2024 C124.449701,120.0464 124.544701,119.9094 124.678701,119.8224 L125.600701,119.2304 L125.683701,118.1484 C125.732701,117.5044 126.195701,116.9674 126.825701,116.8244 L129.705701,116.1684 L132.889701,110.9664 C133.174701,110.5004 133.672701,110.2064 134.217701,110.1814 L142.228701,109.8064 C143.535701,109.7444 144.843701,109.7214 146.151701,109.7344 L154.831701,109.8244 C155.190701,109.8284 155.515701,110.0414 155.662701,110.3694 L158.076701,115.7604 C158.193701,116.0214 158.277701,116.2954 158.327701,116.5774 L158.955701,120.1264 L158.880701,120.2514 L159.534701,120.8264 C159.534701,120.8264 159.597701,122.0564 159.452701,123.2434 C159.307701,124.4314 159.165701,124.9964 159.165701,124.9964 L158.605701,125.1714 L158.729701,122.8614 C158.754701,122.4034 158.701701,121.9454 158.575701,121.5044 L158.324701,120.6304 C158.260701,120.4094 158.048701,120.2644 157.819701,120.2854 L156.791701,120.3794 C156.589701,120.3974 156.420701,120.5414 156.369701,120.7384 L155.217701,125.2504 L149.026701,125.3734 C148.831701,125.3774 148.670701,125.2194 148.670701,125.0234 L148.667701,123.6934 L148.077701,120.6204 C148.040701,120.4264 147.868701,120.2884 147.672701,120.2924 L146.325701,120.3234 C146.163701,120.3264 146.023701,120.4364 145.981701,120.5934 L144.505701,126.1314 C144.436701,126.3894 144.211701,126.5744 143.944701,126.5924" id="Fill-87" fill="#FFFFFF"></path>
                    <path d="M134.578501,118.4901 L134.406501,121.3261 C134.398501,121.4531 134.294501,121.552106 134.167501,121.552106 L133.691501,121.552106 C133.553501,121.5531 133.443501,121.4361 133.452501,121.2981 L133.629501,118.4641 C133.637501,118.3381 133.741501,118.2401 133.867501,118.2391 L134.337501,118.236094 C134.475501,118.2351 134.587501,118.3521 134.578501,118.4901" id="Fill-89" fill="#1A1919"></path>
                    <path d="M139.199601,118.4503 L139.050601,121.3163 C139.044601,121.4433 138.938601,121.5433 138.810601,121.544306 L138.194601,121.544306 C138.056601,121.5453 137.947601,121.4293 137.955601,121.2923 L138.106601,118.4303 C138.112601,118.3033 138.217601,118.2043 138.344601,118.2033 L138.958601,118.198294 C139.095601,118.1973 139.206601,118.3123 139.199601,118.4503" id="Fill-91" fill="#1A1919"></path>
                    <path d="M137.606801,118.464 L137.453801,121.32 C137.445801,121.447 137.340801,121.547 137.213801,121.547 L136.692801,121.547 C136.554801,121.547 136.445801,121.432 136.453801,121.294 L136.612801,118.441 C136.619801,118.315 136.723801,118.216 136.850801,118.215 L137.365801,118.210994 C137.503801,118.21 137.614801,118.326 137.606801,118.464" id="Fill-93" fill="#1A1919"></path>
                    <path d="M136.103901,118.4764 L135.941901,121.3224 C135.933901,121.4494 135.829901,121.5484 135.702901,121.5494 L135.144901,121.5504 C135.005901,121.5504 134.896901,121.4344 134.904901,121.2964 L135.074901,118.4534 C135.081901,118.3274 135.184901,118.2284 135.311901,118.2274 L135.862901,118.223375 C136.000901,118.2214 136.111901,118.3384 136.103901,118.4764" id="Fill-95" fill="#1A1919"></path>
                    <path d="M128.990601,121.3024 L129.198601,118.4964 C129.208601,118.3724 129.310601,118.2754 129.435601,118.2744 L129.859601,118.271394 C129.999601,118.2704 130.110601,118.3884 130.100601,118.5284 L129.903601,121.3364 C129.894601,121.4614 129.791601,121.5594 129.665601,121.5594 L129.229601,121.5604 C129.090601,121.5604 128.979601,121.4414 128.990601,121.3024" id="Fill-97" fill="#1A1919"></path>
                    <path d="M131.587301,118.5153 L131.399301,121.3333 C131.390301,121.4583 131.285301,121.5563 131.159301,121.5573 L130.694301,121.5573 C130.556301,121.5573 130.445301,121.4403 130.455301,121.3013 L130.650301,118.4863 C130.657301,118.3613 130.761301,118.2643 130.887301,118.2633 L131.346301,118.259294 C131.485301,118.2583 131.597301,118.3763 131.587301,118.5153" id="Fill-99" fill="#1A1919"></path>
                    <path d="M133.104901,118.5023 L132.924901,121.3293 C132.916901,121.4553 132.811901,121.5543 132.685901,121.5543 L132.188901,121.5553 C132.049901,121.5553 131.940901,121.4383 131.949901,121.2993 L132.134901,118.4753 C132.143901,118.3493 132.247901,118.2523 132.372901,118.2513 L132.863901,118.247294 C133.002901,118.2463 133.113901,118.3633 133.104901,118.5023" id="Fill-101" fill="#1A1919"></path>
                    <path d="M141.228901,121.7106 L139.742901,121.7066 C139.571901,121.7056 139.436901,121.5626 139.445901,121.3926 L139.618901,118.2616 C139.648901,117.7256 140.085901,117.3036 140.623901,117.2926 L142.141901,117.263574 C142.214901,117.2626 142.286901,117.2906 142.338901,117.3416 L142.741901,117.7326 C142.802901,117.7926 142.832901,117.8786 142.822901,117.9636 L142.577901,119.9726 C142.568901,120.0416 142.542901,120.1066 142.501901,120.1626 L141.470901,121.5876 C141.415901,121.6656 141.325901,121.7106 141.228901,121.7106" id="Fill-103" fill="#1A1919"></path>
                    <polygon id="Fill-105" fill="#0188D6" points="158.327501 116.5775 158.141501 116.6565 158.682501 120.0585 158.880501 120.2515 158.955501 120.1265"></polygon>
                    <path d="M155.487701,117.0587 L155.518701,117.2927 C155.536701,117.4197 155.443701,117.5347 155.315701,117.5457 L154.477701,117.6187 C154.356701,117.6287 154.250701,117.5417 154.235701,117.4207 L154.205701,117.1677 C154.189701,117.0397 154.285701,116.9257 154.414701,116.9167 L155.250701,116.8637 C155.368701,116.8567 155.471701,116.9417 155.487701,117.0587" id="Fill-107" fill="#1A1919"></path>
                    <path d="M152.098001,117.3441 L152.129001,117.5781 C152.147001,117.7051 152.054001,117.8201 151.926001,117.8311 L151.088001,117.9041 C150.968001,117.9141 150.861001,117.8271 150.846001,117.7061 L150.816001,117.4531 C150.801001,117.3251 150.896001,117.2111 151.025001,117.2021 L151.861001,117.1491 C151.979001,117.1421 152.082001,117.2271 152.098001,117.3441" id="Fill-109" fill="#1A1919"></path>
                    <path d="M138.365601,124.8632 L138.636601,125.8452 C138.681601,126.0112 138.556601,126.1752 138.385601,126.1752 L128.957601,126.1842 C128.780601,126.1842 128.655601,126.0132 128.708601,125.8442 L129.001601,124.9182 C129.035601,124.8112 129.135601,124.7372 129.248601,124.7362 L138.111601,124.67219 C138.229601,124.6712 138.334601,124.7492 138.365601,124.8632" id="Fill-111" fill="#1A1919"></path>
                    <path d="M140.060895,118.7755 C140.058901,119.4575 140.609901,120.0125 141.291901,120.014505 C141.973901,120.0165 142.528901,119.4645 142.530906,118.7825 C142.532901,118.1005 141.981901,117.5465 141.298901,117.544495 C140.617901,117.5425 140.062901,118.0935 140.060895,118.7755" id="Fill-113" fill="#FFFFE7"></path>
                    <path d="M126.077501,117.8273 L126.431501,117.4463 C126.473501,117.4023 126.530501,117.3773 126.591501,117.378271 L128.017501,117.3823 C128.366501,117.3833 128.643501,117.6763 128.624501,118.0253 L128.609501,118.2873 L128.553501,119.3153 L128.485501,120.5153 L128.456501,121.0543 L128.430501,121.5293 C128.423501,121.6523 128.320501,121.7493 128.197501,121.748308 L126.974501,121.7453 C126.885501,121.7443 126.804501,121.6923 126.765501,121.6113 L126.104501,120.1913 L126.019501,117.9833 C126.016501,117.9253 126.038501,117.8693 126.077501,117.8273" id="Fill-115" fill="#1A1919"></path>
                    <path d="M127.869501,121.409805 C127.506501,121.4088 127.211501,121.1128 127.213491,120.7488 C127.214501,120.3858 127.510501,120.0908 127.873501,120.09279 C128.153501,120.09279 128.390501,120.2688 128.485501,120.5148 L128.456501,121.0538 C128.346501,121.2658 128.124501,121.4108 127.869501,121.409805" id="Fill-117" fill="#30D97C"></path>
                    <path d="M139.874398,120.7867 C139.873401,121.1507 140.167401,121.4467 140.531401,121.447703 C140.895401,121.4487 141.190401,121.1547 141.191403,120.7907 C141.192401,120.4267 140.898401,120.1307 140.535401,120.129697 C140.171401,120.1287 139.875401,120.4227 139.874398,120.7867" id="Fill-119" fill="#30D97C"></path>
                    <path d="M148.750401,111.1376 C148.756401,111.0466 148.830401,110.9756 148.921401,110.9736 L149.923401,110.946578 C149.973401,110.9456 150.018401,110.9786 150.030401,111.0266 L151.444401,116.1876 C151.462401,116.2496 151.422401,116.3126 151.358401,116.3236 L148.630401,116.7946 C148.487401,116.8196 148.359401,116.7036 148.370401,116.5596 L148.750401,111.1376 Z" id="Fill-121" fill="#1A1919"></path>
                    <path d="M153.004301,110.9489 L154.893301,115.9109 C154.919301,115.9809 154.871301,116.0569 154.796301,116.0619 L152.474301,116.2299 C152.422301,116.2339 152.374301,116.2019 152.359301,116.1519 L150.781301,111.0259 C150.766301,110.9749 150.803301,110.9229 150.857301,110.9219 L152.883301,110.867877 C152.937301,110.8669 152.984301,110.8989 153.004301,110.9489" id="Fill-123" fill="#1A1919"></path>
                    <path d="M155.344101,110.802373 C155.390101,110.8014 155.432101,110.8284 155.449101,110.8704 L157.501101,115.7174 C157.531101,115.7884 157.483101,115.8674 157.407101,115.8724 L155.882101,115.9834 C155.833101,115.9864 155.788101,115.9584 155.771101,115.9134 L153.767101,110.9534 C153.745101,110.9014 153.783101,110.8444 153.839101,110.8424 L155.344101,110.802373 Z" id="Fill-125" fill="#1A1919"></path>
                    <path d="M147.329501,116.1381 L147.329501,116.1381 C145.762501,116.0131 144.189501,115.9601 142.618501,115.9771 L131.227501,116.1011 L130.437501,116.1351 C130.327501,116.1401 130.256501,116.0201 130.313501,115.9261 L133.296501,111.0631 C133.332501,111.0041 133.391501,110.9631 133.458501,110.9491 C133.842501,110.8721 135.363501,110.6381 139.697501,110.6511 C144.013501,110.6641 146.713501,110.8551 147.501501,110.9191 C147.636501,110.9301 147.737501,111.0461 147.729501,111.1811 L147.477501,116.0081 C147.474501,116.0851 147.406501,116.1441 147.329501,116.1381" id="Fill-127" fill="#1A1919"></path>
                    <path d="M150.038401,109.8925 L150.032391,109.5245 C150.031401,109.4305 150.104401,109.3525 150.198401,109.3495 L153.888401,109.1965 C153.961401,109.1935 154.025401,109.2455 154.037401,109.3175 L154.119401,109.8195 L150.766401,109.8665 C150.522401,109.8705 150.280401,109.8785 150.038401,109.8925 L150.038401,109.8925 Z M147.409401,110.5055 C147.391401,110.6275 147.480401,110.7385 147.603401,110.7455 C147.700401,110.7515 147.788401,110.6885 147.814401,110.5955 L147.836401,110.5215 C147.854401,110.4575 147.907401,110.4095 147.972401,110.3965 L148.290401,110.3335 C149.100401,110.1745 149.921401,110.0855 150.745401,110.0675 L155.318401,109.9705 C155.254401,109.9295 155.184401,109.8965 155.111401,109.8715 L155.113401,109.8715 L155.079401,109.7245 C154.968401,109.2355 154.522401,108.8965 154.021401,108.9205 L150.191401,109.1005 C149.931401,109.1135 149.685401,109.2255 149.505401,109.4145 L148.959401,109.9885 C148.595401,110.0325 148.230401,110.0875 147.869401,110.1555 L147.680401,110.1905 C147.543401,110.2155 147.437401,110.3245 147.416401,110.4615 L147.409401,110.5055 Z" id="Fill-129" fill="#1A1919"></path>
                    <path d="M135.847001,110.0621 L136.393001,109.4881 C136.573001,109.3001 136.819001,109.1871 137.078001,109.1751 L140.909001,108.9941 C141.409001,108.9711 141.856001,109.3101 141.967001,109.7981 L141.971001,109.8181 L141.002001,109.8631 L140.924001,109.3921 C140.912001,109.3201 140.849001,109.2681 140.776001,109.2701 L137.086001,109.4231 C136.993001,109.4271 136.918001,109.5041 136.920001,109.5981 L136.918001,110.0551 L135.367001,110.1271 C135.526001,110.1041 135.686001,110.0821 135.847001,110.0621" id="Fill-131" fill="#1A1919"></path>
                    <path d="M133.586301,110.5026 C133.690301,110.3816 133.815301,110.2846 133.955301,110.2156 C134.041301,110.1976 134.129301,110.1856 134.218301,110.1816 L135.366301,110.1276 C135.162301,110.1576 134.959301,110.1916 134.757301,110.2296 L134.566301,110.2646 C134.493301,110.2786 134.430301,110.3166 134.382301,110.3696 L134.242301,110.3806 C134.108301,110.3896 133.982301,110.4496 133.890301,110.5476 L133.740301,110.7046 L133.416301,110.7036 L133.586301,110.5026 Z" id="Fill-133" fill="#1A1919"></path>
                    <path d="M136.918301,110.0548 L141.002301,109.8638 L141.971301,109.8178 L142.127301,109.8238 L136.413301,110.2218 C136.581301,110.2038 136.749301,110.1878 136.918301,110.1758 L136.918301,110.0548 Z" id="Fill-135" fill="#1A1919"></path>
                    <path d="M134.566801,110.2645 L134.756801,110.2295 C134.959801,110.1915 135.162801,110.1575 135.366801,110.1275 L136.918801,110.0545 L136.918801,110.1755 C136.749801,110.1875 136.581801,110.2035 136.413801,110.2215 L134.381801,110.3695 C134.429801,110.3165 134.493801,110.2785 134.566801,110.2645" id="Fill-137" fill="#1A1919"></path>
                    <polygon id="Fill-139" fill="#1A1919" points="141.871501 109.8226 141.005501 109.8856 141.002501 109.8636"></polygon>
                    <path d="M148.976901,116.4943 L149.358901,116.2803 L151.244901,116.2863 C151.405901,116.2863 151.537901,116.1573 151.539901,115.9963 L151.555901,114.9703 C151.558901,114.8063 151.426901,114.6723 151.262901,114.6713 L149.141901,114.6653 C149.075901,114.6653 149.021901,114.7173 149.018901,114.7833 L148.973901,115.8853 L148.720901,116.1853 C148.658901,116.2613 148.657901,116.3713 148.720901,116.4473 C148.783901,116.5223 148.890901,116.5423 148.976901,116.4943" id="Fill-141" fill="#06C4AB"></path>
                    <path d="M139.224998,125.2897 C139.224001,125.6417 139.508001,125.9267 139.860001,125.927703 C140.211001,125.9287 140.496001,125.6447 140.497004,125.2937 C140.498001,124.9417 140.215001,124.6557 139.863001,124.654697 C139.511001,124.6537 139.226001,124.9377 139.224998,125.2897" id="Fill-143" fill="#1A1919"></path>
                    <path d="M126.856798,125.2528 C126.855801,125.6048 127.139801,125.8898 127.491801,125.891803 C127.842801,125.8928 128.127801,125.6078 128.128811,125.2568 C128.130801,124.9048 127.846801,124.6188 127.495801,124.617797 C127.143801,124.6168 126.857801,124.9008 126.856798,125.2528" id="Fill-145" fill="#1A1919"></path>
                    <path d="M127.510101,119.911303 C126.870101,119.9093 126.353101,119.3893 126.355095,118.7493 C126.357101,118.1093 126.877101,117.5923 127.517101,117.594294 C128.021101,117.5963 128.447101,117.9203 128.606101,118.3693 L128.556101,119.2543 C128.368101,119.6443 127.971101,119.9123 127.510101,119.911303" id="Fill-147" fill="#FFFFE7"></path>
                    <path d="M159.844101,129.2587 L134.110101,129.2587 C133.875101,129.2587 133.641101,129.2657 133.407101,129.2797 L124.016101,129.8477 C123.783101,129.8627 123.794101,130.2077 124.027101,130.2077 L151.697101,130.2077 C151.991101,130.2077 152.287101,130.1967 152.582101,130.1747 L159.858101,129.6187 C160.088101,129.6007 160.075101,129.2587 159.844101,129.2587" id="Fill-149" fill="#1A1919"></path>
                    <path d="M224.773801,98.0143 L249.463801,98.0143 C249.532801,98.0143 249.593801,97.9743 249.622801,97.9133 L249.775801,97.5783 C249.827801,97.4643 249.743801,97.3333 249.617801,97.3333 L225.302801,97.3333 C225.270801,97.3333 225.238801,97.3423 225.210801,97.3603 L224.680801,97.6943 C224.534801,97.7873 224.599801,98.0143 224.773801,98.0143" id="Fill-151" fill="#1A1919"></path>
                    <polygon id="Fill-153" fill="#B92C00" points="246.825601 84.4884 248.010601 84.4884 248.216601 85.0944 247.197601 85.0944"></polygon>
                    <path d="M226.976901,89.2282 L226.976901,89.2282 C226.217901,89.2282 225.602901,91.1322 225.602901,93.4812 C225.602901,95.8292 226.217901,97.7332 226.976901,97.7332 L226.976901,97.7332 L229.731901,97.7332 L229.731901,89.2282 L226.976901,89.2282 Z" id="Fill-155" fill="#100F0F"></path>
                    <path d="M231.100901,93.4808 C231.100901,95.8288 230.486901,97.7328 229.727901,97.7328 C228.968901,97.7328 228.353901,95.8288 228.353901,93.4808 C228.353901,91.1318 228.968901,89.2288 229.727901,89.2288 C230.486901,89.2288 231.100901,91.1318 231.100901,93.4808" id="Fill-157" fill="#231F20"></path>
                    <path d="M230.661501,93.4808 C230.661501,95.0768 230.243501,96.3708 229.727501,96.3708 C229.212501,96.3708 228.794501,95.0768 228.794501,93.4808 C228.794501,91.8848 229.212501,90.5908 229.727501,90.5908 C230.243501,90.5908 230.661501,91.8848 230.661501,93.4808" id="Fill-159" fill="#100F0F"></path>
                    <path d="M230.113601,93.5809 C230.080601,93.5539 230.080601,93.4079 230.113601,93.3809 L230.497601,93.0649 C230.538601,93.0309 230.578601,93.1209 230.582601,93.2519 C230.585601,93.3279 230.586601,93.4039 230.586601,93.4809 C230.586601,93.5579 230.585601,93.6339 230.582601,93.7099 C230.578601,93.8409 230.538601,93.9309 230.497601,93.8969 L230.113601,93.5809 Z M229.977601,94.3969 C229.960601,94.3049 229.993601,94.2019 230.023601,94.2549 L230.366601,94.8719 C230.402601,94.9359 230.412601,95.0869 230.385601,95.1859 C230.352601,95.3059 230.317601,95.4169 230.278601,95.5179 C230.246601,95.6009 230.197601,95.5719 230.176601,95.4599 L229.977601,94.3969 Z M229.088601,94.8719 L229.431601,94.2549 C229.461601,94.2019 229.494601,94.3049 229.477601,94.3969 L229.278601,95.4599 C229.257601,95.5719 229.208601,95.6009 229.176601,95.5179 C229.137601,95.4169 229.101601,95.3059 229.069601,95.1859 C229.042601,95.0869 229.051601,94.9359 229.088601,94.8719 L229.088601,94.8719 Z M228.869601,93.4809 C228.869601,93.4039 228.870601,93.3269 228.872601,93.2519 C228.876601,93.1209 228.916601,93.0309 228.957601,93.0649 L229.341601,93.3809 C229.374601,93.4079 229.374601,93.5539 229.341601,93.5809 L228.957601,93.8969 C228.916601,93.9309 228.876601,93.8409 228.872601,93.7099 C228.870601,93.6339 228.869601,93.5579 228.869601,93.4809 L228.869601,93.4809 Z M229.477601,92.5649 C229.494601,92.6569 229.461601,92.7599 229.431601,92.7059 L229.088601,92.0899 C229.051601,92.0249 229.042601,91.8739 229.069601,91.7749 C229.101601,91.6549 229.137601,91.5439 229.176601,91.4439 C229.208601,91.3609 229.257601,91.3899 229.278601,91.5019 L229.477601,92.5649 Z M229.759601,92.2849 C229.751601,92.3879 229.704601,92.3879 229.695601,92.2849 L229.592601,91.0969 C229.582601,90.9699 229.611601,90.8459 229.653601,90.8329 C229.677601,90.8269 229.702601,90.8229 229.727601,90.8229 C229.752601,90.8229 229.777601,90.8269 229.801601,90.8329 C229.843601,90.8459 229.873601,90.9699 229.861601,91.0969 L229.759601,92.2849 Z M229.727601,96.1389 C229.702601,96.1389 229.677601,96.1349 229.653601,96.1279 C229.611601,96.1159 229.582601,95.9919 229.592601,95.8639 L229.695601,94.6759 C229.704601,94.5739 229.751601,94.5739 229.759601,94.6759 L229.861601,95.8639 C229.873601,95.9919 229.843601,96.1159 229.801601,96.1279 C229.777601,96.1349 229.752601,96.1389 229.727601,96.1389 L229.727601,96.1389 Z M230.366601,92.0899 L230.023601,92.7059 C229.993601,92.7599 229.960601,92.6569 229.977601,92.5649 L230.176601,91.5019 C230.197601,91.3899 230.246601,91.3609 230.278601,91.4439 C230.317601,91.5439 230.352601,91.6549 230.385601,91.7749 C230.412601,91.8739 230.402601,92.0249 230.366601,92.0899 L230.366601,92.0899 Z M229.727601,90.3619 C229.171601,90.3619 228.719601,91.7579 228.719601,93.4809 C228.719601,95.2039 229.171601,96.5999 229.727601,96.5999 C230.284601,96.5999 230.735601,95.2039 230.735601,93.4809 C230.735601,91.7579 230.284601,90.3619 229.727601,90.3619 L229.727601,90.3619 Z" id="Fill-161" fill="#100F0F"></path>
                    <path d="M237.579501,94.5992 L229.458501,94.5992 L230.088501,95.6102 L230.698501,95.6102 C231.306501,95.6102 231.911501,95.5362 232.502501,95.3902 C233.092501,95.2442 233.697501,95.1702 234.306501,95.1702 L237.579501,95.1702 L240.851501,95.1702 C241.460501,95.1702 242.065501,95.2442 242.655501,95.3902 C243.246501,95.5362 243.851501,95.6102 244.459501,95.6102 L246.123501,95.6102 L246.754501,94.5992 L237.579501,94.5992 Z" id="Fill-163" fill="#100F0F"></path>
                    <path d="M245.127301,89.2282 L245.127301,89.2282 C244.369301,89.2282 243.754301,91.1322 243.754301,93.4812 C243.754301,95.8292 244.369301,97.7332 245.127301,97.7332 L245.127301,97.7332 L247.882301,97.7332 L247.882301,89.2282 L245.127301,89.2282 Z" id="Fill-165" fill="#100F0F"></path>
                    <path d="M249.252301,93.4808 C249.252301,95.8288 248.637301,97.7328 247.879301,97.7328 C247.120301,97.7328 246.505301,95.8288 246.505301,93.4808 C246.505301,91.1318 247.120301,89.2288 247.879301,89.2288 C248.637301,89.2288 249.252301,91.1318 249.252301,93.4808" id="Fill-167" fill="#231F20"></path>
                    <path d="M248.811901,93.4808 C248.811901,95.0768 248.394901,96.3708 247.878901,96.3708 C247.363901,96.3708 246.945901,95.0768 246.945901,93.4808 C246.945901,91.8848 247.363901,90.5908 247.878901,90.5908 C248.394901,90.5908 248.811901,91.8848 248.811901,93.4808" id="Fill-169" fill="#100F0F"></path>
                    <path d="M248.265001,93.5809 C248.232001,93.5539 248.232001,93.4079 248.265001,93.3809 L248.649001,93.0649 C248.690001,93.0309 248.730001,93.1209 248.734001,93.2519 C248.737001,93.3279 248.738001,93.4039 248.738001,93.4809 C248.738001,93.5579 248.737001,93.6339 248.734001,93.7099 C248.730001,93.8409 248.690001,93.9309 248.649001,93.8969 L248.265001,93.5809 Z M248.129001,94.3969 C248.112001,94.3049 248.145001,94.2019 248.175001,94.2549 L248.518001,94.8719 C248.554001,94.9359 248.564001,95.0869 248.536001,95.1859 C248.504001,95.3059 248.468001,95.4169 248.430001,95.5179 C248.398001,95.6009 248.349001,95.5719 248.328001,95.4599 L248.129001,94.3969 Z M247.240001,94.8719 L247.583001,94.2549 C247.613001,94.2019 247.646001,94.3049 247.628001,94.3969 L247.430001,95.4599 C247.409001,95.5719 247.360001,95.6009 247.328001,95.5179 C247.289001,95.4169 247.253001,95.3059 247.221001,95.1859 C247.194001,95.0869 247.203001,94.9359 247.240001,94.8719 L247.240001,94.8719 Z M247.020001,93.4809 C247.020001,93.4039 247.022001,93.3269 247.024001,93.2519 C247.028001,93.1209 247.068001,93.0309 247.109001,93.0649 L247.493001,93.3809 C247.526001,93.4079 247.526001,93.5539 247.493001,93.5809 L247.109001,93.8969 C247.068001,93.9309 247.028001,93.8409 247.024001,93.7099 C247.022001,93.6339 247.020001,93.5579 247.020001,93.4809 L247.020001,93.4809 Z M247.628001,92.5649 C247.646001,92.6569 247.613001,92.7599 247.583001,92.7059 L247.240001,92.0899 C247.203001,92.0249 247.194001,91.8739 247.221001,91.7749 C247.253001,91.6549 247.289001,91.5439 247.328001,91.4439 C247.360001,91.3609 247.409001,91.3899 247.430001,91.5019 L247.628001,92.5649 Z M247.911001,92.2849 C247.903001,92.3879 247.855001,92.3879 247.846001,92.2849 L247.744001,91.0969 C247.734001,90.9699 247.763001,90.8459 247.805001,90.8329 C247.829001,90.8269 247.854001,90.8229 247.879001,90.8229 C247.904001,90.8229 247.928001,90.8269 247.953001,90.8329 C247.995001,90.8459 248.024001,90.9699 248.013001,91.0969 L247.911001,92.2849 Z M247.879001,96.1389 C247.854001,96.1389 247.829001,96.1349 247.805001,96.1279 C247.763001,96.1159 247.734001,95.9919 247.744001,95.8639 L247.846001,94.6759 C247.855001,94.5739 247.903001,94.5739 247.911001,94.6759 L248.013001,95.8639 C248.024001,95.9919 247.995001,96.1159 247.953001,96.1279 C247.928001,96.1349 247.904001,96.1389 247.879001,96.1389 L247.879001,96.1389 Z M248.518001,92.0899 L248.175001,92.7059 C248.145001,92.7599 248.112001,92.6569 248.129001,92.5649 L248.328001,91.5019 C248.349001,91.3899 248.398001,91.3609 248.430001,91.4439 C248.468001,91.5439 248.504001,91.6549 248.536001,91.7749 C248.564001,91.8739 248.554001,92.0249 248.518001,92.0899 L248.518001,92.0899 Z M247.879001,90.3619 C247.323001,90.3619 246.871001,91.7579 246.871001,93.4809 C246.871001,95.2039 247.323001,96.5999 247.879001,96.5999 C248.435001,96.5999 248.886001,95.2039 248.886001,93.4809 C248.886001,91.7579 248.435001,90.3619 247.879001,90.3619 L247.879001,90.3619 Z" id="Fill-171" fill="#C1C1C1"></path>
                    <polygon id="Fill-173" fill="#B92C00" points="228.351901 84.4884 227.167901 84.4884 226.960901 85.0944 227.980901 85.0944"></polygon>
                    <path d="M228.040401,84.1698 L228.040401,84.2968 C228.040401,84.7368 227.683401,85.0938 227.243401,85.0938 L226.637401,85.0938 C226.243401,85.0938 225.873401,84.9048 225.644401,84.5858 C225.445401,84.3108 225.577401,83.9238 225.901401,83.8258 L227.097401,83.4678 C227.566401,83.3268 228.040401,83.6788 228.040401,84.1698" id="Fill-175" fill="#62D8F4"></path>
                    <path d="M247.102901,84.8956 C246.331901,82.1376 245.288901,80.4846 244.661901,79.6726 C244.355901,79.2776 243.894901,79.0366 243.396901,79.0066 C242.156901,78.9316 239.563901,78.7916 237.579901,78.7916 C235.593901,78.7916 233.000901,78.9316 231.760901,79.0066 C231.262901,79.0366 230.801901,79.2776 230.496901,79.6726 C229.869901,80.4846 228.825901,82.1376 228.054901,84.8956 C228.054901,84.8956 226.879901,86.0186 226.879901,87.9436 C226.879901,89.2956 227.073901,92.2146 227.188901,93.8346 C227.234901,94.4786 227.768901,94.9756 228.414901,94.9756 L237.579901,94.9756 L246.743901,94.9756 C247.388901,94.9756 247.922901,94.4786 247.968901,93.8346 C248.083901,92.2146 248.277901,89.2956 248.277901,87.9436 C248.277901,86.0186 247.102901,84.8956 247.102901,84.8956" id="Fill-177" fill="#FFFFFF"></path>
                    <path d="M243.218101,88.58 L245.809101,87.509 C246.704101,87.139 247.659101,87.895 247.504101,88.852 L247.489101,88.942 C247.405101,89.467 246.971101,89.865 246.441101,89.903 C245.680101,89.958 244.339101,89.918 243.448101,89.881 C242.998101,89.862 242.693101,89.418 242.835101,88.991 C242.897101,88.805 243.037101,88.655 243.218101,88.58" id="Fill-179" fill="#1A1919"></path>
                    <path d="M243.975001,89.1776 C243.975001,89.4156 243.783001,89.6076 243.544001,89.6076 C243.307001,89.6076 243.115001,89.4156 243.115001,89.1776 C243.115001,88.9396 243.307001,88.7476 243.544001,88.7476 C243.783001,88.7476 243.975001,88.9396 243.975001,89.1776" id="Fill-181" fill="#FFFFE7"></path>
                    <path d="M245.190801,89.1139 C245.190801,89.3869 244.968801,89.6079 244.696801,89.6079 C244.422801,89.6079 244.202801,89.3869 244.202801,89.1139 C244.202801,88.8409 244.422801,88.6199 244.696801,88.6199 C244.968801,88.6199 245.190801,88.8409 245.190801,89.1139" id="Fill-183" fill="#FFFFE7"></path>
                    <path d="M247.218101,88.6195 C247.218101,89.1245 246.808101,89.5335 246.303101,89.5335 C245.798101,89.5335 245.389101,89.1245 245.389101,88.6195 C245.389101,88.1145 245.798101,87.7055 246.303101,87.7055 C246.808101,87.7055 247.218101,88.1145 247.218101,88.6195" id="Fill-185" fill="#62D8F4"></path>
                    <path d="M247.138101,84.1698 L247.138101,84.2968 C247.138101,84.7368 247.494101,85.0938 247.935101,85.0938 L248.541101,85.0938 C248.935101,85.0938 249.305101,84.9048 249.534101,84.5858 C249.733101,84.3108 249.601101,83.9238 249.277101,83.8258 L248.081101,83.4678 C247.611101,83.3268 247.138101,83.6788 247.138101,84.1698" id="Fill-187" fill="#62D8F4"></path>
                    <path d="M231.939801,88.58 L229.348801,87.509 C228.453801,87.139 227.498801,87.895 227.653801,88.852 L227.668801,88.942 C227.752801,89.467 228.186801,89.865 228.716801,89.903 C229.477801,89.958 230.818801,89.918 231.709801,89.881 C232.159801,89.862 232.464801,89.418 232.322801,88.991 C232.260801,88.805 232.120801,88.655 231.939801,88.58" id="Fill-189" fill="#1A1919"></path>
                    <path d="M237.579501,88.6979 L233.626501,88.6979 C233.244501,88.6979 232.970501,89.0639 233.077501,89.4299 C233.148501,89.6729 233.372501,89.8409 233.626501,89.8409 L237.579501,89.8409 L241.531501,89.8409 C241.785501,89.8409 242.009501,89.6729 242.080501,89.4299 C242.187501,89.0639 241.913501,88.6979 241.531501,88.6979 L237.579501,88.6979 Z" id="Fill-191" fill="#1A1919"></path>
                    <path d="M231.183001,89.1776 C231.183001,89.4156 231.375001,89.6076 231.614001,89.6076 C231.851001,89.6076 232.043001,89.4156 232.043001,89.1776 C232.043001,88.9396 231.851001,88.7476 231.614001,88.7476 C231.375001,88.7476 231.183001,88.9396 231.183001,89.1776" id="Fill-193" fill="#FFFFE7"></path>
                    <path d="M229.967201,89.1139 C229.967201,89.3869 230.189201,89.6079 230.461201,89.6079 C230.735201,89.6079 230.955201,89.3869 230.955201,89.1139 C230.955201,88.8409 230.735201,88.6199 230.461201,88.6199 C230.189201,88.6199 229.967201,88.8409 229.967201,89.1139" id="Fill-195" fill="#FFFFE7"></path>
                    <path d="M227.939801,88.6195 C227.939801,89.1245 228.349801,89.5335 228.854801,89.5335 C229.359801,89.5335 229.768801,89.1245 229.768801,88.6195 C229.768801,88.1145 229.359801,87.7055 228.854801,87.7055 C228.349801,87.7055 227.939801,88.1145 227.939801,88.6195" id="Fill-197" fill="#62D8F4"></path>
                    <path d="M244.430101,80.288 C244.430101,80.288 239.736101,80.175 237.579101,80.175 C235.422101,80.175 230.728101,80.288 230.728101,80.288 C229.580101,81.642 228.717101,85.053 228.717101,85.053 C228.717101,85.053 233.041101,84.933 237.579101,84.933 C242.117101,84.933 246.441101,85.053 246.441101,85.053 C246.441101,85.053 245.577101,81.642 244.430101,80.288" id="Fill-199" fill="#1A1919"></path>
                    <path d="M246.419301,91.8707 L237.579301,91.8707 L228.738301,91.8707 C228.508301,91.8707 228.351301,92.0787 228.383301,92.2847 L246.774301,92.2847 C246.807301,92.0787 246.649301,91.8707 246.419301,91.8707" id="Fill-201" fill="#1A1919"></path>
                    <path d="M230.227901,93.9176 L237.579901,93.9176 L244.929901,93.9176 C245.299901,93.9176 245.651901,93.7826 245.924901,93.5486 L229.232901,93.5486 C229.505901,93.7826 229.857901,93.9176 230.227901,93.9176" id="Fill-203" fill="#1A1919"></path>
                    <polygon id="Fill-205" fill="#1A1919" points="228.654701 92.7648 228.847701 93.0678 246.309701 93.0678 246.503701 92.7648"></polygon>
                    <path d="M246.722001,92.4222 C246.750001,92.3782 246.767001,92.3312 246.775001,92.2842 L228.383001,92.2842 C228.391001,92.3312 228.408001,92.3782 228.436001,92.4222 L228.655001,92.7652 L246.503001,92.7652 L246.722001,92.4222 Z" id="Fill-207" fill="#62D8F4"></path>
                    <path d="M228.938801,93.2111 C229.020801,93.3391 229.120801,93.4521 229.232801,93.5481 L245.924801,93.5481 C246.037801,93.4521 246.136801,93.3391 246.218801,93.2111 L246.309801,93.0681 L228.847801,93.0681 L228.938801,93.2111 Z" id="Fill-209" fill="#62D8F4"></path>
                    <line x1="246.303101" y1="88.6195" x2="246.303101" y2="99.7445" id="Stroke-211" stroke="#EA018A" stroke-width="0.09" stroke-linecap="round"></line>
                    <line x1="127.493501" y1="125.2548" x2="127.493501" y2="136.3788" id="Stroke-213" stroke="#EA018A" stroke-width="0.09" stroke-linecap="round"></line>
                    <path d="M127.493501,136.379 L125.386501,138.486 C125.222501,138.65 125.129501,138.874 125.129501,139.107 L125.129501,143.352 C125.129501,143.836 125.521501,144.229 126.006501,144.229 L127.493501,144.229 L128.979501,144.229 C129.464501,144.229 129.856501,143.836 129.856501,143.352 L129.856501,139.107 C129.856501,138.874 129.764501,138.65 129.599501,138.486 L127.493501,136.379 Z" id="Fill-215" fill="#EA018A"></path>
                    <line x1="223.877301" y1="126.318" x2="223.877301" y2="137.443" id="Stroke-217" stroke="#EA018A" stroke-width="0.09" stroke-linecap="round"></line>
                    <path d="M223.877301,137.4425 L221.771301,139.5495 C221.606301,139.7135 221.514301,139.9375 221.514301,140.1695 L221.514301,144.4145 C221.514301,144.8995 221.906301,145.2925 222.391301,145.2925 L223.877301,145.2925 L225.363301,145.2925 C225.849301,145.2925 226.241301,144.8995 226.241301,144.4145 L226.241301,140.1695 C226.241301,139.9375 226.148301,139.7135 225.984301,139.5495 L223.877301,137.4425 Z" id="Fill-219" fill="#EA018A"></path>
                    <path d="M135.065801,7.0656 L134.994801,6.2286 C134.984801,6.1136 134.888801,6.0256 134.773801,6.0256 L132.815801,6.01959271 C132.690801,6.0186 132.589801,6.1206 132.591801,6.2446 L132.606801,7.4326 C132.608801,7.5536 132.707801,7.6516 132.829801,7.6516 L134.595801,7.6576 C134.668801,7.6576 134.736801,7.6226 134.778801,7.5626 L135.025801,7.2126 C135.055801,7.1696 135.069801,7.1176 135.065801,7.0656" id="Fill-221" fill="#0188D6"></path>
                    <polygon id="Fill-223" fill="#1A1919" points="164.100901 17.0153 164.546901 16.1343 164.684901 12.2353 163.645901 11.0653 150.608901 11.1353 143.117901 15.3823 129.607901 15.2853 129.213901 17.7383 129.412901 18.4793 131.487901 18.9873 144.968901 19.0273 148.824901 18.5803 159.712901 18.1683"></polygon>
                    <path d="M159.434001,11.3949 C159.517001,11.2839 159.649001,11.2199 159.788001,11.2199 L161.494001,11.2259 L163.200001,11.2309 C163.338001,11.2309 163.470001,11.2959 163.552001,11.4069 C163.826001,11.7789 164.337001,12.8619 164.329001,15.7599 C164.322001,18.2509 163.938001,19.4789 163.655001,20.0469 C163.520001,20.3169 163.242001,20.4859 162.940001,20.4849044 L161.466001,20.4799 L159.993001,20.4759 C159.690001,20.4749 159.413001,20.3049 159.280001,20.0339 C159.000001,19.4639 158.624001,18.2339 158.631001,15.7439 C158.640001,12.8439 159.159001,11.7649 159.434001,11.3949" id="Fill-225" fill="#1A1919"></path>
                    <path d="M148.800201,12.2072 C148.874201,12.1332 148.975201,12.0922 149.079201,12.0922 L151.089201,12.0982 L152.824201,12.1032 C152.939201,12.1042 153.046201,12.1532 153.120201,12.2392 C153.417201,12.5862 154.083201,13.7092 154.074201,16.7842 C154.067201,19.3762 153.587201,20.5352 153.258201,21.0272 C153.118201,21.2352 152.884201,21.3582 152.634201,21.3582 L151.062201,21.3532 L149.257201,21.3482 C149.003201,21.3472 148.766201,21.2192 148.630201,21.0052 C148.301201,20.4862 147.804201,19.2622 147.812201,16.6152 C147.821201,13.5402 148.499201,12.5122 148.800201,12.2072" id="Fill-227" fill="#1A1919"></path>
                    <path d="M130.062901,12.1959 C130.135901,12.1219 130.236901,12.0809 130.340901,12.0809 L132.351901,12.0869 L134.085901,12.0919 C134.200901,12.0929 134.307901,12.1419 134.381901,12.2279 C134.678901,12.5749 135.344901,13.6979 135.335901,16.7719 C135.328901,19.3649 134.848901,20.5239 134.519901,21.0159 C134.379901,21.2239 134.146901,21.3469 133.895901,21.3459061 L132.324901,21.3419 L130.518901,21.3359 C130.264901,21.3359 130.027901,21.2079 129.891901,20.9939 C129.562901,20.4749 129.066901,19.2509 129.074901,16.6039 C129.083901,13.5289 129.760901,12.5009 130.062901,12.1959" id="Fill-229" fill="#1A1919"></path>
                    <path d="M161.797201,16.2904 C161.792201,17.9874 162.177201,19.3644 162.657201,19.3664005 C163.138201,19.3674 163.531201,17.9924 163.536201,16.2954 C163.542201,14.5984 163.156201,13.2214 162.676201,13.2193995 C162.195201,13.2184 161.802201,14.5934 161.797201,16.2904" id="Fill-231" fill="#C1C1C1"></path>
                    <path d="M150.965201,17.0101 C150.960201,18.7071 151.471201,20.0851 152.107201,20.0861022 C152.742201,20.0881 153.262201,18.7141 153.268201,17.0171 C153.273201,15.3201 152.761201,13.9421 152.125201,13.9400978 C151.489201,13.9381 150.970201,15.3131 150.965201,17.0101" id="Fill-233" fill="#C1C1C1"></path>
                    <path d="M149.284501,18.1349 L144.619501,18.4469 C144.458501,18.4579 144.295501,18.4629 144.133501,18.4629 L132.413501,18.4279 C132.129501,18.4269 131.845501,18.4109 131.563501,18.3779 L129.662501,18.1569 C129.436501,18.1309 129.255501,17.9609 129.214501,17.7379 L128.977501,16.4439 L128.807501,16.2899 C128.671501,16.1659 128.588501,15.9929 128.576501,15.8079 L128.455501,13.9209 L128.592501,13.8649 L128.595501,13.0299 L129.048501,12.5199 L129.246501,11.5779 C129.279501,11.4169 129.376501,11.2769 129.514501,11.1879 L130.460501,10.5799 L130.546501,9.4709 C130.596501,8.8099 131.071501,8.2589 131.718501,8.1119 L134.673501,7.4379 L137.940501,2.1009 C138.232501,1.6229 138.743501,1.3209 139.303501,1.2949 L147.522501,0.9099 C148.864501,0.8469 150.206501,0.8229 151.549501,0.8369 L160.455501,0.9289 C160.824501,0.9329 161.157501,1.1509 161.308501,1.4879 L163.785501,7.0199 C163.905501,7.2879 163.991501,7.5689 164.043501,7.8579 L164.686501,11.4999 L164.609501,11.6279 L165.281501,12.2179 C165.281501,12.2179 165.346501,13.4799 165.197501,14.6989 C165.049501,15.9169 164.902501,16.4969 164.902501,16.4969 L164.328501,16.6769 L164.455501,14.3069 C164.480501,13.8369 164.427501,13.3659 164.297501,12.9139 L164.040501,12.0179 C163.974501,11.7899 163.757501,11.6409 163.521501,11.6629 L162.466501,11.7589 C162.259501,11.7779 162.085501,11.9259 162.034501,12.1279 L160.851501,16.7579 L154.499501,16.8839 C154.298501,16.8879 154.133501,16.7259 154.133501,16.5249 L154.130501,15.1599 L153.524501,12.0069 C153.486501,11.8079 153.310501,11.6659 153.108501,11.6709 L151.726501,11.7019 C151.560501,11.7059 151.417501,11.8189 151.374501,11.9789 L149.859501,17.6619 C149.789501,17.9259 149.557501,18.1169 149.284501,18.1349" id="Fill-235" fill="#01ACED"></path>
                    <path d="M139.673201,9.8209 L139.496201,12.7309 C139.488201,12.8609 139.381201,12.9629 139.251201,12.9629 L138.763201,12.9629 C138.621201,12.9629 138.508201,12.8439 138.517201,12.7019 L138.699201,9.7939 C138.707201,9.6649 138.814201,9.5639 138.944201,9.5629 L139.426201,9.55989379 C139.569201,9.5589 139.682201,9.6789 139.673201,9.8209" id="Fill-237" fill="#1A1919"></path>
                    <path d="M144.414401,9.7799 L144.262401,12.7209 C144.255401,12.8519 144.147401,12.9539 144.017401,12.9539 L143.384401,12.9559 C143.243401,12.9559 143.130401,12.8369 143.138401,12.6959 L143.293401,9.7589 C143.300401,9.6289 143.406401,9.5269 143.537401,9.5259 L144.167401,9.52089369 C144.309401,9.5199 144.422401,9.6379 144.414401,9.7799" id="Fill-239" fill="#1A1919"></path>
                    <path d="M142.781601,9.7938 L142.622601,12.7238 C142.615601,12.8548 142.508601,12.9568 142.377601,12.9568 L141.843601,12.9578 C141.701601,12.9578 141.589601,12.8388 141.596601,12.6978 L141.760601,9.7708 C141.767601,9.6408 141.874601,9.5388 142.004601,9.5378 L142.533601,9.53479369 C142.675601,9.5338 142.788601,9.6518 142.781601,9.7938" id="Fill-241" fill="#1A1919"></path>
                    <path d="M141.238601,9.807 L141.071601,12.728 C141.063601,12.858 140.956601,12.959 140.826601,12.96 L140.254601,12.961 C140.112601,12.961 140.000601,12.842 140.008601,12.7 L140.181601,9.783 C140.189601,9.654 140.296601,9.553 140.425601,9.551 L140.990601,9.54699374 C141.133601,9.546 141.246601,9.665 141.238601,9.807" id="Fill-243" fill="#1A1919"></path>
                    <path d="M133.938801,12.7064 L134.152801,9.8274 C134.162801,9.7004 134.267801,9.6014 134.396801,9.5994 L134.831801,9.59639385 C134.974801,9.5954 135.088801,9.7164 135.078801,9.8594 L134.875801,12.7414 C134.867801,12.8704 134.759801,12.9694 134.630801,12.9704061 L134.184801,12.9704061 C134.041801,12.9714 133.927801,12.8494 133.938801,12.7064" id="Fill-245" fill="#1A1919"></path>
                    <path d="M136.603901,9.8466 L136.410901,12.7376 C136.401901,12.8666 136.293901,12.9676 136.165901,12.9676 L135.687901,12.9686 C135.544901,12.9686 135.431901,12.8476 135.441901,12.7056 L135.641901,9.8166 C135.650901,9.6886 135.755901,9.5886 135.884901,9.5876 L136.356901,9.58457556 C136.499901,9.5826 136.613901,9.7036 136.603901,9.8466" id="Fill-247" fill="#1A1919"></path>
                    <path d="M138.161501,9.8334 L137.975501,12.7344 C137.968501,12.8644 137.860501,12.9644 137.730501,12.9654062 L137.222501,12.9654062 C137.079501,12.9664 136.966501,12.8454 136.975501,12.7034 L137.166501,9.8054 C137.175501,9.6774 137.280501,9.5764 137.409501,9.5754 L137.913501,9.57139379 C138.057501,9.5704 138.170501,9.6904 138.161501,9.8334" id="Fill-249" fill="#1A1919"></path>
                    <path d="M146.497401,13.1256 L144.972401,13.1206 C144.797401,13.1206 144.658401,12.9736 144.668401,12.7986 L144.845401,9.5866 C144.875401,9.0366 145.325401,8.6026 145.875401,8.5926 L147.434401,8.5626 C147.510401,8.5606 147.582401,8.5896 147.637401,8.6426 L148.049401,9.0436 C148.112401,9.1056 148.143401,9.1926 148.133401,9.2806 L147.881401,11.3426 C147.872401,11.4126 147.846401,11.4796 147.804401,11.5366 L146.746401,12.9996 C146.688401,13.0786 146.596401,13.1256 146.497401,13.1256" id="Fill-251" fill="#1A1919"></path>
                    <polygon id="Fill-253" fill="#0188D6" points="164.043301 7.8583 163.853301 7.9393 164.408301 11.4303 164.609301 11.6283 164.687301 11.5003"></polygon>
                    <path d="M161.129301,8.3519 L161.161301,8.5919 C161.178301,8.7219 161.083301,8.8409 160.952301,8.8519 L160.093301,8.9259 C159.969301,8.9369 159.858301,8.8469 159.844301,8.7239 L159.813301,8.4639 C159.797301,8.3329 159.896301,8.2149 160.027301,8.2069 L160.886301,8.1519 C161.006301,8.1439 161.112301,8.2319 161.129301,8.3519" id="Fill-255" fill="#1A1919"></path>
                    <path d="M157.650801,8.6449 L157.682801,8.8849 C157.700801,9.0149 157.604801,9.1339 157.473801,9.1449 L156.614801,9.2189 C156.490801,9.2299 156.379801,9.1399 156.365801,9.0169 L156.335801,8.7569 C156.319801,8.6259 156.417801,8.5079 156.548801,8.4999 L157.407801,8.4449 C157.528801,8.4369 157.634801,8.5249 157.650801,8.6449" id="Fill-257" fill="#1A1919"></path>
                    <path d="M143.559001,16.3605 L143.837001,17.3675 C143.884001,17.5385 143.756001,17.7065 143.580001,17.7065 L133.906001,17.7155 C133.724001,17.7155 133.595001,17.5405 133.650001,17.3675 L133.951001,16.4175 C133.985001,16.3065 134.087001,16.2315 134.204001,16.2305 L143.299001,16.1634908 C143.420001,16.1625 143.527001,16.2435 143.559001,16.3605" id="Fill-259" fill="#1A1919"></path>
                    <path d="M145.299189,10.1136 C145.296201,10.8136 145.862201,11.3826 146.562201,11.3846053 C147.262201,11.3866 147.831201,10.8216 147.833206,10.1216 C147.835201,9.4216 147.270201,8.8526 146.570201,8.85059471 C145.869201,8.8486 145.301201,9.4136 145.299189,10.1136" id="Fill-261" fill="#FFFFE7"></path>
                    <path d="M130.949601,9.1405 L131.313601,8.7505 C131.355601,8.7045 131.415601,8.6795 131.476601,8.6795 L132.940601,8.6835 C133.299601,8.6845 133.583601,8.9855 133.563601,9.3435 L133.549601,9.6125 L133.490601,10.6665 L133.421601,11.8985 L133.390601,12.4515 L133.363601,12.9395 C133.356601,13.0665 133.252601,13.1645 133.125601,13.1645 L131.871601,13.1605 C131.779601,13.1605 131.695601,13.1065 131.656601,13.0235 L130.977601,11.5665 L130.890601,9.3005 C130.887601,9.2415 130.909601,9.1835 130.949601,9.1405" id="Fill-263" fill="#1A1919"></path>
                    <path d="M132.789401,12.816805 C132.415401,12.8158 132.113401,12.5118 132.115391,12.1388 C132.116401,11.7658 132.419401,11.4638 132.793401,11.4647975 C133.080401,11.4658 133.324401,11.6458 133.421401,11.8988 L133.391401,12.4518 C133.277401,12.6688 133.051401,12.8178 132.789401,12.816805" id="Fill-265" fill="#0188D6"></path>
                    <path d="M145.107798,12.1774 C145.106801,12.5504 145.408801,12.8544 145.781801,12.8554025 C146.154801,12.8564 146.458801,12.5544 146.459803,12.1814 C146.460801,11.8084 146.159801,11.5044 145.785801,11.5033975 C145.412801,11.5024 145.108801,11.8044 145.107798,12.1774" id="Fill-267" fill="#0188D6"></path>
                    <path d="M154.215201,2.276 C154.222201,2.183 154.298201,2.11 154.391201,2.108 L155.419201,2.07997851 C155.470201,2.079 155.516201,2.113 155.529201,2.162 L156.981201,7.458 C156.997201,7.522 156.956201,7.586 156.892201,7.597 L154.092201,8.081 C153.945201,8.106 153.815201,7.988 153.825201,7.84 L154.215201,2.276 Z" id="Fill-269" fill="#1A1919"></path>
                    <path d="M158.580401,2.0826 L160.518401,7.1736 C160.546401,7.2456 160.496401,7.3236 160.420401,7.3296 L158.036401,7.5016 C157.983401,7.5056 157.934401,7.4726 157.919401,7.4216 L156.300401,2.1616 C156.284401,2.1096 156.322401,2.0566 156.377401,2.0546 L158.456401,1.9996 C158.511401,1.9976 158.560401,2.0316 158.580401,2.0826" id="Fill-271" fill="#1A1919"></path>
                    <path d="M160.981801,1.93227407 C161.028801,1.9313 161.071801,1.9593 161.089801,2.0023 L163.194801,6.9753 C163.225801,7.0483 163.175801,7.1293 163.097801,7.1353 L161.533801,7.2483 C161.483801,7.2523 161.437801,7.2233 161.418801,7.1773 L159.362801,2.0873 C159.340801,2.0333 159.379801,1.9753 159.437801,1.9733 L160.981801,1.93227407 Z" id="Fill-273" fill="#1A1919"></path>
                    <path d="M152.757201,7.4074 L152.757201,7.4074 C151.149201,7.2794 149.536201,7.2244 147.923201,7.2414 L136.235201,7.3694 L135.424201,7.4044 C135.311201,7.4094 135.238201,7.2864 135.297201,7.1894 L138.358201,2.1994 C138.394201,2.1394 138.454201,2.0964 138.524201,2.0834 C138.918201,2.0034 140.479201,1.7634 144.926201,1.7764 C149.354201,1.7904 152.125201,1.9864 152.934201,2.0524 C153.072201,2.0634 153.176201,2.1824 153.168201,2.3204 L152.909201,7.2734 C152.905201,7.3534 152.836201,7.4134 152.757201,7.4074" id="Fill-275" fill="#1A1919"></path>
                    <g id="Group-279" transform="translate(152.836788, 0.000000)">
                        <mask id="mask-2" fill="white">
                            <use xlink:href="#path-1"></use>
                        </mask>
                        <g id="Clip-278"></g>
                        <path d="M2.69971309,0.9987 L2.69467451,0.6207 C2.69271309,0.5247 2.76871309,0.4447 2.86471309,0.4407 L6.65071309,0.2847 C6.72571309,0.2817 6.79171309,0.3347 6.80371309,0.4087 L6.88771309,0.9237 L3.44671309,0.9717 C3.19771309,0.9757 2.94871309,0.9847 2.69971309,0.9987 L2.69971309,0.9987 Z M0.00271309272,1.6277 C-0.0172869073,1.7527 0.0757130927,1.8667 0.201713093,1.8737 C0.301713093,1.8797 0.390713093,1.8157 0.418713093,1.7197 L0.440713093,1.6437 C0.459713093,1.5787 0.512713093,1.5287 0.580713093,1.5157 L0.906713093,1.4517 C1.73671309,1.2877 2.57971309,1.1967 3.42571309,1.1787 L8.11871309,1.0787 C8.05271309,1.0357 7.98071309,1.0027 7.90571309,0.9777 L7.90771309,0.9777 L7.87371309,0.8257 C7.75971309,0.3247 7.30271309,-0.0233 6.78771309,0.0007 L2.85771309,0.1867 C2.59071309,0.1987 2.33871309,0.3137 2.15371309,0.5077 L1.59371309,1.0967 C1.21971309,1.1417 0.845713093,1.1987 0.474713093,1.2677 L0.280713093,1.3047 C0.139713093,1.3307 0.0317130927,1.4417 0.0107130927,1.5827 L0.00271309272,1.6277 Z" id="Fill-277" fill="#1A1919" mask="url(#mask-2)"></path>
                    </g>
                    <path d="M140.975001,1.1727 L141.536001,0.5837 C141.719001,0.3897 141.972001,0.2747 142.239001,0.2627 L146.169001,0.0777 C146.683001,0.0527 147.140001,0.4007 147.254001,0.9017 L147.259001,0.9227 L146.265001,0.9687 L146.185001,0.4847 C146.173001,0.4107 146.107001,0.3577 146.033001,0.3607 L142.246001,0.5167 C142.150001,0.5207 142.075001,0.6007 142.076001,0.6967 L142.075001,1.1647 L140.482001,1.2397 C140.646001,1.2147 140.810001,1.1927 140.975001,1.1727" id="Fill-280" fill="#1A1919"></path>
                    <path d="M138.655601,1.6246 C138.760601,1.4996 138.890601,1.4006 139.034601,1.3296 C139.122601,1.3116 139.212601,1.2986 139.302601,1.2946 L140.481601,1.2396 C140.272601,1.2706 140.063601,1.3056 139.856601,1.3436 L139.661601,1.3806 C139.586601,1.3946 139.520601,1.4336 139.471601,1.4886 L139.328601,1.4986 C139.190601,1.5096 139.061601,1.5706 138.966601,1.6706 L138.812601,1.8326 L138.480601,1.8306 L138.655601,1.6246 Z" id="Fill-282" fill="#1A1919"></path>
                    <path d="M142.074601,1.1649 L146.264601,0.9689 L147.259601,0.9219 L147.419601,0.9279 L141.555601,1.3359 C141.727601,1.3179 141.900601,1.3019 142.074601,1.2889 L142.074601,1.1649 Z" id="Fill-284" fill="#1A1919"></path>
                    <path d="M139.661501,1.3803 L139.856501,1.3443 C140.063501,1.3053 140.272501,1.2703 140.481501,1.2393 L142.074501,1.1653 L142.074501,1.2893 C141.900501,1.3013 141.727501,1.3183 141.556501,1.3363 L139.472501,1.4883 C139.520501,1.4333 139.586501,1.3943 139.661501,1.3803" id="Fill-286" fill="#1A1919"></path>
                    <polygon id="Fill-288" fill="#1A1919" points="147.157601 0.9269 146.267601 0.9919 146.264601 0.9689"></polygon>
                    <path d="M154.447601,7.7728 L154.839601,7.5538 L156.774601,7.5598 C156.939601,7.5598 157.075601,7.4278 157.077601,7.2618 L157.094623,6.2098 C157.096601,6.0408 156.962601,5.9028 156.793601,5.9028 L154.617601,5.8958 C154.549601,5.8958 154.493601,5.9498 154.490601,6.0168 L154.444601,7.1478 L154.185601,7.4558 C154.120601,7.5338 154.120601,7.6468 154.184601,7.7248 C154.249601,7.8018 154.359601,7.8218 154.447601,7.7728" id="Fill-290" fill="#0188D6"></path>
                    <path d="M144.440798,16.798 C144.439801,17.159 144.731801,17.452 145.091801,17.4530026 C145.452801,17.454 145.746801,17.163 145.747803,16.802 C145.748801,16.441 145.456801,16.148 145.095801,16.1469974 C144.735801,16.146 144.441801,16.437 144.440798,16.798" id="Fill-292" fill="#1A1919"></path>
                    <path d="M131.749398,16.7604 C131.748401,17.1214 132.040401,17.4144 132.400401,17.4154026 C132.761401,17.4164 133.055401,17.1254 133.056403,16.7644 C133.057401,16.4034 132.765401,16.1104 132.404401,16.1093974 C132.044401,16.1084 131.750401,16.3994 131.749398,16.7604" id="Fill-294" fill="#1A1919"></path>
                    <path d="M132.420301,11.2789027 C131.764301,11.2769 131.233301,10.7429 131.234299,10.0869 C131.236301,9.4309 131.771301,8.8999 132.427301,8.90189437 C132.944301,8.9039 133.382301,9.2359 133.544301,9.6969 L133.493301,10.6049 C133.301301,11.0049 132.893301,11.2799 132.420301,11.2789027" id="Fill-296" fill="#FFFFE7"></path>
                    <polygon id="Fill-298" fill="#100F0F" points="85.2093009 41.6659 84.5833009 42.1489 75.2213009 43.2369 50.5343009 45.9329 41.1503009 46.7819 39.8833009 43.8469 42.4243009 38.9829 46.0173009 38.6569 84.2293009 34.5969"></polygon>
                    <path d="M57.5931009,30.4984 L56.9151009,30.5594 C56.5981009,30.7284 56.2841009,30.9054 55.9771009,31.0934 L48.2741009,35.7844 L49.2351009,35.6974 L57.5931009,30.4984 Z" id="Fill-300" fill="#1A1919"></path>
                    <path d="M89.4789009,37.3678 L88.2359009,36.6748 L88.0039009,34.1198 C87.8119009,33.0658 87.1579009,32.2758 87.0389009,32.1388 L85.5109009,32.2778 C84.9579009,32.3278 84.4419009,31.9958 84.2569009,31.4728 L83.1929009,28.4588 L83.2939009,27.8738 C83.3339009,27.6448 83.1529009,27.4388 82.9199009,27.4508 C80.7939009,27.5598 71.5949009,28.0348 64.4789009,28.4428 C61.8299009,28.5948 59.2509009,29.3188 56.9159009,30.5598 L57.0129009,30.5508 C57.1579009,30.5378 57.2219009,30.7288 57.0979009,30.8058 L49.5619009,35.4948 C49.3469009,35.6278 49.1039009,35.7098 48.8519009,35.7328 L48.2739009,35.7848 C38.7349009,37.8068 35.5929009,40.7638 35.5929009,40.7638 L34.5029009,42.8908 L34.6129009,44.1068 L35.2189009,44.0518 L35.0669009,46.4278 L34.7329009,46.5918 L34.7789009,47.0978 L41.1709009,47.0018 L41.0219009,45.3608 C40.7839009,42.7278 42.7399009,40.3368 45.3769009,40.1508 C47.9279009,39.9708 50.1659009,41.8658 50.3979009,44.4248 L50.5539009,46.1528 L75.2449009,43.4878 L75.1339009,42.2718 C74.8959009,39.6388 76.8519009,37.2478 79.4889009,37.0618 C82.0409009,36.8818 84.2779009,38.7768 84.5089009,41.3368 L84.5989009,42.3268 C88.8589009,41.9408 89.7279009,40.1098 89.7279009,40.1098 L89.4689009,39.6228 L89.4789009,37.3678 Z" id="Fill-302" fill="#06C4AB"></path>
                    <path d="M35.4027009,41.1354 C35.5277009,40.8924 35.7437009,40.7084 36.0037009,40.6234 C37.0517009,40.2804 38.1367009,40.0564 39.2367009,39.9574 L39.4407009,39.9384 C39.9137009,39.8954 40.2067009,40.4414 39.9087009,40.8114 L39.7537009,41.0054 C39.2767009,41.5984 38.5807009,41.9724 37.8227009,42.0414 L35.1407009,42.2834 C34.9927009,42.2974 34.8867009,42.1414 34.9557009,42.0084 L35.4027009,41.1354 Z" id="Fill-304" fill="#100F0F"></path>
                    <path d="M37.3744009,44.1173 C37.3894009,43.9813 37.2754009,43.8663 37.1404009,43.8783 L35.2194009,44.0523 L35.1904009,44.4893 L37.3544009,44.2933 L37.3744009,44.1173 Z" id="Fill-306" fill="#1A1919"></path>
                    <polygon id="Fill-308" fill="#1A1919" points="35.1547009 45.0565 35.1327009 45.4145 37.2517009 45.2225 37.2917009 44.8635"></polygon>
                    <path d="M35.0668009,46.4276 L36.2938009,46.3166 C36.6378009,46.2856 36.9338009,46.0856 37.0988009,45.8006 L35.0948009,45.9816 L35.0668009,46.4276 Z" id="Fill-310" fill="#1A1919"></path>
                    <polygon id="Fill-312" fill="#06C4AB" points="37.3549009 44.2936 35.1909009 44.4896 35.1549009 45.0566 37.2919009 44.8636"></polygon>
                    <path d="M35.0951009,45.9818 L37.0991009,45.8008 C37.1681009,45.6798 37.2151009,45.5428 37.2321009,45.3978 L37.2511009,45.2228 L35.1321009,45.4148 L35.0951009,45.9818 Z" id="Fill-314" fill="#06C4AB"></path>
                    <path d="M82.9203009,29.1696 L84.9473009,31.5776 C85.1353009,31.8006 85.4203009,31.9176 85.7103009,31.8916 L86.7583009,31.7966 C85.6333009,30.4936 83.1923009,28.4586 83.1923009,28.4586 L82.9483009,28.6876 C82.8133009,28.8156 82.8003009,29.0266 82.9203009,29.1696" id="Fill-316" fill="#100F0F"></path>
                    <path d="M84.1283009,31.7394 C84.4023009,32.1254 84.8603009,32.3364 85.3323009,32.2934 L87.0383009,32.1394 C87.0253009,32.1254 87.0183009,32.1154 87.0183009,32.1154 C86.9423009,32.0164 86.8553009,31.9084 86.7583009,31.7964 L85.7103009,31.8914 C85.4203009,31.9174 85.1353009,31.8004 84.9473009,31.5774 L82.9203009,29.1694 C82.8003009,29.0274 82.8133009,28.8154 82.9483009,28.6874 L83.1923009,28.4584 L83.2883009,27.9084 C83.3193009,27.7284 83.1193009,27.5984 82.9683009,27.7014 L82.8283009,27.7954 C82.2723009,28.1724 82.1353009,28.9334 82.5243009,29.4814 L84.1283009,31.7394 Z" id="Fill-318" fill="#06C4AB"></path>
                    <path d="M84.1449009,41.5407 C84.3589009,43.9017 82.6189009,45.9887 80.2569009,46.2027 C77.8959009,46.4167 75.8089009,44.6757 75.5949009,42.3147 C75.3809009,39.9537 77.1229009,37.8667 79.4829009,37.6527 C81.8439009,37.4387 83.9319009,39.1797 84.1449009,41.5407" id="Fill-320" fill="#231F20"></path>
                    <path d="M82.8236009,41.6603 C82.9716009,43.2913 81.7686009,44.7333 80.1376009,44.8813 C78.5066009,45.0293 77.0636009,43.8263 76.9166009,42.1953 C76.7686009,40.5643 77.9706009,39.1213 79.6026009,38.9733 C81.2336009,38.8263 82.6766009,40.0293 82.8236009,41.6603" id="Fill-322" fill="#100F0F"></path>
                    <path d="M81.0814009,41.9196 C80.9754009,41.9016 80.9624009,41.7546 81.0624009,41.7186 L82.2284009,41.2926 C82.3524009,41.2466 82.4864009,41.3256 82.5114009,41.4566 C82.5244009,41.5316 82.5354009,41.6076 82.5424009,41.6856 C82.5494009,41.7636 82.5534009,41.8406 82.5524009,41.9166 C82.5524009,42.0496 82.4354009,42.1516 82.3044009,42.1286 L81.0814009,41.9196 Z M80.7314009,42.7786 C80.6704009,42.6906 80.7644009,42.5776 80.8614009,42.6226 L81.9864009,43.1456 C82.1044009,43.2006 82.1474009,43.3496 82.0734009,43.4566 C81.9834009,43.5866 81.8824009,43.7086 81.7694009,43.8206 C81.6784009,43.9126 81.5234009,43.8976 81.4484009,43.7906 L80.7314009,42.7786 Z M78.0074009,43.5056 L79.0194009,42.7896 C79.1074009,42.7276 79.2204009,42.8216 79.1754009,42.9196 L78.6524009,44.0436 C78.5974009,44.1626 78.4484009,44.2056 78.3414009,44.1306 C78.2114009,44.0406 78.0894009,43.9396 77.9774009,43.8276 C77.8854009,43.7356 77.9004009,43.5816 78.0074009,43.5056 L78.0074009,43.5056 Z M77.1974009,42.1696 C77.1904009,42.0916 77.1874009,42.0146 77.1874009,41.9386 C77.1874009,41.8056 77.3054009,41.7036 77.4354009,41.7266 L78.6594009,41.9356 C78.7654009,41.9536 78.7784009,42.1006 78.6774009,42.1376 L77.5124009,42.5636 C77.3874009,42.6086 77.2534009,42.5296 77.2294009,42.3986 C77.2164009,42.3236 77.2054009,42.2476 77.1974009,42.1696 L77.1974009,42.1696 Z M79.0084009,41.0766 C79.0704009,41.1646 78.9764009,41.2776 78.8784009,41.2326 L77.7544009,40.7096 C77.6364009,40.6546 77.5924009,40.5056 77.6674009,40.3986 C77.7574009,40.2686 77.8584009,40.1466 77.9704009,40.0346 C78.0614009,39.9426 78.2164009,39.9586 78.2924009,40.0646 L79.0084009,41.0766 Z M79.8624009,40.7166 C79.8444009,40.8226 79.6974009,40.8356 79.6604009,40.7346 L79.2344009,39.5696 C79.1884009,39.4446 79.2694009,39.3116 79.3994009,39.2866 C79.4744009,39.2736 79.5514009,39.2626 79.6284009,39.2556 C79.7054009,39.2486 79.7824009,39.2456 79.8584009,39.2456 C79.9924009,39.2456 80.0944009,39.3626 80.0714009,39.4936 L79.8624009,40.7166 Z M80.1124009,44.5996 C80.0344009,44.6066 79.9574009,44.6096 79.8814009,44.6096 C79.7484009,44.6096 79.6464009,44.4926 79.6684009,44.3616 L79.8784009,43.1386 C79.8964009,43.0326 80.0434009,43.0196 80.0794009,43.1206 L80.5054009,44.2856 C80.5514009,44.4106 80.4724009,44.5446 80.3414009,44.5686 C80.2664009,44.5826 80.1894009,44.5926 80.1124009,44.5996 L80.1124009,44.5996 Z M81.7334009,40.3496 L80.7214009,41.0656 C80.6334009,41.1276 80.5194009,41.0336 80.5654009,40.9366 L81.0884009,39.8116 C81.1434009,39.6936 81.2924009,39.6496 81.3994009,39.7246 C81.5294009,39.8146 81.6504009,39.9166 81.7634009,40.0276 C81.8554009,40.1196 81.8404009,40.2736 81.7334009,40.3496 L81.7334009,40.3496 Z M79.5864009,38.7916 C77.8544009,38.9486 76.5774009,40.4796 76.7344009,42.2116 C76.8914009,43.9436 78.4224009,45.2206 80.1544009,45.0636 C81.8864009,44.9066 83.1634009,43.3756 83.0064009,41.6436 C82.8494009,39.9116 81.3184009,38.6346 79.5864009,38.7916 L79.5864009,38.7916 Z" id="Fill-324" fill="#C1C1C1"></path>
                    <path d="M50.0717009,44.6256 C50.2857009,46.9866 48.5447009,49.0736 46.1837009,49.2876 C43.8227009,49.5016 41.7357009,47.7606 41.5217009,45.3996 C41.3077009,43.0386 43.0487009,40.9516 45.4097009,40.7376 C47.7707009,40.5236 49.8577009,42.2646 50.0717009,44.6256" id="Fill-326" fill="#231F20"></path>
                    <path d="M48.7015009,44.7496 C48.8475009,46.3546 47.6645009,47.7726 46.0595009,47.9176 C44.4555009,48.0636 43.0365009,46.8806 42.8905009,45.2756 C42.7465009,43.6716 43.9295009,42.2526 45.5335009,42.1076 C47.1385009,41.9626 48.5565009,43.1456 48.7015009,44.7496" id="Fill-328" fill="#100F0F"></path>
                    <path d="M47.0072009,45.0048 C46.9022009,44.9868 46.8882009,44.8398 46.9892009,44.8028 L48.1542009,44.3778 C48.2792009,44.3318 48.4132009,44.4108 48.4372009,44.5418 C48.4512009,44.6168 48.4622009,44.6928 48.4692009,44.7708 C48.4762009,44.8488 48.4792009,44.9258 48.4792009,45.0018 C48.4792009,45.1348 48.3612009,45.2368 48.2312009,45.2138 L47.0072009,45.0048 Z M46.6582009,45.8638 C46.5972009,45.7758 46.6912009,45.6628 46.7882009,45.7078 L47.9122009,46.2308 C48.0312009,46.2858 48.0742009,46.4348 48.0002009,46.5418 C47.9092009,46.6718 47.8082009,46.7938 47.6962009,46.9058 C47.6052009,46.9978 47.4502009,46.9828 47.3752009,46.8758 L46.6582009,45.8638 Z M43.9342009,46.5908 L44.9452009,45.8748 C45.0332009,45.8128 45.1472009,45.9068 45.1022009,46.0048 L44.5782009,47.1288 C44.5242009,47.2468 44.3742009,47.2908 44.2682009,47.2158 C44.1382009,47.1258 44.0162009,47.0248 43.9032009,46.9128 C43.8122009,46.8208 43.8272009,46.6668 43.9342009,46.5908 L43.9342009,46.5908 Z M43.1242009,45.2548 C43.1172009,45.1768 43.1142009,45.0998 43.1142009,45.0238 C43.1142009,44.8908 43.2322009,44.7888 43.3622009,44.8118 L44.5852009,45.0208 C44.6922009,45.0388 44.7042009,45.1858 44.6042009,45.2228 L43.4392009,45.6478 C43.3142009,45.6938 43.1802009,45.6148 43.1552009,45.4838 C43.1422009,45.4088 43.1312009,45.3328 43.1242009,45.2548 L43.1242009,45.2548 Z M44.9352009,44.1618 C44.9962009,44.2498 44.9032009,44.3628 44.8052009,44.3178 L43.6802009,43.7948 C43.5622009,43.7398 43.5192009,43.5908 43.5932009,43.4838 C43.6842009,43.3538 43.7852009,43.2318 43.8972009,43.1198 C43.9882009,43.0278 44.1432009,43.0438 44.2182009,43.1498 L44.9352009,44.1618 Z M45.7882009,43.8018 C45.7712009,43.9078 45.6242009,43.9208 45.5872009,43.8198 L45.1612009,42.6548 C45.1152009,42.5298 45.1952009,42.3968 45.3252009,42.3718 C45.4012009,42.3588 45.4772009,42.3478 45.5552009,42.3408 C45.6322009,42.3338 45.7092009,42.3308 45.7852009,42.3308 C45.9182009,42.3308 46.0212009,42.4478 45.9982009,42.5788 L45.7882009,43.8018 Z M46.0382009,47.6848 C45.9612009,47.6918 45.8842009,47.6948 45.8082009,47.6948 C45.6752009,47.6948 45.5722009,47.5778 45.5952009,47.4468 L45.8052009,46.2238 C45.8222009,46.1178 45.9692009,46.1048 46.0062009,46.2058 L46.4322009,47.3708 C46.4782009,47.4958 46.3982009,47.6298 46.2682009,47.6538 C46.1932009,47.6678 46.1162009,47.6778 46.0382009,47.6848 L46.0382009,47.6848 Z M47.6592009,43.4348 L46.6472009,44.1508 C46.5602009,44.2128 46.4462009,44.1188 46.4912009,44.0208 L47.0152009,42.8968 C47.0692009,42.7778 47.2192009,42.7348 47.3252009,42.8098 C47.4552009,42.8998 47.5772009,43.0008 47.6902009,43.1128 C47.7812009,43.2048 47.7662009,43.3588 47.6592009,43.4348 L47.6592009,43.4348 Z M45.5132009,41.8768 C43.7802009,42.0338 42.5042009,43.5648 42.6602009,45.2968 C42.8182009,47.0288 44.3492009,48.3058 46.0802009,48.1488 C47.8132009,47.9918 49.0892009,46.4608 48.9332009,44.7288 C48.7762009,42.9968 47.2442009,41.7198 45.5132009,41.8768 L45.5132009,41.8768 Z" id="Fill-330" fill="#C1C1C1"></path>
                    <path d="M78.5629009,31.7819 L77.5169009,30.0379 C76.9699009,29.1259 75.9929009,28.5719 74.9419009,28.5599 L74.8749009,33.4029 L77.9759009,32.9959 C78.5519009,32.9199 78.8609009,32.2799 78.5629009,31.7819" id="Fill-332" fill="#100F0F"></path>
                    <polygon id="Fill-334" fill="#06C4AB" points="65.4994009 29.2018 64.3584009 34.7828 66.5014009 34.5018 66.8254009 29.1098"></polygon>
                    <polygon id="Fill-336" fill="#100F0F" points="66.8256009 29.11 66.5016009 34.501 74.5206009 33.449 74.5216009 28.578"></polygon>
                    <path d="M74.6967009,28.5663 L74.5217009,28.5783 L74.5207009,33.4493 L74.8757009,33.4023 L74.9417009,28.5603 C74.8607009,28.5593 74.7787009,28.5603 74.6967009,28.5663" id="Fill-338" fill="#06C4AB"></path>
                    <path d="M50.4027009,35.8558 C50.0467009,36.0818 50.2467009,36.6338 50.6647009,36.5788 L53.8007009,36.1678 L53.8747009,33.6548 L50.4027009,35.8558 Z" id="Fill-340" fill="#06C4AB"></path>
                    <path d="M65.4994009,29.2018 L64.1454009,29.2958 C61.6444009,29.4678 59.2254009,30.2618 57.1064009,31.6048 L53.8744009,33.6548 L53.8014009,36.1678 L64.3584009,34.7828 L65.4994009,29.2018 Z" id="Fill-342" fill="#100F0F"></path>
                    <path d="M51.9750009,35.1932 L53.4050009,34.2452 C53.9210009,33.9032 54.6180009,34.2212 54.6980009,34.8362 L54.7420009,35.1792 C54.7790009,35.4632 54.5750009,35.7212 54.2890009,35.7512 L52.2520009,35.9652 C51.8130009,36.0112 51.6070009,35.4372 51.9750009,35.1932" id="Fill-344" fill="#C1C1C1"></path>
                    <path d="M63.4486009,36.038 L63.4486009,36.038 C63.2176009,36.121 62.9756009,36.174 62.7306009,36.197 L61.9716009,36.265 C61.8776009,36.274 61.8066009,36.358 61.8156009,36.453 C61.8246009,36.548 61.9086009,36.618 62.0036009,36.61 L64.2426009,36.407 C64.3886009,36.394 64.4966009,36.264 64.4836009,36.118 C64.4696009,35.972 64.3416009,35.864 64.1946009,35.877 L64.1666009,35.88 C63.9216009,35.902 63.6796009,35.955 63.4486009,36.038" id="Fill-346" fill="#06C4AB"></path>
                    <path d="M75.5375009,34.5497 L75.5375009,34.5497 C75.3055009,34.6327 75.0635009,34.6857 74.8195009,34.7077 L74.0595009,34.7767 C73.9655009,34.7857 73.8945009,34.8697 73.9035009,34.9647 C73.9125009,35.0597 73.9965009,35.1297 74.0915009,35.1217 L76.3305009,34.9187 C76.4765009,34.9047 76.5855009,34.7757 76.5715009,34.6297 C76.5585009,34.4837 76.4295009,34.3757 76.2825009,34.3887 L76.2555009,34.3907 C76.0105009,34.4137 75.7685009,34.4667 75.5375009,34.5497" id="Fill-348" fill="#06C4AB"></path>
                    <path d="M86.9974009,32.6871 C86.9914009,32.6881 86.9854009,32.6901 86.9794009,32.6911 L86.9794009,32.6891 L85.2734009,32.8431 C85.1474009,32.8541 85.0354009,32.9291 84.9764009,33.0421 L84.1344009,34.6321 C83.9934009,34.8961 84.2024009,35.2091 84.5004009,35.1831 L87.1844009,34.9401 L87.1834009,34.9371 C87.1884009,34.9371 87.1954009,34.9391 87.2014009,34.9381 C87.4244009,34.9181 87.5594009,34.3971 87.5034009,33.7761 C87.4474009,33.1541 87.2214009,32.6671 86.9974009,32.6871" id="Fill-350" fill="#100F0F"></path>
                    <path d="M35.7289009,41.2482 C35.5819009,41.4982 35.5609009,41.7602 35.6829009,41.8322 C35.8059009,41.9052 36.0249009,41.7602 36.1729009,41.5102 C36.3209009,41.2592 36.3409009,40.9982 36.2179009,40.9252 C36.0959009,40.8532 35.8769009,40.9982 35.7289009,41.2482" id="Fill-352" fill="#62D8F4"></path>
                    <path d="M36.7699009,41.6466 L37.1149009,40.8106 C37.1859009,40.6386 37.3369009,40.5136 37.5189009,40.4746 C37.9269009,40.3896 38.4439009,40.2656 39.0949009,40.2126 C40.0359009,40.1356 38.9929009,41.6596 37.6739009,41.7796 L36.9169009,41.8476 C36.8079009,41.8576 36.7279009,41.7476 36.7699009,41.6466" id="Fill-354" fill="#06C4AB"></path>
                    <path d="M86.5551009,33.8524 C86.5861009,34.1994 86.5331009,34.4874 86.4351009,34.4964 C86.3371009,34.5054 86.2321009,34.2314 86.2011009,33.8844 C86.1691009,33.5374 86.2231009,33.2484 86.3211009,33.2404 C86.4181009,33.2314 86.5231009,33.5054 86.5551009,33.8524" id="Fill-356" fill="#06C4AB"></path>
                    <path d="M87.3070009,33.7843 C87.3500009,34.2503 87.2480009,34.6413 87.0810009,34.6563 C86.9130009,34.6713 86.7440009,34.3053 86.7020009,33.8393 C86.6600009,33.3723 86.7610009,32.9823 86.9280009,32.9673 C87.0950009,32.9523 87.2650009,33.3173 87.3070009,33.7843" id="Fill-358" fill="#06C4AB"></path>
                    <path d="M152.418301,17.8092 L152.843301,18.6182 C154.576301,21.9182 156.743301,24.9722 159.286301,27.6982 L159.287301,27.6982" id="Stroke-360" stroke="#EA018A" stroke-width="0.09" stroke-linecap="round"></path>
                    <path d="M159.287501,27.6986 L159.174501,30.9506 C159.165501,31.2046 159.257501,31.4516 159.431501,31.6376 L162.593501,35.0276 C162.954501,35.4146 163.560501,35.4356 163.947501,35.0746 L165.134501,33.9676 L166.321501,32.8596 C166.708501,32.4986 166.729501,31.8926 166.368501,31.5056 L163.206501,28.1156 C163.032501,27.9296 162.793501,27.8206 162.539501,27.8116 L159.287501,27.6986 Z" id="Fill-362" fill="#EA018A"></path>
                    <path d="M35.7006009,46.7054 L35.7006009,47.6194 C35.7006009,51.3474 36.1986009,55.0584 37.1826009,58.6544" id="Stroke-364" stroke="#EA018A" stroke-width="0.09" stroke-linecap="round"></path>
                    <path d="M37.1830009,58.6547 L35.5710009,61.4807 C35.4450009,61.7017 35.4120009,61.9637 35.4790009,62.2087 L36.7020009,66.6807 C36.8410009,67.1907 37.3690009,67.4917 37.8790009,67.3517 L39.4450009,66.9237 L41.0100009,66.4947 C41.5210009,66.3557 41.8220009,65.8287 41.6820009,65.3177 L40.4580009,60.8467 C40.3910009,60.6017 40.2300009,60.3927 40.0090009,60.2667 L37.1830009,58.6547 Z" id="Fill-366" fill="#EA018A"></path>
                    <path d="M74.3744009,59.1405 L66.3514009,46.6825 L56.8264009,45.8895 C56.6634009,45.8765 56.5174009,45.7825 56.4374009,45.6385 C56.2634009,45.3295 56.4614009,44.9445 56.8124009,44.9055 L69.2614009,43.4995 C69.6174009,43.4595 69.9724009,43.5775 70.2324009,43.8225 L71.3634009,44.8865 C71.3634009,44.8865 75.8094009,50.3665 79.7874009,52.9725 C83.6484009,55.5015 74.3744009,59.1405 74.3744009,59.1405" id="Fill-368" fill="#FABE78"></path>
                    <path d="M99.1029009,38.2272 C94.8019009,38.3262 90.7729009,40.3512 88.1269009,43.7432 L81.4249009,52.3362 C75.3139009,51.5052 73.8469009,60.0132 74.2379009,61.5292 C74.6289009,63.0442 77.0349009,62.4442 77.0349009,62.4442 C78.0909009,63.6272 79.8549009,64.8422 82.4039009,64.5112 C86.1679009,64.0222 87.4399009,59.8662 87.4399009,59.8662 L91.4489009,54.3902 L99.1029009,38.2272 Z" id="Fill-370" fill="#100F0F"></path>
                    <line x1="81.4252009" y1="52.3363" x2="78.1502009" y2="56.2973" id="Stroke-372" stroke="#000000" stroke-width="0.09"></line>
                    <path d="M64.2845009,45.3107 L62.8575009,44.5977 L62.2185009,43.6957 C62.0335009,43.4357 62.0705009,43.0807 62.3035009,42.8637 C62.5495009,42.6357 62.9295009,42.6367 63.1725009,42.8677 L63.6755009,43.3437 L66.2225009,43.9017" id="Fill-374" fill="#FABE78"></path>
                    <path d="M140.916401,18.8785 L147.086401,18.8785 C147.246401,18.8785 147.390401,18.9785 147.446401,19.1285 C147.523401,19.3365 147.408401,19.5675 147.195401,19.6305 L144.786401,20.2295 C144.026401,20.4555 143.214401,20.6925 142.102401,21.3195 L140.187401,22.2675 C139.741401,22.4875 139.314401,22.7455 138.912401,23.0385 L137.210401,24.2735 L137.935401,20.2105 L140.916401,18.8785 Z" id="Fill-376" fill="#E4BE78"></path>
                    <path d="M141.162501,20.9154 L143.697501,17.3094 C143.827501,17.1334 143.783501,16.8844 143.600501,16.7644 C143.333501,16.5864 142.980501,16.6034 142.730501,16.8034 L142.218501,17.2134 C141.610501,17.7004 140.941501,18.1074 140.229501,18.4244 L139.650501,18.5364 C139.362501,18.5924 138.886501,18.6354 138.593501,18.6314 C138.573501,18.6314 138.552501,18.6314 138.527501,18.6314 C138.176501,18.6324 137.840501,18.6244 137.517501,18.6274 C135.989501,18.6394 134.625501,19.6534 134.235501,21.1314 C134.208501,21.2364 134.191501,21.3264 134.190501,21.3934 L133.930501,42.3404 L136.522501,49.3044 C139.408501,49.2354 141.633501,46.7374 141.367501,43.8624 L141.047501,40.3854 L139.075501,26.9524 C138.780501,24.9454 139.433501,22.9334 140.789501,21.4244 C140.951501,21.2454 141.081501,21.0724 141.162501,20.9154" id="Fill-378" fill="#FABE78"></path>
                    <path d="M113.773801,54.3168 C113.773801,54.3168 115.857801,49.8778 120.225801,49.6428 C124.592801,49.4088 132.847801,49.8528 132.847801,49.8528 L134.766801,50.4948 C135.769801,50.8308 136.864801,50.3588 137.308801,49.3998 L137.784801,48.3718 C139.167801,45.3858 138.565801,41.8558 136.272801,39.4958 C135.470801,38.6708 134.149801,38.6558 133.329801,39.4628 L132.576801,40.2028 C132.576801,40.2028 130.184801,40.6008 127.383801,40.7738 C125.228801,40.9068 123.067801,40.6158 121.033801,39.8938 C118.989801,39.1688 115.834801,38.5468 113.707801,40.4788 L113.773801,54.3168 Z" id="Fill-380" fill="#100F0F"></path>
                    <path d="M114.120501,22.119 C114.120501,22.119 115.444501,26.482 115.934501,29.3 C116.144501,30.506 115.754501,31.736 114.885501,32.596 L114.698501,32.78 L110.507501,24.091 L114.120501,22.119 Z" id="Fill-382" fill="#FABE78"></path>
                    <path d="M82.0033009,174.4369 C82.0033009,174.4369 73.8693009,175.0589 65.5473009,174.9759 C59.8363009,174.9199 28.0683009,175.4959 40.0813009,172.6409 C51.8933009,169.8349 68.2283009,169.5439 72.6623009,169.5599 C83.4183009,169.5989 85.2953009,171.3199 85.2953009,171.3199 L94.8153009,171.0559 L82.0033009,174.4369 Z" id="Fill-384" fill="#1A1919"></path>
                    <path d="M18.9935009,111.299 C17.5675009,112.17 19.0945009,117.696 20.4215009,120.118 C21.7475009,122.539 24.4165009,124.519 25.6805009,124.257 L41.6135009,110.943 L28.6645009,109.56 L18.9935009,111.299 Z" id="Fill-386" fill="#1A1919"></path>
                    <polygon id="Fill-388" fill="#FABE78" points="27.0687009 111.6166 16.9307009 116.4526 19.5187009 120.1426 31.0987009 114.6706"></polygon>
                    <path d="" id="Fill-390" fill="#FABE78"></path>
                    <path d="M21.8090009,117.3431 C20.8150009,115.3011 17.7370009,113.7801 10.0590009,118.1071 C3.60900087,121.7421 -0.549999131,126.3721 0.059000869,129.1611 C-0.035999131,127.7391 0.819000869,125.4931 4.84100087,122.3911 C11.7170009,117.0891 18.5150009,116.5831 19.5190009,118.2761 C20.9400009,120.6761 18.6560009,121.3341 16.1950009,122.4571 C17.6530009,121.8711 18.8440009,121.8171 19.7310009,121.6271 C21.5120009,121.2461 22.6150009,118.9971 21.8090009,117.3431" id="Fill-392" fill="#FFFFFF"></path>
                    <path d="M16.1947009,122.4569 C15.6777009,122.6639 15.1287009,122.9399 14.5467009,123.3099 C15.0777009,122.9849 15.6407009,122.7089 16.1947009,122.4569" id="Fill-394" fill="#FABE78"></path>
                    <path d="M19.5189009,118.2762 C18.5149009,116.5832 11.7169009,117.0892 4.84090087,122.3912 C0.818900869,125.4932 -0.036099131,127.7382 0.058900869,129.1612 C0.173900869,129.6922 0.460900869,130.1572 0.938900869,130.5352 C3.56890087,132.6142 7.04690087,131.2562 10.9929009,126.5482 C12.2799009,125.0112 13.4669009,123.9962 14.5459009,123.3102 L14.5459009,123.3092 C15.1279009,122.9392 15.6779009,122.6642 16.1949009,122.4572 C18.6559009,121.3342 20.9399009,120.6762 19.5189009,118.2762" id="Fill-396" fill="#1A1919"></path>
                    <path d="M93.9779009,160.15 C86.1109009,155.957 79.6659009,155.887 79.6659009,155.887 C87.2259009,161.119 93.9779009,160.15 93.9779009,160.15" id="Fill-398" fill="#1A1919"></path>
                    <polygon id="Fill-400" fill="#FABE78" points="84.9642009 154.6254 82.0032009 166.6984 87.1282009 168.8064 89.8052009 155.0814"></polygon>
                    <path d="M82.4193009,172.6139 C84.0523009,172.4399 87.9753009,172.3969 95.9583009,169.8349 L95.9553009,168.8059 C95.5423009,167.0089 93.5883009,166.7449 91.6663009,166.9169 C89.7283009,167.0899 87.7013009,165.8689 87.7013009,165.8689 C87.7013009,165.8689 88.0263009,167.5939 85.9033009,166.3569 C81.8513009,163.9949 80.9783009,164.8199 80.0093009,167.3819 C79.4283009,168.9219 79.8333009,170.8109 80.2493009,172.0739 C80.2493009,172.0739 80.7853009,172.7879 82.4193009,172.6139" id="Fill-402" fill="#FFFFFF"></path>
                    <path d="M95.9584009,169.8346 C87.9754009,172.3966 84.0524009,172.4406 82.4194009,172.6136 C80.7854009,172.7876 80.2494009,172.0736 80.2494009,172.0736 C80.5264009,172.9176 81.1164009,174.4936 82.0034009,174.4366 C90.7464009,173.8806 95.9594009,171.3036 95.9594009,171.3036 L95.9584009,169.8346 Z" id="Fill-404" fill="#1A1919"></path>
                    <path d="M90.7172009,65.0741 C88.4792009,66.3691 87.3032009,66.2571 82.9502009,72.8821 C79.6752009,77.8681 64.4442009,91.4781 50.0892009,96.8301 C35.7352009,102.1831 18.9932009,111.2991 18.9932009,111.2991 C18.9932009,111.2991 21.3382009,111.2061 23.7592009,115.9731 C26.1802009,120.7401 25.6812009,124.2571 25.6812009,124.2571 C25.6812009,124.2571 52.8562009,113.8601 71.3402009,101.2241 C78.5252009,96.3131 83.7822009,92.4211 87.4232009,89.5981 C89.3682009,88.0891 90.8292009,86.8251 91.8992009,85.9351 C93.3962009,84.6881 94.1012009,84.1151 94.1012009,84.1151 C88.4242009,129.8551 79.6662009,155.8871 79.6662009,155.8871 C79.6662009,155.8871 86.1112009,155.9571 93.9782009,160.1501 C93.9782009,160.1501 109.542201,84.1961 110.634201,77.9241 C111.909201,70.5931 111.300201,69.6941 111.300201,69.6941 C111.300201,69.6941 92.9542009,63.7791 90.7172009,65.0741" id="Fill-406" fill="#EA018A"></path>
                    <polygon id="Fill-408" fill="#100F0F" points="111.651701 66.8055 111.244701 68.5175 111.299701 69.6945 109.295701 69.0655 110.846701 67.8795"></polygon>
                    <path d="M91.4486009,54.39 L91.2816009,56.297 L89.0046009,65.538 L89.0746009,65.963 C89.1156009,65.999 89.3276009,65.823 89.3276009,65.823 C90.1596009,66.516 92.6186009,68.336 96.9256009,69.694 C102.352601,71.406 111.244601,68.517 111.244601,68.517 L111.300601,69.694 L112.354601,68.64 C112.615601,68.379 112.744601,68.014 112.704601,67.648 L111.999601,61.147 C111.927601,60.475 112.077601,59.798 112.427601,59.22 L117.239601,50.55 L116.161601,38.547 L109.770601,37.982 L99.1026009,38.227 L91.4486009,54.39 Z" id="Fill-410" fill="#100F0F"></path>
                    <path d="M114.274801,24.3309 C114.322801,23.7509 114.322801,23.1579 114.269801,22.5539 C113.842801,17.6949 110.007801,13.7729 105.157801,13.2569 C98.9758009,12.5999 93.7528009,17.4279 93.7528009,23.4759 L93.7528009,23.5039 C93.7578009,25.5549 93.1818009,27.5649 92.0328009,29.2649 C90.7178009,31.2079 89.3008009,33.2389 88.1388009,34.7479 C89.6838009,36.9369 94.0038009,42.0899 100.587801,42.3309 L101.402801,40.6089 L102.211801,42.5759 C102.211801,42.5759 107.103801,42.4379 109.819801,41.7229 L109.819801,39.8629 L110.506801,41.7059 C110.506801,41.7059 115.771801,39.5709 118.225801,37.9819 C118.327801,37.9159 118.425801,37.8509 118.522801,37.7859 C116.598801,34.3619 113.983801,27.8469 114.274801,24.3309" id="Fill-412" fill="#FF6400"></path>
                    <path d="M94.1009009,84.1154 L93.6819009,83.9954 C92.7249009,83.7224 91.8529009,83.2094 91.1479009,82.5044 L87.9439009,89.2024 L94.1009009,84.1154 Z" id="Fill-414" fill="#1A1919"></path>
                    <path d="M114.274801,26.0792 L113.579801,25.5432 C113.222801,25.2672 112.701801,25.4862 112.648801,25.9332 C112.519801,27.0152 112.830801,28.1022 113.510801,28.9522 L113.792801,29.3032 C114.104801,29.6932 114.689801,29.7182 115.033801,29.3552" id="Fill-416" fill="#FABE78"></path>
                </g>
            </g>
        </g>
    </g>
</svg>