<svg id="Layer_1" data-name="Layer 1" xmlns="http://www.w3.org/2000/svg" xmlns:xlink="http://www.w3.org/1999/xlink" viewBox="0 0 320 214"><defs><clipPath id="clip-path"><rect x="37.41" y="148.16" width="205.59" height="29.93" fill="none"/></clipPath><clipPath id="clip-path-2"><path d="M200.83,80.19c-.25,7.34,1.53,13.35,4,13.44l7.79.26.9-26.57-7.79-.27h0c-2.43,0-4.58,5.85-4.83,13.14" fill="none"/></clipPath><clipPath id="clip-path-3"><path d="M203.07,80.27c-.25,7.33,1.53,13.35,4,13.43l1.6.06c-2.45-.08-4.23-6.1-4-13.44s2.44-13.22,4.88-13.14l-1.6-.05h0c-2.43,0-4.58,5.85-4.83,13.14" fill="none"/></clipPath><clipPath id="clip-path-4"><path d="M204.67,80.32c-.25,7.34,1.54,13.36,4,13.44h1.61c-2.45-.08-4.23-6.1-4-13.44s2.43-13.22,4.88-13.13l-1.61-.06h-.05c-2.42,0-4.58,5.85-4.83,13.14" fill="none"/></clipPath><clipPath id="clip-path-5"><path d="M114.85,86.37c-.25,7.27,3.8,13.31,9.08,13.61h1.35a14,14,0,0,1-8.65-13.9C117,76,125,73.41,125,73.41h-.24c-5.25,0-9.66,5.73-9.9,13" fill="none"/></clipPath><clipPath id="clip-path-6"><path d="M119.21,86.52c-.25,7.34,3.89,13.43,9.24,13.62l2.6.08.9-26.57-2.6-.09h-.24c-5.25,0-9.66,5.73-9.9,13" fill="none"/></clipPath><clipPath id="clip-path-7"><path d="M116.75,86.44c-.25,7.34,3.89,13.43,9.24,13.61h1.33c-5.35-.18-9.49-6.28-9.24-13.62s4.79-13.14,10.14-13h-1.57c-5.25,0-9.65,5.74-9.9,13" fill="none"/></clipPath><clipPath id="clip-path-8"><path d="M118.08,86.48c-.25,7.34,3.89,13.44,9.24,13.62h1.33c-5.35-.18-9.49-6.27-9.24-13.61s4.79-13.14,10.14-13H128c-5.25,0-9.65,5.74-9.9,13" fill="none"/></clipPath><clipPath id="clip-path-9"><path d="M177.61,93a.6.6,0,0,1-.19.44c-.53.45-1.45,1.27-2.16,1.87a.72.72,0,0,1-.51.17l-11-.37L165,106.76l19-.47,14.31-16.88s-5.08-11.52-18-12.79c-3,6-2.83,13.3-2.67,16.38" fill="none"/></clipPath><clipPath id="clip-path-10"><path d="M174.2,101.77h1.35a14,14,0,0,1-7.17-6.6l-2.07-.07c1.55,3.81,4.46,6.43,7.89,6.62" fill="none"/></clipPath><clipPath id="clip-path-11"><path d="M177.61,93a.6.6,0,0,1-.19.44c-.53.45-1.45,1.27-2.16,1.87a.72.72,0,0,1-.51.17l-4.08-.13c1.57,3.87,4.55,6.51,8.05,6.63l2.6.09.85-25.18c-.62-.12-1.26-.21-1.89-.27-3,6-2.83,13.3-2.67,16.38" fill="none"/></clipPath><clipPath id="clip-path-13"><path d="M176.26,101.85h1.33c-3.5-.12-6.48-2.76-8.05-6.63l-1.33,0c1.58,3.87,4.55,6.52,8,6.64" fill="none"/></clipPath><clipPath id="clip-path-15"><path d="M177.59,101.89h1.33c-3.5-.12-6.48-2.77-8-6.64h-1.33c1.57,3.87,4.55,6.51,8,6.63" fill="none"/></clipPath><clipPath id="clip-path-17"><rect x="177.67" y="49.06" width="43.78" height="42.18" fill="none"/></clipPath><clipPath id="clip-path-18"><rect x="113.88" y="79.94" width="59.82" height="8.31" fill="none"/></clipPath></defs><title>Lease Calc</title><g opacity="0.5"><g clip-path="url(#clip-path)"><path d="M243,163.12c0,8.27-46,15-102.8,15s-102.79-6.7-102.79-15,46-15,102.79-15,102.8,6.7,102.8,15" fill="#6f757e"/></g></g><path d="M240.74,141.88v12.79c0,3.74-5.17,7.2-14,10-1.58.51-3.28,1-5.08,1.46-3.94,1-8.39,1.91-13.26,2.69h0a275.6,275.6,0,0,1-42.18,3A269.15,269.15,0,0,1,121,168.3c-17.81-3.15-29.29-8.1-29.29-13.67V141.88Z" fill="#ff6400"/><path d="M139,156.59l-17.9,11.75c-17.81-3.14-29.29-8.1-29.29-13.67V141.88H108.1Z" fill="#d62d00"/><path d="M240.74,142.07c0,9.49-33.34,17.18-74.48,17.18s-74.47-7.69-74.47-17.18,33.34-17.19,74.47-17.19,74.48,7.69,74.48,17.19" fill="#f45700"/><path d="M234.08,143.15c0,2.67-4,5.16-10.84,7.28-.12,0-.19-.11-.07-.15,5.17-2,8.1-4.3,8.1-6.73,0-5.48-15-10.25-37.06-12.71-.13,0-.13-.11,0-.09,23.69,2.33,39.86,7,39.86,12.4" fill="#d62d00"/><path d="M220.38,137.68c0,4.48-7.44,8.57-19.64,11.63-1.87.47-3.85.91-5.92,1.33-2.31.46-4.75.9-7.3,1.29l-.38.06a277.39,277.39,0,0,1-41.23,2.87c-30.7,0-57-4.28-68.46-10.4-3.87-2.08-6-4.37-6-6.78v-12.8h149v12.8" fill="#ff6400"/><path d="M220.38,125.07c0,9.5-33.34,17.19-74.48,17.19s-74.47-7.69-74.47-17.19,33.34-17.18,74.47-17.18,74.48,7.69,74.48,17.18" fill="#f45700"/><path d="M250.59,124.67c0,4.49-7.44,8.57-19.65,11.64-1.86.46-3.83.91-5.91,1.32-2.31.47-4.75.9-7.3,1.3l-.38.06a277.62,277.62,0,0,1-41.24,2.87c-30.69,0-57-4.28-68.45-10.4-3.88-2.08-6-4.37-6-6.79V111.88h149v12.79" fill="#ff6400"/><path d="M126.14,119.32l-18.48,12.14c-3.88-2.08-6-4.37-6-6.79V111.88h7.28Z" fill="#d62d00"/><path d="M250.59,112.07c0,9.49-33.34,17.19-74.48,17.19s-74.48-7.7-74.48-17.19S135,94.88,176.11,94.88s74.48,7.7,74.48,17.19" fill="#f45700"/><path d="M240.75,93.85v12.8c0,2.38-2.1,4.65-5.89,6.71s-9.26,3.91-16,5.47c-3.47.8-7.29,1.52-11.39,2.14l-1.69.26q-3.34.48-6.93.88c-7.78.88-16.31,1.45-25.32,1.64q-3.57.09-7.23.09c-41.13,0-74.48-7.7-74.48-17.19V93.85Z" fill="#ff6400"/><path d="M240.75,94.05c0,9.49-33.35,17.18-74.48,17.18s-74.48-7.69-74.48-17.18,33.35-17.19,74.48-17.19,74.48,7.69,74.48,17.19" fill="#f45700"/><path d="M102.72,94.06c0,2.32,2.54,4.52,7.06,6.47a.12.12,0,0,1-.09.23c-6.17-2.09-9.7-4.52-9.7-7.11,0-6.1,19.55-11.3,47-13.31-25.9,2.14-44.26,7.47-44.26,13.72" fill="#d62d00"/><path d="M235.48,92.76c0,2.67-4,5.17-10.83,7.29-.12,0-.19-.11-.08-.16,5.18-2,8.11-4.29,8.11-6.72,0-5.48-15-10.25-37.06-12.72-.13,0-.13-.1,0-.09,23.69,2.34,39.85,7,39.85,12.4" fill="#d62d00"/><path d="M117.59,100a.71.71,0,0,0,.16,1.39l65.16,2.22a4.42,4.42,0,0,0,1.57-.22l37-11.16a.55.55,0,0,0,.31-.71.56.56,0,0,0-.47-.35l-63.46-1.46Z" fill="#d62d00"/><rect x="171.45" y="72.2" width="22.32" height="14.25" transform="matrix(0.03, -1, 1, 0.03, 97.15, 259.15)"/><polygon points="199.29 88.81 217.75 85.12 218.47 63.77 200.01 67.45 199.29 88.81"/><path d="M205.71,67.05c-2.45-.08-4.63,5.8-4.88,13.14s1.53,13.35,4,13.44l7.79.26.9-26.57Z" fill="#141414"/><g clip-path="url(#clip-path-2)"><rect x="206.38" y="67.75" width="6.07" height="0.69" transform="translate(-10.56 78.23) rotate(-20.65)" fill="#282828"/><rect x="206.32" y="69.74" width="6.07" height="0.69" transform="translate(-11.27 78.33) rotate(-20.65)" fill="#282828"/><rect x="206.25" y="71.73" width="6.07" height="0.69" transform="translate(-11.97 78.44) rotate(-20.65)" fill="#282828"/><rect x="206.18" y="73.73" width="6.07" height="0.69" transform="translate(-12.68 78.54) rotate(-20.65)" fill="#282828"/><rect x="206.13" y="75.71" width="6.07" height="0.69" transform="translate(-13.38 78.65) rotate(-20.65)" fill="#282828"/><rect x="206.05" y="77.71" width="6.07" height="0.69" transform="translate(-14.09 78.75) rotate(-20.65)" fill="#282828"/><rect x="205.98" y="79.69" width="6.07" height="0.69" transform="translate(-14.8 78.85) rotate(-20.65)" fill="#282828"/><rect x="205.91" y="81.69" width="6.07" height="0.69" transform="translate(-15.51 78.96) rotate(-20.65)" fill="#282828"/><rect x="205.85" y="83.67" width="6.07" height="0.69" transform="translate(-16.21 79.06) rotate(-20.65)" fill="#282828"/><rect x="205.78" y="85.66" width="6.07" height="0.69" transform="translate(-16.92 79.16) rotate(-20.65)" fill="#282828"/><rect x="205.71" y="87.66" width="6.07" height="0.69" transform="translate(-17.62 79.27) rotate(-20.65)" fill="#282828"/><rect x="205.64" y="89.65" width="6.07" height="0.69" transform="translate(-18.33 79.37) rotate(-20.65)" fill="#282828"/><rect x="205.57" y="91.64" width="6.07" height="0.69" transform="translate(-19.04 79.48) rotate(-20.65)" fill="#282828"/><rect x="205.51" y="93.63" width="6.07" height="0.69" transform="translate(-19.74 79.58) rotate(-20.65)" fill="#282828"/><polygon points="206.59 68.56 201.15 66.04 201.44 65.42 206.88 67.93 206.59 68.56" fill="#282828"/><rect x="203.61" y="65.93" width="0.69" height="6" transform="translate(55.89 225.21) rotate(-65.22)" fill="#282828"/><rect x="203.54" y="67.87" width="0.69" height="6" transform="translate(54.09 226.28) rotate(-65.22)" fill="#282828"/><rect x="203.47" y="69.83" width="0.69" height="6" transform="translate(52.27 227.35) rotate(-65.22)" fill="#282828"/><polygon points="206.33 76.33 200.89 73.82 201.17 73.19 206.62 75.7 206.33 76.33" fill="#282828"/><rect x="203.34" y="73.7" width="0.69" height="6" transform="translate(48.67 229.49) rotate(-65.22)" fill="#282828"/><rect x="203.29" y="75.65" width="0.69" height="6" transform="translate(46.87 230.57) rotate(-65.22)" fill="#282828"/><polygon points="206.13 82.16 200.69 79.65 200.98 79.02 206.42 81.54 206.13 82.16" fill="#282828"/><rect x="203.13" y="79.52" width="0.69" height="6" transform="translate(43.3 232.71) rotate(-65.23)" fill="#282828"/><rect x="203.09" y="81.48" width="0.69" height="6" transform="translate(41.47 233.77) rotate(-65.22)" fill="#282828"/><rect x="203.01" y="83.42" width="0.69" height="6" transform="translate(39.65 234.83) rotate(-65.22)" fill="#282828"/><rect x="202.93" y="85.36" width="0.69" height="6" transform="translate(37.88 235.91) rotate(-65.23)" fill="#282828"/><rect x="202.88" y="87.31" width="0.69" height="6" transform="translate(36.05 236.98) rotate(-65.22)" fill="#282828"/><rect x="202.83" y="89.25" width="0.69" height="6" transform="translate(34.26 238.05) rotate(-65.22)" fill="#282828"/></g><path d="M217.48,80.75C217.23,88.09,215,94,212.6,93.89s-4.23-6.1-4-13.44,2.43-13.22,4.88-13.13,4.22,6.09,4,13.43" fill="#141414"/><path d="M209.55,67.32c-2.45-.08-4.63,5.74-4.88,13s1.54,13.22,4,13.3l-1.61-.06c-2.44-.08-4.23-6-4-13.29s2.43-13.09,4.87-13Z" fill="#141414"/><g clip-path="url(#clip-path-3)"><rect x="203.34" y="68.19" width="6.07" height="0.69" transform="translate(-10.91 77.18) rotate(-20.65)" fill="#282828"/><rect x="203.23" y="70.09" width="6.07" height="0.69" transform="translate(-11.59 77.27) rotate(-20.65)" fill="#282828"/><rect x="203.11" y="72.02" width="6.07" height="0.69" transform="translate(-12.28 77.35) rotate(-20.65)" fill="#282828"/><rect x="203" y="73.94" width="6.07" height="0.69" transform="translate(-12.96 77.43) rotate(-20.65)" fill="#282828"/><rect x="202.89" y="75.85" width="6.07" height="0.69" transform="translate(-13.64 77.52) rotate(-20.65)" fill="#282828"/><rect x="202.78" y="77.78" width="6.07" height="0.69" transform="translate(-14.33 77.6) rotate(-20.65)" fill="#282828"/><rect x="202.67" y="79.69" width="6.07" height="0.69" transform="translate(-15.01 77.69) rotate(-20.65)" fill="#282828"/><rect x="202.56" y="81.62" width="6.07" height="0.69" transform="translate(-15.7 77.77) rotate(-20.65)" fill="#282828"/><rect x="202.44" y="83.54" width="6.07" height="0.69" transform="translate(-16.38 77.85) rotate(-20.65)" fill="#282828"/><rect x="202.33" y="85.44" width="6.07" height="0.69" transform="translate(-17.06 77.94) rotate(-20.65)" fill="#282828"/><rect x="202.21" y="87.37" width="6.07" height="0.69" transform="translate(-17.75 78.02) rotate(-20.65)" fill="#282828"/><rect x="202.11" y="89.28" width="6.07" height="0.69" transform="translate(-18.43 78.1) rotate(-20.65)" fill="#282828"/><rect x="202" y="91.2" width="6.07" height="0.69" transform="translate(-19.11 78.19) rotate(-20.65)" fill="#282828"/><rect x="201.88" y="93.13" width="6.07" height="0.69" transform="translate(-19.8 78.27) rotate(-20.65)" fill="#282828"/></g><path d="M211.15,67.38c-2.45-.09-4.63,5.73-4.87,13s1.53,13.22,4,13.3h-1.6c-2.45-.08-4.23-6-4-13.3s2.43-13.08,4.88-13Z" fill="#141414"/><g clip-path="url(#clip-path-4)"><rect x="206.46" y="63.66" width="0.69" height="6.07" transform="translate(60.39 227.25) rotate(-65.51)" fill="#282828"/><rect x="206.56" y="65.66" width="0.69" height="6.07" transform="translate(58.56 228.46) rotate(-65.49)" fill="#282828"/><rect x="206.64" y="67.67" width="0.69" height="6.07" transform="translate(56.78 229.7) rotate(-65.49)" fill="#282828"/><rect x="206.68" y="69.64" width="0.69" height="6.07" transform="translate(55.07 230.94) rotate(-65.51)" fill="#282828"/><rect x="206.76" y="71.64" width="0.69" height="6.07" transform="translate(53.27 232.17) rotate(-65.5)" fill="#282828"/><rect x="206.83" y="73.63" width="0.69" height="6.07" transform="translate(51.5 233.39) rotate(-65.5)" fill="#282828"/><rect x="206.91" y="75.64" width="0.69" height="6.07" transform="translate(49.72 234.64) rotate(-65.5)" fill="#282828"/><rect x="206.97" y="77.61" width="0.69" height="6.07" transform="translate(47.99 235.88) rotate(-65.51)" fill="#282828"/><rect x="207.07" y="79.64" width="0.69" height="6.07" transform="translate(46.15 237.1) rotate(-65.49)" fill="#282828"/><rect x="207.13" y="81.61" width="0.69" height="6.07" transform="translate(44.41 238.33) rotate(-65.5)" fill="#282828"/><rect x="207.2" y="83.6" width="0.69" height="6.07" transform="translate(42.64 239.57) rotate(-65.5)" fill="#282828"/><rect x="207.27" y="85.61" width="0.69" height="6.07" transform="translate(40.86 240.81) rotate(-65.5)" fill="#282828"/><rect x="207.37" y="87.62" width="0.69" height="6.07" transform="translate(39.11 242.1) rotate(-65.51)" fill="#282828"/><rect x="207.43" y="89.6" width="0.69" height="6.07" transform="translate(37.32 243.28) rotate(-65.5)" fill="#282828"/></g><path d="M216.3,80.69a24.28,24.28,0,0,1-1.31,7.5,7,7,0,0,1-.51,1.07c-.48.84-1,1.32-1.58,1.3S211.77,90,211.33,89h0a9,9,0,0,1-.44-1.23,24.8,24.8,0,0,1-.72-7.28,20.54,20.54,0,0,1,.16-2.26c.06-.57.14-1.12.22-1.65.54-3.21,1.55-5.53,2.67-5.9a1,1,0,0,1,.35-.06h.21c1.12.29,2,2.57,2.37,5.77,0,.52.1,1.06.13,1.63,0,.84.05,1.73,0,2.65" fill="#7d7d7d"/><path d="M214.33,88.23c-.42.75-.9,1.16-1.39,1.15s-1-.52-1.38-1.38L213,82.54c.09-.32.23-.32.29,0Z" fill="#141414"/><path d="M213.22,71.84,213,78.51c0,.39-.14.66-.26.54l-1.86-2c.47-2.83,1.36-4.88,2.35-5.21" fill="#141414"/><path d="M212.55,81.55l-1.38,5.36a21.6,21.6,0,0,1-.63-6.41,18.28,18.28,0,0,1,.14-2l1.81,2.15a1.39,1.39,0,0,1,.06.9" fill="#141414"/><path d="M215.93,80.68a21.26,21.26,0,0,1-1.15,6.61l-1.09-5.84a1.44,1.44,0,0,1,.11-.89l2.11-2.22c0,.75.05,1.53,0,2.34" fill="#141414"/><path d="M215.8,76.9l-2.08,2c-.12.11-.23-.17-.21-.57l.2-6.52c1,.25,1.78,2.27,2.09,5.08" fill="#141414"/><path d="M125,73.41c-5.35-.18-9.89,5.62-10.14,13s3.89,13.44,9.24,13.62l7,.23.9-26.57Z" fill="#141414"/><g clip-path="url(#clip-path-5)"><rect x="118.74" y="67.07" width="0.69" height="12.27" transform="translate(21.25 173.04) rotate(-77.16)" fill="#282828"/><rect x="118.67" y="68.99" width="0.69" height="12.27" transform="translate(19.31 174.47) rotate(-77.16)" fill="#282828"/><rect x="118.6" y="70.94" width="0.69" height="12.27" transform="translate(17.36 175.92) rotate(-77.16)" fill="#282828"/><rect x="118.54" y="72.87" width="0.69" height="12.27" transform="translate(15.43 177.36) rotate(-77.16)" fill="#282828"/><rect x="118.48" y="74.81" width="0.69" height="12.27" transform="translate(13.49 178.81) rotate(-77.16)" fill="#282828"/><rect x="118.42" y="76.77" width="0.69" height="12.27" transform="translate(11.53 180.26) rotate(-77.15)" fill="#282828"/><rect x="118.34" y="78.69" width="0.69" height="12.27" transform="translate(9.61 181.69) rotate(-77.16)" fill="#282828"/><rect x="118.28" y="80.63" width="0.69" height="12.27" transform="translate(7.67 183.14) rotate(-77.16)" fill="#282828"/><rect x="118.22" y="82.57" width="0.69" height="12.27" transform="translate(5.73 184.59) rotate(-77.16)" fill="#282828"/><rect x="118.15" y="84.51" width="0.69" height="12.27" transform="translate(3.79 186.03) rotate(-77.16)" fill="#282828"/><rect x="118.09" y="86.44" width="0.69" height="12.27" transform="translate(1.86 187.47) rotate(-77.16)" fill="#282828"/><rect x="118.03" y="88.4" width="0.69" height="12.27" transform="translate(-0.12 188.91) rotate(-77.15)" fill="#282828"/><rect x="117.95" y="90.31" width="0.69" height="12.27" transform="translate(-2.03 190.36) rotate(-77.16)" fill="#282828"/><rect x="117.89" y="92.26" width="0.69" height="12.27" transform="translate(-3.98 191.81) rotate(-77.16)" fill="#282828"/></g><g clip-path="url(#clip-path-6)"><rect x="119.55" y="74" width="12.48" height="0.69" transform="translate(-9.91 20.17) rotate(-8.82)" fill="#282828"/><rect x="119.48" y="76" width="12.48" height="0.69" transform="translate(-10.22 20.18) rotate(-8.82)" fill="#282828"/><rect x="119.41" y="77.99" width="12.48" height="0.69" transform="translate(-10.53 20.19) rotate(-8.82)" fill="#282828"/><rect x="119.35" y="79.98" width="12.48" height="0.69" transform="translate(-10.83 20.21) rotate(-8.82)" fill="#282828"/><rect x="119.28" y="81.97" width="12.48" height="0.69" transform="translate(-11.14 20.22) rotate(-8.82)" fill="#282828"/><rect x="119.21" y="83.96" width="12.48" height="0.69" transform="translate(-11.44 20.23) rotate(-8.82)" fill="#282828"/><rect x="119.14" y="85.95" width="12.48" height="0.69" transform="translate(-11.75 20.25) rotate(-8.82)" fill="#282828"/><rect x="119.08" y="87.94" width="12.48" height="0.69" transform="translate(-12.05 20.26) rotate(-8.82)" fill="#282828"/><rect x="119.01" y="89.93" width="12.48" height="0.69" transform="translate(-12.36 20.27) rotate(-8.82)" fill="#282828"/><rect x="118.94" y="91.92" width="12.48" height="0.69" transform="translate(-12.67 20.28) rotate(-8.82)" fill="#282828"/><rect x="118.87" y="93.91" width="12.48" height="0.69" transform="translate(-12.97 20.3) rotate(-8.82)" fill="#282828"/><rect x="118.81" y="95.9" width="12.48" height="0.69" transform="translate(-13.28 20.31) rotate(-8.82)" fill="#282828"/><rect x="118.74" y="97.89" width="12.48" height="0.69" transform="translate(-13.58 20.32) rotate(-8.82)" fill="#282828"/><rect x="118.67" y="99.88" width="12.48" height="0.69" transform="translate(-13.89 20.34) rotate(-8.82)" fill="#282828"/></g><path d="M140.92,87.25c-.25,7.34-4.79,13.14-10.14,13s-9.49-6.27-9.24-13.61,4.78-13.14,10.13-13,9.49,6.28,9.25,13.61" fill="#141414"/><path d="M128.22,73.52c-5.35-.18-9.89,5.59-10.14,12.88s3.89,13.35,9.25,13.53H126c-5.35-.18-9.49-6.24-9.25-13.53s4.79-13.06,10.14-12.88Z" fill="#141414"/><g clip-path="url(#clip-path-7)"><rect x="115.08" y="74.39" width="12.48" height="0.69" transform="translate(-10.02 19.49) rotate(-8.82)" fill="#282828"/><rect x="114.92" y="76.31" width="12.48" height="0.69" transform="translate(-10.32 19.48) rotate(-8.82)" fill="#282828"/><rect x="114.75" y="78.22" width="12.48" height="0.69" transform="translate(-10.62 19.48) rotate(-8.82)" fill="#282828"/><rect x="114.58" y="80.14" width="12.48" height="0.69" transform="translate(-10.91 19.48) rotate(-8.82)" fill="#282828"/><rect x="114.41" y="82.06" width="12.48" height="0.69" transform="translate(-11.21 19.47) rotate(-8.82)" fill="#282828"/><rect x="114.24" y="83.98" width="12.48" height="0.69" transform="translate(-11.5 19.47) rotate(-8.82)" fill="#282828"/><rect x="114.08" y="85.89" width="12.48" height="0.69" transform="translate(-11.8 19.47) rotate(-8.82)" fill="#282828"/><rect x="113.91" y="87.81" width="12.48" height="0.69" transform="translate(-12.1 19.46) rotate(-8.82)" fill="#282828"/><rect x="113.74" y="89.73" width="12.48" height="0.69" transform="translate(-12.39 19.46) rotate(-8.82)" fill="#282828"/><rect x="113.57" y="91.64" width="12.48" height="0.69" transform="translate(-12.69 19.46) rotate(-8.82)" fill="#282828"/><rect x="113.41" y="93.56" width="12.48" height="0.69" transform="translate(-12.98 19.46) rotate(-8.82)" fill="#282828"/><rect x="113.24" y="95.47" width="12.48" height="0.69" transform="translate(-13.28 19.45) rotate(-8.82)" fill="#282828"/><rect x="113.07" y="97.39" width="12.48" height="0.69" transform="translate(-13.57 19.45) rotate(-8.82)" fill="#282828"/><rect x="112.9" y="99.31" width="12.48" height="0.69" transform="translate(-13.87 19.45) rotate(-8.82)" fill="#282828"/></g><path d="M129.55,73.57c-5.35-.18-9.89,5.58-10.14,12.88S123.3,99.8,128.66,100h-1.33c-5.35-.18-9.49-6.24-9.25-13.53s4.79-13.06,10.14-12.88Z" fill="#141414"/><g clip-path="url(#clip-path-8)"><rect x="119.7" y="66.61" width="0.69" height="12.48" transform="translate(22.6 173.96) rotate(-77.31)" fill="#282828"/><rect x="119.93" y="68.61" width="0.69" height="12.48" transform="translate(20.84 175.75) rotate(-77.31)" fill="#282828"/><rect x="120.18" y="70.61" width="0.69" height="12.48" transform="translate(19.07 177.55) rotate(-77.31)" fill="#282828"/><rect x="120.43" y="72.63" width="0.69" height="12.48" transform="translate(17.3 179.37) rotate(-77.31)" fill="#282828"/><rect x="120.66" y="74.61" width="0.69" height="12.48" transform="translate(15.54 181.14) rotate(-77.31)" fill="#282828"/><rect x="120.9" y="76.62" width="0.69" height="12.48" transform="translate(13.77 182.94) rotate(-77.31)" fill="#282828"/><rect x="121.13" y="78.63" width="0.69" height="12.48" transform="translate(12 184.73) rotate(-77.31)" fill="#282828"/><rect x="121.39" y="80.63" width="0.69" height="12.48" transform="translate(10.24 186.55) rotate(-77.31)" fill="#282828"/><rect x="121.63" y="82.63" width="0.69" height="12.48" transform="translate(8.49 188.35) rotate(-77.31)" fill="#282828"/><rect x="121.88" y="84.62" width="0.69" height="12.48" transform="translate(6.73 190.14) rotate(-77.31)" fill="#282828"/><rect x="122.12" y="86.63" width="0.69" height="12.48" transform="translate(4.96 191.94) rotate(-77.31)" fill="#282828"/><rect x="122.36" y="88.62" width="0.69" height="12.48" transform="translate(3.2 193.73) rotate(-77.31)" fill="#282828"/><rect x="122.6" y="90.64" width="0.69" height="12.48" transform="translate(1.42 195.54) rotate(-77.31)" fill="#282828"/><rect x="122.83" y="92.62" width="0.69" height="12.48" transform="translate(-0.33 197.32) rotate(-77.31)" fill="#282828"/></g><path d="M138.33,87.14a12.47,12.47,0,0,1-2.56,7.47,8.36,8.36,0,0,1-1.06,1,5.09,5.09,0,0,1-3.41,1.24,5.21,5.21,0,0,1-3.49-1.63h0a8.65,8.65,0,0,1-1-1.26A12.61,12.61,0,0,1,125,86.65a14.12,14.12,0,0,1,.67-3.9c1-3.2,3.15-5.48,5.6-5.81h1.21c2.47.33,4.51,2.66,5.41,5.87a12.77,12.77,0,0,1,.35,1.63,14.79,14.79,0,0,1,.15,2.66" fill="#3b3b3b"/><g clip-path="url(#clip-path-9)"><path d="M175.26,75.21c-5.35-.18-9.89,5.62-10.14,13s3.89,13.43,9.24,13.61l7,.24.9-26.58Z" fill="#141414"/></g><g clip-path="url(#clip-path-10)"><rect x="169.01" y="68.86" width="0.69" height="12.27" transform="translate(58.6 223.45) rotate(-77.16)" fill="#282828"/><rect x="168.94" y="70.79" width="0.69" height="12.27" transform="translate(56.67 224.89) rotate(-77.16)" fill="#282828"/><rect x="168.88" y="72.73" width="0.69" height="12.27" transform="translate(54.73 226.33) rotate(-77.16)" fill="#282828"/><rect x="168.83" y="74.68" width="0.69" height="12.27" transform="translate(52.76 227.78) rotate(-77.15)" fill="#282828"/><rect x="168.74" y="76.61" width="0.69" height="12.27" transform="translate(50.84 229.22) rotate(-77.16)" fill="#282828"/><rect x="168.68" y="78.55" width="0.69" height="12.27" transform="translate(48.9 230.66) rotate(-77.16)" fill="#282828"/><rect x="168.62" y="80.49" width="0.69" height="12.27" transform="translate(46.96 232.11) rotate(-77.16)" fill="#282828"/><rect x="168.55" y="82.43" width="0.69" height="12.27" transform="translate(45.02 233.56) rotate(-77.16)" fill="#282828"/><rect x="168.48" y="84.35" width="0.69" height="12.27" transform="translate(43.08 234.98) rotate(-77.16)" fill="#282828"/><rect x="168.43" y="86.31" width="0.69" height="12.27" transform="translate(41.1 236.43) rotate(-77.15)" fill="#282828"/><rect x="168.35" y="88.23" width="0.69" height="12.27" transform="translate(39.2 237.87) rotate(-77.16)" fill="#282828"/><rect x="168.28" y="90.17" width="0.69" height="12.27" transform="translate(37.26 239.32) rotate(-77.16)" fill="#282828"/><rect x="168.23" y="92.11" width="0.69" height="12.27" transform="translate(35.32 240.77) rotate(-77.16)" fill="#282828"/><rect x="168.15" y="94.05" width="0.69" height="12.27" transform="translate(33.37 242.2) rotate(-77.16)" fill="#282828"/></g><g clip-path="url(#clip-path-11)"><rect x="169.82" y="75.8" width="12.48" height="0.69" transform="translate(-9.59 27.9) rotate(-8.82)" fill="#282828"/><rect x="169.75" y="77.79" width="12.48" height="0.69" transform="translate(-9.9 27.91) rotate(-8.82)" fill="#282828"/><rect x="169.68" y="79.79" width="12.48" height="0.69" transform="translate(-10.21 27.92) rotate(-8.82)" fill="#282828"/><rect x="169.62" y="81.77" width="12.48" height="0.69" transform="translate(-10.51 27.94) rotate(-8.82)" fill="#282828"/><rect x="169.55" y="83.76" width="12.48" height="0.69" transform="translate(-10.82 27.95) rotate(-8.82)" fill="#282828"/><rect x="169.48" y="85.76" width="12.48" height="0.69" transform="translate(-11.12 27.96) rotate(-8.82)" fill="#282828"/><rect x="169.42" y="87.74" width="12.48" height="0.69" transform="translate(-11.43 27.98) rotate(-8.82)" fill="#282828"/><rect x="169.35" y="89.73" width="12.48" height="0.69" transform="translate(-11.73 27.99) rotate(-8.82)" fill="#282828"/><rect x="169.28" y="91.73" width="12.48" height="0.69" transform="translate(-12.04 28) rotate(-8.82)" fill="#282828"/><rect x="169.21" y="93.72" width="12.48" height="0.69" transform="translate(-12.35 28.01) rotate(-8.82)" fill="#282828"/><rect x="169.15" y="95.71" width="12.48" height="0.69" transform="translate(-12.65 28.03) rotate(-8.82)" fill="#282828"/><rect x="169.08" y="97.71" width="12.48" height="0.69" transform="translate(-12.96 28.04) rotate(-8.82)" fill="#282828"/><rect x="169.01" y="99.69" width="12.48" height="0.69" transform="translate(-13.27 28.05) rotate(-8.82)" fill="#282828"/><rect x="168.94" y="101.68" width="12.48" height="0.69" transform="translate(-13.57 28.07) rotate(-8.82)" fill="#282828"/></g><g clip-path="url(#clip-path-9)"><path d="M191.19,89.05c-.25,7.34-4.79,13.14-10.14,13s-9.49-6.28-9.24-13.62,4.79-13.14,10.14-13,9.49,6.28,9.24,13.62" fill="#141414"/><path d="M178.49,75.32c-5.35-.18-9.89,5.58-10.14,12.87s3.9,13.36,9.25,13.54h-1.33c-5.35-.18-9.49-6.24-9.24-13.53s4.78-13.06,10.13-12.88Z" fill="#141414"/></g><g clip-path="url(#clip-path-13)"><rect x="165.36" y="76.18" width="12.48" height="0.69" transform="translate(-9.7 27.22) rotate(-8.82)" fill="#282828"/><rect x="165.19" y="78.1" width="12.48" height="0.69" transform="translate(-10 27.21) rotate(-8.82)" fill="#282828"/><rect x="165.02" y="80.02" width="12.48" height="0.69" transform="translate(-10.3 27.21) rotate(-8.82)" fill="#282828"/><rect x="164.85" y="81.93" width="12.48" height="0.69" transform="translate(-10.59 27.21) rotate(-8.82)" fill="#282828"/><rect x="164.68" y="83.85" width="12.48" height="0.69" transform="translate(-10.89 27.2) rotate(-8.82)" fill="#282828"/><rect x="164.52" y="85.77" width="12.48" height="0.69" transform="translate(-11.18 27.2) rotate(-8.82)" fill="#282828"/><rect x="164.35" y="87.68" width="12.48" height="0.69" transform="translate(-11.48 27.2) rotate(-8.82)" fill="#282828"/><rect x="164.18" y="89.6" width="12.48" height="0.69" transform="translate(-11.78 27.19) rotate(-8.82)" fill="#282828"/><rect x="164.01" y="91.53" width="12.48" height="0.69" transform="translate(-12.07 27.19) rotate(-8.82)" fill="#282828"/><rect x="163.84" y="93.43" width="12.48" height="0.69" transform="translate(-12.37 27.19) rotate(-8.82)" fill="#282828"/><rect x="163.68" y="95.35" width="12.48" height="0.69" transform="translate(-12.66 27.19) rotate(-8.82)" fill="#282828"/><rect x="163.51" y="97.27" width="12.48" height="0.69" transform="translate(-12.96 27.18) rotate(-8.82)" fill="#282828"/><rect x="163.34" y="99.18" width="12.48" height="0.69" transform="translate(-13.25 27.18) rotate(-8.82)" fill="#282828"/><rect x="163.17" y="101.1" width="12.48" height="0.69" transform="translate(-13.55 27.18) rotate(-8.82)" fill="#282828"/></g><g clip-path="url(#clip-path-9)"><path d="M179.82,75.36c-5.35-.18-9.89,5.59-10.14,12.88s3.89,13.35,9.25,13.53H177.6c-5.35-.18-9.49-6.24-9.25-13.54s4.79-13,10.14-12.87Z" fill="#141414"/></g><g clip-path="url(#clip-path-15)"><rect x="169.97" y="68.4" width="0.69" height="12.48" transform="translate(60.08 224.4) rotate(-77.31)" fill="#282828"/><rect x="170.2" y="70.41" width="0.69" height="12.48" transform="translate(58.31 226.2) rotate(-77.31)" fill="#282828"/><rect x="170.45" y="72.41" width="0.69" height="12.48" transform="translate(56.55 227.99) rotate(-77.31)" fill="#282828"/><rect x="170.69" y="74.42" width="0.69" height="12.48" transform="translate(54.77 229.8) rotate(-77.31)" fill="#282828"/><rect x="170.93" y="76.41" width="0.69" height="12.48" transform="translate(53.02 231.58) rotate(-77.31)" fill="#282828"/><rect x="171.18" y="78.41" width="0.69" height="12.48" transform="translate(51.26 233.39) rotate(-77.31)" fill="#282828"/><rect x="171.43" y="80.43" width="0.69" height="12.48" transform="translate(49.49 235.21) rotate(-77.31)" fill="#282828"/><rect x="171.67" y="82.42" width="0.69" height="12.48" transform="translate(47.73 237) rotate(-77.31)" fill="#282828"/><rect x="171.91" y="84.42" width="0.69" height="12.48" transform="translate(45.97 238.79) rotate(-77.31)" fill="#282828"/><rect x="172.14" y="86.41" width="0.69" height="12.48" transform="translate(44.2 240.57) rotate(-77.31)" fill="#282828"/><rect x="172.39" y="88.43" width="0.69" height="12.48" transform="translate(42.43 242.39) rotate(-77.31)" fill="#282828"/><rect x="172.61" y="90.41" width="0.69" height="12.48" transform="translate(40.67 244.16) rotate(-77.31)" fill="#282828"/><rect x="172.86" y="92.42" width="0.69" height="12.48" transform="translate(38.91 245.96) rotate(-77.31)" fill="#282828"/><rect x="173.09" y="94.43" width="0.69" height="12.48" transform="translate(37.13 247.75) rotate(-77.31)" fill="#282828"/></g><g clip-path="url(#clip-path-9)"><path d="M188.6,88.94A12.46,12.46,0,0,1,186,96.4a7.17,7.17,0,0,1-1.06,1A4.89,4.89,0,0,1,178,97h0a7.51,7.51,0,0,1-1-1.25,12.61,12.61,0,0,1-1.85-7.31,14.11,14.11,0,0,1,.67-3.91c1-3.19,3.16-5.47,5.6-5.8a3.31,3.31,0,0,1,.77,0h.45c2.46.32,4.5,2.65,5.4,5.86a13.3,13.3,0,0,1,.35,1.64,14.79,14.79,0,0,1,.15,2.66" fill="#7d7d7d"/><path d="M184.62,96.41a4.46,4.46,0,0,1-3,1.09,4.55,4.55,0,0,1-3.07-1.43l2.87-5.42a.33.33,0,0,1,.64,0Z" fill="#141414"/><path d="M181.53,80l-.26,6.66c0,.39-.27.66-.52.54l-4.15-2.09c.91-2.81,2.78-4.82,4.93-5.11" fill="#141414"/><path d="M180.44,89.65,177.63,95A11.22,11.22,0,0,1,176,88.51a12.26,12.26,0,0,1,.23-2l4.05,2.23a.7.7,0,0,1,.16.9" fill="#141414"/><path d="M187.81,88.91a11,11,0,0,1-2.26,6.58l-2.62-5.89a.73.73,0,0,1,.22-.89l4.53-2.14a13.07,13.07,0,0,1,.13,2.34" fill="#141414"/><path d="M187.37,85.13l-4.47,1.92c-.26.11-.5-.18-.49-.57L182.6,80c2.18.29,4,2.34,4.77,5.17" fill="#141414"/></g><polygon points="124.43 91.5 124.38 93.05 136.78 96.64 138.7 91.94 124.43 91.5" fill="#141414"/><path d="M217.26,49.26l1.07-.16a1.38,1.38,0,0,1,1.68,1s0,.06,0,.09l1.18,7.71a4.93,4.93,0,0,1-1.47,4l-1.55,1.63Z" fill="#141414"/><path d="M169.44,95.56l6.83-.32h.34c.45-.1,1-1.94,1-2.34a28.69,28.69,0,0,1,0-3.71c0-.76.08-1.51.14-2.24h0v-.06a2.18,2.18,0,0,1,.06-.62,10,10,0,0,1,.16-1.34,5,5,0,0,1,.1-.66c0-.22.07-.43.11-.65h0q.1-.63.24-1.23c.1-.51.22-1,.35-1.47.06-.27.14-.54.22-.81s.15-.49.23-.73.09-.29.14-.43.1-.29.16-.44a1.19,1.19,0,0,0,.07-.2c.11-.3.23-.59.35-.87l.2-.44c.16-.35.33-.68.5-1,.05-.08.08-.15.13-.22a6.42,6.42,0,0,1,.41-.65l.09-.14.16-.21a.76.76,0,0,1,.11-.14l.13-.17.13-.15a5,5,0,0,1,1.07-.93l.12-.07.12-.07a.17.17,0,0,0,.1,0h.13a1.76,1.76,0,0,1,.3-.1h.15c3-.59,5.18,4.91,5.19,12.51v2.26a12.41,12.41,0,0,1-.11,1.42c0,.25-.05.5-.07.74l-.09.76V91a.42.42,0,0,0,.36.47.33.33,0,0,0,.14,0l.37-.08,4.4-.9,8.46-1.73,3.21-.66.46-.1h.09a.69.69,0,0,0,.22-.16.43.43,0,0,0,.13-.34,5.74,5.74,0,0,0-.05-.92,1.74,1.74,0,0,1,0-.52V83.36a9.25,9.25,0,0,1,.07-1.42c.53-7.71,3.11-14.16,6-14.74s5.08,4.92,5.09,12.52v2.8a1.31,1.31,0,0,1,0,.28v.87a2.19,2.19,0,0,1-.07.67h0a8.51,8.51,0,0,1-.14,1.13l.57-.11h.09a.51.51,0,0,0,.16-.09l.07-.06a.51.51,0,0,0,.17-.3l1-5.5,1.84-9.8a18.1,18.1,0,0,0,0-7.33l-2.9-13.19L212.2,38a3.75,3.75,0,0,0-4.2-1.69l-9,1.25h-.68l-.46.07-.48.06h-.23l-2.26.32a7.17,7.17,0,0,0-.9.18h0a8.68,8.68,0,0,0-5.23,4.11h0c-.1.19-.19.38-.28.57l-.55,1.26-.08.18L181.1,59.63l-.61,1h0L172.94,73Z" fill="#fff"/><path d="M172.34,76.85l1.09,13.05,7-16c10.23-15.36,37.75-24.85,37.75-24.85l-.06-.1h0L212,38a3.88,3.88,0,0,0-4.09-1.73L199,37.51h-.68l-.46.07-.47.06h-.24l-2.26.32a7.17,7.17,0,0,0-.9.18h0a8.68,8.68,0,0,0-5.23,4.11h0c-.1.18-.19.37-.28.56l-.55,1.26-.08.18L181.1,59.63l-.61,1h0L173,73Z" fill="#fff"/><g opacity="0.37"><g clip-path="url(#clip-path-17)"><path d="M177.68,86.34v.47l.06-.62c0-.45.1-.9.16-1.34a5,5,0,0,1,.1-.66c0-.22.07-.43.11-.65h0c.08-.42.16-.83.25-1.23s.22-1,.34-1.47c.08-.28.15-.54.23-.81s.15-.49.23-.73.09-.29.14-.43.1-.29.16-.44,0-.13.07-.2c.11-.3.23-.59.35-.87l.2-.44c.16-.35.33-.68.5-1a1.59,1.59,0,0,1,.13-.22c.13-.23.27-.44.4-.65a.71.71,0,0,0,.1-.14l.16-.21a.76.76,0,0,1,.11-.14l.13-.17.13-.15a5,5,0,0,1,1.07-.93l.12-.07.12-.07a.17.17,0,0,0,.1,0h.13a1.76,1.76,0,0,1,.3-.1h.15c3-.59,5.18,4.91,5.19,12.51v2.26a6.51,6.51,0,0,1-.1,1.42,2.62,2.62,0,0,1-.07.74l-.09.76v.15a.42.42,0,0,0,.36.47.33.33,0,0,0,.14,0l.37-.08,4.4-.9,8.46-1.73L205.6,88l.46-.1h.09a.69.69,0,0,0,.22-.16.43.43,0,0,0,.13-.34,5.74,5.74,0,0,0-.05-.92,1.75,1.75,0,0,1,0-.52V83.36a9.25,9.25,0,0,1,.07-1.42c.53-7.71,3.11-14.17,6-14.74s5.08,4.92,5.09,12.52v3.94a2.19,2.19,0,0,1-.07.67h0a8.51,8.51,0,0,1-.14,1.13l.57-.11h.09a.51.51,0,0,0,.16-.09l.07-.06a.51.51,0,0,0,.17-.3l1-5.5,1.85-9.8a18.46,18.46,0,0,0-.05-7.33l-2.9-13.19A120.85,120.85,0,0,0,204.84,55c-8.47,4.31-18.79,10.81-24.23,19a25.38,25.38,0,0,0-2.73,12.43" fill="#cecece"/></g></g><path d="M206.38,83.37c0-.49.14-2.43.17-2.9l-17.61,5v2.42h0L188.79,89v.25a6.31,6.31,0,0,1-.08.76v.3a1.18,1.18,0,0,1-.05.4.43.43,0,0,0,.37.47h.13l4.77-1,11.67-2.39.36-.08a.67.67,0,0,0,.54-.63c-.08-1.19-.1-2.46-.06-3.78" fill="#cecece"/><path d="M115.4,69.4l-1,1.62a4.86,4.86,0,0,0-.69,2.55l.2,12.65,62.24,2.11L176,73.46a11.38,11.38,0,0,1,1.12-5l3.06-6.39,1.12-2.45a3.81,3.81,0,0,1-2.08,2c-1.41.41-63.85,7.8-63.85,7.8" fill="#fff"/><path d="M126.92,60.24,177.64,62a3.79,3.79,0,0,0,3.6-2.26c1.36-3.06,4.91-10.87,6.43-14.22.19-.41.69-1.51.71-1.54a13.44,13.44,0,0,0-1.61-.69L148,41.74a8.48,8.48,0,0,0-6,2.44l-.18.18a77.61,77.61,0,0,0-10.25,12.82,5.74,5.74,0,0,1-3.15,2.43Z" fill="#b7b7b7"/><path d="M171.19,72.47s-3,7.14-37.32,6c-15.81-.54-18.47-9-18.47-9l3.89-1.75,52-.37Z" fill="#fff"/><path d="M178.73,61.16l-46.64-1.58a1.18,1.18,0,0,1-1.16-1.2,1.25,1.25,0,0,1,.16-.57l.1-.18a10.7,10.7,0,0,1-2.59,1.84c-1.28.56-10.46,4.33-10.46,4.33s4.6,6.06,6.59,6.12l21.14.72c3.94.13,27.9-5.21,27.9-5.21a7.13,7.13,0,0,1,4.93-3.55,3.13,3.13,0,0,0,2.15-1.5,2.43,2.43,0,0,1-2.14.78" fill="#fff"/><g opacity="0.37"><g clip-path="url(#clip-path-18)"><path d="M173.7,88.25l-6.11-5.47a4.46,4.46,0,0,0-3.35-1.1,233.33,233.33,0,0,1-30.71,1.22A55.5,55.5,0,0,1,116.78,80c-2-.72-2.9,3.25-2.9,3.25v2.94Z" fill="#cecece"/></g></g><path d="M113.92,86.22l.88,6a1.48,1.48,0,0,0,1.42,1.27l58.3,2.31h.16a1.29,1.29,0,0,0,.94-1.58,1.34,1.34,0,0,0-.35-.61c-.7-.52-1.54-1.82-1.42-5a.29.29,0,0,0-.27-.29Z" fill="#141414"/><path d="M115,86.11h0a2.23,2.23,0,0,0,2,2.42l49.76,1.68a2.23,2.23,0,0,0,2.15-2.28Z" fill="#cecece"/><path d="M156.2,82.38l8.45-.74c.92-.07,3.7.21,4.17,4.58a1.19,1.19,0,0,1-1.14,1.24h-.06a1.19,1.19,0,0,1-.66-.17c-.51-.33-1.92-1-5.14-1.2-3.64-.23-5.26-1.32-5.84-3.44a.21.21,0,0,1,.16-.26h.06" fill="#b7b7b7"/><path d="M120.18,81.16,116.72,80c-.38-.11-1.54,0-2,4.37,0,.64.15,1.25.44,1.3a.29.29,0,0,0,.28-.14,2.74,2.74,0,0,1,2.18-1c1.52-.06,2.24-1.07,2.58-3.16,0-.12,0-.26-.07-.28" fill="#b7b7b7"/><path d="M164.58,82.61a1.59,1.59,0,0,1,.83.17,4.31,4.31,0,0,1,2.23,2.82c.07.24-.22.45-.49.35a13,13,0,0,0-4.61-.82,10.06,10.06,0,0,1-3.43-.63.82.82,0,0,1,.26-1.58l5.21-.31" fill="#141414"/><path d="M116.7,81.14a.38.38,0,0,0-.33.14,5.8,5.8,0,0,0-1,2.75c0,.25,0,.46.16.37a2.43,2.43,0,0,1,1.77-.69,1.79,1.79,0,0,0,1.42-.7.94.94,0,0,0-.12-1.32.86.86,0,0,0-.39-.2l-1.5-.35" fill="#141414"/><path d="M124.17,68.72l23.36.79a1.85,1.85,0,0,1,1.72,2,2,2,0,0,1-.18.67h0c-.36.75-.71,1.48-.93,1.9-.61,1.12-2.55,4.79-9.57,4.55-1.5,0-3.52-.09-6.08-.21-7-.33-8.7-4-9.23-5.18-.2-.44-.5-1.19-.8-2h0a1.84,1.84,0,0,1,1-2.39,1.8,1.8,0,0,1,.69-.13" fill="#141414"/><path d="M124.17,68.72l23.36.79a1.85,1.85,0,0,1,1.72,2,2,2,0,0,1-.18.67l-26.62-.9a1.84,1.84,0,0,1,1-2.39,1.8,1.8,0,0,1,.69-.13" fill="#b7b7b7"/><path d="M149.11,72.19h0l-26.66-.9h0a2,2,0,0,1,.24-1.83,1.79,1.79,0,0,1,1.47-.76h.06l23.36.79a1.79,1.79,0,0,1,1.48.87,2,2,0,0,1,.11,1.83Zm-26.63-1,26.56.9a1.85,1.85,0,0,0-.12-1.71,1.69,1.69,0,0,0-1.39-.82l-23.36-.79h-.06a1.71,1.71,0,0,0-1.39.72A1.87,1.87,0,0,0,122.48,71.19Z" fill="#b7b7b7"/><path d="M118.77,88.43l31.42,1.07a6.3,6.3,0,0,0-1.05-1.81c-1.72-2-4.3-2.18-5.7-2.23l-17.67-.6c-1.39,0-4-.06-5.83,1.85a6.31,6.31,0,0,0-1.17,1.72" fill="#cecece"/><path d="M197.6,59.48l2.73-1.08a1.36,1.36,0,0,0,.83-1v-.21c0-.41-.33-.59-.78-.41l-2.73,1.08a1.33,1.33,0,0,0-.82,1v.21c0,.4.33.59.78.41" fill="#b7b7b7"/><path d="M210.79,53l2.73-1.08a1.32,1.32,0,0,0,.83-1v-.21c0-.41-.34-.59-.78-.41l-2.73,1.08a1.36,1.36,0,0,0-.83,1v.21c0,.4.34.59.78.41" fill="#b7b7b7"/><path d="M154.22,68.68a2.2,2.2,0,0,0-1.71,2.61,2.17,2.17,0,0,0,.93,1.39l2.2,1.37a3,3,0,0,0,2.07.42l4-.6,6.5-1c1-.16,2.07-.32,3-.48a10,10,0,0,0,2.8-6.92.35.35,0,0,0-.37-.35h0l-4,.7-3,.56L154.28,68.6" fill="#141414"/><path d="M168.18,73c1-.16,2.07-.32,3-.48A9.93,9.93,0,0,0,174,65.6a.35.35,0,0,0-.37-.35h0l-4,.71.8.06a1.06,1.06,0,0,1,1,1.15l0,.16-.89,3.48a3,3,0,0,1-1.87,2.07Z" fill="#141414"/><path d="M115.4,69.4l.61.51,2.18,1.82a1.61,1.61,0,0,0,2.21-.12l.83-.87a2.69,2.69,0,0,0,0-3.73l-1.17-1.24-1.92-2a8.35,8.35,0,0,0-2.76,5.6" fill="#141414"/><path d="M186.19,45.34l-5.53,12.07c-1,2.28-1.69,2.68-4.45,2.58l-26.34-.89-16.33-.55a1.09,1.09,0,0,1-1-1.13,1,1,0,0,1,.19-.58c2-3,5.64-8.43,9.46-11.79q.38-.33.75-.6a1.9,1.9,0,0,1,1.22-.37h.56c2.54,0,41.08.54,41.08.54a.51.51,0,0,1,.49.51.65.65,0,0,1-.05.2" fill="#141414"/><path d="M205.47,83.55a41.28,41.28,0,0,0,.07,4.31l.47-.1a.52.52,0,0,0,.43-.51c-.08-1.22-.1-2.53-.06-3.88.28-8.32,3-15.56,6.09-16.17s5.34,5.62,5.06,13.94a39.31,39.31,0,0,1-.37,4.33l.45-.09a.71.71,0,0,0,.54-.54c.15-1.26.25-2.56.29-3.88.32-9.32-2.33-16.29-5.91-15.58s-6.75,8.85-7.06,18.17" fill="#141414"/><path d="M185.67,57.68l3.94-1.28L189,46.18l-4.55,10.3c-.36.82.3,1.49,1.19,1.2" fill="#141414"/><path d="M217.16,85.47l.57-.11h.09a.51.51,0,0,0,.16-.09l.07-.06a.51.51,0,0,0,.17-.3l1-5.5-1.7.34v3.94a2.19,2.19,0,0,1-.07.67h0a8.51,8.51,0,0,1-.14,1.13" fill="#141414"/><path d="M176.62,89.3a47.23,47.23,0,0,0,0,4.76l.72-.6a.64.64,0,0,0,.25-.56q-.12-1.8-.06-3.78c.29-8.32,3.06-15.49,6.2-16.11,3-.59,5.19,4.82,5.19,12.42v1.42c0,1.31-.15,2.61-.32,3.91l.5.47.37-.08a42.26,42.26,0,0,0,.38-4.49c.32-9.31-2.39-16.28-6-15.55S176.94,80,176.62,89.3" fill="#141414"/><path d="M188.6,90.77a.43.43,0,0,0,.37.47h.13l.37-.08,4.4-.9,8.46-1.73,3.21-.66.46-.1a.54.54,0,0,0,.44-.52,5.74,5.74,0,0,0-.05-.92l-17.68,3.53a7.21,7.21,0,0,1-.11.92" fill="#141414"/><path d="M188.93,43.8c.39-.56.56-3.13,3.21-4.12,7-2.59,16.87-3.37,16.87-3.37l-41.94-1.63c-11.62-.39-22.88,7.55-23.76,8.41Z" fill="#fff"/><path d="M162.21,70.11A2.16,2.16,0,1,0,164.44,68a2.16,2.16,0,0,0-2.23,2.11" fill="#b7b7b7"/><path d="M157.64,71a1.23,1.23,0,1,0,1.27-1.19A1.23,1.23,0,0,0,157.64,71h0" fill="#fff"/><path d="M118.82,67.62a2.16,2.16,0,0,1-2.23,2.08,2.21,2.21,0,0,1-1.19-.41,8.92,8.92,0,0,1,1.35-3.9,2.15,2.15,0,0,1,2.07,2.23" fill="#b7b7b7"/><path d="M120,68.84a1.23,1.23,0,1,1-1.19-1.27A1.23,1.23,0,0,1,120,68.84" fill="#fff"/><path d="M214,45.28l-3.18,1.94-1,.6-5.62,3.41-.87.53-1.6.54-12,4-4.2,1.41a.9.9,0,0,1-1.15-.57.86.86,0,0,1,0-.65c1.08-2.52,3-7.07,4.66-10.5l.47-1C192,40,196,39.42,196,39.42l2.22-.3,2.75-.39,8-1.11h.17l.53-.07a.38.38,0,0,1,.21,0l.1.1,4.26,6.84a.56.56,0,0,1-.18.77" fill="#141414"/><path d="M189.74,56.33l-4.2,1.41a.9.9,0,0,1-1.15-.57.86.86,0,0,1,0-.65c1.07-2.52,3.05-7.07,4.66-10.5Z" fill="#fff"/><path d="M185.24,58.3a1.44,1.44,0,0,1-1.42-1.44,1.38,1.38,0,0,1,.12-.56c1-2.43,3-7,4.67-10.51l.84-1.79.82,12.67L185.7,58.2A1.46,1.46,0,0,1,185.24,58.3Zm3.45-10.25c-1.43,3.13-2.95,6.65-3.81,8.67a.38.38,0,0,0,.07.43.41.41,0,0,0,.43.11L189.2,56Z" fill="#fff"/><polygon points="204.21 51.23 203.34 51.77 201.74 52.3 198.19 39.12 200.94 38.73 204.21 51.23" fill="#fff"/><path d="M201.39,53l-3.84-14.26,3.77-.52,3.48,13.3-1.3.78Zm-2.56-13.41,3.26,12.11,1-.35.5-.3-3.05-11.7Z" fill="#fff"/><path d="M210.82,47.22l-1,.6-.91-10.2h.16l.53-.07a.37.37,0,0,1,.21,0c.12,1.09,1,9.65,1,9.65" fill="#fff"/><path d="M209.4,48.67l-1-11.48,1.17-.17a.78.78,0,0,1,.56.13l.2.13v.24c.12,1.08,1,9.65,1,9.65v.32Zm.73-3.19.13,1.48h0c0-.32-.06-.84-.13-1.48ZM209.69,38Z" fill="#fff"/><path d="M186.18,55.52l1-4a2.61,2.61,0,0,1,2.43-1.86l3.79.06A1.53,1.53,0,0,1,195,51l.3,1.54a2,2,0,0,1-1.54,2.06l-3,.79a1.5,1.5,0,0,0-.93.74Z" fill="#b7b7b7"/><path d="M186.16,55.53l3.73.48-1.32,2.4c-.49.89-1.72,1.19-2.24.55l-.49-.61a1,1,0,0,1-.16-.91Z" fill="#141414"/><rect width="320" height="213.38" fill="#fff" fill-opacity="0"/></svg>