<svg id="Layer_1" data-name="Layer 1" xmlns="http://www.w3.org/2000/svg" xmlns:xlink="http://www.w3.org/1999/xlink" viewBox="0 0 320 214"><defs><clipPath id="clip-path"><rect x="74.49" y="111.81" width="170.93" height="92.15" fill="none"/></clipPath><clipPath id="clip-path-2"><rect x="165.32" y="170.47" width="26.43" height="24.69" fill="none"/></clipPath><clipPath id="clip-path-3"><rect x="77.85" y="118.62" width="37.17" height="35.63" fill="none"/></clipPath><clipPath id="clip-path-4"><path d="M220,10.4h0L206.87,18c4.13-2.11,12.21,2.84,18.06,11.37,6.07,8.85,7.75,18.25,3.75,21l12.86-7.67a3.37,3.37,0,0,0,.44-.26c4-2.74,2.32-12.14-3.75-21-4.94-7.2-11.26-11.82-15.6-11.82a4.57,4.57,0,0,0-2.63.76" fill="none"/></clipPath><clipPath id="clip-path-5"><rect x="204.65" y="7.52" width="43.54" height="44.97" transform="translate(-1.95 26.32) rotate(-6.62)" fill="none"/></clipPath><clipPath id="clip-path-6"><rect x="138.48" y="99.71" width="24.2" height="11.12" fill="none"/></clipPath><clipPath id="clip-path-7"><polygon points="141.14 80.3 138.46 93.82 143.63 100.57 160.27 108.44 166.36 106.23 163.39 84.13 151.78 77.9 141.14 80.3" fill="none"/></clipPath></defs><title>Research Page Assets</title><g opacity="0"><rect y="-0.19" width="320" height="214" fill="#fff"/></g><g opacity="0.25"><g clip-path="url(#clip-path)"><path d="M77.56,131.38a5,5,0,0,0-.55,8.89c26.41,14.86,102.81,57.85,108.16,60.7,6.47,3.46,16.25,5.61,33.51-3.3s22.14-12.95,22.14-12.95,12.66-6.61-4-19.55c-12.94-10-94.84-46.81-108.52-52.93a5,5,0,0,0-3.89-.06Z" fill="#9e8a80"/></g></g><polygon points="163.9 180.87 191.74 195.16 177.9 168.41 158.14 169.94 163.9 180.87"/><polygon points="86.62 135.04 118.64 151.53 98.89 123.92 86.81 125.07 86.62 135.04"/><path d="M112.31,135.68c-3.79-5.92-9.57-9-13.07-7l-6.76,2.93,12.92,22.26,6.22-2.62a4.44,4.44,0,0,0,1.38-.58c3.48-2.22,3.17-8.92-.69-15" fill="#141414"/><path d="M105.76,138.5c3.85,6,4.16,12.74.69,15s-9.42-.88-13.28-6.92-4.17-12.74-.69-15,9.42.88,13.28,6.92" fill="#141414"/><path d="M105.13,151.22c-1.51,1-3.63.71-5.76-.54a11.29,11.29,0,0,1-1.42-1,17.32,17.32,0,0,1-5.82-9.06h0a11.94,11.94,0,0,1-.3-1.79c-.19-2.28.42-4.18,1.85-5.12a3.63,3.63,0,0,1,1.29-.51,3.92,3.92,0,0,1,1.14-.07c2.42.15,5.34,2,7.62,5.07.24.31.47.64.69,1l.37.59c2,3.32,2.66,6.81,1.93,9.18a4.59,4.59,0,0,1-.46,1.06,3.79,3.79,0,0,1-1.13,1.19" fill="#7d7d7d"/><path d="M189.78,179.21c-3.79-5.92-9.57-9-13.07-7L170,175.11l12.92,22.25,6.22-2.61a4.55,4.55,0,0,0,1.38-.58c3.48-2.22,3.17-8.92-.69-15" fill="#141414"/><path d="M183.22,182c3.86,6,4.17,12.73.7,14.95s-9.42-.87-13.28-6.91-4.17-12.74-.69-15,9.42.88,13.27,6.92" fill="#141414"/><path d="M182.6,194.75c-1.51,1-3.64.71-5.76-.54a12.45,12.45,0,0,1-1.42-1,16.65,16.65,0,0,1-3.55-3.94,16.38,16.38,0,0,1-2.27-5.12h0a12.16,12.16,0,0,1-.3-1.79c-.19-2.28.42-4.18,1.85-5.12a3.46,3.46,0,0,1,1.29-.51,4.26,4.26,0,0,1,1.14-.08c2.41.16,5.34,2,7.62,5.08.24.31.46.64.69,1l.37.6c2,3.31,2.66,6.81,1.93,9.18a4.62,4.62,0,0,1-.47,1.06,3.75,3.75,0,0,1-1.12,1.19" fill="#7d7d7d"/><path d="M98.12,148.85A14.78,14.78,0,0,1,95,145.37a14.57,14.57,0,0,1-2-4.51l5.07,1.7a.93.93,0,0,1,.54.83Z" fill="#7d7d7d"/><path d="M103.22,138.73l-3.38,2.15c-.19.12-.55-.12-.71-.48l-2.63-6.15c2.13.14,4.7,1.8,6.72,4.48" fill="#7d7d7d"/><path d="M97.69,140.93l-5-1.65c-.17-2,.37-3.68,1.63-4.51a2.9,2.9,0,0,1,1.14-.45L98,140.39c.15.37,0,.64-.29.54" fill="#7d7d7d"/><path d="M104.45,150.18c-1.33.87-3.2.63-5.08-.47l.51-5.58c0-.31.33-.33.61,0l5,5a3,3,0,0,1-1,1.05" fill="#7d7d7d"/><path d="M105.86,148.2l-4.8-5.06c-.28-.29-.36-.72-.16-.85l3.25-2.18c1.76,2.92,2.35,6,1.71,8.09" fill="#7d7d7d"/><path d="M175.59,192.38a14.78,14.78,0,0,1-3.13-3.48,14.57,14.57,0,0,1-2-4.51l5.07,1.7a.93.93,0,0,1,.54.83Z" fill="#7d7d7d"/><path d="M180.69,182.25l-3.38,2.16c-.19.12-.55-.12-.71-.48L174,177.78c2.13.13,4.7,1.8,6.72,4.47" fill="#7d7d7d"/><path d="M175.16,184.46l-5-1.65c-.17-2,.36-3.68,1.63-4.51a3,3,0,0,1,1.13-.46l2.48,6.08c.15.36,0,.64-.28.54" fill="#7d7d7d"/><path d="M181.92,193.71c-1.33.87-3.2.62-5.08-.47l.5-5.58c0-.31.34-.33.62,0l4.95,5a3.21,3.21,0,0,1-1,1.05" fill="#7d7d7d"/><path d="M183.33,191.73l-4.8-5.06c-.28-.29-.36-.72-.16-.85l3.25-2.18c1.76,2.92,2.35,6,1.71,8.09" fill="#7d7d7d"/><path d="M206.13,121.68l-.51-4.62a.15.15,0,0,1,0-.07c.18-.42,2-4.58,4.34-3.42s1.91,5.46-1.09,9.78l-2.75-1.67" fill="#7d7d7d"/><path d="M154.1,86.85s-6.7-3.85-19.5-4.73c-5.56-.38-7.58-.24-9-1a11.25,11.25,0,0,0-9.73-.83C110.7,82.06,96.42,86.13,83,99.78,78.17,106.86,91,112,91,112l32.73-1.53L150.27,126,166,159l29.85,37.26s15.66.77,21.93-1.85c6-2.51,22.67-12.92,24.09-13.81a.38.38,0,0,0,.15-.16c.43-.85,3.32-6.76,3.5-12.1a.3.3,0,0,0-.17-.28,2.83,2.83,0,0,0-.36-.15.24.24,0,0,1-.15-.22c-.05-.95-.31-6-.71-8.91-.45-3.23-2.82-7.72-5.37-11.08s-12.55-11.58-21.88-18.74-22.24-18.86-27-22.76c-14.26-10.86-35.8-19.3-35.8-19.3" fill="#fff"/><polygon points="178.39 152.11 196.8 161.31 170.34 152.49 178.39 152.11" fill="#fff"/><polygon points="213.81 128.7 224.8 144.15 212.72 131.4 213.81 128.7" fill="#fff"/><path d="M195.84,196.21a23.92,23.92,0,0,1-4.1-1.05,20.51,20.51,0,0,1-2.09-.88c-1.47-4.85-5.38-14.8-13.94-20.18-.28-.17-.55-.33-.82-.47-4-2.07-6.86-.25-7.65,2.32-.71,2.31,0,5.45.69,7.55l-1-.52-.56-.32L115,154.25l-2-1.18-.24-.16c-.72-3-4.32-15.93-14.52-22.34l-.08,0a9.33,9.33,0,0,0-2.18-1c-2.64-.83-4.65.13-5.67,1.74a4.6,4.6,0,0,0-.54,1.17,10.4,10.4,0,0,0,0,4.84l-.73-.49-.92-.76a43.32,43.32,0,0,1-3.68-2.89,36.77,36.77,0,0,1-3.26-3.25,15,15,0,0,1-3.26-11.25c0-.44-.34-.42-.33-.72.08-2.61.83-5.81,1.36-6.43.17-.21.59-.08.63-.39.61-3.58,1.19-7,1.36-8a6.31,6.31,0,0,1,2-3.26s-2.85,4.82,3,8.61c3.41,2.2,3.75,1.3,5,1.76a3.5,3.5,0,0,0,2.1.08c3.88-1.08,18.83-4.85,28-2,9.68,3,26.89,10.74,31.88,18.17a249,249,0,0,1,15,26.69,7,7,0,0,0,2.22,2.82c4.56,3.26,17.9,13.06,20.91,18.28,3.64,6.33,5,18.6,4.79,22.05" fill="#fff"/><path d="M163.82,152.68l-5.12-3.2-18.61-10.21-2.42-1.51-3.09-1.94-1.76-1.11-16.46-10.29-3.56-2.24-.19-.11-.68-.43L105,117.33a.42.42,0,0,1-.2-.34c0-.56-.13-2.13-.12-4.19a.45.45,0,0,1,.27-.4,27,27,0,0,1,9.73-2.31h1.09c5.57.1,9.61,2.3,12.79,3.68l1.06.47c1.72.8,4,2,6.64,3.47l1.36.8c.7.42,1.42.86,2.15,1.32,4.47,2.84,5.46,2.6,9.28,6.72a37.14,37.14,0,0,1,2.71,3.26,89.34,89.34,0,0,1,8.73,15c2.13,4.56,3.25,7.81,3.29,7.9" fill="#141414"/><path d="M147.14,85s-22.26,4.54-32.79,19.09a.65.65,0,0,1-.53.27c-8.74-.17-18.09-.19-20.28-.19a.33.33,0,0,1-.31-.46c.75-1.84,4.26-8.89,16.13-14.88,14-7.06,23.52-5.85,25.5-5.5S147.14,85,147.14,85" fill="#141414"/><path d="M83.66,109.94l-2.21,3a.43.43,0,0,1-.67,0l-1.53-1.8s-.33-.52.1-2.87,1.25-5.9,1.25-5.9A2.58,2.58,0,0,1,82,100.77c-.77,1.62-1.57,4.41,1.59,8a.93.93,0,0,1,0,1.16" fill="#141414"/><path d="M175.58,172.07l-.69,1.56c-4-2.07-6.86-.25-7.65,2.32-.71,2.31,0,5.45.69,7.55l-1-.52-.56-.32L113,153.07l-.24-.16c-.72-3-4.32-15.93-14.52-22.34l-.08,0-.52-2.26s47.77,22.22,77.94,43.81" fill="#fff"/><path d="M163.82,152.68l-5.12-3.2,1.83-4.7c2.13,4.56,3.25,7.81,3.29,7.9" fill="#7d7d7d"/><path d="M148.59,148l6.48-2.65a1.56,1.56,0,0,1,1.67.32l4.55,4.33a.59.59,0,0,1-.25,1l-6.22,1.69a3.51,3.51,0,0,1-3-.57l-3.42-2.53a.91.91,0,0,1,.2-1.58" fill="#7d7d7d"/><path d="M189,107.41a185.52,185.52,0,0,1-33.46,19.19.84.84,0,0,0-.37,1.2c6.06,9.56,10.22,16.7,12,21s5.18,4.47,7.67,4.09S206,144.54,214,130.1a1.19,1.19,0,0,0-.19-1.4c-6.57-6.73-21.9-19.35-24.25-21.28a.5.5,0,0,0-.61,0" fill="#7d7d7d"/><path d="M212.83,129.91c-7.64,13.77-35.05,21.43-37.39,21.79a13.72,13.72,0,0,1-1.48.15c-2.1.05-4.42-.63-5.84-4-1.63-3.94-5.29-10.27-10.59-18.71a2.2,2.2,0,0,1,.94-3.18c2.83-1.3,5.51-2.61,8-3.91,5.8-3,10.67-5.88,14.4-8.25l1.27-.82c2.59-1.67,4.53-3,5.71-3.88a2.19,2.19,0,0,1,2.7.09c4.08,3.36,16.46,13.67,22.09,19.43a1.14,1.14,0,0,1,.18,1.34" fill="#141414"/><path d="M138.77,148.59,134.29,146a.68.68,0,0,1-.25-.92.67.67,0,0,1,.92-.24l4.48,2.59a.67.67,0,0,1,.25.91.68.68,0,0,1-.92.25" fill="#7d7d7d"/><path d="M111.45,132,107,129.41a.66.66,0,0,1-.24-.91.67.67,0,0,1,.91-.25l4.49,2.59a.67.67,0,0,1,.24.92.66.66,0,0,1-.91.24" fill="#7d7d7d"/><path d="M210.48,176.21S230,170.93,239.93,159c.59,4.54,2,5.26,2,5.26s-7.77,12.6-31.58,18.31a35.49,35.49,0,0,0,.13-6.39" fill="#7d7d7d"/><path d="M227.91,170.13c1.21-.6,2.47-.37,2.81.5s-.35,2.07-1.56,2.66-2.47.37-2.82-.5.35-2.06,1.57-2.66" fill="#fff"/><path d="M212.35,191.88l3.29-3.29a1.85,1.85,0,0,1,.77-.46c2.63-.79,16.57-5.28,25.2-14.47a.29.29,0,0,1,.36,0,4.26,4.26,0,0,1,.71.47,10.69,10.69,0,0,1-1,2.42,2.89,2.89,0,0,1-.58.76c-1.65,1.58-8.83,8.12-24.3,14.16-1.82.34-3.49.63-4.33.77a.19.19,0,0,1-.16-.31" fill="#141414"/><g opacity="0.25"><g clip-path="url(#clip-path-2)"><path d="M191.74,195.16a20.51,20.51,0,0,1-2.09-.88c-1.47-4.85-5.38-14.8-13.94-20.18-4.42-2.78-7.63-.89-8.47,1.85-.71,2.31,0,5.45.69,7.55l-1-.52-.56-.32c-.74-2.45-1.45-5.87-.67-8.42,1-3.21,4.74-5.42,9.92-2.17,9.71,6.1,14.32,17.23,16.16,23.09" fill="#9e8a80"/></g></g><g opacity="0.25"><g clip-path="url(#clip-path-3)"><path d="M98.11,128.55a11.42,11.42,0,0,0-1.85-1v0s-7.29-2.8-10.43,1.14c-1-.56-2-1.17-2.87-1.83a12.62,12.62,0,0,1-5-8.24,15,15,0,0,0,3.26,11.25,31.14,31.14,0,0,0,3.26,3.2v.05a31.91,31.91,0,0,0,4.6,3.65l.73.49a10.4,10.4,0,0,1,0-4.84,4.6,4.6,0,0,1,.54-1.17c1-1.61,3-2.57,5.67-1.74a9.33,9.33,0,0,1,2.18,1l.08,0c10.2,6.41,13.8,19.32,14.52,22.34l.24.16,2,1.18c-1.07-4.25-5.42-18.49-16.91-25.7" fill="#9e8a80"/></g></g><path d="M139.81,119.82l-2.14,17.94-4.85-3,3.48-17c1.12.65,2.3,1.36,3.51,2.12" fill="#7d7d7d"/><path d="M115.81,110.08l-3,12.1-.87-.54,2.79-11.55h1.09" fill="#7d7d7d"/><path d="M214.35,180.76l-4,1.84s-2.38.19-5.59.21a52.06,52.06,0,0,1-10.84-.88c-1.59-3.77-2.87-7.77-2.87-7.77s1.78.41,5,.87a127.79,127.79,0,0,0,14,1.16,1.28,1.28,0,0,1,.81.33l3.67,3.36a.53.53,0,0,1-.14.88" fill="#141414"/><path d="M203.41,178.31a2.58,2.58,0,1,1-3-2.09,2.57,2.57,0,0,1,3,2.09" fill="#7d7d7d"/><path d="M205.81,179.85a1.47,1.47,0,1,1-1.7-1.18,1.47,1.47,0,0,1,1.7,1.18" fill="#fff"/><path d="M243,158.37c-.12,1.29-.35,2.63-.56,3.71-.26,1.29-.49,2.21-.49,2.21l-1.68,1.62a.32.32,0,0,1-.54-.23l.22-6.65.13-6,.08-3.4a32.44,32.44,0,0,1,2.62,4.79l.07.19a10,10,0,0,1,.15,3.77" fill="#141414"/><path d="M243,158.37a2.56,2.56,0,0,1-2.31-1.25c-.78-1.11-.82-2.44-.07-3a1.85,1.85,0,0,1,2.23.45,10,10,0,0,1,.15,3.77" fill="#7d7d7d"/><path d="M240.66,159.41c.45.63,1.15.89,1.57.6s.41-1.06,0-1.69-1.15-.9-1.58-.6-.4,1.05,0,1.69" fill="#fff"/><path d="M167.39,109.18l-1.24.88a2.46,2.46,0,0,1-2.45,0L142.31,100l-3.15-1.5-.11,0-.09-.07a1.12,1.12,0,0,1,.1-1.9l1.23-.88a2.33,2.33,0,0,1,1.23-.32,2.46,2.46,0,0,1,1.23.32l24.64,11.63a1.13,1.13,0,0,1,0,2" fill="#141414"/><path d="M142.31,100l-3.15-1.49-.2-.11a1.12,1.12,0,0,1,.1-1.9l1.23-.88a2.33,2.33,0,0,1,1.23-.32Z" fill="#0f3a4a"/><path d="M224.93,29.38c6.07,8.85,7.75,18.25,3.75,21s-12.16-2.21-18.23-11.06-7.75-18.24-3.75-21,12.16,2.2,18.23,11.05" fill="#1b3445"/><path d="M215.69,20c-3.27-2.11-6.27-3-8.79-2-2.91,1.24-27.85,3.93-37.43,4.32C165.29,23,143,30,129.52,39.17c-1.05,2.88,2.6,3,2.6,3a11.31,11.31,0,0,0,5.09-1.31c-.55,1-11.2,19-13.31,22.5a1.21,1.21,0,0,0,0,1.28c.85,1.26,3,3.63,5.74.56-2.5,5.48-3.87,8.82-4.5,10.42a1.81,1.81,0,0,0,.55,2.1c1.43,1.15,4.43,2.14,7.59-1.79,3.77-4.68,8.5-14.4,10.69-20.59a1.31,1.31,0,0,1,.53-.65c3.94-2.39,6.34-3.81,6.34-3.81L148,55.64a12,12,0,0,0-1.88,7s.45,23,1.13,28.28a.63.63,0,0,0,.33.49c1.37.75,4.13.4,5.55-4.57,2.07-7.26,3-17.35,3.29-20.41a2.94,2.94,0,0,1,.66-1.63l9.12-11.61,5.45-3.61a1.19,1.19,0,0,1,1.74.48c1,2.17,2.81,6.67.9,9.85-2.14,3.58-7.29,7.5-10.08,10.07s-11.31,10.88-10.9,16.54a5.94,5.94,0,0,0,2.7,4.31,1,1,0,0,0,1.14,0c3.82-2.93,27.21-20.84,29.42-22.48C189,66.48,197,63.19,199.17,62s21.68-16.18,27.66-20.82l2.92-2.27S226.07,26.94,215.69,20Z" fill="#f8bd84"/><rect x="147.27" y="44.12" width="15.73" height="0.38" transform="translate(34.01 150.88) rotate(-57.28)" fill="#663326"/><path d="M129.86,65.31l-.36-.15,9.41-21.54a4.83,4.83,0,0,1,1.72-2l17-11.41.21.32-17,11.41a4.44,4.44,0,0,0-1.58,1.88Z" fill="#663326"/><path d="M137.37,41l-.31-.23,1.57-2.2a4,4,0,0,1,1.4-1.22l18.06-9.64.18.34-18.06,9.64a3.66,3.66,0,0,0-1.27,1.11Z" fill="#663326"/><g clip-path="url(#clip-path-4)"><g clip-path="url(#clip-path-5)"><polygon points="250.64 19.89 248.93 5.16 250.64 5.16 250.64 19.89" fill="#fff"/><polygon points="250.64 21.12 248.79 5.16 248.93 5.16 250.64 19.89 250.64 21.12" fill="#fff"/><polygon points="250.64 22.34 248.65 5.16 248.79 5.16 250.64 21.12 250.64 22.34" fill="#feffff"/><polygon points="250.64 23.57 248.5 5.16 248.65 5.16 250.64 22.34 250.64 23.57" fill="#fdfeff"/><polygon points="250.64 24.8 248.36 5.16 248.5 5.16 250.64 23.57 250.64 24.8" fill="#fcfeff"/><polygon points="250.64 26.03 248.22 5.16 248.36 5.16 250.64 24.8 250.64 26.03" fill="#fbfeff"/><polygon points="250.64 27.26 248.08 5.16 248.22 5.16 250.64 26.03 250.64 27.26" fill="#fafdff"/><polygon points="250.64 28.48 247.93 5.16 248.08 5.16 250.64 27.26 250.64 28.48" fill="#f9fdff"/><polygon points="250.64 29.71 247.79 5.16 247.93 5.16 250.64 28.48 250.64 29.71" fill="#f8fdfe"/><polygon points="250.64 30.94 247.65 5.16 247.79 5.16 250.64 29.71 250.64 30.94" fill="#f7fcfe"/><polygon points="250.64 32.17 247.51 5.16 247.65 5.16 250.64 30.94 250.64 32.17" fill="#f6fcfe"/><polygon points="250.64 33.4 247.36 5.16 247.51 5.16 250.64 32.17 250.64 33.4" fill="#f5fcfe"/><polygon points="250.64 34.63 247.22 5.16 247.36 5.16 250.64 33.4 250.64 34.63" fill="#f4fbfe"/><polygon points="250.64 35.85 247.08 5.16 247.22 5.16 250.64 34.63 250.64 35.85" fill="#f3fbfe"/><polygon points="250.64 37.08 246.94 5.16 247.08 5.16 250.64 35.85 250.64 37.08" fill="#f2fbfe"/><polygon points="250.64 38.31 246.79 5.16 246.94 5.16 250.64 37.08 250.64 38.31" fill="#f1fafe"/><polygon points="250.64 39.54 246.65 5.16 246.79 5.16 250.64 38.31 250.64 39.54" fill="#f0fafe"/><polygon points="250.64 40.77 246.51 5.16 246.65 5.16 250.64 39.54 250.64 40.77" fill="#effafe"/><polygon points="250.64 41.99 246.37 5.16 246.51 5.16 250.64 40.77 250.64 41.99" fill="#eef9fe"/><polygon points="250.64 43.22 246.22 5.16 246.37 5.16 250.64 41.99 250.64 43.22" fill="#edf9fe"/><polygon points="250.64 44.45 246.08 5.16 246.22 5.16 250.64 43.22 250.64 44.45" fill="#ecf9fe"/><polygon points="250.64 45.68 245.94 5.16 246.08 5.16 250.64 44.45 250.64 45.68" fill="#ebf8fd"/><polygon points="250.64 46.91 245.79 5.16 245.94 5.16 250.64 45.68 250.64 46.91" fill="#eaf8fd"/><polygon points="250.64 48.13 245.65 5.16 245.79 5.16 250.64 46.91 250.64 48.13" fill="#e9f8fd"/><polygon points="250.64 49.36 245.51 5.16 245.65 5.16 250.64 48.13 250.64 49.36" fill="#e8f7fd"/><polygon points="250.64 50.59 245.37 5.16 245.51 5.16 250.64 49.36 250.64 50.59" fill="#e7f7fd"/><polygon points="250.64 51.82 245.22 5.16 245.37 5.16 250.64 50.59 250.64 51.82" fill="#e6f7fd"/><polygon points="250.64 53.05 245.08 5.16 245.22 5.16 250.64 51.82 250.64 53.05" fill="#e5f6fd"/><polygon points="250.64 54.27 244.94 5.16 245.08 5.16 250.64 53.05 250.64 54.27" fill="#e4f6fd"/><polygon points="250.57 54.85 244.8 5.16 244.94 5.16 250.64 54.27 250.64 54.85 250.57 54.85" fill="#e3f6fd"/><polygon points="250.42 54.85 244.65 5.16 244.8 5.16 250.57 54.85 250.42 54.85" fill="#e2f5fd"/><polygon points="250.28 54.85 244.51 5.16 244.65 5.16 250.42 54.85 250.28 54.85" fill="#e1f5fd"/><polygon points="250.14 54.85 244.37 5.16 244.51 5.16 250.28 54.85 250.14 54.85" fill="#e0f5fd"/><polygon points="250 54.85 244.22 5.16 244.37 5.16 250.14 54.85 250 54.85" fill="#dff5fd"/><polygon points="249.85 54.85 244.08 5.16 244.22 5.16 250 54.85 249.85 54.85" fill="#def4fd"/><polygon points="249.71 54.85 243.94 5.16 244.08 5.16 249.85 54.85 249.71 54.85" fill="#ddf4fc"/><polygon points="249.57 54.85 243.8 5.16 243.94 5.16 249.71 54.85 249.57 54.85" fill="#dcf4fc"/><polygon points="249.43 54.85 243.66 5.16 243.8 5.16 249.57 54.85 249.43 54.85" fill="#dbf3fc"/><polygon points="249.28 54.85 243.51 5.16 243.66 5.16 249.43 54.85 249.28 54.85" fill="#daf3fc"/><polygon points="249.14 54.85 243.37 5.16 243.51 5.16 249.28 54.85 249.14 54.85" fill="#d9f3fc"/><polygon points="249 54.85 243.23 5.16 243.37 5.16 249.14 54.85 249 54.85" fill="#d8f2fc"/><polygon points="248.85 54.85 243.08 5.16 243.23 5.16 249 54.85 248.85 54.85" fill="#d7f2fc"/><polygon points="248.71 54.85 242.94 5.16 243.08 5.16 248.85 54.85 248.71 54.85" fill="#d6f2fc"/><polygon points="248.57 54.85 242.8 5.16 242.94 5.16 248.71 54.85 248.57 54.85" fill="#d5f1fc"/><polygon points="248.43 54.85 242.66 5.16 242.8 5.16 248.57 54.85 248.43 54.85" fill="#d4f1fc"/><polygon points="248.28 54.85 242.51 5.16 242.66 5.16 248.43 54.85 248.28 54.85" fill="#d3f1fc"/><polygon points="248.14 54.85 242.37 5.16 242.51 5.16 248.28 54.85 248.14 54.85" fill="#d2f0fc"/><polygon points="248 54.85 242.23 5.16 242.37 5.16 248.14 54.85 248 54.85" fill="#d1f0fc"/><polygon points="247.86 54.85 242.09 5.16 242.23 5.16 248 54.85 247.86 54.85" fill="#d0f0fb"/><polygon points="247.71 54.85 241.94 5.16 242.09 5.16 247.86 54.85 247.71 54.85" fill="#cfeffb"/><polygon points="247.57 54.85 241.8 5.16 241.94 5.16 247.71 54.85 247.57 54.85" fill="#ceeffb"/><polygon points="247.43 54.85 241.66 5.16 241.8 5.16 247.57 54.85 247.43 54.85" fill="#cdeffb"/><polygon points="247.29 54.85 241.52 5.16 241.66 5.16 247.43 54.85 247.29 54.85" fill="#cceefb"/><polygon points="247.14 54.85 241.37 5.16 241.52 5.16 247.29 54.85 247.14 54.85" fill="#cbeefb"/><polygon points="247 54.85 241.23 5.16 241.37 5.16 247.14 54.85 247 54.85" fill="#caeefb"/><polygon points="246.86 54.85 241.09 5.16 241.23 5.16 247 54.85 246.86 54.85" fill="#c9edfb"/><polygon points="246.72 54.85 240.94 5.16 241.09 5.16 246.86 54.85 246.72 54.85" fill="#c8edfb"/><polygon points="246.57 54.85 240.8 5.16 240.94 5.16 246.72 54.85 246.57 54.85" fill="#c7edfb"/><polygon points="246.43 54.85 240.66 5.16 240.8 5.16 246.57 54.85 246.43 54.85" fill="#c6ecfb"/><polygon points="246.29 54.85 240.52 5.16 240.66 5.16 246.43 54.85 246.29 54.85" fill="#c5ecfb"/><polygon points="246.15 54.85 240.38 5.16 240.52 5.16 246.29 54.85 246.15 54.85" fill="#c4ecfb"/><polygon points="246 54.85 240.23 5.16 240.38 5.16 246.15 54.85 246 54.85" fill="#c3ebfa"/><polygon points="245.86 54.85 240.09 5.16 240.23 5.16 246 54.85 245.86 54.85" fill="#c2ebfa"/><polygon points="245.72 54.85 239.95 5.16 240.09 5.16 245.86 54.85 245.72 54.85" fill="#c1ebfa"/><polygon points="245.57 54.85 239.8 5.16 239.95 5.16 245.72 54.85 245.57 54.85" fill="#c0eafa"/><polygon points="245.43 54.85 239.66 5.16 239.8 5.16 245.57 54.85 245.43 54.85" fill="#bfeafa"/><polygon points="245.29 54.85 239.52 5.16 239.66 5.16 245.43 54.85 245.29 54.85" fill="#beeafa"/><polygon points="245.15 54.85 239.38 5.16 239.52 5.16 245.29 54.85 245.15 54.85" fill="#bde9fa"/><polygon points="245 54.85 239.23 5.16 239.38 5.16 245.15 54.85 245 54.85" fill="#bce9fa"/><polygon points="244.86 54.85 239.09 5.16 239.23 5.16 245 54.85 244.86 54.85" fill="#bbe9fa"/><polygon points="244.72 54.85 238.95 5.16 239.09 5.16 244.86 54.85 244.72 54.85" fill="#bae8fa"/><polygon points="244.58 54.85 238.81 5.16 238.95 5.16 244.72 54.85 244.58 54.85" fill="#b9e8fa"/><polygon points="244.43 54.85 238.66 5.16 238.81 5.16 244.58 54.85 244.43 54.85" fill="#b8e8fa"/><polygon points="244.29 54.85 238.52 5.16 238.66 5.16 244.43 54.85 244.29 54.85" fill="#b7e7fa"/><polygon points="244.15 54.85 238.38 5.16 238.52 5.16 244.29 54.85 244.15 54.85" fill="#b6e7fa"/><polygon points="244.01 54.85 238.24 5.16 238.38 5.16 244.15 54.85 244.01 54.85" fill="#b5e7f9"/><polygon points="243.86 54.85 238.09 5.16 238.24 5.16 244.01 54.85 243.86 54.85" fill="#b4e6f9"/><polygon points="243.72 54.85 237.95 5.16 238.09 5.16 243.86 54.85 243.72 54.85" fill="#b3e6f9"/><polygon points="243.58 54.85 237.81 5.16 237.95 5.16 243.72 54.85 243.58 54.85" fill="#b2e6f9"/><polygon points="243.44 54.85 237.66 5.16 237.81 5.16 243.58 54.85 243.44 54.85" fill="#b1e5f9"/><polygon points="243.29 54.85 237.52 5.16 237.66 5.16 243.44 54.85 243.29 54.85" fill="#b0e5f9"/><polygon points="243.15 54.85 237.38 5.16 237.52 5.16 243.29 54.85 243.15 54.85" fill="#afe5f9"/><polygon points="243.01 54.85 237.24 5.16 237.38 5.16 243.15 54.85 243.01 54.85" fill="#aee4f9"/><polygon points="242.87 54.85 237.09 5.16 237.24 5.16 243.01 54.85 242.87 54.85" fill="#ade4f9"/><polygon points="242.72 54.85 236.95 5.16 237.09 5.16 242.87 54.85 242.72 54.85" fill="#ace4f9"/><polygon points="242.58 54.85 236.81 5.16 236.95 5.16 242.72 54.85 242.58 54.85" fill="#abe3f9"/><polygon points="242.44 54.85 236.67 5.16 236.81 5.16 242.58 54.85 242.44 54.85" fill="#aae3f9"/><polygon points="242.29 54.85 236.52 5.16 236.67 5.16 242.44 54.85 242.29 54.85" fill="#a9e3f9"/><polygon points="242.15 54.85 236.38 5.16 236.52 5.16 242.29 54.85 242.15 54.85" fill="#a8e2f8"/><polygon points="242.01 54.85 236.24 5.16 236.38 5.16 242.15 54.85 242.01 54.85" fill="#a7e2f8"/><polygon points="241.87 54.85 236.1 5.16 236.24 5.16 242.01 54.85 241.87 54.85" fill="#a6e2f8"/><polygon points="241.72 54.85 235.95 5.16 236.1 5.16 241.87 54.85 241.72 54.85" fill="#a5e1f8"/><polygon points="241.58 54.85 235.81 5.16 235.95 5.16 241.72 54.85 241.58 54.85" fill="#a4e1f8"/><polygon points="241.44 54.85 235.67 5.16 235.81 5.16 241.58 54.85 241.44 54.85" fill="#a3e1f8"/><polygon points="241.3 54.85 235.53 5.16 235.67 5.16 241.44 54.85 241.3 54.85" fill="#a2e0f8"/><polygon points="241.15 54.85 235.38 5.16 235.53 5.16 241.3 54.85 241.15 54.85" fill="#a1e0f8"/><polygon points="241.01 54.85 235.24 5.16 235.38 5.16 241.15 54.85 241.01 54.85" fill="#a0e0f8"/><polygon points="240.87 54.85 235.1 5.16 235.24 5.16 241.01 54.85 240.87 54.85" fill="#9fe0f8"/><polygon points="240.73 54.85 234.96 5.16 235.1 5.16 240.87 54.85 240.73 54.85" fill="#9edff8"/><polygon points="240.58 54.85 234.81 5.16 234.96 5.16 240.73 54.85 240.58 54.85" fill="#9ddff8"/><polygon points="240.44 54.85 234.67 5.16 234.81 5.16 240.58 54.85 240.44 54.85" fill="#9cdff8"/><polygon points="240.3 54.85 234.53 5.16 234.67 5.16 240.44 54.85 240.3 54.85" fill="#9bdef7"/><polygon points="240.16 54.85 234.38 5.16 234.53 5.16 240.3 54.85 240.16 54.85" fill="#9adef7"/><polygon points="240.01 54.85 234.24 5.16 234.38 5.16 240.16 54.85 240.01 54.85" fill="#99def7"/><polygon points="239.87 54.85 234.1 5.16 234.24 5.16 240.01 54.85 239.87 54.85" fill="#98ddf7"/><polygon points="239.73 54.85 233.96 5.16 234.1 5.16 239.87 54.85 239.73 54.85" fill="#97ddf7"/><polygon points="239.59 54.85 233.81 5.16 233.96 5.16 239.73 54.85 239.59 54.85" fill="#96ddf7"/><polygon points="239.44 54.85 233.67 5.16 233.81 5.16 239.59 54.85 239.44 54.85" fill="#95dcf7"/><polygon points="239.3 54.85 233.53 5.16 233.67 5.16 239.44 54.85 239.3 54.85" fill="#94dcf7"/><polygon points="239.16 54.85 233.39 5.16 233.53 5.16 239.3 54.85 239.16 54.85" fill="#93dcf7"/><polygon points="239.01 54.85 233.24 5.16 233.39 5.16 239.16 54.85 239.01 54.85" fill="#92dbf7"/><polygon points="238.87 54.85 233.1 5.16 233.24 5.16 239.01 54.85 238.87 54.85" fill="#91dbf7"/><polygon points="238.73 54.85 232.96 5.16 233.1 5.16 238.87 54.85 238.73 54.85" fill="#90dbf7"/><polygon points="238.59 54.85 232.82 5.16 232.96 5.16 238.73 54.85 238.59 54.85" fill="#8fdaf7"/><polygon points="238.44 54.85 232.67 5.16 232.82 5.16 238.59 54.85 238.44 54.85" fill="#8edaf7"/><polygon points="238.3 54.85 232.53 5.16 232.67 5.16 238.44 54.85 238.3 54.85" fill="#8ddaf6"/><polygon points="238.16 54.85 232.39 5.16 232.53 5.16 238.3 54.85 238.16 54.85" fill="#8cd9f6"/><polygon points="238.02 54.85 232.25 5.16 232.39 5.16 238.16 54.85 238.02 54.85" fill="#8bd9f6"/><polygon points="237.87 54.85 232.1 5.16 232.25 5.16 238.02 54.85 237.87 54.85" fill="#8ad9f6"/><polygon points="237.73 54.85 231.96 5.16 232.1 5.16 237.87 54.85 237.73 54.85" fill="#89d8f6"/><polygon points="237.59 54.85 231.82 5.16 231.96 5.16 237.73 54.85 237.59 54.85" fill="#88d8f6"/><polygon points="237.44 54.85 231.68 5.16 231.82 5.16 237.59 54.85 237.44 54.85" fill="#87d8f6"/><polygon points="237.3 54.85 231.53 5.16 231.68 5.16 237.44 54.85 237.3 54.85" fill="#86d7f6"/><polygon points="237.16 54.85 231.39 5.16 231.53 5.16 237.3 54.85 237.16 54.85" fill="#85d7f6"/><polygon points="237.02 54.85 231.25 5.16 231.39 5.16 237.16 54.85 237.02 54.85" fill="#84d7f6"/><polygon points="236.88 54.85 231.1 5.16 231.25 5.16 237.02 54.85 236.88 54.85" fill="#82d6f6"/><polygon points="236.73 54.85 230.96 5.16 231.1 5.16 236.88 54.85 236.73 54.85" fill="#81d6f6"/><polygon points="236.59 54.85 230.82 5.16 230.96 5.16 236.73 54.85 236.59 54.85" fill="#80d6f6"/><polygon points="236.45 54.85 230.68 5.16 230.82 5.16 236.59 54.85 236.45 54.85" fill="#7fd5f5"/><polygon points="236.31 54.85 230.53 5.16 230.68 5.16 236.45 54.85 236.31 54.85" fill="#7ed5f5"/><polygon points="236.16 54.85 230.39 5.16 230.53 5.16 236.31 54.85 236.16 54.85" fill="#7dd5f5"/><polygon points="236.02 54.85 230.25 5.16 230.39 5.16 236.16 54.85 236.02 54.85" fill="#7cd4f5"/><polygon points="235.88 54.85 230.11 5.16 230.25 5.16 236.02 54.85 235.88 54.85" fill="#7bd4f5"/><polygon points="235.73 54.85 229.96 5.16 230.11 5.16 235.88 54.85 235.73 54.85" fill="#7ad4f5"/><polygon points="235.59 54.85 229.82 5.16 229.96 5.16 235.73 54.85 235.59 54.85" fill="#79d3f5"/><polygon points="235.45 54.85 229.68 5.16 229.82 5.16 235.59 54.85 235.45 54.85" fill="#78d3f5"/><polygon points="235.31 54.85 229.54 5.16 229.68 5.16 235.45 54.85 235.31 54.85" fill="#77d3f5"/><polygon points="235.16 54.85 229.39 5.16 229.54 5.16 235.31 54.85 235.16 54.85" fill="#76d2f5"/><polygon points="235.02 54.85 229.25 5.16 229.39 5.16 235.16 54.85 235.02 54.85" fill="#75d2f5"/><polygon points="234.88 54.85 229.11 5.16 229.25 5.16 235.02 54.85 234.88 54.85" fill="#74d2f5"/><polygon points="234.74 54.85 228.97 5.16 229.11 5.16 234.88 54.85 234.74 54.85" fill="#73d1f5"/><polygon points="234.59 54.85 228.82 5.16 228.97 5.16 234.74 54.85 234.59 54.85" fill="#72d1f4"/><polygon points="234.45 54.85 228.68 5.16 228.82 5.16 234.59 54.85 234.45 54.85" fill="#71d1f4"/><polygon points="234.31 54.85 228.54 5.16 228.68 5.16 234.45 54.85 234.31 54.85" fill="#70d0f4"/><polygon points="234.16 54.85 228.4 5.16 228.54 5.16 234.31 54.85 234.16 54.85" fill="#6fd0f4"/><polygon points="234.02 54.85 228.25 5.16 228.4 5.16 234.16 54.85 234.02 54.85" fill="#6ed0f4"/><polygon points="233.88 54.85 228.11 5.16 228.25 5.16 234.02 54.85 233.88 54.85" fill="#6dcff4"/><polygon points="233.74 54.85 227.97 5.16 228.11 5.16 233.88 54.85 233.74 54.85" fill="#6ccff4"/><polygon points="233.59 54.85 227.82 5.16 227.97 5.16 233.74 54.85 233.59 54.85" fill="#6bcff4"/><polygon points="233.45 54.85 227.68 5.16 227.82 5.16 233.59 54.85 233.45 54.85" fill="#6acef4"/><polygon points="233.31 54.85 227.54 5.16 227.68 5.16 233.45 54.85 233.31 54.85" fill="#69cef4"/><polygon points="233.17 54.85 227.4 5.16 227.54 5.16 233.31 54.85 233.17 54.85" fill="#68cef4"/><polygon points="233.02 54.85 227.25 5.16 227.4 5.16 233.17 54.85 233.02 54.85" fill="#67cdf4"/><polygon points="232.88 54.85 227.11 5.16 227.25 5.16 233.02 54.85 232.88 54.85" fill="#66cdf4"/><polygon points="232.74 54.85 226.97 5.16 227.11 5.16 232.88 54.85 232.74 54.85" fill="#65cdf4"/><polygon points="232.6 54.85 226.83 5.16 226.97 5.16 232.74 54.85 232.6 54.85" fill="#64ccf3"/><polygon points="232.45 54.85 226.68 5.16 226.83 5.16 232.6 54.85 232.45 54.85" fill="#63ccf3"/><polygon points="232.31 54.85 226.54 5.16 226.68 5.16 232.45 54.85 232.31 54.85" fill="#62ccf3"/><polygon points="232.17 54.85 226.4 5.16 226.54 5.16 232.31 54.85 232.17 54.85" fill="#61cbf3"/><polygon points="232.03 54.85 226.26 5.16 226.4 5.16 232.17 54.85 232.03 54.85" fill="#60cbf3"/><polygon points="231.88 54.85 226.11 5.16 226.26 5.16 232.03 54.85 231.88 54.85" fill="#5fcbf3"/><polygon points="231.74 54.85 225.97 5.16 226.11 5.16 231.88 54.85 231.74 54.85" fill="#5ecbf3"/><polygon points="231.6 54.85 225.83 5.16 225.97 5.16 231.74 54.85 231.6 54.85" fill="#5dcaf3"/><polygon points="231.46 54.85 225.69 5.16 225.83 5.16 231.6 54.85 231.46 54.85" fill="#5ccaf3"/><polygon points="231.31 54.85 225.54 5.16 225.69 5.16 231.46 54.85 231.31 54.85" fill="#5bcaf3"/><polygon points="231.17 54.85 225.4 5.16 225.54 5.16 231.31 54.85 231.17 54.85" fill="#5ac9f3"/><polygon points="231.03 54.85 225.26 5.16 225.4 5.16 231.17 54.85 231.03 54.85" fill="#59c9f3"/><polygon points="230.88 54.85 225.12 5.16 225.26 5.16 231.03 54.85 230.88 54.85" fill="#58c9f3"/><polygon points="230.74 54.85 224.97 5.16 225.12 5.16 230.88 54.85 230.74 54.85" fill="#57c8f2"/><polygon points="230.6 54.85 224.83 5.16 224.97 5.16 230.74 54.85 230.6 54.85" fill="#56c8f2"/><polygon points="230.46 54.85 224.69 5.16 224.83 5.16 230.6 54.85 230.46 54.85" fill="#55c8f2"/><polygon points="230.31 54.85 224.54 5.16 224.69 5.16 230.46 54.85 230.31 54.85" fill="#54c7f2"/><polygon points="230.17 54.85 224.4 5.16 224.54 5.16 230.31 54.85 230.17 54.85" fill="#53c7f2"/><polygon points="230.03 54.85 224.26 5.16 224.4 5.16 230.17 54.85 230.03 54.85" fill="#52c7f2"/><polygon points="229.89 54.85 224.12 5.16 224.26 5.16 230.03 54.85 229.89 54.85" fill="#51c6f2"/><polygon points="229.74 54.85 223.97 5.16 224.12 5.16 229.89 54.85 229.74 54.85" fill="#50c6f2"/><polygon points="229.6 54.85 223.83 5.16 223.97 5.16 229.74 54.85 229.6 54.85" fill="#4fc6f2"/><polygon points="229.46 54.85 223.69 5.16 223.83 5.16 229.6 54.85 229.46 54.85" fill="#4ec5f2"/><polygon points="229.32 54.85 223.55 5.16 223.69 5.16 229.46 54.85 229.32 54.85" fill="#4dc5f2"/><polygon points="229.17 54.85 223.4 5.16 223.55 5.16 229.32 54.85 229.17 54.85" fill="#4cc5f2"/><polygon points="229.03 54.85 223.26 5.16 223.4 5.16 229.17 54.85 229.03 54.85" fill="#4bc4f2"/><polygon points="228.89 54.85 223.12 5.16 223.26 5.16 229.03 54.85 228.89 54.85" fill="#4ac4f1"/><polygon points="228.75 54.85 222.97 5.16 223.12 5.16 228.89 54.85 228.75 54.85" fill="#49c4f1"/><polygon points="228.6 54.85 222.83 5.16 222.97 5.16 228.75 54.85 228.6 54.85" fill="#48c3f1"/><polygon points="228.46 54.85 222.69 5.16 222.83 5.16 228.6 54.85 228.46 54.85" fill="#47c3f1"/><polygon points="228.32 54.85 222.55 5.16 222.69 5.16 228.46 54.85 228.32 54.85" fill="#46c3f1"/><polygon points="228.18 54.85 222.41 5.16 222.55 5.16 228.32 54.85 228.18 54.85" fill="#45c2f1"/><polygon points="228.03 54.85 222.26 5.16 222.41 5.16 228.18 54.85 228.03 54.85" fill="#44c2f1"/><polygon points="227.89 54.85 222.12 5.16 222.26 5.16 228.03 54.85 227.89 54.85" fill="#43c2f1"/><polygon points="227.75 54.85 221.98 5.16 222.12 5.16 227.89 54.85 227.75 54.85" fill="#42c1f1"/><polygon points="227.6 54.85 221.84 5.16 221.98 5.16 227.75 54.85 227.6 54.85" fill="#41c1f1"/><polygon points="227.46 54.85 221.69 5.16 221.84 5.16 227.6 54.85 227.46 54.85" fill="#40c1f1"/><polygon points="227.32 54.85 221.55 5.16 221.69 5.16 227.46 54.85 227.32 54.85" fill="#3fc0f1"/><polygon points="227.18 54.85 221.41 5.16 221.55 5.16 227.32 54.85 227.18 54.85" fill="#3ec0f1"/><polygon points="227.03 54.85 221.26 5.16 221.41 5.16 227.18 54.85 227.03 54.85" fill="#3dc0f1"/><polygon points="226.89 54.85 221.12 5.16 221.26 5.16 227.03 54.85 226.89 54.85" fill="#3cbff0"/><polygon points="226.75 54.85 220.98 5.16 221.12 5.16 226.89 54.85 226.75 54.85" fill="#3bbff0"/><polygon points="226.61 54.85 220.84 5.16 220.98 5.16 226.75 54.85 226.61 54.85" fill="#3abff0"/><polygon points="226.46 54.85 220.69 5.16 220.84 5.16 226.61 54.85 226.46 54.85" fill="#39bef0"/><polygon points="226.32 54.85 220.55 5.16 220.69 5.16 226.46 54.85 226.32 54.85" fill="#38bef0"/><polygon points="226.18 54.85 220.41 5.16 220.55 5.16 226.32 54.85 226.18 54.85" fill="#37bef0"/><polygon points="226.04 54.85 220.27 5.16 220.41 5.16 226.18 54.85 226.04 54.85" fill="#36bdf0"/><polygon points="225.89 54.85 220.12 5.16 220.27 5.16 226.04 54.85 225.89 54.85" fill="#35bdf0"/><polygon points="225.75 54.85 219.98 5.16 220.12 5.16 225.89 54.85 225.75 54.85" fill="#34bdf0"/><polygon points="225.61 54.85 219.84 5.16 219.98 5.16 225.75 54.85 225.61 54.85" fill="#33bcf0"/><polygon points="225.47 54.85 219.69 5.16 219.84 5.16 225.61 54.85 225.47 54.85" fill="#32bcf0"/><polygon points="225.32 54.85 219.55 5.16 219.69 5.16 225.47 54.85 225.32 54.85" fill="#31bcf0"/><polygon points="225.18 54.85 219.41 5.16 219.55 5.16 225.32 54.85 225.18 54.85" fill="#30bbf0"/><polygon points="225.04 54.85 219.27 5.16 219.41 5.16 225.18 54.85 225.04 54.85" fill="#2fbbef"/><polygon points="224.9 54.85 219.13 5.16 219.27 5.16 225.04 54.85 224.9 54.85" fill="#2ebbef"/><polygon points="224.75 54.85 218.98 5.16 219.13 5.16 224.9 54.85 224.75 54.85" fill="#2dbaef"/><polygon points="224.61 54.85 218.84 5.16 218.98 5.16 224.75 54.85 224.61 54.85" fill="#2cbaef"/><polygon points="224.47 54.85 218.7 5.16 218.84 5.16 224.61 54.85 224.47 54.85" fill="#2bbaef"/><polygon points="224.32 54.85 218.55 5.16 218.7 5.16 224.47 54.85 224.32 54.85" fill="#2ab9ef"/><polygon points="224.18 54.85 218.41 5.16 218.55 5.16 224.32 54.85 224.18 54.85" fill="#29b9ef"/><polygon points="224.04 54.85 218.27 5.16 218.41 5.16 224.18 54.85 224.04 54.85" fill="#28b9ef"/><polygon points="223.9 54.85 218.13 5.16 218.27 5.16 224.04 54.85 223.9 54.85" fill="#27b8ef"/><polygon points="223.75 54.85 217.98 5.16 218.13 5.16 223.9 54.85 223.75 54.85" fill="#26b8ef"/><polygon points="223.61 54.85 217.84 5.16 217.98 5.16 223.75 54.85 223.61 54.85" fill="#25b8ef"/><polygon points="223.47 54.85 217.7 5.16 217.84 5.16 223.61 54.85 223.47 54.85" fill="#24b7ef"/><polygon points="223.33 54.85 217.56 5.16 217.7 5.16 223.47 54.85 223.33 54.85" fill="#23b7ef"/><polygon points="223.18 54.85 217.41 5.16 217.56 5.16 223.33 54.85 223.18 54.85" fill="#22b7ee"/><polygon points="223.04 54.85 217.27 5.16 217.41 5.16 223.18 54.85 223.04 54.85" fill="#21b6ee"/><polygon points="222.9 54.85 217.13 5.16 217.27 5.16 223.04 54.85 222.9 54.85" fill="#20b6ee"/><polygon points="222.76 54.85 216.99 5.16 217.13 5.16 222.9 54.85 222.76 54.85" fill="#1fb6ee"/><polygon points="222.61 54.85 216.84 5.16 216.99 5.16 222.76 54.85 222.61 54.85" fill="#1eb6ee"/><polygon points="222.47 54.85 216.7 5.16 216.84 5.16 222.61 54.85 222.47 54.85" fill="#1db5ee"/><polygon points="222.33 54.85 216.56 5.16 216.7 5.16 222.47 54.85 222.33 54.85" fill="#1cb5ee"/><polygon points="222.19 54.85 216.41 5.16 216.56 5.16 222.33 54.85 222.19 54.85" fill="#1bb5ee"/><polygon points="222.04 54.85 216.27 5.16 216.41 5.16 222.19 54.85 222.04 54.85" fill="#1ab4ee"/><polygon points="221.9 54.85 216.13 5.16 216.27 5.16 222.04 54.85 221.9 54.85" fill="#19b4ee"/><polygon points="221.76 54.85 215.99 5.16 216.13 5.16 221.9 54.85 221.76 54.85" fill="#18b4ee"/><polygon points="221.62 54.85 215.84 5.16 215.99 5.16 221.76 54.85 221.62 54.85" fill="#17b3ee"/><polygon points="221.47 54.85 215.7 5.16 215.84 5.16 221.62 54.85 221.47 54.85" fill="#16b3ee"/><polygon points="221.33 54.85 215.56 5.16 215.7 5.16 221.47 54.85 221.33 54.85" fill="#15b3ee"/><polygon points="221.19 54.85 215.42 5.16 215.56 5.16 221.33 54.85 221.19 54.85" fill="#14b2ed"/><polygon points="221.04 54.85 215.27 5.16 215.42 5.16 221.19 54.85 221.04 54.85" fill="#13b2ed"/><polygon points="220.9 54.85 215.13 5.16 215.27 5.16 221.04 54.85 220.9 54.85" fill="#12b2ed"/><polygon points="220.76 54.85 214.99 5.16 215.13 5.16 220.9 54.85 220.76 54.85" fill="#11b1ed"/><polygon points="220.62 54.85 214.85 5.16 214.99 5.16 220.76 54.85 220.62 54.85" fill="#10b1ed"/><polygon points="220.47 54.85 214.7 5.16 214.85 5.16 220.62 54.85 220.47 54.85" fill="#0fb1ed"/><polygon points="220.33 54.85 214.56 5.16 214.7 5.16 220.47 54.85 220.33 54.85" fill="#0eb0ed"/><polygon points="220.19 54.85 214.42 5.16 214.56 5.16 220.33 54.85 220.19 54.85" fill="#0db0ed"/><polygon points="220.05 54.85 214.28 5.16 214.42 5.16 220.19 54.85 220.05 54.85" fill="#0cb0ed"/><polygon points="219.9 54.85 214.13 5.16 214.28 5.16 220.05 54.85 219.9 54.85" fill="#0bafed"/><polygon points="219.76 54.85 213.99 5.16 214.13 5.16 219.9 54.85 219.76 54.85" fill="#0aafed"/><polygon points="219.62 54.85 213.85 5.16 213.99 5.16 219.76 54.85 219.62 54.85" fill="#09afed"/><polygon points="219.48 54.85 213.71 5.16 213.85 5.16 219.62 54.85 219.48 54.85" fill="#08aeed"/><polygon points="219.33 54.85 213.56 5.16 213.71 5.16 219.48 54.85 219.33 54.85" fill="#07aeec"/><polygon points="219.19 54.85 213.42 5.16 213.56 5.16 219.33 54.85 219.19 54.85" fill="#06aeec"/><polygon points="219.05 54.85 213.28 5.16 213.42 5.16 219.19 54.85 219.05 54.85" fill="#05adec"/><polygon points="218.91 54.85 213.13 5.16 213.28 5.16 219.05 54.85 218.91 54.85" fill="#04adec"/><polygon points="218.76 54.85 212.99 5.16 213.13 5.16 218.91 54.85 218.76 54.85" fill="#03adec"/><polygon points="218.62 54.85 212.85 5.16 212.99 5.16 218.76 54.85 218.62 54.85" fill="#02acec"/><polygon points="218.48 54.85 212.71 5.16 212.85 5.16 218.62 54.85 218.48 54.85" fill="#01acec"/><polygon points="213.64 54.85 207.87 5.16 212.71 5.16 218.48 54.85 213.64 54.85" fill="#01acec"/><polygon points="207.87 5.16 213.64 54.85 202.2 54.85 202.2 5.16 207.87 5.16" fill="#01acec"/></g></g><g opacity="0.15"><g clip-path="url(#clip-path-6)"><path d="M162.6,105.27c.78,3.07-4,5.56-10.6,5.56s-12.65-2.49-13.44-5.56,4-5.56,10.6-5.56,12.65,2.49,13.44,5.56" fill="#141414"/></g></g><polygon points="147.16 81.73 156.52 106.66 160.02 108.32 160.37 108.23 150.47 80.87 147.16 81.73" fill="#fb0"/><g clip-path="url(#clip-path-7)"><path d="M160.88,108c-4.32,1.82-10.35-2.73-13.46-10.16s-2.13-14.92,2.2-16.73S160,83.88,163.09,91.3s2.12,14.92-2.21,16.73" fill="#fff"/><path d="M160.88,108c-4.32,1.82-10.35-2.73-13.46-10.16s-2.13-14.92,2.2-16.73S160,83.88,163.09,91.3s2.12,14.92-2.21,16.73" fill="#0b6080"/><path d="M157.94,108.8c-4.32,1.81-10.35-2.74-13.46-10.16s-2.13-14.92,2.2-16.73S157,84.64,160.15,92.07s2.12,14.92-2.21,16.73" fill="#01acec"/></g><path d="M150.88,50.92,148,55.64a12,12,0,0,0-1.88,7s.45,23,1.13,28.28a.63.63,0,0,0,.33.49c1.37.75,4.13.4,5.55-4.57,2.07-7.26,3-17.35,3.29-20.41a2.94,2.94,0,0,1,.66-1.63l9.12-11.61" fill="#f8bd84"/></svg>