<svg xmlns="http://www.w3.org/2000/svg" xmlns:xlink="http://www.w3.org/1999/xlink" width="220" height="80" viewBox="0 0 220 80"><defs><style>.a,.ad,.h{fill:none;}.b{opacity:0.2;mix-blend-mode:multiply;isolation:isolate;}.c{fill:#06c5ac;}.d{fill:#039382;}.e{opacity:0.16;}.f{fill:#151515;}.g{clip-path:url(#a);}.h,.u{stroke:#282827;stroke-width:0.25px;}.ad,.h,.u{stroke-miterlimit:10;}.i{clip-path:url(#b);}.j{clip-path:url(#c);}.k{fill:#7e7e7e;}.l{clip-path:url(#d);}.m{clip-path:url(#e);}.n{clip-path:url(#f);}.o{clip-path:url(#g);}.p{fill:#3b3b3b;}.q{fill:#b1b1b1;}.r,.u,.w{fill:#fff;}.s{fill:#d1d3d4;}.t{fill:#939598;}.v{fill:#d4d6eb;}.w{opacity:0.1;}.x{clip-path:url(#h);}.y{clip-path:url(#i);}.z{clip-path:url(#j);}.aa{clip-path:url(#k);}.ab{clip-path:url(#l);}.ac{fill:#11403a;}.ad{stroke:#231f20;stroke-linecap:round;stroke-width:1.842px;}.ae{fill:#099784;}.af{fill:#0d6d60;}</style><clipPath id="a"><path class="a" d="M242.673,340.608c1.907,0,3.454,4.639,3.454,10.361s-1.547,10.361-3.454,10.361H236.6V340.608Z" transform="translate(-236.6 -340.608)"/></clipPath><clipPath id="b"><path class="a" d="M242.46,340.608c1.908,0,3.454,4.639,3.454,10.361s-1.546,10.361-3.454,10.361h1.25c1.907,0,3.454-4.639,3.454-10.361s-1.547-10.361-3.454-10.361Z" transform="translate(-242.46 -340.608)"/></clipPath><clipPath id="c"><path class="a" d="M240.078,340.608c1.908,0,3.454,4.639,3.454,10.361s-1.546,10.361-3.454,10.361h1.25c1.907,0,3.454-4.639,3.454-10.361s-1.547-10.361-3.454-10.361Z" transform="translate(-240.078 -340.608)"/></clipPath><clipPath id="d"><path class="a" d="M365.949,340.608c4.172,0,7.555,4.639,7.555,10.361,0,5.664-3.314,10.266-7.428,10.359l-1.057,0a10.882,10.882,0,0,0,7.105-10.6C372.124,342.869,365.949,340.608,365.949,340.608Z" transform="translate(-365.019 -340.608)"/></clipPath><clipPath id="e"><path class="a" d="M358.481,340.608c4.172,0,7.555,4.639,7.555,10.361s-3.383,10.361-7.555,10.361h-2.026V340.608Z" transform="translate(-356.455 -340.608)"/></clipPath><clipPath id="f"><path class="a" d="M361.991,340.608c4.173,0,7.556,4.639,7.556,10.361s-3.383,10.361-7.556,10.361h1.036c4.173,0,7.555-4.639,7.555-10.361s-3.382-10.361-7.555-10.361Z" transform="translate(-361.991 -340.608)"/></clipPath><clipPath id="g"><path class="a" d="M360.018,340.608c4.173,0,7.556,4.639,7.556,10.361s-3.383,10.361-7.556,10.361h1.036c4.173,0,7.555-4.639,7.555-10.361s-3.382-10.361-7.555-10.361Z" transform="translate(-360.018 -340.608)"/></clipPath><clipPath id="h"><path class="a" d="M263.353,362.759l14.755.868,1.912-10.053-10.573-.018a.789.789,0,0,1-.7-.85c.2-2.227.6-8.583-1.817-12.666a17.751,17.751,0,0,0-14.284,9.194Z" transform="translate(-252.649 -340.04)"/></clipPath><clipPath id="i"><path class="a" d="M286.73,340.608c4.173,0,7.556,4.639,7.556,10.361,0,5.664-3.314,10.266-7.428,10.359l-1.058,0a10.882,10.882,0,0,0,7.105-10.6C292.905,342.869,286.73,340.608,286.73,340.608Z" transform="translate(-285.8 -340.608)"/></clipPath><clipPath id="j"><path class="a" d="M279.262,340.608c4.173,0,7.556,4.639,7.556,10.361s-3.383,10.361-7.556,10.361h-2.026V340.608Z" transform="translate(-277.236 -340.608)"/></clipPath><clipPath id="k"><path class="a" d="M282.773,340.608c4.173,0,7.556,4.639,7.556,10.361s-3.383,10.361-7.556,10.361h1.036c4.172,0,7.555-4.639,7.555-10.361s-3.383-10.361-7.555-10.361Z" transform="translate(-282.773 -340.608)"/></clipPath><clipPath id="l"><path class="a" d="M280.8,340.608c4.173,0,7.556,4.639,7.556,10.361s-3.383,10.361-7.556,10.361h1.036c4.172,0,7.555-4.639,7.555-10.361s-3.383-10.361-7.555-10.361Z" transform="translate(-280.8 -340.608)"/></clipPath></defs><g transform="translate(-50.543 -287.497)"><g transform="translate(50.543 333.61)"><g class="b" transform="translate(0 2.456)"><path d="M269.991,411.347l-219.448.1,23.844-29.962,164.368-1.468Z" transform="translate(-50.543 -380.016)"/><path d="M269.991,411.347l-219.448.1,23.844-29.962,164.368-1.468Z" transform="translate(-50.543 -380.016)"/><path d="M70.541,410.086l18.181-24.938,154.548-1.3,23.939,25.969Z" transform="translate(-60.043 -381.837)"/><path d="M263.388,402.91,253.8,391.723c-8.116.055-16.07-1.88-17.724-4.214l-118.648.94c-1.222,2.279-8.352,4.25-15.844,4.3l-7.237,10.786c8.284-.03,13.705,2.414,11.99,5.616l144.854-.3C248.84,405.526,254.335,402.944,263.388,402.91Z" transform="translate(-71.352 -383.576)"/><path d="M253.624,398.982c-1.524-4.656-13.7-8.055-27.221-7.953-13.421.1-24.837,3.629-25.651,8.233-.893,5.046,11.077,9.474,26.942,9.432C243.7,408.651,255.3,404.093,253.624,398.982Z" transform="translate(-121.876 -385.247)"/><path d="M236.834,407.476l-.076-1.679a69.732,69.732,0,0,1-9.8-.7l1.775-1.976a60.827,60.827,0,0,0,9.412.69c3.25-.015,5.437-.393,5.365-1.057-.068-.623-1.9-1-6.065-1.385-5.944-.543-9.935-1.307-9.874-2.8.054-1.316,3.363-2.346,9-2.686l-.065-1.35,5.106-.036.124,1.251a66.092,66.092,0,0,1,7.763.427l-1.276,1.682a60.033,60.033,0,0,0-7.827-.46c-3.485.022-4.593.446-4.577.867.02.5,1.938.811,6.624,1.278,6.65.62,9.479,1.478,9.759,2.939.284,1.485-3.132,2.8-9.77,3.174l.174,1.8Z" transform="translate(-134.349 -386.895)"/><path d="M154.884,404.2c.542-1.678-3.022-2.976-7.932-2.946s-9.51,1.371-10.34,3.043c-.857,1.727,2.623,3.15,7.811,3.127C149.627,407.4,154.324,405.937,154.884,404.2Z" transform="translate(-91.367 -390.106)"/><path d="M349.068,403.111c-1.124-1.717-6.225-3.042-11.412-3.01s-8.722,1.4-7.92,3.113c.83,1.768,5.969,3.225,11.468,3.2C346.72,406.39,350.231,404.886,349.068,403.111Z" transform="translate(-183.117 -389.557)"/></g><path class="c" d="M269.991,406.669l-219.448.1,23.844-29.962,164.368-1.468Z" transform="translate(-50.543 -375.338)"/><path class="c" d="M269.991,406.669l-219.448.1,23.844-29.962,164.368-1.468Z" transform="translate(-50.543 -375.338)"/><g transform="translate(10.498 2.012)"><path class="d" d="M70.541,405.408,88.721,380.47l154.548-1.3,23.939,25.969Z" transform="translate(-70.541 -379.172)"/></g><g transform="translate(22.996 3.933)"><path class="c" d="M263.388,398.232,253.8,387.045c-8.116.055-16.07-1.879-17.724-4.214l-118.648.94c-1.222,2.279-8.352,4.25-15.844,4.3l-7.237,10.786c8.284-.03,13.705,2.414,11.99,5.616l144.854-.3C248.84,400.848,254.335,398.265,263.388,398.232Z" transform="translate(-94.348 -382.831)"/></g><g transform="translate(78.829 5.78)"><path class="d" d="M253.624,394.3c-1.524-4.656-13.7-8.054-27.221-7.953-13.421.1-24.837,3.629-25.651,8.233-.893,5.046,11.077,9.474,26.942,9.432C243.7,403.974,255.3,399.415,253.624,394.3Z" transform="translate(-200.705 -386.349)"/></g><g transform="translate(92.614 7.601)"><path class="c" d="M236.834,402.8l-.076-1.679a69.727,69.727,0,0,1-9.8-.7l1.775-1.976a60.831,60.831,0,0,0,9.412.69c3.25-.015,5.437-.393,5.365-1.057-.068-.623-1.9-1-6.065-1.385-5.944-.543-9.935-1.307-9.874-2.8.054-1.316,3.363-2.346,9-2.686l-.065-1.35,5.106-.036.124,1.251a66.077,66.077,0,0,1,7.763.427l-1.276,1.682a60.039,60.039,0,0,0-7.827-.46c-3.485.021-4.593.446-4.577.867.02.5,1.938.811,6.624,1.278,6.65.62,9.479,1.478,9.759,2.939.284,1.485-3.132,2.8-9.77,3.174l.174,1.8Z" transform="translate(-226.963 -389.818)"/></g><g transform="translate(45.115 11.15)"><path class="d" d="M154.884,399.525c.542-1.678-3.022-2.976-7.932-2.946s-9.51,1.371-10.34,3.043c-.857,1.726,2.623,3.15,7.811,3.127C149.627,402.725,154.324,401.259,154.884,399.525Z" transform="translate(-136.482 -396.578)"/></g><g transform="translate(146.507 10.543)"><path class="d" d="M349.068,398.432c-1.124-1.717-6.225-3.042-11.412-3.011s-8.722,1.4-7.92,3.113c.83,1.768,5.969,3.225,11.468,3.2C346.72,401.711,350.231,400.208,349.068,398.432Z" transform="translate(-329.623 -395.421)"/></g></g><g transform="translate(50.543 331.379)"><g class="b" transform="translate(0 2.456)"><path d="M269.991,407.1l-219.448.1,23.844-29.962,164.368-1.468Z" transform="translate(-50.543 -375.766)"/><path d="M269.991,407.1l-219.448.1,23.844-29.962,164.368-1.468Z" transform="translate(-50.543 -375.766)"/><path d="M70.541,405.836,88.721,380.9l154.548-1.3,23.939,25.969Z" transform="translate(-60.043 -377.587)"/><path d="M263.388,398.659,253.8,387.472c-8.116.055-16.07-1.879-17.724-4.214l-118.648.94c-1.222,2.28-8.352,4.25-15.844,4.3l-7.237,10.786c8.284-.03,13.705,2.414,11.99,5.616l144.854-.3C248.84,401.276,254.335,398.693,263.388,398.659Z" transform="translate(-71.352 -379.325)"/><path d="M253.624,394.732c-1.524-4.656-13.7-8.055-27.221-7.953-13.421.1-24.837,3.629-25.651,8.233-.893,5.046,11.077,9.474,26.942,9.431C243.7,404.4,255.3,399.843,253.624,394.732Z" transform="translate(-121.876 -380.997)"/><path d="M236.834,403.226l-.076-1.679a69.729,69.729,0,0,1-9.8-.7l1.775-1.976a60.823,60.823,0,0,0,9.412.69c3.25-.015,5.437-.393,5.365-1.057-.068-.623-1.9-1-6.065-1.385-5.944-.543-9.935-1.307-9.874-2.8.054-1.316,3.363-2.346,9-2.686l-.065-1.351,5.106-.036.124,1.251a65.98,65.98,0,0,1,7.763.427l-1.276,1.682a60.039,60.039,0,0,0-7.827-.46c-3.485.022-4.593.446-4.577.867.02.5,1.938.811,6.624,1.278,6.65.62,9.479,1.478,9.759,2.939.284,1.485-3.132,2.8-9.77,3.174l.174,1.8Z" transform="translate(-134.349 -382.645)"/><path d="M154.884,399.953c.542-1.679-3.022-2.976-7.932-2.946s-9.51,1.371-10.34,3.043c-.857,1.727,2.623,3.15,7.811,3.127C149.627,403.153,154.324,401.687,154.884,399.953Z" transform="translate(-91.367 -385.856)"/><path d="M349.068,398.86c-1.124-1.717-6.225-3.042-11.412-3.011s-8.722,1.4-7.92,3.113c.83,1.768,5.969,3.225,11.468,3.2C346.72,402.139,350.231,400.636,349.068,398.86Z" transform="translate(-183.117 -385.306)"/></g><g transform="translate(0 0)"><path class="c" d="M269.991,402.419l-219.448.1,23.844-29.962,164.368-1.468Z" transform="translate(-50.543 -371.088)"/><path class="c" d="M269.991,402.419l-219.448.1,23.844-29.962,164.368-1.468Z" transform="translate(-50.543 -371.088)"/><g transform="translate(10.498 2.012)"><path class="d" d="M70.541,401.158l18.181-24.938,154.548-1.3,23.939,25.969Z" transform="translate(-70.541 -374.921)"/></g><g transform="translate(22.996 3.933)"><path class="c" d="M263.388,393.981,253.8,382.794c-8.116.055-16.07-1.88-17.724-4.214l-118.648.94c-1.222,2.28-8.352,4.25-15.844,4.3l-7.237,10.786c8.284-.031,13.705,2.414,11.99,5.615l144.854-.3C248.84,396.6,254.335,394.015,263.388,393.981Z" transform="translate(-94.348 -378.58)"/></g><g transform="translate(78.829 5.78)"><path class="d" d="M253.624,390.054C252.1,385.4,239.924,382,226.4,382.1c-13.421.1-24.837,3.629-25.651,8.233-.893,5.046,11.077,9.474,26.942,9.432C243.7,399.723,255.3,395.164,253.624,390.054Z" transform="translate(-200.705 -382.099)"/></g><g transform="translate(92.614 7.601)"><path class="c" d="M236.834,398.548l-.076-1.679a69.724,69.724,0,0,1-9.8-.7l1.775-1.976a60.823,60.823,0,0,0,9.412.69c3.25-.015,5.437-.393,5.365-1.057-.068-.623-1.9-1-6.065-1.386-5.944-.542-9.935-1.307-9.874-2.8.054-1.316,3.363-2.345,9-2.686l-.065-1.351,5.106-.036.124,1.251a65.968,65.968,0,0,1,7.763.427l-1.276,1.682a60.039,60.039,0,0,0-7.827-.46c-3.485.022-4.593.446-4.577.867.02.5,1.938.811,6.624,1.278,6.65.62,9.479,1.478,9.759,2.939.284,1.485-3.132,2.8-9.77,3.174l.174,1.8Z" transform="translate(-226.963 -385.568)"/></g><g transform="translate(45.115 11.15)"><path class="d" d="M154.884,395.275c.542-1.679-3.022-2.976-7.932-2.946s-9.51,1.371-10.34,3.043c-.857,1.727,2.623,3.15,7.811,3.127C149.627,398.475,154.324,397.009,154.884,395.275Z" transform="translate(-136.482 -392.328)"/></g><g transform="translate(146.507 10.543)"><path class="d" d="M349.068,394.182c-1.124-1.717-6.225-3.042-11.412-3.011s-8.722,1.4-7.92,3.113c.83,1.768,5.969,3.225,11.468,3.2C346.72,397.461,350.231,395.957,349.068,394.182Z" transform="translate(-329.623 -391.171)"/></g></g></g><g transform="translate(50.543 329.755)"><g class="b" transform="translate(0 1.842)"><path d="M269.991,402.834l-219.448.1,23.844-29.962L238.755,371.5Z" transform="translate(-50.543 -371.503)"/><path d="M269.991,402.834l-219.448.1,23.844-29.962L238.755,371.5Z" transform="translate(-50.543 -371.503)"/><path d="M70.541,401.573l18.181-24.938,154.548-1.3,23.939,25.969Z" transform="translate(-60.043 -373.324)"/><path d="M263.388,394.4,253.8,383.21c-8.116.055-16.07-1.879-17.724-4.214l-118.648.94c-1.222,2.279-8.352,4.25-15.844,4.3l-7.237,10.786c8.284-.03,13.705,2.414,11.99,5.616l144.854-.3C248.84,397.013,254.335,394.43,263.388,394.4Z" transform="translate(-71.352 -375.063)"/><path d="M253.624,390.469c-1.524-4.656-13.7-8.055-27.221-7.953-13.421.1-24.837,3.629-25.651,8.233-.893,5.046,11.077,9.474,26.942,9.432C243.7,400.138,255.3,395.58,253.624,390.469Z" transform="translate(-121.876 -376.734)"/><path d="M236.834,398.963l-.076-1.679a69.742,69.742,0,0,1-9.8-.7l1.775-1.977a60.823,60.823,0,0,0,9.412.69c3.25-.015,5.437-.393,5.365-1.057-.068-.623-1.9-1-6.065-1.385-5.944-.543-9.935-1.307-9.874-2.8.054-1.316,3.363-2.346,9-2.686l-.065-1.35,5.106-.036.124,1.251a66.085,66.085,0,0,1,7.763.427l-1.276,1.682a60.033,60.033,0,0,0-7.827-.46c-3.485.022-4.593.446-4.577.867.02.5,1.938.811,6.624,1.278,6.65.62,9.479,1.478,9.759,2.939.284,1.485-3.132,2.8-9.77,3.174l.174,1.8Z" transform="translate(-134.349 -378.382)"/><path d="M154.884,395.69c.542-1.678-3.022-2.976-7.932-2.946s-9.51,1.371-10.34,3.043c-.857,1.726,2.623,3.15,7.811,3.127C149.627,398.89,154.324,397.424,154.884,395.69Z" transform="translate(-91.367 -381.593)"/><path d="M349.068,394.6c-1.124-1.717-6.225-3.042-11.412-3.011s-8.722,1.4-7.92,3.113c.83,1.768,5.969,3.225,11.468,3.2C346.72,397.876,350.231,396.373,349.068,394.6Z" transform="translate(-183.117 -381.043)"/></g><g transform="translate(0 0)"><path class="c" d="M269.991,399.325l-219.448.1,23.844-29.962,164.368-1.468Z" transform="translate(-50.543 -367.995)"/><path class="c" d="M269.991,399.325l-219.448.1,23.844-29.962,164.368-1.468Z" transform="translate(-50.543 -367.995)"/><g transform="translate(10.498 2.012)"><path class="d" d="M70.541,398.064l18.181-24.938,154.548-1.3L267.208,397.8Z" transform="translate(-70.541 -371.828)"/></g><g transform="translate(22.996 3.933)"><path class="c" d="M263.388,390.888,253.8,379.7c-8.116.055-16.07-1.88-17.724-4.214l-118.648.94c-1.222,2.28-8.352,4.25-15.844,4.3l-7.237,10.787c8.284-.031,13.705,2.413,11.99,5.615l144.854-.3C248.84,393.5,254.335,390.922,263.388,390.888Z" transform="translate(-94.348 -375.487)"/></g><g transform="translate(78.829 5.78)"><path class="d" d="M253.624,386.96c-1.524-4.656-13.7-8.055-27.221-7.953-13.421.1-24.837,3.629-25.651,8.233-.893,5.046,11.077,9.474,26.942,9.432C243.7,396.629,255.3,392.071,253.624,386.96Z" transform="translate(-200.705 -379.005)"/></g><g transform="translate(92.614 7.602)"><path class="c" d="M236.834,395.455l-.076-1.679a69.667,69.667,0,0,1-9.8-.7l1.775-1.976a60.762,60.762,0,0,0,9.412.69c3.25-.014,5.437-.393,5.365-1.057-.068-.623-1.9-1-6.065-1.385-5.944-.543-9.935-1.307-9.874-2.8.054-1.316,3.363-2.346,9-2.687l-.065-1.35,5.106-.036.124,1.251a65.857,65.857,0,0,1,7.763.427l-1.276,1.681a60.043,60.043,0,0,0-7.827-.46c-3.485.022-4.593.446-4.577.867.02.5,1.938.811,6.624,1.278,6.65.619,9.479,1.478,9.759,2.939.284,1.485-3.132,2.8-9.77,3.174l.174,1.8Z" transform="translate(-226.963 -382.475)"/></g><g transform="translate(45.115 11.15)"><path class="d" d="M154.884,392.182c.542-1.679-3.022-2.977-7.932-2.946s-9.51,1.371-10.34,3.043c-.857,1.727,2.623,3.15,7.811,3.127C149.627,395.382,154.324,393.916,154.884,392.182Z" transform="translate(-136.482 -389.235)"/></g><g transform="translate(146.507 10.543)"><path class="d" d="M349.068,391.089c-1.124-1.717-6.225-3.042-11.412-3.01s-8.722,1.4-7.92,3.113c.83,1.768,5.969,3.225,11.468,3.2C346.72,394.368,350.231,392.864,349.068,391.089Z" transform="translate(-329.623 -388.078)"/></g></g></g><g transform="translate(50.543 328.132)"><g class="b" transform="translate(0 1.842)"><path d="M269.991,399.741l-219.448.1,23.844-29.962,164.368-1.468Z" transform="translate(-50.543 -368.41)"/><path d="M269.991,399.741l-219.448.1,23.844-29.962,164.368-1.468Z" transform="translate(-50.543 -368.41)"/><path d="M70.541,398.48l18.181-24.938,154.548-1.3,23.939,25.969Z" transform="translate(-60.043 -370.231)"/><path d="M263.388,391.3,253.8,380.116c-8.116.055-16.07-1.879-17.724-4.214l-118.648.94c-1.222,2.28-8.352,4.25-15.844,4.3l-7.237,10.786c8.284-.03,13.705,2.414,11.99,5.616l144.854-.3C248.84,393.92,254.335,391.337,263.388,391.3Z" transform="translate(-71.352 -371.969)"/><path d="M253.624,387.376c-1.524-4.656-13.7-8.055-27.221-7.953-13.421.1-24.837,3.629-25.651,8.233-.893,5.047,11.077,9.474,26.942,9.432C243.7,397.045,255.3,392.486,253.624,387.376Z" transform="translate(-121.876 -373.641)"/><path d="M236.834,395.87l-.076-1.679a69.719,69.719,0,0,1-9.8-.7l1.775-1.976a60.823,60.823,0,0,0,9.412.69c3.25-.015,5.437-.393,5.365-1.057-.068-.623-1.9-1-6.065-1.385-5.944-.543-9.935-1.307-9.874-2.8.054-1.316,3.363-2.346,9-2.686l-.065-1.351,5.106-.036.124,1.251a65.968,65.968,0,0,1,7.763.427l-1.276,1.682a60.052,60.052,0,0,0-7.827-.46c-3.485.022-4.593.446-4.577.867.02.5,1.938.811,6.624,1.278,6.65.62,9.479,1.478,9.759,2.939.284,1.485-3.132,2.8-9.77,3.174l.174,1.8Z" transform="translate(-134.349 -375.289)"/><path d="M154.884,392.6c.542-1.679-3.022-2.976-7.932-2.946s-9.51,1.371-10.34,3.043c-.857,1.727,2.623,3.15,7.811,3.127C149.627,395.8,154.324,394.331,154.884,392.6Z" transform="translate(-91.367 -378.5)"/><path d="M349.068,391.5c-1.124-1.717-6.225-3.042-11.412-3.011s-8.722,1.4-7.92,3.113c.83,1.768,5.969,3.225,11.468,3.2C346.72,394.783,350.231,393.279,349.068,391.5Z" transform="translate(-183.117 -377.95)"/></g><path class="c" d="M269.991,396.232l-219.448.1L74.388,366.37,238.755,364.9Z" transform="translate(-50.543 -364.901)"/><path class="c" d="M269.991,396.232l-219.448.1L74.388,366.37,238.755,364.9Z" transform="translate(-50.543 -364.901)"/><g transform="translate(10.498 2.012)"><path class="d" d="M70.541,394.971l18.181-24.938,154.548-1.3L267.208,394.7Z" transform="translate(-70.541 -368.735)"/></g><g transform="translate(22.996 3.933)"><path class="c" d="M263.388,387.8,253.8,376.608c-8.116.055-16.07-1.88-17.724-4.214l-118.648.94c-1.222,2.279-8.352,4.25-15.844,4.3l-7.237,10.786c8.284-.03,13.705,2.414,11.99,5.616l144.854-.3C248.84,390.411,254.335,387.829,263.388,387.8Z" transform="translate(-94.348 -372.394)"/></g><g transform="translate(78.829 5.78)"><path class="d" d="M253.624,383.867c-1.524-4.656-13.7-8.055-27.221-7.953-13.421.1-24.837,3.629-25.651,8.233-.893,5.046,11.077,9.474,26.942,9.432C243.7,393.536,255.3,388.978,253.624,383.867Z" transform="translate(-200.705 -375.912)"/></g><g transform="translate(92.614 7.601)"><path class="c" d="M236.834,392.361l-.076-1.679a69.742,69.742,0,0,1-9.8-.7L228.738,388a60.763,60.763,0,0,0,9.412.69c3.25-.015,5.437-.393,5.365-1.057-.068-.623-1.9-1-6.065-1.385-5.944-.543-9.935-1.307-9.874-2.8.054-1.316,3.363-2.346,9-2.686l-.065-1.35,5.106-.036.124,1.251a66.086,66.086,0,0,1,7.763.427l-1.276,1.682a60.047,60.047,0,0,0-7.827-.46c-3.485.022-4.593.446-4.577.867.02.5,1.938.811,6.624,1.278,6.65.619,9.479,1.478,9.759,2.938.284,1.485-3.132,2.8-9.77,3.174l.174,1.8Z" transform="translate(-226.963 -379.381)"/></g><g transform="translate(45.115 11.15)"><path class="d" d="M154.884,389.088c.542-1.678-3.022-2.976-7.932-2.946s-9.51,1.371-10.34,3.043c-.857,1.727,2.623,3.15,7.811,3.127C149.627,392.289,154.324,390.822,154.884,389.088Z" transform="translate(-136.482 -386.142)"/></g><g transform="translate(146.507 10.543)"><path class="d" d="M349.068,388c-1.124-1.717-6.225-3.042-11.412-3.01s-8.722,1.4-7.92,3.113c.83,1.768,5.969,3.225,11.468,3.2C346.72,391.275,350.231,389.771,349.068,388Z" transform="translate(-329.623 -384.985)"/></g></g><g transform="translate(50.543 326.508)"><g class="b" transform="translate(0 1.842)"><path d="M269.991,396.647l-219.448.1,23.844-29.962,164.368-1.468Z" transform="translate(-50.543 -365.317)"/><path d="M269.991,396.647l-219.448.1,23.844-29.962,164.368-1.468Z" transform="translate(-50.543 -365.317)"/><path d="M70.541,395.386l18.181-24.938,154.548-1.3,23.939,25.969Z" transform="translate(-60.043 -367.138)"/><path d="M263.388,388.21,253.8,377.023c-8.116.055-16.07-1.88-17.724-4.214l-118.648.94c-1.222,2.28-8.352,4.25-15.844,4.3l-7.237,10.787c8.284-.031,13.705,2.413,11.99,5.615l144.854-.3C248.84,390.826,254.335,388.244,263.388,388.21Z" transform="translate(-71.352 -368.876)"/><path d="M253.624,384.282c-1.524-4.656-13.7-8.055-27.221-7.953-13.421.1-24.837,3.629-25.651,8.234-.893,5.046,11.077,9.474,26.942,9.431C243.7,393.951,255.3,389.393,253.624,384.282Z" transform="translate(-121.876 -370.547)"/><path d="M236.834,392.777l-.076-1.679a69.653,69.653,0,0,1-9.8-.7l1.775-1.976a60.763,60.763,0,0,0,9.412.69c3.25-.014,5.437-.393,5.365-1.057-.068-.623-1.9-1-6.065-1.385-5.944-.542-9.935-1.307-9.874-2.8.054-1.316,3.363-2.346,9-2.687l-.065-1.35,5.106-.036.124,1.251a65.855,65.855,0,0,1,7.763.427l-1.276,1.681a60.033,60.033,0,0,0-7.827-.46c-3.485.022-4.593.446-4.577.867.02.5,1.938.811,6.624,1.278,6.65.619,9.479,1.478,9.759,2.939.284,1.485-3.132,2.8-9.77,3.174l.174,1.8Z" transform="translate(-134.349 -372.195)"/><path d="M154.884,389.5c.542-1.679-3.022-2.976-7.932-2.946s-9.51,1.371-10.34,3.043c-.857,1.727,2.623,3.15,7.811,3.127C149.627,392.7,154.324,391.238,154.884,389.5Z" transform="translate(-91.367 -375.407)"/><path d="M349.068,388.411c-1.124-1.717-6.225-3.043-11.412-3.011s-8.722,1.4-7.92,3.113c.83,1.768,5.969,3.225,11.468,3.2C346.72,391.69,350.231,390.186,349.068,388.411Z" transform="translate(-183.117 -374.857)"/></g><path class="c" d="M269.991,393.139l-219.448.1,23.844-29.962,164.368-1.468Z" transform="translate(-50.543 -361.808)"/><path class="c" d="M269.991,393.139l-219.448.1,23.844-29.962,164.368-1.468Z" transform="translate(-50.543 -361.808)"/><g transform="translate(10.498 2.012)"><path class="d" d="M70.541,391.878,88.721,366.94l154.548-1.3,23.939,25.969Z" transform="translate(-70.541 -365.641)"/></g><g transform="translate(22.996 3.933)"><path class="c" d="M263.388,384.7,253.8,373.514c-8.116.055-16.07-1.879-17.724-4.214l-118.648.94c-1.222,2.28-8.352,4.251-15.844,4.3l-7.237,10.786c8.284-.03,13.705,2.414,11.99,5.616l144.854-.3C248.84,387.318,254.335,384.735,263.388,384.7Z" transform="translate(-94.348 -369.3)"/></g><g transform="translate(78.829 5.78)"><path class="d" d="M253.624,380.774c-1.524-4.656-13.7-8.055-27.221-7.953-13.421.1-24.837,3.629-25.651,8.233-.893,5.046,11.077,9.474,26.942,9.432C243.7,390.443,255.3,385.885,253.624,380.774Z" transform="translate(-200.705 -372.819)"/></g><g transform="translate(92.614 7.601)"><path class="c" d="M236.834,389.268l-.076-1.679a69.738,69.738,0,0,1-9.8-.7l1.775-1.976a60.815,60.815,0,0,0,9.412.69c3.25-.015,5.437-.393,5.365-1.057-.068-.623-1.9-1-6.065-1.385-5.944-.543-9.935-1.307-9.874-2.8.054-1.316,3.363-2.346,9-2.686l-.065-1.35,5.106-.036.124,1.251a66.077,66.077,0,0,1,7.763.427l-1.276,1.682a60.05,60.05,0,0,0-7.827-.46c-3.485.022-4.593.446-4.577.867.02.5,1.938.81,6.624,1.278,6.65.62,9.479,1.478,9.759,2.939.284,1.485-3.132,2.8-9.77,3.174l.174,1.8Z" transform="translate(-226.963 -376.288)"/></g><g transform="translate(45.115 11.15)"><path class="d" d="M154.884,385.995c.542-1.678-3.022-2.976-7.932-2.946s-9.51,1.371-10.34,3.043c-.857,1.727,2.623,3.15,7.811,3.127C149.627,389.2,154.324,387.729,154.884,385.995Z" transform="translate(-136.482 -383.048)"/></g><g transform="translate(146.507 10.543)"><path class="d" d="M349.068,384.9c-1.124-1.717-6.225-3.042-11.412-3.011s-8.722,1.4-7.92,3.113c.83,1.768,5.969,3.225,11.468,3.2C346.72,388.181,350.231,386.678,349.068,384.9Z" transform="translate(-329.623 -381.891)"/></g></g><g transform="translate(50.543 324.884)"><g class="b" transform="translate(0 1.842)"><path d="M269.991,393.554l-219.448.1,23.844-29.962,164.368-1.468Z" transform="translate(-50.543 -362.224)"/><path d="M269.991,393.554l-219.448.1,23.844-29.962,164.368-1.468Z" transform="translate(-50.543 -362.224)"/><path d="M70.541,392.293l18.181-24.938,154.548-1.3,23.939,25.969Z" transform="translate(-60.043 -364.044)"/><path d="M263.388,385.117,253.8,373.93c-8.116.055-16.07-1.88-17.724-4.214l-118.648.94c-1.222,2.28-8.352,4.25-15.844,4.3l-7.237,10.786c8.284-.03,13.705,2.414,11.99,5.616l144.854-.3C248.84,387.733,254.335,385.151,263.388,385.117Z" transform="translate(-71.352 -365.783)"/><path d="M253.624,381.189c-1.524-4.656-13.7-8.055-27.221-7.953-13.421.1-24.837,3.629-25.651,8.233-.893,5.046,11.077,9.474,26.942,9.432C243.7,390.858,255.3,386.3,253.624,381.189Z" transform="translate(-121.876 -367.454)"/><path d="M236.834,389.684,236.759,388a69.742,69.742,0,0,1-9.8-.7l1.775-1.976a60.77,60.77,0,0,0,9.412.69c3.25-.014,5.437-.393,5.365-1.057-.068-.623-1.9-1-6.065-1.385-5.944-.543-9.935-1.307-9.874-2.8.054-1.316,3.363-2.346,9-2.686l-.065-1.35,5.106-.036.124,1.25a66.086,66.086,0,0,1,7.763.427l-1.276,1.682a60.033,60.033,0,0,0-7.827-.46c-3.485.022-4.593.446-4.577.867.02.5,1.938.811,6.624,1.278,6.65.619,9.479,1.478,9.759,2.938.284,1.485-3.132,2.8-9.77,3.174l.174,1.8Z" transform="translate(-134.349 -369.102)"/><path d="M154.884,386.41c.542-1.678-3.022-2.976-7.932-2.946s-9.51,1.371-10.34,3.043c-.857,1.727,2.623,3.15,7.811,3.127C149.627,389.611,154.324,388.144,154.884,386.41Z" transform="translate(-91.367 -372.314)"/><path d="M349.068,385.318c-1.124-1.717-6.225-3.042-11.412-3.01s-8.722,1.4-7.92,3.112c.83,1.768,5.969,3.225,11.468,3.2C346.72,388.6,350.231,387.093,349.068,385.318Z" transform="translate(-183.117 -371.764)"/></g><path class="c" d="M269.991,390.046l-219.448.1,23.844-29.962,164.368-1.468Z" transform="translate(-50.543 -358.715)"/><path class="c" d="M269.991,390.046l-219.448.1,23.844-29.962,164.368-1.468Z" transform="translate(-50.543 -358.715)"/><g transform="translate(10.498 2.012)"><path class="d" d="M70.541,388.784l18.181-24.938,154.548-1.3,23.939,25.969Z" transform="translate(-70.541 -362.548)"/></g><g transform="translate(22.996 3.933)"><path class="c" d="M263.388,381.608,253.8,370.421c-8.116.055-16.07-1.88-17.724-4.214l-118.648.94c-1.222,2.28-8.352,4.25-15.844,4.3l-7.237,10.787c8.284-.031,13.705,2.414,11.99,5.615l144.854-.3C248.84,384.224,254.335,381.642,263.388,381.608Z" transform="translate(-94.348 -366.207)"/></g><g transform="translate(78.829 5.78)"><path class="d" d="M253.624,377.681c-1.524-4.656-13.7-8.055-27.221-7.953-13.421.1-24.837,3.629-25.651,8.233-.893,5.047,11.077,9.474,26.942,9.431C243.7,387.35,255.3,382.791,253.624,377.681Z" transform="translate(-200.705 -369.726)"/></g><g transform="translate(92.614 7.601)"><path class="c" d="M236.834,386.175l-.076-1.679a69.714,69.714,0,0,1-9.8-.7l1.775-1.976a60.827,60.827,0,0,0,9.412.69c3.25-.015,5.437-.393,5.365-1.057-.068-.623-1.9-1-6.065-1.386-5.944-.542-9.935-1.307-9.874-2.8.054-1.316,3.363-2.346,9-2.686l-.065-1.351,5.106-.036.124,1.251a65.84,65.84,0,0,1,7.763.427l-1.276,1.682a60.039,60.039,0,0,0-7.827-.46c-3.485.021-4.593.446-4.577.867.02.5,1.938.811,6.624,1.278,6.65.62,9.479,1.478,9.759,2.939.284,1.485-3.132,2.8-9.77,3.174l.174,1.8Z" transform="translate(-226.963 -373.195)"/></g><g transform="translate(45.115 11.15)"><path class="d" d="M154.884,382.9c.542-1.679-3.022-2.976-7.932-2.946s-9.51,1.371-10.34,3.043c-.857,1.727,2.623,3.15,7.811,3.127C149.627,386.1,154.324,384.636,154.884,382.9Z" transform="translate(-136.482 -379.955)"/></g><g transform="translate(146.507 10.543)"><path class="d" d="M349.068,381.809c-1.124-1.717-6.225-3.043-11.412-3.011s-8.722,1.4-7.92,3.113c.83,1.768,5.969,3.225,11.468,3.2C346.72,385.088,350.231,383.584,349.068,381.809Z" transform="translate(-329.623 -378.798)"/></g></g><g transform="translate(50.543 323.26)"><g class="b" transform="translate(0 1.842)"><path d="M269.991,390.461l-219.448.1L74.388,360.6l164.368-1.468Z" transform="translate(-50.543 -359.13)"/><path d="M269.991,390.461l-219.448.1L74.388,360.6l164.368-1.468Z" transform="translate(-50.543 -359.13)"/><path d="M70.541,389.2l18.181-24.938,154.548-1.3,23.939,25.969Z" transform="translate(-60.043 -360.951)"/><path d="M263.388,382.024,253.8,370.837c-8.116.055-16.07-1.879-17.724-4.214l-118.648.939c-1.222,2.28-8.352,4.251-15.844,4.3L94.348,382.65c8.284-.03,13.705,2.414,11.99,5.616l144.854-.3C248.84,384.64,254.335,382.057,263.388,382.024Z" transform="translate(-71.352 -362.69)"/><path d="M253.624,378.1c-1.524-4.656-13.7-8.054-27.221-7.953-13.421.1-24.837,3.629-25.651,8.233-.893,5.046,11.077,9.474,26.942,9.431C243.7,387.765,255.3,383.207,253.624,378.1Z" transform="translate(-121.876 -364.361)"/><path d="M236.834,386.59l-.076-1.679a69.64,69.64,0,0,1-9.8-.7l1.775-1.976a60.827,60.827,0,0,0,9.412.69c3.25-.015,5.437-.393,5.365-1.057-.068-.623-1.9-1-6.065-1.385-5.944-.543-9.935-1.307-9.874-2.8.054-1.316,3.363-2.346,9-2.686l-.065-1.35,5.106-.036.124,1.251a66.079,66.079,0,0,1,7.763.427l-1.276,1.682a60.039,60.039,0,0,0-7.827-.46c-3.485.022-4.593.446-4.577.867.02.5,1.938.811,6.624,1.278,6.65.62,9.479,1.478,9.759,2.939.284,1.485-3.132,2.8-9.77,3.174l.174,1.8Z" transform="translate(-134.349 -366.009)"/><path d="M154.884,383.317c.542-1.678-3.022-2.976-7.932-2.946s-9.51,1.371-10.34,3.043c-.857,1.726,2.623,3.15,7.811,3.127C149.627,386.517,154.324,385.051,154.884,383.317Z" transform="translate(-91.367 -369.22)"/><path d="M349.068,382.224c-1.124-1.717-6.225-3.042-11.412-3.011s-8.722,1.4-7.92,3.113c.83,1.768,5.969,3.225,11.468,3.2C346.72,385.5,350.231,384,349.068,382.224Z" transform="translate(-183.117 -368.67)"/></g><path class="c" d="M269.991,386.952l-219.448.1L74.388,357.09l164.368-1.468Z" transform="translate(-50.543 -355.622)"/><path class="c" d="M269.991,386.952l-219.448.1L74.388,357.09l164.368-1.468Z" transform="translate(-50.543 -355.622)"/><g transform="translate(10.498 2.012)"><path class="d" d="M70.541,385.691l18.181-24.938,154.548-1.3,23.939,25.969Z" transform="translate(-70.541 -359.455)"/></g><g transform="translate(22.996 3.933)"><path class="c" d="M263.388,378.515,253.8,367.328c-8.116.055-16.07-1.88-17.724-4.214l-118.648.94c-1.222,2.28-8.352,4.25-15.844,4.3l-7.237,10.787c8.284-.031,13.705,2.413,11.99,5.615l144.854-.3C248.84,381.131,254.335,378.549,263.388,378.515Z" transform="translate(-94.348 -363.114)"/></g><g transform="translate(78.829 5.78)"><path class="d" d="M253.624,374.587c-1.524-4.656-13.7-8.055-27.221-7.953-13.421.1-24.837,3.629-25.651,8.233-.893,5.047,11.077,9.474,26.942,9.432C243.7,384.257,255.3,379.7,253.624,374.587Z" transform="translate(-200.705 -366.632)"/></g><g transform="translate(92.614 7.602)"><path class="c" d="M236.834,383.082l-.076-1.679a69.653,69.653,0,0,1-9.8-.7l1.775-1.976a60.771,60.771,0,0,0,9.412.69c3.25-.014,5.437-.393,5.365-1.057-.068-.623-1.9-1-6.065-1.385-5.944-.543-9.935-1.307-9.874-2.8.054-1.316,3.363-2.345,9-2.686l-.065-1.35,5.106-.036.124,1.251a65.854,65.854,0,0,1,7.763.427l-1.276,1.681A60.039,60.039,0,0,0,240.4,373c-3.485.022-4.593.446-4.577.867.02.5,1.938.811,6.624,1.278,6.65.619,9.479,1.478,9.759,2.939.284,1.485-3.132,2.8-9.77,3.174l.174,1.8Z" transform="translate(-226.963 -370.102)"/></g><g transform="translate(45.115 11.15)"><path class="d" d="M154.884,379.809c.542-1.679-3.022-2.977-7.932-2.946s-9.51,1.371-10.34,3.043c-.857,1.727,2.623,3.15,7.811,3.127C149.627,383.009,154.324,381.542,154.884,379.809Z" transform="translate(-136.482 -376.862)"/></g><g transform="translate(146.507 10.543)"><path class="d" d="M349.068,378.716c-1.124-1.717-6.225-3.042-11.412-3.01s-8.722,1.4-7.92,3.113c.83,1.767,5.969,3.225,11.468,3.2C346.72,382,350.231,380.491,349.068,378.716Z" transform="translate(-329.623 -375.705)"/></g></g><g transform="translate(50.543 321.636)"><g class="b" transform="translate(0 1.842)"><path d="M269.991,387.368l-219.448.1,23.844-29.962,164.368-1.468Z" transform="translate(-50.543 -356.037)"/><path d="M269.991,387.368l-219.448.1,23.844-29.962,164.368-1.468Z" transform="translate(-50.543 -356.037)"/><path d="M70.541,386.106l18.181-24.938,154.548-1.3,23.939,25.969Z" transform="translate(-60.043 -357.858)"/><path d="M263.388,378.93,253.8,367.743c-8.116.055-16.07-1.879-17.724-4.214l-118.648.94c-1.222,2.28-8.352,4.25-15.844,4.3l-7.237,10.786c8.284-.031,13.705,2.414,11.99,5.615l144.854-.3C248.84,381.547,254.335,378.964,263.388,378.93Z" transform="translate(-71.352 -359.596)"/><path d="M253.624,375c-1.524-4.656-13.7-8.055-27.221-7.953-13.421.1-24.837,3.629-25.651,8.233-.893,5.047,11.077,9.474,26.942,9.431C243.7,384.672,255.3,380.113,253.624,375Z" transform="translate(-121.876 -361.267)"/><path d="M236.834,383.5l-.076-1.679a69.728,69.728,0,0,1-9.8-.7l1.775-1.976a60.831,60.831,0,0,0,9.412.69c3.25-.015,5.437-.393,5.365-1.057-.068-.623-1.9-1-6.065-1.386-5.944-.542-9.935-1.307-9.874-2.8.054-1.316,3.363-2.346,9-2.686l-.065-1.351,5.106-.036.124,1.251a65.968,65.968,0,0,1,7.763.427l-1.276,1.682a60.037,60.037,0,0,0-7.827-.46c-3.485.022-4.593.446-4.577.867.02.5,1.938.811,6.624,1.278,6.65.62,9.479,1.478,9.759,2.939.284,1.485-3.132,2.8-9.77,3.174l.174,1.8Z" transform="translate(-134.349 -362.916)"/><path d="M154.884,380.224c.542-1.679-3.022-2.976-7.932-2.946s-9.51,1.371-10.34,3.043c-.857,1.727,2.623,3.15,7.811,3.127C149.627,383.424,154.324,381.958,154.884,380.224Z" transform="translate(-91.367 -366.127)"/><path d="M349.068,379.131c-1.124-1.717-6.225-3.042-11.412-3.011s-8.722,1.4-7.92,3.113c.83,1.768,5.969,3.225,11.468,3.2C346.72,382.41,350.231,380.906,349.068,379.131Z" transform="translate(-183.117 -365.577)"/></g><path class="c" d="M269.991,383.859l-219.448.1L74.388,354l164.368-1.468Z" transform="translate(-50.543 -352.528)"/><path class="c" d="M269.991,383.859l-219.448.1L74.388,354l164.368-1.468Z" transform="translate(-50.543 -352.528)"/><g transform="translate(10.498 2.012)"><path class="d" d="M70.541,382.6,88.721,357.66l154.548-1.3,23.939,25.969Z" transform="translate(-70.541 -356.362)"/></g><g transform="translate(22.996 3.933)"><path class="c" d="M263.388,375.422,253.8,364.235c-8.116.055-16.07-1.88-17.724-4.214l-118.648.94c-1.222,2.279-8.352,4.25-15.844,4.3l-7.237,10.786c8.284-.03,13.705,2.414,11.99,5.616l144.854-.305C248.84,378.038,254.335,375.455,263.388,375.422Z" transform="translate(-94.348 -360.021)"/></g><g transform="translate(78.829 5.78)"><path class="d" d="M253.624,371.494c-1.524-4.656-13.7-8.055-27.221-7.953-13.421.1-24.837,3.629-25.651,8.233-.893,5.046,11.077,9.474,26.942,9.432C243.7,381.163,255.3,376.6,253.624,371.494Z" transform="translate(-200.705 -363.539)"/></g><g transform="translate(92.614 7.601)"><path class="c" d="M236.834,379.988l-.076-1.679a69.728,69.728,0,0,1-9.8-.7l1.775-1.976a60.831,60.831,0,0,0,9.412.69c3.25-.015,5.437-.393,5.365-1.057-.068-.623-1.9-1-6.065-1.385-5.944-.543-9.935-1.307-9.874-2.8.054-1.316,3.363-2.345,9-2.686l-.065-1.35,5.106-.036.124,1.251a66.077,66.077,0,0,1,7.763.427l-1.276,1.682a60.039,60.039,0,0,0-7.827-.46c-3.485.021-4.593.446-4.577.867.02.5,1.938.811,6.624,1.278,6.65.62,9.479,1.478,9.759,2.939.284,1.485-3.132,2.8-9.77,3.174l.174,1.8Z" transform="translate(-226.963 -367.008)"/></g><g transform="translate(45.115 11.151)"><path class="d" d="M154.884,376.715c.542-1.678-3.022-2.976-7.932-2.946s-9.51,1.371-10.34,3.043c-.857,1.727,2.623,3.15,7.811,3.127C149.627,379.916,154.324,378.449,154.884,376.715Z" transform="translate(-136.482 -373.769)"/></g><g transform="translate(146.507 10.543)"><path class="d" d="M349.068,375.623c-1.124-1.717-6.225-3.042-11.412-3.01s-8.722,1.4-7.92,3.112c.83,1.768,5.969,3.225,11.468,3.2C346.72,378.9,350.231,377.4,349.068,375.623Z" transform="translate(-329.623 -372.612)"/></g></g><g transform="translate(50.543 320.012)"><g class="b" transform="translate(0 1.842)"><path d="M269.991,384.274l-219.448.1,23.844-29.962,164.368-1.468Z" transform="translate(-50.543 -352.944)"/><path d="M269.991,384.274l-219.448.1,23.844-29.962,164.368-1.468Z" transform="translate(-50.543 -352.944)"/><path d="M70.541,383.013l18.181-24.938,154.548-1.3,23.939,25.969Z" transform="translate(-60.043 -354.765)"/><path d="M263.388,375.837,253.8,364.65c-8.116.055-16.07-1.88-17.724-4.214l-118.648.94c-1.222,2.28-8.352,4.25-15.844,4.3l-7.237,10.787c8.284-.031,13.705,2.413,11.99,5.615l144.854-.3C248.84,378.453,254.335,375.871,263.388,375.837Z" transform="translate(-71.352 -356.503)"/><path d="M253.624,371.909c-1.524-4.656-13.7-8.055-27.221-7.953-13.421.1-24.837,3.629-25.651,8.234-.893,5.046,11.077,9.473,26.942,9.432C243.7,381.578,255.3,377.02,253.624,371.909Z" transform="translate(-121.876 -358.174)"/><path d="M236.834,380.4l-.076-1.679a69.643,69.643,0,0,1-9.8-.7l1.775-1.976a60.767,60.767,0,0,0,9.412.69c3.25-.014,5.437-.393,5.365-1.057-.068-.623-1.9-1-6.065-1.385-5.944-.543-9.935-1.307-9.874-2.8.054-1.316,3.363-2.346,9-2.687l-.065-1.35,5.106-.036.124,1.251a65.84,65.84,0,0,1,7.763.427l-1.276,1.681a60.039,60.039,0,0,0-7.827-.46c-3.485.022-4.593.446-4.577.867.02.5,1.938.811,6.624,1.278,6.65.62,9.479,1.478,9.759,2.939.284,1.485-3.132,2.8-9.77,3.174l.174,1.8Z" transform="translate(-134.349 -359.822)"/><path d="M154.884,377.131c.542-1.679-3.022-2.977-7.932-2.946s-9.51,1.371-10.34,3.043c-.857,1.727,2.623,3.15,7.811,3.127C149.627,380.331,154.324,378.865,154.884,377.131Z" transform="translate(-91.367 -363.034)"/><path d="M349.068,376.038c-1.124-1.717-6.225-3.042-11.412-3.01s-8.722,1.4-7.92,3.113c.83,1.768,5.969,3.225,11.468,3.2C346.72,379.317,350.231,377.813,349.068,376.038Z" transform="translate(-183.117 -362.484)"/></g><g transform="translate(0 0)"><path class="c" d="M269.991,380.766l-219.448.1L74.388,350.9l164.368-1.468Z" transform="translate(-50.543 -349.435)"/><path class="c" d="M269.991,380.766l-219.448.1L74.388,350.9l164.368-1.468Z" transform="translate(-50.543 -349.435)"/><g transform="translate(10.498 2.012)"><path class="d" d="M70.541,379.5l18.181-24.938,154.548-1.3,23.939,25.969Z" transform="translate(-70.541 -353.268)"/></g><g transform="translate(22.996 3.933)"><path class="c" d="M263.388,372.328,253.8,361.141c-8.116.055-16.07-1.879-17.724-4.214l-118.648.94c-1.222,2.28-8.352,4.25-15.844,4.3l-7.237,10.786c8.284-.03,13.705,2.414,11.99,5.616l144.854-.3C248.84,374.945,254.335,372.362,263.388,372.328Z" transform="translate(-94.348 -356.927)"/></g><g transform="translate(78.829 5.78)"><path class="d" d="M253.624,368.4c-1.524-4.656-13.7-8.055-27.221-7.953-13.421.1-24.837,3.629-25.651,8.233-.893,5.046,11.077,9.474,26.942,9.431C243.7,378.07,255.3,373.512,253.624,368.4Z" transform="translate(-200.705 -360.446)"/></g><g transform="translate(92.614 7.601)"><path class="c" d="M236.834,376.9l-.076-1.679a69.729,69.729,0,0,1-9.8-.7l1.775-1.976a60.819,60.819,0,0,0,9.412.69c3.25-.015,5.437-.393,5.365-1.057-.068-.623-1.9-1-6.065-1.385-5.944-.543-9.935-1.307-9.874-2.8.054-1.316,3.363-2.346,9-2.686l-.065-1.35,5.106-.036.124,1.251a65.971,65.971,0,0,1,7.763.427l-1.276,1.682a60.037,60.037,0,0,0-7.827-.46c-3.485.022-4.593.446-4.577.867.02.5,1.938.811,6.624,1.278,6.65.62,9.479,1.478,9.759,2.939.284,1.485-3.132,2.8-9.77,3.174l.174,1.8Z" transform="translate(-226.963 -363.915)"/></g><g transform="translate(45.115 11.15)"><path class="d" d="M154.884,373.622c.542-1.678-3.022-2.976-7.932-2.946s-9.51,1.371-10.34,3.043c-.857,1.727,2.623,3.15,7.811,3.127C149.627,376.822,154.324,375.356,154.884,373.622Z" transform="translate(-136.482 -370.675)"/></g><g transform="translate(146.507 10.543)"><path class="d" d="M349.068,372.529c-1.124-1.717-6.225-3.042-11.412-3.011s-8.722,1.4-7.92,3.113c.83,1.768,5.969,3.225,11.468,3.2C346.72,375.808,350.231,374.3,349.068,372.529Z" transform="translate(-329.623 -369.518)"/></g></g></g><ellipse class="e" cx="69.732" cy="3.33" rx="69.732" ry="3.33" transform="translate(88.173 331.947)"/><g transform="translate(95.4 287.497)"><g transform="translate(46.492)"><rect width="13.168" height="16.648" transform="translate(2.305 24.265)"/><g transform="translate(34.775 26.671)"><path class="f" d="M303.447,340c1.907,0,3.454,4.639,3.454,10.361s-1.547,10.36-3.454,10.36h-6.074V340Z" transform="translate(-293.92 -339.111)"/><g transform="translate(4.426 0.298)"><g transform="translate(0 0.715)"><line class="f" x1="4.367" y1="1.814"/></g><g transform="translate(4.267)"><line class="f" y1="1.814" x2="4.307"/><line class="f" y1="1.674" x2="3.976" transform="translate(0 1.655)"/><line class="f" y1="1.535" x2="3.644" transform="translate(0 3.31)"/><line class="f" y1="1.395" x2="3.313" transform="translate(0 4.965)"/><line class="f" y1="1.256" x2="2.982" transform="translate(0 6.62)"/><line class="f" y1="1.116" x2="2.65" transform="translate(0 8.275)"/><line class="f" y1="0.977" x2="2.319" transform="translate(0 9.93)"/><line class="f" y1="0.837" x2="1.988" transform="translate(0 11.585)"/><line class="f" y1="0.698" x2="1.657" transform="translate(0 13.24)"/><line class="f" y1="0.558" x2="1.325" transform="translate(0 14.895)"/><line class="f" y1="0.419" x2="0.994" transform="translate(0 16.55)"/><line class="f" y1="0.279" x2="0.663" transform="translate(0 18.205)"/><line class="f" y1="0.14" x2="0.331" transform="translate(0 19.86)"/><path class="f" d="M307.355,379.853" transform="translate(-307.355 -358.338)"/></g></g><ellipse class="f" cx="3.454" cy="10.361" rx="3.454" ry="10.361" transform="translate(0 0.893)"/><path class="f" d="M303.234,340.21c1.908,0,3.454,4.59,3.454,10.253s-1.546,10.252-3.454,10.252h1.25c1.907,0,3.453-4.59,3.453-10.252s-1.546-10.253-3.453-10.253Z" transform="translate(-296.704 -339.208)"/><g transform="translate(6.788 1.429)"><line class="f" x1="4.367" y1="1.814"/></g><path class="f" d="M300.852,340.21c1.908,0,3.454,4.59,3.454,10.253s-1.546,10.252-3.454,10.252h1.25c1.907,0,3.454-4.59,3.454-10.252S304.01,340.21,302.1,340.21Z" transform="translate(-295.572 -339.208)"/><g transform="translate(6.49)"><line class="f" y1="1.814" x2="4.367"/></g><g transform="translate(0.921 3.778)"><path class="f" d="M292.549,353.274a18.623,18.623,0,0,0,.824,5.878,6.285,6.285,0,0,0,.363.842c.352.67.763,1.054,1.2,1.054.464,0,.9-.429,1.262-1.176h0a7.134,7.134,0,0,0,.379-.952,19.178,19.178,0,0,0,.746-5.646c0-.607-.022-1.2-.062-1.768-.032-.447-.076-.877-.129-1.291-.331-2.515-1.057-4.346-1.923-4.667a.761.761,0,0,0-.433-.033c-.883.191-1.634,1.949-2,4.426-.059.4-.108.826-.144,1.265C292.579,351.866,292.549,352.558,292.549,353.274Z" transform="translate(-292.549 -345.498)"/><g transform="translate(0.283 0.939)"><path class="f" d="M295.081,367.446c.311.591.672.93,1.057.93.408,0,.789-.379,1.112-1.037l-.96-4.291c-.056-.25-.17-.25-.226,0Z" transform="translate(-294.035 -354.684)"/><path class="f" d="M297.551,347.34l.011,5.2c0,.3.091.522.181.431l1.5-1.513C298.955,349.237,298.315,347.623,297.551,347.34Z" transform="translate(-295.208 -347.312)"/><path class="f" d="M298.042,359.668l.936,4.211a16.889,16.889,0,0,0,.658-4.976c0-.535-.019-1.058-.055-1.559l-1.471,1.626A1.044,1.044,0,0,0,298.042,359.668Z" transform="translate(-295.429 -352.064)"/><path class="f" d="M293.088,358.664a16.4,16.4,0,0,0,.727,5.181l1-4.518a1.051,1.051,0,0,0-.068-.7l-1.586-1.789C293.115,357.423,293.088,358.033,293.088,358.664Z" transform="translate(-293.088 -351.825)"/><path class="f" d="M293.474,351.187l1.568,1.614c.09.092.181-.124.182-.431l.009-5.084C294.455,347.454,293.793,349,293.474,351.187Z" transform="translate(-293.271 -347.286)"/></g></g></g><g transform="translate(2.87 27.881)"><path class="f" d="M242.673,340.608c1.907,0,3.454,4.639,3.454,10.361s-1.547,10.361-3.454,10.361H236.6V340.608Z" transform="translate(-233.146 -340.608)"/><g transform="translate(3.454)"><g class="g"><g transform="translate(0.972 -0.913)"><g transform="translate(0 0.715)"><line class="h" x1="4.367" y1="1.814"/><line class="h" x1="4.367" y1="1.814" transform="translate(0 1.552)"/><line class="h" x1="4.367" y1="1.814" transform="translate(0 3.104)"/><line class="h" x1="4.367" y1="1.814" transform="translate(0 4.656)"/><line class="h" x1="4.367" y1="1.814" transform="translate(0 6.208)"/><line class="h" x1="4.367" y1="1.814" transform="translate(0 7.761)"/><line class="h" x1="4.367" y1="1.814" transform="translate(0 9.313)"/><line class="h" x1="4.367" y1="1.814" transform="translate(0 10.865)"/><line class="h" x1="4.367" y1="1.814" transform="translate(0 12.417)"/><line class="h" x1="4.367" y1="1.814" transform="translate(0 13.969)"/><line class="h" x1="4.367" y1="1.814" transform="translate(0 15.521)"/><line class="h" x1="4.367" y1="1.814" transform="translate(0 17.073)"/><line class="h" x1="4.367" y1="1.814" transform="translate(0 18.625)"/><line class="h" x1="4.367" y1="1.814" transform="translate(0 20.178)"/></g><g transform="translate(4.267)"><line class="h" y1="1.814" x2="4.307"/><line class="h" y1="1.814" x2="4.307" transform="translate(0 1.515)"/><line class="h" y1="1.814" x2="4.307" transform="translate(0 3.031)"/><line class="h" y1="1.814" x2="4.307" transform="translate(0 4.546)"/><line class="h" y1="1.814" x2="4.307" transform="translate(0 6.062)"/><line class="h" y1="1.814" x2="4.307" transform="translate(0 7.577)"/><line class="h" y1="1.814" x2="4.307" transform="translate(0 9.093)"/><line class="h" y1="1.814" x2="4.307" transform="translate(0 10.608)"/><line class="h" y1="1.814" x2="4.307" transform="translate(0 12.124)"/><line class="h" y1="1.814" x2="4.307" transform="translate(0 13.639)"/><line class="h" y1="1.814" x2="4.307" transform="translate(0 15.155)"/><line class="h" y1="1.814" x2="4.307" transform="translate(0 16.67)"/><line class="h" y1="1.814" x2="4.307" transform="translate(0 18.186)"/><line class="h" y1="1.814" x2="4.307" transform="translate(0 19.701)"/></g></g></g></g><ellipse class="f" cx="3.454" cy="10.361" rx="3.454" ry="10.361" transform="translate(0 0)"/><path class="f" d="M242.46,340.815c1.908,0,3.454,4.59,3.454,10.252s-1.546,10.252-3.454,10.252h1.25c1.907,0,3.454-4.59,3.454-10.252s-1.547-10.252-3.454-10.252Z" transform="translate(-235.93 -340.706)"/><g transform="translate(6.53)"><g class="i"><g transform="translate(0.258 0.219)"><line class="h" x1="4.367" y1="1.814"/><line class="h" x1="4.367" y1="1.814" transform="translate(0.037 1.497)"/><line class="h" x1="4.367" y1="1.814" transform="translate(0.073 2.994)"/><line class="h" x1="4.367" y1="1.814" transform="translate(0.11 4.491)"/><line class="h" x1="4.367" y1="1.814" transform="translate(0.147 5.989)"/><line class="h" x1="4.367" y1="1.814" transform="translate(0.183 7.486)"/><line class="h" x1="4.367" y1="1.814" transform="translate(0.22 8.983)"/><line class="h" x1="4.367" y1="1.814" transform="translate(0.257 10.48)"/><line class="h" x1="4.367" y1="1.814" transform="translate(0.293 11.977)"/><line class="h" x1="4.367" y1="1.814" transform="translate(0.33 13.474)"/><line class="h" x1="4.367" y1="1.814" transform="translate(0.366 14.972)"/><line class="h" x1="4.367" y1="1.814" transform="translate(0.403 16.469)"/><line class="h" x1="4.367" y1="1.814" transform="translate(0.44 17.966)"/><line class="h" x1="4.367" y1="1.814" transform="translate(0.476 19.463)"/></g></g></g><path class="f" d="M240.078,340.815c1.908,0,3.454,4.59,3.454,10.252s-1.546,10.252-3.454,10.252h1.25c1.907,0,3.454-4.59,3.454-10.252s-1.547-10.252-3.454-10.252Z" transform="translate(-234.798 -340.706)"/><g transform="translate(5.28)"><g class="j"><g transform="translate(-0.219 -1.211)"><line class="h" y1="1.814" x2="4.367" transform="translate(1.429)"/><line class="h" y1="1.814" x2="4.367" transform="translate(1.319 1.552)"/><line class="h" y1="1.814" x2="4.367" transform="translate(1.209 3.104)"/><line class="h" y1="1.814" x2="4.367" transform="translate(1.099 4.656)"/><line class="h" y1="1.814" x2="4.367" transform="translate(0.989 6.208)"/><line class="h" y1="1.814" x2="4.367" transform="translate(0.879 7.761)"/><line class="h" y1="1.814" x2="4.367" transform="translate(0.77 9.313)"/><line class="h" y1="1.814" x2="4.367" transform="translate(0.66 10.865)"/><line class="h" y1="1.814" x2="4.367" transform="translate(0.55 12.417)"/><line class="h" y1="1.814" x2="4.367" transform="translate(0.44 13.969)"/><line class="h" y1="1.814" x2="4.367" transform="translate(0.33 15.521)"/><line class="h" y1="1.814" x2="4.367" transform="translate(0.22 17.073)"/><line class="h" y1="1.814" x2="4.367" transform="translate(0.11 18.625)"/><line class="h" y1="1.814" x2="4.367" transform="translate(0 20.178)"/></g></g></g><g transform="translate(0.921 2.567)"><path class="k" d="M231.775,353.274a18.6,18.6,0,0,0,.824,5.878,6.22,6.22,0,0,0,.363.842c.352.67.763,1.054,1.2,1.054.464,0,.9-.429,1.261-1.176h0a7.136,7.136,0,0,0,.378-.952,19.179,19.179,0,0,0,.747-5.646c0-.607-.021-1.2-.062-1.768-.032-.447-.076-.877-.129-1.291-.331-2.515-1.057-4.346-1.923-4.667a.761.761,0,0,0-.433-.033c-.883.191-1.634,1.949-2,4.426-.059.4-.107.826-.144,1.265C231.8,351.866,231.775,352.558,231.775,353.274Z" transform="translate(-231.775 -345.498)"/><g transform="translate(0.283 0.939)"><path class="f" d="M234.307,367.446c.311.591.672.93,1.057.93.408,0,.789-.379,1.112-1.037l-.96-4.291c-.056-.25-.17-.25-.226,0Z" transform="translate(-233.261 -354.684)"/><path class="f" d="M236.777,347.34l.011,5.2c0,.3.092.522.181.431l1.5-1.513C238.181,349.237,237.541,347.623,236.777,347.34Z" transform="translate(-234.434 -347.312)"/><path class="f" d="M237.268,359.668l.936,4.211a16.888,16.888,0,0,0,.658-4.976c0-.535-.019-1.058-.055-1.559l-1.471,1.626A1.044,1.044,0,0,0,237.268,359.668Z" transform="translate(-234.655 -352.064)"/><path class="f" d="M232.314,358.664a16.4,16.4,0,0,0,.727,5.181l1-4.518a1.048,1.048,0,0,0-.068-.7l-1.585-1.789C232.341,357.423,232.314,358.033,232.314,358.664Z" transform="translate(-232.314 -351.825)"/><path class="f" d="M232.7,351.187l1.568,1.614c.09.092.181-.124.182-.431l.01-5.084C233.681,347.454,233.019,349,232.7,351.187Z" transform="translate(-232.497 -347.286)"/></g></g></g><g transform="translate(61.901 27.881)"><path class="f" d="M361.881,340.608c4.172,0,7.555,4.639,7.555,10.361s-3.383,10.361-7.555,10.361h-5.426V340.608Z" transform="translate(-349.112 -340.608)"/><g transform="translate(11.839)"><g class="l"><g transform="translate(0.838 -0.913)"><line class="h" y1="1.809" x2="9.391"/><line class="h" y1="1.809" x2="9.391" transform="translate(0 1.511)"/><line class="h" y1="1.809" x2="9.391" transform="translate(0 3.022)"/><line class="h" y1="1.809" x2="9.391" transform="translate(0 4.533)"/><line class="h" y1="1.809" x2="9.391" transform="translate(0 6.045)"/><line class="h" y1="1.809" x2="9.391" transform="translate(0 7.556)"/><line class="h" y1="1.809" x2="9.391" transform="translate(0 9.067)"/><line class="h" y1="1.809" x2="9.391" transform="translate(0 10.578)"/><line class="h" y1="1.809" x2="9.391" transform="translate(0 12.089)"/><line class="h" y1="1.809" x2="9.391" transform="translate(0 13.6)"/><line class="h" y1="1.809" x2="9.391" transform="translate(0 15.111)"/><line class="h" y1="1.809" x2="9.391" transform="translate(0 16.623)"/><line class="h" y1="1.809" x2="9.391" transform="translate(0 18.134)"/><line class="h" y1="1.809" x2="9.391" transform="translate(0 19.645)"/></g></g></g><g transform="translate(7.343)"><g class="m"><g transform="translate(0.003 -0.198)"><line class="h" x1="9.553" y1="1.814"/><line class="h" x1="9.553" y1="1.814" transform="translate(0 1.552)"/><line class="h" x1="9.553" y1="1.814" transform="translate(0 3.104)"/><line class="h" x1="9.553" y1="1.814" transform="translate(0 4.656)"/><line class="h" x1="9.553" y1="1.814" transform="translate(0 6.208)"/><line class="h" x1="9.553" y1="1.814" transform="translate(0 7.761)"/><line class="h" x1="9.553" y1="1.814" transform="translate(0 9.313)"/><line class="h" x1="9.553" y1="1.814" transform="translate(0 10.865)"/><line class="h" x1="9.553" y1="1.814" transform="translate(0 12.417)"/><line class="h" x1="9.553" y1="1.814" transform="translate(0 13.969)"/><line class="h" x1="9.553" y1="1.814" transform="translate(0 15.521)"/><line class="h" x1="9.553" y1="1.814" transform="translate(0 17.073)"/><line class="h" x1="9.553" y1="1.814" transform="translate(0 18.625)"/><line class="h" x1="9.553" y1="1.814" transform="translate(0 20.178)"/></g></g></g><ellipse class="f" cx="7.556" cy="10.361" rx="7.556" ry="10.361" transform="translate(0 0)"/><path class="f" d="M361.992,340.608c4.173,0,7.555,4.61,7.555,10.3s-3.382,10.3-7.555,10.3h1.035c4.173,0,7.556-4.61,7.556-10.3s-3.383-10.3-7.556-10.3Z" transform="translate(-351.742 -340.608)"/><g transform="translate(10.249)"><g class="n"><g transform="translate(0.564 0.219)"><line class="h" x1="9.553" y1="1.814"/><line class="h" x1="9.553" y1="1.814" transform="translate(0.08 1.497)"/><line class="h" x1="9.553" y1="1.814" transform="translate(0.16 2.994)"/><line class="h" x1="9.553" y1="1.814" transform="translate(0.241 4.491)"/><line class="h" x1="9.553" y1="1.814" transform="translate(0.321 5.989)"/><line class="h" x1="9.553" y1="1.814" transform="translate(0.401 7.486)"/><line class="h" x1="9.553" y1="1.814" transform="translate(0.481 8.983)"/><line class="h" x1="9.553" y1="1.814" transform="translate(0.561 10.48)"/><line class="h" x1="9.553" y1="1.814" transform="translate(0.641 11.977)"/><line class="h" x1="9.553" y1="1.814" transform="translate(0.722 13.474)"/><line class="h" x1="9.553" y1="1.814" transform="translate(0.802 14.972)"/><line class="h" x1="9.553" y1="1.814" transform="translate(0.882 16.469)"/><line class="h" x1="9.553" y1="1.814" transform="translate(0.962 17.966)"/><line class="h" x1="9.553" y1="1.814" transform="translate(1.042 19.463)"/></g></g></g><path class="f" d="M360.018,340.608c4.173,0,7.556,4.61,7.556,10.3s-3.383,10.3-7.556,10.3h1.036c4.173,0,7.555-4.61,7.555-10.3s-3.382-10.3-7.555-10.3Z" transform="translate(-350.804 -340.608)"/><g transform="translate(9.214)"><g class="o"><g transform="translate(-0.478 -1.211)"><line class="h" y1="1.814" x2="9.553" transform="translate(3.127)"/><line class="h" y1="1.814" x2="9.553" transform="translate(2.886 1.552)"/><line class="h" y1="1.814" x2="9.553" transform="translate(2.646 3.104)"/><line class="h" y1="1.814" x2="9.553" transform="translate(2.405 4.656)"/><line class="h" y1="1.814" x2="9.553" transform="translate(2.165 6.208)"/><line class="h" y1="1.814" x2="9.553" transform="translate(1.924 7.761)"/><line class="h" y1="1.814" x2="9.553" transform="translate(1.684 9.313)"/><line class="h" y1="1.814" x2="9.553" transform="translate(1.443 10.865)"/><line class="h" y1="1.814" x2="9.553" transform="translate(1.203 12.417)"/><line class="h" y1="1.814" x2="9.553" transform="translate(0.962 13.969)"/><line class="h" y1="1.814" x2="9.553" transform="translate(0.722 15.521)"/><line class="h" y1="1.814" x2="9.553" transform="translate(0.481 17.073)"/><line class="h" y1="1.814" x2="9.553" transform="translate(0.241 18.625)"/><line class="h" y1="1.814" x2="9.553" transform="translate(0 20.178)"/></g></g></g><g transform="translate(2.015 2.567)"><path class="p" d="M346.3,353.274a9.707,9.707,0,0,0,1.8,5.878,5.77,5.77,0,0,0,.794.842,3.985,3.985,0,0,0,2.624,1.054,4.037,4.037,0,0,0,2.76-1.176h0a6.113,6.113,0,0,0,.828-.952,9.857,9.857,0,0,0,1.633-5.646,11.287,11.287,0,0,0-.137-1.768,10.479,10.479,0,0,0-.282-1.291c-.724-2.515-2.312-4.346-4.208-4.667a3.616,3.616,0,0,0-.595-.05c-.118,0-.235.006-.351.017-1.932.191-3.576,1.949-4.367,4.426a10.33,10.33,0,0,0-.314,1.265A11.345,11.345,0,0,0,346.3,353.274Z" transform="translate(-346.305 -345.498)"/></g></g><rect width="11.102" height="17.394" transform="translate(21.873 23.687)"/><path class="f" d="M228.279,311.287l-.764.049a1.357,1.357,0,0,0-1.253,1.132l-1.033,6.238a3.3,3.3,0,0,0,.96,2.911l1.074,1.04Z" transform="translate(-224.853 -298.798)"/><path class="q" d="M261.181,328.8l-4.99-.03-.174,0h-.067a.551.551,0,0,1-.549-.6c.08-.935.126-1.914.126-2.922q0-.886-.046-1.736v0c0-.015,0-.033,0-.048-.006-.161-.017-.319-.028-.475-.022-.35-.052-.692-.087-1.028-.015-.17-.035-.336-.054-.5s-.039-.33-.063-.49c0-.007,0-.013,0-.022q-.062-.475-.143-.926-.1-.567-.215-1.1c-.044-.2-.091-.4-.141-.6s-.1-.367-.145-.543c-.03-.106-.061-.211-.093-.312s-.065-.215-.1-.319c-.015-.05-.033-.1-.048-.145-.073-.219-.152-.43-.232-.632q-.061-.16-.13-.312-.163-.375-.339-.7c-.028-.052-.054-.1-.082-.15-.089-.16-.182-.308-.278-.447-.022-.033-.046-.065-.067-.1-.033-.048-.069-.1-.1-.141l-.076-.1c-.03-.037-.061-.074-.091-.109s-.06-.067-.093-.1a2.466,2.466,0,0,0-.74-.56.841.841,0,0,0-.091-.039c-.026-.011-.055-.022-.08-.03s-.05-.017-.074-.024-.063-.017-.093-.024a1.441,1.441,0,0,0-.21-.03c-.035,0-.07,0-.1,0-2.109,0-3.845,4.665-4.036,10.629-.013.365-.019.736-.019,1.111,0,.182,0,.364,0,.544,0,.035,0,.071,0,.109.006.373.019.74.039,1.1.009.191.022.382.035.569s.028.388.046.58.035.38.054.566l-.675,0-3.14-.019-6.036-.037-2.287-.015-.328,0a.274.274,0,0,1-.063-.007.306.306,0,0,1-.156-.084.315.315,0,0,1-.087-.247q.033-.361.059-.729c.009-.137.017-.276.026-.414,0-.1.011-.2.015-.3.013-.293.024-.59.03-.891,0-.082,0-.165,0-.248,0-.156,0-.312,0-.47,0-.375-.007-.746-.017-1.111-.189-5.965-1.89-10.629-3.96-10.629s-3.769,4.665-3.96,10.629l-.013.505c0,.2,0,.4,0,.606s0,.423.006.631c0,.147,0,.293.011.438,0,.074,0,.145.006.219l.007.143c0,.13.01.26.017.391l.006.128c.011.174.021.345.035.514v.008c.022.293.048.584.076.868l-.408,0a.3.3,0,0,1-.063-.007.3.3,0,0,1-.115-.044.362.362,0,0,1-.048-.037.336.336,0,0,1-.117-.213l-.61-4.151-1.089-7.405a15.88,15.88,0,0,1,.208-5.763l2.4-10.807,4.765-9.712a3.437,3.437,0,0,1,2.864-1.918l6.457-.429.019,0,.057,0,.056,0,.1-.006.163-.011.1-.006.326-.022.343-.024.17-.011,1.612-.108a4.554,4.554,0,0,1,.644,0h.009a4.519,4.519,0,0,1,3.654,2.408v0a4.212,4.212,0,0,1,.186.4l.365.9.054.13,4.426,10.909.414.69,0,.007,5.116,8.525Z" transform="translate(-224.553 -287.684)"/><path class="r" d="M262.082,314.8l-1.1,10.419-4.629-11.463c-6.98-10.451-26.508-13.6-26.508-13.6l.043-.087,0-.009,4.683-9.544a3.584,3.584,0,0,1,2.98-2l6.377-.423.019,0,.057,0,.056,0,.1-.006.163-.011.1-.006.325-.022.343-.024.169-.011,1.612-.108a4.547,4.547,0,0,1,.645,0h.008a4.519,4.519,0,0,1,3.654,2.409v0a4.231,4.231,0,0,1,.186.4l.365.9.054.13,4.427,10.909.414.69,0,.007,5.116,8.525Z" transform="translate(-227.068 -287.684)"/><path class="s" d="M255.5,334.19c-.007.141-.015.282-.022.419,0-.015,0-.033,0-.048-.008-.161-.019-.317-.028-.475-.024-.35-.054-.692-.087-1.028-.017-.167-.035-.334-.054-.5s-.041-.328-.063-.49c0-.007,0-.013,0-.022-.044-.314-.091-.625-.143-.926q-.1-.567-.215-1.1c-.046-.2-.091-.4-.141-.6s-.1-.367-.145-.543c-.03-.106-.061-.211-.093-.312s-.065-.215-.1-.319c-.015-.05-.03-.1-.048-.145-.073-.219-.152-.43-.232-.632q-.061-.16-.13-.312-.163-.375-.339-.7c-.026-.052-.054-.1-.082-.15-.089-.16-.182-.308-.278-.447-.022-.033-.044-.065-.067-.1-.033-.048-.069-.1-.1-.141s-.05-.065-.076-.1-.061-.074-.091-.109-.06-.069-.093-.1a2.465,2.465,0,0,0-.74-.56.835.835,0,0,0-.091-.039c-.026-.011-.055-.022-.08-.03s-.05-.017-.074-.024-.063-.017-.093-.024a1.45,1.45,0,0,0-.21-.03c-.035,0-.07,0-.1,0-2.109,0-3.845,4.665-4.036,10.629-.013.365-.019.736-.019,1.111,0,.182,0,.364,0,.544,0,.035,0,.071,0,.109.006.373.019.74.039,1.1.011.191.022.382.035.569s.028.388.046.58.035.38.054.566l-.675,0-3.14-.019-6.036-.037-2.287-.015-.328,0a.276.276,0,0,1-.063-.007.322.322,0,0,1-.156-.085.315.315,0,0,1-.087-.247q.033-.361.059-.729c.009-.137.017-.276.026-.414.006-.1.011-.2.015-.3.013-.293.024-.59.03-.891,0-.082,0-.165,0-.248,0-.156,0-.312,0-.47,0-.375-.007-.746-.017-1.111-.189-5.965-1.89-10.629-3.96-10.629s-3.769,4.665-3.96,10.629l-.013.505c0,.2,0,.4,0,.606s0,.423.006.631c0,.147,0,.293.011.438,0,.074,0,.145.006.219l.007.143c0,.13.01.26.017.391l.006.128c.011.174.021.345.035.514v.008c.022.293.048.584.076.868l-.408,0a.3.3,0,0,1-.063-.007.382.382,0,0,1-.115-.044.356.356,0,0,1-.048-.037.336.336,0,0,1-.117-.213l-.61-4.151-1.089-7.405a15.88,15.88,0,0,1,.208-5.763l2.4-10.807a64.442,64.442,0,0,1,9.569,2.5c5.982,2.05,13.231,5.542,16.94,11.094C253.841,324.86,255.794,328.258,255.5,334.19Z" transform="translate(-224.553 -298.786)"/><path class="r" d="M259.17,328.225s-1.339-15.351,3.941-15.351c5.5,0,4.208,15.871,4.208,15.871l.53,0v-.03l.438-17.319a9.03,9.03,0,0,0-.7-3.719l-1.821-4.381,0-.007c-1.547-3.719-5.371-13.017-5.371-13.017-.1-.233-.331-.635-.353-.678a4.967,4.967,0,0,0-3.662-1.817c-.375,0-3.306.268-3.306.268s-3.075,10.866-3.563,14.88a218.067,218.067,0,0,0-.11,25.675c0,.013,0,.024,0,.037l9.836.059Z" transform="translate(-236.211 -287.632)"/><path class="t" d="M244.208,354.764c.011.365.053,1.875.053,2.251,0,1.03-.045,2.031-.13,2.982a.374.374,0,0,0,.37.409l.257,0,2.287.014c-.079-1.553-.14-3.966-.187-5.423Z" transform="translate(-233.852 -319.451)"/><path class="u" d="M268.381,364.94c-.026-.245-.048-.493-.068-.744.02.251.043.5.068.744Z" transform="translate(-245.341 -323.932)"/><path class="u" d="M268.207,362.645q.017.3.038.585Q268.223,362.94,268.207,362.645Z" transform="translate(-245.29 -323.195)"/><path class="u" d="M268.113,359.884c.007.289.019.573.034.856q-.042-.828-.043-1.689c0,.271,0,.542.009.809Z" transform="translate(-245.241 -321.488)"/><path class="u" d="M268.28,363.759c.005.077.011.153.017.229C268.291,363.912,268.285,363.836,268.28,363.759Z" transform="translate(-245.325 -323.724)"/><path class="s" d="M265.5,327.429c-3.513-5.261-10.206-8.67-15.987-10.76-.033.428-.681,8.984-.3,21.138h9.877c.15-4.661,1.242-8.527,2.719-10,.03-.03.063-.061.1-.089a1.815,1.815,0,0,1,1.222-.544c.868,0,1.671.787,2.328,2.131.067.134.132.273.2.421a20.462,20.462,0,0,1,1.369,5.9c.013.123.024.249.035.375.009.091.015.184.022.276.026.3.046.6.061.9.007-.139.015-.28.022-.423C267.451,330.827,265.5,327.429,265.5,327.429Z" transform="translate(-236.211 -301.355)"/><path class="u" d="M264.321,365.633l.675,0,0-.024h-3.812Z" transform="translate(-241.953 -324.605)"/><path class="u" d="M249.683,365.543l6.036.037-6.036-.038Z" transform="translate(-236.49 -324.571)"/><path class="u" d="M268.186,362.268c0,.067.007.132.011.2C268.193,362.4,268.189,362.335,268.186,362.268Z" transform="translate(-245.28 -323.016)"/><path class="t" d="M249.488,360.619l6.036.038h3.812c-.026-.245-.048-.493-.068-.744-.006-.076-.012-.153-.017-.229q-.022-.29-.038-.585c0-.066-.008-.131-.011-.2-.015-.282-.027-.567-.034-.856v-.024c-.007-.267-.009-.538-.009-.809,0-.375.007-.747.019-1.111l-9.9-.922C249.32,356.635,249.409,359.066,249.488,360.619Z" transform="translate(-236.296 -319.648)"/><path class="r" d="M329.62,321.693l.722,1.288a3.723,3.723,0,0,1,.472,2.008l-.489,9.848H281.794l.492-11.576a8.9,8.9,0,0,0-.738-3.942l-2.213-5.057-.807-1.939a2.958,2.958,0,0,0,1.566,1.614C281.18,314.3,329.62,321.693,329.62,321.693Z" transform="translate(-250.194 -299.29)"/><path class="t" d="M313.3,302.468h-39.55a2.955,2.955,0,0,1-2.745-1.853c-1.239-3.079-3.647-9.054-4.279-10.523a3.277,3.277,0,0,0-.2-.388c-.028-.05-.058-.1-.089-.145a4.651,4.651,0,0,0-3.589-1.888c-.141-.009-.243-.011-.293-.011l.293,0,34.49-.161a6.636,6.636,0,0,1,4.674,2.062c.037.037.082.087.137.145A60.557,60.557,0,0,1,309.8,299.96a4.462,4.462,0,0,0,2.391,1.977Z" transform="translate(-242.609 -287.497)"/><path class="s" d="M292.928,328.272s2.18,5.641,28.9,5.641c12.331,0,14.628-6.564,14.628-6.564l-2.983-1.465L293,324.23Z" transform="translate(-257.034 -304.947)"/><path class="r" d="M280.814,313.418h36.363a.924.924,0,0,0,.816-1.357l-.077-.144a8.486,8.486,0,0,0,1.971,1.5c.977.47,8.028,3.653,8.028,3.653s-3.742,4.592-5.288,4.592h-16.49c-3.065,0-21.589-4.791-21.589-4.791a5.54,5.54,0,0,0-3.743-2.893,2.424,2.424,0,0,1-1.637-1.228A1.912,1.912,0,0,0,280.814,313.418Z" transform="translate(-250.497 -299.097)"/><path class="s" d="M288.4,350.725l4.906-4.094a3.436,3.436,0,0,1,2.638-.771,181.748,181.748,0,0,0,23.881,1.756,43.2,43.2,0,0,0,13.127-1.793c1.57-.505,2.171,2.607,2.171,2.607l-.109,2.3Z" transform="translate(-254.883 -315.177)"/><path class="f" d="M333.08,355.211l-.84,4.619a1.159,1.159,0,0,1-1.14.951H284.328l.22-5.57Z" transform="translate(-252.948 -319.664)"/><path class="s" d="M337.556,355.211h0a1.593,1.593,0,0,1-1.593,1.593H297.778a1.593,1.593,0,0,1-1.593-1.593h41.371Z" transform="translate(-258.581 -319.664)"/><path class="t" d="M305.674,346.652s-5.952-.727-6.563-.795c-.713-.079-2.891.065-3.369,3.453a.926.926,0,0,0,.9,1h0a.912.912,0,0,0,.517-.116,8.675,8.675,0,0,1,4.031-.8c2.844-.085,4.133-.89,4.644-2.527A.18.18,0,0,0,305.674,346.652Z" transform="translate(-258.367 -315.214)"/><path class="t" d="M368.1,346.651s2.47-.726,2.724-.794c.3-.08,1.2.065,1.4,3.453.029.5-.145.966-.375,1h0a.225.225,0,0,1-.215-.117,2.116,2.116,0,0,0-1.673-.795c-1.181-.085-1.715-.89-1.928-2.527C368.023,346.772,368.056,346.665,368.1,346.651Z" transform="translate(-292.711 -315.214)"/><path class="f" d="M299.985,347.308a1.354,1.354,0,0,0-.658.1,3.407,3.407,0,0,0-1.808,2.137c-.062.187.158.357.371.289a10.168,10.168,0,0,1,3.614-.518,7.625,7.625,0,0,0,2.686-.4.638.638,0,0,0-.159-1.233C302.333,347.522,299.985,347.308,299.985,347.308Z" transform="translate(-259.209 -315.907)"/><path class="f" d="M371.722,347.532a.264.264,0,0,1,.248.117,4.455,4.455,0,0,1,.716,2.17c.027.189-.052.354-.133.281a1.872,1.872,0,0,0-1.359-.586,1.413,1.413,0,0,1-1.092-.582.733.733,0,0,1,.44-1.172Z" transform="translate(-293.619 -316.015)"/><g transform="translate(53.009 21.644)"><path class="f" d="M345.132,328.726H326.919a1.435,1.435,0,0,0-1.274,2.007l.006.015c.254.592.509,1.169.675,1.5.447.894,1.858,3.8,7.333,3.8,1.165,0,2.743.027,4.734,0,5.474-.075,6.886-2.9,7.333-3.8.165-.334.421-.911.675-1.5l.006-.015A1.435,1.435,0,0,0,345.132,328.726Z" transform="translate(-325.53 -328.726)"/><path class="t" d="M345.132,328.726H326.919a1.435,1.435,0,0,0-1.274,2.007h7.531a2.713,2.713,0,0,1,1.831.735,2.878,2.878,0,0,0,4.254,0,2.714,2.714,0,0,1,1.831-.735h5.315A1.435,1.435,0,0,0,345.132,328.726Z" transform="translate(-325.53 -328.726)"/><ellipse class="v" cx="2.318" cy="1.682" rx="2.318" ry="1.682" transform="translate(9.396 0.325)"/></g><path class="t" d="M347.723,355.561h-24.5a4.89,4.89,0,0,1,.87-1.376,5.786,5.786,0,0,1,4.492-1.59h13.778a5.79,5.79,0,0,1,4.494,1.59A4.89,4.89,0,0,1,347.723,355.561Z" transform="translate(-271.423 -318.421)"/><path class="t" d="M255.239,319.138l-1.934-.424a.749.749,0,0,1-.57-.695v-.163a.444.444,0,0,1,.57-.445l1.934.424a.749.749,0,0,1,.57.695v.163A.444.444,0,0,1,255.239,319.138Z" transform="translate(-237.94 -301.702)"/><path class="t" d="M237.484,313.4l-1.935-.424a.749.749,0,0,1-.57-.695v-.163a.444.444,0,0,1,.57-.445l1.935.424a.749.749,0,0,1,.57.695v.163A.444.444,0,0,1,237.484,313.4Z" transform="translate(-229.506 -298.975)"/><path class="f" d="M260.948,293.646l-.738,8.857-7.948-1.111.933-3.841,1.747-7.178,1.729-.143a3.928,3.928,0,0,1,3.715,2.089,3.781,3.781,0,0,1,.161.343Z" transform="translate(-237.716 -288.793)"/><path class="w" d="M260.806,291.7a.531.531,0,0,1-.324.858,2.718,2.718,0,0,0-1.757.69c-1.143,1.046-.425,1.833-1.569,2.877s-1.867.167-3.155,1.524c.461-1.953,1.767-7.274,1.767-7.274l1.729-.143A3.933,3.933,0,0,1,260.806,291.7Z" transform="translate(-238.542 -288.793)"/><path class="f" d="M248.108,290.779l-.362,1.345-2.415,8.967-3.819-1.873-.1-.05.8-7.744a.19.19,0,0,1,.172-.169Z" transform="translate(-232.562 -289.056)"/><path class="f" d="M304.427,324.245a1.724,1.724,0,0,1,.5,3.176c-.627.364-1.238.717-1.749,1.009a2.37,2.37,0,0,1-1.621.269c-.812-.152-1.894-.352-3.075-.569-1.649-.3-3.489-.64-5.042-.931-.812-.154-1.6-.306-2.326-.454a7.7,7.7,0,0,1-2-5.466.271.271,0,0,1,.328-.256l3.136.653,2.348.51C297.4,322.725,301.359,323.585,304.427,324.245Z" transform="translate(-255.223 -303.421)"/><path class="w" d="M298.485,328.13c-1.649-.3-3.489-.64-5.042-.931-.812-.154-1.6-.306-2.326-.454a7.7,7.7,0,0,1-2-5.466.271.271,0,0,1,.328-.256l3.136.653.825.179a1.98,1.98,0,0,1,1.524,1.716A5.205,5.205,0,0,0,298.485,328.13Z" transform="translate(-255.223 -303.421)"/><path class="f" d="M293.443,327.2c-.812-.154-1.6-.306-2.326-.454a7.7,7.7,0,0,1-2-5.466.271.271,0,0,1,.328-.256l3.136.653-.629.03a.823.823,0,0,0-.764,1l.6,2.732a2.334,2.334,0,0,0,1.4,1.663Z" transform="translate(-255.223 -303.421)"/><path class="f" d="M371.219,326.163l-.493.384-1.749,1.36a1.265,1.265,0,0,1-1.718-.156l-.623-.7a2.112,2.112,0,0,1,.086-2.906c.3-.294.617-.612.94-.93.543-.529,1.094-1.061,1.549-1.486A6.509,6.509,0,0,1,371.219,326.163Z" transform="translate(-291.792 -303.76)"/><path class="f" d="M309.681,300.929H278.068a6.191,6.191,0,0,1-5.742-3.875l-2.638-6.553a4.581,4.581,0,0,0-3.539-2.808l1.265-.006,30.288-.148.054,0a7.027,7.027,0,0,1,4.962,1.985c2.888,2.721,6.193,7.733,7.683,10.1A.852.852,0,0,1,309.681,300.929Z" transform="translate(-244.313 -287.513)"/><path class="f" d="M237.246,347.148c0,1.174-.054,2.31-.156,3.393l-.335,0a.3.3,0,0,1-.3-.331c.09-.975.138-2,.138-3.061,0-6.485-1.779-11.741-3.977-11.741s-3.977,5.255-3.977,11.741a32.859,32.859,0,0,0,.165,3.341l-.326,0a.373.373,0,0,1-.37-.34c-.079-.963-.12-1.969-.12-3,0-7.264,2.072-13.153,4.628-13.153S237.246,339.884,237.246,347.148Z" transform="translate(-226.185 -309.585)"/><path class="f" d="M238.838,292.556l-.755,7.236-2.136-1.048a.515.515,0,0,1-.225-.708l2.993-5.519A.066.066,0,0,1,238.838,292.556Z" transform="translate(-229.829 -289.866)"/><path class="f" d="M271.374,306.769l-2.8-.391.664-8.115,3.016,7.373A.828.828,0,0,1,271.374,306.769Z" transform="translate(-245.465 -292.612)"/><path class="f" d="M228.312,361.386l-.408,0a.368.368,0,0,1-.178-.05.363.363,0,0,1-.048-.037.336.336,0,0,1-.117-.213l-.61-4.151h1.213l-.013.506c0,.2,0,.4,0,.606s0,.423.006.631c0,.147,0,.293.011.438l.006.219.007.143c0,.13.011.26.017.391l.006.128c.011.174.022.345.035.514v.008C228.258,360.81,228.283,361.1,228.312,361.386Z" transform="translate(-225.692 -320.482)"/><path class="f" d="M276.278,347.148a34.575,34.575,0,0,1-.174,3.521h-.13a.5.5,0,0,1-.491-.545c.086-.95.131-1.947.131-2.975,0-6.485-1.816-11.741-4.055-11.741-2.109,0-3.845,4.665-4.036,10.629-.013.365-.019.736-.019,1.111a32.919,32.919,0,0,0,.181,3.469h0l-.675,0a34.148,34.148,0,0,1-.17-3.465c0-7.264,2.114-13.153,4.719-13.153S276.278,339.884,276.278,347.148Z" transform="translate(-244.64 -309.585)"/><path class="u" d="M280.636,341.547a19.631,19.631,0,0,1,1.369,5.9A20.461,20.461,0,0,0,280.636,341.547Z" transform="translate(-251.194 -313.173)"/><path class="f" d="M256.889,364.623l-.675,0-3.14-.019-6.036-.037-2.287-.015-.328,0a.309.309,0,0,1-.306-.339q.033-.361.059-.729h12.613C256.816,363.868,256.85,364.25,256.889,364.623Z" transform="translate(-233.846 -323.59)"/><path class="s" d="M268.168,309.111l-.654-3.008a1.41,1.41,0,0,0-1.7-1.074l-2.725.638a1.563,1.563,0,0,0-1.176,1.216l-.25,1.251a1.156,1.156,0,0,0,1.053,1.38l2.147.149a.791.791,0,0,1,.651.432Z" transform="translate(-242.171 -295.808)"/><path class="f" d="M271.658,312.855l-2.689.963.893,1.677a.929.929,0,0,0,1.595.076l.364-.551a.979.979,0,0,0,.14-.744Z" transform="translate(-245.652 -299.543)"/><path class="w" d="M369.91,328.2a.134.134,0,0,1,.11.237l-1.042.811a1.265,1.265,0,0,1-1.718-.156l-.623-.7a2.113,2.113,0,0,1,.086-2.907c.3-.294.616-.611.94-.929,0,0-1.366,1.982.229,3.234A2.324,2.324,0,0,0,369.91,328.2Z" transform="translate(-291.792 -305.105)"/><g transform="translate(14.749 27.583)"><g class="x"><g transform="translate(5.564 0.298)"><path class="f" d="M282.662,340.608c4.173,0,7.556,4.639,7.556,10.361s-3.383,10.361-7.556,10.361h-5.426V340.608Z" transform="translate(-269.893 -340.608)"/><g transform="translate(11.839)"><g class="y"><g transform="translate(0.838 -0.913)"><line class="h" y1="1.809" x2="9.391"/><line class="h" y1="1.809" x2="9.391" transform="translate(0 1.511)"/><line class="h" y1="1.809" x2="9.391" transform="translate(0 3.022)"/><line class="h" y1="1.809" x2="9.391" transform="translate(0 4.533)"/><line class="h" y1="1.809" x2="9.391" transform="translate(0 6.045)"/><line class="h" y1="1.809" x2="9.391" transform="translate(0 7.556)"/><line class="h" y1="1.809" x2="9.391" transform="translate(0 9.067)"/><line class="h" y1="1.809" x2="9.391" transform="translate(0 10.578)"/><line class="h" y1="1.809" x2="9.391" transform="translate(0 12.089)"/><line class="h" y1="1.809" x2="9.391" transform="translate(0 13.6)"/><line class="h" y1="1.809" x2="9.391" transform="translate(0 15.111)"/><line class="h" y1="1.809" x2="9.391" transform="translate(0 16.623)"/><line class="h" y1="1.809" x2="9.391" transform="translate(0 18.134)"/><line class="h" y1="1.809" x2="9.391" transform="translate(0 19.645)"/></g></g></g><g transform="translate(7.343)"><g class="z"><g transform="translate(0.003 -0.198)"><line class="h" x1="9.553" y1="1.814"/><line class="h" x1="9.553" y1="1.814" transform="translate(0 1.552)"/><line class="h" x1="9.553" y1="1.814" transform="translate(0 3.104)"/><line class="h" x1="9.553" y1="1.814" transform="translate(0 4.656)"/><line class="h" x1="9.553" y1="1.814" transform="translate(0 6.208)"/><line class="h" x1="9.553" y1="1.814" transform="translate(0 7.761)"/><line class="h" x1="9.553" y1="1.814" transform="translate(0 9.313)"/><line class="h" x1="9.553" y1="1.814" transform="translate(0 10.865)"/><line class="h" x1="9.553" y1="1.814" transform="translate(0 12.417)"/><line class="h" x1="9.553" y1="1.814" transform="translate(0 13.969)"/><line class="h" x1="9.553" y1="1.814" transform="translate(0 15.521)"/><line class="h" x1="9.553" y1="1.814" transform="translate(0 17.073)"/><line class="h" x1="9.553" y1="1.814" transform="translate(0 18.625)"/><line class="h" x1="9.553" y1="1.814" transform="translate(0 20.178)"/></g></g></g><ellipse class="f" cx="7.556" cy="10.361" rx="7.556" ry="10.361" transform="translate(0 0)"/><path class="f" d="M282.774,340.608c4.172,0,7.555,4.61,7.555,10.3s-3.383,10.3-7.555,10.3h1.035c4.173,0,7.555-4.61,7.555-10.3s-3.382-10.3-7.555-10.3Z" transform="translate(-272.524 -340.608)"/><g transform="translate(10.25)"><g class="aa"><g transform="translate(0.564 0.219)"><line class="h" x1="9.553" y1="1.814"/><line class="h" x1="9.553" y1="1.814" transform="translate(0.08 1.497)"/><line class="h" x1="9.553" y1="1.814" transform="translate(0.16 2.994)"/><line class="h" x1="9.553" y1="1.814" transform="translate(0.241 4.491)"/><line class="h" x1="9.553" y1="1.814" transform="translate(0.321 5.989)"/><line class="h" x1="9.553" y1="1.814" transform="translate(0.401 7.486)"/><line class="h" x1="9.553" y1="1.814" transform="translate(0.481 8.983)"/><line class="h" x1="9.553" y1="1.814" transform="translate(0.561 10.48)"/><line class="h" x1="9.553" y1="1.814" transform="translate(0.641 11.977)"/><line class="h" x1="9.553" y1="1.814" transform="translate(0.722 13.474)"/><line class="h" x1="9.553" y1="1.814" transform="translate(0.802 14.972)"/><line class="h" x1="9.553" y1="1.814" transform="translate(0.882 16.469)"/><line class="h" x1="9.553" y1="1.814" transform="translate(0.962 17.966)"/><line class="h" x1="9.553" y1="1.814" transform="translate(1.042 19.463)"/></g></g></g><path class="f" d="M280.8,340.608c4.173,0,7.556,4.61,7.556,10.3s-3.383,10.3-7.556,10.3h1.036c4.172,0,7.555-4.61,7.555-10.3s-3.383-10.3-7.555-10.3Z" transform="translate(-271.586 -340.608)"/><g transform="translate(9.214)"><g class="ab"><g transform="translate(-0.479 -1.211)"><line class="h" y1="1.814" x2="9.553" transform="translate(3.127)"/><line class="h" y1="1.814" x2="9.553" transform="translate(2.886 1.552)"/><line class="h" y1="1.814" x2="9.553" transform="translate(2.646 3.104)"/><line class="h" y1="1.814" x2="9.553" transform="translate(2.405 4.656)"/><line class="h" y1="1.814" x2="9.553" transform="translate(2.165 6.208)"/><line class="h" y1="1.814" x2="9.553" transform="translate(1.924 7.761)"/><line class="h" y1="1.814" x2="9.553" transform="translate(1.684 9.313)"/><line class="h" y1="1.814" x2="9.553" transform="translate(1.443 10.865)"/><line class="h" y1="1.814" x2="9.553" transform="translate(1.203 12.417)"/><line class="h" y1="1.814" x2="9.553" transform="translate(0.962 13.969)"/><line class="h" y1="1.814" x2="9.553" transform="translate(0.722 15.521)"/><line class="h" y1="1.814" x2="9.553" transform="translate(0.481 17.073)"/><line class="h" y1="1.814" x2="9.553" transform="translate(0.241 18.625)"/><line class="h" y1="1.814" x2="9.553" transform="translate(0 20.178)"/></g></g></g><g transform="translate(2.015 2.567)"><path class="k" d="M267.087,353.274a9.708,9.708,0,0,0,1.8,5.878,5.718,5.718,0,0,0,.794.842,3.986,3.986,0,0,0,2.624,1.054,4.037,4.037,0,0,0,2.76-1.176h0a6.111,6.111,0,0,0,.827-.952,9.853,9.853,0,0,0,1.634-5.646,11.287,11.287,0,0,0-.137-1.768,10.564,10.564,0,0,0-.283-1.291c-.724-2.515-2.312-4.346-4.208-4.667a3.609,3.609,0,0,0-.594-.05c-.118,0-.235.006-.351.017-1.932.191-3.576,1.949-4.367,4.426a10.214,10.214,0,0,0-.314,1.265A11.3,11.3,0,0,0,267.087,353.274Z" transform="translate(-267.087 -345.498)"/><g transform="translate(0.619 0.939)"><path class="f" d="M272.626,367.446a3.512,3.512,0,0,0,2.313.93,3.56,3.56,0,0,0,2.433-1.037l-2.1-4.291a.257.257,0,0,0-.495,0Z" transform="translate(-270.337 -354.684)"/><path class="f" d="M278.03,347.34l.024,5.2c0,.3.2.522.4.431l3.289-1.513C281.1,349.237,279.7,347.623,278.03,347.34Z" transform="translate(-272.904 -347.312)"/><path class="f" d="M279.1,359.668l2.048,4.211a8.687,8.687,0,0,0,1.439-4.976,9.922,9.922,0,0,0-.121-1.559l-3.218,1.626A.559.559,0,0,0,279.1,359.668Z" transform="translate(-273.386 -352.064)"/><path class="f" d="M268.266,358.664a8.554,8.554,0,0,0,1.589,5.181l2.194-4.518a.562.562,0,0,0-.148-.7l-3.469-1.789A9.971,9.971,0,0,0,268.266,358.664Z" transform="translate(-268.266 -351.825)"/><path class="f" d="M269.11,351.187l3.43,1.614c.2.092.4-.124.4-.431l.022-5.084C271.256,347.454,269.808,349,269.11,351.187Z" transform="translate(-268.667 -347.286)"/></g></g></g></g></g><path class="t" d="M310.752,291.59l-1.913.414a.8.8,0,0,0-.634.59l-.121.5a.711.711,0,0,1-.741.521h-4.557a1.478,1.478,0,0,1-1.066-.521l-.555-.633a1.809,1.809,0,0,0-1.053-.6l-1.826-.286c2.464-.086,4.746-.1,6.143-.1.3,0,.557,0,.771,0s-1.268,0-.966,0C305.689,291.475,308.114,291.494,310.752,291.59Z" transform="translate(-259.578 -289.387)"/><path class="w" d="M298.9,287.539c-1.71,1.319-2.868.256-4.65,1.883-1.89,1.729-.7,3.029-2.593,4.756s-3.079.427-4.968,2.154c-1.61,1.47-.989,2.63-1.932,4.009a1.388,1.388,0,0,1-1.149.591h-4.4a6.191,6.191,0,0,1-5.742-3.875l-2.638-6.553a4.565,4.565,0,0,0-2.183-2.372l-.091-.443,30.288-.148Z" transform="translate(-245.457 -287.517)"/><path class="r" d="M302.42,289.7H266.8c-.028-.05-.058-.1-.089-.145a4.651,4.651,0,0,0-3.589-1.888v-.013l34.49-.161a6.637,6.637,0,0,1,4.674,2.062C302.321,289.6,302.366,289.645,302.42,289.7Z" transform="translate(-242.874 -287.497)"/><circle class="s" cx="1.682" cy="1.682" r="1.682" transform="translate(39.583 20.045)"/><circle class="v" cx="0.955" cy="0.955" r="0.955" transform="translate(44.572 21.611)"/><g transform="translate(76.804 19.244)"><path class="s" d="M370.857,325.836a1.682,1.682,0,0,0,2.619,1.4,6.957,6.957,0,0,0-.943-3.077A1.681,1.681,0,0,0,370.857,325.836Z" transform="translate(-370.857 -324.155)"/></g><circle class="v" cx="0.955" cy="0.955" r="0.955" transform="translate(75.849 20.892)"/><path class="f" d="M356.644,365.791v1.2l-9.756,2.47-1.366-3.706Z" transform="translate(-282.018 -324.674)"/></g><path class="ac" d="M231.5,325.356l.544-2.941a.8.8,0,0,0-.808-.945l-.768-.034a1.131,1.131,0,0,0-1.15.86l-.543,2.94a.8.8,0,0,0,.807.945l.768.034A1.13,1.13,0,0,0,231.5,325.356Z" transform="translate(-180.062 -303.619)"/><path class="ad" d="M184.254,312.033s2.53.808,3.138,5.936-.654,24.959,10.207,24.959c8.131,0,10.689-6.213,11.17-22.116" transform="translate(-158.918 -299.153)"/><rect class="ac" width="2.788" height="3.482" transform="translate(25.967 14.841) rotate(-180)"/><path class="ae" d="M140.075,302.584a32.941,32.941,0,0,1,22.262,0V336.01l-11.131.127-11.131-.127V302.584Z" transform="translate(-137.931 -293.743)"/><path class="af" d="M179.3,345.262h1.669V319.369h0a3.309,3.309,0,0,0-1.669,2.874Z" transform="translate(-156.565 -302.637)"/><path class="af" d="M141.778,345.262h-1.669V319.369h0a3.31,3.31,0,0,1,1.669,2.874Z" transform="translate(-137.947 -302.637)"/><path class="r" d="M158.125,334.964l-1.427.776,5.423,5.41-1.427-5.41,1.427-.776-5.423-5.41Z" transform="translate(-145.828 -307.476)"/><path class="ac" d="M135.991,374.1H162.54l-.381-6.089H136.372Z" transform="translate(-135.991 -325.744)"/><rect class="r" width="10.367" height="1.382" rx="0.691" transform="translate(8.129 12.386)"/><path class="r" d="M231.146,324.806l.6-2.917a1,1,0,0,0-.772-1.034l-1.286-.293c-.513-.168-1,.022-1.088.425L228,323.9a1,1,0,0,0,.772,1.034l1.285.293C230.572,325.4,231.059,325.209,231.146,324.806Z" transform="translate(-179.693 -303.175)"/></g></g></svg>