<svg xmlns="http://www.w3.org/2000/svg" xmlns:xlink="http://www.w3.org/1999/xlink" viewBox="0 0 320 214"><defs><clipPath id="clip-path"><rect x="24.16" y="159.18" width="273.1" height="4.67" fill="none"/></clipPath><clipPath id="clip-path-2"><path d="M211.4,60.71c-10,0-18,.17-29.83.58l-3.5.13-.88,0-4,.17-1.59.07-2.43.11c-15.19.72-29.92,7.72-42.27,16.77-.92.67-1.85,1.36-2.76,2.07-1.42,1.1-2.83,2.24-4.2,3.42a79.89,79.89,0,0,0-10.89,11.13,1,1,0,0,0,.84,1.68l10-.46,4.2-.2,9-.41,31.93-1.47,5.94-.27,7.75-.36,50.3-2.46L234.1,91l9.84-.15a5.34,5.34,0,0,0,1.12-.18l18-5a2.15,2.15,0,0,0,1-3.56L249.19,64.47a11.11,11.11,0,0,0-5.34-2.79c-.78-.2-10.38-.79-12.67-.78-1.37,0-2.76,0-4.19-.07s-2.68,0-4.06-.06c-3.35,0-6.87-.06-10.53-.06h-1" fill="none"/></clipPath><clipPath id="clip-path-3"><rect x="98.78" y="37.36" width="115.93" height="76.26" fill="none"/></clipPath><clipPath id="clip-path-4"><rect x="113.56" y="82.25" width="15.3" height="12.79" fill="none"/></clipPath><clipPath id="clip-path-5"><path d="M128.05,89.89v2.46A2.68,2.68,0,0,1,125.36,95h-10a1.78,1.78,0,0,1-1.69-1.19,1.8,1.8,0,0,1,1.69-2.41h.79a.87.87,0,0,0,.87-.87V87.13a1.67,1.67,0,0,1,1.67-1.67H122a4.32,4.32,0,0,1,2,.49l2.43,1.28a3,3,0,0,1,1.61,2.66" fill="none"/></clipPath><clipPath id="clip-path-6"><path d="M39.34,104a3,3,0,1,0,.66-.08,3.05,3.05,0,0,0-.66.08" fill="none"/></clipPath><clipPath id="clip-path-7"><rect x="37.19" y="102.43" width="9.09" height="9.31" fill="none"/></clipPath><clipPath id="clip-path-8"><rect x="152.78" y="98.51" width="14.77" height="6.56" fill="none"/></clipPath><clipPath id="clip-path-9"><path d="M163.66,102.74l-9.22.55a1.57,1.57,0,0,1-.18-3.14l9.21-.55a1.57,1.57,0,0,1,.19,3.14" fill="none"/></clipPath><clipPath id="clip-path-10"><rect x="156.09" y="98.51" width="11.46" height="6.56" fill="none"/></clipPath><clipPath id="clip-path-11"><rect x="205.1" y="98.51" width="14.77" height="6.56" fill="none"/></clipPath><clipPath id="clip-path-12"><path d="M216,102.74l-9.21.55a1.57,1.57,0,1,1-.19-3.14l9.21-.55a1.57,1.57,0,0,1,.19,3.14" fill="none"/></clipPath><clipPath id="clip-path-13"><rect x="208.41" y="98.51" width="11.46" height="6.56" fill="none"/></clipPath><clipPath id="clip-path-14"><path d="M273.06,95.92a2.13,2.13,0,0,0-.6,3.7l9,7a6.08,6.08,0,0,0,3.95,1.46h7.13a1,1,0,0,0,1-1V97.16A1.51,1.51,0,0,0,293,96a17.68,17.68,0,0,0-10.75-3.28Z" fill="none"/></clipPath><clipPath id="clip-path-15"><rect x="269.11" y="89.74" width="23.66" height="13.81" fill="none"/></clipPath><clipPath id="clip-path-16"><rect x="174.6" y="61.29" width="6.97" height="32.57" fill="none"/></clipPath><clipPath id="clip-path-17"><rect x="219.76" y="60.74" width="9.36" height="30.81" fill="none"/></clipPath><clipPath id="clip-path-18"><rect x="48.74" y="90.02" width="44.42" height="8.41" fill="none"/></clipPath><clipPath id="clip-path-19"><path d="M118.4,62.05A5.91,5.91,0,0,0,115,64.76L117.59,66l4-2.34,2.25-2.54-2.74-.78a3.35,3.35,0,0,1-2.65,1.69" fill="none"/></clipPath><clipPath id="clip-path-20"><rect x="119.19" y="59.95" width="3.88" height="4.56" fill="none"/></clipPath><clipPath id="clip-path-21"><path d="M130.38,49.51c-3.73.46-1.71,4.15-1.71,4.15s-1.12,4.18,1.18,5.84a1.46,1.46,0,0,1,.58.82.91.91,0,0,1-.56,1.09,1.19,1.19,0,0,1-1.64-.42.27.27,0,0,0-.29-.1,3.87,3.87,0,0,0-2.87,3.43l17.68-3.68c2.31-5.22-2.36-5.5-5.24-6.48-2.73-.93-3.08-4.69-6.5-4.69a4.84,4.84,0,0,0-.63,0" fill="none"/></clipPath><clipPath id="clip-path-22"><rect x="130.45" y="56.54" width="14.02" height="8.05" fill="none"/></clipPath><clipPath id="clip-path-23"><path d="M66.05,79.31h0m-.83-7.9c-2.22.07-5,2.94-6.33,4.7s-10,12.75-10,12.75,2.26,3.67,3.66,4.65A38.78,38.78,0,0,0,60.91,87a28.47,28.47,0,0,0,4.73-6.77s15.49,9.61,22.73,12.66a6.33,6.33,0,0,0,7.57-.73c4-3.21,4.88-4.83,4.88-4.83l.71-.85-5.41-6.7-4.26-.2C91,79.24,70.8,72.4,70.8,72.4a21.84,21.84,0,0,0-5.43-1h-.15" fill="none"/></clipPath><clipPath id="clip-path-24"><rect x="73.55" y="85.19" width="28.24" height="11.11" fill="none"/></clipPath><clipPath id="clip-path-25"><rect x="54.62" y="79.31" width="11.41" height="13.02" fill="none"/></clipPath><clipPath id="clip-path-26"><rect x="90.92" y="77" width="1.08" height="1.61" fill="none"/></clipPath><clipPath id="clip-path-27"><rect x="72.69" y="65.79" width="3.95" height="5.79" fill="none"/></clipPath><clipPath id="clip-path-28"><rect x="34.86" y="91.97" width="16.86" height="8.03" fill="none"/></clipPath><clipPath id="clip-path-29"><path d="M46.32,92A2.15,2.15,0,0,0,48,93.71c2,.68,1.88-.81,2.89-.08a.1.1,0,0,1,0,.14,2.09,2.09,0,0,0-.52,1.14c0,.58.87,1.9.1,3.3a.33.33,0,0,1-.24.15c-.82.07-4.78.47-9.48,1.1l-5.46.54a.22.22,0,0,1-.22-.13c-.22-.51-.75-2.23,1.84-3.09a24.16,24.16,0,0,0,6.25-2.64C44.48,93.2,46.32,92,46.32,92" fill="none"/></clipPath><clipPath id="clip-path-30"><rect x="42.19" y="92.54" width="9.54" height="6.48" fill="none"/></clipPath><clipPath id="clip-path-31"><path d="M43.15,94.14a24.16,24.16,0,0,1-6.25,2.64c-2.59.86-2.06,2.58-1.84,3.09a.22.22,0,0,0,.22.13l5.46-.54c4.7-.63,8.66-1,9.48-1.1a.33.33,0,0,0,.24-.15c.77-1.4-.11-2.72-.1-3.3a2.09,2.09,0,0,1,.52-1.14.11.11,0,0,0,0-.14,1.24,1.24,0,0,0-1.65-.07,1.69,1.69,0,0,1-1.58.15C46.08,93.08,46.32,92,46.32,92s-1.84,1.23-3.17,2.17" fill="none"/></clipPath><clipPath id="clip-path-32"><path d="M135.32,60.59c-4.86,1.55-13.78,4.9-13.78,4.9-.14-.34-1.75-1.86-2.26-1.87s-1.53.73-1.65.76c-.66.16-4.67.45-4.67.45-6.63.2-8.48,1.73-10.69,4.66-2.06,2.74-10,8.22-10,8.22a8.41,8.41,0,0,0,3.89,5.72,13.89,13.89,0,0,1,4.63,4,8.53,8.53,0,0,1-1.25,1.51,1.22,1.22,0,0,0,1.83.13h0s5.14-6,6.49-7,16.92-10,18.49-10.91,8.61-3.68,12.64-6,4-3.85,3.84-4.52c-.13-.4-1.05-.89-2.79-.89a15.72,15.72,0,0,0-4.72.86" fill="none"/></clipPath><clipPath id="clip-path-33"><rect x="136.07" y="58.71" width="9.67" height="8.45" fill="none"/></clipPath><clipPath id="clip-path-34"><rect x="119.71" y="64.45" width="1.84" height="1.65" fill="none"/></clipPath><clipPath id="clip-path-35"><rect x="98.1" y="73.89" width="23.65" height="17.59" fill="none"/></clipPath><clipPath id="clip-path-36"><rect x="94.79" y="83.78" width="5.49" height="5.29" fill="none"/></clipPath><clipPath id="clip-path-37"><rect x="51.02" y="88.67" width="3.91" height="3.24" fill="none"/></clipPath><clipPath id="clip-path-38"><rect x="122.3" y="54.44" width="0.27" height="0.21" fill="none"/></clipPath></defs><title>RESIZED Homepage Blog Illustration</title><g style="isolation:isolate"><g id="Layer_1" data-name="Layer 1"><rect x="0.39" width="320" height="214" fill="#fff" opacity="0"/><g opacity="0.2"><g clip-path="url(#clip-path)"><path d="M26.49,159.18H294.92a2.34,2.34,0,1,1,0,4.67H26.49a2.34,2.34,0,0,1,0-4.67"/></g></g><rect x="38.94" y="105.32" width="71.17" height="40.91"/><path d="M110.35,146.46H38.7V105.08h71.65ZM39.17,146h70.7V105.56H39.17Z" fill="#231f20"/><polygon points="270.64 146.23 199.47 146.23 199.47 105.32 279.5 105.32 270.64 146.23"/><path d="M270.83,146.46h-71.6V105.08h80.56l-.06.29ZM199.7,146h70.75l8.75-40.43H199.7Z" fill="#231f20"/><polygon points="22.62 103.11 19.12 123.41 25.14 124.71 28.61 103.63 22.62 103.11" fill="#141414"/><path d="M302.56,138.79a1.84,1.84,0,0,1-1.46,1.83l-31,7.69-.19,0h-2.52a1.14,1.14,0,0,1-1.14-1.25c.14-1.4.21-2.82.21-4.27,0-16.41-9.42-29.71-21-29.71H233.8c-11.62,0-21.05,13.3-21.05,29.71,0,1.42.08,2.83.21,4.2a1.2,1.2,0,0,1-1.2,1.32H97.43a.8.8,0,0,1-.81-.91,43.47,43.47,0,0,0,.25-4.61c0-10.2-3.64-19.2-9.2-24.55a17,17,0,0,0-11.85-5.16H64.16c-11.62,0-21,13.3-21,29.71a39.73,39.73,0,0,0,.25,4.54.87.87,0,0,1-.87,1H39.33l-19-1.27a1.2,1.2,0,0,1-.83-2l1.24-1.4a1.62,1.62,0,0,0,.31-.54A1.66,1.66,0,0,0,21,142l-2.34-5.13a5.24,5.24,0,0,1-.46-2.14V122.4a1.1,1.1,0,0,1,.91-1.09,6.23,6.23,0,0,0,3.5-1.8c2.57-2.74,3.63-10.05,4-13.49a1.7,1.7,0,0,0,0-.6.36.36,0,0,0,0-.1A1.87,1.87,0,0,0,25,104l-2.53-.38a.59.59,0,0,1-.35-1,13.47,13.47,0,0,1,5-3.34C42.25,93,97.26,89.16,97.26,89.16s1.84-1.38,5-3.57c7.13-4.87,21-15.61,36.21-21.88,8.4-3.48,17.22-6.16,25.52-6.94,33.29-3.15,63.53-2.05,82-2.05,14.94,0,34.58,2.89,40.65,4a.94.94,0,0,1,.37,1.7l-2.16,1.49a.8.8,0,0,0-.28,1l9.85,24.21,3,6.87a4.92,4.92,0,0,1,.41,2v1.19a1.09,1.09,0,0,1-1.07,1.1c-.71,0-7.93.69-7.93,1.4l6.64,16.25a1.87,1.87,0,0,0,1.74,1.86l.58,0,1.21.09a2.65,2.65,0,0,1,.48.07,3.4,3.4,0,0,1,2.68,3.25l.15,7.22Z" fill="#01aced"/><path d="M233.91,105.24c-3.51,2.7-15.9,7.76-19.46,14.22a48.81,48.81,0,0,0-5.85,24.68l-36.54,2.32s-3-9.06-3-29.32a171.08,171.08,0,0,1,2.06-23.08c2.35-16.18,5.9-31.74,6.09-32.61l4.38-.17c16.61-.56,28.6-.65,41.36-.51,1.38,0,2.74,0,4.06.06l.13.05,7,30.14,8.55,8.22c.54,2.25-6.92,4.6-8.74,6" fill="#01aced"/><path d="M50.84,106c.53.44.79.68,1.21,1a.76.76,0,0,1,0,1.16,57.47,57.47,0,0,1-32.94,13.19,6.23,6.23,0,0,0,3.5-1.8c2.57-2.74,3.63-10.05,4-13.49a1.77,1.77,0,0,0-.07-.69h0l4.95-1.41s12.68,0,19.38,2" fill="#058de0"/><path d="M106.29,143.21a123.47,123.47,0,0,1-1.71-44.12,6.35,6.35,0,0,1,1.23-2.87c7-9.43,18.37-15.27,18.37-15.27l50,4.51L173,143.63Z" fill="#01aced"/><path d="M302.56,138.79a1.84,1.84,0,0,1-1.46,1.83l-31,7.69-.19,0h-2.52a1.14,1.14,0,0,1-1.14-1.25c.14-1.4.21-2.82.21-4.27,0-16.41-9.42-29.71-21-29.71H233.8c-11.62,0-21.05,13.3-21.05,29.71,0,1.42.08,2.83.21,4.2a1.2,1.2,0,0,1-1.2,1.32H97.43a.8.8,0,0,1-.81-.91,43.47,43.47,0,0,0,.25-4.61c0-10.2-3.64-19.2-9.2-24.55l-.26-7.13s155.14-11.6,185.1-13.34l25.33,9.2,1.67,10.93c-2.35,1-3.25-.27-2.27-.2l.58,0,1.21.09a2.65,2.65,0,0,1,.48.07,3.4,3.4,0,0,1,2.68,3.25l.15,7.22Z" fill="#01aced"/><path d="M107.33,148.35h-9.9a.8.8,0,0,1-.81-.91,43.47,43.47,0,0,0,.25-4.61c0-10.2-3.64-19.2-9.2-24.55l-.26-7.13,16-1.1c-.74,16.4,2.47,32.23,3.89,38.3" fill="#01aced"/><path d="M302.56,138.79a1.84,1.84,0,0,1-1.46,1.83L270,148.35h-2.52a1.14,1.14,0,0,1-1.15-1.25,40,40,0,0,0,.22-4.27c0-16.41-9.42-29.71-21-29.71H233.8c-11.62,0-21.05,13.3-21.05,29.71A41.44,41.44,0,0,0,213,147a1.2,1.2,0,0,1-1.2,1.32H98.64l-1.3-16.78,109.88-9.28a3.38,3.38,0,0,0,2.84-2.1c2.52-6.2-2.39-16.8,35.77-19.36,24.7-1.66,39.5-3.79,39.5-3.79L291,106.5s7.95,11.38,8.5,11.44a3.4,3.4,0,0,1,2.68,3.25l.15,7.22Z" fill="#01aced"/><path d="M107.33,148.35H98.64l-1.3-16.78,7-.58a160.35,160.35,0,0,0,3,17.36" fill="#01aced"/><path d="M302.56,138.79a1.84,1.84,0,0,1-1.46,1.83l-31,7.69-.19,0h-2.52a1.14,1.14,0,0,1-1.15-1.25,40,40,0,0,0,.22-4.27,42.37,42.37,0,0,0-.29-5l4.14-.37,10.92-2.17a4.33,4.33,0,0,0,1.79-1L295.3,130a4.22,4.22,0,0,1,2.08-1.14l5-.44Z" fill="#141414"/><path d="M286.49,92.67l-9.14,3.25a2.13,2.13,0,0,0-.6,3.7l9,7a6.08,6.08,0,0,0,3.95,1.46h7.13a1,1,0,0,0,1-1V97.16a1.51,1.51,0,0,0-.6-1.21,17.68,17.68,0,0,0-10.75-3.28" fill="#141414"/><path d="M294.43,87.11,289,86.75a6.5,6.5,0,0,1-5.42-3.66l-6.76-14a3,3,0,0,1,1.39-4l6.63-3.2a.8.8,0,0,0-.28,1Z" fill="#141414"/><path d="M263.1,85.65l-18,5a5.34,5.34,0,0,1-1.12.18L234.1,91l-4.95.22-50.3,2.46-7.75.36-5.94.27L133.23,95.8l-9,.41-4.2.2-10,.46a1,1,0,0,1-.84-1.68A79.89,79.89,0,0,1,120,84.06c1.37-1.18,2.78-2.32,4.2-3.42.91-.71,1.84-1.4,2.76-2.07,12.35-9,27.08-16,42.27-16.77l2.43-.11,1.59-.07,4-.17.88,0,3.5-.13c11.85-.41,19.83-.57,29.83-.58,4,0,7.87,0,11.53.06,1.38,0,2.74,0,4.06.06s2.82.07,4.19.07c2.29,0,11.89.58,12.67.78a11.07,11.07,0,0,1,5.34,2.79L264.1,82.09a2.15,2.15,0,0,1-1,3.56" fill="#141414"/><g clip-path="url(#clip-path-2)"><g opacity="0.05"><g clip-path="url(#clip-path-3)"><path d="M123.91,101.49s2.42-18.66,26.23-21.59,54.58,0,64.57-21.6L139.12,37.36,98.78,75.71l13.67,37.91Z" fill="#fff"/></g></g></g><path d="M181.57,61.29,178.85,93.7l-13.69.63,6.48-32.64q5-.24,9.93-.4" fill="#058de0"/><path d="M229.11,91.31l-8.72.4-6.31-31c2.87,0,5.56,0,8.19.06Z" fill="#058de0"/><path d="M163.66,102.74l-9.22.55a1.57,1.57,0,0,1-.18-3.14l9.21-.55a1.57,1.57,0,0,1,.19,3.14" fill="#1d63b7"/><path d="M105.79,88.22a28.35,28.35,0,0,0-7.16,8.29A3,3,0,0,1,96.29,98c-34.29,2.52-50.58,6.27-50.58,6.27l-14.25-.3-4.93,1.5A1.88,1.88,0,0,0,25,104l-2.53-.38a.59.59,0,0,1-.35-1,13.35,13.35,0,0,1,5-3.34C42.25,93,97.26,89.16,97.26,89.16s1.84-1.38,5-3.57c3.17.73,4.92,1.61,3.5,2.63" fill="#01aced"/><path d="M50.84,106s-6,5.25-12.93,6.94A57.47,57.47,0,0,0,29.64,116a1.46,1.46,0,0,1-2-1.7l2.24-8.86a2.17,2.17,0,0,1,1.59-1.57c1.66-.39,4.82-1.1,8.75-1.89h.07c5.91-1.18,10.56,3.94,10.56,3.94" fill="#141414"/><path d="M142.72,64.7c-11.11,4.68-31.42,19.86-36.93,23.52a5.61,5.61,0,0,1-3.13.94h-5.4s19.23-16.38,41.24-25.45h4a.52.52,0,0,1,.21,1" fill="#141414"/><path d="M96.87,142.83l114.46-.19s1.13-.1,1.63,4.35a1.21,1.21,0,0,1-1.2,1.36H97.38a.82.82,0,0,1-.82-.87Z" fill="#058de0"/><path d="M33.21,143.15H21.07A1.66,1.66,0,0,0,21,142l-2.34-5.13a5.24,5.24,0,0,1-.46-2.14v-7.07l7.25-.91a2.7,2.7,0,0,1,3,1.44l6.25,12.61a1.65,1.65,0,0,1-1.48,2.38" fill="#141414"/><path d="M32.5,109.93a1.7,1.7,0,0,0,3.31-.75,1.7,1.7,0,1,0-3.31.75" fill="#fff"/><path d="M34.15,111.49a1.93,1.93,0,0,1-1-.3,1.86,1.86,0,0,1-.85-1.21,1.93,1.93,0,0,1,1.46-2.31A1.93,1.93,0,0,1,36,109.13a1.88,1.88,0,0,1-.25,1.46,1.86,1.86,0,0,1-1.21.85A1.58,1.58,0,0,1,34.15,111.49Zm0-3.4a1.22,1.22,0,0,0-.32,0,1.45,1.45,0,0,0-.91.65,1.42,1.42,0,0,0-.19,1.1h0a1.4,1.4,0,0,0,.64.91,1.45,1.45,0,0,0,1.11.19,1.42,1.42,0,0,0,.91-.64,1.45,1.45,0,0,0,.19-1.11A1.46,1.46,0,0,0,34.15,108.09Z" fill="#231f20"/><path d="M37.08,107.56A3,3,0,1,0,39.34,104a3,3,0,0,0-2.26,3.58" fill="#1d63b7"/><path d="M120,84.06V96.41l-10,.46a1,1,0,0,1-.84-1.68A79.89,79.89,0,0,1,120,84.06" fill="#058de0"/><path d="M109.88,97a1.09,1.09,0,0,1-1-.6,1.13,1.13,0,0,1,.11-1.21A80.48,80.48,0,0,1,119.93,84l.13-.12v12.6L109.93,97Zm10-12.72a80,80,0,0,0-10.75,11,1,1,0,0,0-.1,1,.93.93,0,0,0,.83.51h0l10-.46Z" fill="#058de0"/><path d="M128.05,89.89v2.46A2.68,2.68,0,0,1,125.36,95h-10a1.78,1.78,0,0,1-1.69-1.19,1.8,1.8,0,0,1,1.69-2.41h.79a.87.87,0,0,0,.87-.87V87.13a1.67,1.67,0,0,1,1.67-1.67H122a4.32,4.32,0,0,1,2,.49l2.43,1.28a3,3,0,0,1,1.61,2.66" fill="#1d63b7"/><g opacity="0.1"><g clip-path="url(#clip-path-4)"><g clip-path="url(#clip-path-5)"><path d="M116.51,87.54s5.1-3,12.35,3.72l-1.57-8.92-11.07-.09Z" fill="#fff"/></g></g></g><path d="M270.6,142a48.39,48.39,0,0,1-.41,6.32s0,0,0,0h-2.71a1.15,1.15,0,0,1-1.15-1.26,39.7,39.7,0,0,0,.22-4.26,42.67,42.67,0,0,0-.29-5c-1.67-14-10.33-24.74-20.75-24.74H233.83c-11.62,0-21,13.3-21,29.71,0,1.42.07,2.83.2,4.2a1.2,1.2,0,0,1-1.2,1.32h-2.64a47.18,47.18,0,0,1-.42-6.36c0-18.88,10.85-34.19,24.22-34.19h13.43c12.3,0,22.45,12.94,24,29.7.14,1.47.21,3,.21,4.49" fill="#058de0"/><path d="M100.93,142a48.88,48.88,0,0,1-.42,6.36H97.43a.81.81,0,0,1-.81-.91,43.47,43.47,0,0,0,.25-4.61c0-16.41-9.42-29.71-21.05-29.71H64.16c-11.62,0-21,13.3-21,29.71a42.48,42.48,0,0,0,.25,4.55.87.87,0,0,1-.87,1h-3a48.89,48.89,0,0,1-.41-6.36c0-18.88,10.84-34.19,24.22-34.19H76.7c13.38,0,24.23,15.31,24.23,34.19" fill="#058de0"/><path d="M216,102.74l-9.21.55a1.57,1.57,0,0,1-.18-3.14l9.21-.55a1.57,1.57,0,1,1,.18,3.14" fill="#1d63b7"/><g clip-path="url(#clip-path-6)"><g opacity="0.26" style="mix-blend-mode:multiply"><g clip-path="url(#clip-path-7)"><path d="M37.37,111.63s-1.08-2.74,2.15-4.31a4.28,4.28,0,0,0,2.35-4.89l4.41,4.89-2.65,4.41Z" fill="#1d63b7"/></g></g></g><g opacity="0.56"><g clip-path="url(#clip-path-8)"><g clip-path="url(#clip-path-9)"><g opacity="0.17" style="mix-blend-mode:multiply"><g clip-path="url(#clip-path-10)"><path d="M156.09,104.09s4.7-.78,5.19-4.51l3.43-1.07,2.84,2.45-2.84,4.11Z" fill="#141414"/></g></g></g></g></g><g opacity="0.56"><g clip-path="url(#clip-path-11)"><g clip-path="url(#clip-path-12)"><g opacity="0.17" style="mix-blend-mode:multiply"><g clip-path="url(#clip-path-13)"><path d="M208.41,104.09s4.7-.78,5.19-4.51L217,98.51l2.84,2.45L217,105.07Z" fill="#141414"/></g></g></g></g></g><g clip-path="url(#clip-path-14)"><g opacity="0.05"><g clip-path="url(#clip-path-15)"><path d="M270.14,97.53s3.08,6.23,12.49,2.5c11.46-4.56,6.43,3.52,6.43,3.52l3.71-10.43-17.93-3.38-5.73,5.73Z" fill="#fff"/></g></g></g><g opacity="0.11" style="mix-blend-mode:multiply"><g clip-path="url(#clip-path-16)"><polygon points="174.6 93.85 178.64 61.42 181.57 61.28 178.85 93.7 174.6 93.85" fill="#141414"/></g></g><g opacity="0.11" style="mix-blend-mode:multiply"><g clip-path="url(#clip-path-17)"><polygon points="219.76 60.74 225.73 91.55 229.11 91.31 222.27 60.77 219.76 60.74" fill="#141414"/></g></g><path d="M262.08,142.15a22.38,22.38,0,1,1-22.38-22.39,22.38,22.38,0,0,1,22.38,22.39" fill="#141414"/><path d="M256.65,142.15A16.92,16.92,0,0,1,250.8,155a17,17,0,0,1-20.05,1.57h0a17.41,17.41,0,0,1-2.69-2.08,16.87,16.87,0,0,1-5.3-12.3,16.38,16.38,0,0,1,.45-3.86,15.93,15.93,0,0,1,.92-2.81,17,17,0,0,1,13.65-10.17,17.69,17.69,0,0,1,1.93-.11c.38,0,.76,0,1.14,0A16.91,16.91,0,0,1,255,134.89a16.19,16.19,0,0,1,1,2.75,17.22,17.22,0,0,1,.61,4.51" fill="#7d7d7d"/><path d="M247.21,155.06a14.9,14.9,0,0,1-15.4-.23l6.81-9.36a1,1,0,0,1,1.6,0Z" fill="#141414"/><path d="M238,127.31l-.08,11.32a1,1,0,0,1-1.28.94L226,136.27a15,15,0,0,1,12-9" fill="#141414"/><path d="M236.08,143.82,229.44,153a14.89,14.89,0,0,1-4.68-10.85,15.28,15.28,0,0,1,.39-3.4l10.45,3.55a1,1,0,0,1,.48,1.52" fill="#141414"/><path d="M254.64,142.15a14.9,14.9,0,0,1-5.16,11.29l-7.12-9.84a1,1,0,0,1,.48-1.52l11.26-3.9a14.92,14.92,0,0,1,.54,4" fill="#141414"/><path d="M253.2,135.75l-11.13,3.52a1,1,0,0,1-1.29-.94l-.07-11.08a14.94,14.94,0,0,1,12.49,8.5" fill="#141414"/><path d="M92.33,142.15A22.39,22.39,0,1,1,70,119.76a22.38,22.38,0,0,1,22.38,22.39" fill="#141414"/><path d="M86.89,142.15A16.89,16.89,0,0,1,81,155,17,17,0,0,1,70,159.09a16.8,16.8,0,0,1-9-2.56h0a17,17,0,0,1-8-14.38,16.38,16.38,0,0,1,.45-3.86,16.77,16.77,0,0,1,.91-2.81A17,17,0,0,1,68,125.31,17.55,17.55,0,0,1,70,125.2c.38,0,.76,0,1.14,0a16.93,16.93,0,0,1,14.17,9.65,16.16,16.16,0,0,1,1,2.75,16.81,16.81,0,0,1,.61,4.51" fill="#7d7d7d"/><path d="M77.46,155.06a14.9,14.9,0,0,1-15.4-.23l6.81-9.36a1,1,0,0,1,1.6,0Z" fill="#141414"/><path d="M68.25,127.31l-.08,11.32a1,1,0,0,1-1.28.94l-10.68-3.3a15,15,0,0,1,12-9" fill="#141414"/><path d="M66.33,143.82,59.68,153A14.92,14.92,0,0,1,55,142.15a14.71,14.71,0,0,1,.39-3.4l10.45,3.55a1,1,0,0,1,.48,1.52" fill="#141414"/><path d="M84.88,142.15a14.89,14.89,0,0,1-5.15,11.29l-7.12-9.84a1,1,0,0,1,.48-1.52l11.26-3.9a14.91,14.91,0,0,1,.53,4" fill="#141414"/><path d="M83.45,135.75l-11.13,3.52a1,1,0,0,1-1.3-.94L71,127.25a14.94,14.94,0,0,1,12.5,8.5" fill="#141414"/><g opacity="0.06"><g clip-path="url(#clip-path-18)"><path d="M49.49,98.43S89,95.7,92.24,93.81,89,90,89,90l-6.21.23s-28.76,3-32.19,3.82-1.14,4.36-1.14,4.36" fill="#141414"/></g></g><path d="M121.05,60.36a3.35,3.35,0,0,1-2.65,1.69A5.91,5.91,0,0,0,115,64.76L117.59,66l4-2.34,2.25-2.54Z" fill="#663326"/><g clip-path="url(#clip-path-19)"><g opacity="0.24" style="mix-blend-mode:multiply"><g clip-path="url(#clip-path-20)"><path d="M120.63,60.8S121.72,62,119.56,64c-1.09,1,.58.25.58.25l2.93-3L121.33,60l-1.15.87Z" fill="#663326"/></g></g></g><path d="M128,52a41,41,0,0,0-6.32,3c-4.65,2.78-.41,6.2.2,6.73.42.37-2,2.23-2,2.23l.62,3.54L134,62.85l-2.56-9.27Z" fill="#fabe78"/><path d="M125.07,64.32a3.87,3.87,0,0,1,2.87-3.43.27.27,0,0,1,.29.1,1.19,1.19,0,0,0,1.64.42.91.91,0,0,0,.56-1.09,1.46,1.46,0,0,0-.58-.82c-2.3-1.66-1.18-5.84-1.18-5.84s-2-3.69,1.71-4.15c4-.49,4.25,3.67,7.13,4.65s7.55,1.26,5.24,6.48" fill="#663326"/><g clip-path="url(#clip-path-21)"><g opacity="0.24" style="mix-blend-mode:multiply"><g clip-path="url(#clip-path-22)"><path d="M130.45,62.53s5.36-3.43,10.17-3.51c5.19-.09,3.63-2.48,3.63-2.48l-.84,5.37-11.65,2.68Z" fill="#663326"/></g></g></g><path d="M46.28,92.13l2.93-3.64,3,4.15L50.88,93.7l-1.94,1-2.76-1.08Z" fill="#fabe78"/><path d="M51.93,92.85l-.63.5c-1.38-1-2.63-4.19-2.63-4.19l.24-.3" fill="#141414"/><path d="M92,78.1s-9.34-9.57-12.64-13.23S73.7,58.75,71,59.43c-2.28.59-5.73,5.22-5.73,5.22L72,70l.74-.25L75.53,74l16.28,7.77,1.88-1.53-.83-2.82Z" fill="#ea018a"/><path d="M65.64,80.27s15.49,9.61,22.73,12.66a6.33,6.33,0,0,0,7.57-.73c4-3.21,4.88-4.83,4.88-4.83l.71-.85-5.41-6.7-4.26-.2C91,79.24,70.8,72.4,70.8,72.4a21.45,21.45,0,0,0-5.58-1c-2.22.07-5,2.94-6.33,4.7s-10,12.75-10,12.75,2.26,3.67,3.66,4.65A38.78,38.78,0,0,0,60.91,87a28.47,28.47,0,0,0,4.73-6.77,10.32,10.32,0,0,0,.41-1" fill="#ea018a"/><g clip-path="url(#clip-path-23)"><g opacity="0.15"><g clip-path="url(#clip-path-24)"><path d="M73.55,85.19s11.68,8.14,19.72,6.69c4.24-.77,8-5.33,8-5.33l.51.9L97.15,96.3,90,95.69,77.36,89.24Z" fill="#141414"/></g></g><g opacity="0.15"><g clip-path="url(#clip-path-25)"><path d="M54.62,92.33s8.67-8.58,11.31-13a.05.05,0,0,1,.1,0c-.24.62-.56,1.48-.82,2.27l-2,6.48L57.66,92Z" fill="#141414"/></g></g></g><g opacity="0.15"><g clip-path="url(#clip-path-26)"><path d="M92,78.1l-.67.51A13.53,13.53,0,0,0,90.92,77Z" fill="#141414"/></g></g><g opacity="0.15"><g clip-path="url(#clip-path-27)"><path d="M76.63,65.79a7.23,7.23,0,0,1-2.7,5.79l-1.24-1.85a8.79,8.79,0,0,0,2.1-1.16,4.77,4.77,0,0,0,1.76-2.5Z" fill="#141414"/></g></g><path d="M46.32,92A2.15,2.15,0,0,0,48,93.71c2,.68,1.88-.81,2.89-.08a.1.1,0,0,1,0,.14,2.09,2.09,0,0,0-.52,1.14c0,.58.87,1.9.1,3.3a.33.33,0,0,1-.24.15c-.82.07-4.78.47-9.48,1.1l-5.46.54a.22.22,0,0,1-.22-.13c-.22-.51-.75-2.23,1.84-3.09a24.16,24.16,0,0,0,6.25-2.64C44.48,93.2,46.32,92,46.32,92" fill="#fff"/><g opacity="0.13"><g clip-path="url(#clip-path-28)"><g clip-path="url(#clip-path-29)"><g opacity="0.43"><g clip-path="url(#clip-path-30)"><path d="M48.75,93s1.21,2.19-.45,3.57-4.4,2-6.11,2.48l9.48-1.09,0-4.67-1.82-.72Z" fill="#141414"/></g></g></g></g></g><path d="M91.42,79.51h0L75.46,74s0,0,0-.05a.05.05,0,0,1,0,0l15.94,5.5s0,0,0,0S91.44,79.51,91.42,79.51Z"/><path d="M65.61,80.35h0a0,0,0,0,1,0-.06,9.12,9.12,0,0,0,.43-1s0,0,0,0,0,0,0,0c0,.21-.42,1-.43,1Z"/><path d="M94.15,81.78s7,6.08,5.74,7.08c0,0,1.3-.64.93-1.49l-2.29-4.58Z" fill="#141414"/><path d="M142.83,60.62c-.22-.67-2.65-1.59-7.51,0s-13.78,4.9-13.78,4.9c-.14-.34-1.75-1.86-2.26-1.87s-1.53.74-1.65.76c-.66.16-4.67.45-4.67.45-6.63.2-8.48,1.73-10.69,4.66-2.06,2.74-10,8.22-10,8.22a8.41,8.41,0,0,0,3.89,5.72,13.89,13.89,0,0,1,4.63,4,8.53,8.53,0,0,1-1.25,1.51,1.24,1.24,0,0,0,1.84.13h0s5.14-6,6.49-7,16.92-10,18.49-10.91,8.61-3.68,12.64-6,4-3.85,3.84-4.52" fill="#e5e5e5"/><path d="M76.62,65.87h0s0,0,0-.05a5,5,0,0,0,.14-1.18,0,0,0,0,1,0,0h0a0,0,0,0,1,0,0,4.7,4.7,0,0,1-.14,1.2S76.64,65.87,76.62,65.87Z"/><g clip-path="url(#clip-path-31)"><polygon points="50.56 97.81 34.99 99.48 34.71 99.51 34.87 100.2 50.74 98.44 50.77 97.77 50.56 97.81" fill="#141414"/></g><path d="M119.66,66.17a.05.05,0,0,1,0,0,0,0,0,0,1,0-.06l1.92-.73s0,0,0,0a0,0,0,0,1,0,0l-1.92.73Z"/><g clip-path="url(#clip-path-32)"><g opacity="0.06"><g clip-path="url(#clip-path-33)"><path d="M140.76,59.72s.92,3.43-4.69,7.44l7.07-1.77,2.6-6.42-3-.26Z" fill="#141414"/></g></g><g opacity="0.06"><g clip-path="url(#clip-path-34)"><path d="M119.71,66.1s1.29-.55,1.26-1.65l.58.92Z" fill="#141414"/></g></g><g opacity="0.06"><g clip-path="url(#clip-path-35)"><path d="M98.1,88.19a55.86,55.86,0,0,1,6-5.83c2.13-1.53,11.41-5.21,17.68-8.47L103.63,91.48l-4.45,0Z" fill="#141414"/></g></g></g><g opacity="0.39"><g clip-path="url(#clip-path-36)"><path d="M96.6,89.07h-.12c-.52,0-.82-.46-1.14-.9l0,0a2.37,2.37,0,0,1-.48-1.91,4.49,4.49,0,0,1,2-2.43l.06.11a4.43,4.43,0,0,0-2,2.35,2.18,2.18,0,0,0,.45,1.8l0,0c.32.43.59.8,1.06.85h.1c.73,0,1.84-.71,3.59-2.3l.09.1C98.5,88.34,97.36,89.07,96.6,89.07Z" fill="#fff"/></g></g><g opacity="0.39"><g clip-path="url(#clip-path-37)"><path d="M51.08,91.91a.05.05,0,0,1,0,0,.06.06,0,0,1,0-.08s2.84-2.14,3.78-3.11a.06.06,0,0,1,.09,0,.06.06,0,0,1,0,.09c-.95,1-3.76,3.1-3.79,3.12Z" fill="#fff"/></g></g><g opacity="0.36" style="mix-blend-mode:multiply"><g clip-path="url(#clip-path-38)"><path d="M122.3,54.54l.19-.1.08.2a.29.29,0,0,1-.27-.1" fill="#fabe78"/></g></g><path d="M71.76,71.32a6.09,6.09,0,0,0,.47-1.47s-5-3.67-6.13-4.63a12.87,12.87,0,0,0-1.65-1.06,16.24,16.24,0,0,0-6.54-2.27Z" fill="#fff"/><path d="M72,70.7c.41-1.28-5.22-3.47-6.69-5s-5.74-4.15-7.89-3.8a2.75,2.75,0,0,0-2.2,1.77,1.67,1.67,0,0,0,0,1.35c.48,1,2.9,3.25,6.22,4.68,4.6,2,6.42,2.71,7.31,3.09s2.44.32,3.21-2.12" fill="#141414"/><path d="M121.87,61.66c.42.34,1,.74,1.46,1.06a0,0,0,0,1,0,0,2.12,2.12,0,0,1-1.92-.24,3.44,3.44,0,0,0,.44-.56c.11-.2,0-.3,0-.3" fill="#141414"/><path d="M65.55,64.82s3.07,2.32,3.74,2.75,2.85,1.83,2.94,2.28l-.17.1-2.33-1.63-3.18-2Z" fill="#fff"/><path d="M122.54,54.57l-.33-.72a.19.19,0,0,1,.12-.27l3-.5" fill="#fabe78"/><path d="M121.59,55l-.7.47h0a6.87,6.87,0,0,1,.69-.48h0" fill="#fff"/><path d="M122.44,55.83a5.63,5.63,0,0,1-.84-.88,6.87,6.87,0,0,0-.69.48,1.47,1.47,0,0,0,1.53.4" fill="#fff"/><path d="M130.37,49.52s-2.92.23-3.48,2.67a2.47,2.47,0,0,0,.71,2.23,1.57,1.57,0,0,1,.39,1.31,3.2,3.2,0,0,0,1.92,3.79l1.84-5.58Z" fill="#663326"/></g></g></svg>