<svg id="Layer_1" data-name="Layer 1" xmlns="http://www.w3.org/2000/svg" xmlns:xlink="http://www.w3.org/1999/xlink" viewBox="0 0 320 214"><defs><clipPath id="clip-path"><rect x="72.91" y="170.42" width="200.09" height="5.25" fill="none"/></clipPath><clipPath id="clip-path-2"><rect x="118.14" y="81.26" width="18.93" height="23.65" fill="none"/></clipPath><clipPath id="clip-path-3"><rect x="25.42" y="174.7" width="36.42" height="1.75" fill="none"/></clipPath><clipPath id="clip-path-4"><rect x="98.33" y="65.17" width="1.19" height="0.42" fill="none"/></clipPath></defs><title>Illustrations RESIZE Homepage</title><g opacity="0"><rect width="320" height="214" fill="#fff"/></g><path d="M219.26,125.89a2.31,2.31,0,0,0-1.69-1.24l-9-1.56-9-1.56a2.34,2.34,0,0,0-2,.6c-1.78,1.7-5.47,6.91-8.12,22.14-2.27,13.08-1.4,19.88-.44,23.12a4.25,4.25,0,0,0,3.35,3l7.74,1.34,7.74,1.35a4.25,4.25,0,0,0,4.15-1.66c2-2.73,5.11-8.84,7.39-21.92,2.64-15.23.93-21.38-.18-23.58" fill="#1a1919"/><path d="M278.08,127.37a2.08,2.08,0,0,0-1.38-.82l-10.62-1.48-9.16-1.27a2,2,0,0,0-1.66.49c-1.83,1.61-6.19,7-8.46,23.27-1.9,13.69-.24,20.17,1.13,23a4,4,0,0,0,3,2.22l8.3,1.15,9.53,1.33a4,4,0,0,0,3.57-1.34c2.12-2.49,5.67-8.57,7.61-22.55,2.27-16.24-.54-22.18-1.9-24" fill="#1a1919"/><path d="M178.8,147.63l92.83,14.73,1.76.64a2.21,2.21,0,0,0,2.86-1.4l.33-1a2.24,2.24,0,0,0-.09-1.57l-4.77-23.5a2.45,2.45,0,0,0-.47-.67l-77-66.93a2,2,0,0,0-.74-.48l-70.1-4.18L95.9,97.56l.82,3.18Z" fill="#1a1919"/><g opacity="0.2"><g clip-path="url(#clip-path)"><path d="M73.91,170.42H216.24c1.3,0,2.59,0,3.89.12l51.94,3.14a1,1,0,0,1-.06,2H119c-1.63,0-3.27-.06-4.9-.18l-40.24-3.08a1,1,0,0,1,.08-2" fill="#1a1919"/></g></g><path d="M131.1,87.78A2.34,2.34,0,0,0,129.93,86L122,81.54l-7.9-4.5a2.32,2.32,0,0,0-2.1-.12c-2.25,1-7.49,4.64-15.13,18.08-6.57,11.53-8,18.23-8.25,21.61a4.25,4.25,0,0,0,2.15,3.92l6.82,3.89,6.83,3.88a4.24,4.24,0,0,0,4.47-.15c2.8-1.9,7.8-6.59,14.37-18.13,7.65-13.43,8.12-19.8,7.82-22.24" fill="#1a1919"/><path d="M107.19,104.16c-4.48,7.86-9.91,13.21-12.14,11.94s-.4-8.67,4.08-16.53S109,86.36,111.27,87.63s.4,8.67-4.08,16.53" fill="#06c4ab"/><path d="M188.63,105.52a2.08,2.08,0,0,0-1-1.25l-9.41-5.15-8.11-4.44a2.09,2.09,0,0,0-1.73-.13c-2.28.86-8.28,4.39-16.15,18.77-6.64,12.12-7.38,18.77-7.11,21.91a4,4,0,0,0,2.06,3.15l7.35,4L163,147a4,4,0,0,0,3.8,0c2.87-1.58,8.34-6,15.12-18.39,7.87-14.38,7.35-20.93,6.73-23.13" fill="#1a1919"/><path d="M166.16,122.38c-4.34,7.93-10.27,13.05-13.25,11.42s-1.86-9.38,2.49-17.32,10.27-13,13.25-11.42,1.86,9.38-2.49,17.32" fill="#06c4ab"/><path d="M207.67,42.37l.72.56a.63.63,0,0,0,1-.41,1.59,1.59,0,0,0-.7-1.55l-.78-.51a1.61,1.61,0,0,0-1.52-.11l-.14.07,1,.59,0,.32a1.17,1.17,0,0,0,.45,1" fill="#1a1919"/><path d="M176.79,110.68l19.3,2.63c.68.54,4.45,3.28,5.16,3.76l59.41,41.29,8.87,6.13a2.76,2.76,0,0,0,3.14-.94l4.21-5.61,1.18-.33a3.8,3.8,0,0,0,2.25-1.74l5.07-8.72-.52-.59,2-4-.46-1.71,2.86-4.41a3.31,3.31,0,0,0-.35-2.5l5-7a5.5,5.5,0,0,0-1.35-7L270,102l-2.23-14.9a9,9,0,0,0-3.59-7.64S213.69,45.32,207.26,41a6.33,6.33,0,0,0-2.06-.95l-41.95-.23c-3.23.1-6.13,2.13-8.52,3.78S125,61.72,125,61.72l-7.21,5.66S105.34,79.84,101.38,87,95.9,97.56,95.9,97.56l2.55.31,7.91-13a54.41,54.41,0,0,1,6.06-8.08L117,71.68c1.18-1.31,2.77-2.12,3.79-1.93l4.58.86c.9.17,1.15,1.08.62,2.27l-12.14,27.35L152.17,104a4.13,4.13,0,0,0,3.09-2l5.22-8,14.88-18.22A4.45,4.45,0,0,1,178.6,74l6.35.57c.77.06,4.34,0,3.85.94l-12.9,32.29c-.68,1.57-.32,2.74.89,2.93" fill="#fff"/><path d="M148.31,64.61l-1.11,1.28c-.61.7-.54,1.31.14,1.33l4.48.16A3.19,3.19,0,0,0,154,66.23l1.18-1.39c.6-.7.51-1.3-.19-1.31l-4.54-.05a3.18,3.18,0,0,0-2.12,1.13" fill="#1a1919"/><path d="M166.44,65.21l-1.11,1.28c-.6.7-.54,1.31.15,1.33L170,68a3.23,3.23,0,0,0,2.16-1.15l1.18-1.39c.6-.7.51-1.3-.19-1.31l-4.54,0a3.18,3.18,0,0,0-2.12,1.13" fill="#1a1919"/><path d="M252.65,99.84l-8.46,13a1.31,1.31,0,0,0,.32,1.77l2.09,1.55a1.32,1.32,0,0,0,1.88-.34l8.43-13a1.31,1.31,0,0,0-.32-1.76l-2-1.54a1.31,1.31,0,0,0-1.89.33" fill="#1a1919"/><path d="M232.45,84.64l-8.67,13.1a1.32,1.32,0,0,0,.32,1.78l2.7,2a1.32,1.32,0,0,0,1.88-.34l8.64-13.08a1.31,1.31,0,0,0-.31-1.77l-2.68-2a1.3,1.3,0,0,0-1.88.32" fill="#1a1919"/><path d="M239.41,89.88,230.8,103a1.31,1.31,0,0,0,.32,1.77l2.29,1.7a1.31,1.31,0,0,0,1.88-.34L243.86,93a1.32,1.32,0,0,0-.31-1.77l-2.26-1.69a1.31,1.31,0,0,0-1.88.33" fill="#1a1919"/><path d="M246,94.82l-8.54,13.06a1.31,1.31,0,0,0,.32,1.77l2.45,1.81a1.31,1.31,0,0,0,1.88-.33l8.5-13.06a1.33,1.33,0,0,0-.31-1.77l-2.41-1.81a1.32,1.32,0,0,0-1.89.33" fill="#1a1919"/><path d="M268.1,130.38l8.2-13a1.32,1.32,0,0,0-.32-1.75l-1.86-1.39a1.31,1.31,0,0,0-1.89.34l-8.26,13a1.32,1.32,0,0,0,.32,1.76l1.91,1.42a1.32,1.32,0,0,0,1.9-.36" fill="#1a1919"/><path d="M265.73,109.68l-8.33,13a1.32,1.32,0,0,0,.32,1.76l2,1.51a1.29,1.29,0,0,0,1.88-.35l8.3-13a1.32,1.32,0,0,0-.32-1.76l-2-1.51a1.3,1.3,0,0,0-1.89.35" fill="#1a1919"/><path d="M259.09,104.68l-8.39,13a1.31,1.31,0,0,0,.32,1.77l2.18,1.61a1.3,1.3,0,0,0,1.88-.34l8.37-13a1.32,1.32,0,0,0-.32-1.76L261,104.35a1.31,1.31,0,0,0-1.89.33" fill="#1a1919"/><path d="M212.91,92.39l6.56,4.82a1.64,1.64,0,0,0,2.33-.42l9.41-14.34a5.61,5.61,0,0,0-1.27-7.53l-6.58-5.06a1.48,1.48,0,0,0-1.13-.3l-3,.41a1.55,1.55,0,0,0-1.11.75l-5.45,9.64a2.39,2.39,0,0,0-.29,1.08l-.09,9.62a1.64,1.64,0,0,0,.66,1.33" fill="#1a1919"/><path d="M227.6,83.28a6.76,6.76,0,1,1-1.45-9.45,6.77,6.77,0,0,1,1.45,9.45" fill="#ffffe7"/><path d="M292.21,124.56l-.32-2.83a1.19,1.19,0,0,0-.48-.82l-6.29-4.62a3.33,3.33,0,0,0-4.76.86l-.79,1.2-3.09,4.71-3.61,5.5L271.25,131l-1.43,2.17a1.27,1.27,0,0,0,.31,1.72l5.39,4a1.27,1.27,0,0,0,1.36.09l7.52-4.1,7.56-9.44a1.14,1.14,0,0,0,.25-.87" fill="#1a1919"/><path d="M272.68,134.5a3.6,3.6,0,1,0,.19-5.94L271.25,131a3.6,3.6,0,0,0,1.43,3.47" fill="#ffffe7"/><path d="M221.88,92.73a3.61,3.61,0,1,1-.77-5,3.61,3.61,0,0,1,.77,5" fill="#ffffe7"/><path d="M279,129.23a6.33,6.33,0,1,0,.19-10.34l-2.66,4a6.34,6.34,0,0,0,2.47,6.29" fill="#ffffe7"/><path d="M176.71,39.89l2.93-1.53a7.08,7.08,0,0,1,3.35-.81l18.4,0A2.8,2.8,0,0,1,203.81,39l.57,1.05Z" fill="#1a1919"/><path d="M217.08,113.52l-4.31,3.53a1.43,1.43,0,0,0,.08,2.27L255,149.11a1.43,1.43,0,0,0,2.19-.73l1.61-5.06a1.41,1.41,0,0,0-.53-1.59l-39.4-28.27a1.44,1.44,0,0,0-1.74.06" fill="#1a1919"/><path d="M211.9,112.71a3.49,3.49,0,1,1-.85-4.85,3.48,3.48,0,0,1,.85,4.85" fill="#1a1919"/><path d="M267.28,151.58a3.48,3.48,0,1,1-.85-4.85,3.47,3.47,0,0,1,.85,4.85" fill="#1a1919"/><polygon points="160.43 41.51 130.42 60.26 147.4 60.47 173.04 41.6 160.43 41.51" fill="#1a1919"/><polygon points="167.44 60.71 189.64 41.72 177.36 41.63 152.75 60.53 167.44 60.71" fill="#1a1919"/><polygon points="201.17 41.8 193.92 41.75 172.41 60.77 190.6 60.98 201.17 41.8" fill="#1a1919"/><path d="M265.11,84.37a5.53,5.53,0,0,0-2.42-4l-57-38.2-10.47,19.4c21.68,3.89,26.41,4.63,28.31,6.05l43.13,32.3Z" fill="#1a1919"/><path d="M187.43,59.48l-1.13-2.11-8.68-5.57a1.61,1.61,0,0,1-.5-2.21l3-4.76a1.61,1.61,0,0,1,2.23-.51l9.77,6.26a.69.69,0,0,1,.22.91l-3.06,5.2.27,2.13a1.12,1.12,0,0,1-.78,1.2,1.11,1.11,0,0,1-1.31-.54" fill="#06c4ab"/><path d="M111.72,80.56l3.54-2.88L114.12,77a2.35,2.35,0,0,0-2.1-.11c-2.25,1-7.49,4.64-15.13,18.07A88.69,88.69,0,0,0,91,107.23l3.6-.12Z" fill="#1a1919"/><g opacity="0.11"><g clip-path="url(#clip-path-2)"><path d="M123.54,88.92l3.86,2.36,1,6.33a9.53,9.53,0,0,1-.87,1.73s.15.68.57.87l.63,0,.81,1.43s1.12.9,1.5,1.16a2.86,2.86,0,0,0,1.09.3,10.94,10.94,0,0,0,1.31.75,3.82,3.82,0,0,0,1,.24,15.82,15.82,0,0,0,2.12.78c.53.07.08-.22.08-.22s.52,0,.33-.23-3.51-2.54-3.51-2.54.24-1.33-1.45-3.06c0,0,1.49-6.34.5-8.53a113.83,113.83,0,0,0-12.41-8.38c-6-3.38,3.38,7,3.38,7" fill="#1a1919"/></g></g><path d="M114.25,80.8l4.44,1.38,3.5,14.56a22.47,22.47,0,0,1-.23,3s.37.91.83,1l.6-.29,1.26,1.64s1.35.72,1.8.88a1.85,1.85,0,0,0,1.13-.13,7.29,7.29,0,0,0,1.48.39,2.69,2.69,0,0,0,1.07-.19,10.27,10.27,0,0,0,2.25,0c.52-.16,0-.36,0-.36s.5-.23.23-.49-4.16-1.83-4.16-1.83A5.8,5.8,0,0,0,126,96.62s-1.15-15.9-2.83-18.55a84.85,84.85,0,0,0-14.52-5.58c-6.83-1.72,5.56,8.31,5.56,8.31" fill="#fabe78"/><path d="M92.49,66.59c7.49-.29,11.23,2.68,13.73,4.11a40.32,40.32,0,0,0,6.18,2.62s3.75-.78,4.74,2.5-1.36,7.54-4.06,7.39-4.85-2.81-4.85-2.81a5.19,5.19,0,0,1-2.85-.21,14.91,14.91,0,0,0-3.88-.81Z" fill="#06c4ab"/><path d="M93.82,68,89.9,66.7l.2-1.56-.67,1.41-4.64-3.4,3.7-7A9.15,9.15,0,1,1,105.82,62l-2.24,5.65-1.49.75L101,67.9l-2.06.92L95.13,68Z" fill="#1a1919"/><g opacity="0.2"><g clip-path="url(#clip-path-3)"><path d="M61,176.45H26.29a.88.88,0,0,1,0-1.75H61a.88.88,0,1,1,0,1.75" fill="#1a1919"/></g></g><path d="M100.21,125l-.14,45.25a5.53,5.53,0,0,1-3.3-1.06l-.89.8-2.25-45Z" fill="#fabe78"/><path d="M100.34,170.06l.09.43A7.23,7.23,0,0,0,101,173l2.18,1.43v1l-8.85-.68,1-4.43,0-.23a2.53,2.53,0,0,1,5-.08" fill="#01aced"/><polygon points="103.19 174.46 95.36 174.46 94.49 174.12 94.34 174.8 95.17 175.48 103.19 175.48 103.19 174.46" fill="#f5f5f5"/><path d="M67.43,112.22,36.17,170.05a5.64,5.64,0,0,0,3.29,1.07h1.08l29.84-51.41Z" fill="#fabe78"/><path d="M81,90.68s-5,1.47-14.54,17.23c-4.06,6.73-11,18.71-16.64,30-3.71,7.36-11.07,25.24-11.07,25.24a24.56,24.56,0,0,0,7,2.18L65,131.73l17.54-26.24,2.22,1.4,7.33,20.79,2.8,37.1,1.34.13a39.18,39.18,0,0,0,5,.13l2-34.93a43.91,43.91,0,0,0-1.36-11.66L95,99.58l-.11-9.51Z" fill="#ea018a"/><path d="M92.49,66.59,77.19,83.82l.23,4.3s-3,2.32-.23,4.54,7.49,4.82,13,3.29,6.62-2.66,6.48-5.47c0,0,3.05-5.06,4.23-6.45s.56-4.65.56-4.65Z" fill="#06c4ab"/><path d="M77.27,83.88l-.15-.12,3.09-3.5a41,41,0,0,0,3.07-4.55.1.1,0,0,1,.13,0,.1.1,0,0,1,0,.13,40.85,40.85,0,0,1-3.08,4.59Z" fill="#1a1919"/><path d="M101.5,79.48a.11.11,0,0,1-.1-.09c-.13-1.09-.24-2.24-.24-2.25a.08.08,0,0,1,.08-.1.1.1,0,0,1,.11.08s.11,1.16.24,2.25a.1.1,0,0,1-.08.11Z" fill="#1a1919"/><path d="M101.83,59s-1.66,2.59-8.7,3l-.42.75s-1.19-2.07-2.24-1.32,0,2.85,1.53,3.51l-1.18,3.51A4.16,4.16,0,0,0,93,70.52a2.87,2.87,0,0,0,2.86-.61l.31-1.11a5.77,5.77,0,0,0,1.79.32,5.28,5.28,0,0,0,5.09-3.6c.44-1.18,1.28-3.16,1.28-3.16A4.88,4.88,0,0,1,101.83,59" fill="#fabe78"/><path d="M98.94,62.19a.11.11,0,0,1-.09,0A.1.1,0,0,1,98.9,62,6.13,6.13,0,0,0,101.75,59a.09.09,0,0,1,.12-.06.1.1,0,0,1,0,.13A6.34,6.34,0,0,1,99,62.19h0" fill="#1a1919"/><path d="M36.82,168.84h0a18.52,18.52,0,0,1-3.06,2.94l-3.52,2.68v1l8.85-.68,1.41-3.2.09-.14a2.3,2.3,0,0,0-3.77-2.62" fill="#01aced"/><polygon points="30.24 174.46 38.08 174.46 39.48 173.92 39.01 174.99 38.27 175.48 30.24 175.48 30.24 174.46" fill="#f5f5f5"/><path d="M92.62,65a.62.62,0,1,1-.62-.61.61.61,0,0,1,.62.61" fill="#f5f5f5"/><path d="M96.18,68.8a6.13,6.13,0,0,1-3-2.29s.61,2.59,2.73,3.28Z" fill="#1a1919"/><path d="M44.11,165a30.55,30.55,0,0,1-4.41-1.46l-.94,1.74s4,.59,5.05.23Z" fill="#1a1919"/><path d="M95.63,164.85a42.57,42.57,0,0,0,4.46.21v.78l-4.38.7Z" fill="#1a1919"/><g opacity="0.3"><g clip-path="url(#clip-path-4)"><path d="M99.38,65.59l-1-.19a.11.11,0,0,1-.09-.13.12.12,0,0,1,.11-.1h.17a1.72,1.72,0,0,1,.68.13l.16.07a.11.11,0,0,1,.07.13.13.13,0,0,1-.14.09" fill="#1a1919"/></g></g><path d="M97.85,66.29l1.68.32c.07,0,.07.16,0,.22h0a1.13,1.13,0,0,1-1.77-.35c0-.08,0-.21.09-.19" fill="#fff"/><path d="M150.7,115c-.66,1.22-3.45,1-6.22-.54s-4.48-3.73-3.81-5,3.45-1,6.22.55,4.47,3.73,3.81,4.94" fill="#343333"/><polygon points="78.18 106.39 102.31 114.89 120.56 110.9 123.04 100.47 99.05 94.2 73.61 103.64 78.18 106.39" fill="#ffffe7"/><path d="M132.69,155.68c-11,0-11.37-18.64-11.56-29.79,0-2.22-.08-4.14-.2-5.37-.66-6.59-3.29-7.76-3.31-7.77a.57.57,0,0,1-.32-.74.56.56,0,0,1,.73-.33c.14,0,3.31,1.33,4,8.72.13,1.28.16,3.23.2,5.47.18,10,.5,28.66,10.41,28.66,10.94,0,12.42-21.39,12.42-42.31a.58.58,0,1,1,1.15,0C146.26,134.79,144.62,155.68,132.69,155.68Z" fill="#0d8ed7"/><path d="M93.75,101.31c3.72-1.42,7.8-2,9.94-1.44.17.28-.08.56-.85.86a6.81,6.81,0,0,1-3.59.29l-1.7-.25c-1,.29-1.87.6-2.67.9l5.77,1.86.56-.15c4.55-1.14,8-1.58,10.33-.82s1.48,2.32-2.07,3.83l2.13.69-1.43.56L108,107c-3.35,1.17-7.08,1.67-9.12,1.14-.24-.27.13-.58.8-.85a7.43,7.43,0,0,1,3.67-.31l1.7.25c.69-.2,1.28-.4,1.81-.59l-5.69-1.83-.26.06c-5.81,1.48-8.78,1.55-10.73.93-2.28-.74-1.59-2.21,2.14-3.87l-2.43-.78,1.43-.56Zm-.25.94c-2,.93-2.42,1.76-.94,2.24s3.14.25,6.3-.52ZM108.28,106c1.85-.86,2.47-1.7,1-2.19s-3.48-.22-6.27.48Z" fill="#1a1919"/><path d="M64.68,86.41a25.93,25.93,0,0,0-2.84,5.73,34,34,0,0,0,9.65,7.94c6.15,3.38,7.2,8.49,7.61,9a2,2,0,0,0,1.38.46,2.22,2.22,0,0,0,1.32.48,4.24,4.24,0,0,0,1.32-.11,18.59,18.59,0,0,0,3.22.39,10.62,10.62,0,0,0,2.27-.1l-4.36-1.54-1.59-2.18,2.13.42,1.79.13.12-.47L84,105.49l-2.65-1.61s-3.34-3.26-6.31-6.73-6.11-7.31-6.11-7.31Z" fill="#fabe78"/><path d="M92.49,66.59c-7,.27-12.21,1.35-15.92,5.51s-7.49,4.72-9.74,5.48S65,82,65,82,60.8,85,63,87.77s6.45,4,8.85,3.23,2.46-3.57,2.46-3.57l2.87-3.61Z" fill="#06c4ab"/></svg>