<svg width="74" height="94" viewBox="0 0 74 94" fill="none" xmlns="http://www.w3.org/2000/svg">
<g clip-path="url(#clip0_6895_3622)">
<g filter="url(#filter0_bd_6895_3622)">
<mask id="path-1-inside-1_6895_3622" fill="white">
<path fill-rule="evenodd" clip-rule="evenodd" d="M34.8889 32.5711V89H56V5.23931H37.4374L37.181 5C35.5725 6.75499 33.6825 8.54986 31.5111 10.3846C29.4201 12.2194 27.2085 13.6952 24.8762 14.812C22.6243 15.9288 20.3323 16.3675 18 16.1282V36.2308C22.4233 36.7094 26.5651 36.1909 30.4254 34.6752C31.9444 34.0788 33.4322 33.3775 34.8889 32.5711Z"/>
</mask>
<path fill-rule="evenodd" clip-rule="evenodd" d="M34.8889 32.5711V89H56V5.23931H37.4374L37.181 5C35.5725 6.75499 33.6825 8.54986 31.5111 10.3846C29.4201 12.2194 27.2085 13.6952 24.8762 14.812C22.6243 15.9288 20.3323 16.3675 18 16.1282V36.2308C22.4233 36.7094 26.5651 36.1909 30.4254 34.6752C31.9444 34.0788 33.4322 33.3775 34.8889 32.5711Z" fill="white" fill-opacity="0.06" shape-rendering="crispEdges"/>
<path fill-rule="evenodd" clip-rule="evenodd" d="M34.8889 32.5711V89H56V5.23931H37.4374L37.181 5C35.5725 6.75499 33.6825 8.54986 31.5111 10.3846C29.4201 12.2194 27.2085 13.6952 24.8762 14.812C22.6243 15.9288 20.3323 16.3675 18 16.1282V36.2308C22.4233 36.7094 26.5651 36.1909 30.4254 34.6752C31.9444 34.0788 33.4322 33.3775 34.8889 32.5711Z" fill="url(#paint0_linear_6895_3622)" shape-rendering="crispEdges"/>
<path d="M34.8889 89H33.8889V90H34.8889V89ZM34.8889 32.5711H35.8889V30.8746L34.4046 31.6962L34.8889 32.5711ZM56 89V90H57V89H56ZM56 5.23931H57V4.23931H56V5.23931ZM37.4374 5.23931L36.7552 5.97047L37.0434 6.23931H37.4374V5.23931ZM37.181 5L37.8632 4.26884L37.1255 3.58052L36.4437 4.32434L37.181 5ZM31.5111 10.3846L30.8657 9.62078L30.8586 9.6268L30.8516 9.63295L31.5111 10.3846ZM24.8762 14.812L24.4443 13.91L24.4319 13.9161L24.8762 14.812ZM18 16.1282L18.1021 15.1334L17 15.0203V16.1282H18ZM18 36.2308H17V37.1284L17.8924 37.225L18 36.2308ZM30.4254 34.6752L30.7909 35.606L30.4254 34.6752ZM35.8889 89V32.5711H33.8889V89H35.8889ZM56 88H34.8889V90H56V88ZM55 5.23931V89H57V5.23931H55ZM37.4374 6.23931H56V4.23931H37.4374V6.23931ZM36.4987 5.73116L36.7552 5.97047L38.1196 4.50816L37.8632 4.26884L36.4987 5.73116ZM32.1565 11.1485C34.3544 9.29137 36.2761 7.46727 37.9182 5.67566L36.4437 4.32434C34.8688 6.0427 33.0107 7.80835 30.8657 9.62078L32.1565 11.1485ZM25.3081 15.7139C27.7287 14.5548 30.0162 13.0267 32.1707 11.1363L30.8516 9.63295C28.824 11.412 26.6882 12.8356 24.4443 13.91L25.3081 15.7139ZM17.8979 17.123C20.4317 17.383 22.9122 16.9022 25.3205 15.7078L24.4319 13.9161C22.3364 14.9553 20.2329 15.3521 18.1021 15.1334L17.8979 17.123ZM19 36.2308V16.1282H17V36.2308H19ZM30.0599 33.7444C26.3607 35.1968 22.3824 35.6991 18.1076 35.2366L17.8924 37.225C22.4642 37.7197 26.7695 37.185 30.7909 35.606L30.0599 33.7444ZM34.4046 31.6962C32.9855 32.4818 31.5373 33.1643 30.0599 33.7444L30.7909 35.606C32.3514 34.9933 33.8789 34.2732 35.3732 33.446L34.4046 31.6962Z" fill="url(#paint1_linear_6895_3622)" mask="url(#path-1-inside-1_6895_3622)"/>
</g>
<g opacity="0.6">
<mask id="path-3-inside-2_6895_3622" fill="white">
<path fill-rule="evenodd" clip-rule="evenodd" d="M34.8889 32.5711V89H56V5.23931H37.4374L37.181 5C35.5725 6.75499 33.6825 8.54986 31.5111 10.3846C29.4201 12.2194 27.2085 13.6952 24.8762 14.812C22.6243 15.9288 20.3323 16.3675 18 16.1282V36.2308C22.4233 36.7094 26.5651 36.1909 30.4254 34.6752C31.9444 34.0788 33.4322 33.3775 34.8889 32.5711Z"/>
</mask>
<path d="M34.8889 89H33.8889V90H34.8889V89ZM34.8889 32.5711H35.8889V30.8746L34.4046 31.6962L34.8889 32.5711ZM56 89V90H57V89H56ZM56 5.23931H57V4.23931H56V5.23931ZM37.4374 5.23931L36.7552 5.97047L37.0434 6.23931H37.4374V5.23931ZM37.181 5L37.8632 4.26884L37.1255 3.58052L36.4437 4.32434L37.181 5ZM31.5111 10.3846L30.8657 9.62078L30.8586 9.6268L30.8516 9.63295L31.5111 10.3846ZM24.8762 14.812L24.4443 13.91L24.4319 13.9161L24.8762 14.812ZM18 16.1282L18.1021 15.1334L17 15.0203V16.1282H18ZM18 36.2308H17V37.1284L17.8924 37.225L18 36.2308ZM30.4254 34.6752L30.7909 35.606L30.4254 34.6752ZM35.8889 89V32.5711H33.8889V89H35.8889ZM56 88H34.8889V90H56V88ZM55 5.23931V89H57V5.23931H55ZM37.4374 6.23931H56V4.23931H37.4374V6.23931ZM36.4987 5.73116L36.7552 5.97047L38.1196 4.50816L37.8632 4.26884L36.4987 5.73116ZM32.1565 11.1485C34.3544 9.29137 36.2761 7.46727 37.9182 5.67566L36.4437 4.32434C34.8688 6.0427 33.0107 7.80835 30.8657 9.62078L32.1565 11.1485ZM25.3081 15.7139C27.7287 14.5548 30.0162 13.0267 32.1707 11.1363L30.8516 9.63295C28.824 11.412 26.6882 12.8356 24.4443 13.91L25.3081 15.7139ZM17.8979 17.123C20.4317 17.383 22.9122 16.9022 25.3205 15.7078L24.4319 13.9161C22.3364 14.9553 20.2329 15.3521 18.1021 15.1334L17.8979 17.123ZM19 36.2308V16.1282H17V36.2308H19ZM30.0599 33.7444C26.3607 35.1968 22.3824 35.6991 18.1076 35.2366L17.8924 37.225C22.4642 37.7197 26.7695 37.185 30.7909 35.606L30.0599 33.7444ZM34.4046 31.6962C32.9855 32.4818 31.5373 33.1643 30.0599 33.7444L30.7909 35.606C32.3514 34.9933 33.8789 34.2732 35.3732 33.446L34.4046 31.6962Z" fill="url(#paint2_linear_6895_3622)" mask="url(#path-3-inside-2_6895_3622)"/>
</g>
</g>
<defs>
<filter id="filter0_bd_6895_3622" x="12" y="1" width="50" height="96" filterUnits="userSpaceOnUse" color-interpolation-filters="sRGB">
<feFlood flood-opacity="0" result="BackgroundImageFix"/>
<feGaussianBlur in="BackgroundImageFix" stdDeviation="2"/>
<feComposite in2="SourceAlpha" operator="in" result="effect1_backgroundBlur_6895_3622"/>
<feColorMatrix in="SourceAlpha" type="matrix" values="0 0 0 0 0 0 0 0 0 0 0 0 0 0 0 0 0 0 127 0" result="hardAlpha"/>
<feOffset dy="2"/>
<feGaussianBlur stdDeviation="3"/>
<feComposite in2="hardAlpha" operator="out"/>
<feColorMatrix type="matrix" values="0 0 0 0 0 0 0 0 0 0 0 0 0 0 0 0 0 0 0.06 0"/>
<feBlend mode="normal" in2="effect1_backgroundBlur_6895_3622" result="effect2_dropShadow_6895_3622"/>
<feBlend mode="normal" in="SourceGraphic" in2="effect2_dropShadow_6895_3622" result="shape"/>
</filter>
<linearGradient id="paint0_linear_6895_3622" x1="37" y1="5" x2="37" y2="89" gradientUnits="userSpaceOnUse">
<stop stop-color="white" stop-opacity="0.08"/>
<stop offset="1" stop-color="white" stop-opacity="0"/>
</linearGradient>
<linearGradient id="paint1_linear_6895_3622" x1="37" y1="5" x2="37" y2="89" gradientUnits="userSpaceOnUse">
<stop stop-color="white" stop-opacity="0.12"/>
<stop offset="1" stop-color="white" stop-opacity="0.04"/>
</linearGradient>
<linearGradient id="paint2_linear_6895_3622" x1="37.6856" y1="6.2367" x2="39.9042" y2="13.1844" gradientUnits="userSpaceOnUse">
<stop stop-color="white"/>
<stop offset="0.477522" stop-color="white" stop-opacity="0.12"/>
<stop offset="1" stop-color="white" stop-opacity="0.04"/>
</linearGradient>
<clipPath id="clip0_6895_3622">
<rect width="74" height="94" fill="white"/>
</clipPath>
</defs>
</svg>
