<svg width="74" height="94" viewBox="0 0 74 94" fill="none" xmlns="http://www.w3.org/2000/svg">
<g clip-path="url(#clip0_6895_3636)">
<g filter="url(#filter0_bd_6895_3636)">
<mask id="path-1-inside-1_6895_3636" fill="white">
<path fill-rule="evenodd" clip-rule="evenodd" d="M35.1787 69.9144C35.8482 69.1173 36.5528 68.3712 37.2925 67.676C39.7105 65.4769 42.0116 63.6704 44.1956 62.2567L50.8647 57.8976C55.9348 54.5989 60.0689 50.9467 63.2669 46.9411C66.543 42.8569 68.181 37.8696 68.181 31.979C68.181 26.6382 66.894 21.9649 64.3199 17.9593C61.8239 13.8752 58.1968 10.6943 53.4388 8.41655C48.7587 6.13885 43.1036 5 36.4735 5C30.5454 5 25.3193 6.13885 20.7952 8.41655C16.3492 10.6157 12.7611 13.561 10.0311 17.2525C7.37904 20.9439 5.70201 24.9102 5 29.1515L27.3473 32.8036C27.7374 31.3899 28.3224 30.094 29.1024 28.9158C29.9604 27.7377 31.0134 26.7952 32.2614 26.0884C33.5094 25.3815 34.9135 25.0281 36.4735 25.0281C38.7355 25.0281 40.5296 25.3422 41.8556 25.9705C43.2596 26.5203 44.2736 27.345 44.8976 28.4446C45.5996 29.5442 45.9506 30.8008 45.9506 32.2146C45.9506 33.7069 45.4046 35.1992 44.3126 36.6914C43.2206 38.1837 41.8946 39.5582 40.3346 40.8149C38.7745 41.993 37.2925 43.0533 35.8885 43.9958L27.6984 49.2973C23.9543 51.7321 20.5612 54.4811 17.5192 57.5442C14.5552 60.5288 12.2151 63.4741 10.4991 66.3801C8.78306 69.2076 7.92505 71.6424 7.92505 73.6844V89H69V69.9144H35.1787Z"/>
</mask>
<path fill-rule="evenodd" clip-rule="evenodd" d="M35.1787 69.9144C35.8482 69.1173 36.5528 68.3712 37.2925 67.676C39.7105 65.4769 42.0116 63.6704 44.1956 62.2567L50.8647 57.8976C55.9348 54.5989 60.0689 50.9467 63.2669 46.9411C66.543 42.8569 68.181 37.8696 68.181 31.979C68.181 26.6382 66.894 21.9649 64.3199 17.9593C61.8239 13.8752 58.1968 10.6943 53.4388 8.41655C48.7587 6.13885 43.1036 5 36.4735 5C30.5454 5 25.3193 6.13885 20.7952 8.41655C16.3492 10.6157 12.7611 13.561 10.0311 17.2525C7.37904 20.9439 5.70201 24.9102 5 29.1515L27.3473 32.8036C27.7374 31.3899 28.3224 30.094 29.1024 28.9158C29.9604 27.7377 31.0134 26.7952 32.2614 26.0884C33.5094 25.3815 34.9135 25.0281 36.4735 25.0281C38.7355 25.0281 40.5296 25.3422 41.8556 25.9705C43.2596 26.5203 44.2736 27.345 44.8976 28.4446C45.5996 29.5442 45.9506 30.8008 45.9506 32.2146C45.9506 33.7069 45.4046 35.1992 44.3126 36.6914C43.2206 38.1837 41.8946 39.5582 40.3346 40.8149C38.7745 41.993 37.2925 43.0533 35.8885 43.9958L27.6984 49.2973C23.9543 51.7321 20.5612 54.4811 17.5192 57.5442C14.5552 60.5288 12.2151 63.4741 10.4991 66.3801C8.78306 69.2076 7.92505 71.6424 7.92505 73.6844V89H69V69.9144H35.1787Z" fill="white" fill-opacity="0.06" shape-rendering="crispEdges"/>
<path fill-rule="evenodd" clip-rule="evenodd" d="M35.1787 69.9144C35.8482 69.1173 36.5528 68.3712 37.2925 67.676C39.7105 65.4769 42.0116 63.6704 44.1956 62.2567L50.8647 57.8976C55.9348 54.5989 60.0689 50.9467 63.2669 46.9411C66.543 42.8569 68.181 37.8696 68.181 31.979C68.181 26.6382 66.894 21.9649 64.3199 17.9593C61.8239 13.8752 58.1968 10.6943 53.4388 8.41655C48.7587 6.13885 43.1036 5 36.4735 5C30.5454 5 25.3193 6.13885 20.7952 8.41655C16.3492 10.6157 12.7611 13.561 10.0311 17.2525C7.37904 20.9439 5.70201 24.9102 5 29.1515L27.3473 32.8036C27.7374 31.3899 28.3224 30.094 29.1024 28.9158C29.9604 27.7377 31.0134 26.7952 32.2614 26.0884C33.5094 25.3815 34.9135 25.0281 36.4735 25.0281C38.7355 25.0281 40.5296 25.3422 41.8556 25.9705C43.2596 26.5203 44.2736 27.345 44.8976 28.4446C45.5996 29.5442 45.9506 30.8008 45.9506 32.2146C45.9506 33.7069 45.4046 35.1992 44.3126 36.6914C43.2206 38.1837 41.8946 39.5582 40.3346 40.8149C38.7745 41.993 37.2925 43.0533 35.8885 43.9958L27.6984 49.2973C23.9543 51.7321 20.5612 54.4811 17.5192 57.5442C14.5552 60.5288 12.2151 63.4741 10.4991 66.3801C8.78306 69.2076 7.92505 71.6424 7.92505 73.6844V89H69V69.9144H35.1787Z" fill="url(#paint0_linear_6895_3636)" shape-rendering="crispEdges"/>
<path d="M37.2925 67.676L36.6197 66.9362L36.6136 66.9417L36.6077 66.9473L37.2925 67.676ZM35.1787 69.9144L34.413 69.2713L33.0329 70.9144H35.1787V69.9144ZM44.1956 62.2567L44.739 63.0961L44.7427 63.0937L44.1956 62.2567ZM50.8647 57.8976L50.3194 57.0594L50.3176 57.0606L50.8647 57.8976ZM63.2669 46.9411L62.4869 46.3154L62.4854 46.3172L63.2669 46.9411ZM64.3199 17.9593L63.4667 18.4808L63.4725 18.4904L63.4786 18.4999L64.3199 17.9593ZM53.4388 8.41655L53.0011 9.31574L53.007 9.31853L53.4388 8.41655ZM20.7952 8.41655L21.2386 9.31292L21.2449 9.30974L20.7952 8.41655ZM10.0311 17.2525L9.22699 16.6578L9.21894 16.669L10.0311 17.2525ZM5 29.1515L4.01342 28.9882L3.84979 29.9768L4.83871 30.1384L5 29.1515ZM27.3473 32.8036L27.1861 33.7906L28.0725 33.9354L28.3113 33.0696L27.3473 32.8036ZM29.1024 28.9158L28.294 28.3271L28.2809 28.3452L28.2686 28.3638L29.1024 28.9158ZM32.2614 26.0884L32.7543 26.9585L32.7543 26.9585L32.2614 26.0884ZM41.8556 25.9705L41.4274 26.8742L41.4587 26.8891L41.491 26.9017L41.8556 25.9705ZM44.8976 28.4446L44.0279 28.9382L44.0408 28.9608L44.0548 28.9827L44.8976 28.4446ZM44.3126 36.6914L45.1196 37.282L44.3126 36.6914ZM40.3346 40.8149L40.9372 41.6129L40.9497 41.6034L40.9619 41.5936L40.3346 40.8149ZM35.8885 43.9958L36.4319 44.8353L36.4389 44.8307L36.4458 44.8261L35.8885 43.9958ZM27.6984 49.2973L27.155 48.4579L27.1532 48.459L27.6984 49.2973ZM17.5192 57.5442L18.2287 58.2488L17.5192 57.5442ZM10.4991 66.3801L11.354 66.899L11.3602 66.8886L10.4991 66.3801ZM7.92505 89H6.92505V90H7.92505V89ZM69 89V90H70V89H69ZM69 69.9144H70V68.9144H69V69.9144ZM36.6077 66.9473C35.8387 67.67 35.1071 68.4448 34.413 69.2713L35.9445 70.5576C36.5894 69.7898 37.267 69.0723 37.9773 68.4047L36.6077 66.9473ZM43.6522 61.4172C41.4125 62.867 39.0683 64.7092 36.6197 66.9362L37.9653 68.4158C40.3528 66.2445 42.6106 64.4739 44.739 63.0961L43.6522 61.4172ZM50.3176 57.0606L43.6485 61.4196L44.7427 63.0937L51.4118 58.7347L50.3176 57.0606ZM62.4854 46.3172C59.3649 50.2257 55.3155 53.8088 50.3194 57.0594L51.4101 58.7358C56.5541 55.389 60.7728 51.6677 64.0484 47.565L62.4854 46.3172ZM67.181 31.979C67.181 37.6721 65.6028 42.4308 62.4869 46.3154L64.047 47.5668C67.4831 43.283 69.181 38.067 69.181 31.979H67.181ZM63.4786 18.4999C65.9368 22.3252 67.181 26.8058 67.181 31.979H69.181C69.181 26.4705 67.8512 21.6047 65.1612 17.4187L63.4786 18.4999ZM53.007 9.31853C57.6092 11.5216 61.0816 14.5782 63.4667 18.4808L65.1732 17.4379C62.5662 13.1722 58.7844 9.86687 53.8705 7.51458L53.007 9.31853ZM36.4735 6C42.9922 6 48.4895 7.11998 53.0011 9.31572L53.8764 7.51739C49.0279 5.15772 43.215 4 36.4735 4V6ZM21.2449 9.30974C25.6076 7.11331 30.675 6 36.4735 6V4C30.4158 4 25.0311 5.16439 20.3456 7.52337L21.2449 9.30974ZM10.8351 17.8471C13.4631 14.2935 16.9233 11.4474 21.2386 9.3129L20.3519 7.52021C15.775 9.78406 12.0591 12.8285 9.22707 16.6578L10.8351 17.8471ZM5.98658 29.3148C6.66206 25.2338 8.27556 21.4099 10.8432 17.8359L9.21894 16.669C6.48251 20.4779 4.74196 24.5867 4.01342 28.9882L5.98658 29.3148ZM27.5086 31.8167L5.16129 28.1646L4.83871 30.1384L27.1861 33.7906L27.5086 31.8167ZM28.2686 28.3638C27.4282 29.6331 26.8003 31.0262 26.3834 32.5377L28.3113 33.0696C28.6744 31.7536 29.2166 30.5548 29.9362 29.4679L28.2686 28.3638ZM31.7686 25.2182C30.3945 25.9965 29.2346 27.0357 28.294 28.3271L29.9107 29.5046C30.6862 28.4397 31.6323 27.5939 32.7543 26.9585L31.7686 25.2182ZM36.4735 24.0281C34.7563 24.0281 33.1799 24.4189 31.7686 25.2182L32.7543 26.9585C33.839 26.3441 35.0706 26.0281 36.4735 26.0281V24.0281ZM42.2838 25.0669C40.7711 24.3501 38.8112 24.0281 36.4735 24.0281V26.0281C38.6598 26.0281 40.288 26.3344 41.4274 26.8742L42.2838 25.0669ZM45.7673 27.951C45.0093 26.6154 43.795 25.6561 42.2202 25.0394L41.491 26.9017C42.7242 27.3846 43.5379 28.0747 44.0279 28.9382L45.7673 27.951ZM46.9506 32.2146C46.9506 30.6268 46.5537 29.1802 45.7405 27.9065L44.0548 28.9827C44.6456 29.9081 44.9506 30.9749 44.9506 32.2146H46.9506ZM45.1196 37.282C46.3066 35.6599 46.9506 33.9655 46.9506 32.2146H44.9506C44.9506 33.4482 44.5027 34.7384 43.5056 36.1009L45.1196 37.282ZM40.9619 41.5936C42.5841 40.2868 43.9721 38.8502 45.1196 37.282L43.5056 36.1009C42.4691 37.5173 41.205 38.8296 39.7072 40.0361L40.9619 41.5936ZM36.4458 44.8261C37.8674 43.8718 39.3646 42.8005 40.9372 41.6129L39.7319 40.0169C38.1845 41.1855 36.7176 42.2348 35.3311 43.1655L36.4458 44.8261ZM28.2418 50.1368L36.4319 44.8353L35.3451 43.1563L27.155 48.4579L28.2418 50.1368ZM18.2287 58.2488C21.2192 55.2377 24.5568 52.5332 28.2435 50.1357L27.1532 48.459C23.3518 50.9311 19.9033 53.7244 16.8097 56.8395L18.2287 58.2488ZM11.3602 66.8886C13.0252 64.0689 15.3095 61.1883 18.2287 58.2488L16.8097 56.8395C13.8008 59.8692 11.4051 62.8792 9.63801 65.8716L11.3602 66.8886ZM8.92505 73.6844C8.92505 71.9059 9.67984 69.6574 11.354 66.8989L9.64421 65.8613C7.88628 68.7578 6.92505 71.3788 6.92505 73.6844H8.92505ZM8.92505 89V73.6844H6.92505V89H8.92505ZM69 88H7.92505V90H69V88ZM68 69.9144V89H70V69.9144H68ZM35.1787 70.9144H69V68.9144H35.1787V70.9144Z" fill="url(#paint1_linear_6895_3636)" mask="url(#path-1-inside-1_6895_3636)"/>
</g>
<g opacity="0.6">
<mask id="path-3-inside-2_6895_3636" fill="white">
<path fill-rule="evenodd" clip-rule="evenodd" d="M35.1787 69.9144C35.8482 69.1173 36.5528 68.3712 37.2925 67.676C39.7105 65.4769 42.0116 63.6704 44.1956 62.2567L50.8647 57.8976C55.9348 54.5989 60.0689 50.9467 63.2669 46.9411C66.543 42.8569 68.181 37.8696 68.181 31.979C68.181 26.6382 66.894 21.9649 64.3199 17.9593C61.8239 13.8752 58.1968 10.6943 53.4388 8.41655C48.7587 6.13885 43.1036 5 36.4735 5C30.5454 5 25.3193 6.13885 20.7952 8.41655C16.3492 10.6157 12.7611 13.561 10.0311 17.2525C7.37904 20.9439 5.70201 24.9102 5 29.1515L27.3473 32.8036C27.7374 31.3899 28.3224 30.094 29.1024 28.9158C29.9604 27.7377 31.0134 26.7952 32.2614 26.0884C33.5094 25.3815 34.9135 25.0281 36.4735 25.0281C38.7355 25.0281 40.5296 25.3422 41.8556 25.9705C43.2596 26.5203 44.2736 27.345 44.8976 28.4446C45.5996 29.5442 45.9506 30.8008 45.9506 32.2146C45.9506 33.7069 45.4046 35.1992 44.3126 36.6914C43.2206 38.1837 41.8946 39.5582 40.3346 40.8149C38.7745 41.993 37.2925 43.0533 35.8885 43.9958L27.6984 49.2973C23.9543 51.7321 20.5612 54.4811 17.5192 57.5442C14.5552 60.5288 12.2151 63.4741 10.4991 66.3801C8.78306 69.2076 7.92505 71.6424 7.92505 73.6844V89H69V69.9144H35.1787Z"/>
</mask>
<path d="M37.2925 67.676L36.6197 66.9362L36.6136 66.9417L36.6077 66.9473L37.2925 67.676ZM35.1787 69.9144L34.413 69.2713L33.0329 70.9144H35.1787V69.9144ZM44.1956 62.2567L44.739 63.0961L44.7427 63.0937L44.1956 62.2567ZM50.8647 57.8976L50.3194 57.0594L50.3176 57.0606L50.8647 57.8976ZM63.2669 46.9411L62.4869 46.3154L62.4854 46.3172L63.2669 46.9411ZM64.3199 17.9593L63.4667 18.4808L63.4725 18.4904L63.4786 18.4999L64.3199 17.9593ZM53.4388 8.41655L53.0011 9.31574L53.007 9.31853L53.4388 8.41655ZM20.7952 8.41655L21.2386 9.31292L21.2449 9.30974L20.7952 8.41655ZM10.0311 17.2525L9.22699 16.6578L9.21894 16.669L10.0311 17.2525ZM5 29.1515L4.01342 28.9882L3.84979 29.9768L4.83871 30.1384L5 29.1515ZM27.3473 32.8036L27.1861 33.7906L28.0725 33.9354L28.3113 33.0696L27.3473 32.8036ZM29.1024 28.9158L28.294 28.3271L28.2809 28.3452L28.2686 28.3638L29.1024 28.9158ZM32.2614 26.0884L32.7543 26.9585L32.7543 26.9585L32.2614 26.0884ZM41.8556 25.9705L41.4274 26.8742L41.4587 26.8891L41.491 26.9017L41.8556 25.9705ZM44.8976 28.4446L44.0279 28.9382L44.0408 28.9608L44.0548 28.9827L44.8976 28.4446ZM44.3126 36.6914L45.1196 37.282L44.3126 36.6914ZM40.3346 40.8149L40.9372 41.6129L40.9497 41.6034L40.9619 41.5936L40.3346 40.8149ZM35.8885 43.9958L36.4319 44.8353L36.4389 44.8307L36.4458 44.8261L35.8885 43.9958ZM27.6984 49.2973L27.155 48.4579L27.1532 48.459L27.6984 49.2973ZM17.5192 57.5442L18.2287 58.2488L17.5192 57.5442ZM10.4991 66.3801L11.354 66.899L11.3602 66.8886L10.4991 66.3801ZM7.92505 89H6.92505V90H7.92505V89ZM69 89V90H70V89H69ZM69 69.9144H70V68.9144H69V69.9144ZM36.6077 66.9473C35.8387 67.67 35.1071 68.4448 34.413 69.2713L35.9445 70.5576C36.5894 69.7898 37.267 69.0723 37.9773 68.4047L36.6077 66.9473ZM43.6522 61.4172C41.4125 62.867 39.0683 64.7092 36.6197 66.9362L37.9653 68.4158C40.3528 66.2445 42.6106 64.4739 44.739 63.0961L43.6522 61.4172ZM50.3176 57.0606L43.6485 61.4196L44.7427 63.0937L51.4118 58.7347L50.3176 57.0606ZM62.4854 46.3172C59.3649 50.2257 55.3155 53.8088 50.3194 57.0594L51.4101 58.7358C56.5541 55.389 60.7728 51.6677 64.0484 47.565L62.4854 46.3172ZM67.181 31.979C67.181 37.6721 65.6028 42.4308 62.4869 46.3154L64.047 47.5668C67.4831 43.283 69.181 38.067 69.181 31.979H67.181ZM63.4786 18.4999C65.9368 22.3252 67.181 26.8058 67.181 31.979H69.181C69.181 26.4705 67.8512 21.6047 65.1612 17.4187L63.4786 18.4999ZM53.007 9.31853C57.6092 11.5216 61.0816 14.5782 63.4667 18.4808L65.1732 17.4379C62.5662 13.1722 58.7844 9.86687 53.8705 7.51458L53.007 9.31853ZM36.4735 6C42.9922 6 48.4895 7.11998 53.0011 9.31572L53.8764 7.51739C49.0279 5.15772 43.215 4 36.4735 4V6ZM21.2449 9.30974C25.6076 7.11331 30.675 6 36.4735 6V4C30.4158 4 25.0311 5.16439 20.3456 7.52337L21.2449 9.30974ZM10.8351 17.8471C13.4631 14.2935 16.9233 11.4474 21.2386 9.3129L20.3519 7.52021C15.775 9.78406 12.0591 12.8285 9.22707 16.6578L10.8351 17.8471ZM5.98658 29.3148C6.66206 25.2338 8.27556 21.4099 10.8432 17.8359L9.21894 16.669C6.48251 20.4779 4.74196 24.5867 4.01342 28.9882L5.98658 29.3148ZM27.5086 31.8167L5.16129 28.1646L4.83871 30.1384L27.1861 33.7906L27.5086 31.8167ZM28.2686 28.3638C27.4282 29.6331 26.8003 31.0262 26.3834 32.5377L28.3113 33.0696C28.6744 31.7536 29.2166 30.5548 29.9362 29.4679L28.2686 28.3638ZM31.7686 25.2182C30.3945 25.9965 29.2346 27.0357 28.294 28.3271L29.9107 29.5046C30.6862 28.4397 31.6323 27.5939 32.7543 26.9585L31.7686 25.2182ZM36.4735 24.0281C34.7563 24.0281 33.1799 24.4189 31.7686 25.2182L32.7543 26.9585C33.839 26.3441 35.0706 26.0281 36.4735 26.0281V24.0281ZM42.2838 25.0669C40.7711 24.3501 38.8112 24.0281 36.4735 24.0281V26.0281C38.6598 26.0281 40.288 26.3344 41.4274 26.8742L42.2838 25.0669ZM45.7673 27.951C45.0093 26.6154 43.795 25.6561 42.2202 25.0394L41.491 26.9017C42.7242 27.3846 43.5379 28.0747 44.0279 28.9382L45.7673 27.951ZM46.9506 32.2146C46.9506 30.6268 46.5537 29.1802 45.7405 27.9065L44.0548 28.9827C44.6456 29.9081 44.9506 30.9749 44.9506 32.2146H46.9506ZM45.1196 37.282C46.3066 35.6599 46.9506 33.9655 46.9506 32.2146H44.9506C44.9506 33.4482 44.5027 34.7384 43.5056 36.1009L45.1196 37.282ZM40.9619 41.5936C42.5841 40.2868 43.9721 38.8502 45.1196 37.282L43.5056 36.1009C42.4691 37.5173 41.205 38.8296 39.7072 40.0361L40.9619 41.5936ZM36.4458 44.8261C37.8674 43.8718 39.3646 42.8005 40.9372 41.6129L39.7319 40.0169C38.1845 41.1855 36.7176 42.2348 35.3311 43.1655L36.4458 44.8261ZM28.2418 50.1368L36.4319 44.8353L35.3451 43.1563L27.155 48.4579L28.2418 50.1368ZM18.2287 58.2488C21.2192 55.2377 24.5568 52.5332 28.2435 50.1357L27.1532 48.459C23.3518 50.9311 19.9033 53.7244 16.8097 56.8395L18.2287 58.2488ZM11.3602 66.8886C13.0252 64.0689 15.3095 61.1883 18.2287 58.2488L16.8097 56.8395C13.8008 59.8692 11.4051 62.8792 9.63801 65.8716L11.3602 66.8886ZM8.92505 73.6844C8.92505 71.9059 9.67984 69.6574 11.354 66.8989L9.64421 65.8613C7.88628 68.7578 6.92505 71.3788 6.92505 73.6844H8.92505ZM8.92505 89V73.6844H6.92505V89H8.92505ZM69 88H7.92505V90H69V88ZM68 69.9144V89H70V69.9144H68ZM35.1787 70.9144H69V68.9144H35.1787V70.9144Z" fill="url(#paint2_linear_6895_3636)" mask="url(#path-3-inside-2_6895_3636)"/>
</g>
</g>
<defs>
<filter id="filter0_bd_6895_3636" x="-1" y="1" width="76" height="96" filterUnits="userSpaceOnUse" color-interpolation-filters="sRGB">
<feFlood flood-opacity="0" result="BackgroundImageFix"/>
<feGaussianBlur in="BackgroundImageFix" stdDeviation="2"/>
<feComposite in2="SourceAlpha" operator="in" result="effect1_backgroundBlur_6895_3636"/>
<feColorMatrix in="SourceAlpha" type="matrix" values="0 0 0 0 0 0 0 0 0 0 0 0 0 0 0 0 0 0 127 0" result="hardAlpha"/>
<feOffset dy="2"/>
<feGaussianBlur stdDeviation="3"/>
<feComposite in2="hardAlpha" operator="out"/>
<feColorMatrix type="matrix" values="0 0 0 0 0 0 0 0 0 0 0 0 0 0 0 0 0 0 0.06 0"/>
<feBlend mode="normal" in2="effect1_backgroundBlur_6895_3636" result="effect2_dropShadow_6895_3636"/>
<feBlend mode="normal" in="SourceGraphic" in2="effect2_dropShadow_6895_3636" result="shape"/>
</filter>
<linearGradient id="paint0_linear_6895_3636" x1="37" y1="5" x2="37" y2="89" gradientUnits="userSpaceOnUse">
<stop stop-color="white" stop-opacity="0.08"/>
<stop offset="1" stop-color="white" stop-opacity="0"/>
</linearGradient>
<linearGradient id="paint1_linear_6895_3636" x1="37" y1="5" x2="37" y2="89" gradientUnits="userSpaceOnUse">
<stop stop-color="white" stop-opacity="0.12"/>
<stop offset="1" stop-color="white" stop-opacity="0.04"/>
</linearGradient>
<linearGradient id="paint2_linear_6895_3636" x1="35.2255" y1="5" x2="36.1171" y2="12.9727" gradientUnits="userSpaceOnUse">
<stop stop-color="white"/>
<stop offset="0.249231" stop-color="white" stop-opacity="0.12"/>
<stop offset="1" stop-color="white" stop-opacity="0.04"/>
</linearGradient>
<clipPath id="clip0_6895_3636">
<rect width="74" height="94" fill="white"/>
</clipPath>
</defs>
</svg>
