<svg width="74" height="94" viewBox="0 0 74 94" fill="none" xmlns="http://www.w3.org/2000/svg">
<g clip-path="url(#clip0_6895_3650)">
<g filter="url(#filter0_bd_6895_3650)">
<mask id="path-1-inside-1_6895_3650" fill="white">
<path fill-rule="evenodd" clip-rule="evenodd" d="M24.4797 86.5635C29.0445 88.1878 34.0735 89 39.5667 89C44.3636 89 48.9284 88.1492 53.2611 86.4475C57.5938 84.6685 61.1141 82.0773 63.8221 78.674C66.6073 75.1934 68 70.9779 68 66.0276C68 62.3923 67.0329 59.105 65.0986 56.1657C63.2418 53.2265 60.6886 50.674 57.4391 48.5083C56.2866 47.7215 55.0729 47.001 53.7979 46.3469C54.5659 45.9725 55.3154 45.5714 56.0464 45.1436C59.2959 43.2873 61.8878 40.9669 63.8221 38.1823C65.8337 35.3204 66.8395 31.9171 66.8395 27.9724C66.8395 23.3315 65.5629 19.3094 63.0097 15.9061C60.5338 12.4254 57.1683 9.7569 52.913 7.90055C48.6576 5.96685 43.8994 5 38.6383 5C34.1509 5 29.7021 5.85083 25.2921 7.55248C20.9594 9.17679 17.2457 11.6906 14.1509 15.0939C11.1335 18.4199 9.2766 22.5967 8.58027 27.6243L29.1219 31.8011C29.5087 29.4033 30.205 27.6243 31.2108 26.4641C32.294 25.3039 33.4545 24.5304 34.6925 24.1436C36.0077 23.6796 37.1683 23.4475 38.1741 23.4475C39.5667 23.4475 40.8046 23.7569 41.8878 24.3757C42.971 24.9171 43.822 25.6906 44.441 26.6961C45.06 27.7017 45.3694 28.9006 45.3694 30.2928C45.3694 32.6906 44.6731 34.5856 43.2805 35.9779C41.8878 37.3702 39.0251 38.0663 34.6925 38.0663H27.4971V41.779V50.4807V55.3536H34.6925C38.2515 55.3536 40.8433 55.7403 42.4681 56.5138C44.1702 57.2873 45.2534 58.2928 45.7176 59.5304C46.1818 60.6906 46.4139 61.8508 46.4139 63.011C46.4139 65.3315 45.6789 67.1878 44.2089 68.5801C42.8162 69.895 40.8046 70.5525 38.1741 70.5525C35.853 70.5525 34.0348 70.0884 32.7195 69.1602C31.4816 68.1547 30.5532 66.9945 29.9342 65.6796C29.3927 64.3646 28.9671 63.2818 28.6576 62.4309L8 66.6077C8.69632 71.558 10.4758 75.6961 13.3385 79.0221C16.2785 82.3481 19.9923 84.8619 24.4797 86.5635Z"/>
</mask>
<path fill-rule="evenodd" clip-rule="evenodd" d="M24.4797 86.5635C29.0445 88.1878 34.0735 89 39.5667 89C44.3636 89 48.9284 88.1492 53.2611 86.4475C57.5938 84.6685 61.1141 82.0773 63.8221 78.674C66.6073 75.1934 68 70.9779 68 66.0276C68 62.3923 67.0329 59.105 65.0986 56.1657C63.2418 53.2265 60.6886 50.674 57.4391 48.5083C56.2866 47.7215 55.0729 47.001 53.7979 46.3469C54.5659 45.9725 55.3154 45.5714 56.0464 45.1436C59.2959 43.2873 61.8878 40.9669 63.8221 38.1823C65.8337 35.3204 66.8395 31.9171 66.8395 27.9724C66.8395 23.3315 65.5629 19.3094 63.0097 15.9061C60.5338 12.4254 57.1683 9.7569 52.913 7.90055C48.6576 5.96685 43.8994 5 38.6383 5C34.1509 5 29.7021 5.85083 25.2921 7.55248C20.9594 9.17679 17.2457 11.6906 14.1509 15.0939C11.1335 18.4199 9.2766 22.5967 8.58027 27.6243L29.1219 31.8011C29.5087 29.4033 30.205 27.6243 31.2108 26.4641C32.294 25.3039 33.4545 24.5304 34.6925 24.1436C36.0077 23.6796 37.1683 23.4475 38.1741 23.4475C39.5667 23.4475 40.8046 23.7569 41.8878 24.3757C42.971 24.9171 43.822 25.6906 44.441 26.6961C45.06 27.7017 45.3694 28.9006 45.3694 30.2928C45.3694 32.6906 44.6731 34.5856 43.2805 35.9779C41.8878 37.3702 39.0251 38.0663 34.6925 38.0663H27.4971V41.779V50.4807V55.3536H34.6925C38.2515 55.3536 40.8433 55.7403 42.4681 56.5138C44.1702 57.2873 45.2534 58.2928 45.7176 59.5304C46.1818 60.6906 46.4139 61.8508 46.4139 63.011C46.4139 65.3315 45.6789 67.1878 44.2089 68.5801C42.8162 69.895 40.8046 70.5525 38.1741 70.5525C35.853 70.5525 34.0348 70.0884 32.7195 69.1602C31.4816 68.1547 30.5532 66.9945 29.9342 65.6796C29.3927 64.3646 28.9671 63.2818 28.6576 62.4309L8 66.6077C8.69632 71.558 10.4758 75.6961 13.3385 79.0221C16.2785 82.3481 19.9923 84.8619 24.4797 86.5635Z" fill="white" fill-opacity="0.06" shape-rendering="crispEdges"/>
<path fill-rule="evenodd" clip-rule="evenodd" d="M24.4797 86.5635C29.0445 88.1878 34.0735 89 39.5667 89C44.3636 89 48.9284 88.1492 53.2611 86.4475C57.5938 84.6685 61.1141 82.0773 63.8221 78.674C66.6073 75.1934 68 70.9779 68 66.0276C68 62.3923 67.0329 59.105 65.0986 56.1657C63.2418 53.2265 60.6886 50.674 57.4391 48.5083C56.2866 47.7215 55.0729 47.001 53.7979 46.3469C54.5659 45.9725 55.3154 45.5714 56.0464 45.1436C59.2959 43.2873 61.8878 40.9669 63.8221 38.1823C65.8337 35.3204 66.8395 31.9171 66.8395 27.9724C66.8395 23.3315 65.5629 19.3094 63.0097 15.9061C60.5338 12.4254 57.1683 9.7569 52.913 7.90055C48.6576 5.96685 43.8994 5 38.6383 5C34.1509 5 29.7021 5.85083 25.2921 7.55248C20.9594 9.17679 17.2457 11.6906 14.1509 15.0939C11.1335 18.4199 9.2766 22.5967 8.58027 27.6243L29.1219 31.8011C29.5087 29.4033 30.205 27.6243 31.2108 26.4641C32.294 25.3039 33.4545 24.5304 34.6925 24.1436C36.0077 23.6796 37.1683 23.4475 38.1741 23.4475C39.5667 23.4475 40.8046 23.7569 41.8878 24.3757C42.971 24.9171 43.822 25.6906 44.441 26.6961C45.06 27.7017 45.3694 28.9006 45.3694 30.2928C45.3694 32.6906 44.6731 34.5856 43.2805 35.9779C41.8878 37.3702 39.0251 38.0663 34.6925 38.0663H27.4971V41.779V50.4807V55.3536H34.6925C38.2515 55.3536 40.8433 55.7403 42.4681 56.5138C44.1702 57.2873 45.2534 58.2928 45.7176 59.5304C46.1818 60.6906 46.4139 61.8508 46.4139 63.011C46.4139 65.3315 45.6789 67.1878 44.2089 68.5801C42.8162 69.895 40.8046 70.5525 38.1741 70.5525C35.853 70.5525 34.0348 70.0884 32.7195 69.1602C31.4816 68.1547 30.5532 66.9945 29.9342 65.6796C29.3927 64.3646 28.9671 63.2818 28.6576 62.4309L8 66.6077C8.69632 71.558 10.4758 75.6961 13.3385 79.0221C16.2785 82.3481 19.9923 84.8619 24.4797 86.5635Z" fill="url(#paint0_linear_6895_3650)" shape-rendering="crispEdges"/>
<path d="M24.4797 86.5635L24.1251 87.4986L24.1347 87.5022L24.1444 87.5057L24.4797 86.5635ZM53.2611 86.4475L53.6267 87.3783L53.6338 87.3755L53.641 87.3726L53.2611 86.4475ZM63.8221 78.674L63.0413 78.0492L63.0395 78.0514L63.8221 78.674ZM65.0986 56.1657L64.2532 56.6998L64.2582 56.7077L64.2633 56.7155L65.0986 56.1657ZM57.4391 48.5083L56.8752 49.3342L56.8845 49.3404L57.4391 48.5083ZM53.7979 46.3469L53.3597 45.448L51.5627 46.3241L53.3415 47.2367L53.7979 46.3469ZM56.0464 45.1436L55.5504 44.2753L55.5413 44.2806L56.0464 45.1436ZM63.8221 38.1823L63.0039 37.6073L63.0008 37.6118L63.8221 38.1823ZM63.0097 15.9061L62.1948 16.4857L62.2021 16.496L62.2097 16.5062L63.0097 15.9061ZM52.913 7.90055L52.4993 8.81096L52.5062 8.8141L52.5131 8.81713L52.913 7.90055ZM25.2921 7.55248L25.6431 8.48889L25.6521 8.48544L25.2921 7.55248ZM14.1509 15.0939L13.411 14.4212L13.4102 14.422L14.1509 15.0939ZM8.58027 27.6243L7.58973 27.4871L7.46091 28.4172L8.38102 28.6043L8.58027 27.6243ZM29.1219 31.8011L28.9226 32.781L29.9432 32.9886L30.1091 31.9604L29.1219 31.8011ZM31.2108 26.4641L30.4799 25.7817L30.4673 25.7951L30.4552 25.8091L31.2108 26.4641ZM34.6925 24.1436L34.9907 25.0981L35.008 25.0927L35.0252 25.0867L34.6925 24.1436ZM41.8878 24.3757L41.3918 25.244L41.4159 25.2578L41.4407 25.2702L41.8878 24.3757ZM44.441 26.6961L45.2926 26.1719V26.1719L44.441 26.6961ZM43.2805 35.9779L43.9875 36.6851L43.2805 35.9779ZM27.4971 38.0663V37.0663H26.4971V38.0663H27.4971ZM27.4971 55.3536H26.4971V56.3536H27.4971V55.3536ZM42.4681 56.5138L42.0382 57.4167L42.0463 57.4205L42.0544 57.4242L42.4681 56.5138ZM45.7176 59.5304L44.7813 59.8816L44.7851 59.8918L44.7892 59.9019L45.7176 59.5304ZM44.2089 68.5801L44.8954 69.3072L44.8965 69.3062L44.2089 68.5801ZM32.7195 69.1602L32.0891 69.9364L32.1153 69.9577L32.143 69.9773L32.7195 69.1602ZM29.9342 65.6796L29.0096 66.0604L29.019 66.0832L29.0295 66.1054L29.9342 65.6796ZM28.6576 62.4309L29.5974 62.0891L29.3032 61.2802L28.4595 61.4508L28.6576 62.4309ZM8 66.6077L7.80182 65.6276L6.87854 65.8142L7.00975 66.747L8 66.6077ZM13.3385 79.0221L12.5805 79.6745L12.5893 79.6844L13.3385 79.0221ZM39.5667 88C34.1726 88 29.2587 87.2027 24.8149 85.6214L24.1444 87.5057C28.8302 89.173 33.9744 90 39.5667 90V88ZM52.8956 85.5167C48.6829 87.1712 44.2424 88 39.5667 88V90C44.4849 90 49.174 89.1271 53.6267 87.3783L52.8956 85.5167ZM63.0395 78.0514C60.4459 81.311 57.0687 83.8031 52.8813 85.5225L53.641 87.3726C58.119 85.5339 61.7823 82.8437 64.6046 79.2967L63.0395 78.0514ZM67 66.0276C67 70.7774 65.6689 74.7656 63.0413 78.0492L64.6028 79.2988C67.5458 75.6211 69 71.1784 69 66.0276H67ZM64.2633 56.7155C66.0864 59.4858 67 62.5808 67 66.0276H69C69 62.2037 67.9793 58.7241 65.934 55.616L64.2633 56.7155ZM56.8845 49.3404C60.0316 51.4379 62.48 53.8931 64.2532 56.6998L65.9441 55.6316C64.0035 52.5599 61.3455 49.9101 57.9937 47.6762L56.8845 49.3404ZM53.3415 47.2367C54.5804 47.8722 55.7581 48.5715 56.8752 49.3342L58.0029 47.6824C56.8151 46.8715 55.5655 46.1298 54.2544 45.4572L53.3415 47.2367ZM55.5413 44.2806C54.8324 44.6955 54.1052 45.0846 53.3597 45.448L54.2361 47.2458C55.0267 46.8604 55.7985 46.4474 56.5515 46.0067L55.5413 44.2806ZM63.0008 37.6118C61.1599 40.2619 58.6842 42.4851 55.5504 44.2753L56.5425 46.0119C59.9076 44.0895 62.6157 41.6718 64.6433 38.7528L63.0008 37.6118ZM65.8395 27.9724C65.8395 31.7386 64.8824 34.9348 63.0039 37.6073L64.6402 38.7574C66.7849 35.706 67.8395 32.0956 67.8395 27.9724H65.8395ZM62.2097 16.5062C64.6211 19.7205 65.8395 23.5271 65.8395 27.9724H67.8395C67.8395 23.1359 66.5046 18.8983 63.8096 15.306L62.2097 16.5062ZM52.5131 8.81713C56.617 10.6074 59.8332 13.1657 62.1948 16.4857L63.8245 15.3264C61.2345 11.6851 57.7195 8.90637 53.3128 6.98397L52.5131 8.81713ZM38.6383 6C43.7747 6 48.3893 6.94331 52.4993 8.81096L53.3267 6.99014C48.926 4.99039 44.0242 4 38.6383 4V6ZM25.6521 8.48544C29.9535 6.8257 34.2805 6 38.6383 6V4C34.0213 4 29.4508 4.87595 24.9321 6.61952L25.6521 8.48544ZM14.8907 15.7667C17.878 12.4816 21.4582 10.0578 25.6431 8.48884L24.941 6.61612C20.4606 8.29583 16.6133 10.8996 13.411 14.4212L14.8907 15.7667ZM9.57082 27.7615C10.2433 22.9063 12.0265 18.9239 14.8915 15.7658L13.4102 14.422C10.2405 17.9159 8.30993 22.2871 7.58973 27.4871L9.57082 27.7615ZM29.3211 30.8212L8.77953 26.6444L8.38102 28.6043L28.9226 32.781L29.3211 30.8212ZM30.4552 25.8091C29.2761 27.1692 28.5354 29.1579 28.1346 31.6418L30.1091 31.9604C30.482 29.6488 31.134 28.0794 31.9664 27.1191L30.4552 25.8091ZM34.3943 23.1891C32.9577 23.6379 31.655 24.523 30.4799 25.7817L31.9418 27.1465C32.933 26.0848 33.9514 25.4228 34.9907 25.0981L34.3943 23.1891ZM38.1741 22.4475C37.0205 22.4475 35.7436 22.7123 34.3597 23.2006L35.0252 25.0867C36.2718 24.6468 37.3161 24.4475 38.1741 24.4475V22.4475ZM42.3839 23.5074C41.1326 22.7926 39.72 22.4475 38.1741 22.4475V24.4475C39.4134 24.4475 40.4767 24.7212 41.3918 25.244L42.3839 23.5074ZM45.2926 26.1719C44.5734 25.0035 43.5803 24.1037 42.3349 23.4812L41.4407 25.2702C42.3617 25.7305 43.0707 26.3777 43.5894 27.2203L45.2926 26.1719ZM46.3694 30.2928C46.3694 28.749 46.0248 27.3614 45.2926 26.1719L43.5894 27.2203C44.0951 28.0419 44.3694 29.0521 44.3694 30.2928H46.3694ZM43.9875 36.6851C45.6071 35.0659 46.3694 32.8944 46.3694 30.2928H44.3694C44.3694 32.4868 43.7391 34.1054 42.5735 35.2707L43.9875 36.6851ZM34.6925 39.0663C36.9048 39.0663 38.7896 38.8893 40.3253 38.5159C41.8525 38.1445 43.1124 37.5599 43.9875 36.6851L42.5735 35.2707C42.0559 35.7881 41.1881 36.2478 39.8527 36.5725C38.5257 36.8952 36.8128 37.0663 34.6925 37.0663V39.0663ZM27.4971 39.0663H34.6925V37.0663H27.4971V39.0663ZM28.4971 41.779V38.0663H26.4971V41.779H28.4971ZM28.4971 50.4807V41.779H26.4971V50.4807H28.4971ZM28.4971 55.3536V50.4807H26.4971V55.3536H28.4971ZM34.6925 54.3536H27.4971V56.3536H34.6925V54.3536ZM42.8979 55.6109C41.0626 54.7372 38.2825 54.3536 34.6925 54.3536V56.3536C38.2204 56.3536 40.6241 56.7435 42.0382 57.4167L42.8979 55.6109ZM46.6539 59.1792C46.0637 57.6057 44.7242 56.4406 42.8818 55.6034L42.0544 57.4242C43.6162 58.134 44.4431 58.98 44.7813 59.8816L46.6539 59.1792ZM47.4139 63.011C47.4139 61.7141 47.1539 60.4281 46.646 59.1589L44.7892 59.9019C45.2098 60.9531 45.4139 61.9876 45.4139 63.011H47.4139ZM44.8965 69.3062C46.5958 67.6968 47.4139 65.5622 47.4139 63.011H45.4139C45.4139 65.1008 44.7621 66.6789 43.5213 67.8541L44.8965 69.3062ZM38.1741 71.5525C40.9633 71.5525 43.2572 70.854 44.8954 69.3072L43.5224 67.853C42.3753 68.936 40.646 69.5525 38.1741 69.5525V71.5525ZM32.143 69.9773C33.6865 71.0665 35.734 71.5525 38.1741 71.5525V69.5525C35.972 69.5525 34.3831 69.1103 33.2961 68.3432L32.143 69.9773ZM29.0295 66.1054C29.7184 67.5691 30.7461 68.8456 32.0891 69.9364L33.35 68.384C32.2172 67.4638 31.388 66.4199 30.839 65.2537L29.0295 66.1054ZM27.7179 62.7728C28.034 63.6419 28.4653 64.7389 29.0096 66.0604L30.8589 65.2987C30.32 63.9903 29.9002 62.9217 29.5974 62.0891L27.7179 62.7728ZM8.19818 67.5879L28.8558 63.4111L28.4595 61.4508L7.80182 65.6276L8.19818 67.5879ZM14.0964 78.3698C11.3755 75.2085 9.6637 71.2561 8.99025 66.4684L7.00975 66.747C7.72895 71.8599 9.57616 76.1838 12.5806 79.6744L14.0964 78.3698ZM24.8343 85.6285C20.486 83.9796 16.9117 81.5545 14.0877 78.3598L12.5893 79.6844C15.6454 83.1417 19.4986 85.7441 24.1251 87.4986L24.8343 85.6285Z" fill="url(#paint1_linear_6895_3650)" mask="url(#path-1-inside-1_6895_3650)"/>
</g>
<g opacity="0.6">
<mask id="path-3-inside-2_6895_3650" fill="white">
<path fill-rule="evenodd" clip-rule="evenodd" d="M24.4797 86.5635C29.0445 88.1878 34.0735 89 39.5667 89C44.3636 89 48.9284 88.1492 53.2611 86.4475C57.5938 84.6685 61.1141 82.0773 63.8221 78.674C66.6073 75.1934 68 70.9779 68 66.0276C68 62.3923 67.0329 59.105 65.0986 56.1657C63.2418 53.2265 60.6886 50.674 57.4391 48.5083C56.2866 47.7215 55.0729 47.001 53.7979 46.3469C54.5659 45.9725 55.3154 45.5714 56.0464 45.1436C59.2959 43.2873 61.8878 40.9669 63.8221 38.1823C65.8337 35.3204 66.8395 31.9171 66.8395 27.9724C66.8395 23.3315 65.5629 19.3094 63.0097 15.9061C60.5338 12.4254 57.1683 9.7569 52.913 7.90055C48.6576 5.96685 43.8994 5 38.6383 5C34.1509 5 29.7021 5.85083 25.2921 7.55248C20.9594 9.17679 17.2457 11.6906 14.1509 15.0939C11.1335 18.4199 9.2766 22.5967 8.58027 27.6243L29.1219 31.8011C29.5087 29.4033 30.205 27.6243 31.2108 26.4641C32.294 25.3039 33.4545 24.5304 34.6925 24.1436C36.0077 23.6796 37.1683 23.4475 38.1741 23.4475C39.5667 23.4475 40.8046 23.7569 41.8878 24.3757C42.971 24.9171 43.822 25.6906 44.441 26.6961C45.06 27.7017 45.3694 28.9006 45.3694 30.2928C45.3694 32.6906 44.6731 34.5856 43.2805 35.9779C41.8878 37.3702 39.0251 38.0663 34.6925 38.0663H27.4971V41.779V50.4807V55.3536H34.6925C38.2515 55.3536 40.8433 55.7403 42.4681 56.5138C44.1702 57.2873 45.2534 58.2928 45.7176 59.5304C46.1818 60.6906 46.4139 61.8508 46.4139 63.011C46.4139 65.3315 45.6789 67.1878 44.2089 68.5801C42.8162 69.895 40.8046 70.5525 38.1741 70.5525C35.853 70.5525 34.0348 70.0884 32.7195 69.1602C31.4816 68.1547 30.5532 66.9945 29.9342 65.6796C29.3927 64.3646 28.9671 63.2818 28.6576 62.4309L8 66.6077C8.69632 71.558 10.4758 75.6961 13.3385 79.0221C16.2785 82.3481 19.9923 84.8619 24.4797 86.5635Z"/>
</mask>
<path d="M24.4797 86.5635L24.1251 87.4986L24.1347 87.5022L24.1444 87.5057L24.4797 86.5635ZM53.2611 86.4475L53.6267 87.3783L53.6338 87.3755L53.641 87.3726L53.2611 86.4475ZM63.8221 78.674L63.0413 78.0492L63.0395 78.0514L63.8221 78.674ZM65.0986 56.1657L64.2532 56.6998L64.2582 56.7077L64.2633 56.7155L65.0986 56.1657ZM57.4391 48.5083L56.8752 49.3342L56.8845 49.3404L57.4391 48.5083ZM53.7979 46.3469L53.3597 45.448L51.5627 46.3241L53.3415 47.2367L53.7979 46.3469ZM56.0464 45.1436L55.5504 44.2753L55.5413 44.2806L56.0464 45.1436ZM63.8221 38.1823L63.0039 37.6073L63.0008 37.6118L63.8221 38.1823ZM63.0097 15.9061L62.1948 16.4857L62.2021 16.496L62.2097 16.5062L63.0097 15.9061ZM52.913 7.90055L52.4993 8.81096L52.5062 8.8141L52.5131 8.81713L52.913 7.90055ZM25.2921 7.55248L25.6431 8.48889L25.6521 8.48544L25.2921 7.55248ZM14.1509 15.0939L13.411 14.4212L13.4102 14.422L14.1509 15.0939ZM8.58027 27.6243L7.58973 27.4871L7.46091 28.4172L8.38102 28.6043L8.58027 27.6243ZM29.1219 31.8011L28.9226 32.781L29.9432 32.9886L30.1091 31.9604L29.1219 31.8011ZM31.2108 26.4641L30.4799 25.7817L30.4673 25.7951L30.4552 25.8091L31.2108 26.4641ZM34.6925 24.1436L34.9907 25.0981L35.008 25.0927L35.0252 25.0867L34.6925 24.1436ZM41.8878 24.3757L41.3918 25.244L41.4159 25.2578L41.4407 25.2702L41.8878 24.3757ZM44.441 26.6961L45.2926 26.1719V26.1719L44.441 26.6961ZM43.2805 35.9779L43.9875 36.6851L43.2805 35.9779ZM27.4971 38.0663V37.0663H26.4971V38.0663H27.4971ZM27.4971 55.3536H26.4971V56.3536H27.4971V55.3536ZM42.4681 56.5138L42.0382 57.4167L42.0463 57.4205L42.0544 57.4242L42.4681 56.5138ZM45.7176 59.5304L44.7813 59.8816L44.7851 59.8918L44.7892 59.9019L45.7176 59.5304ZM44.2089 68.5801L44.8954 69.3072L44.8965 69.3062L44.2089 68.5801ZM32.7195 69.1602L32.0891 69.9364L32.1153 69.9577L32.143 69.9773L32.7195 69.1602ZM29.9342 65.6796L29.0096 66.0604L29.019 66.0832L29.0295 66.1054L29.9342 65.6796ZM28.6576 62.4309L29.5974 62.0891L29.3032 61.2802L28.4595 61.4508L28.6576 62.4309ZM8 66.6077L7.80182 65.6276L6.87854 65.8142L7.00975 66.747L8 66.6077ZM13.3385 79.0221L12.5805 79.6745L12.5893 79.6844L13.3385 79.0221ZM39.5667 88C34.1726 88 29.2587 87.2027 24.8149 85.6214L24.1444 87.5057C28.8302 89.173 33.9744 90 39.5667 90V88ZM52.8956 85.5167C48.6829 87.1712 44.2424 88 39.5667 88V90C44.4849 90 49.174 89.1271 53.6267 87.3783L52.8956 85.5167ZM63.0395 78.0514C60.4459 81.311 57.0687 83.8031 52.8813 85.5225L53.641 87.3726C58.119 85.5339 61.7823 82.8437 64.6046 79.2967L63.0395 78.0514ZM67 66.0276C67 70.7774 65.6689 74.7656 63.0413 78.0492L64.6028 79.2988C67.5458 75.6211 69 71.1784 69 66.0276H67ZM64.2633 56.7155C66.0864 59.4858 67 62.5808 67 66.0276H69C69 62.2037 67.9793 58.7241 65.934 55.616L64.2633 56.7155ZM56.8845 49.3404C60.0316 51.4379 62.48 53.8931 64.2532 56.6998L65.9441 55.6316C64.0035 52.5599 61.3455 49.9101 57.9937 47.6762L56.8845 49.3404ZM53.3415 47.2367C54.5804 47.8722 55.7581 48.5715 56.8752 49.3342L58.0029 47.6824C56.8151 46.8715 55.5655 46.1298 54.2544 45.4572L53.3415 47.2367ZM55.5413 44.2806C54.8324 44.6955 54.1052 45.0846 53.3597 45.448L54.2361 47.2458C55.0267 46.8604 55.7985 46.4474 56.5515 46.0067L55.5413 44.2806ZM63.0008 37.6118C61.1599 40.2619 58.6842 42.4851 55.5504 44.2753L56.5425 46.0119C59.9076 44.0895 62.6157 41.6718 64.6433 38.7528L63.0008 37.6118ZM65.8395 27.9724C65.8395 31.7386 64.8824 34.9348 63.0039 37.6073L64.6402 38.7574C66.7849 35.706 67.8395 32.0956 67.8395 27.9724H65.8395ZM62.2097 16.5062C64.6211 19.7205 65.8395 23.5271 65.8395 27.9724H67.8395C67.8395 23.1359 66.5046 18.8983 63.8096 15.306L62.2097 16.5062ZM52.5131 8.81713C56.617 10.6074 59.8332 13.1657 62.1948 16.4857L63.8245 15.3264C61.2345 11.6851 57.7195 8.90637 53.3128 6.98397L52.5131 8.81713ZM38.6383 6C43.7747 6 48.3893 6.94331 52.4993 8.81096L53.3267 6.99014C48.926 4.99039 44.0242 4 38.6383 4V6ZM25.6521 8.48544C29.9535 6.8257 34.2805 6 38.6383 6V4C34.0213 4 29.4508 4.87595 24.9321 6.61952L25.6521 8.48544ZM14.8907 15.7667C17.878 12.4816 21.4582 10.0578 25.6431 8.48884L24.941 6.61612C20.4606 8.29583 16.6133 10.8996 13.411 14.4212L14.8907 15.7667ZM9.57082 27.7615C10.2433 22.9063 12.0265 18.9239 14.8915 15.7658L13.4102 14.422C10.2405 17.9159 8.30993 22.2871 7.58973 27.4871L9.57082 27.7615ZM29.3211 30.8212L8.77953 26.6444L8.38102 28.6043L28.9226 32.781L29.3211 30.8212ZM30.4552 25.8091C29.2761 27.1692 28.5354 29.1579 28.1346 31.6418L30.1091 31.9604C30.482 29.6488 31.134 28.0794 31.9664 27.1191L30.4552 25.8091ZM34.3943 23.1891C32.9577 23.6379 31.655 24.523 30.4799 25.7817L31.9418 27.1465C32.933 26.0848 33.9514 25.4228 34.9907 25.0981L34.3943 23.1891ZM38.1741 22.4475C37.0205 22.4475 35.7436 22.7123 34.3597 23.2006L35.0252 25.0867C36.2718 24.6468 37.3161 24.4475 38.1741 24.4475V22.4475ZM42.3839 23.5074C41.1326 22.7926 39.72 22.4475 38.1741 22.4475V24.4475C39.4134 24.4475 40.4767 24.7212 41.3918 25.244L42.3839 23.5074ZM45.2926 26.1719C44.5734 25.0035 43.5803 24.1037 42.3349 23.4812L41.4407 25.2702C42.3617 25.7305 43.0707 26.3777 43.5894 27.2203L45.2926 26.1719ZM46.3694 30.2928C46.3694 28.749 46.0248 27.3614 45.2926 26.1719L43.5894 27.2203C44.0951 28.0419 44.3694 29.0521 44.3694 30.2928H46.3694ZM43.9875 36.6851C45.6071 35.0659 46.3694 32.8944 46.3694 30.2928H44.3694C44.3694 32.4868 43.7391 34.1054 42.5735 35.2707L43.9875 36.6851ZM34.6925 39.0663C36.9048 39.0663 38.7896 38.8893 40.3253 38.5159C41.8525 38.1445 43.1124 37.5599 43.9875 36.6851L42.5735 35.2707C42.0559 35.7881 41.1881 36.2478 39.8527 36.5725C38.5257 36.8952 36.8128 37.0663 34.6925 37.0663V39.0663ZM27.4971 39.0663H34.6925V37.0663H27.4971V39.0663ZM28.4971 41.779V38.0663H26.4971V41.779H28.4971ZM28.4971 50.4807V41.779H26.4971V50.4807H28.4971ZM28.4971 55.3536V50.4807H26.4971V55.3536H28.4971ZM34.6925 54.3536H27.4971V56.3536H34.6925V54.3536ZM42.8979 55.6109C41.0626 54.7372 38.2825 54.3536 34.6925 54.3536V56.3536C38.2204 56.3536 40.6241 56.7435 42.0382 57.4167L42.8979 55.6109ZM46.6539 59.1792C46.0637 57.6057 44.7242 56.4406 42.8818 55.6034L42.0544 57.4242C43.6162 58.134 44.4431 58.98 44.7813 59.8816L46.6539 59.1792ZM47.4139 63.011C47.4139 61.7141 47.1539 60.4281 46.646 59.1589L44.7892 59.9019C45.2098 60.9531 45.4139 61.9876 45.4139 63.011H47.4139ZM44.8965 69.3062C46.5958 67.6968 47.4139 65.5622 47.4139 63.011H45.4139C45.4139 65.1008 44.7621 66.6789 43.5213 67.8541L44.8965 69.3062ZM38.1741 71.5525C40.9633 71.5525 43.2572 70.854 44.8954 69.3072L43.5224 67.853C42.3753 68.936 40.646 69.5525 38.1741 69.5525V71.5525ZM32.143 69.9773C33.6865 71.0665 35.734 71.5525 38.1741 71.5525V69.5525C35.972 69.5525 34.3831 69.1103 33.2961 68.3432L32.143 69.9773ZM29.0295 66.1054C29.7184 67.5691 30.7461 68.8456 32.0891 69.9364L33.35 68.384C32.2172 67.4638 31.388 66.4199 30.839 65.2537L29.0295 66.1054ZM27.7179 62.7728C28.034 63.6419 28.4653 64.7389 29.0096 66.0604L30.8589 65.2987C30.32 63.9903 29.9002 62.9217 29.5974 62.0891L27.7179 62.7728ZM8.19818 67.5879L28.8558 63.4111L28.4595 61.4508L7.80182 65.6276L8.19818 67.5879ZM14.0964 78.3698C11.3755 75.2085 9.6637 71.2561 8.99025 66.4684L7.00975 66.747C7.72895 71.8599 9.57616 76.1838 12.5806 79.6744L14.0964 78.3698ZM24.8343 85.6285C20.486 83.9796 16.9117 81.5545 14.0877 78.3598L12.5893 79.6844C15.6454 83.1417 19.4986 85.7441 24.1251 87.4986L24.8343 85.6285Z" fill="url(#paint2_linear_6895_3650)" mask="url(#path-3-inside-2_6895_3650)"/>
</g>
</g>
<defs>
<filter id="filter0_bd_6895_3650" x="2" y="1" width="72" height="96" filterUnits="userSpaceOnUse" color-interpolation-filters="sRGB">
<feFlood flood-opacity="0" result="BackgroundImageFix"/>
<feGaussianBlur in="BackgroundImageFix" stdDeviation="2"/>
<feComposite in2="SourceAlpha" operator="in" result="effect1_backgroundBlur_6895_3650"/>
<feColorMatrix in="SourceAlpha" type="matrix" values="0 0 0 0 0 0 0 0 0 0 0 0 0 0 0 0 0 0 127 0" result="hardAlpha"/>
<feOffset dy="2"/>
<feGaussianBlur stdDeviation="3"/>
<feComposite in2="hardAlpha" operator="out"/>
<feColorMatrix type="matrix" values="0 0 0 0 0 0 0 0 0 0 0 0 0 0 0 0 0 0 0.06 0"/>
<feBlend mode="normal" in2="effect1_backgroundBlur_6895_3650" result="effect2_dropShadow_6895_3650"/>
<feBlend mode="normal" in="SourceGraphic" in2="effect2_dropShadow_6895_3650" result="shape"/>
</filter>
<linearGradient id="paint0_linear_6895_3650" x1="38" y1="5" x2="38" y2="89" gradientUnits="userSpaceOnUse">
<stop stop-color="white" stop-opacity="0.08"/>
<stop offset="1" stop-color="white" stop-opacity="0"/>
</linearGradient>
<linearGradient id="paint1_linear_6895_3650" x1="38" y1="5" x2="38" y2="89" gradientUnits="userSpaceOnUse">
<stop stop-color="white" stop-opacity="0.12"/>
<stop offset="1" stop-color="white" stop-opacity="0.04"/>
</linearGradient>
<linearGradient id="paint2_linear_6895_3650" x1="36.3364" y1="5" x2="37.2858" y2="12.9592" gradientUnits="userSpaceOnUse">
<stop stop-color="white"/>
<stop offset="0.249231" stop-color="white" stop-opacity="0.12"/>
<stop offset="1" stop-color="white" stop-opacity="0.04"/>
</linearGradient>
<clipPath id="clip0_6895_3650">
<rect width="74" height="94" fill="white"/>
</clipPath>
</defs>
</svg>
