<svg id="Layer_1" data-name="Layer 1" xmlns="http://www.w3.org/2000/svg" xmlns:xlink="http://www.w3.org/1999/xlink" viewBox="0 0 320 214"><defs><clipPath id="clip-path"><rect x="203.61" y="124.05" width="15.07" height="27.95" fill="none"/></clipPath><clipPath id="clip-path-2"><rect x="144.02" y="90.24" width="20.99" height="27.95" fill="none"/></clipPath><clipPath id="clip-path-3"><rect x="122.42" y="124.05" width="20.99" height="27.95" fill="none"/></clipPath><clipPath id="clip-path-4"><rect x="224.52" y="90.24" width="20.99" height="27.95" fill="none"/></clipPath><clipPath id="clip-path-5"><rect x="184.35" y="59.12" width="16.11" height="27.95" fill="none"/></clipPath><clipPath id="clip-path-6"><rect x="59.59" y="190.53" width="58.45" height="5.53" fill="none"/></clipPath><clipPath id="clip-path-7"><rect x="111.69" y="98.51" width="6.27" height="6.82" fill="none"/></clipPath></defs><title>Illustrations RESIZE Homepage</title><rect width="320" height="214" fill="#fff" opacity="0"/><rect x="203.61" y="124.05" width="73.94" height="27.95" fill="#f8f8f8"/><g opacity="0.15"><g clip-path="url(#clip-path)"><rect x="203.61" y="124.05" width="15.06" height="27.95"/></g></g><polygon points="277.56 152 203.61 152 218.68 148.51 277.46 148.51 277.56 152" fill="#f2f2f2"/><rect x="144.02" y="90.24" width="73.94" height="27.95" fill="#e5e5e5"/><g opacity="0.15"><g clip-path="url(#clip-path-2)"><rect x="144.02" y="90.24" width="20.99" height="27.95"/></g></g><polygon points="144.02 118.19 165.01 116.5 217.97 116.5 217.97 118.19 144.02 118.19" fill="#f2f2f2"/><rect x="122.42" y="124.05" width="73.94" height="27.95" fill="#e5e5e5"/><g opacity="0.15"><g clip-path="url(#clip-path-3)"><rect x="122.42" y="124.05" width="20.99" height="27.95"/></g></g><polygon points="122.42 152 143.41 148.51 196.36 148.51 196.36 152 122.42 152" fill="#f2f2f2"/><rect x="224.52" y="90.24" width="73.94" height="27.95" fill="#e5e5e5"/><g opacity="0.15"><g clip-path="url(#clip-path-4)"><rect x="224.52" y="90.24" width="20.99" height="27.95"/></g></g><polygon points="224.52 118.19 245.51 116.5 298.46 116.5 298.46 118.19 224.52 118.19" fill="#f2f2f2"/><rect x="184.35" y="59.12" width="73.94" height="27.95" fill="#e5e5e5"/><g opacity="0.15"><g clip-path="url(#clip-path-5)"><rect x="184.35" y="59.12" width="16.11" height="27.95"/></g></g><polygon points="258.3 59.12 184.35 59.12 200.47 60.81 258.2 60.81 258.3 59.12" fill="#1a1919"/><path d="M259.87,149.47H237.45l-.61,0-8.18.58c-.2,0-.19.37,0,.37h24.1c.26,0,.51,0,.77,0l6.34-.57c.2,0,.19-.36,0-.36" fill="#1a1919"/><path d="M184.23,149.51H158l-.72,0-9.56.58a.19.19,0,0,0,0,.37h28.17c.3,0,.6,0,.9,0l7.4-.56a.19.19,0,0,0,0-.37" fill="#1a1919"/><path d="M250.32,117.71h25.13a.17.17,0,0,0,.16-.11l.15-.34a.17.17,0,0,0-.16-.25H250.86a.17.17,0,0,0-.1,0l-.54.34a.18.18,0,0,0,.1.33" fill="#1a1919"/><polygon points="256.99 140.65 256.71 146.02 252.5 146.02 252.46 140.57 256.99 140.65" fill="#1a1919"/><path d="M253,141.34a.34.34,0,0,1,.34-.27h3.21a.33.33,0,0,1,.33.27,21.43,21.43,0,0,1,.21,3.82,36.86,36.86,0,0,1-.19,4.21.66.66,0,0,1-.66.58H253.4a.33.33,0,0,1-.33-.29,30.13,30.13,0,0,1-.24-4.5,22.57,22.57,0,0,1,.21-3.82" fill="#1a1919"/><path d="M256.31,145.67a11.94,11.94,0,0,0,.28,3.59,11.94,11.94,0,0,0,.28-3.59,11.9,11.9,0,0,0-.28-3.58,11.9,11.9,0,0,0-.28,3.58" fill="#11a58c"/><path d="M249.46,141.82a.34.34,0,0,1,.33-.28h3.6a.36.36,0,0,1,.34.28,22.47,22.47,0,0,1,.21,3.82,36,36,0,0,1-.2,4.21.66.66,0,0,1-.66.58h-3a.67.67,0,0,1-.66-.58,36.86,36.86,0,0,1-.19-4.21,22.47,22.47,0,0,1,.21-3.82" fill="#1a1919"/><path d="M252.88,146c0,2,.18,3.72.41,3.72s.41-1.67.41-3.72-.18-3.72-.41-3.72-.41,1.66-.41,3.72" fill="#11a58c"/><path d="M233.08,141.34a.33.33,0,0,1,.33-.27H237a.33.33,0,0,1,.33.27,21.43,21.43,0,0,1,.21,3.82,36.86,36.86,0,0,1-.19,4.21.67.67,0,0,1-.66.58h-3.26a.34.34,0,0,1-.34-.29,32.48,32.48,0,0,1-.23-4.5,21.43,21.43,0,0,1,.21-3.82" fill="#1a1919"/><path d="M229.92,141.82a.34.34,0,0,1,.33-.28h3.6a.36.36,0,0,1,.34.28,22.47,22.47,0,0,1,.21,3.82,33.79,33.79,0,0,1-.2,4.21.66.66,0,0,1-.66.58h-3a.68.68,0,0,1-.66-.58,36.86,36.86,0,0,1-.19-4.21,22.47,22.47,0,0,1,.21-3.82" fill="#1a1919"/><polygon points="252.08 147.36 251.79 148.3 230.75 148.3 230.51 147.28 252.08 147.36" fill="#1a1919"/><path d="M230.51,147.29l-.77-3.35a1.46,1.46,0,0,1,0-.36l.23-3.23a2.78,2.78,0,0,1,1.6-2.33l.86-.41,1.66-3.51a5.82,5.82,0,0,1,1.12-1.61,2.75,2.75,0,0,1,1.58-.79,46.12,46.12,0,0,1,6.35-.34c3.87,0,6.21.14,7.26.23a2.8,2.8,0,0,1,1.22.4l.3.18a2.77,2.77,0,0,1,1,1.13l1.65,3.23,1.65.62a.75.75,0,0,1,.48.63l.28,2.87a.46.46,0,0,1-.05.23,4.84,4.84,0,0,0-.38,1.67c-.25,1.77-.77,5.4-.77,5.4l-1.88.35a24.78,24.78,0,0,0,.3-4.09c0-2.11-.19-3.54-.6-3.54s-.56,2-.63,3.13a19.86,19.86,0,0,1-.9,3.56.31.31,0,0,1-.29.22H230.88a.38.38,0,0,1-.37-.29" fill="#06c4ab"/><path d="M248.83,146.52a.58.58,0,1,0,.57-.58.58.58,0,0,0-.57.58" fill="#fff"/><path d="M232.08,146.52a.58.58,0,1,0,.58-.58.58.58,0,0,0-.58.58" fill="#fff"/><path d="M246.65,146.59l-.11-.22a.34.34,0,0,0-.31-.19H235.54a.34.34,0,0,0-.31.19l-.11.22a.34.34,0,0,0,.31.5h10.91a.34.34,0,0,0,.31-.5" fill="#1a1919"/><path d="M234.72,143.82H247a.51.51,0,0,0,.48-.67l-.57-1.75a.61.61,0,0,0-.48-.41,35.59,35.59,0,0,0-5.76-.42,31.14,31.14,0,0,0-5.45.41.61.61,0,0,0-.46.42l-.53,1.77a.51.51,0,0,0,.49.65m5.07-1.62c0-.23.48-.41,1.07-.41s1.06.18,1.06.41-.48.4-1.06.4-1.07-.18-1.07-.4" fill="#1a1919"/><path d="M248.3,141.85h0a.85.85,0,0,1,.59-1l1.55-.43a1,1,0,1,1,.36,2l-1.6.15a.85.85,0,0,1-.9-.63" fill="#1a1919"/><path d="M250,141.34a.77.77,0,1,0,.77-.77.77.77,0,0,0-.77.77" fill="#11a58c"/><path d="M248.56,141.63a.56.56,0,1,0,.56-.56.56.56,0,0,0-.56.56" fill="#fff"/><path d="M233.78,141.85h0a.87.87,0,0,0-.6-1l-1.55-.43a1,1,0,1,0-.35,2l1.6.15a.87.87,0,0,0,.9-.63" fill="#1a1919"/><path d="M232.12,141.34a.78.78,0,1,1-.77-.77.78.78,0,0,1,.77.77" fill="#11a58c"/><path d="M233.51,141.63a.56.56,0,1,1-.56-.56.56.56,0,0,1,.56.56" fill="#fff"/><polygon points="251.71 137.6 233.24 137.6 235.56 132.93 250.81 132.93 251.71 137.6" fill="#1a1919"/><path d="M232.75,136.87l-.45-.22a.49.49,0,0,0-.45-.48l-1.17-.1a.6.6,0,0,0-.65.51.61.61,0,0,0,.6.69h1.45l.38.21Z" fill="#11a58c"/><path d="M252.71,136.87l-.57-3.58a.24.24,0,0,1,.24-.27.25.25,0,0,1,.21.12l1.57,3.06-.61.57Z" fill="#1a1919"/><path d="M252.71,136.87l.46-.22a.48.48,0,0,1,.44-.48l1.18-.1a.59.59,0,0,1,.64.51.6.6,0,0,1-.59.69h-1.46l-.38.21Z" fill="#11a58c"/><path d="M153.94,135.82l-.07-.83a.22.22,0,0,0-.22-.21h-1.94a.22.22,0,0,0-.22.22v1.18a.23.23,0,0,0,.22.22h1.76a.21.21,0,0,0,.18-.09l.24-.35a.18.18,0,0,0,0-.14" fill="#06c4ab"/><polygon points="182.74 145.68 183.19 144.81 183.32 140.94 182.29 139.78 169.36 139.85 161.93 144.06 148.53 143.97 148.14 146.4 148.34 147.14 150.39 147.64 163.77 147.68 167.59 147.24 178.39 146.83 182.74 145.68" fill="#1a1919"/><path d="M178.11,141a.46.46,0,0,1,.35-.17h3.39a.44.44,0,0,1,.35.18c.27.37.78,1.44.77,4.31a10,10,0,0,1-.67,4.26.8.8,0,0,1-.71.43h-2.92a.79.79,0,0,1-.71-.44,9.79,9.79,0,0,1-.64-4.25c0-2.88.52-3.95.79-4.32" fill="#1a1919"/><path d="M159.62,141a.43.43,0,0,1,.35-.17h3.38a.44.44,0,0,1,.35.18c.27.36.78,1.44.77,4.31a10,10,0,0,1-.67,4.26.8.8,0,0,1-.71.43h-2.92a.79.79,0,0,1-.71-.44,10,10,0,0,1-.64-4.25c0-2.88.52-3.95.8-4.32" fill="#1a1919"/><path d="M167.57,141.21a.36.36,0,0,1,.27-.12h3.72a.37.37,0,0,1,.29.14c.3.34,1,1.46,1,4.51,0,2.57-.49,3.72-.81,4.21a.75.75,0,0,1-.62.32H168a.71.71,0,0,1-.62-.34c-.33-.51-.82-1.72-.81-4.35,0-3.05.68-4.07,1-4.37" fill="#1a1919"/><path d="M149,141.2a.36.36,0,0,1,.28-.12H153a.37.37,0,0,1,.29.14c.3.34,1,1.46,1,4.51,0,2.57-.48,3.72-.81,4.2a.74.74,0,0,1-.62.33h-3.35a.72.72,0,0,1-.62-.34c-.33-.51-.82-1.73-.81-4.35,0-3,.68-4.07,1-4.37" fill="#1a1919"/><path d="M180.46,145.83c0,1.68.37,3,.85,3s.87-1.36.87-3-.37-3.05-.85-3.05-.87,1.36-.87,3" fill="#06c4ab"/><path d="M169.71,146c0,1.68.51,3.05,1.14,3.05s1.14-1.36,1.15-3-.5-3-1.14-3-1.14,1.36-1.15,3" fill="#06c4ab"/><path d="M168.05,146.79l-4.63.31a3.85,3.85,0,0,1-.48,0l-11.63,0c-.28,0-.56,0-.84-.05l-1.89-.22a.52.52,0,0,1-.44-.42l-.24-1.28-.16-.15a.71.71,0,0,1-.23-.48l-.12-1.87.13-.06v-.83l.45-.5.2-.94a.6.6,0,0,1,.27-.39l.94-.6.08-1.1a1.5,1.5,0,0,1,1.16-1.35l2.93-.67,3.24-5.29a1.7,1.7,0,0,1,1.36-.8l8.15-.38c1.33-.06,2.66-.09,4-.07l8.84.09a.93.93,0,0,1,.84.55l2.46,5.49a3.48,3.48,0,0,1,.26.83l.63,3.61-.07.13.66.59a15.79,15.79,0,0,1-.08,2.46,17.34,17.34,0,0,1-.29,1.78l-.57.18.12-2.35a4,4,0,0,0-.15-1.38l-.26-.89a.47.47,0,0,0-.51-.35l-1,.09a.5.5,0,0,0-.43.37l-1.17,4.59-6.3.12a.34.34,0,0,1-.36-.35v-1.36l-.6-3.12a.42.42,0,0,0-.41-.34l-1.37,0a.37.37,0,0,0-.35.28l-1.5,5.64a.62.62,0,0,1-.57.46" fill="#fff"/><path d="M158.51,138.55l-.17,2.89a.25.25,0,0,1-.25.22h-.48a.24.24,0,0,1-.24-.26l.18-2.89a.24.24,0,0,1,.24-.23h.48a.24.24,0,0,1,.24.26" fill="#1a1919"/><path d="M163.22,138.51l-.16,2.91a.24.24,0,0,1-.24.24h-.63a.24.24,0,0,1-.24-.26l.15-2.91a.25.25,0,0,1,.25-.23H163a.26.26,0,0,1,.25.26" fill="#1a1919"/><path d="M161.6,138.52l-.16,2.91a.24.24,0,0,1-.24.23h-.53a.24.24,0,0,1-.25-.26l.16-2.9a.25.25,0,0,1,.25-.23h.52a.26.26,0,0,1,.25.26" fill="#1a1919"/><path d="M160.07,138.53l-.17,2.9a.24.24,0,0,1-.24.23h-.57a.24.24,0,0,1-.24-.26l.17-2.89a.24.24,0,0,1,.24-.23h.56a.25.25,0,0,1,.25.25" fill="#1a1919"/><path d="M152.83,141.41l.21-2.85a.24.24,0,0,1,.24-.23h.43a.24.24,0,0,1,.25.26l-.2,2.85a.25.25,0,0,1-.25.23h-.44a.24.24,0,0,1-.24-.26" fill="#1a1919"/><path d="M155.47,138.57l-.19,2.87a.25.25,0,0,1-.25.23h-.47a.24.24,0,0,1-.24-.26l.19-2.87a.25.25,0,0,1,.25-.22h.46a.24.24,0,0,1,.25.26" fill="#1a1919"/><path d="M157,138.56l-.18,2.88a.24.24,0,0,1-.24.23h-.51a.24.24,0,0,1-.24-.26l.19-2.88a.25.25,0,0,1,.24-.23h.5a.24.24,0,0,1,.24.26" fill="#1a1919"/><path d="M165.28,141.83h-1.51a.3.3,0,0,1-.3-.32l.17-3.18a1,1,0,0,1,1-1l1.54,0a.28.28,0,0,1,.2.08l.41.4a.29.29,0,0,1,.08.23l-.25,2.05a.34.34,0,0,1-.07.19l-1.05,1.45a.31.31,0,0,1-.25.13" fill="#1a1919"/><polygon points="182.69 136.6 182.5 136.68 183.05 140.15 183.25 140.34 183.32 140.21 182.69 136.6" fill="#0188d6"/><path d="M179.8,137.09l0,.24a.24.24,0,0,1-.21.26l-.85.07a.23.23,0,0,1-.25-.2l0-.26a.22.22,0,0,1,.21-.25l.85-.06a.25.25,0,0,1,.25.2" fill="#1a1919"/><path d="M176.35,137.38l0,.24a.24.24,0,0,1-.21.26l-.85.07a.23.23,0,0,1-.25-.2l0-.26a.22.22,0,0,1,.21-.25l.85-.06a.25.25,0,0,1,.25.2" fill="#1a1919"/><path d="M162.37,145l.27,1a.27.27,0,0,1-.25.34h-9.6a.26.26,0,0,1-.25-.35l.3-.94a.25.25,0,0,1,.25-.18l9-.07a.27.27,0,0,1,.26.19" fill="#1a1919"/><path d="M164.09,138.84a1.26,1.26,0,1,0,1.26-1.25,1.26,1.26,0,0,0-1.26,1.25" fill="#ffffe7"/><path d="M149.86,137.87l.36-.38a.2.2,0,0,1,.16-.07h1.46a.62.62,0,0,1,.61.65v.27l-.06,1-.07,1.22,0,.55,0,.48a.22.22,0,0,1-.23.22h-1.25a.23.23,0,0,1-.21-.14l-.67-1.44L149.8,138a.25.25,0,0,1,.06-.16" fill="#1a1919"/><path d="M151.68,141.52a.66.66,0,0,1-.66-.67.67.67,0,0,1,1.29-.24l0,.55a.68.68,0,0,1-.6.36" fill="#30d97c"/><path d="M163.9,140.89a.67.67,0,1,0,1.34,0,.66.66,0,0,0-.66-.67.68.68,0,0,0-.68.67" fill="#30d97c"/><path d="M172.94,131.06a.17.17,0,0,1,.17-.16l1,0a.11.11,0,0,1,.11.08l1.44,5.25a.11.11,0,0,1-.09.14l-2.78.48a.22.22,0,0,1-.26-.24Z" fill="#1a1919"/><path d="M177.27,130.87l1.92,5a.12.12,0,0,1-.1.16l-2.36.17a.13.13,0,0,1-.12-.08L175,131a.09.09,0,0,1,.07-.11l2.06-.05a.13.13,0,0,1,.13.08" fill="#1a1919"/><path d="M179.65,130.72a.12.12,0,0,1,.11.07l2.08,4.94a.1.1,0,0,1-.09.15l-1.55.12a.14.14,0,0,1-.12-.07l-2-5.05a.09.09,0,0,1,.08-.12Z" fill="#1a1919"/><path d="M171.49,136.15h0c-1.59-.12-3.19-.18-4.79-.16l-11.6.13-.8,0a.14.14,0,0,1-.13-.21l3-4.95a.25.25,0,0,1,.16-.12,37.47,37.47,0,0,1,6.35-.3c4.4,0,7.14.21,7.95.27a.26.26,0,0,1,.23.27l-.26,4.91a.13.13,0,0,1-.15.13" fill="#1a1919"/><path d="M171.57,130.42a.22.22,0,0,0,.2.25.22.22,0,0,0,.22-.16l0-.07a.17.17,0,0,1,.14-.13l.32-.06A13.1,13.1,0,0,1,175,130l4.65-.1a.51.51,0,0,0-.21-.1h0l0-.15a1,1,0,0,0-1.08-.82l-3.9.18a1,1,0,0,0-.69.32l-.56.58-1.11.17-.19,0a.34.34,0,0,0-.27.28Zm2.68-.62v-.38a.19.19,0,0,1,.17-.18l3.76-.15a.15.15,0,0,1,.15.12l.08.51-3.41.05c-.25,0-.5,0-.74,0" fill="#1a1919"/><path d="M159.8,130l.56-.58a1,1,0,0,1,.7-.32l3.9-.19a1,1,0,0,1,1.07.82v0l-1,.05-.08-.48a.14.14,0,0,0-.15-.13l-3.75.16a.17.17,0,0,0-.17.18V130l-1.58.08.49-.07" fill="#1a1919"/><path d="M157.5,130.42a1.17,1.17,0,0,1,.38-.29l.27,0,1.16-.05-.62.1-.19,0a.35.35,0,0,0-.19.1h-.14a.56.56,0,0,0-.36.17l-.15.16h-.33Z" fill="#1a1919"/><path d="M160.9,130l4.15-.19,1-.05h.16l-5.82.4.51,0Z" fill="#1a1919"/><path d="M158.5,130.18l.19,0,.62-.1,1.59-.08v.13l-.51,0-2.07.15a.35.35,0,0,1,.19-.1" fill="#1a1919"/><polygon points="165.94 129.73 165.06 129.79 165.05 129.77 165.94 129.73" fill="#1a1919"/><path d="M173.17,136.52l.39-.22h1.92a.3.3,0,0,0,.3-.29v-1a.3.3,0,0,0-.3-.31h-2.15a.13.13,0,0,0-.13.13l0,1.12-.26.3a.21.21,0,0,0,.26.32" fill="#06c4ab"/><path d="M163.24,145.47a.65.65,0,1,0,.65-.65.65.65,0,0,0-.65.65" fill="#1a1919"/><path d="M150.65,145.43a.65.65,0,1,0,.65-.64.64.64,0,0,0-.65.64" fill="#1a1919"/><path d="M151.32,140a1.18,1.18,0,1,1,0-2.35,1.17,1.17,0,0,1,1.1.79l-.05.9a1.16,1.16,0,0,1-1.06.66" fill="#ffffe7"/><polygon points="272.76 103.94 273.97 103.94 274.18 104.56 273.14 104.56 272.76 103.94" fill="#b92c00"/><path d="M252.56,108.76h0c-.77,0-1.4,1.94-1.4,4.33s.63,4.33,1.4,4.33h2.8v-8.66Z" fill="#100f0f"/><path d="M256.76,113.09c0,2.39-.63,4.33-1.4,4.33s-1.4-1.94-1.4-4.33.63-4.33,1.4-4.33,1.4,1.94,1.4,4.33" fill="#231f20"/><path d="M256.31,113.09c0,1.63-.43,2.94-.95,2.94s-1-1.31-1-2.94.42-2.94,1-2.94.95,1.32.95,2.94" fill="#100f0f"/><path d="M255.36,109.92c-.57,0-1,1.42-1,3.17s.46,3.18,1,3.18,1-1.42,1-3.18-.46-3.17-1-3.17m.65,1.76-.35.62c0,.06-.06,0,0-.14l.21-1.08c0-.12.07-.14.1-.06a2.27,2.27,0,0,1,.11.34.49.49,0,0,1,0,.32m-.65,4.12h-.08s-.07-.14-.06-.27l.11-1.21c0-.11,0-.11.06,0l.11,1.21c0,.13,0,.26-.07.27h-.07m0-3.92c0,.1-.06.1-.06,0l-.11-1.21c0-.13,0-.26.06-.27h.15s.08.14.07.27Zm-.29.28c0,.09,0,.2,0,.14l-.35-.62a.49.49,0,0,1,0-.32,2.27,2.27,0,0,1,.11-.34c0-.08.08-.06.1.06Zm-.62.93c0-.08,0-.15,0-.23s0-.22.08-.19l.4.32a.23.23,0,0,1,0,.2l-.4.33s-.08-.06-.08-.19,0-.16,0-.24m.23,1.42.35-.63s.06.05,0,.15l-.2,1.08c0,.11-.07.14-.1.06a3.38,3.38,0,0,1-.11-.34.48.48,0,0,1,0-.32m.9-.48c0-.1,0-.2,0-.15l.35.63a.48.48,0,0,1,0,.32,3.38,3.38,0,0,1-.11.34c0,.08-.08,0-.1-.06Zm.14-.84a.23.23,0,0,1,0-.2l.39-.32s.08.06.09.19v.47c0,.13-.05.22-.09.19Z" fill="#100f0f"/><path d="M263.35,114.23h-8.27l.65,1h.62a7.51,7.51,0,0,0,1.83-.22,7.6,7.6,0,0,1,1.84-.23h6.66a7.6,7.6,0,0,1,1.84.23,7.51,7.51,0,0,0,1.83.22h1.7l.64-1Z" fill="#100f0f"/><path d="M271,108.76h0c-.77,0-1.39,1.94-1.39,4.33s.62,4.33,1.39,4.33h2.81v-8.66Z" fill="#100f0f"/><path d="M275.23,113.09c0,2.39-.62,4.33-1.4,4.33s-1.39-1.94-1.39-4.33.62-4.33,1.39-4.33,1.4,1.94,1.4,4.33" fill="#231f20"/><path d="M274.78,113.09c0,1.63-.42,2.94-.95,2.94s-.95-1.31-.95-2.94.43-2.94.95-2.94.95,1.32.95,2.94" fill="#100f0f"/><path d="M273.83,109.92c-.56,0-1,1.42-1,3.17s.46,3.18,1,3.18,1-1.42,1-3.18-.46-3.17-1-3.17m.65,1.76-.35.62c0,.06-.06,0,0-.14l.2-1.08c0-.12.07-.14.1-.06a2.27,2.27,0,0,1,.11.34.49.49,0,0,1,0,.32m-.65,4.12h-.07c-.05,0-.07-.14-.06-.27l.1-1.21c0-.11.06-.11.07,0l.1,1.21c0,.13,0,.26-.06.27h-.08m0-3.92c0,.1-.06.1-.07,0l-.1-1.21c0-.13,0-.26.06-.27h.15s.07.14.06.27Zm-.29.28c0,.09,0,.2-.05.14l-.35-.62a.67.67,0,0,1,0-.32c0-.13.07-.24.11-.34s.08-.06.11.06Zm-.62.93v-.23c0-.13.05-.22.09-.19l.39.32a.23.23,0,0,1,0,.2l-.39.33s-.08-.06-.09-.19v-.24m.22,1.42.35-.63s.07.05.05.15l-.2,1.08c0,.11-.07.14-.11.06s-.07-.22-.11-.34a.66.66,0,0,1,0-.32m.91-.48c0-.1,0-.2,0-.15l.35.63a.48.48,0,0,1,0,.32,3.38,3.38,0,0,1-.11.34c0,.08-.08,0-.1-.06Zm.14-.84s0-.17,0-.2l.39-.32s.08.06.08.19a1.77,1.77,0,0,1,0,.23,1.93,1.93,0,0,1,0,.24c0,.13,0,.22-.08.19Z" fill="#c1c1c1"/><polygon points="253.96 103.94 252.75 103.94 252.54 104.56 253.58 104.56 253.96 103.94" fill="#b92c00"/><path d="M253.64,103.62v.13a.81.81,0,0,1-.81.81h-.62a1.27,1.27,0,0,1-1-.52.5.5,0,0,1,.26-.77l1.22-.37a.75.75,0,0,1,1,.72" fill="#62d8f4"/><path d="M273,104.35A15.35,15.35,0,0,0,270.56,99a1.76,1.76,0,0,0-1.29-.68c-1.26-.08-3.9-.22-5.92-.22s-4.66.14-5.92.22a1.76,1.76,0,0,0-1.29.68,15.35,15.35,0,0,0-2.48,5.31,4.55,4.55,0,0,0-1.2,3.11c0,1.37.2,4.34.31,6a1.25,1.25,0,0,0,1.25,1.16h18.66a1.25,1.25,0,0,0,1.25-1.16c.11-1.65.31-4.62.31-6a4.55,4.55,0,0,0-1.2-3.11" fill="#fff"/><path d="M269.09,108.1l2.64-1.08a1.25,1.25,0,0,1,1.72,1.36v.09a1.17,1.17,0,0,1-1.07,1c-.77.06-2.14,0-3.05,0a.69.69,0,0,1-.62-.91.7.7,0,0,1,.39-.42" fill="#1a1919"/><path d="M269.86,108.71a.44.44,0,1,1-.44-.43.44.44,0,0,1,.44.43" fill="#ffffe7"/><path d="M271.1,108.65a.51.51,0,1,1-.51-.5.5.5,0,0,1,.51.5" fill="#ffffe7"/><path d="M273.16,108.15a.93.93,0,1,1-.93-.94.93.93,0,0,1,.93.94" fill="#62d8f4"/><path d="M273.08,103.62v.13a.81.81,0,0,0,.81.81h.62a1.27,1.27,0,0,0,1-.52.5.5,0,0,0-.26-.77L274,102.9a.75.75,0,0,0-1,.72" fill="#62d8f4"/><path d="M257.61,108.1,255,107a1.25,1.25,0,0,0-1.72,1.36v.09a1.17,1.17,0,0,0,1.07,1c.77.06,2.14,0,3,0a.69.69,0,0,0,.62-.91.7.7,0,0,0-.39-.42" fill="#1a1919"/><path d="M263.35,108.22h-4a.59.59,0,0,0-.56.75.58.58,0,0,0,.56.42h8a.58.58,0,0,0,.56-.42.59.59,0,0,0-.56-.75Z" fill="#1a1919"/><path d="M256.84,108.71a.44.44,0,1,0,.44-.43.44.44,0,0,0-.44.43" fill="#ffffe7"/><path d="M255.6,108.65a.51.51,0,1,0,.51-.5.5.5,0,0,0-.51.5" fill="#ffffe7"/><path d="M253.54,108.15a.93.93,0,1,0,.93-.94.93.93,0,0,0-.93.94" fill="#62d8f4"/><path d="M270.32,99.67s-4.77-.12-7-.12-7,.12-7,.12c-1.17,1.37-2,4.85-2,4.85s4.4-.13,9-.13,9,.13,9,.13-.88-3.48-2.05-4.85" fill="#1a1919"/><path d="M272.35,111.45h-18a.38.38,0,0,0-.36.43h18.72a.38.38,0,0,0-.36-.43" fill="#1a1919"/><path d="M255.87,113.54h15a1.52,1.52,0,0,0,1-.38h-17a1.57,1.57,0,0,0,1,.38" fill="#1a1919"/><polygon points="254.27 112.36 254.46 112.67 272.24 112.67 272.43 112.36 254.27 112.36" fill="#1a1919"/><path d="M272.66,112a1.21,1.21,0,0,0,0-.14H254a1.21,1.21,0,0,0,0,.14l.23.34h18.16Z" fill="#62d8f4"/><path d="M254.56,112.82a1.58,1.58,0,0,0,.29.34h17a1.38,1.38,0,0,0,.3-.34l.1-.15H254.46Z" fill="#62d8f4"/><path d="M272.23,119.51a0,0,0,0,1-.05,0V108.15a.05.05,0,1,1,.1,0v11.32A0,0,0,0,1,272.23,119.51Z" fill="#ea018a"/><path d="M272.23,119.47l-2.14,2.14a.9.9,0,0,0-.27.63v4.32a.9.9,0,0,0,.9.9h3a.9.9,0,0,0,.9-.9v-4.32a.9.9,0,0,0-.27-.63Z" fill="#ea018a"/><path d="M151.3,156.8a0,0,0,0,1,0,0V145.43a0,0,0,0,1,0,0,0,0,0,0,1,0,0v11.33A0,0,0,0,1,151.3,156.8Z" fill="#ea018a"/><path d="M151.3,156.76l-2.14,2.14a.89.89,0,0,0-.26.63v4.32a.89.89,0,0,0,.89.9h3a.9.9,0,0,0,.9-.9v-4.32a.94.94,0,0,0-.26-.63Z" fill="#ea018a"/><path d="M249.4,157.88a0,0,0,0,1,0,0V146.52a0,0,0,0,1,0-.05,0,0,0,0,1,0,.05v11.32A0,0,0,0,1,249.4,157.88Z" fill="#ea018a"/><path d="M249.4,157.84,247.26,160a.89.89,0,0,0-.26.63v4.33a.89.89,0,0,0,.89.89h3a.89.89,0,0,0,.89-.89v-4.33a.89.89,0,0,0-.26-.63Z" fill="#ea018a"/><path d="M159,25.14l-.07-.85a.23.23,0,0,0-.23-.21h-2a.23.23,0,0,0-.23.23l0,1.21a.22.22,0,0,0,.22.22h1.8a.24.24,0,0,0,.19-.1l.25-.35a.28.28,0,0,0,0-.15" fill="#0188d6"/><polygon points="188.56 35.26 189.02 34.37 189.16 30.4 188.1 29.21 174.83 29.28 167.2 33.6 153.45 33.5 153.05 36 153.25 36.75 155.37 37.27 169.09 37.31 173.01 36.86 184.1 36.44 188.56 35.26" fill="#1a1919"/><path d="M183.81,29.54a.46.46,0,0,1,.36-.17h3.47a.42.42,0,0,1,.36.18c.28.37.8,1.48.79,4.43a10.06,10.06,0,0,1-.68,4.36.83.83,0,0,1-.73.45h-3a.83.83,0,0,1-.73-.45A10.42,10.42,0,0,1,183,34c0-2.95.54-4,.82-4.43" fill="#1a1919"/><path d="M173,30.37a.38.38,0,0,1,.28-.12h3.81a.44.44,0,0,1,.31.13c.3.36,1,1.5,1,4.63,0,2.64-.5,3.82-.83,4.32a.77.77,0,0,1-.64.33h-3.44a.75.75,0,0,1-.63-.34c-.34-.53-.85-1.78-.84-4.47,0-3.13.7-4.18,1-4.49" fill="#1a1919"/><path d="M153.92,30.36a.36.36,0,0,1,.28-.12H158a.37.37,0,0,1,.3.14c.31.36,1,1.5,1,4.63,0,2.64-.49,3.82-.83,4.32a.76.76,0,0,1-.63.33h-3.44a.75.75,0,0,1-.64-.35c-.33-.52-.84-1.77-.83-4.46,0-3.13.7-4.18,1-4.49" fill="#1a1919"/><path d="M186.22,34.53c0,1.72.38,3.13.87,3.13s.89-1.4.9-3.13-.39-3.13-.88-3.13-.89,1.4-.89,3.13" fill="#c1c1c1"/><path d="M175.19,35.26c0,1.73.52,3.13,1.16,3.13s1.18-1.4,1.19-3.12-.52-3.13-1.17-3.14-1.17,1.4-1.18,3.13" fill="#c1c1c1"/><path d="M173.48,36.4l-4.75.32-.49,0-11.93,0a8.46,8.46,0,0,1-.87-.05l-1.93-.22a.54.54,0,0,1-.46-.43l-.24-1.32-.17-.15a.79.79,0,0,1-.24-.49l-.12-1.93.14,0v-.85l.46-.52.21-1a.62.62,0,0,1,.27-.4l1-.62.09-1.12a1.53,1.53,0,0,1,1.19-1.39l3-.68,3.32-5.44a1.75,1.75,0,0,1,1.39-.82l8.37-.39c1.36-.06,2.73-.09,4.1-.07l9.06.09a1,1,0,0,1,.87.57l2.52,5.63a3.63,3.63,0,0,1,.26.85l.66,3.71-.08.13.68.6a16.69,16.69,0,0,1-.08,2.53,16.27,16.27,0,0,1-.3,1.83l-.59.18.13-2.41a4.25,4.25,0,0,0-.16-1.42l-.26-.91a.5.5,0,0,0-.53-.36l-1.07.09a.5.5,0,0,0-.44.38L185.26,35l-6.47.13a.36.36,0,0,1-.37-.36V33.38l-.61-3.21a.43.43,0,0,0-.43-.35l-1.4,0a.36.36,0,0,0-.36.28l-1.54,5.78a.65.65,0,0,1-.59.48" fill="#01aced"/><path d="M163.7,27.94l-.18,3a.25.25,0,0,1-.25.24h-.5a.25.25,0,0,1-.25-.27l.19-3a.24.24,0,0,1,.25-.23h.49a.25.25,0,0,1,.25.26" fill="#1a1919"/><path d="M168.52,27.9l-.15,3a.25.25,0,0,1-.25.24h-.64a.24.24,0,0,1-.25-.26l.15-3a.26.26,0,0,1,.25-.24h.64a.24.24,0,0,1,.25.26" fill="#1a1919"/><path d="M166.86,27.91l-.16,3a.25.25,0,0,1-.25.23h-.54a.24.24,0,0,1-.25-.26l.16-3a.26.26,0,0,1,.25-.24h.54a.25.25,0,0,1,.25.26" fill="#1a1919"/><path d="M165.29,27.93l-.17,3a.26.26,0,0,1-.25.24h-.58a.25.25,0,0,1-.25-.27l.18-3a.23.23,0,0,1,.24-.23H165a.25.25,0,0,1,.25.27" fill="#1a1919"/><path d="M157.86,30.88l.22-2.93a.25.25,0,0,1,.25-.23h.44A.25.25,0,0,1,159,28l-.2,2.93a.25.25,0,0,1-.25.24h-.46a.26.26,0,0,1-.25-.27" fill="#1a1919"/><path d="M160.57,28l-.19,2.94a.25.25,0,0,1-.25.23h-.49a.26.26,0,0,1-.25-.27l.2-2.94a.27.27,0,0,1,.25-.24h.48a.25.25,0,0,1,.25.27" fill="#1a1919"/><path d="M162.16,28l-.19,3a.25.25,0,0,1-.25.23h-.52a.25.25,0,0,1-.25-.26l.2-2.95a.25.25,0,0,1,.25-.24h.51a.25.25,0,0,1,.25.26" fill="#1a1919"/><path d="M170.64,31.31h-1.55a.31.31,0,0,1-.31-.33L169,27.7a1.07,1.07,0,0,1,1-1l1.59,0a.3.3,0,0,1,.2.08l.42.41a.27.27,0,0,1,.09.24l-.26,2.1a.39.39,0,0,1-.08.2l-1.07,1.49a.33.33,0,0,1-.26.13" fill="#1a1919"/><polygon points="188.5 25.94 188.31 26.03 188.87 29.58 189.08 29.78 189.16 29.65 188.5 25.94" fill="#0188d6"/><path d="M185.54,26.45l0,.24a.24.24,0,0,1-.21.27l-.88.07a.23.23,0,0,1-.25-.21l0-.26a.23.23,0,0,1,.22-.26l.87-.06a.25.25,0,0,1,.25.21" fill="#1a1919"/><path d="M182,26.74l0,.25a.23.23,0,0,1-.21.26l-.88.08a.23.23,0,0,1-.25-.21l0-.26a.23.23,0,0,1,.22-.26l.87-.06a.24.24,0,0,1,.25.2" fill="#1a1919"/><path d="M167.65,34.6l.29,1a.28.28,0,0,1-.27.35h-9.84a.27.27,0,0,1-.26-.36l.3-1a.27.27,0,0,1,.26-.19l9.26-.07a.27.27,0,0,1,.26.2" fill="#1a1919"/><path d="M169.42,28.24a1.29,1.29,0,0,0,1.29,1.29A1.28,1.28,0,0,0,172,28.25a1.29,1.29,0,0,0-1.28-1.3,1.31,1.31,0,0,0-1.3,1.29" fill="#ffffe7"/><path d="M154.82,27.25l.37-.4a.24.24,0,0,1,.17-.07h1.49a.65.65,0,0,1,.63.68l0,.27-.05,1.07-.07,1.26,0,.56,0,.5a.26.26,0,0,1-.25.23h-1.27a.23.23,0,0,1-.22-.14l-.69-1.48-.09-2.31a.23.23,0,0,1,.06-.16" fill="#1a1919"/><path d="M156.69,31a.68.68,0,0,1-.68-.69.69.69,0,0,1,.69-.69.71.71,0,0,1,.64.45l0,.56a.68.68,0,0,1-.61.37" fill="#0188d6"/><path d="M169.23,30.34a.69.69,0,1,0,.69-.69.69.69,0,0,0-.69.69" fill="#0188d6"/><path d="M178.5,20.26a.18.18,0,0,1,.18-.17l1,0a.13.13,0,0,1,.11.09l1.47,5.39a.11.11,0,0,1-.09.14l-2.85.49a.23.23,0,0,1-.27-.24Z" fill="#1a1919"/><path d="M182.94,20.07l2,5.18a.13.13,0,0,1-.1.16l-2.43.17a.12.12,0,0,1-.12-.08l-1.65-5.35c0-.06,0-.11.08-.11l2.12-.06a.13.13,0,0,1,.12.09" fill="#1a1919"/><path d="M185.39,19.91a.14.14,0,0,1,.11.07l2.14,5.07a.12.12,0,0,1-.1.16l-1.59.11a.11.11,0,0,1-.12-.07l-2.09-5.18a.09.09,0,0,1,.08-.12Z" fill="#1a1919"/><path d="M177,25.48h0c-1.64-.13-3.28-.18-4.92-.16l-11.9.13-.83,0a.14.14,0,0,1-.12-.22l3.11-5.08a.25.25,0,0,1,.17-.11,36.54,36.54,0,0,1,6.52-.32c4.5,0,7.32.22,8.15.28a.26.26,0,0,1,.23.28l-.26,5a.13.13,0,0,1-.15.13" fill="#1a1919"/><path d="M177.1,19.6a.22.22,0,0,0,.42.1l0-.08a.16.16,0,0,1,.14-.13l.33-.07a14.63,14.63,0,0,1,2.56-.27l4.78-.11-.22-.1h0l0-.15A1.08,1.08,0,0,0,184,18l-4,.19a1.07,1.07,0,0,0-.72.32l-.57.6-1.14.18-.2,0a.34.34,0,0,0-.27.29Zm2.75-.64v-.38a.19.19,0,0,1,.17-.19l3.86-.15a.14.14,0,0,1,.15.12l.09.53-3.5.05-.76,0" fill="#1a1919"/><path d="M165,19.14l.57-.6a1.1,1.1,0,0,1,.72-.33l4-.19a1.1,1.1,0,0,1,1.11.84v0l-1,.05-.08-.49a.16.16,0,0,0-.16-.13l-3.85.16a.19.19,0,0,0-.18.18v.48l-1.62.08.5-.07" fill="#1a1919"/><path d="M162.66,19.6a1.14,1.14,0,0,1,.39-.3l.27,0,1.2-.05-.63.1-.2,0a.36.36,0,0,0-.2.11h-.14a.55.55,0,0,0-.37.18l-.16.16h-.34Z" fill="#1a1919"/><path d="M166.14,19.13l4.27-.2,1-.05h.16l-6,.42.53,0Z" fill="#1a1919"/><path d="M163.69,19.35l.2,0,.63-.1,1.62-.08v.13l-.53,0-2.12.15a.36.36,0,0,1,.2-.11" fill="#1a1919"/><polygon points="171.32 18.89 170.41 18.95 170.41 18.93 171.32 18.89" fill="#1a1919"/><path d="M178.74,25.86l.4-.23h2a.3.3,0,0,0,.3-.3l0-1.07a.31.31,0,0,0-.31-.32h-2.21a.12.12,0,0,0-.13.12l-.05,1.15-.26.32a.2.2,0,0,0,0,.27.21.21,0,0,0,.27.05" fill="#0188d6"/><path d="M168.55,35a.67.67,0,1,0,.67-.66.67.67,0,0,0-.67.66" fill="#1a1919"/><path d="M155.63,35a.67.67,0,0,0,.67.67.67.67,0,0,0,0-1.33.67.67,0,0,0-.67.66" fill="#1a1919"/><path d="M156.32,29.43a1.22,1.22,0,0,1-1.21-1.22,1.21,1.21,0,0,1,2.35-.39l-.05.92a1.21,1.21,0,0,1-1.09.69" fill="#ffffe7"/><polygon points="108.26 60.35 107.63 60.85 98.1 61.95 72.97 64.7 63.42 65.56 62.13 62.57 64.72 57.62 68.37 57.29 107.27 53.16 108.26 60.35" fill="#100f0f"/><path d="M80.16,49l-.69.06q-.5.26-1,.54l-7.84,4.78,1-.09Z" fill="#1a1919"/><path d="M112.61,56l-1.27-.71-.23-2.6a4.62,4.62,0,0,0-1-2l-1.56.14a1.25,1.25,0,0,1-1.28-.82l-1.08-3.07.1-.59a.35.35,0,0,0-.38-.43c-2.16.11-11.52.59-18.77,1a18.61,18.61,0,0,0-7.69,2.15h.09a.14.14,0,0,1,.09.26L72,54.07a1.58,1.58,0,0,1-.72.24l-.59.06C61,56.43,57.76,59.44,57.76,59.44L56.65,61.6l.12,1.24.61-.06-.15,2.42-.34.17,0,.51,6.51-.09-.15-1.68a4.87,4.87,0,0,1,4.43-5.3,4.79,4.79,0,0,1,5.11,4.35L73,64.92l25.13-2.71L98,61a4.86,4.86,0,0,1,4.43-5.3A4.79,4.79,0,0,1,107.55,60l.09,1c4.34-.4,5.22-2.26,5.22-2.26l-.26-.49Z" fill="#ff6400"/><path d="M57.57,59.81a1.12,1.12,0,0,1,.61-.52,14.79,14.79,0,0,1,3.29-.67l.21,0a.54.54,0,0,1,.48.88l-.16.2a2.86,2.86,0,0,1-2,1.06L57.3,61a.19.19,0,0,1-.19-.28Z" fill="#100f0f"/><path d="M59.58,62.85a.22.22,0,0,0-.24-.24l-2,.17,0,.45,2.21-.2Z" fill="#1a1919"/><polygon points="57.32 63.8 57.29 64.17 59.45 63.97 59.49 63.61 57.32 63.8" fill="#1a1919"/><path d="M57.23,65.2l1.25-.11a1.06,1.06,0,0,0,.82-.53l-2,.19Z" fill="#1a1919"/><polygon points="59.56 63.03 57.35 63.23 57.32 63.8 59.49 63.61 59.56 63.03" fill="#eb2c00"/><path d="M57.26,64.75l2-.19a1.1,1.1,0,0,0,.13-.41l0-.18-2.16.2Z" fill="#eb2c00"/><path d="M105.93,47.64,108,50.09a.94.94,0,0,0,.77.32l1.07-.1a41.61,41.61,0,0,0-3.63-3.4l-.25.23a.37.37,0,0,0,0,.5" fill="#100f0f"/><path d="M107.16,50.25a1.38,1.38,0,0,0,1.23.57l1.74-.16,0,0a3.33,3.33,0,0,0-.26-.32l-1.07.1a.94.94,0,0,1-.77-.32l-2.07-2.45a.37.37,0,0,1,0-.5l.25-.23.1-.56a.21.21,0,0,0-.33-.21l-.14.1a1.21,1.21,0,0,0-.31,1.71Z" fill="#eb2c00"/><path d="M107.18,60.23a4.37,4.37,0,1,1-4.74-4,4.36,4.36,0,0,1,4.74,4" fill="#231f20"/><path d="M105.84,60.35a3,3,0,1,1-3.28-2.74,3,3,0,0,1,3.28,2.74" fill="#100f0f"/><path d="M102.54,57.43a3.2,3.2,0,1,0,3.48,2.9,3.21,3.21,0,0,0-3.48-2.9M104.73,59l-1,.73a.11.11,0,0,1-.16-.13l.53-1.14a.22.22,0,0,1,.32-.09,2.64,2.64,0,0,1,.37.31.22.22,0,0,1,0,.32m-1.65,4.33h-.24a.22.22,0,0,1-.22-.25l.22-1.25a.1.1,0,0,1,.2,0l.44,1.19a.23.23,0,0,1-.17.29l-.23,0m-.26-4a.1.1,0,0,1-.2,0l-.44-1.19a.23.23,0,0,1,.17-.29l.23,0h.24a.21.21,0,0,1,.21.25Zm-.87.36a.11.11,0,0,1-.13.16l-1.14-.53a.22.22,0,0,1-.09-.32,2.64,2.64,0,0,1,.31-.37.22.22,0,0,1,.32,0Zm-1.84,1.12a1.93,1.93,0,0,1,0-.24.21.21,0,0,1,.25-.21l1.25.21a.1.1,0,0,1,0,.2l-1.19.44a.23.23,0,0,1-.29-.17l0-.23m.82,1.36,1-.73a.11.11,0,0,1,.16.13l-.53,1.14a.21.21,0,0,1-.32.09,2.64,2.64,0,0,1-.37-.31.21.21,0,0,1,0-.32m2.78-.74a.11.11,0,0,1,.13-.16l1.14.53a.22.22,0,0,1,.09.32,2.64,2.64,0,0,1-.31.37.21.21,0,0,1-.32,0Zm.35-.88a.1.1,0,0,1,0-.2l1.19-.44a.23.23,0,0,1,.29.17l0,.23a1.93,1.93,0,0,1,0,.24.22.22,0,0,1-.25.22Z" fill="#c1c1c1"/><path d="M72.5,63.37a4.37,4.37,0,1,1-4.75-4,4.36,4.36,0,0,1,4.75,4" fill="#231f20"/><path d="M71.11,63.49a3,3,0,1,1-3.23-2.69,3,3,0,0,1,3.23,2.69" fill="#100f0f"/><path d="M67.86,60.57a3.2,3.2,0,1,0,3.48,2.9,3.21,3.21,0,0,0-3.48-2.9M70,62.15l-1,.73c-.08.07-.2,0-.15-.13l.53-1.14a.21.21,0,0,1,.31-.09,2.24,2.24,0,0,1,.38.31.21.21,0,0,1,0,.32m-1.65,4.33h-.23a.22.22,0,0,1-.22-.25L68.16,65a.1.1,0,0,1,.2,0l.44,1.19a.23.23,0,0,1-.17.29l-.24,0m-.25-4a.1.1,0,0,1-.2,0l-.44-1.19a.23.23,0,0,1,.17-.29l.23,0h.24a.21.21,0,0,1,.21.25Zm-.87.37a.1.1,0,0,1-.13.15L66,62.52a.21.21,0,0,1-.08-.32,3.47,3.47,0,0,1,.3-.37.23.23,0,0,1,.33,0ZM65.43,64a1.93,1.93,0,0,1,0-.24.21.21,0,0,1,.25-.21l1.25.21a.1.1,0,0,1,0,.2l-1.18.44a.23.23,0,0,1-.29-.17l0-.23m.82,1.36,1-.73a.11.11,0,0,1,.16.13l-.53,1.14a.21.21,0,0,1-.32.09,3.47,3.47,0,0,1-.37-.3.22.22,0,0,1,0-.33M69,64.63a.11.11,0,0,1,.13-.16L70.3,65a.22.22,0,0,1,.09.32,2.64,2.64,0,0,1-.31.37.22.22,0,0,1-.33,0Zm.35-.88a.1.1,0,0,1,0-.2l1.19-.44a.23.23,0,0,1,.29.17l0,.23a1.93,1.93,0,0,1,0,.24.22.22,0,0,1-.25.22Z" fill="#c1c1c1"/><path d="M101.5,50.29l-1.07-1.77A3.1,3.1,0,0,0,97.81,47l-.06,4.93,3.15-.41a.83.83,0,0,0,.6-1.24" fill="#100f0f"/><polygon points="88.2 47.67 87.04 53.35 89.22 53.06 89.55 47.58 88.2 47.67" fill="#eb2c00"/><polygon points="89.55 47.58 89.22 53.06 97.39 51.99 97.39 47.03 89.55 47.58" fill="#100f0f"/><path d="M97.56,47h-.17v5l.37-.05L97.81,47a2.08,2.08,0,0,0-.25,0" fill="#eb2c00"/><path d="M72.84,54.44a.4.4,0,0,0,.26.74l3.2-.42.07-2.56Z" fill="#eb2c00"/><path d="M88.2,47.67l-1.38.09a15.5,15.5,0,0,0-7.16,2.35L76.37,52.2l-.07,2.56L87,53.35Z" fill="#100f0f"/><path d="M74.44,53.77l1.45-1a.86.86,0,0,1,1.32.6l0,.35a.51.51,0,0,1-.46.58l-2.07.22a.43.43,0,0,1-.28-.78" fill="#c1c1c1"/><path d="M86.12,54.63h0a3.76,3.76,0,0,1-.74.16l-.77.07a.18.18,0,1,0,0,.35L86.92,55a.27.27,0,0,0,.25-.29.28.28,0,0,0-.3-.25h0a3,3,0,0,0-.73.17" fill="#eb2c00"/><path d="M98.42,53.11h0a2.65,2.65,0,0,1-.73.16l-.77.07a.18.18,0,0,0-.16.19.17.17,0,0,0,.19.16l2.28-.2a.27.27,0,0,0,.24-.3.26.26,0,0,0-.29-.24h0a3,3,0,0,0-.73.16" fill="#eb2c00"/><path d="M110.08,51.22h0l-1.74.15a.39.39,0,0,0-.3.21l-.86,1.61a.39.39,0,0,0,.37.57l2.73-.25h0c.23,0,.37-.55.31-1.19s-.29-1.12-.52-1.1" fill="#100f0f"/><path d="M57.9,59.93c-.15.25-.17.52,0,.59s.34-.07.49-.32.17-.53,0-.6-.35.07-.5.33" fill="#62d8f4"/><path d="M59,60.33l.35-.85a.59.59,0,0,1,.41-.34,14.38,14.38,0,0,1,1.61-.27c1-.07-.11,1.48-1.45,1.6l-.77.07a.15.15,0,0,1-.15-.21" fill="#eb2c00"/><path d="M109.63,52.4c0,.35,0,.65-.12.66s-.21-.27-.24-.63,0-.64.13-.65.2.27.23.62" fill="#eb2c00"/><path d="M110.4,52.33c0,.48-.06.87-.23.89s-.34-.36-.39-.83.06-.87.23-.89.35.36.39.83" fill="#eb2c00"/><path d="M186,44h0a43,43,0,0,1-8.75-7.22l-.63-.69a0,0,0,0,1,0-.06s.05,0,.06,0l.64.68a42.28,42.28,0,0,0,8.73,7.21,0,0,0,0,1,0,.06S186.06,44,186,44Z" fill="#ea018a"/><path d="M186,44l.76,3.22a.93.93,0,0,0,.43.61l4,2.49a1,1,0,0,0,1.34-.31l.87-1.4.88-1.41a1,1,0,0,0-.32-1.34l-4-2.49a1,1,0,0,0-.74-.12Z" fill="#ea018a"/><path d="M59.38,77.69s0,0,0,0a42.37,42.37,0,0,1-1.51-11.25v-.93a0,0,0,0,1,0,0,0,0,0,0,1,.05,0v.93a42.49,42.49,0,0,0,1.5,11.22,0,0,0,0,1,0,.06Z" fill="#ea018a"/><path d="M59.38,77.65l-1.64,2.87a1,1,0,0,0-.09.74l1.24,4.55a1,1,0,0,0,1.2.69l1.59-.44,1.6-.43a1,1,0,0,0,.68-1.2l-1.24-4.55a1,1,0,0,0-.46-.59Z" fill="#ea018a"/><path d="M97.24,78.14,89.07,65.46l-9.69-.81a.5.5,0,0,1,0-1L92,62.22a1.24,1.24,0,0,1,1,.33l1.15,1.08s4.53,5.58,8.58,8.23-5.51,6.28-5.51,6.28" fill="#fabe78"/><path d="M104.41,71.22,114,59.12l10.85.58L114.61,73.31l-4.08,5.57s-1.29,4.23-5.12,4.73a6.09,6.09,0,0,1-5.47-2.11s-2.45.61-2.84-.93,1.09-10.2,7.31-9.35" fill="#e5e5e5"/><polygon points="101.11 75.28 101.04 75.22 104.38 71.19 104.45 71.25 101.11 75.28"/><path d="M87,64.06l-1.46-.72-.65-.92a.66.66,0,0,1,.09-.85.64.64,0,0,1,.88,0l.52.48,2.59.57" fill="#fabe78"/><path d="M165,37.16h6.28a.39.39,0,0,1,.37.26.39.39,0,0,1-.25.51l-2.46.61a11.72,11.72,0,0,0-2.73,1.11l-1.95,1a9.52,9.52,0,0,0-1.3.78l-1.73,1.26.74-4.13Z" fill="#e4be78"/><path d="M165.21,39.23l2.58-3.67a.38.38,0,0,0-.09-.55.75.75,0,0,0-.89,0l-.52.42a9.49,9.49,0,0,1-2,1.23l-.59.11a6.57,6.57,0,0,1-1.08.1h-1.09a3.49,3.49,0,0,0-3.35,2.55,1.76,1.76,0,0,0,0,.27L157.85,61l2.64,7.09a5.07,5.07,0,0,0,4.93-5.54l-.32-3.54-2-13.67a6.94,6.94,0,0,1,1.75-5.63,2.53,2.53,0,0,0,.37-.52" fill="#fabe78"/><path d="M137.34,73.23s2.12-4.52,6.56-4.76,12.85.22,12.85.22l2,.65a2.11,2.11,0,0,0,2.58-1.11l.49-1a8.1,8.1,0,0,0-1.54-9,2.12,2.12,0,0,0-3,0l-.76.76s-2.44.4-5.29.58a16.31,16.31,0,0,1-6.46-.9c-2.08-.74-5.3-1.37-7.46.6Z" fill="#e5e5e5"/><path d="M137.69,40.46s1.35,4.44,1.85,7.31a3.81,3.81,0,0,1-1.07,3.35l-.19.19L134,42.47Z" fill="#fabe78"/><g opacity="0.2"><g clip-path="url(#clip-path-6)"><path d="M105,195.49s-8.28.64-16.75.55c-5.81-.06-38.15.53-25.92-2.38,12-2.85,28.65-3.15,33.16-3.13,11,0,12.86,1.79,12.86,1.79l9.69-.27Z" fill="#1a1919"/></g></g><path d="M37.39,126.26c-3.06,1.55.22,11.41,3.06,15.73s8.59,7.85,11.3,7.38l12.14-18.5-22.42-5.06Z" fill="#1a1919"/><polygon points="49.09 131.55 38.77 136.47 41.4 140.23 53.19 134.66 49.09 131.55" fill="#fabe78"/><path d="M43.73,137.38c-1-2.08-4.14-3.63-12,.78-6.56,3.7-10.79,8.41-10.17,11.25-.1-1.45.77-3.73,4.86-6.89,7-5.4,13.92-5.91,14.94-4.19,1.45,2.44-.88,3.11-3.38,4.26a16.91,16.91,0,0,1,3.6-.85,3.22,3.22,0,0,0,2.11-4.36" fill="#fff"/><path d="M38,142.59a10.31,10.31,0,0,0-1.68.86,14,14,0,0,1,1.68-.86" fill="#fabe78"/><path d="M41.4,138.33c-1-1.72-7.94-1.21-14.94,4.19-4.09,3.16-5,5.44-4.86,6.89a2.36,2.36,0,0,0,.89,1.4c2.68,2.11,6.22.73,10.23-4.06a16.08,16.08,0,0,1,3.62-3.3h0a10.31,10.31,0,0,1,1.68-.86c2.5-1.15,4.83-1.82,3.38-4.26" fill="#1a1919"/><path d="M123.81,182.39C108.52,175.24,96,175.12,96,175.12c14.69,8.92,27.81,7.27,27.81,7.27" fill="#1a1919"/><polygon points="108.01 175.33 105 187.62 110.22 189.76 112.94 175.79 108.01 175.33" fill="#fabe78"/><path d="M105.42,193.64a53.16,53.16,0,0,0,13.78-2.83v-1.05c-.42-1.83-2.41-2.1-4.36-1.92a7.85,7.85,0,0,1-4-1.07s.33,1.76-1.83.5c-4.12-2.41-5-1.57-6,1a7.58,7.58,0,0,0,.25,4.78s.54.72,2.2.55" fill="#fff"/><path d="M119.2,190.81a53.16,53.16,0,0,1-13.78,2.83c-1.66.17-2.2-.55-2.2-.55.28.86.88,2.46,1.78,2.4,8.9-.56,14.2-3.19,14.2-3.19Z" fill="#1a1919"/><path d="M113.87,84.18c-2.28,1.32-3.48,1.2-7.91,7.95-3.33,5.07-20.28,13.66-34.89,19.1s-33.68,15-33.68,15,5-.17,10.23,8.34,4.13,14.77,4.13,14.77,7.84-1.15,29.14-18.49,37.2-31,37.2-31C112.31,146.45,96,175.13,96,175.13s12.52.11,27.81,7.26c0,0,9.22-78.75,10.33-85.13,1.3-7.46.68-8.38.68-8.38s-18.67-6-20.95-4.7" fill="#01aced"/><polygon points="135.18 85.94 134.76 87.69 134.82 88.88 132.78 88.24 134.36 87.03 135.18 85.94" fill="#fabe78"/><path d="M114.61,73.31l-.17,1.94-2.31,9.4.07.43s.25-.14.25-.14a23,23,0,0,0,7.74,3.94c5.52,1.74,14.57-1.2,14.57-1.2l.06,1.2,1.07-1.07a1.24,1.24,0,0,0,.36-1l-.72-6.62a3.14,3.14,0,0,1,.44-2l4.89-8.82-1.09-12.22-6.51-.58L114,59.12Z" fill="#e5e5e5"/><path d="M141.54,55.26a10.22,10.22,0,0,0-1.08-1.68,18.08,18.08,0,0,1-2.61-10.87A10.46,10.46,0,1,0,117,41.84a10.28,10.28,0,0,0,.12,1.57,3.26,3.26,0,0,1-.51,2.29c-1.94,2.93-4.48,6.64-6.13,8.62-3,3.59.6,8.54.6,8.54l1.88-2.18a8.76,8.76,0,0,0,3.08,8c4,3.46,10.33-.34,10.33-.34,13.63,4,10.94-9.18,10.94-9.18s6.1,1.08,4.27-3.89" fill="#1a1919"/><g opacity="0.2"><g clip-path="url(#clip-path-7)"><path d="M118,100.15l-.42-.12A5.89,5.89,0,0,1,115,98.51l-3.27,6.82Z" fill="#1a1919"/></g></g><path d="M137.85,44.49l-.71-.55a.6.6,0,0,0-.95.4,4.14,4.14,0,0,0,.88,3.07l.29.36a.83.83,0,0,0,1.26,0" fill="#fabe78"/></svg>