<svg id="Layer_1" data-name="Layer 1" xmlns="http://www.w3.org/2000/svg" viewBox="0 0 320 214"><title>Research Page Assets</title><rect x="0.28" y="-0.11" width="320" height="214" fill="#fff" opacity="0"/><path d="M110.93,78.66a.06.06,0,0,1-.06,0A59.11,59.11,0,0,1,108.77,63V61.73a.06.06,0,0,1,.06-.06.07.07,0,0,1,.07.06V63A58.88,58.88,0,0,0,111,78.58a.07.07,0,0,1,0,.08Z" fill="#ea018a" stroke="#ea018a" stroke-miterlimit="10" stroke-width="0.1"/><path d="M110.93,78.6l-2.28,4a1.38,1.38,0,0,0-.13,1l1.73,6.31a1.35,1.35,0,0,0,1.66,1l2.21-.6,2.21-.61a1.36,1.36,0,0,0,1-1.66l-1.73-6.31a1.33,1.33,0,0,0-.63-.82Z" fill="#ea018a"/><path d="M235.8,46.2h0c-4.72-1.85-6.81-5.06-9-8.45-.62-1-1.25-1.92-1.95-2.86l-.76-1a.06.06,0,0,1,0-.09.07.07,0,0,1,.09,0l.76,1c.7.94,1.34,1.92,2,2.87,2.21,3.38,4.28,6.57,9,8.4a.06.06,0,0,1,0,.08A.07.07,0,0,1,235.8,46.2Z" fill="#ea018a" stroke="#ea018a" stroke-miterlimit="10" stroke-width="0.1"/><path d="M235.8,46.14l2.13,4.06a1.39,1.39,0,0,0,.8.67L245,52.81a1.35,1.35,0,0,0,1.69-.89l.68-2.19.68-2.18a1.36,1.36,0,0,0-.89-1.7l-6.24-1.94a1.31,1.31,0,0,0-1,.09Z" fill="#ea018a"/><path d="M206.45,27.11l-.07-.83a.22.22,0,0,0-.22-.21h-1.94a.22.22,0,0,0-.22.22v1.18a.22.22,0,0,0,.22.22H206a.23.23,0,0,0,.18-.09l.24-.35a.18.18,0,0,0,0-.14" fill="#0188d6"/><polygon points="235.25 36.98 235.7 36.1 235.83 32.23 234.8 31.07 221.87 31.14 214.44 35.36 201.04 35.26 200.65 37.69 200.84 38.43 202.9 38.93 216.28 38.97 220.1 38.53 230.9 38.12 235.25 36.98" fill="#1a1919"/><path d="M230.62,31.4a.46.46,0,0,1,.35-.17h3.39a.43.43,0,0,1,.35.17c.27.37.78,1.45.77,4.32a9.94,9.94,0,0,1-.67,4.25.79.79,0,0,1-.71.44h-2.92a.79.79,0,0,1-.71-.44,9.79,9.79,0,0,1-.64-4.25c0-2.88.52-3.95.79-4.32" fill="#1a1919"/><path d="M220.08,32.21a.36.36,0,0,1,.27-.12h3.72a.4.4,0,0,1,.29.14c.3.34,1,1.46.95,4.51,0,2.57-.49,3.72-.81,4.21a.73.73,0,0,1-.62.32h-3.35a.73.73,0,0,1-.62-.33c-.33-.52-.82-1.73-.81-4.36,0-3,.68-4.07,1-4.37" fill="#1a1919"/><path d="M201.49,32.2a.36.36,0,0,1,.27-.12h3.72a.37.37,0,0,1,.29.14c.3.34,1,1.46.95,4.51,0,2.57-.48,3.72-.81,4.21a.75.75,0,0,1-.62.32h-3.35a.71.71,0,0,1-.62-.34c-.33-.51-.82-1.73-.81-4.35,0-3,.68-4.07,1-4.37" fill="#1a1919"/><path d="M233,36.26c0,1.68.38,3.05.85,3.05s.87-1.36.87-3.05-.37-3-.85-3-.87,1.36-.87,3" fill="#c1c1c1"/><path d="M222.22,37c0,1.69.51,3.05,1.14,3.05s1.14-1.36,1.15-3-.5-3-1.14-3-1.14,1.36-1.15,3" fill="#c1c1c1"/><path d="M220.56,38.09l-4.63.31h-.48l-11.63,0a7.89,7.89,0,0,1-.84-.05l-1.89-.22a.52.52,0,0,1-.44-.42l-.24-1.28-.17-.15a.8.8,0,0,1-.23-.48l-.12-1.87.14-.06V33l.45-.5.2-.94a.58.58,0,0,1,.26-.38l.94-.61.09-1.1a1.51,1.51,0,0,1,1.16-1.35l2.93-.66,3.24-5.3a1.7,1.7,0,0,1,1.36-.8l8.15-.38c1.33-.06,2.66-.09,4-.07l8.84.09a.93.93,0,0,1,.84.55l2.46,5.49a3.63,3.63,0,0,1,.26.83l.64,3.62-.08.12.67.59a16.52,16.52,0,0,1-.09,2.46,17.34,17.34,0,0,1-.29,1.78l-.57.18.13-2.35a4.28,4.28,0,0,0-.16-1.38l-.26-.89a.48.48,0,0,0-.51-.35l-1.05.09a.5.5,0,0,0-.43.37L232,36.72l-6.3.13a.36.36,0,0,1-.36-.36V35.14l-.6-3.13a.42.42,0,0,0-.41-.34l-1.37,0a.35.35,0,0,0-.35.27l-1.5,5.64a.64.64,0,0,1-.57.47" fill="#01aced"/><path d="M211,29.84l-.17,2.89a.25.25,0,0,1-.25.23h-.48a.26.26,0,0,1-.25-.26l.19-2.89a.25.25,0,0,1,.24-.23h.48a.24.24,0,0,1,.24.26" fill="#1a1919"/><path d="M215.73,29.8l-.16,2.92a.23.23,0,0,1-.24.23h-.63a.24.24,0,0,1-.24-.26l.15-2.91a.25.25,0,0,1,.24-.23h.63a.26.26,0,0,1,.25.26" fill="#1a1919"/><path d="M214.1,29.81,214,32.72a.25.25,0,0,1-.25.23h-.53a.24.24,0,0,1-.24-.26l.16-2.9a.25.25,0,0,1,.24-.23h.53a.23.23,0,0,1,.24.25" fill="#1a1919"/><path d="M212.57,29.83l-.16,2.89a.24.24,0,0,1-.24.23h-.57a.24.24,0,0,1-.25-.25l.18-2.9a.23.23,0,0,1,.24-.23h.56a.24.24,0,0,1,.24.26" fill="#1a1919"/><path d="M205.33,32.7l.22-2.85a.24.24,0,0,1,.24-.23h.43a.24.24,0,0,1,.24.26l-.2,2.86A.24.24,0,0,1,206,33h-.44a.24.24,0,0,1-.25-.26" fill="#1a1919"/><path d="M208,29.87l-.19,2.86a.25.25,0,0,1-.25.23h-.47a.26.26,0,0,1-.25-.26l.2-2.86a.25.25,0,0,1,.24-.23h.47a.24.24,0,0,1,.25.26" fill="#1a1919"/><path d="M209.52,29.85l-.18,2.88a.25.25,0,0,1-.24.23h-.51a.24.24,0,0,1-.24-.26l.19-2.88a.23.23,0,0,1,.24-.22h.5a.24.24,0,0,1,.24.26" fill="#1a1919"/><path d="M217.79,33.12h-1.51a.29.29,0,0,1-.3-.32l.17-3.18a1,1,0,0,1,1-1l1.55,0a.28.28,0,0,1,.2.08l.41.4a.29.29,0,0,1,.08.23l-.25,2.05a.32.32,0,0,1-.07.19L218,33a.31.31,0,0,1-.25.13" fill="#1a1919"/><polygon points="235.2 27.89 235.01 27.97 235.56 31.44 235.76 31.63 235.84 31.51 235.2 27.89" fill="#0188d6"/><path d="M232.31,28.38l0,.24a.23.23,0,0,1-.21.26l-.85.07a.23.23,0,0,1-.25-.2l0-.26a.23.23,0,0,1,.21-.25l.85-.06a.25.25,0,0,1,.25.2" fill="#1a1919"/><path d="M228.86,28.67l0,.24a.24.24,0,0,1-.21.26l-.85.07a.23.23,0,0,1-.25-.2l0-.26a.22.22,0,0,1,.21-.25l.85-.05a.23.23,0,0,1,.25.19" fill="#1a1919"/><path d="M214.88,36.33l.27,1a.26.26,0,0,1-.25.33h-9.6a.26.26,0,0,1-.25-.34l.29-.95a.27.27,0,0,1,.26-.18l9-.07a.28.28,0,0,1,.26.2" fill="#1a1919"/><path d="M216.6,30.13a1.26,1.26,0,1,0,1.26-1.25,1.25,1.25,0,0,0-1.26,1.25" fill="#ffffe7"/><path d="M202.37,29.17l.36-.39a.2.2,0,0,1,.16-.07h1.45a.62.62,0,0,1,.62.66v.26l-.06,1.05-.07,1.22,0,.55,0,.48a.23.23,0,0,1-.23.23h-1.25a.23.23,0,0,1-.21-.13l-.67-1.45-.09-2.25a.22.22,0,0,1,.06-.15" fill="#1a1919"/><path d="M204.19,32.81a.67.67,0,0,1-.67-.67.69.69,0,0,1,.68-.67.67.67,0,0,1,.62.43l0,.55a.66.66,0,0,1-.6.36" fill="#0188d6"/><path d="M216.41,32.18a.67.67,0,0,0,1.34,0,.66.66,0,0,0-.66-.67.68.68,0,0,0-.68.67" fill="#0188d6"/><path d="M225.45,22.36a.17.17,0,0,1,.17-.17l1,0a.11.11,0,0,1,.11.08l1.44,5.26a.1.1,0,0,1-.09.13l-2.77.48a.22.22,0,0,1-.27-.23Z" fill="#1a1919"/><path d="M229.78,22.16l1.92,5.05a.12.12,0,0,1-.1.16l-2.36.17a.13.13,0,0,1-.12-.08l-1.6-5.22a.07.07,0,0,1,.07-.1l2.06-.06a.13.13,0,0,1,.13.08" fill="#1a1919"/><path d="M232.16,22a.12.12,0,0,1,.11.07L234.36,27a.12.12,0,0,1-.1.16l-1.55.11a.14.14,0,0,1-.12-.07l-2-5a.08.08,0,0,1,.08-.11Z" fill="#1a1919"/><path d="M224,27.45h0c-1.59-.13-3.19-.19-4.79-.17l-11.6.13-.8,0a.14.14,0,0,1-.13-.21l3-4.95a.25.25,0,0,1,.16-.12,38.85,38.85,0,0,1,6.35-.3c4.4,0,7.14.21,8,.27a.26.26,0,0,1,.23.27l-.26,4.91a.15.15,0,0,1-.15.14" fill="#1a1919"/><path d="M224.08,21.71a.21.21,0,0,0,.2.25.22.22,0,0,0,.22-.16l0-.07a.17.17,0,0,1,.14-.13l.32-.06a14,14,0,0,1,2.5-.27l4.65-.1a.68.68,0,0,0-.21-.1h0l0-.15a1,1,0,0,0-1.08-.82l-3.89.18a1.06,1.06,0,0,0-.7.32l-.56.59c-.37,0-.74.1-1.11.17l-.19,0a.34.34,0,0,0-.27.28Zm2.68-.62v-.38a.19.19,0,0,1,.17-.18l3.76-.15a.15.15,0,0,1,.15.12l.08.51-3.41,0c-.25,0-.5,0-.74,0" fill="#1a1919"/><path d="M212.31,21.26l.56-.58a1,1,0,0,1,.7-.32l3.9-.19a1.06,1.06,0,0,1,1.07.82v0l-1,0-.08-.48a.13.13,0,0,0-.15-.12l-3.76.15a.16.16,0,0,0-.16.18v.46l-1.58.08.49-.07" fill="#1a1919"/><path d="M210,21.71a1.33,1.33,0,0,1,.38-.29l.27,0,1.16-.05-.62.1-.19,0a.35.35,0,0,0-.19.1h-.14a.54.54,0,0,0-.36.18l-.15.15h-.33Z" fill="#1a1919"/><path d="M213.4,21.25l4.16-.19,1,0h.16l-5.82.4.51,0Z" fill="#1a1919"/><path d="M211,21.47l.19,0,.62-.1,1.58-.08v.13l-.51,0-2.07.15a.35.35,0,0,1,.19-.1" fill="#1a1919"/><polygon points="218.45 21.02 217.56 21.08 217.56 21.06 218.45 21.02" fill="#1a1919"/><path d="M225.68,27.81l.39-.22H228a.31.31,0,0,0,.3-.3v-1A.3.3,0,0,0,228,26h-2.15a.12.12,0,0,0-.13.12l-.05,1.12-.25.3a.21.21,0,0,0,.26.32" fill="#0188d6"/><path d="M215.75,36.76a.65.65,0,1,0,.65-.64.63.63,0,0,0-.65.64" fill="#1a1919"/><path d="M203.16,36.72a.65.65,0,0,0,.65.65.64.64,0,0,0,.65-.64.65.65,0,0,0-1.3,0" fill="#1a1919"/><path d="M203.83,31.29a1.2,1.2,0,0,1-1.18-1.19,1.18,1.18,0,0,1,2.29-.38l-.05.9a1.18,1.18,0,0,1-1.06.67" fill="#ffffe7"/><polygon points="156.99 61.43 156.37 61.91 147.09 62.99 122.6 65.66 113.29 66.51 112.03 63.59 114.55 58.77 118.11 58.45 156.02 54.42 156.99 61.43" fill="#100f0f"/><path d="M129.6,50.35l-.67.06c-.32.17-.63.35-.93.53l-7.65,4.66,1-.09Z" fill="#1a1919"/><path d="M161.23,57.17,160,56.48l-.23-2.54a4.56,4.56,0,0,0-1-2l-1.52.14a1.2,1.2,0,0,1-1.24-.8l-1.06-3,.1-.58a.36.36,0,0,0-.37-.42c-2.11.11-11.23.58-18.29,1a18.16,18.16,0,0,0-7.5,2.1H129a.14.14,0,0,1,.09.26l-7.48,4.65a1.57,1.57,0,0,1-.7.23l-.58.06c-9.46,2-12.58,4.94-12.58,4.94l-1.08,2.11.11,1.2.6-.05-.15,2.35-.33.17,0,.5,6.34-.1-.15-1.62a4.73,4.73,0,0,1,4.32-5.17,4.67,4.67,0,0,1,5,4.24l.16,1.71,24.49-2.64L147,62a4.74,4.74,0,0,1,4.32-5.17,4.67,4.67,0,0,1,5,4.24l.09,1c4.22-.39,5.09-2.2,5.09-2.2l-.26-.49Z" fill="#ff6400"/><path d="M107.59,60.9a1,1,0,0,1,.59-.5,14.09,14.09,0,0,1,3.21-.66l.2,0a.53.53,0,0,1,.47.86l-.16.2a2.8,2.8,0,0,1-1.91,1l-2.66.24a.19.19,0,0,1-.19-.27Z" fill="#100f0f"/><path d="M109.54,63.86a.22.22,0,0,0-.23-.24l-1.91.18,0,.43,2.14-.19Z" fill="#1a1919"/><polygon points="107.34 64.79 107.32 65.15 109.42 64.96 109.46 64.6 107.34 64.79" fill="#1a1919"/><path d="M107.25,66.15l1.22-.11a1,1,0,0,0,.8-.51l-2,.18Z" fill="#1a1919"/><polygon points="109.52 64.04 107.38 64.23 107.34 64.79 109.46 64.6 109.52 64.04" fill="#eb2c00"/><path d="M107.28,65.71l2-.18a1,1,0,0,0,.13-.4l0-.17-2.1.19Z" fill="#eb2c00"/><path d="M154.72,49l2,2.39a.88.88,0,0,0,.76.31l1-.09A41.14,41.14,0,0,0,155,48.33l-.24.23a.34.34,0,0,0,0,.47" fill="#100f0f"/><path d="M155.92,51.58a1.29,1.29,0,0,0,1.2.55l1.69-.15,0,0c-.08-.1-.16-.21-.26-.32l-1,.09a.88.88,0,0,1-.76-.31l-2-2.39a.34.34,0,0,1,0-.47l.24-.23.1-.55a.21.21,0,0,0-.32-.2l-.14.09a1.19,1.19,0,0,0-.3,1.67Z" fill="#eb2c00"/><path d="M155.94,61.31a4.26,4.26,0,1,1-4.63-3.86,4.26,4.26,0,0,1,4.63,3.86" fill="#231f20"/><path d="M154.63,61.42a2.94,2.94,0,1,1-3.2-2.66,3,3,0,0,1,3.2,2.66" fill="#c1c1c1"/><path d="M151.42,58.58a3.12,3.12,0,1,0,3.39,2.83,3.11,3.11,0,0,0-3.39-2.83m2.13,1.54-1,.71a.1.1,0,0,1-.15-.12l.52-1.12a.2.2,0,0,1,.3-.09,2.6,2.6,0,0,1,.36.3.21.21,0,0,1,0,.32m-1.61,4.22h-.23a.22.22,0,0,1-.21-.25l.2-1.21a.11.11,0,0,1,.21,0l.42,1.16a.22.22,0,0,1-.17.28l-.22,0m-.25-3.85a.1.1,0,0,1-.2,0l-.42-1.16a.21.21,0,0,1,.16-.28l.23,0h.23a.22.22,0,0,1,.21.25Zm-.85.36a.1.1,0,0,1-.13.15l-1.11-.52a.21.21,0,0,1-.09-.31,2.6,2.6,0,0,1,.3-.36.22.22,0,0,1,.32,0Zm-1.79,1.08a1.77,1.77,0,0,1,0-.23.21.21,0,0,1,.24-.21l1.22.21a.1.1,0,0,1,0,.2l-1.15.42a.2.2,0,0,1-.28-.16.91.91,0,0,1,0-.23m.8,1.33,1-.71a.1.1,0,0,1,.16.12l-.52,1.12a.21.21,0,0,1-.31.09,2.11,2.11,0,0,1-.36-.31.2.2,0,0,1,0-.31m2.7-.73a.1.1,0,0,1,.13-.15l1.12.52a.21.21,0,0,1,.08.31,2.6,2.6,0,0,1-.3.36.22.22,0,0,1-.32,0Zm.35-.85a.1.1,0,0,1,0-.2l1.16-.42a.21.21,0,0,1,.28.16l0,.23c0,.08,0,.15,0,.23a.22.22,0,0,1-.25.21Z" fill="#c1c1c1"/><path d="M122.14,64.37a4.26,4.26,0,1,1-4.63-3.86,4.26,4.26,0,0,1,4.63,3.86" fill="#231f20"/><path d="M120.78,64.49a2.9,2.9,0,1,1-3.14-2.62,2.89,2.89,0,0,1,3.14,2.62" fill="#c1c1c1"/><path d="M117.61,61.64a3.12,3.12,0,1,0,3.4,2.83,3.12,3.12,0,0,0-3.4-2.83m2.13,1.54-1,.72a.1.1,0,0,1-.15-.13l.51-1.12a.22.22,0,0,1,.31-.09,2.67,2.67,0,0,1,.36.31.19.19,0,0,1,0,.31m-1.6,4.22h-.23a.21.21,0,0,1-.21-.24l.2-1.22a.1.1,0,0,1,.2,0l.43,1.16a.22.22,0,0,1-.17.28l-.22,0m-.25-3.85a.1.1,0,0,1-.2,0l-.42-1.16a.21.21,0,0,1,.16-.28l.23,0h.23a.22.22,0,0,1,.21.25Zm-.85.36a.1.1,0,0,1-.13.15l-1.11-.52a.21.21,0,0,1-.09-.31,2.6,2.6,0,0,1,.3-.36.22.22,0,0,1,.32,0ZM115.25,65a1.77,1.77,0,0,1,0-.23.21.21,0,0,1,.24-.21l1.22.21a.1.1,0,0,1,0,.2l-1.15.42a.2.2,0,0,1-.28-.16.91.91,0,0,1,0-.23m.8,1.33,1-.71a.1.1,0,0,1,.16.12l-.52,1.12a.21.21,0,0,1-.31.09,2.6,2.6,0,0,1-.36-.3.21.21,0,0,1,0-.32m2.7-.73a.1.1,0,0,1,.13-.15L120,66a.21.21,0,0,1,.08.31,2.6,2.6,0,0,1-.3.36.22.22,0,0,1-.32,0Zm.35-.85a.1.1,0,0,1,0-.2l1.16-.42a.21.21,0,0,1,.28.16l0,.23c0,.08,0,.15,0,.23a.22.22,0,0,1-.25.21Z" fill="#c1c1c1"/><path d="M150.4,51.63l-1-1.73a3,3,0,0,0-2.55-1.47l-.07,4.8,3.08-.4a.8.8,0,0,0,.58-1.2" fill="#100f0f"/><polygon points="137.44 49.07 136.31 54.6 138.44 54.32 138.76 48.98 137.44 49.07" fill="#eb2c00"/><polygon points="138.76 48.98 138.44 54.32 146.39 53.28 146.39 48.45 138.76 48.98" fill="#100f0f"/><path d="M146.56,48.44h-.17v4.83l.35-.05.07-4.8h-.25" fill="#eb2c00"/><path d="M122.47,55.67a.39.39,0,0,0,.26.71l3.11-.4.07-2.5Z" fill="#eb2c00"/><path d="M137.44,49.07l-1.34.09a15,15,0,0,0-7,2.29l-3.21,2-.07,2.5,10.47-1.38Z" fill="#100f0f"/><path d="M124,55l1.41-.94a.84.84,0,0,1,1.29.59l0,.34a.5.5,0,0,1-.45.56l-2,.22A.42.42,0,0,1,124,55" fill="#c1c1c1"/><path d="M135.41,55.85h0a2.9,2.9,0,0,1-.71.15l-.76.07a.18.18,0,0,0-.15.19.17.17,0,0,0,.18.15l2.22-.2a.26.26,0,1,0,0-.52h0a2.92,2.92,0,0,0-.71.16" fill="#eb2c00"/><path d="M147.4,54.37h0a2.92,2.92,0,0,1-.71.16l-.76.07a.17.17,0,0,0,0,.34l2.23-.2a.28.28,0,0,0,.24-.29.28.28,0,0,0-.29-.24h0a3.47,3.47,0,0,0-.71.16" fill="#eb2c00"/><path d="M158.77,52.52h0l-1.69.16a.36.36,0,0,0-.3.2l-.83,1.57a.37.37,0,0,0,.36.55l2.66-.24h0c.22,0,.36-.54.3-1.16s-.28-1.1-.5-1.08" fill="#100f0f"/><path d="M107.91,61c-.15.24-.17.5,0,.58s.34-.08.49-.32.17-.51,0-.58-.33.07-.48.32" fill="#62d8f4"/><path d="M108.94,61.41l.34-.83a.56.56,0,0,1,.41-.33,10.23,10.23,0,0,1,1.56-.26c.93-.08-.1,1.43-1.41,1.55l-.75.07a.15.15,0,0,1-.15-.2" fill="#eb2c00"/><path d="M158.33,53.68c0,.34,0,.63-.12.64s-.2-.26-.23-.61,0-.63.12-.64.2.26.23.61" fill="#eb2c00"/><path d="M159.07,53.61c.05.46,0,.85-.22.87s-.33-.35-.38-.81.06-.85.23-.87.33.35.37.81" fill="#eb2c00"/><polygon points="215.2 29.55 206.03 29.61 205.75 32.97 215.09 32.95 215.2 29.55" fill="#1a1919"/><path d="M146.25,78.77l-8-12.36-9.45-.79a.49.49,0,0,1,0-1l12.35-1.39a1.23,1.23,0,0,1,1,.32l1.12,1.06s4.41,5.43,8.36,8-5.37,6.12-5.37,6.12" fill="#fabe78"/><path d="M163.18,74.05l-4,5.44s-1.27,4.12-5,4.6a5.91,5.91,0,0,1-5.33-2s-2.38.6-2.77-.91,1.07-9.94,7.13-9.11l9.31-11.79Z" fill="#e5e5e5"/><line x1="153.24" y1="72.02" x2="149.99" y2="75.94" fill="none" stroke="#000" stroke-miterlimit="10" stroke-width="0.09"/><path d="M212.25,38.83h6.13a.37.37,0,0,1,.35.24.37.37,0,0,1-.25.5l-2.39.6a10.94,10.94,0,0,0-2.66,1.08l-1.9.94a9,9,0,0,0-1.26.76l-1.69,1.23.72-4Z" fill="#e4be78"/><path d="M212.5,40.85,215,37.27a.38.38,0,0,0-.09-.54.74.74,0,0,0-.87,0l-.5.4a8.72,8.72,0,0,1-2,1.2l-.57.12a7.44,7.44,0,0,1-1.05.09h-1.07a3.36,3.36,0,0,0-3.25,2.48,1,1,0,0,0,0,.26l-.26,20.78L207.9,69a4.94,4.94,0,0,0,4.8-5.4l-.31-3.45-2-13.33a6.73,6.73,0,0,1,1.7-5.48,2.76,2.76,0,0,0,.37-.5" fill="#fabe78"/><path d="M185.33,74s2.07-4.4,6.4-4.64,12.52.21,12.52.21l1.9.64a2.07,2.07,0,0,0,2.53-1.09l.47-1a7.89,7.89,0,0,0-1.5-8.8,2.06,2.06,0,0,0-2.92,0L204,60s-2.37.39-5.15.57a15.87,15.87,0,0,1-6.3-.88c-2-.72-5.16-1.33-7.27.58Z" fill="#e5e5e5"/><path d="M185.67,42s1.32,4.33,1.8,7.12a3.7,3.7,0,0,1-1,3.27l-.18.19L182.09,44Z" fill="#fabe78"/><path d="M153.81,193.14s-8.06.62-16.32.53c-5.67,0-37.18.52-25.26-2.31,11.71-2.79,27.92-3.08,32.32-3.06,10.67,0,12.53,1.75,12.53,1.75l9.44-.26Z" fill="#1a1919"/><path d="M87.92,125.66c-3,1.52.21,11.12,3,15.33s8.37,7.65,11,7.2l11.83-18-21.86-4.92Z" fill="#1a1919"/><polygon points="99.32 130.82 89.26 135.62 91.83 139.28 103.32 133.85 99.32 130.82" fill="#fabe78"/><path d="M94.1,136.5c-1-2-4-3.53-11.66.76-6.39,3.61-10.52,8.2-9.92,11-.09-1.42.76-3.64,4.75-6.72,6.82-5.26,13.56-5.76,14.56-4.08,1.41,2.38-.86,3-3.3,4.15a16.55,16.55,0,0,1,3.51-.83,3.13,3.13,0,0,0,2.06-4.25" fill="#fff"/><path d="M88.53,141.58a9.06,9.06,0,0,0-1.63.84,14.77,14.77,0,0,1,1.63-.84" fill="#fabe78"/><path d="M91.83,137.43c-1-1.68-7.74-1.18-14.56,4.08-4,3.08-4.84,5.3-4.75,6.72a2.38,2.38,0,0,0,.88,1.36c2.61,2.06,6.06.71,10-4a15.69,15.69,0,0,1,3.53-3.21,9.06,9.06,0,0,1,1.63-.84c2.44-1.12,4.71-1.77,3.3-4.15" fill="#1a1919"/><path d="M172.15,180.37c-14.9-7-27.11-7.08-27.11-7.08,14.32,8.69,27.11,7.08,27.11,7.08" fill="#1a1919"/><polygon points="156.75 173.49 153.81 185.46 158.9 187.55 161.55 173.94 156.75 173.49" fill="#fabe78"/><path d="M154.23,191.33a51.88,51.88,0,0,0,13.43-2.76v-1c-.41-1.78-2.35-2-4.25-1.87a7.62,7.62,0,0,1-3.93-1s.32,1.71-1.79.48c-4-2.34-4.88-1.52-5.84,1a7.38,7.38,0,0,0,.23,4.65s.54.71,2.16.54" fill="#fff"/><path d="M167.66,188.57a51.4,51.4,0,0,1-13.43,2.76c-1.62.17-2.16-.53-2.16-.53.28.83.86,2.4,1.74,2.34,8.68-.55,13.85-3.11,13.85-3.11Z" fill="#1a1919"/><path d="M162.46,84.65c-2.22,1.29-3.39,1.17-7.71,7.75-3.25,4.94-19.77,13.31-34,18.62s-32.82,14.64-32.82,14.64,4.9-.16,10,8.13,4,14.4,4,14.4,7.64-1.13,28.39-18S166.57,100,166.57,100C160.94,145.34,145,173.29,145,173.29s12.21.11,27.11,7.08c0,0,9-76.75,10.06-83,1.27-7.27.67-8.17.67-8.17s-18.2-5.86-20.42-4.58" fill="#01aced"/><polygon points="183.22 86.37 182.82 88.07 182.88 89.23 180.89 88.61 182.43 87.43 183.22 86.37" fill="#fabe78"/><path d="M163.18,74.05,163,75.94l-2.26,9.17.07.42s.25-.14.25-.14a22.15,22.15,0,0,0,7.54,3.84c5.38,1.7,14.2-1.16,14.2-1.16l.06,1.16,1-1a1.21,1.21,0,0,0,.35-1l-.7-6.44a3.08,3.08,0,0,1,.43-1.92l4.77-8.6-1.07-11.9-6.34-.56-18.81,2.45Z" fill="#e5e5e5"/><path d="M136.24,65.05l-1.42-.71-.63-.9a.62.62,0,0,1,.08-.82.62.62,0,0,1,.86,0l.5.48,2.53.55" fill="#fabe78"/><path d="M189.43,56.46a10.83,10.83,0,0,0-1.06-1.63,17.71,17.71,0,0,1-2.54-10.6,11,11,0,0,0,0-1.81,10.2,10.2,0,0,0-20.35,1,11,11,0,0,0,.11,1.52,3.17,3.17,0,0,1-.49,2.24c-1.89,2.85-4.36,6.47-6,8.4-2.92,3.5.58,8.33.58,8.33l1.83-2.13a8.57,8.57,0,0,0,3,7.79c3.91,3.37,10.08-.34,10.08-.34,13.28,3.92,10.65-9,10.65-9s6,1,4.17-3.79" fill="#1a1919"/><path d="M166.45,100.22l-.42-.12a5.73,5.73,0,0,1-2.51-1.48l-3.18,6.64Z" fill="#1a1919"/><path d="M185.83,46l-.69-.53a.58.58,0,0,0-.93.38,4,4,0,0,0,.86,3l.28.35a.82.82,0,0,0,1.23,0" fill="#fabe78"/></svg>