<svg width="506" height="82" viewBox="0 0 506 82" fill="none" xmlns="http://www.w3.org/2000/svg">
<path d="M17.712 2.72C24.528 2.72 29.04 6.32 29.04 12.464C29.04 15.584 27.648 17.696 26.208 18.896C29.472 20.336 31.824 22.784 31.824 27.44C31.824 34.256 26.352 38 20.016 38H3.216V2.72H17.712ZM16.464 10.544H12.336V16.592H16.464C18.384 16.592 19.776 15.488 19.776 13.568C19.776 11.648 18.384 10.544 16.464 10.544ZM18.864 23.456H12.336V30.176H18.864C21.024 30.176 22.56 28.976 22.56 26.816C22.56 24.656 21.024 23.456 18.864 23.456ZM64.8274 2.72V25.136C64.8274 33.2 59.6914 38.624 50.2354 38.624C40.7794 38.624 35.6434 33.2 35.6434 25.136V2.72H44.7634V24.512C44.7634 27.92 46.6834 30.32 50.2354 30.32C53.7874 30.32 55.7074 27.92 55.7074 24.512V2.72H64.8274ZM102.25 2.72L89.5778 23.936V38H80.4578V24.08L67.6898 2.72H78.2978L84.9698 14.912L91.6418 2.72H102.25ZM129.627 2.096V38H120.795V16.16L116.475 18.224L112.971 10.016L129.435 2.096H129.627ZM147.197 2.096C155.261 2.096 160.253 9.2 160.253 20.336C160.253 31.52 155.261 38.624 147.197 38.624C139.133 38.624 134.141 31.52 134.141 20.336C134.141 9.2 139.133 2.096 147.197 2.096ZM147.197 9.824C144.221 9.824 143.117 14.048 143.117 20.336C143.117 26.672 144.221 30.896 147.197 30.896C150.173 30.896 151.277 26.672 151.277 20.336C151.277 14.048 150.173 9.824 147.197 9.824ZM175.978 2.096C184.042 2.096 189.034 9.2 189.034 20.336C189.034 31.52 184.042 38.624 175.978 38.624C167.914 38.624 162.922 31.52 162.922 20.336C162.922 9.2 167.914 2.096 175.978 2.096ZM175.978 9.824C173.002 9.824 171.898 14.048 171.898 20.336C171.898 26.672 173.002 30.896 175.978 30.896C178.954 30.896 180.058 26.672 180.058 20.336C180.058 14.048 178.954 9.824 175.978 9.824ZM200.583 2.144C205.815 2.144 209.751 6.032 209.751 11.264C209.751 16.496 205.815 20.288 200.583 20.288C195.255 20.288 191.367 16.496 191.367 11.264C191.367 6.032 195.255 2.144 200.583 2.144ZM226.935 2.72L204.471 38H197.127L219.591 2.72H226.935ZM200.583 8.288C198.999 8.288 197.895 9.536 197.895 11.264C197.895 12.896 198.999 14.144 200.583 14.144C202.071 14.144 203.223 12.896 203.223 11.264C203.223 9.536 202.071 8.288 200.583 8.288ZM223.431 20.48C228.663 20.48 232.599 24.368 232.599 29.6C232.599 34.832 228.663 38.624 223.431 38.624C218.103 38.624 214.215 34.832 214.215 29.6C214.215 24.368 218.103 20.48 223.431 20.48ZM223.431 26.624C221.847 26.624 220.743 27.872 220.743 29.6C220.743 31.232 221.847 32.48 223.431 32.48C224.919 32.48 226.071 31.232 226.071 29.6C226.071 27.872 224.919 26.624 223.431 26.624ZM264.092 2.096C274.556 2.096 282.476 9.824 282.476 20.432C282.476 30.944 274.556 38.624 264.092 38.624C253.58 38.624 245.708 30.944 245.708 20.432C245.708 9.824 253.58 2.096 264.092 2.096ZM264.092 10.4C258.716 10.4 254.972 14.528 254.972 20.432C254.972 26.24 258.716 30.32 264.092 30.32C269.468 30.32 273.212 26.24 273.212 20.432C273.212 14.528 269.468 10.4 264.092 10.4ZM287.424 2.096L307.344 19.376V2.72H316.464V38.624H316.272L296.352 21.344V38H287.232V2.096H287.424ZM332.023 2.72V29.984H345.752V38H322.904V2.72H332.023ZM358.555 2.72V38H349.435V2.72H358.555ZM365.189 2.096L385.109 19.376V2.72H394.229V38.624H394.037L374.117 21.344V38H364.997V2.096H365.189ZM424.141 2.72V11.024H409.789V16.304H422.125V23.936H409.789V29.696H424.525V38H400.669V2.72H424.141ZM434.849 28.208C437.825 28.208 439.984 30.368 439.984 33.344C439.984 36.32 437.825 38.48 434.849 38.48C431.873 38.48 429.713 36.32 429.713 33.344C429.713 30.368 431.873 28.208 434.849 28.208Z" fill="#51B9EB"/>
<path d="M33.36 44.72V80H24.24V66.08H12.336V80H3.216V44.72H12.336V57.776H24.24V44.72H33.36ZM54.0458 44.096L71.7098 80H61.4858L59.8538 75.872H48.0458L46.4138 80H36.1898L53.8538 44.096H54.0458ZM53.9498 60.8L50.7338 69.056H57.1658L53.9498 60.8ZM99.0578 44.72L81.9698 80.48H81.7778L64.6898 44.72H74.8178L81.8738 62.192L88.9298 44.72H99.0578ZM125.36 44.72V53.024H111.008V58.304H123.344V65.936H111.008V71.696H125.744V80H101.888V44.72H125.36ZM150.477 44.72V80H141.357V44.72H150.477ZM184.951 44.72V52.736H174.199V80H165.079V52.736H154.327V44.72H184.951ZM210.957 44.72C223.149 44.72 230.493 51.2 230.493 62.336C230.493 73.472 223.245 80 210.957 80H199.341V44.72H210.957ZM210.669 53.072H208.461V71.696H210.669C217.725 71.696 221.229 68.24 221.229 62.384C221.229 56.48 217.725 53.072 210.669 53.072ZM258.719 44.72V53.024H244.367V58.304H256.703V65.936H244.367V71.696H259.103V80H235.247V44.72H258.719ZM273.289 44.72V71.984H287.017V80H264.169V44.72H273.289ZM299.82 44.72V80H290.7V44.72H299.82ZM337.042 44.72L319.954 80.48H319.762L302.674 44.72H312.802L319.858 62.192L326.914 44.72H337.042ZM363.344 44.72V53.024H348.992V58.304H361.328V65.936H348.992V71.696H363.728V80H339.872V44.72H363.344ZM398.602 80H387.994L381.226 68.288H377.914V80H368.794V44.72H384.25C390.826 44.72 396.826 49.04 396.826 56.528C396.826 61.328 394.33 64.832 390.826 66.704L398.602 80ZM377.914 52.544V60.464H383.386C385.834 60.464 387.562 59.024 387.562 56.528C387.562 54.032 385.834 52.544 383.386 52.544H377.914ZM425.36 44.72V53.024H411.008V58.304H423.344V65.936H411.008V71.696H425.744V80H401.888V44.72H425.36ZM442.426 44.72C454.618 44.72 461.962 51.2 461.962 62.336C461.962 73.472 454.714 80 442.426 80H430.81V44.72H442.426ZM442.138 53.072H439.93V71.696H442.138C449.194 71.696 452.698 68.24 452.698 62.384C452.698 56.48 449.194 53.072 442.138 53.072ZM469.114 70.208C472.09 70.208 474.25 72.368 474.25 75.344C474.25 78.32 472.09 80.48 469.114 80.48C466.138 80.48 463.978 78.32 463.978 75.344C463.978 72.368 466.138 70.208 469.114 70.208Z" fill="white"/>
<mask id="mask0_7268_5454" style="mask-type:alpha" maskUnits="userSpaceOnUse" x="482" y="50" width="24" height="24">
<rect x="482" y="50" width="24" height="24" fill="#D9D9D9"/>
</mask>
</svg>
