<svg width="506" height="85" viewBox="0 0 506 85" fill="none" xmlns="http://www.w3.org/2000/svg">
<path d="M140.891 10.335C146.429 10.335 150.095 13.26 150.095 18.252C150.095 20.787 148.964 22.503 147.794 23.478C150.446 24.648 152.357 26.637 152.357 30.42C152.357 35.958 147.911 39 142.763 39H129.113V10.335H140.891ZM139.877 16.692H136.523V21.606H139.877C141.437 21.606 142.568 20.709 142.568 19.149C142.568 17.589 141.437 16.692 139.877 16.692ZM141.827 27.183H136.523V32.643H141.827C143.582 32.643 144.83 31.668 144.83 29.913C144.83 28.158 143.582 27.183 141.827 27.183ZM179.172 10.335V28.548C179.172 35.1 174.999 39.507 167.316 39.507C159.633 39.507 155.46 35.1 155.46 28.548V10.335H162.87V28.041C162.87 30.81 164.43 32.76 167.316 32.76C170.202 32.76 171.762 30.81 171.762 28.041V10.335H179.172ZM209.578 10.335L199.282 27.573V39H191.872V27.69L181.498 10.335H190.117L195.538 20.241L200.959 10.335H209.578ZM234.396 9.828C242.898 9.828 249.333 16.107 249.333 24.726C249.333 33.267 242.898 39.507 234.396 39.507C225.855 39.507 219.459 33.267 219.459 24.726C219.459 16.107 225.855 9.828 234.396 9.828ZM234.396 16.575C230.028 16.575 226.986 19.929 226.986 24.726C226.986 29.445 230.028 32.76 234.396 32.76C238.764 32.76 241.806 29.445 241.806 24.726C241.806 19.929 238.764 16.575 234.396 16.575ZM253.353 9.828L269.538 23.868V10.335H276.948V39.507H276.792L260.607 25.467V39H253.197V9.828H253.353ZM289.59 10.335V32.487H300.744V39H282.18V10.335H289.59ZM311.147 10.335V39H303.737V10.335H311.147ZM316.538 9.828L332.723 23.868V10.335H340.133V39.507H339.977L323.792 25.467V39H316.382V9.828H316.538ZM364.436 10.335V17.082H352.775V21.372H362.798V27.573H352.775V32.253H364.748V39H345.365V10.335H364.436ZM373.136 31.044C375.554 31.044 377.309 32.799 377.309 35.217C377.309 37.635 375.554 39.39 373.136 39.39C370.718 39.39 368.963 37.635 368.963 35.217C368.963 32.799 370.718 31.044 373.136 31.044Z" fill="#51B9EB"/>
<path d="M71.605 45.335V74H64.195V62.69H54.523V74H47.113V45.335H54.523V55.943H64.195V45.335H71.605ZM88.4122 44.828L102.764 74H94.4572L93.1312 70.646H83.5372L82.2112 74H73.9042L88.2562 44.828H88.4122ZM88.3342 58.4L85.7212 65.108H90.9472L88.3342 58.4ZM124.984 45.335L111.1 74.39H110.944L97.0604 45.335H105.289L111.022 59.531L116.755 45.335H124.984ZM146.355 45.335V52.082H134.694V56.372H144.717V62.573H134.694V67.253H146.667V74H127.284V45.335H146.355ZM166.762 45.335V74H159.352V45.335H166.762ZM194.773 45.335V51.848H186.037V74H178.627V51.848H169.891V45.335H194.773ZM215.903 45.335C225.809 45.335 231.776 50.6 231.776 59.648C231.776 68.696 225.887 74 215.903 74H206.465V45.335H215.903ZM215.669 52.121H213.875V67.253H215.669C221.402 67.253 224.249 64.445 224.249 59.687C224.249 54.89 221.402 52.121 215.669 52.121ZM254.709 45.335V52.082H243.048V56.372H253.071V62.573H243.048V67.253H255.021V74H235.638V45.335H254.709ZM266.547 45.335V67.487H277.701V74H259.137V45.335H266.547ZM288.104 45.335V74H280.694V45.335H288.104ZM318.347 45.335L304.463 74.39H304.307L290.423 45.335H298.652L304.385 59.531L310.118 45.335H318.347ZM339.717 45.335V52.082H328.056V56.372H338.079V62.573H328.056V67.253H340.029V74H320.646V45.335H339.717ZM368.364 74H359.745L354.246 64.484H351.555V74H344.145V45.335H356.703C362.046 45.335 366.921 48.845 366.921 54.929C366.921 58.829 364.893 61.676 362.046 63.197L368.364 74ZM351.555 51.692V58.127H356.001C357.99 58.127 359.394 56.957 359.394 54.929C359.394 52.901 357.99 51.692 356.001 51.692H351.555ZM390.105 45.335V52.082H378.444V56.372H388.467V62.573H378.444V67.253H390.417V74H371.034V45.335H390.105ZM403.971 45.335C413.877 45.335 419.844 50.6 419.844 59.648C419.844 68.696 413.955 74 403.971 74H394.533V45.335H403.971ZM403.737 52.121H401.943V67.253H403.737C409.47 67.253 412.317 64.445 412.317 59.687C412.317 54.89 409.47 52.121 403.737 52.121ZM425.655 66.044C428.073 66.044 429.828 67.799 429.828 70.217C429.828 72.635 428.073 74.39 425.655 74.39C423.237 74.39 421.482 72.635 421.482 70.217C421.482 67.799 423.237 66.044 425.655 66.044Z" fill="white"/>
</svg>
