<svg width="506" height="76" viewBox="0 0 506 76" fill="none" xmlns="http://www.w3.org/2000/svg">
<path d="M16.236 2.66C22.484 2.66 26.62 5.96 26.62 11.592C26.62 14.452 25.344 16.388 24.024 17.488C27.016 18.808 29.172 21.052 29.172 25.32C29.172 31.568 24.156 35 18.348 35H2.948V2.66H16.236ZM15.092 9.832H11.308V15.376H15.092C16.852 15.376 18.128 14.364 18.128 12.604C18.128 10.844 16.852 9.832 15.092 9.832ZM17.292 21.668H11.308V27.828H17.292C19.272 27.828 20.68 26.728 20.68 24.748C20.68 22.768 19.272 21.668 17.292 21.668ZM59.4251 2.66V23.208C59.4251 30.6 54.7171 35.572 46.0491 35.572C37.3811 35.572 32.6731 30.6 32.6731 23.208V2.66H41.0331V22.636C41.0331 25.76 42.7931 27.96 46.0491 27.96C49.3051 27.96 51.0651 25.76 51.0651 22.636V2.66H59.4251ZM93.7289 2.66L82.1129 22.108V35H73.7529V22.24L62.0489 2.66H71.7729L77.8889 13.836L84.0049 2.66H93.7289ZM118.825 2.088V35H110.729V14.98L106.769 16.872L103.557 9.348L118.649 2.088H118.825ZM134.93 2.088C142.322 2.088 146.898 8.6 146.898 18.808C146.898 29.06 142.322 35.572 134.93 35.572C127.538 35.572 122.962 29.06 122.962 18.808C122.962 8.6 127.538 2.088 134.93 2.088ZM134.93 9.172C132.202 9.172 131.19 13.044 131.19 18.808C131.19 24.616 132.202 28.488 134.93 28.488C137.658 28.488 138.67 24.616 138.67 18.808C138.67 13.044 137.658 9.172 134.93 9.172ZM161.313 2.088C168.705 2.088 173.281 8.6 173.281 18.808C173.281 29.06 168.705 35.572 161.313 35.572C153.921 35.572 149.345 29.06 149.345 18.808C149.345 8.6 153.921 2.088 161.313 2.088ZM161.313 9.172C158.585 9.172 157.573 13.044 157.573 18.808C157.573 24.616 158.585 28.488 161.313 28.488C164.041 28.488 165.053 24.616 165.053 18.808C165.053 13.044 164.041 9.172 161.313 9.172ZM183.868 2.132C188.664 2.132 192.272 5.696 192.272 10.492C192.272 15.288 188.664 18.764 183.868 18.764C178.984 18.764 175.42 15.288 175.42 10.492C175.42 5.696 178.984 2.132 183.868 2.132ZM208.024 2.66L187.432 35H180.7L201.292 2.66H208.024ZM183.868 7.764C182.416 7.764 181.404 8.908 181.404 10.492C181.404 11.988 182.416 13.132 183.868 13.132C185.232 13.132 186.288 11.988 186.288 10.492C186.288 8.908 185.232 7.764 183.868 7.764ZM204.812 18.94C209.608 18.94 213.216 22.504 213.216 27.3C213.216 32.096 209.608 35.572 204.812 35.572C199.928 35.572 196.364 32.096 196.364 27.3C196.364 22.504 199.928 18.94 204.812 18.94ZM204.812 24.572C203.36 24.572 202.348 25.716 202.348 27.3C202.348 28.796 203.36 29.94 204.812 29.94C206.176 29.94 207.232 28.796 207.232 27.3C207.232 25.716 206.176 24.572 204.812 24.572ZM242.084 2.088C251.676 2.088 258.936 9.172 258.936 18.896C258.936 28.532 251.676 35.572 242.084 35.572C232.448 35.572 225.232 28.532 225.232 18.896C225.232 9.172 232.448 2.088 242.084 2.088ZM242.084 9.7C237.156 9.7 233.724 13.484 233.724 18.896C233.724 24.22 237.156 27.96 242.084 27.96C247.012 27.96 250.444 24.22 250.444 18.896C250.444 13.484 247.012 9.7 242.084 9.7ZM263.472 2.088L281.732 17.928V2.66H290.092V35.572H289.916L271.656 19.732V35H263.296V2.088H263.472ZM304.355 2.66V27.652H316.939V35H295.995V2.66H304.355ZM328.675 2.66V35H320.315V2.66H328.675ZM334.757 2.088L353.017 17.928V2.66H361.377V35.572H361.201L342.941 19.732V35H334.581V2.088H334.757ZM388.796 2.66V10.272H375.64V15.112H386.948V22.108H375.64V27.388H389.148V35H367.28V2.66H388.796ZM398.611 26.024C401.339 26.024 403.319 28.004 403.319 30.732C403.319 33.46 401.339 35.44 398.611 35.44C395.883 35.44 393.903 33.46 393.903 30.732C393.903 28.004 395.883 26.024 398.611 26.024Z" fill="#51B9EB"/>
<path d="M30.58 41.66V74H22.22V61.24H11.308V74H2.948V41.66H11.308V53.628H22.22V41.66H30.58ZM49.5419 41.088L65.7339 74H56.3619L54.8659 70.216H44.0419L42.5459 74H33.1739L49.3659 41.088H49.5419ZM49.4539 56.4L46.5059 63.968H52.4019L49.4539 56.4ZM90.8029 41.66L75.1389 74.44H74.9629L59.2989 41.66H68.5829L75.0509 57.676L81.5189 41.66H90.8029ZM114.913 41.66V49.272H101.757V54.112H113.065V61.108H101.757V66.388H115.265V74H93.3972V41.66H114.913ZM137.937 41.66V74H129.577V41.66H137.937ZM169.539 41.66V49.008H159.683V74H151.323V49.008H141.467V41.66H169.539ZM193.377 41.66C204.553 41.66 211.285 47.6 211.285 57.808C211.285 68.016 204.641 74 193.377 74H182.729V41.66H193.377ZM193.113 49.316H191.089V66.388H193.113C199.581 66.388 202.793 63.22 202.793 57.852C202.793 52.44 199.581 49.316 193.113 49.316ZM237.159 41.66V49.272H224.003V54.112H235.311V61.108H224.003V66.388H237.511V74H215.643V41.66H237.159ZM250.515 41.66V66.652H263.099V74H242.155V41.66H250.515ZM274.835 41.66V74H266.475V41.66H274.835ZM308.955 41.66L293.291 74.44H293.115L277.451 41.66H286.735L293.203 57.676L299.671 41.66H308.955ZM333.066 41.66V49.272H319.91V54.112H331.218V61.108H319.91V66.388H333.418V74H311.55V41.66H333.066ZM365.385 74H355.661L349.457 63.264H346.421V74H338.061V41.66H352.229C358.257 41.66 363.757 45.62 363.757 52.484C363.757 56.884 361.469 60.096 358.257 61.812L365.385 74ZM346.421 48.832V56.092H351.437C353.681 56.092 355.265 54.772 355.265 52.484C355.265 50.196 353.681 48.832 351.437 48.832H346.421ZM389.913 41.66V49.272H376.757V54.112H388.065V61.108H376.757V66.388H390.265V74H368.397V41.66H389.913ZM405.557 41.66C416.733 41.66 423.465 47.6 423.465 57.808C423.465 68.016 416.821 74 405.557 74H394.909V41.66H405.557ZM405.293 49.316H403.269V66.388H405.293C411.761 66.388 414.973 63.22 414.973 57.852C414.973 52.44 411.761 49.316 405.293 49.316ZM430.021 65.024C432.749 65.024 434.729 67.004 434.729 69.732C434.729 72.46 432.749 74.44 430.021 74.44C427.293 74.44 425.313 72.46 425.313 69.732C425.313 67.004 427.293 65.024 430.021 65.024Z" fill="white"/>
<mask id="mask0_7246_6642" style="mask-type:alpha" maskUnits="userSpaceOnUse" x="442" y="45" width="24" height="25">
<rect x="442" y="45.5" width="24" height="24" fill="#D9D9D9"/>
</mask>
</svg>
