<svg xmlns="http://www.w3.org/2000/svg" xmlns:xlink="http://www.w3.org/1999/xlink" width="192" height="80" viewBox="0 0 192 80"><defs><style>.a,.ae,.f,.g,.j{fill:none;}.b{fill:#131213;opacity:0.48;}.c{clip-path:url(#a);}.d{fill:url(#b);}.e,.v,.x{fill:#fff;}.f{stroke:#5e5e5e;stroke-width:11.211px;}.g{stroke:#000;stroke-width:11.117px;}.h{fill:#151515;}.i{clip-path:url(#m);}.j,.v{stroke:#282827;stroke-width:0.222px;}.ae,.j,.v{stroke-miterlimit:10;}.k{clip-path:url(#n);}.l{clip-path:url(#o);}.m{fill:#7e7e7e;}.n{clip-path:url(#p);}.o{clip-path:url(#q);}.p{clip-path:url(#r);}.q{clip-path:url(#s);}.r{fill:#3b3b3b;}.s{fill:#b1b1b1;}.t{fill:#d1d3d4;}.u{fill:#939598;}.w{fill:#d4d6eb;}.x{opacity:0.1;}.y{clip-path:url(#t);}.z{clip-path:url(#u);}.aa{clip-path:url(#v);}.ab{clip-path:url(#w);}.ac{clip-path:url(#x);}.ad{fill:#11403a;}.ae{stroke:#231f20;stroke-linecap:round;stroke-width:1.636px;}.af{fill:#12d288;}</style><clipPath id="a"><rect class="a" width="161.747" height="37.617"/></clipPath><linearGradient id="b" x1="0.5" y1="1" x2="0.5" gradientUnits="objectBoundingBox"><stop offset="0.124" stop-color="#282828"/><stop offset="0.483"/><stop offset="0.854" stop-color="#1e1e1e"/></linearGradient><clipPath id="m"><path class="a" d="M702.184,322.076c1.679,0,3.041,4.084,3.041,9.122s-1.362,9.122-3.041,9.122h-5.347V322.076Z" transform="translate(-696.837 -322.076)"/></clipPath><clipPath id="n"><path class="a" d="M702.041,322.076c1.679,0,3.041,4.084,3.041,9.122s-1.362,9.122-3.041,9.122h1.1c1.679,0,3.04-4.084,3.04-9.122s-1.361-9.122-3.04-9.122Z" transform="translate(-702.041 -322.076)"/></clipPath><clipPath id="o"><path class="a" d="M699.926,322.076c1.679,0,3.041,4.084,3.041,9.122s-1.362,9.122-3.041,9.122h1.1c1.679,0,3.04-4.084,3.04-9.122s-1.361-9.122-3.04-9.122Z" transform="translate(-699.926 -322.076)"/></clipPath><clipPath id="p"><path class="a" d="M811.689,322.076c3.674,0,6.653,4.084,6.653,9.122,0,4.987-2.918,9.039-6.541,9.12l-.931,0a9.582,9.582,0,0,0,6.256-9.329C817.126,324.066,811.689,322.076,811.689,322.076Z" transform="translate(-810.87 -322.076)"/></clipPath><clipPath id="q"><path class="a" d="M805.049,322.076c3.674,0,6.652,4.084,6.652,9.122s-2.978,9.122-6.652,9.122h-1.784V322.076Z" transform="translate(-803.265 -322.076)"/></clipPath><clipPath id="r"><path class="a" d="M808.182,322.076c3.674,0,6.652,4.084,6.652,9.122s-2.978,9.122-6.652,9.122h.911c3.674,0,6.653-4.084,6.653-9.122s-2.978-9.122-6.653-9.122Z" transform="translate(-808.182 -322.076)"/></clipPath><clipPath id="s"><path class="a" d="M806.43,322.076c3.674,0,6.652,4.084,6.652,9.122s-2.978,9.122-6.652,9.122h.912c3.674,0,6.652-4.084,6.652-9.122s-2.978-9.122-6.652-9.122Z" transform="translate(-806.43 -322.076)"/></clipPath><clipPath id="t"><path class="a" d="M720.512,341.575l12.991.764,1.684-8.851-9.309-.016a.694.694,0,0,1-.613-.748c.174-1.961.526-7.557-1.6-11.152a15.629,15.629,0,0,0-12.577,8.1Z" transform="translate(-711.088 -321.571)"/></clipPath><clipPath id="u"><path class="a" d="M741.345,322.076c3.674,0,6.653,4.084,6.653,9.122,0,4.987-2.918,9.039-6.541,9.12l-.931,0a9.582,9.582,0,0,0,6.256-9.329C746.782,324.066,741.345,322.076,741.345,322.076Z" transform="translate(-740.526 -322.076)"/></clipPath><clipPath id="v"><path class="a" d="M734.705,322.076c3.674,0,6.652,4.084,6.652,9.122s-2.978,9.122-6.652,9.122h-1.784V322.076Z" transform="translate(-732.921 -322.076)"/></clipPath><clipPath id="w"><path class="a" d="M737.838,322.076c3.674,0,6.652,4.084,6.652,9.122s-2.978,9.122-6.652,9.122h.911c3.674,0,6.653-4.084,6.653-9.122s-2.978-9.122-6.653-9.122Z" transform="translate(-737.838 -322.076)"/></clipPath><clipPath id="x"><path class="a" d="M736.086,322.076c3.674,0,6.652,4.084,6.652,9.122s-2.978,9.122-6.652,9.122H737c3.674,0,6.652-4.084,6.652-9.122s-2.978-9.122-6.652-9.122Z" transform="translate(-736.086 -322.076)"/></clipPath></defs><g transform="translate(-501.697 -274.914)"><path class="b" d="M694.307,420.341H532.56L501.7,411.4l154.4-.028Z" transform="translate(0 -65.427)"/><g transform="translate(532.56 317.297)"><g class="c"><rect width="156.104" height="35.581" transform="translate(2.854 2.663)"/><rect class="d" width="18.803" height="25.935" transform="translate(5.286 5.095)"/><rect class="d" width="18.804" height="25.935" transform="translate(27.331 5.095)"/><rect class="d" width="18.803" height="25.935" transform="translate(49.377 5.095)"/><rect class="d" width="18.804" height="25.935" transform="translate(71.422 5.095)"/><rect class="d" width="18.803" height="25.935" transform="translate(93.468 5.095)"/><rect class="d" width="18.802" height="25.935" transform="translate(115.514 5.095)"/><rect class="d" width="18.802" height="25.935" transform="translate(137.559 5.095)"/><path class="e" d="M622.874,372.376h4.45v18.4H624.5V374.777h-2.024Z" transform="translate(-590.47 -364.028)"/><path class="e" d="M835.157,352.187a4.116,4.116,0,0,1,2.107.61,5.779,5.779,0,0,1,1.8,1.7,8.973,8.973,0,0,1,1.347,3,15.6,15.6,0,0,1,.464,3.911,15.085,15.085,0,0,1-.472,3.868,9.126,9.126,0,0,1-1.339,3,5.63,5.63,0,0,1-1.8,1.7,3.986,3.986,0,0,1-4.237,0,5.622,5.622,0,0,1-1.8-1.7,9.2,9.2,0,0,1-1.339-3,15.064,15.064,0,0,1-.471-3.868,15.463,15.463,0,0,1,.465-3.911,8.922,8.922,0,0,1,1.345-3,5.95,5.95,0,0,1,1.81-1.7A4.1,4.1,0,0,1,835.157,352.187Zm-.014,2.762a2.374,2.374,0,0,0-2.049,1.392,8.527,8.527,0,0,0-.8,2.251,13.124,13.124,0,0,0-.006,5.572,8.243,8.243,0,0,0,.81,2.264,2.207,2.207,0,0,0,4.112,0,8.564,8.564,0,0,0,.8-2.258,13.031,13.031,0,0,0,0-5.578,8.565,8.565,0,0,0-.8-2.251A2.4,2.4,0,0,0,835.143,354.949Z" transform="translate(-689.699 -354.348)"/><path class="e" d="M584.513,372.892a4.13,4.13,0,0,1,2.107.609,5.787,5.787,0,0,1,1.8,1.7,8.951,8.951,0,0,1,1.347,3,15.579,15.579,0,0,1,.464,3.911,15.107,15.107,0,0,1-.471,3.869,9.135,9.135,0,0,1-1.339,3,5.629,5.629,0,0,1-1.8,1.7,3.988,3.988,0,0,1-4.238,0,5.621,5.621,0,0,1-1.8-1.7,9.223,9.223,0,0,1-1.339-3,15.067,15.067,0,0,1-.471-3.869,15.479,15.479,0,0,1,.465-3.911,8.917,8.917,0,0,1,1.345-3,5.954,5.954,0,0,1,1.81-1.7A4.111,4.111,0,0,1,584.513,372.892Zm-.013,2.761a2.374,2.374,0,0,0-2.049,1.393,8.53,8.53,0,0,0-.8,2.251,13.132,13.132,0,0,0-.006,5.573,8.211,8.211,0,0,0,.81,2.263,2.206,2.206,0,0,0,4.112,0,8.552,8.552,0,0,0,.8-2.256,13.041,13.041,0,0,0,0-5.579,8.568,8.568,0,0,0-.8-2.251A2.4,2.4,0,0,0,584.5,375.653Z" transform="translate(-569.52 -364.276)"/><rect class="d" width="18.803" height="25.935" transform="translate(49.377 5.095)"/><path class="e" d="M669.219,372.892a4.129,4.129,0,0,1,2.107.609,5.787,5.787,0,0,1,1.8,1.7,8.949,8.949,0,0,1,1.346,3,15.576,15.576,0,0,1,.464,3.911,15.113,15.113,0,0,1-.471,3.869,9.139,9.139,0,0,1-1.339,3,5.63,5.63,0,0,1-1.8,1.7,3.987,3.987,0,0,1-4.238,0,5.621,5.621,0,0,1-1.8-1.7,9.226,9.226,0,0,1-1.339-3,15.061,15.061,0,0,1-.471-3.869,15.482,15.482,0,0,1,.465-3.911,8.92,8.92,0,0,1,1.345-3,5.955,5.955,0,0,1,1.81-1.7A4.111,4.111,0,0,1,669.219,372.892Zm-.013,2.761a2.374,2.374,0,0,0-2.049,1.393,8.534,8.534,0,0,0-.8,2.251,13.133,13.133,0,0,0-.006,5.573,8.211,8.211,0,0,0,.81,2.263,2.206,2.206,0,0,0,4.112,0,8.554,8.554,0,0,0,.8-2.256,13.038,13.038,0,0,0,0-5.579,8.57,8.57,0,0,0-.8-2.251A2.4,2.4,0,0,0,669.206,375.653Z" transform="translate(-610.135 -364.276)"/><rect class="d" width="18.803" height="25.935" transform="translate(71.423 5.095)"/><path class="e" d="M711.572,372.892a4.13,4.13,0,0,1,2.107.609,5.788,5.788,0,0,1,1.8,1.7,8.95,8.95,0,0,1,1.347,3,15.576,15.576,0,0,1,.464,3.911,15.113,15.113,0,0,1-.471,3.869,9.139,9.139,0,0,1-1.339,3,5.63,5.63,0,0,1-1.8,1.7,3.987,3.987,0,0,1-4.238,0,5.62,5.62,0,0,1-1.8-1.7,9.225,9.225,0,0,1-1.339-3,15.061,15.061,0,0,1-.471-3.869,15.479,15.479,0,0,1,.465-3.911,8.927,8.927,0,0,1,1.345-3,5.954,5.954,0,0,1,1.81-1.7A4.111,4.111,0,0,1,711.572,372.892Zm-.013,2.761a2.375,2.375,0,0,0-2.049,1.393,8.53,8.53,0,0,0-.8,2.251,13.129,13.129,0,0,0-.006,5.573,8.215,8.215,0,0,0,.81,2.263,2.206,2.206,0,0,0,4.112,0,8.537,8.537,0,0,0,.8-2.256,13.043,13.043,0,0,0,0-5.579,8.552,8.552,0,0,0-.8-2.251A2.4,2.4,0,0,0,711.559,375.653Z" transform="translate(-630.443 -364.276)"/><rect class="d" width="18.803" height="25.935" transform="translate(93.468 5.095)"/><path class="e" d="M753.926,372.892a4.128,4.128,0,0,1,2.107.609,5.776,5.776,0,0,1,1.8,1.7,8.964,8.964,0,0,1,1.347,3,15.605,15.605,0,0,1,.463,3.911,15.086,15.086,0,0,1-.471,3.869,9.138,9.138,0,0,1-1.339,3,5.623,5.623,0,0,1-1.8,1.7,3.987,3.987,0,0,1-4.237,0,5.617,5.617,0,0,1-1.8-1.7,9.214,9.214,0,0,1-1.339-3,15.067,15.067,0,0,1-.471-3.869,15.454,15.454,0,0,1,.465-3.911,8.919,8.919,0,0,1,1.345-3,5.948,5.948,0,0,1,1.81-1.7A4.111,4.111,0,0,1,753.926,372.892Zm-.013,2.761a2.375,2.375,0,0,0-2.049,1.393,8.528,8.528,0,0,0-.8,2.251,13.106,13.106,0,0,0-.006,5.573,8.227,8.227,0,0,0,.81,2.263,2.206,2.206,0,0,0,4.112,0,8.535,8.535,0,0,0,.8-2.256,13.02,13.02,0,0,0,0-5.579,8.551,8.551,0,0,0-.8-2.251A2.4,2.4,0,0,0,753.912,375.653Z" transform="translate(-650.751 -364.276)"/><rect class="d" width="18.803" height="25.935" transform="translate(115.514 5.095)"/><path class="e" d="M796.278,372.892a4.13,4.13,0,0,1,2.107.609,5.787,5.787,0,0,1,1.8,1.7,8.949,8.949,0,0,1,1.347,3A15.576,15.576,0,0,1,802,382.12a15.107,15.107,0,0,1-.471,3.869,9.135,9.135,0,0,1-1.339,3,5.628,5.628,0,0,1-1.8,1.7,3.987,3.987,0,0,1-4.237,0,5.62,5.62,0,0,1-1.8-1.7,9.225,9.225,0,0,1-1.339-3,15.067,15.067,0,0,1-.471-3.869,15.479,15.479,0,0,1,.465-3.911,8.925,8.925,0,0,1,1.345-3,5.953,5.953,0,0,1,1.81-1.7A4.111,4.111,0,0,1,796.278,372.892Zm-.013,2.761a2.375,2.375,0,0,0-2.049,1.393,8.534,8.534,0,0,0-.8,2.251,13.132,13.132,0,0,0-.006,5.573,8.209,8.209,0,0,0,.811,2.263,2.206,2.206,0,0,0,4.112,0,8.554,8.554,0,0,0,.8-2.256,13.041,13.041,0,0,0,0-5.579,8.57,8.57,0,0,0-.8-2.251A2.4,2.4,0,0,0,796.265,375.653Z" transform="translate(-671.058 -364.276)"/><path class="e" d="M836.167,402.272h4.451v18.4h-2.829V404.673h-2.024Z" transform="translate(-692.74 -378.363)"/><path class="f" d="M721.643,392.777H553.706v-44.09H721.643" transform="translate(-557.498 -352.67)"/><rect class="g" width="156.104" height="32.177" transform="translate(2.854 2.663)"/></g></g><g transform="translate(556.769 274.914)"><g transform="translate(40.934)"><rect width="11.594" height="14.658" transform="translate(2.029 21.365)"/><g transform="translate(30.617 23.483)"><path class="h" d="M756.15,321.539c1.679,0,3.041,4.084,3.041,9.122s-1.362,9.122-3.041,9.122H750.8V321.539Z" transform="translate(-747.762 -320.752)"/><g transform="translate(3.897 0.262)"><g transform="translate(0 0.629)"><line class="h" x1="3.845" y1="1.597"/></g><g transform="translate(3.757)"><line class="h" y1="1.597" x2="3.792"/><line class="h" y1="1.474" x2="3.5" transform="translate(0 1.457)"/><line class="h" y1="1.351" x2="3.209" transform="translate(0 2.914)"/><line class="h" y1="1.228" x2="2.917" transform="translate(0 4.371)"/><line class="h" y1="1.106" x2="2.625" transform="translate(0 5.829)"/><line class="h" y1="0.983" x2="2.334" transform="translate(0 7.286)"/><line class="h" y1="0.86" x2="2.042" transform="translate(0 8.743)"/><line class="h" y1="0.737" x2="1.75" transform="translate(0 10.2)"/><line class="h" y1="0.614" x2="1.459" transform="translate(0 11.657)"/><line class="h" y1="0.491" x2="1.167" transform="translate(0 13.114)"/><line class="h" y1="0.369" x2="0.875" transform="translate(0 14.572)"/><line class="h" y1="0.246" x2="0.583" transform="translate(0 16.029)"/><line class="h" y1="0.123" x2="0.292" transform="translate(0 17.486)"/><path class="h" d="M759.666,356.924" transform="translate(-759.666 -337.981)"/></g></g><ellipse class="h" cx="3.041" cy="9.122" rx="3.041" ry="9.122" transform="translate(0 0.786)"/><path class="h" d="M756.007,321.722c1.679,0,3.04,4.041,3.04,9.027s-1.361,9.026-3.04,9.026h1.1c1.679,0,3.04-4.041,3.04-9.026s-1.361-9.027-3.04-9.027Z" transform="translate(-750.257 -320.84)"/><g transform="translate(5.976 1.258)"><line class="h" x1="3.845" y1="1.597"/></g><path class="h" d="M753.892,321.722c1.679,0,3.04,4.041,3.04,9.027s-1.361,9.026-3.04,9.026h1.1c1.679,0,3.04-4.041,3.04-9.026s-1.361-9.027-3.04-9.027Z" transform="translate(-749.243 -320.84)"/><g transform="translate(5.714)"><line class="h" y1="1.597" x2="3.845"/></g><g transform="translate(0.811 3.326)"><path class="h" d="M746.519,333.265a16.382,16.382,0,0,0,.725,5.175,5.474,5.474,0,0,0,.32.741c.31.59.671.929,1.056.929.408,0,.788-.378,1.111-1.036h0a6.254,6.254,0,0,0,.333-.839,16.882,16.882,0,0,0,.657-4.97c0-.535-.019-1.057-.055-1.557-.028-.393-.066-.771-.114-1.136-.291-2.214-.93-3.827-1.693-4.109a.694.694,0,0,0-.239-.044.718.718,0,0,0-.141.015c-.778.168-1.439,1.716-1.758,3.9-.052.356-.094.728-.126,1.114C746.545,332.025,746.519,332.634,746.519,333.265Z" transform="translate(-746.519 -326.418)"/><g transform="translate(0.249 0.826)"><path class="h" d="M748.767,345.872c.273.521.592.819.931.819.36,0,.695-.334.979-.913L749.832,342c-.049-.22-.15-.22-.2,0Z" transform="translate(-747.846 -334.636)"/><path class="h" d="M750.96,328.054l.01,4.574c0,.269.081.459.159.38l1.324-1.333C752.2,329.724,751.633,328.3,750.96,328.054Z" transform="translate(-748.897 -328.029)"/><path class="h" d="M751.4,338.983l.824,3.707a14.877,14.877,0,0,0,.579-4.381c0-.472-.017-.931-.048-1.372l-1.295,1.431A.921.921,0,0,0,751.4,338.983Z" transform="translate(-749.095 -332.288)"/><path class="h" d="M747,338.095a14.434,14.434,0,0,0,.64,4.561l.883-3.978a.923.923,0,0,0-.059-.614l-1.4-1.575C747.02,337,747,337.539,747,338.095Z" transform="translate(-746.997 -332.073)"/><path class="h" d="M747.34,331.44l1.38,1.421c.079.081.159-.11.16-.379l.009-4.476C748.2,328.153,747.621,329.517,747.34,331.44Z" transform="translate(-747.162 -328.005)"/></g></g></g><g transform="translate(2.527 24.549)"><path class="h" d="M702.184,322.076c1.679,0,3.041,4.084,3.041,9.122s-1.362,9.122-3.041,9.122h-5.347V322.076Z" transform="translate(-693.796 -322.076)"/><g transform="translate(3.041 0)"><g class="i"><g transform="translate(0.856 -0.804)"><g transform="translate(0 0.629)"><line class="j" x1="3.845" y1="1.597"/><line class="j" x1="3.845" y1="1.597" transform="translate(0 1.367)"/><line class="j" x1="3.845" y1="1.597" transform="translate(0 2.733)"/><line class="j" x1="3.845" y1="1.597" transform="translate(0 4.1)"/><line class="j" x1="3.845" y1="1.597" transform="translate(0 5.466)"/><line class="j" x1="3.845" y1="1.597" transform="translate(0 6.833)"/><line class="j" x1="3.845" y1="1.597" transform="translate(0 8.199)"/><line class="j" x1="3.845" y1="1.597" transform="translate(0 9.566)"/><line class="j" x1="3.845" y1="1.597" transform="translate(0 10.933)"/><line class="j" x1="3.845" y1="1.597" transform="translate(0 12.299)"/><line class="j" x1="3.845" y1="1.597" transform="translate(0 13.666)"/><line class="j" x1="3.845" y1="1.597" transform="translate(0 15.032)"/><line class="j" x1="3.845" y1="1.597" transform="translate(0 16.399)"/><line class="j" x1="3.845" y1="1.597" transform="translate(0 17.766)"/></g><g transform="translate(3.757)"><line class="j" y1="1.597" x2="3.792"/><line class="j" y1="1.597" x2="3.792" transform="translate(0 1.334)"/><line class="j" y1="1.597" x2="3.792" transform="translate(0 2.669)"/><line class="j" y1="1.597" x2="3.792" transform="translate(0 4.003)"/><line class="j" y1="1.597" x2="3.792" transform="translate(0 5.337)"/><line class="j" y1="1.597" x2="3.792" transform="translate(0 6.672)"/><line class="j" y1="1.597" x2="3.792" transform="translate(0 8.006)"/><line class="j" y1="1.597" x2="3.792" transform="translate(0 9.34)"/><line class="j" y1="1.597" x2="3.792" transform="translate(0 10.675)"/><line class="j" y1="1.597" x2="3.792" transform="translate(0 12.009)"/><line class="j" y1="1.597" x2="3.792" transform="translate(0 13.343)"/><line class="j" y1="1.597" x2="3.792" transform="translate(0 14.677)"/><line class="j" y1="1.597" x2="3.792" transform="translate(0 16.012)"/><line class="j" y1="1.597" x2="3.792" transform="translate(0 17.346)"/></g></g></g></g><ellipse class="h" cx="3.041" cy="9.122" rx="3.041" ry="9.122"/><path class="h" d="M702.041,322.259c1.679,0,3.041,4.041,3.041,9.027s-1.362,9.026-3.041,9.026h1.1c1.679,0,3.04-4.041,3.04-9.026s-1.361-9.027-3.04-9.027Z" transform="translate(-696.291 -322.164)"/><g transform="translate(5.75 0)"><g class="k"><g transform="translate(0.227 0.192)"><line class="j" x1="3.845" y1="1.597"/><line class="j" x1="3.845" y1="1.597" transform="translate(0.032 1.318)"/><line class="j" x1="3.845" y1="1.597" transform="translate(0.065 2.636)"/><line class="j" x1="3.845" y1="1.597" transform="translate(0.097 3.955)"/><line class="j" x1="3.845" y1="1.597" transform="translate(0.129 5.273)"/><line class="j" x1="3.845" y1="1.597" transform="translate(0.161 6.591)"/><line class="j" x1="3.845" y1="1.597" transform="translate(0.194 7.909)"/><line class="j" x1="3.845" y1="1.597" transform="translate(0.226 9.227)"/><line class="j" x1="3.845" y1="1.597" transform="translate(0.258 10.545)"/><line class="j" x1="3.845" y1="1.597" transform="translate(0.29 11.864)"/><line class="j" x1="3.845" y1="1.597" transform="translate(0.323 13.182)"/><line class="j" x1="3.845" y1="1.597" transform="translate(0.355 14.5)"/><line class="j" x1="3.845" y1="1.597" transform="translate(0.387 15.818)"/><line class="j" x1="3.845" y1="1.597" transform="translate(0.419 17.136)"/></g></g></g><path class="h" d="M699.926,322.259c1.679,0,3.041,4.041,3.041,9.027s-1.362,9.026-3.041,9.026h1.1c1.679,0,3.04-4.041,3.04-9.026s-1.361-9.027-3.04-9.027Z" transform="translate(-695.277 -322.164)"/><g transform="translate(4.649 0)"><g class="l"><g transform="translate(-0.193 -1.066)"><line class="j" y1="1.597" x2="3.845" transform="translate(1.258)"/><line class="j" y1="1.597" x2="3.845" transform="translate(1.162 1.367)"/><line class="j" y1="1.597" x2="3.845" transform="translate(1.065 2.733)"/><line class="j" y1="1.597" x2="3.845" transform="translate(0.968 4.1)"/><line class="j" y1="1.597" x2="3.845" transform="translate(0.871 5.466)"/><line class="j" y1="1.597" x2="3.845" transform="translate(0.774 6.833)"/><line class="j" y1="1.597" x2="3.845" transform="translate(0.678 8.199)"/><line class="j" y1="1.597" x2="3.845" transform="translate(0.581 9.566)"/><line class="j" y1="1.597" x2="3.845" transform="translate(0.484 10.933)"/><line class="j" y1="1.597" x2="3.845" transform="translate(0.387 12.299)"/><line class="j" y1="1.597" x2="3.845" transform="translate(0.29 13.666)"/><line class="j" y1="1.597" x2="3.845" transform="translate(0.194 15.032)"/><line class="j" y1="1.597" x2="3.845" transform="translate(0.097 16.399)"/><line class="j" y1="1.597" x2="3.845" transform="translate(0 17.766)"/></g></g></g><g transform="translate(0.811 2.26)"><path class="m" d="M692.553,333.265a16.38,16.38,0,0,0,.725,5.175,5.529,5.529,0,0,0,.32.741c.31.59.671.929,1.056.929.408,0,.789-.378,1.111-1.036h0a6.262,6.262,0,0,0,.333-.839,16.866,16.866,0,0,0,.657-4.97c0-.535-.019-1.057-.055-1.557-.028-.393-.066-.771-.113-1.136-.292-2.214-.931-3.827-1.694-4.109a.7.7,0,0,0-.24-.044.718.718,0,0,0-.141.015c-.778.168-1.439,1.716-1.758,3.9-.052.356-.094.728-.126,1.114C692.579,332.025,692.553,332.634,692.553,333.265Z" transform="translate(-692.553 -326.418)"/><g transform="translate(0.249 0.826)"><path class="h" d="M694.8,345.872c.273.521.592.819.931.819.36,0,.695-.334.979-.913L695.866,342c-.049-.22-.15-.22-.2,0Z" transform="translate(-693.88 -334.636)"/><path class="h" d="M697,328.054l.009,4.574c0,.269.081.459.159.38l1.324-1.333C698.231,329.724,697.667,328.3,697,328.054Z" transform="translate(-694.932 -328.029)"/><path class="h" d="M697.43,338.983l.824,3.707a14.877,14.877,0,0,0,.579-4.381c0-.472-.016-.931-.048-1.372l-1.3,1.431A.918.918,0,0,0,697.43,338.983Z" transform="translate(-695.129 -332.288)"/><path class="h" d="M693.032,338.095a14.436,14.436,0,0,0,.639,4.561l.883-3.978a.924.924,0,0,0-.059-.614l-1.4-1.575C693.055,337,693.032,337.539,693.032,338.095Z" transform="translate(-693.032 -332.073)"/><path class="h" d="M693.374,331.44l1.38,1.421c.079.081.159-.11.16-.379l.009-4.476C694.237,328.153,693.655,329.517,693.374,331.44Z" transform="translate(-693.196 -328.005)"/></g></g></g><g transform="translate(54.501 24.549)"><path class="h" d="M808.042,322.076c3.674,0,6.653,4.084,6.653,9.122s-2.978,9.122-6.653,9.122h-4.777V322.076Z" transform="translate(-796.8 -322.076)"/><g transform="translate(10.424 0)"><g class="n"><g transform="translate(0.738 -0.804)"><line class="j" y1="1.592" x2="8.269"/><line class="j" y1="1.592" x2="8.269" transform="translate(0 1.33)"/><line class="j" y1="1.592" x2="8.269" transform="translate(0 2.661)"/><line class="j" y1="1.592" x2="8.269" transform="translate(0 3.991)"/><line class="j" y1="1.592" x2="8.269" transform="translate(0 5.322)"/><line class="j" y1="1.592" x2="8.269" transform="translate(0 6.652)"/><line class="j" y1="1.592" x2="8.269" transform="translate(0 7.983)"/><line class="j" y1="1.592" x2="8.269" transform="translate(0 9.313)"/><line class="j" y1="1.592" x2="8.269" transform="translate(0 10.644)"/><line class="j" y1="1.592" x2="8.269" transform="translate(0 11.974)"/><line class="j" y1="1.592" x2="8.269" transform="translate(0 13.305)"/><line class="j" y1="1.592" x2="8.269" transform="translate(0 14.635)"/><line class="j" y1="1.592" x2="8.269" transform="translate(0 15.966)"/><line class="j" y1="1.592" x2="8.269" transform="translate(0 17.296)"/></g></g></g><g transform="translate(6.465 0)"><g class="o"><g transform="translate(0.003 -0.175)"><line class="j" x1="8.411" y1="1.597"/><line class="j" x1="8.411" y1="1.597" transform="translate(0 1.367)"/><line class="j" x1="8.411" y1="1.597" transform="translate(0 2.733)"/><line class="j" x1="8.411" y1="1.597" transform="translate(0 4.1)"/><line class="j" x1="8.411" y1="1.597" transform="translate(0 5.466)"/><line class="j" x1="8.411" y1="1.597" transform="translate(0 6.833)"/><line class="j" x1="8.411" y1="1.597" transform="translate(0 8.199)"/><line class="j" x1="8.411" y1="1.597" transform="translate(0 9.566)"/><line class="j" x1="8.411" y1="1.597" transform="translate(0 10.933)"/><line class="j" x1="8.411" y1="1.597" transform="translate(0 12.299)"/><line class="j" x1="8.411" y1="1.597" transform="translate(0 13.666)"/><line class="j" x1="8.411" y1="1.597" transform="translate(0 15.032)"/><line class="j" x1="8.411" y1="1.597" transform="translate(0 16.399)"/><line class="j" x1="8.411" y1="1.597" transform="translate(0 17.766)"/></g></g></g><ellipse class="h" cx="6.652" cy="9.122" rx="6.652" ry="9.122"/><path class="h" d="M808.182,322.076c3.674,0,6.652,4.059,6.652,9.066s-2.978,9.066-6.652,9.066h.912c3.674,0,6.652-4.059,6.652-9.066s-2.978-9.066-6.652-9.066Z" transform="translate(-799.158 -322.076)"/><g transform="translate(9.024 0)"><g class="p"><g transform="translate(0.496 0.192)"><line class="j" x1="8.411" y1="1.597"/><line class="j" x1="8.411" y1="1.597" transform="translate(0.071 1.318)"/><line class="j" x1="8.411" y1="1.597" transform="translate(0.141 2.636)"/><line class="j" x1="8.411" y1="1.597" transform="translate(0.212 3.955)"/><line class="j" x1="8.411" y1="1.597" transform="translate(0.282 5.273)"/><line class="j" x1="8.411" y1="1.597" transform="translate(0.353 6.591)"/><line class="j" x1="8.411" y1="1.597" transform="translate(0.424 7.909)"/><line class="j" x1="8.411" y1="1.597" transform="translate(0.494 9.227)"/><line class="j" x1="8.411" y1="1.597" transform="translate(0.565 10.545)"/><line class="j" x1="8.411" y1="1.597" transform="translate(0.635 11.864)"/><line class="j" x1="8.411" y1="1.597" transform="translate(0.706 13.182)"/><line class="j" x1="8.411" y1="1.597" transform="translate(0.776 14.5)"/><line class="j" x1="8.411" y1="1.597" transform="translate(0.847 15.818)"/><line class="j" x1="8.411" y1="1.597" transform="translate(0.918 17.136)"/></g></g></g><path class="h" d="M806.43,322.076c3.674,0,6.652,4.059,6.652,9.066s-2.978,9.066-6.652,9.066h.912c3.674,0,6.652-4.059,6.652-9.066s-2.978-9.066-6.652-9.066Z" transform="translate(-798.317 -322.076)"/><g transform="translate(8.113 0)"><g class="q"><g transform="translate(-0.421 -1.066)"><line class="j" y1="1.597" x2="8.411" transform="translate(2.753)"/><line class="j" y1="1.597" x2="8.411" transform="translate(2.541 1.367)"/><line class="j" y1="1.597" x2="8.411" transform="translate(2.329 2.733)"/><line class="j" y1="1.597" x2="8.411" transform="translate(2.118 4.1)"/><line class="j" y1="1.597" x2="8.411" transform="translate(1.906 5.466)"/><line class="j" y1="1.597" x2="8.411" transform="translate(1.694 6.833)"/><line class="j" y1="1.597" x2="8.411" transform="translate(1.482 8.199)"/><line class="j" y1="1.597" x2="8.411" transform="translate(1.271 9.566)"/><line class="j" y1="1.597" x2="8.411" transform="translate(1.059 10.933)"/><line class="j" y1="1.597" x2="8.411" transform="translate(0.847 12.299)"/><line class="j" y1="1.597" x2="8.411" transform="translate(0.635 13.666)"/><line class="j" y1="1.597" x2="8.411" transform="translate(0.424 15.032)"/><line class="j" y1="1.597" x2="8.411" transform="translate(0.212 16.399)"/><line class="j" y1="1.597" x2="8.411" transform="translate(0 17.766)"/></g></g></g><g transform="translate(1.774 2.26)"><path class="r" d="M794.252,333.265a8.546,8.546,0,0,0,1.587,5.175,5.012,5.012,0,0,0,.7.741,3.509,3.509,0,0,0,2.311.929,3.555,3.555,0,0,0,2.43-1.036h0a5.366,5.366,0,0,0,.729-.839,8.677,8.677,0,0,0,1.438-4.97,9.991,9.991,0,0,0-.12-1.557,9.249,9.249,0,0,0-.249-1.136c-.638-2.214-2.036-3.827-3.7-4.109a3.175,3.175,0,0,0-.523-.044c-.1,0-.207.006-.309.015-1.7.168-3.149,1.716-3.845,3.9a9.106,9.106,0,0,0-.277,1.114A9.978,9.978,0,0,0,794.252,333.265Z" transform="translate(-794.252 -326.418)"/></g></g><rect width="9.775" height="15.315" transform="translate(19.259 20.855)"/><path class="h" d="M689.424,296.039l-.673.043a1.194,1.194,0,0,0-1.1,1l-.91,5.492a2.907,2.907,0,0,0,.845,2.564l.946.916Z" transform="translate(-686.408 -285.043)"/><path class="s" d="M718.39,311.283,714,311.256l-.153,0h-.059a.486.486,0,0,1-.484-.527c.071-.823.111-1.685.111-2.573q0-.779-.04-1.528v0c0-.014,0-.029,0-.042-.006-.142-.015-.281-.025-.419-.019-.308-.046-.61-.077-.905-.013-.149-.031-.3-.048-.441s-.034-.29-.055-.432c0-.006,0-.011,0-.019-.036-.279-.078-.55-.126-.816q-.086-.5-.19-.967c-.038-.178-.08-.353-.124-.525s-.084-.323-.128-.477c-.027-.094-.054-.185-.082-.275s-.057-.189-.09-.281c-.014-.044-.029-.086-.042-.128-.065-.193-.134-.378-.2-.556q-.055-.141-.115-.275c-.1-.22-.195-.426-.3-.617-.024-.046-.047-.09-.072-.132-.079-.141-.16-.271-.245-.393-.019-.029-.04-.057-.059-.084-.029-.042-.061-.084-.092-.124l-.067-.084c-.027-.033-.054-.065-.08-.1l-.082-.09a2.165,2.165,0,0,0-.652-.493.626.626,0,0,0-.08-.034c-.023-.009-.048-.019-.071-.027s-.044-.016-.065-.021-.056-.015-.082-.021a1.269,1.269,0,0,0-.185-.027c-.031,0-.061,0-.092,0-1.857,0-3.385,4.107-3.554,9.359q-.017.482-.017.978c0,.161,0,.321,0,.479,0,.031,0,.063,0,.1.006.328.017.651.034.97.008.168.019.336.031.5s.025.342.04.51.031.334.048.5l-.594,0-2.764-.017-5.315-.032-2.013-.014-.288,0a.274.274,0,0,1-.056-.006.271.271,0,0,1-.137-.074.277.277,0,0,1-.077-.218q.029-.318.052-.642c.008-.12.016-.243.023-.365,0-.086.01-.174.013-.264.011-.258.021-.52.027-.785,0-.072,0-.145,0-.218,0-.138,0-.275,0-.415,0-.331-.006-.657-.015-.978-.166-5.252-1.664-9.359-3.486-9.359s-3.318,4.107-3.486,9.359l-.011.445c0,.176,0,.353,0,.533s0,.373.006.556c0,.13,0,.258.009.386,0,.065,0,.128.006.193l.006.126c0,.115.009.229.015.344l.006.113c.01.152.019.3.031.453v.007c.019.258.042.514.067.764l-.36,0a.272.272,0,0,1-.055-.006.265.265,0,0,1-.1-.039.328.328,0,0,1-.042-.032.294.294,0,0,1-.1-.187l-.537-3.655-.959-6.52a13.992,13.992,0,0,1,.183-5.074l2.115-9.516,4.2-8.551a3.027,3.027,0,0,1,2.521-1.689l5.686-.378.017,0,.049,0,.05,0,.086-.006.143-.01.084-.006.286-.019.3-.021.149-.009,1.419-.1a4.054,4.054,0,0,1,.567,0h.008a3.978,3.978,0,0,1,3.217,2.121v0a3.6,3.6,0,0,1,.164.353l.321.793.047.115,3.9,9.606.365.607,0,.006,4.5,7.506Z" transform="translate(-686.14 -275.081)"/><path class="e" d="M719.222,298.958l-.967,9.174-4.075-10.092c-6.145-9.2-23.339-11.972-23.339-11.972l.039-.077,0-.008,4.124-8.4a3.156,3.156,0,0,1,2.623-1.758l5.615-.372.017,0,.049,0,.05,0,.086-.006.143-.01.084-.006.286-.019.3-.021.149-.009,1.419-.1a4.04,4.04,0,0,1,.567,0h.008a3.978,3.978,0,0,1,3.217,2.121v0a3.56,3.56,0,0,1,.164.353l.321.793.047.115,3.9,9.605.364.608,0,.006,4.5,7.506Z" transform="translate(-688.394 -275.082)"/><path class="t" d="M713.39,316.2c-.006.124-.014.249-.019.369,0-.013,0-.029,0-.042-.007-.142-.017-.279-.025-.418-.021-.308-.048-.61-.077-.905-.016-.147-.031-.295-.048-.441s-.036-.288-.055-.432c0-.006,0-.011,0-.019-.038-.277-.08-.55-.126-.816q-.086-.5-.19-.967c-.04-.18-.08-.353-.124-.525s-.084-.323-.128-.477c-.027-.094-.054-.185-.082-.275s-.057-.189-.09-.281c-.014-.044-.027-.086-.042-.128-.065-.193-.134-.378-.2-.556q-.055-.141-.115-.275c-.1-.22-.195-.426-.3-.617-.023-.046-.047-.09-.072-.132-.079-.141-.16-.271-.245-.393-.019-.029-.038-.057-.059-.084-.029-.042-.061-.084-.092-.124s-.044-.057-.067-.084-.054-.065-.08-.1-.054-.061-.082-.09a2.165,2.165,0,0,0-.652-.493.626.626,0,0,0-.08-.034c-.023-.009-.048-.019-.071-.027s-.044-.016-.065-.021-.056-.015-.082-.021a1.277,1.277,0,0,0-.185-.027c-.031,0-.061,0-.092,0-1.857,0-3.385,4.107-3.554,9.359q-.017.482-.017.978c0,.161,0,.321,0,.479,0,.031,0,.063,0,.1.006.328.017.651.034.97.009.168.019.336.031.5s.025.342.04.51.031.334.048.5l-.594,0-2.764-.017-5.315-.032-2.013-.014-.288,0a.272.272,0,0,1-.056-.006.287.287,0,0,1-.137-.074.277.277,0,0,1-.077-.218q.029-.318.052-.642c.008-.12.016-.243.023-.365.006-.088.01-.176.013-.264.011-.258.021-.52.027-.785,0-.072,0-.145,0-.218,0-.138,0-.275,0-.415,0-.331-.006-.657-.015-.978-.166-5.251-1.664-9.359-3.486-9.359s-3.318,4.107-3.486,9.359l-.011.445c0,.176,0,.353,0,.533s0,.373.006.556c0,.13,0,.258.009.386,0,.065,0,.128.006.193l.006.126c0,.115.009.229.015.344l.006.113c.01.153.019.3.031.453v.007c.019.258.042.514.067.764l-.36,0a.268.268,0,0,1-.055-.006.356.356,0,0,1-.1-.038.325.325,0,0,1-.042-.032.3.3,0,0,1-.1-.187l-.537-3.655-.959-6.52a13.992,13.992,0,0,1,.183-5.074l2.115-9.516a56.8,56.8,0,0,1,8.425,2.2c5.267,1.806,11.65,4.879,14.914,9.768A16.026,16.026,0,0,1,713.39,316.2Z" transform="translate(-686.14 -285.033)"/><path class="e" d="M716.8,310.776s-1.179-13.516,3.47-13.516c4.84,0,3.705,13.974,3.705,13.974l.466,0v-.027l.386-15.249a7.942,7.942,0,0,0-.614-3.274s-.68-1.638-1.6-3.857l0-.006c-1.362-3.275-4.729-11.461-4.729-11.461-.088-.2-.291-.559-.31-.6a4.372,4.372,0,0,0-3.224-1.6c-.331,0-2.911.235-2.911.235s-2.707,9.567-3.137,13.1a192.079,192.079,0,0,0-.1,22.606c0,.011,0,.021,0,.032l8.66.052Z" transform="translate(-696.588 -275.035)"/><path class="u" d="M703.592,334.646c.009.321.046,1.651.046,1.981,0,.907-.039,1.788-.115,2.626a.329.329,0,0,0,.326.36l.226,0,2.013.013c-.069-1.367-.123-3.491-.164-4.774Z" transform="translate(-694.474 -303.554)"/><path class="v" d="M725.057,343.676c-.023-.215-.042-.434-.06-.655.018.221.037.44.06.655Z" transform="translate(-704.771 -307.57)"/><path class="v" d="M724.9,341.644q.015.26.034.515Q724.918,341.9,724.9,341.644Z" transform="translate(-704.726 -306.91)"/><path class="v" d="M724.82,339.185c.007.255.017.5.03.754q-.037-.728-.038-1.487c0,.239,0,.478.008.713Z" transform="translate(-704.682 -305.379)"/><path class="v" d="M724.968,342.633c.005.068.01.135.015.2C724.978,342.768,724.973,342.7,724.968,342.633Z" transform="translate(-704.757 -307.384)"/><path class="t" d="M722.375,310.292c-3.093-4.633-8.986-7.634-14.075-9.474-.029.377-.6,7.91-.26,18.611h8.7c.132-4.1,1.093-7.508,2.394-8.8.027-.027.055-.054.084-.079a1.6,1.6,0,0,1,1.076-.479c.764,0,1.471.693,2.05,1.876.059.119.117.24.172.371a18.009,18.009,0,0,1,1.206,5.193c.012.109.021.22.031.33.007.081.013.162.019.243.023.261.04.527.054.8.006-.122.013-.246.019-.373A16.026,16.026,0,0,0,722.375,310.292Z" transform="translate(-696.589 -287.335)"/><path class="v" d="M721.429,344.3l.594,0,0-.021h-3.356Z" transform="translate(-701.735 -308.174)"/><path class="v" d="M708.454,344.217l5.315.033-5.315-.033Z" transform="translate(-696.839 -308.143)"/><path class="v" d="M724.885,341.309c0,.059.006.117.009.174C724.891,341.426,724.888,341.368,724.885,341.309Z" transform="translate(-704.717 -306.749)"/><path class="u" d="M708.28,339.8l5.315.033h3.356c-.023-.215-.042-.434-.06-.655-.005-.067-.01-.134-.015-.2-.013-.17-.024-.341-.034-.515,0-.058-.007-.116-.009-.174-.013-.249-.023-.5-.03-.754v-.021c-.006-.235-.008-.474-.008-.713q0-.5.017-.978l-8.721-.812C708.132,336.3,708.211,338.436,708.28,339.8Z" transform="translate(-696.665 -303.73)"/><path class="e" d="M779.052,305.209l.636,1.134a3.283,3.283,0,0,1,.415,1.768l-.43,8.671H736.944l.433-10.193a7.834,7.834,0,0,0-.65-3.471l-1.948-4.453-.711-1.707a2.6,2.6,0,0,0,1.379,1.421C736.4,298.7,779.052,305.209,779.052,305.209Z" transform="translate(-709.121 -285.484)"/><path class="u" d="M764.564,288.1H729.742a2.6,2.6,0,0,1-2.416-1.631c-1.091-2.711-3.212-7.972-3.767-9.265a3,3,0,0,0-.172-.342c-.025-.044-.052-.086-.079-.128a4.1,4.1,0,0,0-3.16-1.662c-.124-.008-.214-.009-.258-.009l.258,0,30.367-.142a5.844,5.844,0,0,1,4.115,1.815c.032.032.072.077.12.128a53.341,53.341,0,0,1,6.73,9.03,3.928,3.928,0,0,0,2.105,1.74Z" transform="translate(-702.322 -274.914)"/><path class="t" d="M746.855,311.091s1.919,4.967,25.449,4.967c10.857,0,12.879-5.779,12.879-5.779l-2.627-1.29-35.638-1.457Z" transform="translate(-715.252 -290.554)"/><path class="e" d="M736.086,297.92H768.1a.813.813,0,0,0,.718-1.194l-.067-.127a7.456,7.456,0,0,0,1.735,1.321c.86.414,7.069,3.216,7.069,3.216s-3.3,4.043-4.657,4.043H758.381c-2.7,0-19.008-4.219-19.008-4.219a4.878,4.878,0,0,0-3.3-2.547,2.137,2.137,0,0,1-1.442-1.082A1.684,1.684,0,0,0,736.086,297.92Z" transform="translate(-709.393 -285.312)"/><path class="t" d="M742.835,331.022l4.319-3.605a3.025,3.025,0,0,1,2.323-.679,160.071,160.071,0,0,0,21.027,1.545,38.041,38.041,0,0,0,11.557-1.579c1.382-.445,1.911,2.3,1.911,2.3l-.1,2.021Z" transform="translate(-713.324 -299.724)"/><path class="h" d="M782.142,335.043l-.74,4.066a1.02,1.02,0,0,1-1,.837H739.218l.195-4.9Z" transform="translate(-711.59 -303.745)"/><path class="t" d="M786.172,335.043h0a1.4,1.4,0,0,1-1.4,1.4H751.149a1.4,1.4,0,0,1-1.4-1.4h36.425Z" transform="translate(-716.638 -303.745)"/><path class="u" d="M758.1,327.436s-5.24-.64-5.778-.7c-.628-.07-2.545.058-2.966,3.04a.815.815,0,0,0,.8.879h0a.8.8,0,0,0,.455-.1,7.646,7.646,0,0,1,3.549-.7c2.5-.074,3.638-.784,4.089-2.225A.158.158,0,0,0,758.1,327.436Z" transform="translate(-716.447 -299.756)"/><path class="u" d="M813.609,327.436s2.175-.64,2.4-.7c.26-.07,1.057.057,1.231,3.04.026.437-.128.85-.33.879h0a.2.2,0,0,1-.189-.1,1.864,1.864,0,0,0-1.473-.7c-1.039-.074-1.51-.784-1.7-2.225C813.537,327.542,813.567,327.448,813.609,327.436Z" transform="translate(-747.229 -299.756)"/><path class="h" d="M753.1,328.025a1.19,1.19,0,0,0-.579.092A3,3,0,0,0,750.931,330c-.055.165.139.315.326.255a8.964,8.964,0,0,1,3.182-.455,6.706,6.706,0,0,0,2.365-.354.562.562,0,0,0-.141-1.086C755.17,328.214,753.1,328.025,753.1,328.025Z" transform="translate(-717.202 -300.378)"/><path class="h" d="M816.809,328.224a.233.233,0,0,1,.218.1,3.923,3.923,0,0,1,.63,1.91c.024.166-.046.312-.117.248a1.65,1.65,0,0,0-1.2-.516,1.243,1.243,0,0,1-.961-.512.645.645,0,0,1,.388-1.031Z" transform="translate(-748.042 -300.474)"/><g transform="translate(46.673 19.056)"><path class="h" d="M793.063,311.524H777.027a1.263,1.263,0,0,0-1.121,1.767l.006.014c.223.522.448,1.03.594,1.324.392.787,1.636,3.343,6.456,3.343,1.026,0,2.415.024,4.168,0,4.82-.066,6.063-2.556,6.456-3.343.146-.294.371-.8.594-1.324l.006-.014A1.263,1.263,0,0,0,793.063,311.524Z" transform="translate(-775.805 -311.524)"/><path class="u" d="M793.063,311.524H777.027a1.263,1.263,0,0,0-1.121,1.767h6.63a2.391,2.391,0,0,1,1.612.648,2.533,2.533,0,0,0,3.745,0,2.391,2.391,0,0,1,1.612-.648h4.679A1.263,1.263,0,0,0,793.063,311.524Z" transform="translate(-775.805 -311.524)"/><ellipse class="w" cx="2.04" cy="1.481" rx="2.04" ry="1.481" transform="translate(8.273 0.287)"/></g><path class="u" d="M795.327,335.33H773.753a4.3,4.3,0,0,1,.766-1.211,5.093,5.093,0,0,1,3.954-1.4H790.6a5.1,5.1,0,0,1,3.956,1.4A4.294,4.294,0,0,1,795.327,335.33Z" transform="translate(-728.149 -302.63)"/><path class="u" d="M713.369,303l-1.7-.373a.66.66,0,0,1-.5-.612v-.143a.391.391,0,0,1,.5-.392l1.7.374a.658.658,0,0,1,.5.611v.143A.391.391,0,0,1,713.369,303Z" transform="translate(-698.139 -287.645)"/><path class="u" d="M697.6,297.9l-1.7-.373a.659.659,0,0,1-.5-.611v-.143a.391.391,0,0,1,.5-.392l1.7.373a.66.66,0,0,1,.5.612v.143A.391.391,0,0,1,697.6,297.9Z" transform="translate(-690.579 -285.202)"/><path class="h" d="M718.391,280.349l-.65,7.8-7-.978.822-3.381,1.538-6.32,1.523-.126a3.458,3.458,0,0,1,3.27,1.84,3.24,3.24,0,0,1,.142.3Z" transform="translate(-697.937 -276.075)"/><path class="x" d="M718.28,278.635a.468.468,0,0,1-.285.755,2.394,2.394,0,0,0-1.547.607c-1.007.921-.374,1.615-1.381,2.533s-1.644.147-2.778,1.341c.405-1.719,1.555-6.4,1.555-6.4l1.523-.126A3.464,3.464,0,0,1,718.28,278.635Z" transform="translate(-698.678 -276.075)"/><path class="h" d="M707.005,277.829l-.319,1.184-2.126,7.9L701.2,285.26l-.088-.044.7-6.818a.166.166,0,0,1,.151-.149Z" transform="translate(-693.318 -276.312)"/><path class="h" d="M756.951,307.521a1.518,1.518,0,0,1,.442,2.8c-.552.321-1.089.631-1.539.889a2.087,2.087,0,0,1-1.427.237c-.714-.134-1.668-.31-2.707-.5-1.452-.265-3.072-.564-4.44-.819-.714-.136-1.408-.27-2.048-.4a6.783,6.783,0,0,1-1.759-4.813.238.238,0,0,1,.288-.225l2.76.575,2.067.449C750.767,306.183,754.25,306.94,756.951,307.521Z" transform="translate(-713.628 -289.186)"/><path class="x" d="M751.72,310.942c-1.452-.265-3.072-.564-4.44-.819-.714-.136-1.408-.27-2.048-.4a6.783,6.783,0,0,1-1.759-4.813.238.238,0,0,1,.288-.225l2.76.575.726.158a1.743,1.743,0,0,1,1.342,1.511A4.582,4.582,0,0,0,751.72,310.942Z" transform="translate(-713.628 -289.186)"/><path class="h" d="M747.28,310.123c-.714-.136-1.408-.27-2.048-.4a6.783,6.783,0,0,1-1.759-4.813.238.238,0,0,1,.288-.225l2.76.575-.554.027a.724.724,0,0,0-.672.877l.529,2.405a2.055,2.055,0,0,0,1.237,1.464Z" transform="translate(-713.628 -289.186)"/><path class="h" d="M816.336,309.215l-.434.338-1.54,1.2a1.114,1.114,0,0,1-1.513-.138L812.3,310a1.86,1.86,0,0,1,.076-2.559c.261-.259.543-.539.828-.819.477-.466.963-.934,1.364-1.309A5.731,5.731,0,0,1,816.336,309.215Z" transform="translate(-746.405 -289.49)"/><path class="h" d="M761.4,286.74H733.57a5.45,5.45,0,0,1-5.055-3.412l-2.323-5.769a4.033,4.033,0,0,0-3.116-2.472l1.114-.006,26.667-.13.048,0a6.19,6.19,0,0,1,4.369,1.748,52.508,52.508,0,0,1,6.765,8.9A.75.75,0,0,1,761.4,286.74Z" transform="translate(-703.85 -274.928)"/><path class="h" d="M697.341,327.784c0,1.034-.048,2.035-.137,2.988l-.3,0a.266.266,0,0,1-.263-.291c.079-.859.121-1.763.121-2.7,0-5.71-1.566-10.337-3.5-10.337s-3.5,4.627-3.5,10.337a28.883,28.883,0,0,0,.145,2.942l-.287,0a.328.328,0,0,1-.325-.3c-.069-.848-.106-1.733-.106-2.641,0-6.4,1.824-11.58,4.075-11.58S697.341,321.388,697.341,327.784Z" transform="translate(-687.602 -294.712)"/><path class="h" d="M698.8,279.406l-.665,6.371-1.88-.923a.453.453,0,0,1-.2-.623l2.635-4.859A.058.058,0,0,1,698.8,279.406Z" transform="translate(-690.868 -277.037)"/><path class="h" d="M727.695,291.964l-2.465-.344.585-7.145,2.655,6.491A.729.729,0,0,1,727.695,291.964Z" transform="translate(-704.883 -279.498)"/><path class="h" d="M689.467,340.492l-.36,0a.274.274,0,0,1-.055-.006.264.264,0,0,1-.1-.039.316.316,0,0,1-.042-.032.294.294,0,0,1-.1-.187l-.537-3.655h1.068l-.011.445c0,.176,0,.353,0,.533s0,.373.006.556c0,.13,0,.258.009.386l.006.193.006.126c0,.115.009.229.015.344l.006.113c.01.152.019.3.031.453v.007C689.419,339.986,689.442,340.242,689.467,340.492Z" transform="translate(-687.161 -304.478)"/><path class="h" d="M732,327.784a30.538,30.538,0,0,1-.153,3.1h-.115a.439.439,0,0,1-.433-.48c.076-.837.116-1.714.116-2.62,0-5.71-1.6-10.337-3.57-10.337-1.857,0-3.385,4.107-3.554,9.359q-.017.482-.017.978a29,29,0,0,0,.159,3.054h0l-.594,0a30.03,30.03,0,0,1-.149-3.051c0-6.4,1.861-11.58,4.155-11.58S732,321.388,732,327.784Z" transform="translate(-704.144 -294.712)"/><path class="v" d="M735.94,322.909a17.273,17.273,0,0,1,1.206,5.193A18.011,18.011,0,0,0,735.94,322.909Z" transform="translate(-710.018 -297.927)"/><path class="h" d="M714.758,343.392l-.594,0-2.764-.017-5.315-.032-2.013-.014h-.288a.272.272,0,0,1-.27-.3q.029-.318.051-.642H714.67C714.693,342.727,714.723,343.063,714.758,343.392Z" transform="translate(-694.469 -307.264)"/><path class="t" d="M724.82,294.077l-.576-2.648a1.24,1.24,0,0,0-1.5-.945l-2.4.561a1.379,1.379,0,0,0-1.036,1.071l-.22,1.1a1.017,1.017,0,0,0,.927,1.214l1.89.131a.7.7,0,0,1,.573.38Z" transform="translate(-701.931 -282.363)"/><path class="h" d="M727.948,297.432l-2.368.848.786,1.477a.818.818,0,0,0,1.4.066l.321-.486a.86.86,0,0,0,.124-.654Z" transform="translate(-705.051 -285.711)"/><path class="x" d="M815.184,311.034a.118.118,0,0,1,.1.208l-.918.714a1.114,1.114,0,0,1-1.513-.138l-.548-.613a1.86,1.86,0,0,1,.075-2.559c.26-.259.543-.538.828-.818,0,0-1.2,1.745.2,2.847A2.047,2.047,0,0,0,815.184,311.034Z" transform="translate(-746.406 -290.696)"/><g transform="translate(12.986 24.286)"><g class="y"><g transform="translate(4.899 0.263)"><path class="h" d="M737.7,322.076c3.674,0,6.653,4.084,6.653,9.122s-2.978,9.122-6.653,9.122h-4.777V322.076Z" transform="translate(-726.456 -322.076)"/><g transform="translate(10.424 0)"><g class="z"><g transform="translate(0.738 -0.804)"><line class="j" y1="1.592" x2="8.269"/><line class="j" y1="1.592" x2="8.269" transform="translate(0 1.33)"/><line class="j" y1="1.592" x2="8.269" transform="translate(0 2.661)"/><line class="j" y1="1.592" x2="8.269" transform="translate(0 3.991)"/><line class="j" y1="1.592" x2="8.269" transform="translate(0 5.322)"/><line class="j" y1="1.592" x2="8.269" transform="translate(0 6.652)"/><line class="j" y1="1.592" x2="8.269" transform="translate(0 7.983)"/><line class="j" y1="1.592" x2="8.269" transform="translate(0 9.313)"/><line class="j" y1="1.592" x2="8.269" transform="translate(0 10.644)"/><line class="j" y1="1.592" x2="8.269" transform="translate(0 11.974)"/><line class="j" y1="1.592" x2="8.269" transform="translate(0 13.305)"/><line class="j" y1="1.592" x2="8.269" transform="translate(0 14.635)"/><line class="j" y1="1.592" x2="8.269" transform="translate(0 15.966)"/><line class="j" y1="1.592" x2="8.269" transform="translate(0 17.296)"/></g></g></g><g transform="translate(6.465 0)"><g class="aa"><g transform="translate(0.003 -0.175)"><line class="j" x1="8.411" y1="1.597"/><line class="j" x1="8.411" y1="1.597" transform="translate(0 1.367)"/><line class="j" x1="8.411" y1="1.597" transform="translate(0 2.733)"/><line class="j" x1="8.411" y1="1.597" transform="translate(0 4.1)"/><line class="j" x1="8.411" y1="1.597" transform="translate(0 5.466)"/><line class="j" x1="8.411" y1="1.597" transform="translate(0 6.833)"/><line class="j" x1="8.411" y1="1.597" transform="translate(0 8.199)"/><line class="j" x1="8.411" y1="1.597" transform="translate(0 9.566)"/><line class="j" x1="8.411" y1="1.597" transform="translate(0 10.933)"/><line class="j" x1="8.411" y1="1.597" transform="translate(0 12.299)"/><line class="j" x1="8.411" y1="1.597" transform="translate(0 13.666)"/><line class="j" x1="8.411" y1="1.597" transform="translate(0 15.032)"/><line class="j" x1="8.411" y1="1.597" transform="translate(0 16.399)"/><line class="j" x1="8.411" y1="1.597" transform="translate(0 17.766)"/></g></g></g><ellipse class="h" cx="6.652" cy="9.122" rx="6.652" ry="9.122"/><path class="h" d="M737.838,322.076c3.674,0,6.652,4.059,6.652,9.066s-2.978,9.066-6.652,9.066h.912c3.674,0,6.652-4.059,6.652-9.066s-2.978-9.066-6.652-9.066Z" transform="translate(-728.814 -322.076)"/><g transform="translate(9.024 0)"><g class="ab"><g transform="translate(0.496 0.192)"><line class="j" x1="8.411" y1="1.597"/><line class="j" x1="8.411" y1="1.597" transform="translate(0.071 1.318)"/><line class="j" x1="8.411" y1="1.597" transform="translate(0.141 2.636)"/><line class="j" x1="8.411" y1="1.597" transform="translate(0.212 3.955)"/><line class="j" x1="8.411" y1="1.597" transform="translate(0.282 5.273)"/><line class="j" x1="8.411" y1="1.597" transform="translate(0.353 6.591)"/><line class="j" x1="8.411" y1="1.597" transform="translate(0.424 7.909)"/><line class="j" x1="8.411" y1="1.597" transform="translate(0.494 9.227)"/><line class="j" x1="8.411" y1="1.597" transform="translate(0.565 10.545)"/><line class="j" x1="8.411" y1="1.597" transform="translate(0.635 11.864)"/><line class="j" x1="8.411" y1="1.597" transform="translate(0.706 13.182)"/><line class="j" x1="8.411" y1="1.597" transform="translate(0.776 14.5)"/><line class="j" x1="8.411" y1="1.597" transform="translate(0.847 15.818)"/><line class="j" x1="8.411" y1="1.597" transform="translate(0.918 17.136)"/></g></g></g><path class="h" d="M736.086,322.076c3.674,0,6.652,4.059,6.652,9.066s-2.978,9.066-6.652,9.066H737c3.674,0,6.652-4.059,6.652-9.066s-2.978-9.066-6.652-9.066Z" transform="translate(-727.973 -322.076)"/><g transform="translate(8.113 0)"><g class="ac"><g transform="translate(-0.421 -1.066)"><line class="j" y1="1.597" x2="8.411" transform="translate(2.753)"/><line class="j" y1="1.597" x2="8.411" transform="translate(2.541 1.367)"/><line class="j" y1="1.597" x2="8.411" transform="translate(2.329 2.733)"/><line class="j" y1="1.597" x2="8.411" transform="translate(2.118 4.1)"/><line class="j" y1="1.597" x2="8.411" transform="translate(1.906 5.466)"/><line class="j" y1="1.597" x2="8.411" transform="translate(1.694 6.833)"/><line class="j" y1="1.597" x2="8.411" transform="translate(1.482 8.199)"/><line class="j" y1="1.597" x2="8.411" transform="translate(1.271 9.566)"/><line class="j" y1="1.597" x2="8.411" transform="translate(1.059 10.933)"/><line class="j" y1="1.597" x2="8.411" transform="translate(0.847 12.299)"/><line class="j" y1="1.597" x2="8.411" transform="translate(0.635 13.666)"/><line class="j" y1="1.597" x2="8.411" transform="translate(0.424 15.032)"/><line class="j" y1="1.597" x2="8.411" transform="translate(0.212 16.399)"/><line class="j" y1="1.597" x2="8.411" transform="translate(0 17.766)"/></g></g></g><g transform="translate(1.774 2.26)"><path class="m" d="M723.908,333.265a8.546,8.546,0,0,0,1.587,5.175,5.009,5.009,0,0,0,.7.741,3.509,3.509,0,0,0,2.311.929,3.555,3.555,0,0,0,2.43-1.036h0a5.362,5.362,0,0,0,.729-.839,8.676,8.676,0,0,0,1.438-4.97,9.976,9.976,0,0,0-.12-1.557,9.249,9.249,0,0,0-.249-1.136c-.638-2.214-2.036-3.827-3.705-4.109a3.175,3.175,0,0,0-.523-.044c-.1,0-.207.006-.309.015-1.7.168-3.149,1.716-3.845,3.9a9.106,9.106,0,0,0-.277,1.114A9.984,9.984,0,0,0,723.908,333.265Z" transform="translate(-723.908 -326.418)"/><g transform="translate(0.545 0.826)"><path class="h" d="M728.827,345.872a3.093,3.093,0,0,0,2.037.819,3.133,3.133,0,0,0,2.141-.913L731.157,342a.226.226,0,0,0-.435,0Z" transform="translate(-726.812 -334.636)"/><path class="h" d="M733.626,328.054l.021,4.574c0,.269.176.459.349.38l2.9-1.333C736.33,329.724,735.1,328.3,733.626,328.054Z" transform="translate(-729.113 -328.029)"/><path class="h" d="M734.579,338.983l1.8,3.707a7.648,7.648,0,0,0,1.268-4.381,8.789,8.789,0,0,0-.106-1.372l-2.833,1.431A.494.494,0,0,0,734.579,338.983Z" transform="translate(-729.545 -332.288)"/><path class="h" d="M724.956,338.095a7.534,7.534,0,0,0,1.4,4.561l1.932-3.978a.5.5,0,0,0-.13-.614L725.1,336.49A8.82,8.82,0,0,0,724.956,338.095Z" transform="translate(-724.956 -332.073)"/><path class="h" d="M725.705,331.44l3.02,1.421c.172.081.349-.11.35-.379l.019-4.476C727.6,328.153,726.319,329.517,725.705,331.44Z" transform="translate(-725.315 -328.005)"/></g></g></g></g></g><path class="u" d="M762.589,278.548l-1.685.365a.7.7,0,0,0-.558.519l-.107.443a.626.626,0,0,1-.652.458h-4.012a1.3,1.3,0,0,1-.939-.458l-.489-.558a1.588,1.588,0,0,0-.927-.528l-1.608-.252c2.169-.075,4.178-.09,5.409-.09.263,0,.491,0,.679,0s-1.117,0-.851,0C758.13,278.447,760.266,278.464,762.589,278.548Z" transform="translate(-717.533 -276.608)"/><path class="x" d="M751.931,274.951c-1.505,1.162-2.526.225-4.094,1.658-1.664,1.523-.619,2.667-2.283,4.188s-2.711.376-4.374,1.9c-1.417,1.295-.871,2.315-1.7,3.53a1.222,1.222,0,0,1-1.011.52H734.6a5.45,5.45,0,0,1-5.055-3.412l-2.323-5.769a4.021,4.021,0,0,0-1.922-2.088l-.08-.39,26.667-.13Z" transform="translate(-704.876 -274.932)"/><path class="e" d="M754.988,276.857H723.624c-.025-.044-.051-.086-.078-.128a4.1,4.1,0,0,0-3.16-1.662v-.012l30.367-.142a5.844,5.844,0,0,1,4.115,1.815C754.9,276.761,754.94,276.806,754.988,276.857Z" transform="translate(-702.56 -274.914)"/><circle class="t" cx="1.481" cy="1.481" r="1.481" transform="translate(34.851 17.649)"/><circle class="w" cx="0.841" cy="0.841" r="0.841" transform="translate(39.244 19.027)"/><g transform="translate(67.623 16.943)"><path class="t" d="M816.054,308.945a1.48,1.48,0,0,0,2.306,1.229,6.121,6.121,0,0,0-.83-2.709A1.48,1.48,0,0,0,816.054,308.945Z" transform="translate(-816.054 -307.465)"/></g><circle class="w" cx="0.841" cy="0.841" r="0.841" transform="translate(66.782 18.395)"/><path class="h" d="M803.349,344.438V345.5l-8.59,2.175-1.2-3.263Z" transform="translate(-737.645 -308.236)"/></g><path class="ad" d="M692.292,308.5l.478-2.589a.7.7,0,0,0-.711-.832l-.676-.03a1,1,0,0,0-1.012.757l-.479,2.589a.7.7,0,0,0,.712.832l.676.029A1,1,0,0,0,692.292,308.5Z" transform="translate(-646.998 -289.364)"/><path class="ae" d="M650.355,296.7s2.227.711,2.762,5.227S652.542,323.9,662.1,323.9c7.159,0,9.411-5.471,9.835-19.473" transform="translate(-628.048 -285.361)"/><rect class="h" width="2.455" height="3.066" transform="translate(22.863 13.067) rotate(-180)"/><path class="e" d="M611.125,288.3a29,29,0,0,1,19.6,0v29.431l-9.8.112-9.8-.112V288.3Z" transform="translate(-609.237 -280.513)"/><path class="u" d="M645.958,326.014h1.469v-22.8h0a2.913,2.913,0,0,0-1.469,2.53Z" transform="translate(-625.939 -288.484)"/><path class="u" d="M612.625,326.014h-1.469v-22.8h0a2.914,2.914,0,0,1,1.469,2.53Z" transform="translate(-609.252 -288.484)"/><path class="af" d="M627.142,317.023l-1.256.684,4.775,4.763-1.257-4.763,1.257-.684-4.775-4.763Z" transform="translate(-616.315 -292.821)"/><path class="h" d="M607.5,351.77h23.376l-.335-5.361h-22.7Z" transform="translate(-607.499 -309.194)"/><rect class="h" width="9.128" height="1.217" rx="0.609" transform="translate(7.157 10.906)"/><path class="e" d="M691.97,308.012l.525-2.568a.882.882,0,0,0-.68-.91l-1.132-.258c-.452-.148-.881.019-.958.374l-.525,2.568a.883.883,0,0,0,.68.91l1.132.259C691.465,308.534,691.894,308.367,691.97,308.012Z" transform="translate(-646.668 -288.967)"/></g></g></svg>