<svg xmlns="http://www.w3.org/2000/svg" xmlns:xlink="http://www.w3.org/1999/xlink" width="250" height="183.732" viewBox="0 0 250 183.732"><defs><style>.a,.ad,.ag,.ak,.an,.ar,.au,.ay,.bb,.bf,.bi,.bm,.bp,.bt,.bu,.d,.o,.w{fill:none;}.b{fill:#e6e6e6;}.c,.e{fill:#fabe78;}.ad,.ae,.ak,.al,.ar,.as,.ay,.az,.bf,.bg,.bm,.bn,.d,.e,.o,.p{stroke:#000;}.cg,.d,.e{stroke-linecap:round;}.aa,.ad,.ae,.ag,.ah,.ak,.al,.an,.ao,.ar,.as,.au,.av,.ay,.az,.bb,.bc,.bf,.bg,.bi,.bj,.bm,.bn,.bp,.bq,.bt,.bu,.d,.e,.o,.p,.w{stroke-miterlimit:10;}.d,.e{stroke-width:0.164px;}.f{fill:url(#a);}.g{fill:#12d288;}.cj,.h{opacity:0.2;}.ad,.ag,.ak,.an,.ar,.au,.ay,.bb,.bf,.bi,.bm,.bp,.cd,.cf,.h,.o,.w,.x{mix-blend-mode:multiply;isolation:isolate;}.i{fill:#06c5ac;}.j{fill:#039382;}.k{clip-path:url(#b);}.cb,.l,.r{opacity:0.1;}.m,.s{opacity:0.17;}.n{clip-path:url(#c);}.o,.w{stroke-width:0.136px;}.ad,.ag,.ak,.an,.ar,.au,.ay,.bb,.bf,.bi,.bm,.bp,.o,.w{opacity:0.51;}.aa,.p{stroke-width:0.041px;}.aa,.ah,.ao,.av,.bc,.bj,.bq,.q{fill:#ddd;}.cd,.cf,.r{fill:#231f20;}.cb,.cg,.s,.v{fill:#fff;}.t{clip-path:url(#e);}.u{opacity:0.48;}.ag,.an,.au,.bb,.bi,.bp,.w{stroke:#a7a9ac;}.x{opacity:0.73;}.y{fill:#939598;}.z{fill:#838588;}.aa,.ah,.ao,.av,.bc,.bj,.bq{stroke:#939598;}.ab{clip-path:url(#f);}.ac{clip-path:url(#g);}.ad,.ag{stroke-width:0.148px;}.ae,.ah{stroke-width:0.044px;}.af{clip-path:url(#i);}.ai{clip-path:url(#j);}.aj{clip-path:url(#k);}.ak,.an{stroke-width:0.208px;}.al,.ao{stroke-width:0.062px;}.am{clip-path:url(#m);}.ap{clip-path:url(#n);}.aq{clip-path:url(#o);}.ar,.au{stroke-width:0.135px;}.as,.av{stroke-width:0.04px;}.at{clip-path:url(#q);}.aw{clip-path:url(#r);}.ax{clip-path:url(#s);}.ay,.bb{stroke-width:0.22px;}.az,.bc{stroke-width:0.065px;}.ba{clip-path:url(#u);}.bd{clip-path:url(#v);}.be{clip-path:url(#w);}.bf,.bi{stroke-width:0.137px;}.bg,.bj{stroke-width:0.041px;}.bh{clip-path:url(#y);}.bk{clip-path:url(#z);}.bl{clip-path:url(#aa);}.bm,.bp{stroke-width:0.226px;}.bn,.bq{stroke-width:0.067px;}.bo{clip-path:url(#ac);}.br{fill:#666;}.bs{fill:#8c8e90;}.bt,.bu{stroke:#db0000;}.bt{stroke-width:3.337px;}.bu{stroke-width:6.677px;}.bv,.by{fill:#cecece;}.bw{fill:#3d3d3d;}.bx{fill:#141414;}.by{opacity:0.37;}.bz{fill:#b7b7b7;}.ca{clip-path:url(#ad);}.cc{clip-path:url(#ae);}.cd{opacity:0.15;}.ce{fill:#0098D1;}.cf{opacity:0.23;}.cg{stroke:#cecece;stroke-linejoin:round;stroke-width:1.024px;}.ch{fill:#2ceb9f;}.ci{fill:#1b3445;font-size:9px;font-family:Radikal-Light, Radikal;font-weight:300;}</style><linearGradient id="a" x1="227.864" y1="17.387" x2="228.355" y2="17.455" gradientUnits="objectBoundingBox"><stop offset="0" stop-color="#e6e6e6"/><stop offset="0.092" stop-color="#e7e7e7" stop-opacity="0.957"/><stop offset="0.247" stop-color="#e9e9e9" stop-opacity="0.843"/><stop offset="0.447" stop-color="#eee" stop-opacity="0.655"/><stop offset="0.683" stop-color="#f5f5f5" stop-opacity="0.396"/><stop offset="0.948" stop-color="#fdfdfd" stop-opacity="0.067"/><stop offset="1" stop-color="#fff" stop-opacity="0"/></linearGradient><clipPath id="b"><ellipse class="a" cx="1.929" cy="2.02" rx="1.929" ry="2.02"/></clipPath><clipPath id="c"><path class="a" d="M880.086,581.1c.04-.005.079-.012.119-.019a2.028,2.028,0,0,0,1.393-2.391,1.931,1.931,0,0,0-2.226-1.55c-.039.01-.077.022-.116.035a1.939,1.939,0,0,1,2.108,1.57A2.035,2.035,0,0,1,880.086,581.1Z" transform="translate(-879.257 -577.102)"/></clipPath><clipPath id="e"><path class="a" d="M879.68,580.689c.039,0,.079-.011.119-.018a2.028,2.028,0,0,0,1.393-2.391,1.933,1.933,0,0,0-2.226-1.551c-.039.011-.078.023-.116.035a1.94,1.94,0,0,1,2.108,1.57A2.036,2.036,0,0,1,879.68,580.689Z" transform="translate(-878.851 -576.696)"/></clipPath><clipPath id="f"><ellipse class="a" cx="2.096" cy="2.196" rx="2.096" ry="2.196"/></clipPath><clipPath id="g"><path class="a" d="M867.1,610.965c.033-.028.066-.059.1-.09a2.272,2.272,0,0,0-.067-3.044,2.028,2.028,0,0,0-2.906-.047c-.029.033-.058.067-.086.1a2.026,2.026,0,0,1,2.807.138A2.273,2.273,0,0,1,867.1,610.965Z" transform="translate(-864.138 -607.194)"/></clipPath><clipPath id="i"><path class="a" d="M866.692,610.559c.033-.028.066-.059.1-.091a2.271,2.271,0,0,0-.067-3.043,2.028,2.028,0,0,0-2.906-.048c-.03.034-.058.068-.086.1a2.027,2.027,0,0,1,2.807.138A2.273,2.273,0,0,1,866.692,610.559Z" transform="translate(-863.732 -606.787)"/></clipPath><clipPath id="j"><ellipse class="a" cx="2.946" cy="3.086" rx="2.946" ry="3.086"/></clipPath><clipPath id="k"><path class="a" d="M926.189,588.706c.042-.046.081-.095.12-.145a3.183,3.183,0,0,0-.631-4.227,2.853,2.853,0,0,0-4.056.5c-.035.052-.069.106-.1.161a2.849,2.849,0,0,1,3.935-.352A3.182,3.182,0,0,1,926.189,588.706Z" transform="translate(-921.522 -583.706)"/></clipPath><clipPath id="m"><path class="a" d="M925.783,588.3q.061-.07.12-.145a3.184,3.184,0,0,0-.63-4.227,2.854,2.854,0,0,0-4.056.5c-.035.052-.069.106-.1.16a2.849,2.849,0,0,1,3.935-.352A3.185,3.185,0,0,1,925.783,588.3Z" transform="translate(-921.116 -583.299)"/></clipPath><clipPath id="n"><ellipse class="a" cx="1.901" cy="1.991" rx="1.901" ry="1.991"/></clipPath><clipPath id="o"><path class="a" d="M913.671,574.386c.038-.009.076-.021.114-.032a2.021,2.021,0,0,0,1.106-2.506,1.883,1.883,0,0,0-2.347-1.254c-.037.015-.073.031-.109.048a1.888,1.888,0,0,1,2.233,1.287A2.028,2.028,0,0,1,913.671,574.386Z" transform="translate(-912.434 -570.506)"/></clipPath><clipPath id="q"><path class="a" d="M913.264,573.98c.038-.01.077-.021.115-.033a2.02,2.02,0,0,0,1.106-2.505,1.883,1.883,0,0,0-2.347-1.254c-.037.015-.073.031-.109.047a1.889,1.889,0,0,1,2.234,1.288A2.028,2.028,0,0,1,913.264,573.98Z" transform="translate(-912.028 -570.1)"/></clipPath><clipPath id="r"><ellipse class="a" cx="3.106" cy="3.254" rx="3.106" ry="3.254"/></clipPath><clipPath id="s"><path class="a" d="M921.961,568.737c.063.011.127.018.191.025a3.168,3.168,0,0,0,3.153-3.073,3.209,3.209,0,0,0-2.808-3.419c-.065,0-.13,0-.193,0a3.221,3.221,0,0,1,2.616,3.395A3.18,3.18,0,0,1,921.961,568.737Z" transform="translate(-921.961 -562.269)"/></clipPath><clipPath id="u"><path class="a" d="M921.554,568.33c.063.011.127.018.192.024a3.168,3.168,0,0,0,3.153-3.072,3.208,3.208,0,0,0-2.808-3.419c-.065,0-.13,0-.194,0a3.222,3.222,0,0,1,2.617,3.395A3.181,3.181,0,0,1,921.554,568.33Z" transform="translate(-921.554 -561.863)"/></clipPath><clipPath id="v"><ellipse class="a" cx="1.942" cy="2.035" rx="1.942" ry="2.035"/></clipPath><clipPath id="w"><path class="a" d="M890.221,612.157c.04,0,.08.008.121.01a2.04,2.04,0,0,0,.046-4.065c-.041,0-.081,0-.121.008a2.046,2.046,0,0,1-.046,4.048Z" transform="translate(-890.221 -608.102)"/></clipPath><clipPath id="y"><path class="a" d="M889.815,611.751c.04.005.08.008.121.01a2.04,2.04,0,0,0,.046-4.065c-.041,0-.081,0-.121.007a2.047,2.047,0,0,1-.046,4.049Z" transform="translate(-889.815 -607.696)"/></clipPath><clipPath id="z"><ellipse class="a" cx="3.19" cy="3.343" rx="3.19" ry="3.343"/></clipPath><clipPath id="aa"><path class="a" d="M893.9,600.9c.065.007.131.012.2.016a3.351,3.351,0,0,0,.075-6.678c-.067,0-.133,0-.2.012a3.362,3.362,0,0,1-.075,6.651Z" transform="translate(-893.897 -594.24)"/></clipPath><clipPath id="ac"><path class="a" d="M893.49,600.5c.066.008.131.012.2.016a3.351,3.351,0,0,0,.076-6.678c-.067,0-.133.005-.2.011a3.362,3.362,0,0,1-.075,6.651Z" transform="translate(-893.49 -593.834)"/></clipPath><clipPath id="ad"><path class="a" d="M1027.9,609.3a9.75,9.75,0,0,1,7.867,5.756l8.643,19.532-106.672.007,9.648-19.539c1.391-3.177,4.37-5.885,7.865-5.756.24.009,17.983-.905,35.873-.908C1009.439,608.388,1027.9,609.3,1027.9,609.3Z" transform="translate(-937.742 -608.39)"/></clipPath><clipPath id="ae"><path class="a" d="M1057.9,666.2v18.071l-2.278,8.592a18.377,18.377,0,0,1-17.721,13.4H937.47a18.014,18.014,0,0,1-17.414-13.4l-2.281-8.592V666.2a8.552,8.552,0,0,1,.39-2.55l6.06-19.48a4.989,4.989,0,0,1,1.3-2.106L927,640.656a9.412,9.412,0,0,0,2.124-3.054l11.858-27.366a10.066,10.066,0,0,1,8.116-6c6.443-.718,23.007-2.023,38.588-2.023s32.145,1.305,38.592,2.023c3.585.4,7.3,2.693,8.728,6l11.859,27.366a9.451,9.451,0,0,0,2.124,3.054l1.467,1.409a4.922,4.922,0,0,1,1.3,2.106l5.755,19.48A8.657,8.657,0,0,1,1057.9,666.2Z" transform="translate(-917.775 -602.209)"/></clipPath></defs><g transform="translate(-850.068 -529.37)"><g transform="translate(1032.942 563.218)"><g transform="translate(0 14.706)"><ellipse class="b" cx="1.812" cy="6.749" rx="1.812" ry="6.749" transform="matrix(1, -0.03, 0.03, 1, 7.296, 0.535)"/><path class="c" d="M1129.211,606.363c2.4.032,3.021,1.011,3.158,1.721a.626.626,0,0,1-.6.744c-2.844.081-13.652,1.041-22.222-.283-4.463-.689-16.75-5.754-21.485-6.775-2.467-.328-8.524.34-8.524.34l-.715-6.837,12.79,2.293Z" transform="translate(-1071.44 -588.731)"/><path class="c" d="M1108.606,597.518s5.854,1.193,8.233.789c2.642-.448,2.931-3.229-1.532-4.221-3.481-.774-7.912-1.665-8.952-2.076-1.971-.78-9.762-4.515-12.755-4.548-6.693-.3-8.491.743-14.611.975-1.076,2.749.583,12.216.583,12.216l11.758-1.743,16.312,6.141-1.707-6.952Z" transform="translate(-1071.406 -587.408)"/><path class="c" d="M1109.511,594.183c2.614,1.333,2.126,2.778,7.07,5.46,5.27,2.858,21.063,3.971,24.523,4.884a4.086,4.086,0,0,1,2.324,1.443,1.465,1.465,0,0,1-1.319,2.337l-2.826-.283-26.012-3.629" transform="translate(-1076.601 -588.547)"/><path class="d" d="M1109.511,594.183c2.205,1.618,2.158,2.96,7.445,5.646" transform="translate(-1076.601 -588.547)"/><path class="c" d="M1132.673,606.43a44.919,44.919,0,0,1,5.862.627c1.839.374,2.632,1.247,2.727,2.531a1.278,1.278,0,0,1-1.308,1.362c-5.461-.128-24.532-.7-24.532-.7" transform="translate(-1077.595 -590.607)"/><path class="e" d="M1138.475,611.512a137.141,137.141,0,0,1-23-1.577" transform="translate(-1077.604 -591.196)"/><path class="e" d="M1136.161,606.43a44.919,44.919,0,0,1,5.862.627c1.554.316,2.361.988,2.631,1.964a1.8,1.8,0,0,1,0,1.152" transform="translate(-1081.083 -590.607)"/><path class="e" d="M1110.25,604.127c7.842,1.432,10.723,1.651,20.077,1.763a.723.723,0,0,0,.719-.788c-.07-.848-.65-2.278-3.158-2.6-3.841-.492-10.87-1.221-15.943-3.559-7.691-3.544-10.1-9.009-16.491-9.875" transform="translate(-1074.237 -587.687)"/><path class="f" d="M1069.959,594.9c.112,3.726,1.321,7.25,2.321,7.22l7.182-.643c-1,.03-1.9-2.965-2.016-6.691s.607-6.77,1.608-6.8l-7.488.114C1070.566,588.13,1069.846,591.174,1069.959,594.9Z" transform="translate(-1069.947 -587.505)"/></g><path class="g" d="M1139.728,586.124c.392-.428.732-.9,1.068-1.346.319-.465.622-.921.887-1.379a19.442,19.442,0,0,0,1.265-2.635c.155-.415.3-.8.419-1.169s.21-.716.3-1.029c.021-.072.037-.138.056-.207.061-.229.114-.447.153-.641.052-.25.1-.466.135-.643l.106-.545-.492.263-.567.3c-.216.12-.467.25-.749.382a25.464,25.464,0,0,1-4.25,1.69c-.4.117-.814.213-1.217.312-.415.077-.808.174-1.216.225-.8.136-1.586.195-2.336.255s-1.486.092-2.186.171a11.939,11.939,0,0,0-8.568,5.29,9.116,9.116,0,0,0-1.333,3.3,7.509,7.509,0,0,0-.145,1.268c-.012.236-.013.441-.006.621a7.22,7.22,0,0,1,0-.956,8.648,8.648,0,0,1,.161-1.374,10.111,10.111,0,0,1,1.4-3.559,12.608,12.608,0,0,1,2.89-3.207,7.418,7.418,0,0,0-.2-1.254,11.94,11.94,0,0,0-2.421-4.451,17.706,17.706,0,0,0-2.046-2.107,18.243,18.243,0,0,0-2.311-1.7,16.714,16.714,0,0,0-4.184-1.868c-.278-.077-.522-.148-.744-.2l-.567-.117-.479-.088a20.564,20.564,0,0,1,1.458,5.538c.158,1.494-.082,5.772.471,7.663a16.729,16.729,0,0,0,5.617,7.768s.141-.738.231-1.867a24.526,24.526,0,0,0-.042-4.162,26.345,26.345,0,0,0-.729-4.12c-.153-.552-.286-1.011-.4-1.327s-.166-.5-.166-.5a25.711,25.711,0,0,1,1.646,6.044,19.272,19.272,0,0,1-.029,6.294,13.808,13.808,0,0,1-.472,2.65h0l-.022.048.506.268c.187-.369.359-.75.56-1.111a10.924,10.924,0,0,1,.676-1.031c.166-.222.283-.481.45-.7a15.377,15.377,0,0,1,2.081-.139l.588.01.6.045c.2.012.4.039.6.066s.394.046.6.081a23.781,23.781,0,0,0,2.474.3,9.039,9.039,0,0,0,2.917-.337,12.861,12.861,0,0,0,2.3-.957,18.2,18.2,0,0,0,2.7-1.728A17.473,17.473,0,0,0,1139.728,586.124Zm-18.646,4.724v0h0Zm5.957-3.685a13.145,13.145,0,0,0-3.161,1.776,17.605,17.605,0,0,0-2.562,2.54c-.042.063-.082.128-.122.193.029-.168.058-.336.086-.5.014-.2.02-.391.025-.586.05-.057.108-.122.175-.193a12.076,12.076,0,0,1,1.2-1.174,12.577,12.577,0,0,1,1.937-1.351,15.862,15.862,0,0,1,2.461-1.077c1.724-.593,3.49-.977,4.789-1.356.651-.184,1.191-.35,1.565-.478s.587-.2.587-.2C1131.738,585.706,1129.305,586.247,1127.038,587.163Z" transform="translate(-1077.112 -569.729)"/></g><g transform="translate(850.068 556.664)"><g transform="translate(0 25.72)"><g class="h" transform="translate(0.338 0.338)"><path d="M870.109,604.427l-19.634-1.351.621-9.9,19.634,1.351Z" transform="translate(-850.475 -593.172)"/><path d="M870.109,604.427l-19.634-1.351.621-9.9,19.634,1.351Z" transform="translate(-850.475 -593.172)"/><path d="M851.469,602.492l.519-8.278,18.082,1.244-.519,8.278Z" transform="translate(-850.642 -593.347)"/><path d="M869.19,601.532l.226-3.615a1.606,1.606,0,0,1-1.45-1.733l-13.632-.938a1.583,1.583,0,0,1-1.655,1.52l-.227,3.615a1.606,1.606,0,0,1,1.451,1.734l13.632.938A1.582,1.582,0,0,1,869.19,601.532Z" transform="translate(-850.807 -593.521)"/><ellipse cx="2.769" cy="2.901" rx="2.769" ry="2.901" transform="translate(7.358 2.726)"/><path d="M861.934,601.545l.032-.5a2.537,2.537,0,0,1-.971-.293l.212-.6a2.225,2.225,0,0,0,.947.3c.329.023.563-.077.576-.286s-.166-.338-.586-.5c-.608-.231-1.015-.522-.983-1.03.029-.461.411-.8,1.038-.865l.031-.5.568.039-.029.461a2.283,2.283,0,0,1,.829.231l-.205.58a2.091,2.091,0,0,0-.823-.235c-.377-.026-.507.112-.517.259-.011.173.185.3.666.5.676.268.936.575.907,1.046s-.419.838-1.092.9l-.033.534Z" transform="translate(-852.244 -593.862)"/><ellipse cx="0.985" cy="1.031" rx="0.985" ry="1.031" transform="translate(3.761 4.226)"/><path d="M869.77,600.233a1.016,1.016,0,0,0-.917-1.1,1,1,0,0,0-1.047.962,1.016,1.016,0,0,0,.917,1.1A1,1,0,0,0,869.77,600.233Z" transform="translate(-853.389 -594.174)"/></g><path class="i" d="M869.7,604.021l-19.634-1.351.621-9.9,19.634,1.351Z" transform="translate(-850.068 -592.766)"/><path class="i" d="M869.7,604.021l-19.634-1.351.621-9.9,19.634,1.351Z" transform="translate(-850.068 -592.766)"/><g transform="translate(0.827 0.866)"><path class="j" d="M851.062,602.085l.519-8.278,18.082,1.245-.519,8.278Z" transform="translate(-851.062 -593.807)"/></g><g transform="translate(1.646 1.725)"><path class="i" d="M868.784,601.126l.226-3.616a1.607,1.607,0,0,1-1.451-1.734l-13.631-.937a1.583,1.583,0,0,1-1.655,1.519l-.227,3.616a1.607,1.607,0,0,1,1.451,1.734l13.632.938A1.582,1.582,0,0,1,868.784,601.126Z" transform="translate(-852.047 -594.839)"/></g><g transform="translate(7.358 2.726)"><ellipse class="j" cx="2.769" cy="2.901" rx="2.769" ry="2.901"/></g><g transform="translate(8.751 3.412)"><path class="i" d="M861.528,601.139l.031-.5a2.559,2.559,0,0,1-.971-.293l.213-.6a2.226,2.226,0,0,0,.947.3c.33.022.563-.077.576-.286s-.165-.338-.586-.5c-.608-.231-1.014-.522-.982-1.03.029-.461.411-.8,1.037-.865l.032-.5.567.039-.028.461a2.29,2.29,0,0,1,.829.23l-.2.581a2.09,2.09,0,0,0-.823-.235c-.376-.026-.507.112-.517.259-.011.173.185.3.667.5.675.267.936.575.906,1.046s-.419.839-1.091.9l-.034.534Z" transform="translate(-860.588 -596.868)"/></g><g transform="translate(3.761 4.226)"><ellipse class="j" cx="0.985" cy="1.031" rx="0.985" ry="1.031"/></g><g transform="translate(14.415 4.959)"><path class="j" d="M869.364,599.827a1.016,1.016,0,0,0-.918-1.1,1,1,0,0,0-1.047.962,1.017,1.017,0,0,0,.917,1.1A1,1,0,0,0,869.364,599.827Z" transform="translate(-867.397 -598.727)"/></g></g><g transform="translate(6.292 26.303)"><g class="h" transform="translate(0.338 0.338)"><path d="M883.162,601.712l-15.541,20.849-9.582-7.839,15.541-20.849Z" transform="translate(-858.039 -593.872)"/><path d="M883.162,601.712l-15.541,20.849-9.582-7.839,15.541-20.849Z" transform="translate(-858.039 -593.872)"/><path d="M867.731,621.39l-8.009-6.553,14.313-19.2,8.009,6.553Z" transform="translate(-858.322 -594.169)"/><path d="M879.75,601.576l-3.5-2.861a1.936,1.936,0,0,1-2.8.361L862.66,613.55a2.158,2.158,0,0,1,.344,2.935l3.5,2.862a1.937,1.937,0,0,1,2.8-.362l10.79-14.475A2.16,2.16,0,0,1,879.75,601.576Z" transform="translate(-858.816 -594.687)"/><ellipse cx="3.554" cy="3.723" rx="3.554" ry="3.723" transform="translate(9.008 10.621)"/><path d="M874.433,612.594l-.482-.393a3.445,3.445,0,0,1-1,.867l-.455-.67a3,3,0,0,0,.984-.839c.261-.35.329-.681.126-.848s-.461-.06-.927.292c-.673.509-1.261.75-1.753.349a1.381,1.381,0,0,1-.126-1.778l-.482-.393.449-.6.446.365a3.065,3.065,0,0,1,.833-.755l.439.646a2.828,2.828,0,0,0-.833.745c-.3.4-.252.645-.111.761.167.136.434.008.986-.382.759-.558,1.258-.626,1.714-.252a1.434,1.434,0,0,1,.121,1.862l.517.423Z" transform="translate(-860.104 -596.28)"/><ellipse cx="1.263" cy="1.324" rx="1.263" ry="1.324" transform="translate(7.038 18.736)"/><path d="M878.678,603.076a1.225,1.225,0,0,0-1.773.229,1.366,1.366,0,0,0,.218,1.857,1.226,1.226,0,0,0,1.773-.228A1.367,1.367,0,0,0,878.678,603.076Z" transform="translate(-861.167 -595.373)"/></g><path class="i" d="M882.755,601.305l-15.541,20.849-9.582-7.839,15.541-20.849Z" transform="translate(-857.633 -593.466)"/><path class="i" d="M882.755,601.305l-15.541,20.849-9.582-7.839,15.541-20.849Z" transform="translate(-857.633 -593.466)"/><g transform="translate(1.401 1.467)"><path class="j" d="M867.325,620.984l-8.009-6.553,14.313-19.2,8.009,6.553Z" transform="translate(-859.316 -595.23)"/></g><g transform="translate(3.844 4.027)"><path class="i" d="M879.344,601.169l-3.5-2.862a1.936,1.936,0,0,1-2.8.361l-10.79,14.475a2.16,2.16,0,0,1,.344,2.936l3.5,2.862a1.936,1.936,0,0,1,2.8-.361l10.79-14.475A2.159,2.159,0,0,1,879.344,601.169Z" transform="translate(-862.254 -598.307)"/></g><g transform="translate(9.008 10.621)"><ellipse class="j" cx="3.554" cy="3.723" rx="3.554" ry="3.723"/></g><g transform="translate(10.217 11.908)"><path class="i" d="M874.026,612.188l-.481-.394a3.418,3.418,0,0,1-1,.868l-.456-.67a2.981,2.981,0,0,0,.984-.838c.262-.35.329-.682.126-.848s-.461-.06-.927.291c-.673.509-1.261.751-1.753.349a1.382,1.382,0,0,1-.127-1.778l-.481-.394.449-.6.446.364a3.1,3.1,0,0,1,.832-.755l.44.647a2.814,2.814,0,0,0-.833.745c-.3.4-.253.646-.111.762.167.136.434.008.986-.382.759-.558,1.258-.626,1.714-.252a1.434,1.434,0,0,1,.121,1.862l.517.423Z" transform="translate(-869.915 -607.781)"/></g><g transform="translate(7.038 18.736)"><ellipse class="j" cx="1.263" cy="1.324" rx="1.263" ry="1.324"/></g><g transform="translate(15.47 7.423)"><path class="j" d="M878.272,602.67a1.225,1.225,0,0,0-1.773.229,1.365,1.365,0,0,0,.218,1.857,1.225,1.225,0,0,0,1.773-.229A1.366,1.366,0,0,0,878.272,602.67Z" transform="translate(-876.231 -602.39)"/></g></g><g transform="translate(36.63 22.215)"><g class="h" transform="translate(0.338 0.338)"><path d="M895.349,599.278l-.838-9.9,4.548-.423.838,9.9Z" transform="translate(-894.511 -588.959)"/><path d="M895.349,599.278l-.838-9.9,4.548-.423.838,9.9Z" transform="translate(-894.511 -588.959)"/><path d="M895,589.824l3.8-.353.772,9.115-3.8.353Z" transform="translate(-894.593 -589.045)"/><path d="M896.9,598.588l1.66-.154a.776.776,0,0,1,.68-.853l-.581-6.871a.761.761,0,0,1-.813-.713l-1.66.154a.775.775,0,0,1-.68.852l.582,6.872A.761.761,0,0,1,896.9,598.588Z" transform="translate(-894.678 -589.133)"/><ellipse cx="1.335" cy="1.398" rx="1.335" ry="1.398" transform="translate(1.358 3.761)"/><path d="M896.586,594.96l.228-.022a1.4,1.4,0,0,1,.062-.506l.289.062a1.206,1.206,0,0,0-.064.494c.014.167.077.276.172.267s.141-.107.183-.329c.061-.32.163-.545.4-.567.211-.019.393.146.47.454l.229-.022.024.286-.212.02a1.265,1.265,0,0,1-.043.431l-.279-.06a1.154,1.154,0,0,0,.046-.428c-.016-.19-.088-.245-.155-.239s-.121.114-.177.369c-.072.357-.192.509-.408.53s-.413-.147-.489-.479l-.245.023Z" transform="translate(-894.86 -589.867)"/><ellipse cx="0.475" cy="0.497" rx="0.475" ry="0.497" transform="translate(1.989 1.95)"/><path d="M897.965,598.75a.491.491,0,0,0,.431-.539.482.482,0,0,0-.515-.452.491.491,0,0,0-.43.539A.481.481,0,0,0,897.965,598.75Z" transform="translate(-895.005 -590.438)"/></g><path class="i" d="M894.942,598.871l-.838-9.9,4.548-.423.838,9.9Z" transform="translate(-894.105 -588.552)"/><path class="i" d="M894.942,598.871l-.838-9.9,4.548-.423.838,9.9Z" transform="translate(-894.105 -588.552)"/><g transform="translate(0.406 0.426)"><path class="j" d="M894.593,589.417l3.8-.353.772,9.114-3.8.353Z" transform="translate(-894.593 -589.064)"/></g><g transform="translate(0.825 0.864)"><path class="i" d="M896.491,598.182l1.66-.155a.776.776,0,0,1,.681-.852l-.582-6.871a.761.761,0,0,1-.813-.714l-1.66.155a.777.777,0,0,1-.681.852l.582,6.871A.761.761,0,0,1,896.491,598.182Z" transform="translate(-895.096 -589.591)"/></g><g transform="translate(1.358 3.761)"><ellipse class="j" cx="1.335" cy="1.398" rx="1.335" ry="1.398"/></g><g transform="translate(1.726 4.492)"><path class="i" d="M896.18,594.554l.228-.022a1.4,1.4,0,0,1,.062-.506l.289.062a1.215,1.215,0,0,0-.065.494c.014.166.077.275.173.266s.141-.107.183-.329c.06-.32.162-.545.4-.566.211-.02.393.146.47.453l.228-.021.024.286-.211.02a1.259,1.259,0,0,1-.043.43l-.28-.059a1.15,1.15,0,0,0,.047-.428c-.017-.19-.089-.245-.156-.239s-.12.115-.177.37c-.072.357-.191.509-.409.529s-.412-.147-.488-.478l-.245.023Z" transform="translate(-896.18 -593.952)"/></g><g transform="translate(1.989 1.95)"><ellipse class="j" cx="0.475" cy="0.497" rx="0.475" ry="0.497"/></g><g transform="translate(2.443 7.32)"><path class="j" d="M897.559,598.344a.492.492,0,0,0,.431-.539.482.482,0,0,0-.515-.452.491.491,0,0,0-.431.539A.482.482,0,0,0,897.559,598.344Z" transform="translate(-897.042 -597.352)"/></g></g><g transform="translate(28.027 11.291)"><g class="h" transform="translate(0.338 0.338)"><path d="M909.305,591l-25.137-2.5,1.147-12.68,25.137,2.5Z" transform="translate(-884.168 -575.825)"/><path d="M909.305,591l-25.137-2.5,1.147-12.68,25.137,2.5Z" transform="translate(-884.168 -575.825)"/><path d="M885.476,587.794l.959-10.6,23.151,2.3-.959,10.6Z" transform="translate(-884.388 -576.056)"/><path d="M908.264,587.261l.418-4.628a2.068,2.068,0,0,1-1.8-2.28L889.43,578.62a2.024,2.024,0,0,1-2.176,1.885l-.419,4.629a2.068,2.068,0,0,1,1.8,2.28l17.453,1.732A2.024,2.024,0,0,1,908.264,587.261Z" transform="translate(-884.617 -576.295)"/><ellipse cx="3.554" cy="3.723" rx="3.554" ry="3.723" transform="translate(9.588 3.865)"/><path d="M898.967,586.992l.058-.636a3.287,3.287,0,0,1-1.235-.413l.294-.763a2.872,2.872,0,0,0,1.2.417c.423.042.725-.077.749-.345s-.2-.439-.733-.661c-.772-.32-1.284-.71-1.224-1.36.053-.59.555-1.007,1.362-1.069l.057-.636.727.072-.053.591a2.926,2.926,0,0,1,1.055.328l-.284.736a2.7,2.7,0,0,0-1.047-.334c-.482-.048-.655.124-.671.312-.02.221.226.388.838.665.857.369,1.18.774,1.125,1.377s-.567,1.06-1.432,1.11l-.062.684Z" transform="translate(-886.459 -576.784)"/><ellipse cx="1.263" cy="1.324" rx="1.263" ry="1.324" transform="translate(4.988 5.58)"/><path d="M909.083,585.61a1.308,1.308,0,0,0-1.139-1.442,1.281,1.281,0,0,0-1.377,1.193,1.308,1.308,0,0,0,1.138,1.442A1.281,1.281,0,0,0,909.083,585.61Z" transform="translate(-887.934 -577.227)"/></g><path class="i" d="M908.9,590.595l-25.137-2.5,1.147-12.68,25.137,2.5Z" transform="translate(-883.762 -575.419)"/><path class="i" d="M908.9,590.595l-25.137-2.5,1.147-12.68,25.137,2.5Z" transform="translate(-883.762 -575.419)"/><g transform="translate(1.088 1.139)"><path class="j" d="M885.069,587.387l.959-10.6,23.151,2.3-.959,10.6Z" transform="translate(-885.069 -576.789)"/></g><g transform="translate(2.219 2.325)"><path class="i" d="M907.857,586.855l.419-4.629a2.068,2.068,0,0,1-1.8-2.279l-17.453-1.733a2.024,2.024,0,0,1-2.175,1.885l-.419,4.629a2.067,2.067,0,0,1,1.8,2.279l17.453,1.733A2.025,2.025,0,0,1,907.857,586.855Z" transform="translate(-886.429 -578.214)"/></g><g transform="translate(9.588 3.865)"><ellipse class="j" cx="3.554" cy="3.723" rx="3.554" ry="3.723"/></g><g transform="translate(11.331 4.74)"><path class="i" d="M898.561,586.586l.057-.637a3.267,3.267,0,0,1-1.234-.413l.294-.762a2.869,2.869,0,0,0,1.2.417c.423.042.725-.077.75-.344s-.2-.439-.734-.662c-.771-.319-1.283-.709-1.224-1.359.053-.59.555-1.006,1.361-1.069l.058-.637.726.072-.053.59a2.947,2.947,0,0,1,1.056.329l-.284.736a2.7,2.7,0,0,0-1.047-.334c-.483-.047-.655.125-.672.313-.02.221.227.388.839.665.857.369,1.179.774,1.125,1.377s-.567,1.06-1.432,1.11l-.062.684Z" transform="translate(-897.384 -581.118)"/></g><g transform="translate(4.988 5.58)"><ellipse class="j" cx="1.263" cy="1.324" rx="1.263" ry="1.324"/></g><g transform="translate(18.627 6.934)"><path class="j" d="M908.676,585.2a1.307,1.307,0,0,0-1.138-1.442,1.281,1.281,0,0,0-1.378,1.193A1.309,1.309,0,0,0,907.3,586.4,1.282,1.282,0,0,0,908.676,585.2Z" transform="translate(-906.155 -583.755)"/></g></g><g transform="translate(38.08 28.429)"><g class="h" transform="translate(0.338 0.338)"><path d="M924.164,608.355l-23.643,9.286-4.268-11.926,23.643-9.286Z" transform="translate(-896.253 -596.429)"/><path d="M924.164,608.355l-23.643,9.286-4.268-11.926,23.643-9.286Z" transform="translate(-896.253 -596.429)"/><path d="M901.365,616.568,897.8,606.6l21.774-8.552,3.567,9.969Z" transform="translate(-896.513 -596.701)"/><path d="M921.691,605.91l-1.558-4.354a1.97,1.97,0,0,1-2.57-1.224l-16.415,6.447a2.123,2.123,0,0,1-1.169,2.693l1.558,4.354a1.971,1.971,0,0,1,2.57,1.224l16.415-6.448A2.121,2.121,0,0,1,921.691,605.91Z" transform="translate(-896.88 -597.085)"/><ellipse cx="3.554" cy="3.723" rx="3.554" ry="3.723" transform="translate(10.402 6.883)"/><path d="M913.169,611.264l-.214-.6a3.246,3.246,0,0,1-1.283.195l-.054-.82a2.834,2.834,0,0,0,1.257-.177c.4-.156.62-.4.53-.654s-.363-.3-.936-.259c-.828.067-1.45-.049-1.669-.66a1.353,1.353,0,0,1,.777-1.585l-.214-.6.683-.268.2.555a2.923,2.923,0,0,1,1.086-.19l.052.792a2.686,2.686,0,0,0-1.081.18c-.453.178-.536.413-.473.589.074.208.366.245,1.031.213.924-.061,1.383.155,1.586.722a1.4,1.4,0,0,1-.823,1.655l.229.643Z" transform="translate(-898.689 -598.011)"/><ellipse cx="1.263" cy="1.324" rx="1.263" ry="1.324" transform="translate(6.211 11.828)"/><path d="M921.588,605.449a1.248,1.248,0,0,0-1.626-.774,1.343,1.343,0,0,0-.739,1.7,1.246,1.246,0,0,0,1.626.774A1.343,1.343,0,0,0,921.588,605.449Z" transform="translate(-900.102 -597.801)"/></g><path class="i" d="M923.757,607.949l-23.643,9.286-4.268-11.926,23.643-9.286Z" transform="translate(-895.847 -596.022)"/><path class="i" d="M923.757,607.949l-23.643,9.286-4.268-11.926,23.643-9.286Z" transform="translate(-895.847 -596.022)"/><g transform="translate(1.285 1.346)"><path class="j" d="M900.958,616.161l-3.567-9.969,21.774-8.552,3.567,9.969Z" transform="translate(-897.391 -597.64)"/></g><g transform="translate(3.1 3.247)"><path class="i" d="M921.284,605.5l-1.558-4.354a1.972,1.972,0,0,1-2.57-1.224l-16.414,6.447a2.123,2.123,0,0,1-1.169,2.693l1.558,4.354a1.972,1.972,0,0,1,2.57,1.224l16.414-6.447A2.122,2.122,0,0,1,921.284,605.5Z" transform="translate(-899.573 -599.926)"/></g><g transform="translate(10.402 6.883)"><ellipse class="j" cx="3.554" cy="3.723" rx="3.554" ry="3.723"/></g><g transform="translate(12.049 7.825)"><path class="i" d="M912.763,610.857l-.215-.6a3.231,3.231,0,0,1-1.283.195l-.055-.819a2.826,2.826,0,0,0,1.258-.178c.4-.156.62-.4.53-.654s-.363-.3-.936-.258c-.828.066-1.45-.049-1.669-.661a1.354,1.354,0,0,1,.777-1.586l-.215-.6.684-.269.2.555a2.9,2.9,0,0,1,1.086-.189l.053.792a2.675,2.675,0,0,0-1.081.181c-.453.178-.536.412-.473.589.074.208.366.245,1.031.213.925-.061,1.384.155,1.587.722a1.405,1.405,0,0,1-.824,1.655l.23.643Z" transform="translate(-910.331 -605.429)"/></g><g transform="translate(6.211 11.828)"><ellipse class="j" cx="1.263" cy="1.324" rx="1.263" ry="1.324"/></g><g transform="translate(19.039 6.789)"><path class="j" d="M921.182,605.043a1.247,1.247,0,0,0-1.627-.774,1.343,1.343,0,0,0-.74,1.7,1.248,1.248,0,0,0,1.627.775A1.344,1.344,0,0,0,921.182,605.043Z" transform="translate(-918.735 -604.184)"/></g></g><g transform="translate(7.152 10.653)"><g class="h" transform="translate(0.338 0.338)"><path d="M872.34,580.727,861.1,585.142l-2.029-5.669,11.239-4.414Z" transform="translate(-859.073 -575.058)"/><path d="M872.34,580.727,861.1,585.142l-2.029-5.669,11.239-4.414Z" transform="translate(-859.073 -575.058)"/><path d="M861.5,584.631l-1.7-4.739,10.35-4.066,1.7,4.739Z" transform="translate(-859.196 -575.187)"/><path d="M871.165,579.565l-.741-2.07a.937.937,0,0,1-1.222-.581l-7.8,3.065a1.01,1.01,0,0,1-.556,1.28l.74,2.07a.937.937,0,0,1,1.222.582l7.8-3.065A1.009,1.009,0,0,1,871.165,579.565Z" transform="translate(-859.371 -575.37)"/><ellipse cx="1.689" cy="1.77" rx="1.689" ry="1.77" transform="translate(4.944 3.272)"/><path d="M867.114,582.11l-.1-.285a1.541,1.541,0,0,1-.611.092l-.026-.389a1.35,1.35,0,0,0,.6-.085c.189-.074.294-.191.251-.31s-.172-.145-.444-.123c-.393.032-.69-.023-.794-.314a.645.645,0,0,1,.369-.754l-.1-.285.324-.127.095.264a1.383,1.383,0,0,1,.516-.09l.026.376a1.281,1.281,0,0,0-.514.086c-.216.085-.255.2-.225.28s.174.117.49.1c.44-.029.658.073.754.343a.668.668,0,0,1-.392.787l.11.305Z" transform="translate(-860.231 -575.81)"/><ellipse cx="0.601" cy="0.629" rx="0.601" ry="0.629" transform="translate(2.953 5.623)"/><path d="M871.116,579.346a.593.593,0,0,0-.773-.368.639.639,0,0,0-.352.81.594.594,0,0,0,.774.368A.639.639,0,0,0,871.116,579.346Z" transform="translate(-860.903 -575.711)"/></g><path class="i" d="M871.934,580.321,860.7,584.735l-2.029-5.669,11.239-4.414Z" transform="translate(-858.667 -574.652)"/><path class="i" d="M871.934,580.321,860.7,584.735l-2.029-5.669,11.239-4.414Z" transform="translate(-858.667 -574.652)"/><g transform="translate(0.611 0.64)"><path class="j" d="M861.1,584.225l-1.7-4.739,10.351-4.066,1.7,4.739Z" transform="translate(-859.401 -575.421)"/></g><g transform="translate(1.473 1.543)"><path class="i" d="M870.758,579.159l-.74-2.07a.936.936,0,0,1-1.222-.582l-7.8,3.065a1.009,1.009,0,0,1-.556,1.28l.74,2.07a.937.937,0,0,1,1.222.581l7.8-3.064A1.008,1.008,0,0,1,870.758,579.159Z" transform="translate(-860.438 -576.507)"/></g><g transform="translate(4.944 3.272)"><ellipse class="j" cx="1.689" cy="1.77" rx="1.689" ry="1.77"/></g><g transform="translate(5.727 3.719)"><path class="i" d="M866.708,581.7l-.1-.284a1.537,1.537,0,0,1-.61.092l-.026-.389a1.345,1.345,0,0,0,.6-.085c.19-.074.3-.191.252-.311s-.172-.144-.445-.122c-.393.032-.689-.023-.793-.314a.642.642,0,0,1,.369-.754l-.1-.284.325-.128.095.264a1.371,1.371,0,0,1,.516-.091l.025.377a1.265,1.265,0,0,0-.514.086c-.215.085-.254.2-.225.279.035.1.174.117.49.1.44-.029.658.074.754.344a.667.667,0,0,1-.392.786l.109.306Z" transform="translate(-865.552 -579.123)"/></g><g transform="translate(2.953 5.623)"><ellipse class="j" cx="0.601" cy="0.629" rx="0.601" ry="0.629"/></g><g transform="translate(9.05 3.227)"><path class="j" d="M870.71,578.94a.592.592,0,0,0-.773-.368.638.638,0,0,0-.352.81.592.592,0,0,0,.773.368A.637.637,0,0,0,870.71,578.94Z" transform="translate(-869.547 -578.531)"/></g></g><g transform="translate(22.472 12.35)"><g class="h" transform="translate(0.338 0.339)"><ellipse cx="1.929" cy="2.02" rx="1.929" ry="2.02" transform="translate(0 0.002)"/><g transform="translate(0 0.002)"><g class="k"><path class="l" d="M881.228,578.823a2.019,2.019,0,0,0-.791-1.228,3.579,3.579,0,0,1-2,3.015l.776.4,1.046.031A2.056,2.056,0,0,0,881.228,578.823Z" transform="translate(-877.65 -577.185)"/></g></g><path class="m" d="M880.085,581.1c.04-.005.079-.012.119-.019a2.028,2.028,0,0,0,1.393-2.391,1.934,1.934,0,0,0-2.226-1.553c-.043.012-.078.016-.123.03a1.953,1.953,0,0,1,2.115,1.577A2.035,2.035,0,0,1,880.085,581.1Z" transform="translate(-877.786 -577.1)"/><g transform="translate(1.47 0.002)"><g class="n"><path d="M881.4,578.47l.6.02-.2-.529-.727.03Z" transform="translate(-879.563 -577.247)"/><path d="M880.853,577.725l.723,0-.066-.166-.862.061Z" transform="translate(-879.491 -577.18)"/></g></g><ellipse class="o" cx="1.398" cy="1.577" rx="1.398" ry="1.577" transform="translate(0.215 0.689) rotate(-7.796)"/><path d="M879.186,580.863a1.536,1.536,0,0,1-1.117-.974,1.816,1.816,0,0,1,.05-1.511,1.381,1.381,0,0,1,1.278-.752,1.515,1.515,0,0,1,1.228.829,1.5,1.5,0,0,0-1.229-.8,1.337,1.337,0,0,0-1.224.749,1.775,1.775,0,0,0-.075,1.472A1.521,1.521,0,0,0,879.186,580.863Z" transform="translate(-877.564 -577.188)"/><path d="M879.841,580.062l.05.236-.224.03-.057-.044.009-.181a.754.754,0,0,1-.457-.119l-.062-.057.157-.2a.546.546,0,0,0,.4.1c.14-.022.209-.094.186-.2-.018-.086-.088-.128-.3-.136-.354-.015-.477-.134-.519-.335a.432.432,0,0,1,.282-.5l-.05-.24.193-.134.026.083.052.242a.942.942,0,0,1,.373,0l.022.071-.083.282a.569.569,0,0,0-.379-.065c-.117.024-.192.093-.171.195.018.084.075.118.28.125.369.009.507.116.554.338A.417.417,0,0,1,879.841,580.062Z" transform="translate(-877.748 -577.299)"/><path class="p" d="M879.789,580l.05.236-.223.031-.048-.226a.759.759,0,0,1-.456-.118l.095-.261a.545.545,0,0,0,.4.1c.139-.023.208-.094.186-.2-.018-.086-.088-.127-.3-.135-.354-.016-.477-.134-.519-.335a.432.432,0,0,1,.282-.5l-.051-.24.22-.051.051.242a.8.8,0,0,1,.4.068l-.083.281a.575.575,0,0,0-.379-.065c-.116.024-.193.094-.171.195.018.084.075.119.28.126.369.009.507.116.554.337A.417.417,0,0,1,879.789,580Z" transform="translate(-877.739 -577.303)"/></g><ellipse class="q" cx="1.929" cy="2.02" rx="1.929" ry="2.02" transform="translate(0 0.003)"/><g transform="translate(0 0.003)"><g class="k"><path class="r" d="M880.821,578.417a2.021,2.021,0,0,0-.791-1.228,3.579,3.579,0,0,1-2,3.015l.775.4,1.046.031A2.055,2.055,0,0,0,880.821,578.417Z" transform="translate(-877.244 -576.779)"/></g></g><path class="s" d="M879.679,580.688c.039,0,.079-.011.119-.018a2.028,2.028,0,0,0,1.393-2.391,1.935,1.935,0,0,0-2.227-1.554c-.043.013-.077.017-.122.03a1.953,1.953,0,0,1,2.115,1.578A2.036,2.036,0,0,1,879.679,580.688Z" transform="translate(-877.38 -576.693)"/><g transform="translate(1.47 0.002)"><g class="t"><g class="u" transform="translate(1.157 0.383)"><path class="v" d="M881,578.064l.6.02-.2-.529-.727.03Z" transform="translate(-880.314 -577.223)"/><path class="v" d="M880.446,577.319l.723,0-.066-.166-.862.061Z" transform="translate(-880.242 -577.156)"/></g></g></g><ellipse class="w" cx="1.398" cy="1.577" rx="1.398" ry="1.577" transform="translate(0.215 0.69) rotate(-7.796)"/><g class="x" transform="translate(0.365 0.437)"><path class="y" d="M878.78,580.456a1.534,1.534,0,0,1-1.118-.973,1.819,1.819,0,0,1,.051-1.511,1.379,1.379,0,0,1,1.278-.752,1.512,1.512,0,0,1,1.227.829,1.5,1.5,0,0,0-1.229-.8,1.336,1.336,0,0,0-1.224.75,1.774,1.774,0,0,0-.075,1.472A1.518,1.518,0,0,0,878.78,580.456Z" transform="translate(-877.522 -577.218)"/></g><g transform="translate(1.274 0.985)"><path class="z" d="M879.435,579.655l.05.236-.224.031-.057-.045.01-.181a.759.759,0,0,1-.457-.118l-.062-.057.157-.2a.546.546,0,0,0,.4.1c.139-.022.208-.093.186-.2-.018-.086-.088-.127-.3-.135-.354-.016-.477-.134-.519-.335a.432.432,0,0,1,.282-.5l-.051-.239.194-.134.026.083.051.241a.974.974,0,0,1,.373,0l.022.072-.083.281a.57.57,0,0,0-.379-.064c-.116.024-.193.093-.171.194.017.084.075.119.28.126.369.009.508.116.554.338A.416.416,0,0,1,879.435,579.655Z" transform="translate(-878.615 -577.877)"/></g><g transform="translate(1.232 1.004)"><path class="aa" d="M879.383,579.6l.05.236-.223.031-.048-.226a.75.75,0,0,1-.456-.119l.094-.26a.55.55,0,0,0,.405.1c.139-.022.208-.094.186-.2-.018-.086-.088-.128-.3-.135-.354-.016-.476-.135-.518-.336a.43.43,0,0,1,.282-.5l-.051-.24.219-.051.052.242a.818.818,0,0,1,.4.067l-.084.282a.572.572,0,0,0-.379-.065c-.116.024-.193.094-.171.195.017.084.075.118.28.125.369.01.507.117.554.338A.418.418,0,0,1,879.383,579.6Z" transform="translate(-878.565 -577.9)"/></g></g><g transform="translate(10.623 37.383)"><g class="h" transform="translate(0.338 0.338)"><ellipse cx="2.096" cy="2.196" rx="2.096" ry="2.196" transform="translate(0.161 0.001)"/><g transform="translate(0.161 0.001)"><g class="ab"><path class="l" d="M867.2,608.064a2.04,2.04,0,0,0-1.412-.636,4.075,4.075,0,0,1-.134,3.986l.931-.116.974-.616A2.274,2.274,0,0,0,867.2,608.064Z" transform="translate(-863.812 -607.233)"/></g></g><path class="m" d="M867.1,610.964c.033-.028.066-.059.1-.09a2.272,2.272,0,0,0-.067-3.044,2.03,2.03,0,0,0-2.907-.05c-.032.038-.062.063-.095.1a2.04,2.04,0,0,1,2.818.141A2.273,2.273,0,0,1,867.1,610.964Z" transform="translate(-863.393 -607.192)"/><g transform="translate(0.743 0.001)"><g class="ac"><path d="M866.826,607.791l.564-.354-.482-.358-.647.474Z" transform="translate(-864.495 -607.175)"/><path d="M865.907,607.432l.663-.443-.153-.111-.754.587Z" transform="translate(-864.395 -607.141)"/></g></g><ellipse class="ad" cx="1.543" cy="1.688" rx="1.543" ry="1.688" transform="translate(0 1.598) rotate(-29.574)"/><path d="M866.256,611.208a1.563,1.563,0,0,1-1.586-.21,1.92,1.92,0,0,1-.786-1.436,1.606,1.606,0,0,1,.736-1.44,1.559,1.559,0,0,1,1.6,0,1.591,1.591,0,0,0-1.578.037,1.553,1.553,0,0,0-.694,1.4,1.867,1.867,0,0,0,.746,1.4A1.6,1.6,0,0,0,866.256,611.208Z" transform="translate(-863.352 -607.312)"/><path d="M866.347,610.245l.178.185-.187.166-.077-.006-.093-.171a.824.824,0,0,1-.484.172l-.088-.012.028-.284a.6.6,0,0,0,.428-.155c.115-.106.137-.214.058-.3-.064-.067-.152-.062-.348.06-.333.2-.511.171-.663.013a.483.483,0,0,1-.022-.632l-.18-.187.1-.241.07.06.183.19a1.066,1.066,0,0,1,.339-.233l.06.051.081.309a.635.635,0,0,0-.383.175c-.093.094-.124.2-.047.284s.135.062.326-.058c.343-.219.53-.206.7-.032A.467.467,0,0,1,866.347,610.245Z" transform="translate(-863.523 -607.472)"/><path class="ae" d="M866.257,610.218l.178.186-.187.165-.171-.177a.826.826,0,0,1-.483.172l-.06-.3a.6.6,0,0,0,.427-.154c.115-.107.138-.215.058-.3-.064-.067-.152-.062-.348.061-.332.2-.511.171-.662.012a.482.482,0,0,1-.023-.632l-.18-.188.171-.181.183.191a.9.9,0,0,1,.4-.182l.081.309a.636.636,0,0,0-.383.175c-.093.093-.123.2-.047.283s.135.062.327-.058c.342-.218.529-.205.7-.032A.467.467,0,0,1,866.257,610.218Z" transform="translate(-863.508 -607.478)"/></g><g transform="translate(0)"><g transform="translate(0)"><ellipse class="q" cx="2.096" cy="2.196" rx="2.096" ry="2.196" transform="translate(0.161 0.001)"/><g transform="translate(0.161 0.001)"><g class="ab"><path class="r" d="M866.794,607.657a2.045,2.045,0,0,0-1.412-.635,4.078,4.078,0,0,1-.134,3.986l.931-.116.974-.616A2.276,2.276,0,0,0,866.794,607.657Z" transform="translate(-863.405 -606.827)"/></g></g><path class="s" d="M866.689,610.558c.033-.028.066-.059.1-.091a2.271,2.271,0,0,0-.067-3.043,2.03,2.03,0,0,0-2.907-.05c-.032.038-.062.062-.1.1a2.042,2.042,0,0,1,2.819.141A2.273,2.273,0,0,1,866.689,610.558Z" transform="translate(-862.987 -606.786)"/><g transform="translate(0.743 0.001)"><g class="af"><g class="u" transform="translate(1.269 -0.262)"><path class="v" d="M866.42,607.385l.564-.354-.482-.358-.647.474Z" transform="translate(-865.357 -606.506)"/><path class="v" d="M865.5,607.026l.663-.443-.153-.111-.754.587Z" transform="translate(-865.257 -606.472)"/></g></g></g><ellipse class="ag" cx="1.543" cy="1.688" rx="1.543" ry="1.688" transform="translate(0 1.597) rotate(-29.574)"/><g class="x" transform="translate(0.53 0.589)"><path class="y" d="M865.85,610.8a1.563,1.563,0,0,1-1.587-.21,1.921,1.921,0,0,1-.785-1.436,1.608,1.608,0,0,1,.735-1.441,1.563,1.563,0,0,1,1.6,0,1.593,1.593,0,0,0-1.578.037,1.553,1.553,0,0,0-.694,1.4,1.866,1.866,0,0,0,.746,1.4A1.6,1.6,0,0,0,865.85,610.8Z" transform="translate(-863.476 -607.495)"/></g><g transform="translate(1.373 1.382)"><path class="z" d="M865.94,609.838l.178.186-.187.166-.077-.006-.093-.171a.832.832,0,0,1-.484.172l-.089-.013.029-.284a.6.6,0,0,0,.427-.154c.115-.106.138-.215.059-.3-.065-.067-.152-.062-.349.061-.332.2-.51.171-.662.012a.483.483,0,0,1-.023-.632l-.18-.188.1-.241.071.06.182.19a1.086,1.086,0,0,1,.34-.234l.06.052.081.308a.636.636,0,0,0-.383.175c-.093.093-.124.2-.047.283s.135.062.326-.058c.343-.218.53-.205.7-.032A.467.467,0,0,1,865.94,609.838Z" transform="translate(-864.489 -608.448)"/></g><g transform="translate(1.299 1.41)"><path class="ah" d="M865.851,609.812l.178.185-.187.166-.171-.177a.828.828,0,0,1-.484.172l-.06-.3a.6.6,0,0,0,.428-.155c.115-.106.138-.214.059-.3s-.152-.062-.348.06c-.333.2-.511.171-.663.013a.481.481,0,0,1-.022-.631l-.181-.188.171-.181.182.19a.9.9,0,0,1,.4-.181l.082.309a.63.63,0,0,0-.383.174c-.093.094-.124.2-.047.284s.135.062.326-.058c.343-.219.53-.206.7-.032A.468.468,0,0,1,865.851,609.812Z" transform="translate(-864.4 -608.482)"/></g></g></g></g><g transform="translate(58.235 17.845)"><g class="h" transform="translate(0.338 0.338)"><ellipse cx="2.946" cy="3.086" rx="2.946" ry="3.086" transform="translate(0.294 0.001)"/><g transform="translate(0.294 0.001)"><g class="ai"><path class="l" d="M925.833,584.7a2.842,2.842,0,0,0-2.08-.613,5.732,5.732,0,0,1,.517,5.579l1.278-.341,1.248-1.047A3.178,3.178,0,0,0,925.833,584.7Z" transform="translate(-921.327 -583.768)"/></g></g><path class="m" d="M926.186,588.706c.042-.046.081-.095.12-.145a3.183,3.183,0,0,0-.63-4.227,2.856,2.856,0,0,0-4.058.494c-.038.059-.075.1-.114.161a2.868,2.868,0,0,1,3.951-.35A3.182,3.182,0,0,1,926.186,588.706Z" transform="translate(-920.654 -583.705)"/><g transform="translate(0.864 0.001)"><g class="aj"><path d="M925.242,584.377l.723-.6-.735-.405-.818.787Z" transform="translate(-922.008 -583.649)"/><path d="M923.9,584.051l.845-.745-.233-.125-.947.964Z" transform="translate(-921.866 -583.617)"/></g></g><ellipse class="ak" cx="2.18" cy="2.359" rx="2.18" ry="2.359" transform="matrix(0.815, -0.579, 0.579, 0.815, 0, 2.592)"/><path d="M925.087,589.208a2.193,2.193,0,0,1-2.248.015,2.659,2.659,0,0,1-1.349-1.86,2.285,2.285,0,0,1,.774-2.139,2.2,2.2,0,0,1,2.229-.309,2.244,2.244,0,0,0-2.19.356,2.208,2.208,0,0,0-.723,2.076,2.58,2.58,0,0,0,1.289,1.822A2.238,2.238,0,0,0,925.087,589.208Z" transform="translate(-920.647 -583.88)"/><path d="M925,587.891l.281.224-.232.267-.108.007-.161-.221a1.174,1.174,0,0,1-.643.334l-.127,0-.009-.4a.853.853,0,0,0,.568-.3c.141-.17.155-.324.03-.424-.1-.081-.224-.057-.475.151-.427.348-.681.337-.921.146a.676.676,0,0,1-.143-.876l-.284-.227.1-.355.109.07.288.229c.145-.146.275-.333.432-.391l.093.06.168.414a.9.9,0,0,0-.5.317c-.113.149-.136.309-.017.4.1.08.2.061.445-.144.438-.371.7-.389.963-.18A.653.653,0,0,1,925,587.891Z" transform="translate(-920.868 -584.112)"/><path class="al" d="M924.866,587.867l.281.224-.231.267-.27-.215a1.173,1.173,0,0,1-.643.334l-.136-.4a.853.853,0,0,0,.568-.3c.141-.17.155-.324.03-.424-.1-.081-.224-.057-.475.151-.427.348-.681.337-.92.146a.676.676,0,0,1-.144-.876l-.284-.227.207-.285.288.229a1.29,1.29,0,0,1,.525-.331l.168.414a.9.9,0,0,0-.5.317c-.113.149-.136.309-.016.4.1.08.2.061.444-.144.438-.371.7-.389.964-.18A.654.654,0,0,1,924.866,587.867Z" transform="translate(-920.846 -584.118)"/></g><g transform="translate(0)"><ellipse class="q" cx="2.946" cy="3.086" rx="2.946" ry="3.086" transform="translate(0.294 0.001)"/><g transform="translate(0.294 0.001)"><g class="ai"><path class="r" d="M925.427,584.295a2.838,2.838,0,0,0-2.08-.612,5.732,5.732,0,0,1,.517,5.579l1.277-.342,1.248-1.046A3.178,3.178,0,0,0,925.427,584.295Z" transform="translate(-920.92 -583.361)"/></g></g><path class="s" d="M925.78,588.3q.061-.07.12-.145a3.184,3.184,0,0,0-.63-4.227,2.857,2.857,0,0,0-4.058.495c-.038.059-.076.1-.115.161a2.87,2.87,0,0,1,3.952-.351A3.185,3.185,0,0,1,925.78,588.3Z" transform="translate(-920.248 -583.298)"/><g transform="translate(0.865 0.001)"><g class="am"><g class="u" transform="translate(1.702 -0.437)"><path class="v" d="M924.836,583.97l.723-.6-.735-.405-.818.787Z" transform="translate(-923.304 -582.806)"/><path class="v" d="M923.5,583.645l.845-.745-.233-.125-.947.964Z" transform="translate(-923.162 -582.774)"/></g></g></g><ellipse class="an" cx="2.18" cy="2.359" rx="2.18" ry="2.359" transform="matrix(0.815, -0.579, 0.579, 0.815, 0, 2.592)"/><g class="x" transform="translate(0.811 0.865)"><path class="y" d="M924.681,588.8a2.195,2.195,0,0,1-2.248.015,2.657,2.657,0,0,1-1.349-1.86,2.285,2.285,0,0,1,.774-2.139,2.2,2.2,0,0,1,2.229-.309,2.246,2.246,0,0,0-2.19.355,2.209,2.209,0,0,0-.723,2.077,2.581,2.581,0,0,0,1.288,1.822A2.238,2.238,0,0,0,924.681,588.8Z" transform="translate(-921.051 -584.338)"/></g><g transform="translate(1.906 2.013)"><path class="z" d="M924.592,587.485l.281.224-.232.266-.108.008-.16-.221a1.177,1.177,0,0,1-.643.334l-.126,0-.01-.4a.85.85,0,0,0,.569-.3c.141-.17.154-.325.029-.424-.1-.081-.223-.057-.474.151-.427.348-.681.336-.921.146a.676.676,0,0,1-.144-.876l-.284-.226.1-.356.108.07.288.23c.145-.146.275-.333.432-.391l.093.06.168.414a.9.9,0,0,0-.5.317c-.113.149-.136.309-.017.4.1.079.2.06.445-.145.438-.371.7-.389.963-.18A.654.654,0,0,1,924.592,587.485Z" transform="translate(-922.368 -585.718)"/></g><g transform="translate(1.796 2.043)"><path class="ao" d="M924.46,587.461l.281.224-.232.266-.269-.214a1.176,1.176,0,0,1-.643.334l-.136-.4a.855.855,0,0,0,.569-.3c.141-.17.154-.325.029-.424-.1-.081-.223-.057-.474.151-.427.348-.681.336-.921.146a.674.674,0,0,1-.143-.875l-.285-.227.208-.286.288.23a1.271,1.271,0,0,1,.525-.331l.168.414a.9.9,0,0,0-.5.317c-.113.149-.136.309-.017.4.1.079.2.06.445-.145.438-.371.7-.389.963-.18A.653.653,0,0,1,924.46,587.461Z" transform="translate(-922.236 -585.754)"/></g></g></g><g transform="translate(50.299 6.864)"><g class="h" transform="translate(0.338 0.338)"><ellipse cx="1.901" cy="1.991" rx="1.901" ry="1.991" transform="translate(0 0.002)"/><g transform="translate(0 0.002)"><g class="ap"><path class="l" d="M914.606,571.991a1.96,1.96,0,0,0-.908-1.109,3.576,3.576,0,0,1-1.628,3.19l.8.3,1.028-.094A2.045,2.045,0,0,0,914.606,571.991Z" transform="translate(-911.132 -570.57)"/></g></g><path class="m" d="M913.669,574.385c.038-.009.076-.021.114-.032a2.021,2.021,0,0,0,1.105-2.506,1.885,1.885,0,0,0-2.347-1.257c-.042.017-.075.025-.117.044a1.9,1.9,0,0,1,2.242,1.293A2.028,2.028,0,0,1,913.669,574.385Z" transform="translate(-911.192 -570.504)"/><g transform="translate(1.241 0.002)"><g class="aq"><path d="M914.676,571.655l.594-.052-.256-.493-.708.115Z" transform="translate(-912.749 -570.608)"/><path d="M914.056,570.988l.708-.083-.082-.155-.838.162Z" transform="translate(-912.671 -570.547)"/></g></g><ellipse class="ar" cx="1.38" cy="1.552" rx="1.38" ry="1.552" transform="matrix(0.978, -0.207, 0.207, 0.978, 0.121, 0.815)"/><path d="M912.794,574.244a1.5,1.5,0,0,1-1.2-.825,1.794,1.794,0,0,1-.111-1.485,1.378,1.378,0,0,1,1.164-.884,1.474,1.474,0,0,1,1.3.666,1.459,1.459,0,0,0-1.294-.636,1.333,1.333,0,0,0-1.111.876,1.746,1.746,0,0,0,.082,1.449A1.479,1.479,0,0,0,912.794,574.244Z" transform="translate(-911.014 -570.595)"/><path d="M913.333,573.406l.075.225-.215.057-.061-.037-.011-.178a.74.74,0,0,1-.459-.062l-.067-.047.131-.219a.538.538,0,0,0,.408.052c.134-.038.194-.116.161-.216-.028-.081-.1-.115-.306-.1-.349.027-.481-.075-.545-.267a.431.431,0,0,1,.222-.524l-.075-.229.175-.154.034.078.077.231a.931.931,0,0,1,.365-.048l.029.067-.051.285a.56.56,0,0,0-.378-.018c-.112.037-.179.115-.146.21s.086.107.288.09c.362-.035.509.054.579.264A.416.416,0,0,1,913.333,573.406Z" transform="translate(-911.191 -570.707)"/><path class="as" d="M913.275,573.353l.074.225-.215.057-.071-.215a.743.743,0,0,1-.46-.062l.065-.266a.537.537,0,0,0,.407.053c.134-.039.194-.117.16-.217-.027-.082-.1-.115-.306-.1-.348.027-.481-.075-.544-.267a.429.429,0,0,1,.222-.524l-.076-.229.209-.076.077.231a.8.8,0,0,1,.395.019l-.051.285a.564.564,0,0,0-.378-.018c-.111.037-.179.115-.147.211.027.08.086.106.288.089.363-.035.51.054.58.264A.416.416,0,0,1,913.275,573.353Z" transform="translate(-911.181 -570.711)"/></g><ellipse class="q" cx="1.901" cy="1.991" rx="1.901" ry="1.991" transform="translate(0 0.002)"/><g transform="translate(0 0.002)"><g class="ap"><path class="r" d="M914.2,571.585a1.96,1.96,0,0,0-.908-1.109,3.574,3.574,0,0,1-1.629,3.189l.8.3,1.027-.095A2.044,2.044,0,0,0,914.2,571.585Z" transform="translate(-910.726 -570.163)"/></g></g><path class="s" d="M913.262,573.979c.038-.01.077-.021.115-.033a2.019,2.019,0,0,0,1.106-2.505,1.885,1.885,0,0,0-2.348-1.257c-.041.017-.074.025-.116.044a1.9,1.9,0,0,1,2.242,1.294A2.028,2.028,0,0,1,913.262,573.979Z" transform="translate(-910.785 -570.098)"/><g transform="translate(1.241 0.002)"><g class="at"><g class="u" transform="translate(1.173 0.202)"><path class="v" d="M914.27,571.249l.594-.053-.256-.493-.708.115Z" transform="translate(-913.516 -570.404)"/><path class="v" d="M913.65,570.581l.708-.083-.082-.155-.838.162Z" transform="translate(-913.438 -570.344)"/></g></g></g><ellipse class="au" cx="1.38" cy="1.552" rx="1.38" ry="1.552" transform="matrix(0.978, -0.207, 0.207, 0.978, 0.121, 0.815)"/><g class="x" transform="translate(0.355 0.451)"><path class="y" d="M912.388,573.837a1.492,1.492,0,0,1-1.2-.825,1.788,1.788,0,0,1-.111-1.484,1.377,1.377,0,0,1,1.164-.884,1.476,1.476,0,0,1,1.3.665,1.459,1.459,0,0,0-1.293-.635,1.332,1.332,0,0,0-1.111.875,1.747,1.747,0,0,0,.082,1.45A1.479,1.479,0,0,0,912.388,573.837Z" transform="translate(-910.963 -570.64)"/></g><g transform="translate(1.229 1.003)"><path class="z" d="M912.927,573l.074.225-.215.057-.06-.037-.011-.179a.744.744,0,0,1-.46-.062l-.067-.048.132-.219a.532.532,0,0,0,.407.053c.134-.038.194-.117.161-.216-.028-.082-.1-.115-.307-.1-.348.027-.481-.075-.544-.267a.43.43,0,0,1,.222-.524l-.076-.228.175-.154.035.078.076.23a.954.954,0,0,1,.366-.047l.029.067-.052.286a.559.559,0,0,0-.378-.018c-.111.037-.179.114-.147.21.027.08.087.107.289.089.362-.034.509.054.579.265A.416.416,0,0,1,912.927,573Z" transform="translate(-912.014 -571.304)"/></g><g transform="translate(1.181 1.024)"><path class="av" d="M912.868,572.947l.075.225-.215.057-.072-.215a.74.74,0,0,1-.459-.062l.064-.267a.534.534,0,0,0,.408.053c.134-.038.194-.116.16-.216-.027-.081-.1-.115-.306-.1-.349.026-.481-.075-.545-.267a.431.431,0,0,1,.222-.524l-.075-.229.209-.076.077.23a.806.806,0,0,1,.4.02l-.052.285a.561.561,0,0,0-.378-.018c-.112.037-.178.115-.147.21s.087.107.288.09c.363-.035.51.054.579.264A.415.415,0,0,1,912.868,572.947Z" transform="translate(-911.956 -571.329)"/></g></g><g transform="translate(56.601)"><g class="h" transform="translate(0.338 0.338)"><ellipse cx="3.106" cy="3.254" rx="3.106" ry="3.254"/><g class="aw"><path class="l" d="M924.494,565.9a3.34,3.34,0,0,0-.717-2.265,5.57,5.57,0,0,1-4.346,3.767l1.038.967,1.61.524A3.214,3.214,0,0,0,924.494,565.9Z" transform="translate(-918.673 -562.484)"/></g><path class="m" d="M921.961,568.734c.063.011.127.018.191.025a3.168,3.168,0,0,0,3.153-3.073,3.211,3.211,0,0,0-2.807-3.422c-.072,0-.127-.011-.2-.01a3.244,3.244,0,0,1,2.625,3.41A3.18,3.18,0,0,1,921.961,568.734Z" transform="translate(-919.098 -562.252)"/><g transform="translate(2.863 0.015)"><g class="ax"><path d="M925.165,565.255l.929.306-.1-.912-1.139-.285Z" transform="translate(-922.448 -562.622)"/><path d="M924.617,563.858l1.12.334-.033-.287-1.363-.3Z" transform="translate(-922.361 -562.494)"/></g></g><ellipse class="ay" cx="2.544" cy="2.248" rx="2.544" ry="2.248" transform="translate(0.577 5.728) rotate(-88.02)"/><path d="M920.583,568.056a2.517,2.517,0,0,1-1.335-2,2.9,2.9,0,0,1,.709-2.337,2.174,2.174,0,0,1,2.317-.588,2.483,2.483,0,0,1,1.538,1.845,2.542,2.542,0,0,0-1.559-1.784,2.092,2.092,0,0,0-2.226.593,2.82,2.82,0,0,0-.715,2.264A2.577,2.577,0,0,0,920.583,568.056Z" transform="translate(-918.638 -562.379)"/><path d="M921.97,567.042l-.02.389-.359-.055-.07-.095.09-.277a1.253,1.253,0,0,1-.659-.392l-.073-.117.329-.245a.9.9,0,0,0,.584.344c.225.029.362-.05.371-.223.008-.141-.084-.239-.406-.345-.542-.186-.683-.425-.666-.757a.674.674,0,0,1,.646-.648l.022-.394.354-.12.006.141-.021.4a1.564,1.564,0,0,1,.581.165l.005.121-.246.4a.942.942,0,0,0-.561-.273c-.191-.016-.338.057-.347.224-.008.138.067.218.383.322.568.182.739.412.72.775A.653.653,0,0,1,921.97,567.042Z" transform="translate(-918.916 -562.564)"/><path class="az" d="M921.937,566.924l-.02.389-.359-.055.02-.372a1.253,1.253,0,0,1-.659-.392l.255-.362a.9.9,0,0,0,.584.344c.225.029.362-.05.371-.223.007-.141-.083-.239-.406-.345-.542-.185-.683-.425-.665-.756a.675.675,0,0,1,.646-.649l.021-.394.36.021-.021.4a1.342,1.342,0,0,1,.586.285l-.246.4a.942.942,0,0,0-.561-.273c-.191-.016-.338.057-.347.224-.007.138.067.218.383.322.568.182.738.412.719.775A.653.653,0,0,1,921.937,566.924Z" transform="translate(-918.923 -562.564)"/></g><ellipse class="q" cx="3.106" cy="3.254" rx="3.106" ry="3.254"/><g class="aw"><path class="r" d="M924.088,565.489a3.341,3.341,0,0,0-.717-2.265,5.57,5.57,0,0,1-4.346,3.767l1.038.967,1.61.524A3.216,3.216,0,0,0,924.088,565.489Z" transform="translate(-918.267 -562.077)"/></g><path class="s" d="M921.554,568.328c.063.011.127.018.192.024a3.168,3.168,0,0,0,3.153-3.072,3.212,3.212,0,0,0-2.808-3.423c-.072,0-.127-.01-.2-.009a3.244,3.244,0,0,1,2.625,3.41A3.181,3.181,0,0,1,921.554,568.328Z" transform="translate(-918.692 -561.846)"/><g transform="translate(2.862 0.015)"><g class="ba"><g class="u" transform="translate(1.981 1.113)"><path class="v" d="M924.759,564.848l.929.306-.1-.912-1.139-.285Z" transform="translate(-924.022 -563.328)"/><path class="v" d="M924.21,563.452l1.12.334-.033-.287-1.363-.3Z" transform="translate(-923.935 -563.201)"/></g></g></g><ellipse class="bb" cx="2.544" cy="2.248" rx="2.544" ry="2.248" transform="translate(0.577 5.728) rotate(-88.02)"/><g class="x" transform="translate(0.585 0.629)"><path class="y" d="M920.177,567.649a2.513,2.513,0,0,1-1.335-2,2.9,2.9,0,0,1,.709-2.337,2.172,2.172,0,0,1,2.317-.588,2.483,2.483,0,0,1,1.538,1.845,2.543,2.543,0,0,0-1.56-1.785,2.093,2.093,0,0,0-2.226.594,2.821,2.821,0,0,0-.715,2.264A2.573,2.573,0,0,0,920.177,567.649Z" transform="translate(-918.817 -562.601)"/></g><g transform="translate(1.963 1.544)"><path class="z" d="M921.564,566.636l-.021.389-.359-.055-.07-.1.089-.277a1.252,1.252,0,0,1-.658-.391l-.073-.116.328-.245a.9.9,0,0,0,.585.344c.225.029.362-.051.371-.224.008-.141-.084-.238-.406-.344-.542-.185-.683-.425-.665-.757a.674.674,0,0,1,.646-.648l.021-.394.355-.12.006.141-.021.4a1.554,1.554,0,0,1,.581.165l.005.121-.246.4a.944.944,0,0,0-.561-.273c-.19-.016-.337.057-.346.224-.008.138.067.218.383.322.568.182.739.412.719.775A.654.654,0,0,1,921.564,566.636Z" transform="translate(-920.473 -563.702)"/></g><g transform="translate(1.996 1.546)"><path class="bc" d="M921.531,566.518l-.021.389-.359-.055.019-.373a1.246,1.246,0,0,1-.658-.391l.254-.362a.9.9,0,0,0,.585.344c.225.029.362-.051.371-.224.008-.141-.084-.238-.406-.344-.542-.185-.683-.425-.665-.757a.675.675,0,0,1,.645-.648l.021-.394.361.021-.021.4a1.332,1.332,0,0,1,.586.285l-.246.4a.944.944,0,0,0-.561-.273c-.19-.016-.337.057-.346.224-.007.138.067.218.383.322.568.182.739.412.72.775A.654.654,0,0,1,921.531,566.518Z" transform="translate(-920.513 -563.704)"/></g></g><g transform="translate(31.188 38.136)"><g class="h" transform="translate(0.338 0.338)"><ellipse cx="1.942" cy="2.035" rx="1.942" ry="2.035" transform="translate(0 0.001)"/><g transform="translate(0 0.001)"><g class="bd"><path class="l" d="M891.715,610.288a2.077,2.077,0,0,0-.507-1.394,3.5,3.5,0,0,1-2.617,2.477l.674.575,1.019.281A2.02,2.02,0,0,0,891.715,610.288Z" transform="translate(-888.073 -608.233)"/></g></g><path class="m" d="M890.221,612.156c.04,0,.08.008.121.01a2.041,2.041,0,0,0,.046-4.067c-.045,0-.079,0-.127,0a2.019,2.019,0,0,1,1.729,2.055A2,2,0,0,1,890.221,612.156Z" transform="translate(-888.347 -608.098)"/><g transform="translate(1.874 0.003)"><g class="be"><path d="M892.1,609.894l.589.165-.084-.567-.719-.145Z" transform="translate(-890.501 -608.311)"/><path d="M891.719,609.037l.708.176-.028-.179-.859-.147Z" transform="translate(-890.443 -608.234)"/></g></g><ellipse class="bf" cx="1.591" cy="1.405" rx="1.591" ry="1.405" transform="translate(0.404 3.627) rotate(-89.579)"/><path d="M889.323,611.761a1.591,1.591,0,0,1-.881-1.212,1.815,1.815,0,0,1,.377-1.477,1.36,1.36,0,0,1,1.429-.43,1.568,1.568,0,0,1,1.012,1.1,1.55,1.55,0,0,0-1.021-1.076,1.315,1.315,0,0,0-1.375.439,1.774,1.774,0,0,0-.393,1.434A1.576,1.576,0,0,0,889.323,611.761Z" transform="translate(-888.043 -608.18)"/><path d="M890.162,611.095l0,.244-.225-.024-.046-.057.048-.175a.775.775,0,0,1-.421-.226l-.049-.07.2-.163a.558.558,0,0,0,.373.2c.141.012.225-.042.226-.15,0-.088-.059-.146-.263-.2-.343-.1-.437-.246-.435-.453a.424.424,0,0,1,.386-.424l0-.246.219-.085.007.087,0,.25a.96.96,0,0,1,.367.086l.007.075-.144.256a.588.588,0,0,0-.358-.155c-.119,0-.209.046-.21.15,0,.087.048.134.248.19.359.1.472.236.469.464A.411.411,0,0,1,890.162,611.095Z" transform="translate(-888.22 -608.293)"/><path class="bg" d="M890.138,611.024l0,.244-.226-.023,0-.234a.776.776,0,0,1-.422-.225l.15-.233a.564.564,0,0,0,.374.2c.141.012.225-.042.225-.15,0-.089-.058-.146-.262-.2-.344-.1-.438-.246-.436-.454a.424.424,0,0,1,.387-.423l0-.247.226,0,0,.25a.831.831,0,0,1,.373.161l-.143.255a.584.584,0,0,0-.358-.154c-.12,0-.21.046-.21.15,0,.087.047.134.247.19.36.1.472.236.47.464A.41.41,0,0,1,890.138,611.024Z" transform="translate(-888.225 -608.296)"/></g><ellipse class="q" cx="1.942" cy="2.035" rx="1.942" ry="2.035" transform="translate(0 0)"/><g transform="translate(0 0)"><g class="bd"><path class="r" d="M891.309,609.882a2.088,2.088,0,0,0-.507-1.395,3.5,3.5,0,0,1-2.617,2.478l.674.574,1.019.282A2.021,2.021,0,0,0,891.309,609.882Z" transform="translate(-887.667 -607.826)"/></g></g><path class="s" d="M889.815,611.751c.04.005.08.007.121.01a2.041,2.041,0,0,0,.046-4.068c-.045,0-.08,0-.127,0a2.019,2.019,0,0,1,1.729,2.055A2,2,0,0,1,889.815,611.751Z" transform="translate(-887.941 -607.692)"/><g transform="translate(1.874 0.003)"><g class="bh"><g class="u" transform="translate(1.098 0.654)"><path class="v" d="M891.692,609.487l.589.165-.084-.567-.719-.145Z" transform="translate(-891.192 -608.559)"/><path class="v" d="M891.313,608.631l.708.177-.028-.179-.859-.147Z" transform="translate(-891.134 -608.482)"/></g></g></g><ellipse class="bi" cx="1.591" cy="1.405" rx="1.591" ry="1.405" transform="translate(0.404 3.627) rotate(-89.579)"/><g class="x" transform="translate(0.371 0.402)"><path class="y" d="M888.917,611.355a1.592,1.592,0,0,1-.882-1.212,1.821,1.821,0,0,1,.378-1.478,1.357,1.357,0,0,1,1.428-.429,1.57,1.57,0,0,1,1.012,1.1,1.556,1.556,0,0,0-1.021-1.076,1.316,1.316,0,0,0-1.375.44,1.771,1.771,0,0,0-.393,1.434A1.574,1.574,0,0,0,888.917,611.355Z" transform="translate(-888.008 -608.175)"/></g><g transform="translate(1.245 0.964)"><path class="z" d="M889.755,610.688l0,.244-.225-.023-.047-.058.049-.175a.78.78,0,0,1-.422-.226l-.049-.071.2-.162a.565.565,0,0,0,.374.2c.141.012.225-.042.226-.15,0-.089-.059-.146-.263-.2-.344-.1-.437-.246-.435-.454a.424.424,0,0,1,.386-.423l0-.247.219-.085.007.088,0,.25a.96.96,0,0,1,.367.086l.007.076-.144.255a.584.584,0,0,0-.358-.154c-.12,0-.21.046-.21.15,0,.086.047.134.248.19.359.1.472.236.469.464A.41.41,0,0,1,889.755,610.688Z" transform="translate(-889.059 -608.851)"/></g><g transform="translate(1.267 0.976)"><path class="bj" d="M889.732,610.618l0,.244-.225-.024,0-.233a.774.774,0,0,1-.421-.225l.15-.234a.564.564,0,0,0,.373.2c.141.012.225-.042.226-.151,0-.088-.058-.146-.263-.2-.344-.1-.438-.245-.435-.453a.423.423,0,0,1,.386-.423l0-.247.225,0,0,.25a.84.84,0,0,1,.373.161l-.143.256a.586.586,0,0,0-.358-.154c-.12-.005-.21.045-.211.149,0,.087.048.135.248.191.359.1.472.236.469.464A.41.41,0,0,1,889.732,610.618Z" transform="translate(-889.085 -608.866)"/></g></g><g transform="translate(33.041 26.603)"><g class="h" transform="translate(0.338 0.338)"><ellipse cx="3.19" cy="3.343" rx="3.19" ry="3.343" transform="translate(0 0)"/><g transform="translate(0 0)"><g class="bk"><path class="l" d="M896.352,597.831a3.422,3.422,0,0,0-.834-2.291,5.753,5.753,0,0,1-4.3,4.07l1.107.944,1.674.462A3.32,3.32,0,0,0,896.352,597.831Z" transform="translate(-890.368 -594.454)"/></g></g><path class="m" d="M893.9,600.9c.065.008.131.012.2.016a3.353,3.353,0,0,0,.075-6.681c-.074,0-.131-.005-.208,0a3.37,3.37,0,0,1-.065,6.666Z" transform="translate(-890.818 -594.234)"/><g transform="translate(3.079 0.005)"><g class="bl"><path d="M896.981,597.183l.967.27-.137-.932-1.181-.239Z" transform="translate(-894.356 -594.583)"/><path d="M896.357,595.775l1.164.29-.046-.293-1.411-.241Z" transform="translate(-894.261 -594.457)"/></g></g><ellipse class="bm" cx="2.613" cy="2.309" rx="2.613" ry="2.309" transform="translate(0.663 5.958) rotate(-89.579)"/><path d="M892.42,600.25a2.569,2.569,0,0,1-1.455-1.991,2.99,2.99,0,0,1,.626-2.429,2.238,2.238,0,0,1,2.35-.714,2.535,2.535,0,0,1,1.66,1.823,2.6,2.6,0,0,0-1.679-1.76,2.158,2.158,0,0,0-2.257.715,2.909,2.909,0,0,0-.636,2.354A2.633,2.633,0,0,0,892.42,600.25Z" transform="translate(-890.317 -594.366)"/><path d="M893.8,599.156l0,.4-.371-.039-.076-.095.08-.289a1.275,1.275,0,0,1-.692-.371l-.081-.116.327-.267a.924.924,0,0,0,.614.326c.233.018.369-.069.372-.247,0-.145-.1-.24-.432-.335-.564-.165-.719-.4-.715-.745a.7.7,0,0,1,.635-.7l.005-.406.359-.139.012.144,0,.41a1.6,1.6,0,0,1,.6.141l.01.124-.235.42a.97.97,0,0,0-.588-.254c-.2-.007-.344.075-.345.246,0,.142.078.22.406.312.591.161.776.388.772.762A.676.676,0,0,1,893.8,599.156Z" transform="translate(-890.609 -594.554)"/><path class="bn" d="M893.76,599.04l0,.4-.371-.039,0-.383a1.271,1.271,0,0,1-.692-.371l.246-.383a.921.921,0,0,0,.614.326c.232.019.369-.069.372-.246,0-.146-.1-.241-.432-.335-.564-.165-.719-.4-.715-.745a.7.7,0,0,1,.635-.7l.005-.406.371,0,0,.41a1.379,1.379,0,0,1,.614.265l-.235.421a.961.961,0,0,0-.588-.254c-.2-.007-.344.075-.346.245,0,.142.078.221.407.313.591.161.776.388.771.762A.674.674,0,0,1,893.76,599.04Z" transform="translate(-890.616 -594.558)"/></g><ellipse class="q" cx="3.19" cy="3.343" rx="3.19" ry="3.343" transform="translate(0 0.001)"/><g transform="translate(0 0.001)"><g class="bk"><path class="r" d="M895.945,597.425a3.419,3.419,0,0,0-.833-2.291,5.753,5.753,0,0,1-4.3,4.07l1.107.943,1.675.463A3.318,3.318,0,0,0,895.945,597.425Z" transform="translate(-889.961 -594.047)"/></g></g><path class="s" d="M893.49,600.495c.066.008.131.013.2.016a3.353,3.353,0,0,0,.076-6.682c-.074,0-.131-.005-.208,0a3.37,3.37,0,0,1-.066,6.666Z" transform="translate(-890.412 -593.827)"/><g transform="translate(3.078 0.006)"><g class="bo"><g class="u" transform="translate(1.803 1.073)"><path class="v" d="M896.574,596.777l.967.27-.137-.932-1.181-.239Z" transform="translate(-895.753 -595.251)"/><path class="v" d="M895.951,595.369l1.164.29-.046-.293-1.411-.241Z" transform="translate(-895.658 -595.124)"/></g></g></g><ellipse class="bp" cx="2.613" cy="2.309" rx="2.613" ry="2.309" transform="translate(0.663 5.959) rotate(-89.579)"/><g class="x" transform="translate(0.603 0.654)"><path class="y" d="M892.014,599.844a2.569,2.569,0,0,1-1.456-1.991,2.994,2.994,0,0,1,.627-2.429,2.237,2.237,0,0,1,2.349-.713,2.536,2.536,0,0,1,1.661,1.822,2.6,2.6,0,0,0-1.68-1.759,2.157,2.157,0,0,0-2.257.715,2.906,2.906,0,0,0-.636,2.354A2.628,2.628,0,0,0,892.014,599.844Z" transform="translate(-890.514 -594.614)"/></g><g transform="translate(2.046 1.585)"><path class="z" d="M893.393,598.749l0,.4-.371-.039-.076-.094.08-.289a1.271,1.271,0,0,1-.692-.371l-.081-.116.326-.268a.923.923,0,0,0,.615.326c.232.019.369-.068.372-.246,0-.146-.1-.241-.432-.335-.564-.165-.719-.4-.715-.745a.7.7,0,0,1,.635-.7l.005-.406.359-.139.013.144-.005.41a1.58,1.58,0,0,1,.6.141l.011.123-.235.421a.961.961,0,0,0-.588-.254c-.2-.008-.344.075-.346.246,0,.141.078.22.407.312.591.161.775.388.771.762A.674.674,0,0,1,893.393,598.749Z" transform="translate(-892.249 -595.732)"/></g><g transform="translate(2.08 1.605)"><path class="bq" d="M893.354,598.634l-.005.4-.371-.039,0-.383a1.285,1.285,0,0,1-.693-.371l.246-.384a.924.924,0,0,0,.615.326c.232.019.369-.069.371-.247,0-.145-.1-.24-.431-.334-.565-.166-.719-.4-.715-.745a.7.7,0,0,1,.635-.7l0-.405.372,0,0,.41a1.369,1.369,0,0,1,.614.265l-.236.421a.958.958,0,0,0-.587-.254c-.2-.007-.344.074-.346.245,0,.142.078.221.407.312.591.161.775.389.771.763A.674.674,0,0,1,893.354,598.634Z" transform="translate(-892.29 -595.756)"/></g></g></g><g transform="translate(952.686 531.038)"><g transform="translate(4.09 13.837)"><path d="M1025.989,567.113l.19,1.466a19.444,19.444,0,0,1-8.127-4.335l.969-1.066A16.63,16.63,0,0,0,1025.989,567.113Z" transform="translate(-985.04 -550.28)"/><path class="br" d="M1002.74,550.482s-1.933-.713-2.661.726a14.658,14.658,0,0,1-1.353,2.236l-1.194-.937-1.455,2.879,1.045.82-.155,1.326,3.456,4a16.116,16.116,0,0,0,3.049,1.749c2.541,1.271,5.68,3.01,5.68,3.01s1.4.777,2.182-.219,2.055-3.131,2.055-3.131l1.719.063,1.055-1.344-.719-1.851-6.719-5.272.429-.547-.313-.729Zm9.415,11.007a.913.913,0,0,1,.239,1.233c-.482.666-1.718,2.189-1.718,2.189s-.547.7-2.454-.357-4.871-2.657-4.871-2.657l.2-.249,3.359-4.28Z" transform="translate(-981.344 -548.115)"/><path d="M1007.749,560.369l2.352,1.845a3.283,3.283,0,0,1,1.205,1.73,16.857,16.857,0,0,1,.47,1.976l.7-.275s-.5-2.317-.558-2.477a3.518,3.518,0,0,0-1.263-1.657l-2.352-1.846Z" transform="translate(-983.307 -549.689)"/><path class="bs" d="M993.1,554.943l1.175-2.325s-6.592-4.735-8.356-4.934-6.184,2.089-7.553,2.933l.961,1.864,3.395-1.88a5.131,5.131,0,0,1,3.456-.286C987.847,550.889,993.1,554.943,993.1,554.943Z" transform="translate(-978.365 -547.672)"/></g><circle class="bt" cx="23.813" cy="23.813" r="23.813"/><line class="bu" x1="32.265" y2="35.027" transform="translate(7.776 6.388)"/></g><g transform="translate(906.244 589.932)"><g transform="translate(1.298 31.505)"><g transform="translate(125.587)"><path class="bv" d="M1070.157,639.737h8.111a5.544,5.544,0,0,1,5.475,4.669h0a2.812,2.812,0,0,1-2.777,3.257H1071.7Z" transform="translate(-1070.157 -639.737)"/><path class="bw" d="M1070.259,641.052h7.926a4.173,4.173,0,0,1,4.122,3.515h0a1.972,1.972,0,0,1-2.09,2.224l-8.566.227Z" transform="translate(-1070.174 -639.958)"/><path class="bx" d="M1072.095,645.726s3.853-4.282,6.2-4.686l-8.031.01Z" transform="translate(-1070.174 -639.956)"/></g><path class="bv" d="M932.8,639.737H924.69a5.545,5.545,0,0,0-5.475,4.669h0a2.812,2.812,0,0,0,2.777,3.257h9.263Z" transform="translate(-919.179 -639.737)"/><path class="bw" d="M933.034,641.04h-7.926a4.175,4.175,0,0,0-4.123,3.514h0a1.973,1.973,0,0,0,2.091,2.224l8.566.228Z" transform="translate(-919.478 -639.956)"/></g><g transform="translate(0 73.432)"><path class="bx" d="M9.722,0h0a9.722,9.722,0,0,1,9.722,9.722V43.056a4.292,4.292,0,0,1-4.292,4.292H4.292A4.292,4.292,0,0,1,0,43.056V9.722A9.722,9.722,0,0,1,9.722,0Z"/><g transform="translate(120.752)"><path class="bx" d="M9.722,0h0a9.722,9.722,0,0,1,9.722,9.722V43.056a4.292,4.292,0,0,1-4.292,4.292H4.292A4.292,4.292,0,0,1,0,43.056V9.722A9.722,9.722,0,0,1,9.722,0Z"/></g></g><path class="v" d="M1057.882,666.032v18.12l-2.284,8.616a18.067,18.067,0,0,1-17.462,13.433H937.428a18.064,18.064,0,0,1-17.463-13.433l-2.287-8.616v-18.12a8.571,8.571,0,0,1,.391-2.558l6.076-19.535a5.01,5.01,0,0,1,1.308-2.111l1.472-1.413a9.445,9.445,0,0,0,2.13-3.063l11.89-27.441a10.092,10.092,0,0,1,8.139-6.021c6.461-.72,23.071-2.029,38.695-2.029s32.234,1.308,38.7,2.029a10.082,10.082,0,0,1,8.136,6.021l11.891,27.441a9.485,9.485,0,0,0,2.13,3.063l1.472,1.413a4.945,4.945,0,0,1,1.308,2.111l6.079,19.535A8.684,8.684,0,0,1,1057.882,666.032Z" transform="translate(-917.628 -601.862)"/><path class="v" d="M1057.9,666.014v18.07l-2.586,8.592a18.015,18.015,0,0,1-17.413,13.4H937.47a18.014,18.014,0,0,1-17.414-13.4l-2.281-8.592v-18.07a8.548,8.548,0,0,1,.39-2.55l6.06-19.481a4.981,4.981,0,0,1,1.3-2.105L927,640.469a9.415,9.415,0,0,0,2.124-3.054l11.858-27.365a10.064,10.064,0,0,1,8.116-6c6.443-.719,23.007-2.023,38.588-2.023s32.145,1.3,38.592,2.023c3.585.4,7.3,2.692,8.728,6l11.859,27.365a9.454,9.454,0,0,0,2.124,3.054l1.467,1.409a4.915,4.915,0,0,1,1.3,2.105l5.755,19.481A8.654,8.654,0,0,1,1057.9,666.014Z" transform="translate(-917.644 -601.889)"/><path class="by" d="M944.446,663.068s1.618,7.381,2.426,8.392,1.012,2.022,5.764,2.326,51.364,1.415,64.912.3c0,0,13.953,0,15.065-.708a7.325,7.325,0,0,0,2.528-4.246c.2-1.415,1.213-6.572,1.213-6.572l11.691-15.039-4.019-9.821-107.53-.076-3.981,8.8Z" transform="translate(-920.123 -607.877)"/><path class="bz" d="M1057.882,700.283v.422l-2.284,8.616a18.067,18.067,0,0,1-17.462,13.433H937.428a18.064,18.064,0,0,1-17.463-13.433l-2.287-8.616v-.422s47.589,1.1,68.755,1.1C1015.44,701.386,1057.882,700.283,1057.882,700.283Z" transform="translate(-917.628 -618.414)"/><path class="a" d="M1057.882,700.283v.422l-2.284,8.616a18.067,18.067,0,0,1-17.462,13.433H937.428a18.064,18.064,0,0,1-17.463-13.433l-2.287-8.616v-.422s47.589,1.1,68.755,1.1C1015.44,701.386,1057.882,700.283,1057.882,700.283Z" transform="translate(-917.628 -618.414)"/><path class="bv" d="M1045.279,633.753l-8.224-20.51a10.092,10.092,0,0,0-8.138-6.021c-5.215-.581-23.979-2.026-37.582-2.026-13.279,0-32.367,1.444-37.581,2.026a10.092,10.092,0,0,0-8.139,6.021l-9.331,20.712s20.826.1,55.206.1S1045.279,633.753,1045.279,633.753Z" transform="translate(-920.757 -602.423)"/><path class="bx" d="M1027.9,609.3a9.75,9.75,0,0,1,7.867,5.756l8.643,19.532-106.672.007,9.648-19.539c1.391-3.177,4.37-5.885,7.865-5.756.24.009,17.983-.905,35.873-.908C1009.439,608.388,1027.9,609.3,1027.9,609.3Z" transform="translate(-921.002 -602.96)"/><g transform="translate(16.74 5.43)"><g class="ca"><path class="cb" d="M954.06,636.641s-.554-18,16.966-17.608c32.273.73,10.961-24.692,21.448-24.7l-55.22-2.122-9.169,20.039-2.917,15.935,1.028,5.1Z" transform="translate(-935.627 -605.669)"/></g></g><path class="bx" d="M1052.12,649.173c5.159-1.229,11.66-2.616,14.718-2.616a20.691,20.691,0,0,0,2.674,4.348c1.254,1.382,2.892,2.293,3.691,4.194l0,0c.9,1.713,1.7,8.8,1.853,10.191a.636.636,0,0,1,.024.229l0,.012h0a.634.634,0,0,1-.632.585h-23.5a6.182,6.182,0,0,1-6.182-6.182v-1.436A9.576,9.576,0,0,1,1052.12,649.173Z" transform="translate(-939.001 -609.379)"/><g transform="translate(0.131 0.289)"><g class="cc"><path class="cd" d="M924.681,712.5c9,2.055,129.648,7.82,133.51-44.964l27.693,48.966L921.346,736.411Z" transform="translate(-918.375 -613.195)"/></g></g><path class="bx" d="M946.311,649.173c-5.159-1.229-11.661-2.616-14.719-2.616a20.671,20.671,0,0,1-2.674,4.348c-1.253,1.382-2.892,2.293-3.691,4.194l0,0c-.9,1.713-1.7,8.8-1.853,10.191a.636.636,0,0,0-.024.229l0,.012h0a.634.634,0,0,0,.632.585h23.5a6.182,6.182,0,0,0,6.182-6.182v-1.436A9.576,9.576,0,0,0,946.311,649.173Z" transform="translate(-918.581 -609.379)"/><circle class="ce" cx="6.002" cy="6.002" r="6.002" transform="translate(9.433 42.469)"/><path class="cf" d="M928.257,659.734s6.342,5.161,12.911-2.213c0,0,.161,5.651.05,5.784s-5.887,3.712-5.887,3.712l-2.144.814-5.6-6.546Z" transform="translate(-919.294 -611.223)"/><path class="bx" d="M1052.028,649.31c5.16-1.229,11.661-2.616,14.719-2.616a20.7,20.7,0,0,0,2.674,4.348c1.253,1.382,2.892,2.293,3.691,4.194l0-.005c.9,1.713,1.7,8.8,1.854,10.191a.636.636,0,0,1,.024.229v.013l0,0a.634.634,0,0,1-.633.586h-23.5a6.182,6.182,0,0,1-6.181-6.182v-1.436A9.576,9.576,0,0,1,1052.028,649.31Z" transform="translate(-938.986 -609.402)"/><circle class="ce" cx="6.002" cy="6.002" r="6.002" transform="translate(119.411 42.469)"/><circle class="ce" cx="2.77" cy="2.77" r="2.77" transform="translate(111.049 47.907)"/><circle class="ce" cx="2.77" cy="2.77" r="2.77" transform="translate(24.937 48.049)"/><path class="cf" d="M1060.441,659.742s6.341,5.161,12.911-2.213c0,0,.16,5.651.049,5.784s-5.887,3.712-5.887,3.712l-2.144.815-5.6-6.546Z" transform="translate(-941.524 -611.224)"/><rect class="cg" width="26.543" height="13.271" rx="1.761" transform="translate(57.34 51.225)"/><path class="ch" d="M1003.371,648.764l1.876.381-4.239,7.968-.262-6.587-1.876-.381,4.239-7.968Z" transform="translate(-931.282 -608.642)"/><text class="ci" transform="translate(63.199 60.144)"><tspan x="0" y="0">EV</tspan></text></g><rect class="cj" width="170.176" height="5.852" rx="2.926" transform="translate(891.41 707.249)"/></g></svg>